<svg width="14" height="14" viewBox="0 0 14 14" fill="none" xmlns="http://www.w3.org/2000/svg">
<circle cx="7" cy="7" r="6.4" stroke="black" stroke-width="1.2"/>
<path d="M7.00078 11.4C7.38738 11.4 7.70078 11.0866 7.70078 10.7C7.70078 10.3134 7.38738 10 7.00078 10C6.61418 10 6.30078 10.3134 6.30078 10.7C6.30078 11.0866 6.61418 11.4 7.00078 11.4Z" fill="black"/>
<path d="M5 5.49C5 4.39 5.89 3.5 6.99 3.5C8.09 3.5 8.98 4.39 8.98 5.49C8.98 6.33 8.35 6.91 8.22 7.04C8.09 7.17 7.5 7.6001 7.2 7.93C6.9 8.2599 6.94 8.77 6.94 8.77" stroke="black" stroke-width="1.2" stroke-linecap="round" stroke-linejoin="round"/>
</svg>
