<svg width="24" height="24" viewBox="0 0 24 24" fill="none" xmlns="http://www.w3.org/2000/svg">
<rect width="24" height="24" rx="12" fill="#9ECAFF"/>
<path d="M15.0933 10.6465L16.3067 9.43314L17.1067 10.2331C17.2867 10.4131 17.58 10.4131 17.76 10.2331L18.4467 9.54647C18.6267 9.36647 18.6267 9.07314 18.4467 8.89314L15.1134 5.5598C14.9334 5.3798 14.64 5.3798 14.46 5.5598L13.7733 6.24647C13.5933 6.42647 13.5933 6.7198 13.7733 6.8998L14.56 7.68647L13.3467 8.8998C11.2467 7.92647 9.54 8.0998 7.72 9.70647C7.59333 9.8198 7.59333 10.0198 7.71333 10.1465L13.86 16.2931C13.98 16.4131 14.1933 16.4131 14.3067 16.2865C15.9 14.4731 16.0733 12.7531 15.1 10.6598L15.0933 10.6465Z" stroke="#0067AC" stroke-linecap="round" stroke-linejoin="round"/>
<path d="M10.7866 13.2134L5.41998 18.58" stroke="#0067AC" stroke-linecap="round" stroke-linejoin="round"/>
</svg>
