<svg width="16" height="16" viewBox="0 0 16 16" fill="none" xmlns="http://www.w3.org/2000/svg">
<g id="icon" clip-path="url(#clip0_522_18616)">
<g id="Group">
<path id="Vector" d="M15.3924 12.9141L12.8104 15.4041L10.2285 12.9141" stroke="#333333" stroke-width="1.2" stroke-linecap="round" stroke-linejoin="round"/>
<path id="Vector_2" d="M12.8105 8.49219V15.4022" stroke="#333333" stroke-width="1.2" stroke-linecap="round" stroke-linejoin="round"/>
</g>
<path id="Vector_3" d="M13.6868 5.30719C12.8294 2.58719 10.2874 0.617188 7.29672 0.617188C3.59828 0.617188 0.597656 3.62719 0.597656 7.34719C0.597656 11.0672 3.59828 14.0672 7.29672 14.0672" stroke="#333333" stroke-width="1.2" stroke-linecap="round" stroke-linejoin="round"/>
<g id="Group_2">
<path id="Vector_4" d="M8.56362 5.18105C8.56362 5.18105 8.03527 4.83105 7.26767 4.92105C6.65957 4.99105 6.15116 5.32105 6.16113 6.01105C6.1711 6.58105 6.66954 6.98105 7.4172 7.26105C8.16487 7.53105 8.64337 7.70105 8.67328 8.51105C8.70318 9.32105 8.00536 9.76105 7.43714 9.78105C6.86892 9.80105 6.61969 9.75105 5.92188 9.44105" stroke="#333333" stroke-width="1.2" stroke-linecap="round" stroke-linejoin="round"/>
<path id="Vector_5" d="M7.4082 3.8125V4.9325" stroke="#333333" stroke-width="1.2" stroke-linecap="round" stroke-linejoin="round"/>
<path id="Vector_6" d="M7.35742 10.8791V9.78906" stroke="#333333" stroke-width="1.2" stroke-linecap="round" stroke-linejoin="round"/>
</g>
</g>
<defs>
<clipPath id="clip0_522_18616">
<rect width="16" height="16" fill="white"/>
</clipPath>
</defs>
</svg>
