<svg width="16" height="16" viewBox="0 0 16 16" fill="none" xmlns="http://www.w3.org/2000/svg">
<g id="share 1" clip-path="url(#clip0_1874_46881)">
<g id="&#235;&#160;&#136;&#236;&#157;&#180;&#236;&#150;&#180; 1">
<g id="Group">
<path id="Vector" d="M3.14931 10.4628C4.5359 10.4628 5.65995 9.36149 5.65995 8.0029C5.65995 6.64432 4.5359 5.54297 3.14931 5.54297C1.76272 5.54297 0.638672 6.64432 0.638672 8.0029C0.638672 9.36149 1.76272 10.4628 3.14931 10.4628Z" stroke="#333333" stroke-width="1.2" stroke-miterlimit="10" stroke-linecap="round"/>
<path id="Vector_2" d="M12.8622 5.54487C14.2488 5.54487 15.3728 4.44352 15.3728 3.08493C15.3728 1.72635 14.2488 0.625 12.8622 0.625C11.4756 0.625 10.3516 1.72635 10.3516 3.08493C10.3516 4.44352 11.4756 5.54487 12.8622 5.54487Z" stroke="#333333" stroke-width="1.2" stroke-miterlimit="10" stroke-linecap="round"/>
<path id="Vector_3" d="M12.8622 15.373C14.2488 15.373 15.3728 14.2716 15.3728 12.9131C15.3728 11.5545 14.2488 10.4531 12.8622 10.4531C11.4756 10.4531 10.3516 11.5545 10.3516 12.9131C10.3516 14.2716 11.4756 15.373 12.8622 15.373Z" stroke="#333333" stroke-width="1.2" stroke-miterlimit="10" stroke-linecap="round"/>
<path id="Vector_4" d="M5.37305 6.86892L10.6284 4.21094" stroke="#333333" stroke-width="1.2" stroke-miterlimit="10" stroke-linecap="round"/>
<path id="Vector_5" d="M10.6282 11.7869L5.35156 9.16016" stroke="#333333" stroke-width="1.2" stroke-miterlimit="10" stroke-linecap="round"/>
</g>
</g>
</g>
<defs>
<clipPath id="clip0_1874_46881">
<rect width="16" height="16" fill="white"/>
</clipPath>
</defs>
</svg>
