<svg width="16" height="16" viewBox="0 0 16 16" fill="none" xmlns="http://www.w3.org/2000/svg">
<g id="icon" clip-path="url(#clip0_522_9560)">
<g id="Group">
<path id="Vector" d="M8 15.25C12.0041 15.25 15.25 12.0041 15.25 8C15.25 3.99594 12.0041 0.75 8 0.75C3.99594 0.75 0.75 3.99594 0.75 8C0.75 12.0041 3.99594 15.25 8 15.25Z" stroke="#FFFFFF" stroke-width="1.2" stroke-linecap="round" stroke-linejoin="round"/>
<g id="Group_2">
<path id="Vector_2" d="M9.36 5.66395C9.36 5.66395 8.79 5.28395 7.96 5.38395C7.31 5.46395 6.75 5.81395 6.77 6.55395C6.78 7.17395 7.32 7.60395 8.12 7.90395C8.93 8.20395 9.45 8.37395 9.48 9.25395C9.51 10.124 8.76 10.604 8.14 10.624C7.52 10.644 7.26 10.594 6.5 10.264" stroke="#FFFFFF" stroke-width="1.2" stroke-linecap="round" stroke-linejoin="round"/>
<path id="Vector_3" d="M8.12109 4.1875V5.3875" stroke="#FFFFFF" stroke-width="1.2" stroke-linecap="round" stroke-linejoin="round"/>
<path id="Vector_4" d="M8.05859 11.8106V10.6406" stroke="#FFFFFF" stroke-width="1.2" stroke-linecap="round" stroke-linejoin="round"/>
</g>
</g>
</g>
<defs>
<clipPath id="clip0_522_9560">
<rect width="16" height="16" fill="white"/>
</clipPath>
</defs>
</svg>
