<svg width="17" height="16" viewBox="0 0 17 16" fill="none" xmlns="http://www.w3.org/2000/svg">
<g id="icon_map" clip-path="url(#clip0_522_12552)">
<path id="Vector" d="M9.95 9.45H12.55L14.5 14H1.5L3.45 9.45H6.05M8.65 4.9C8.65 5.07239 8.58152 5.23772 8.45962 5.35962C8.33772 5.48152 8.17239 5.55 8 5.55C7.82761 5.55 7.66228 5.48152 7.54038 5.35962C7.41848 5.23772 7.35 5.07239 7.35 4.9C7.35 4.72761 7.41848 4.56228 7.54038 4.44038C7.66228 4.31848 7.82761 4.25 8 4.25C8.17239 4.25 8.33772 4.31848 8.45962 4.44038C8.58152 4.56228 8.65 4.72761 8.65 4.9ZM4.1 4.9C4.1 8.15 8 11.4 8 11.4C8 11.4 11.9 8.15 11.9 4.9C11.9 2.67895 10.1541 1 8 1C5.8459 1 4.1 2.67895 4.1 4.9Z" stroke="white"/>
</g>
<defs>
<clipPath id="clip0_522_12552">
<rect width="16" height="16" fill="white" transform="translate(0.5)"/>
</clipPath>
</defs>
</svg>
