<svg width="16" height="16" viewBox="0 0 16 16" fill="none" xmlns="http://www.w3.org/2000/svg">
<g id="_&#235;&#160;&#136;&#236;&#157;&#180;&#236;&#150;&#180;_1" clip-path="url(#clip0_566_11174)">
<path id="Vector" d="M12.8891 14.8894H3.10906C1.95906 14.8894 1.03906 13.9594 1.03906 12.8194V7.97937V3.17938C1.03906 2.02938 1.96906 1.10938 3.10906 1.10938H12.8791C14.0291 1.10938 14.9491 2.03938 14.9491 3.17938V12.8194C14.9491 13.9694 14.0191 14.8894 12.8791 14.8894H12.8891Z" stroke="#FFFFFF" stroke-width="1.2" stroke-linecap="round" stroke-linejoin="round"/>
<path id="Vector_2" d="M8 1.5V14.32" stroke="#FFFFFF" stroke-width="1.2" stroke-linecap="round" stroke-linejoin="round"/>
<path id="Vector_3" d="M14.6407 8H1.4707" stroke="#FFFFFF" stroke-width="1.2" stroke-linecap="round" stroke-linejoin="round"/>
<g id="Group">
<g id="Group_2">
<g id="Group_3">
<path id="Vector_4" d="M4.59961 3.32812V5.99813" stroke="#FFFFFF" stroke-linecap="round" stroke-linejoin="round"/>
<path id="Vector_5" d="M5.93953 4.65625H3.26953" stroke="#FFFFFF" stroke-linecap="round" stroke-linejoin="round"/>
</g>
<path id="Vector_6" d="M12.7891 4.65625H10.1191" stroke="#FFFFFF" stroke-linecap="round" stroke-linejoin="round"/>
</g>
<g id="Group_4">
<g id="Group_5">
<path id="Vector_7" d="M5.55016 10.3086L3.66016 12.1986" stroke="#FFFFFF" stroke-linecap="round" stroke-linejoin="round"/>
<path id="Vector_8" d="M5.55016 12.1986L3.66016 10.3086" stroke="#FFFFFF" stroke-linecap="round" stroke-linejoin="round"/>
</g>
<g id="Group_6">
<path id="Vector_9" d="M12.7911 10.5312H10.1211" stroke="#FFFFFF" stroke-linecap="round" stroke-linejoin="round"/>
<path id="Vector_10" d="M12.7911 11.9805H10.1211" stroke="#FFFFFF" stroke-linecap="round" stroke-linejoin="round"/>
</g>
</g>
</g>
</g>
<defs>
<clipPath id="clip0_566_11174">
<rect width="16" height="16" fill="white"/>
</clipPath>
</defs>
</svg>
