<svg width="16" height="16" viewBox="0 0 16 16" fill="none" xmlns="http://www.w3.org/2000/svg">
<g id="_&#234;&#178;&#169;&#235;&#166;&#172;_&#235;&#170;&#168;&#235;&#147;&#156;" clip-path="url(#clip0_522_12530)">
<g id="Group">
<path id="Vector" d="M4.11375 7.35103C3.71375 6.65769 3.48708 5.84436 3.50708 4.98436C3.56708 2.50436 5.63375 0.54436 8.11375 0.611027C10.5937 0.677693 12.5537 2.73769 12.4871 5.21769C12.4604 6.16436 12.1471 7.03103 11.6337 7.73769C11.5604 7.83769 11.4804 7.93769 11.4004 8.03103" stroke="#FFFFFF" stroke-width="1.2" stroke-linecap="round" stroke-linejoin="round"/>
<g id="Group_2">
<path id="Vector_2" d="M8.80797 3.73106C8.80797 3.73106 8.47464 3.51773 8.00797 3.57106C7.63464 3.61773 7.31464 3.81773 7.3213 4.24439C7.32797 4.59773 7.63464 4.84439 8.1013 5.01773C8.5613 5.19106 8.86797 5.29106 8.8813 5.79106C8.9013 6.29106 8.46797 6.57106 8.10797 6.57773C7.75464 6.59106 7.6013 6.55773 7.16797 6.37106" stroke="#FFFFFF" stroke-width="1.2" stroke-linecap="round" stroke-linejoin="round"/>
<path id="Vector_3" d="M8.08789 2.875V3.56833" stroke="#FFFFFF" stroke-width="1.2" stroke-linecap="round" stroke-linejoin="round"/>
<path id="Vector_4" d="M8.05469 7.25146V6.57812" stroke="#FFFFFF" stroke-width="1.2" stroke-linecap="round" stroke-linejoin="round"/>
</g>
</g>
<path id="Vector_5" d="M6.92641 11.3024L9.69307 11.3757C10.2131 11.3891 10.6531 10.9824 10.6664 10.4691C10.6797 9.95573 10.2664 9.52906 9.74641 9.50906L3.88641 9.28906L0.566406 11.0957" stroke="#FFFFFF" stroke-width="1.2" stroke-linecap="round" stroke-linejoin="round"/>
<path id="Vector_6" d="M10.9665 12.2734L14.1531 11.0667C14.6398 10.8867 15.1931 11.1334 15.3731 11.6134C15.5531 12.0934 15.3065 12.6334 14.8198 12.8134L9.27312 14.8934L4.42646 14.2267L1.95312 15.4601" stroke="#FFFFFF" stroke-width="1.2" stroke-linecap="round" stroke-linejoin="round"/>
</g>
<defs>
<clipPath id="clip0_522_12530">
<rect width="16" height="16" fill="white"/>
</clipPath>
</defs>
</svg>
