<svg width="16" height="16" viewBox="0 0 16 16" fill="none" xmlns="http://www.w3.org/2000/svg">
<g id="Icon / 16 / Setting" clip-path="url(#clip0_1486_5958)">
<g id="Group">
<path id="Vector" d="M13.5014 9.62922H14.4914C14.9514 9.62922 15.3114 9.25922 15.3114 8.80922V7.20922C15.3114 6.74922 14.9414 6.38922 14.4914 6.38922H13.5014L13.0414 5.26922L13.7414 4.56922C14.0614 4.24922 14.0614 3.72922 13.7414 3.39922L12.6114 2.26922C12.2914 1.94922 11.7714 1.94922 11.4414 2.26922L10.7414 2.96922L9.62141 2.50922V1.51922C9.62141 1.05922 9.25141 0.699219 8.80141 0.699219H7.20141C6.74141 0.699219 6.38141 1.06922 6.38141 1.51922V2.50922L5.26141 2.96922L4.56141 2.26922C4.24141 1.94922 3.72141 1.94922 3.39141 2.26922L2.26141 3.39922C1.94141 3.71922 1.94141 4.23922 2.26141 4.56922L2.96141 5.26922L2.50141 6.38922H1.51141C1.05141 6.38922 0.691406 6.75922 0.691406 7.20922V8.80922C0.691406 9.26922 1.06141 9.62922 1.51141 9.62922H2.50141L2.96141 10.7492L2.26141 11.4492C1.94141 11.7692 1.94141 12.2892 2.26141 12.6192L3.39141 13.7492C3.71141 14.0692 4.23141 14.0692 4.56141 13.7492L5.26141 13.0492L6.38141 13.5092V14.4992C6.38141 14.9592 6.75141 15.3192 7.20141 15.3192H8.80141C9.26141 15.3192 9.62141 14.9492 9.62141 14.4992V13.5092L10.7414 13.0492L11.4414 13.7492C11.7614 14.0692 12.2814 14.0692 12.6114 13.7492L13.7414 12.6192C14.0614 12.2992 14.0614 11.7792 13.7414 11.4492L13.0414 10.7492L13.5014 9.62922Z" stroke="white" stroke-width="1.2" stroke-linecap="round" stroke-linejoin="round"/>
<path id="Vector_2" d="M8.0025 10.4386C9.35007 10.4386 10.4425 9.34617 10.4425 7.99859C10.4425 6.65102 9.35007 5.55859 8.0025 5.55859C6.65493 5.55859 5.5625 6.65102 5.5625 7.99859C5.5625 9.34617 6.65493 10.4386 8.0025 10.4386Z" stroke="white" stroke-width="1.2" stroke-linecap="round" stroke-linejoin="round"/>
</g>
</g>
<defs>
<clipPath id="clip0_1486_5958">
<rect width="16" height="16" fill="white"/>
</clipPath>
</defs>
</svg>
