<svg width="16" height="17" viewBox="0 0 16 17" fill="none" xmlns="http://www.w3.org/2000/svg">
<g id="_&#235;&#160;&#136;&#236;&#157;&#180;&#236;&#150;&#180;_1" clip-path="url(#clip0_841_39482)">
<path id="Vector" d="M13.3998 3.30156H11.7098L10.4798 1.11156C10.2998 0.791562 9.96984 0.601562 9.59984 0.601562H6.36984C6.00984 0.611562 5.67984 0.811562 5.49984 1.12156L4.27984 3.30156H2.58984C1.48984 3.30156 0.589844 4.20156 0.589844 5.30156V13.4116C0.589844 14.5116 1.48984 15.4116 2.58984 15.4116H13.3998C14.4998 15.4116 15.3998 14.5116 15.3998 13.4116V5.30156C15.3998 4.20156 14.4998 3.30156 13.3998 3.30156Z" stroke="#333333" stroke-width="1.2" stroke-linecap="round" stroke-linejoin="round"/>
<path id="Vector_2" d="M8 11.9688C9.65685 11.9688 11 10.6256 11 8.96875C11 7.3119 9.65685 5.96875 8 5.96875C6.34315 5.96875 5 7.3119 5 8.96875C5 10.6256 6.34315 11.9688 8 11.9688Z" stroke="#333333" stroke-width="1.2" stroke-linecap="round" stroke-linejoin="round"/>
<path id="Vector_3" d="M12.1992 5.66016H12.9092" stroke="#333333" stroke-width="1.2" stroke-linecap="round" stroke-linejoin="round"/>
</g>
<defs>
<clipPath id="clip0_841_39482">
<rect width="16" height="16.01" fill="white"/>
</clipPath>
</defs>
</svg>
