<svg width="16" height="16" viewBox="0 0 16 16" fill="none" xmlns="http://www.w3.org/2000/svg">
<g id="_&#235;&#160;&#136;&#236;&#157;&#180;&#236;&#150;&#180;_1" clip-path="url(#clip0_566_11479)">
<g id="Group">
<path id="Vector" d="M15.3996 9.64984V4.58984C15.3996 3.48984 14.4996 2.58984 13.3996 2.58984H2.59961C1.49961 2.58984 0.599609 3.48984 0.599609 4.58984V13.3998C0.599609 14.4998 1.49961 15.3998 2.59961 15.3998H7.99961" stroke="#FFFFFF" stroke-width="1.2" stroke-linecap="round" stroke-linejoin="round"/>
<g id="Group_2">
<path id="Vector_2" d="M4.23047 3.89156V0.601562" stroke="#FFFFFF" stroke-width="1.2" stroke-linecap="round" stroke-linejoin="round"/>
<path id="Vector_3" d="M11.7695 3.89156V0.601562" stroke="#FFFFFF" stroke-width="1.2" stroke-linecap="round" stroke-linejoin="round"/>
</g>
<path id="Vector_4" d="M0.599609 7.46875H15.3996" stroke="#FFFFFF" stroke-width="1.2" stroke-linecap="round" stroke-linejoin="round"/>
</g>
<g id="Group_3">
<path id="Vector_5" d="M15.2695 13.3359L14.8278 13.93C13.4099 15.8046 11.1291 15.8046 9.71131 13.93L9.26953 13.3359L9.71131 12.7418C11.1291 10.8673 13.4099 10.8673 14.8278 12.7418L15.2695 13.3359Z" stroke="#FFFFFF" stroke-width="1.2" stroke-linejoin="round"/>
<path id="Vector_6" d="M12.2696 13.8875C12.576 13.8875 12.8244 13.6399 12.8244 13.3344C12.8244 13.0289 12.576 12.7812 12.2696 12.7812C11.9632 12.7812 11.7148 13.0289 11.7148 13.3344C11.7148 13.6399 11.9632 13.8875 12.2696 13.8875Z" fill="#FFFFFF"/>
</g>
</g>
<defs>
<clipPath id="clip0_566_11479">
<rect width="16" height="16" fill="white"/>
</clipPath>
</defs>
</svg>
