<svg width="16" height="16" viewBox="0 0 16 16" fill="none" xmlns="http://www.w3.org/2000/svg">
<g id="_&#235;&#160;&#136;&#236;&#157;&#180;&#236;&#150;&#180;_1" clip-path="url(#clip0_550_4884)">
<path id="Vector" d="M8.58 14.6939C4.88 15.3439 1.35 12.8739 0.699998 9.17389C0.0499981 5.47389 2.52 1.95389 6.22 1.29389C9.92 0.633888 13.45 3.11389 14.1 6.81389C14.18 7.27389 14.2 8.18389 14.2 8.18389" stroke="#FFFFFF" stroke-width="1.2" stroke-linecap="round" stroke-linejoin="round"/>
<path id="Vector_2" d="M14.98 12.3409C14.98 12.9909 14.72 13.5709 14.31 14.0009C13.9 14.4309 13.28 14.7209 12.61 14.7209C11.3 14.7209 10.23 13.6609 10.23 12.3409C10.23 11.7109 10.47 11.1409 10.87 10.7109C11.3 10.2509 11.92 9.96094 12.6 9.96094C13.91 9.96094 14.98 11.0209 14.98 12.3409Z" stroke="#FFFFFF" stroke-width="1.2" stroke-linecap="round" stroke-linejoin="round"/>
<path id="Vector_3" d="M11.01 11.0938L14.2 13.5837" stroke="#FFFFFF" stroke-width="1.2" stroke-linecap="round" stroke-linejoin="round"/>
<path id="Vector_4" d="M9.85995 6.40625L6.76995 9.50625L4.94995 7.68625" stroke="#FFFFFF" stroke-width="1.2" stroke-linecap="round" stroke-linejoin="round"/>
</g>
<defs>
<clipPath id="clip0_550_4884">
<rect width="15.58" height="14.81" fill="white" transform="translate(0 0.59375)"/>
</clipPath>
</defs>
</svg>
