<svg width="16" height="16" viewBox="0 0 16 16" fill="none" xmlns="http://www.w3.org/2000/svg">
<g id="Icon / 16 / Map" clip-path="url(#clip0_1358_12817)">
<path id="Vector" d="M8.00094 7.3593C6.74094 7.3593 5.71094 6.3293 5.71094 5.0693C5.71094 3.8093 6.74094 2.7793 8.00094 2.7793C9.26094 2.7793 10.2909 3.8093 10.2909 5.0693C10.2909 6.3293 9.26094 7.3593 8.00094 7.3593ZM8.00094 3.9293C7.37094 3.9293 6.86094 4.4393 6.86094 5.0693C6.86094 5.6993 7.37094 6.2093 8.00094 6.2093C8.63094 6.2093 9.14094 5.6993 9.14094 5.0693C9.14094 4.4393 8.63094 3.9293 8.00094 3.9293Z" fill="white"/>
<path id="Vector_2" d="M15.4328 15.3594H0.572812C0.372813 15.3594 0.182813 15.2494 0.0828125 15.0794C-0.0171875 14.8994 -0.0171875 14.6894 0.0828125 14.5094L2.37281 10.5094C2.53281 10.2394 2.88281 10.1394 3.15281 10.2994C3.42281 10.4594 3.52281 10.8094 3.36281 11.0794L1.56281 14.2294H14.4528L12.6528 11.0794C12.4928 10.8094 12.5928 10.4594 12.8628 10.2994C13.1328 10.1394 13.4828 10.2394 13.6428 10.5094L15.9328 14.5094C16.0328 14.6894 16.0328 14.8994 15.9328 15.0794C15.8328 15.2594 15.6428 15.3594 15.4428 15.3594H15.4328Z" fill="white"/>
<path id="Vector_3" d="M7.99138 12.29C7.99138 12.29 12.8214 7.98 12.5414 4.65C12.5414 4.65 12.1014 0.5 8.00138 0.5C3.90138 0.5 3.35138 4.74 3.40138 5.07C3.40138 5.07 3.17138 7.49 7.99138 12.29Z" stroke="white" stroke-linecap="round" stroke-linejoin="round"/>
</g>
<defs>
<clipPath id="clip0_1358_12817">
<rect width="16" height="16" fill="white"/>
</clipPath>
</defs>
</svg>
