<svg width="16" height="16" viewBox="0 0 16 16" fill="none" xmlns="http://www.w3.org/2000/svg">
<g id="_&#235;&#160;&#136;&#236;&#157;&#180;&#236;&#150;&#180;_1" clip-path="url(#clip0_566_6945)">
<g id="Group">
<g id="Group_2">
<path id="Vector" d="M15.4 8.00281L14.3 9.46281C10.82 14.0928 5.17998 14.0928 1.69998 9.46281L0.599976 8.00281L1.69998 6.54281C5.17998 1.91281 10.82 1.91281 14.3 6.54281L15.4 8.00281Z" stroke="white" stroke-width="1.2" stroke-linecap="round" stroke-linejoin="round"/>
<path id="Vector_2" d="M8.00003 10.4713C9.36417 10.4713 10.47 9.36539 10.47 8.00125C10.47 6.63711 9.36417 5.53125 8.00003 5.53125C6.63589 5.53125 5.53003 6.63711 5.53003 8.00125C5.53003 9.36539 6.63589 10.4713 8.00003 10.4713Z" stroke="white" stroke-width="1.2" stroke-linecap="round" stroke-linejoin="round"/>
</g>
</g>
<path id="Vector_3" d="M2.45564 2.036L2.25647 2.20312L12.5411 14.4598L12.7402 14.2927L2.45564 2.036Z" stroke="white" stroke-miterlimit="10"/>
<path id="Vector_4" d="M3.85737 1.786L3.6582 1.95312L13.9428 14.2098L14.142 14.0427L3.85737 1.786Z" stroke="#333333" stroke-miterlimit="10"/>
</g>
<defs>
<clipPath id="clip0_566_6945">
<rect width="16" height="16" fill="white"/>
</clipPath>
</defs>
</svg>
