<svg width="24" height="24" viewBox="0 0 24 24" fill="none" xmlns="http://www.w3.org/2000/svg">
<path d="M5.10986 9.04004C7.319 9.04004 9.10986 7.24918 9.10986 5.04004C9.10986 2.8309 7.319 1.04004 5.10986 1.04004C2.90072 1.04004 1.10986 2.8309 1.10986 5.04004C1.10986 7.24918 2.90072 9.04004 5.10986 9.04004Z" stroke="white" stroke-width="1.2"/>
<path d="M5.80011 3.87983C5.80011 3.87983 5.51013 3.68983 5.10013 3.73983C4.77013 3.77983 4.50012 3.94983 4.50012 4.32983C4.50012 4.63983 4.77011 4.84983 5.18011 4.99983C5.58011 5.14983 5.84011 5.23983 5.86011 5.66983C5.87011 6.10983 5.50012 6.33983 5.19012 6.34983C4.88012 6.35983 4.75012 6.32983 4.37012 6.16983" stroke="white" stroke-linecap="round" stroke-linejoin="round"/>
<path d="M5.16992 3.13965V3.73965" stroke="white" stroke-linecap="round" stroke-linejoin="round"/>
<path d="M5.14014 6.93961V6.34961" stroke="white" stroke-linecap="round" stroke-linejoin="round"/>
<path d="M1.6499 22.9697H22.3499" stroke="white" stroke-width="1.5" stroke-linecap="round" stroke-linejoin="round"/>
<path d="M14.3101 5.04004V19.69" stroke="white" stroke-width="1.5" stroke-linecap="round" stroke-linejoin="round"/>
<path d="M9.69971 11.3096V19.6896" stroke="white" stroke-width="1.5" stroke-linecap="round" stroke-linejoin="round"/>
<path d="M5.08984 14.4502V19.6902" stroke="white" stroke-width="1.5" stroke-linecap="round" stroke-linejoin="round"/>
<path d="M18.9199 11.3096V19.6896" stroke="white" stroke-width="1.5" stroke-linecap="round" stroke-linejoin="round"/>
</svg>
