<svg width="80" height="80" viewBox="0 0 80 80" fill="none" xmlns="http://www.w3.org/2000/svg">
<g id="Icon / 80 / chage password">
<path id="Vector" d="M40 75C59.33 75 75 59.33 75 40C75 20.67 59.33 5 40 5C20.67 5 5 20.67 5 40C5 59.33 20.67 75 40 75Z" fill="white" stroke="#DDDDDD" stroke-width="2" stroke-linecap="round" stroke-linejoin="round"/>
<g id="Icon / 20 / Lock">
<path id="Vector_2" d="M52.3254 38.25H27.6754C25.7976 38.25 24.2754 39.7722 24.2754 41.65V52.326C24.2754 54.2038 25.7976 55.726 27.6754 55.726H52.3254C54.2032 55.726 55.7254 54.2038 55.7254 52.326V41.65C55.7254 39.7722 54.2032 38.25 52.3254 38.25Z" stroke="#888888" stroke-width="2" stroke-linecap="round" stroke-linejoin="round"/>
<g id="Group">
<path id="Vector_3" d="M32.1299 48.7364C33.097 48.7364 33.8809 47.9524 33.8809 46.9854C33.8809 46.0183 33.097 45.2344 32.1299 45.2344C31.1629 45.2344 30.3789 46.0183 30.3789 46.9854C30.3789 47.9524 31.1629 48.7364 32.1299 48.7364Z" fill="#0067AC"/>
<path id="Vector_4" d="M37.3838 48.7364C38.3509 48.7364 39.1348 47.9524 39.1348 46.9854C39.1348 46.0183 38.3509 45.2344 37.3838 45.2344C36.4168 45.2344 35.6328 46.0183 35.6328 46.9854C35.6328 47.9524 36.4168 48.7364 37.3838 48.7364Z" fill="#0067AC"/>
<path id="Vector_5" d="M42.6182 48.7364C43.5852 48.7364 44.3692 47.9524 44.3692 46.9854C44.3692 46.0183 43.5852 45.2344 42.6182 45.2344C41.6511 45.2344 40.8672 46.0183 40.8672 46.9854C40.8672 47.9524 41.6511 48.7364 42.6182 48.7364Z" fill="#0067AC"/>
<path id="Vector_6" d="M47.8545 48.7364C48.8216 48.7364 49.6055 47.9524 49.6055 46.9854C49.6055 46.0183 48.8216 45.2344 47.8545 45.2344C46.8875 45.2344 46.1035 46.0183 46.1035 46.9854C46.1035 47.9524 46.8875 48.7364 47.8545 48.7364Z" fill="#0067AC"/>
</g>
<path id="Vector_7" d="M49.3504 38.2474V33.6234C49.3504 28.4554 45.1684 24.2734 40.0004 24.2734C34.8324 24.2734 30.6504 28.4554 30.6504 33.6234V38.2474" stroke="#888888" stroke-width="2" stroke-linecap="round" stroke-linejoin="round"/>
</g>
</g>
</svg>
