<svg width="24" height="24" viewBox="0 0 24 24" fill="none" xmlns="http://www.w3.org/2000/svg">
<rect width="24" height="24" fill="#009A3E"/>
<path d="M6.27974 4V10.7228L11.2645 13.5982L6 16.6386L11.824 20L17.3683 16.7991V10.3972L6.27974 4Z" fill="white"/>
<path d="M6.57812 16.6343L11.8243 19.6609V13.603L6.57812 16.6343Z" fill="#CA4786"/>
<path d="M6.57812 4.51367V10.5716L11.8243 7.54033L6.57812 4.51367Z" fill="#F3CE12"/>
<path d="M11.8243 7.54053L6.57812 10.5718L11.8243 13.603V7.54053Z" fill="#EAB818"/>
<path d="M17.0704 16.6343V10.5718L11.8242 13.603L17.0704 16.6343Z" fill="url(#paint0_linear_314_3442)"/>
<path d="M11.8242 13.603L17.0704 10.5718L11.8242 7.54053V13.603Z" fill="url(#paint1_linear_314_3442)"/>
<path d="M17.0704 16.6343L11.8242 13.603V19.6609L17.0704 16.6343Z" fill="url(#paint2_linear_314_3442)"/>
<defs>
<linearGradient id="paint0_linear_314_3442" x1="11.8224" y1="13.6029" x2="17.0689" y2="13.6029" gradientUnits="userSpaceOnUse">
<stop stop-color="#2A2460"/>
<stop offset="0.1124" stop-color="#432464"/>
<stop offset="0.2" stop-color="#542367"/>
<stop offset="1" stop-color="#A03977"/>
</linearGradient>
<linearGradient id="paint1_linear_314_3442" x1="14.4456" y1="7.54222" x2="14.4456" y2="13.6015" gradientUnits="userSpaceOnUse">
<stop offset="0.1" stop-color="#C8421B"/>
<stop offset="0.3056" stop-color="#CD591C"/>
<stop offset="0.769" stop-color="#D7821C"/>
<stop offset="1" stop-color="#DC911B"/>
</linearGradient>
<linearGradient id="paint2_linear_314_3442" x1="11.8224" y1="16.6314" x2="17.0689" y2="16.6314" gradientUnits="userSpaceOnUse">
<stop offset="0.05" stop-color="#95263C"/>
<stop offset="0.067213" stop-color="#97253D"/>
<stop offset="0.3436" stop-color="#AB1D45"/>
<stop offset="0.6" stop-color="#B9134B"/>
<stop offset="0.8267" stop-color="#C1004F"/>
<stop offset="1" stop-color="#C40050"/>
</linearGradient>
</defs>
</svg>
