<svg width="60" height="60" viewBox="0 0 60 60" fill="none" xmlns="http://www.w3.org/2000/svg">
<g id="icon" clip-path="url(#clip0_522_3479)">
<g id="Group">
<g id="Group_2">
<path id="Vector" d="M41.22 53.7327C48.75 54.9627 55.16 48.5527 53.93 41.0227C53.18 36.4627 49.51 32.7827 44.95 32.0427C37.42 30.8127 31.01 37.2227 32.24 44.7527C32.99 49.3127 36.66 52.9927 41.22 53.7327Z" stroke="#0067AC" stroke-width="2" stroke-linecap="round" stroke-linejoin="round"/>
<path id="Vector_2" d="M48.6191 39.3828L41.6191 46.3828L37.5391 42.2928" stroke="#0067AC" stroke-width="2" stroke-linecap="round" stroke-linejoin="round"/>
</g>
<path id="Vector_3" d="M26.0996 23C30.5179 23 34.0996 19.4183 34.0996 15C34.0996 10.5817 30.5179 7 26.0996 7C21.6813 7 18.0996 10.5817 18.0996 15C18.0996 19.4183 21.6813 23 26.0996 23Z" stroke="#999999" stroke-width="2" stroke-linecap="round" stroke-linejoin="round"/>
<path id="Vector_4" d="M6 49.8622V38.2122C6 31.9022 11.16 26.7422 17.47 26.7422H35.88C37.18 26.7422 38.43 26.9622 39.59 27.3622" stroke="#999999" stroke-width="2" stroke-linecap="round" stroke-linejoin="round"/>
</g>
</g>
<defs>
<clipPath id="clip0_522_3479">
<rect width="60" height="60" fill="white"/>
</clipPath>
</defs>
</svg>
