<svg width="80" height="80" viewBox="0 0 80 80" fill="none" xmlns="http://www.w3.org/2000/svg">
<g id="Icon / 80 / Mail">
<g id="Group">
<g id="Group 515600">
<path id="Union" d="M69.0037 66.9312L68.5037 66.9312L69.0037 66.9312ZM69.0029 36.9141L69.5029 36.9141V36.9141L69.0029 36.9141ZM69.5029 36.4141L69.5028 35.9141L69.5029 36.4141ZM70.0029 36.914L70.5029 36.914V36.914L70.0029 36.914ZM70.0037 66.9312L69.5037 66.9312L70.0037 66.9312ZM10.5 36.9141C10.5 36.3618 10.0523 35.9141 9.5 35.9141V36.9141H10.5ZM10.5 66.9313V36.9141H9.5V66.9313H10.5ZM11.5 67.9313C10.9477 67.9313 10.5 67.4836 10.5 66.9313H9.5C9.5 68.0358 10.3954 68.9313 11.5 68.9313V67.9313ZM67.5037 67.9313H11.5V68.9313H67.5037V67.9313ZM68.5037 66.9312C68.5037 67.4835 68.056 67.9313 67.5037 67.9313V68.9313C68.6083 68.9313 69.5037 68.0358 69.5037 66.9312L68.5037 66.9312ZM68.5029 36.9141L68.5037 66.9312L69.5037 66.9312L69.5029 36.9141L68.5029 36.9141ZM69.5028 35.9141C68.9506 35.9141 68.5029 36.3618 68.5029 36.9141L69.5029 36.9141V36.9141L69.5028 35.9141ZM70.5029 36.914C70.5029 36.3618 70.0551 35.914 69.5028 35.9141L69.5029 36.9141V36.9141L70.5029 36.914ZM70.5037 66.9312L70.5029 36.914L69.5029 36.9141L69.5037 66.9312L70.5037 66.9312ZM67.5037 69.9313C69.1605 69.9313 70.5037 68.5881 70.5037 66.9312L69.5037 66.9312C69.5037 68.0358 68.6083 68.9313 67.5037 68.9313V69.9313ZM11.5 69.9313H67.5037V68.9313H11.5V69.9313ZM8.5 66.9313C8.5 68.5881 9.84315 69.9313 11.5 69.9313V68.9313C10.3954 68.9313 9.5 68.0358 9.5 66.9313H8.5ZM8.5 36.9141V66.9313H9.5V36.9141H8.5ZM9.5 35.9141C8.94772 35.9141 8.5 36.3618 8.5 36.9141H9.5V35.9141Z" fill="#888888"/>
<path id="Vector 168" d="M39.7744 52.5965L9.49023 36.627L40.373 9L62.744 30.1392M39.7744 52.5965L9.95117 68M39.7744 52.5965L68.4902 68M39.7744 52.5965L44.9958 49.8691" stroke="#888888" stroke-width="2" stroke-linecap="round" stroke-linejoin="round"/>
<path id="Vector 169" d="M39.8221 52.0476L61.3131 40.4134L60.1819 20.49L57.9197 18.3086H22.8555L20 20.0005V41.0005L39.8221 52.0476Z" fill="white"/>
<path id="Rectangle 30808 (Stroke)" d="M19.4629 41.5768V21.2171C19.4629 19.6108 21.286 18.3086 23.5349 18.3086H56.1107C58.3596 18.3086 60.1827 19.6108 60.1827 21.2171V41.5768" stroke="#888888" stroke-width="2" stroke-linecap="round"/>
<rect id="Rectangle 30809" x="24.9199" y="39" width="15.9413" height="2" rx="1" fill="#888888"/>
<rect id="Rectangle 30810" x="24.9199" y="32" width="19.9267" height="2" rx="1" fill="#888888"/>
<rect id="Rectangle 30811" x="24.9199" y="25" width="26.901" height="2" rx="1" fill="#888888"/>
</g>
<g id="Group 515593">
<path id="Vector" d="M59.5 55C66.9636 55 73 48.9636 73 41.5C73 34.0364 66.9636 28 59.5 28C52.0364 28 46 34.0364 46 41.5C46 48.9636 52.0364 55 59.5 55Z" fill="white" stroke="#0067AC" stroke-width="2" stroke-linecap="round" stroke-linejoin="round"/>
<path id="Vector_2" d="M66.924 36.8125L57.5318 46.2046L52.0547 40.7082" stroke="#0067AC" stroke-width="2" stroke-linecap="round" stroke-linejoin="round"/>
</g>
</g>
</g>
</svg>
