<svg width="24" height="24" viewBox="0 0 24 24" fill="none" xmlns="http://www.w3.org/2000/svg">
<path d="M11.8604 0.919922C17.9104 0.919922 22.8103 5.81992 22.8103 11.8699C22.8103 15.4599 21.0803 18.6499 18.4103 20.6399" stroke="white" stroke-width="1.5" stroke-linecap="round" stroke-linejoin="round"/>
<path d="M21.7802 21.2802L17.9702 20.8402L18.4002 17.2002" stroke="white" stroke-width="1.5" stroke-linecap="round" stroke-linejoin="round"/>
<path d="M11.9003 23.06C9.63027 23.06 7.78027 18.11 7.78027 12.01C7.78027 5.90996 9.62027 0.959961 11.9003 0.959961" stroke="white" stroke-width="1.5" stroke-linecap="round" stroke-linejoin="round"/>
<path d="M1.68018 12H22.0702" stroke="white" stroke-width="1.5" stroke-linecap="round"/>
<path d="M11.9004 23.0799C14.1704 23.0799 16.0204 18.1199 16.0204 11.9999C16.0204 5.87992 14.1804 0.919922 11.9004 0.919922" stroke="white" stroke-width="1.5" stroke-linecap="round" stroke-linejoin="round"/>
<path d="M12.1302 23.0296C6.08017 23.0296 1.18018 18.1296 1.18018 12.0796C1.18018 8.48957 2.91017 5.29957 5.58017 3.30957" stroke="white" stroke-width="1.5" stroke-linecap="round" stroke-linejoin="round"/>
<path d="M2.20996 2.66992L6.01996 3.11992L5.59996 6.74992" stroke="white" stroke-width="1.5" stroke-linecap="round" stroke-linejoin="round"/>
</svg>
