<svg width="24" height="24" viewBox="0 0 24 24" fill="none" xmlns="http://www.w3.org/2000/svg">
<path d="M5.78027 15.0303H8.06027" stroke="white" stroke-linecap="round" stroke-linejoin="round"/>
<path d="M9.8501 15.0303H13.7001" stroke="white" stroke-linecap="round" stroke-linejoin="round"/>
<path d="M5.05029 17.2002H7.76028" stroke="white" stroke-linecap="round" stroke-linejoin="round"/>
<path d="M9.88037 17.2002H14.4404" stroke="white" stroke-linecap="round" stroke-linejoin="round"/>
<path d="M4.09012 1.75H19.9101C20.3001 1.75 20.6101 2.06 20.6101 2.45V12.11H3.39014V2.45C3.39014 2.06 3.70012 1.75 4.09012 1.75Z" stroke="white" stroke-width="1.5"/>
<path d="M20.6101 12.1504H3.39014L1.39014 21.5204C1.39014 21.9204 1.70012 22.2504 2.09012 22.2504H21.9101C22.3001 22.2504 22.6101 21.9204 22.6101 21.5204L20.6101 12.1504Z" stroke="white" stroke-width="1.5"/>
<path d="M23.2 4.17969H8.80002C8.35819 4.17969 8 4.53786 8 4.97969V8.87969C8 9.32152 8.35819 9.67969 8.80002 9.67969H23.2C23.6418 9.67969 24 9.32152 24 8.87969V4.97969C24 4.53786 23.6418 4.17969 23.2 4.17969Z" fill="white"/>
<path d="M11.0699 8.43992C10.8299 8.43992 10.6199 8.37992 10.4399 8.25992C10.2599 8.13992 10.1299 7.96992 10.0399 7.73992C9.94992 7.50992 9.8999 7.23992 9.8999 6.91992C9.8999 6.59992 9.94992 6.32992 10.0399 6.10992C10.1299 5.88992 10.2699 5.71992 10.4399 5.59992C10.6199 5.47992 10.8199 5.41992 11.0699 5.41992C11.3199 5.41992 11.5199 5.47992 11.6999 5.59992C11.8799 5.71992 12.0099 5.88992 12.1099 6.10992C12.1999 6.32992 12.2499 6.59992 12.2499 6.91992C12.2499 7.23992 12.1999 7.50992 12.1099 7.73992C12.0199 7.96992 11.8799 8.13992 11.7099 8.25992C11.5299 8.37992 11.3199 8.43992 11.0799 8.43992H11.0699ZM11.0699 7.92992C11.2399 7.92992 11.3699 7.84992 11.4699 7.67992C11.5699 7.50992 11.6199 7.25992 11.6199 6.92992C11.6199 6.70992 11.5999 6.52992 11.5499 6.37992C11.5099 6.22992 11.4399 6.11992 11.3599 6.04992C11.2799 5.97992 11.1799 5.93992 11.0699 5.93992C10.8999 5.93992 10.7699 6.01992 10.6699 6.18992C10.5699 6.35992 10.5199 6.59992 10.5199 6.92992C10.5199 7.14992 10.5399 7.33992 10.5899 7.48992C10.6299 7.63992 10.6999 7.74992 10.7799 7.81992C10.8599 7.88992 10.9599 7.92992 11.0699 7.92992Z" fill="#574D42"/>
<path d="M13.9501 5.4602V8.37019H13.3301V6.0402H13.3101L12.6401 6.4602V5.9102L13.3601 5.4502H13.9401L13.9501 5.4602Z" fill="#574D42"/>
<path d="M14.6399 8.36992V7.92992L15.6799 6.96992C15.7699 6.87992 15.8399 6.80992 15.8999 6.73992C15.9599 6.66992 16.0099 6.60992 16.0399 6.53992C16.0699 6.46992 16.0899 6.39992 16.0899 6.32992C16.0899 6.23992 16.0699 6.16992 16.0299 6.10992C15.9899 6.04992 15.9399 5.99992 15.8699 5.96992C15.7999 5.93992 15.7299 5.91992 15.6399 5.91992C15.5499 5.91992 15.4699 5.93992 15.4099 5.96992C15.3499 5.99992 15.2899 6.05992 15.2599 6.11992C15.2299 6.17992 15.2099 6.26992 15.2099 6.35992H14.6299C14.6299 6.16992 14.6699 5.99992 14.7599 5.85992C14.8499 5.71992 14.9699 5.60992 15.1199 5.52992C15.2699 5.44992 15.4499 5.41992 15.6599 5.41992C15.8699 5.41992 16.0499 5.45992 16.1999 5.52992C16.3499 5.59992 16.4699 5.69992 16.5599 5.82992C16.6499 5.95992 16.6899 6.10992 16.6899 6.27992C16.6899 6.38992 16.6699 6.49992 16.6299 6.60992C16.5899 6.71992 16.5099 6.83992 16.3999 6.96992C16.2899 7.09992 16.1399 7.25992 15.9399 7.43992L15.5199 7.85992V7.87992H16.7399V8.37992H14.6699L14.6399 8.36992Z" fill="#574D42"/>
<path d="M18.2399 8.40992C18.0299 8.40992 17.8399 8.36992 17.6699 8.29992C17.4999 8.22992 17.3699 8.12992 17.2799 7.99992C17.1799 7.86992 17.1399 7.71992 17.1299 7.54992H17.7499C17.7499 7.61992 17.7799 7.67992 17.8199 7.73992C17.8599 7.78992 17.9199 7.83992 17.9899 7.85992C18.0599 7.88992 18.1399 7.89992 18.2299 7.89992C18.3199 7.89992 18.4099 7.87992 18.4799 7.84992C18.5499 7.81992 18.6099 7.76992 18.6499 7.70992C18.6899 7.64992 18.7099 7.57992 18.7099 7.50992C18.7099 7.43992 18.6899 7.35992 18.6499 7.29992C18.6099 7.23992 18.5499 7.18992 18.4699 7.15992C18.3899 7.12992 18.2999 7.10992 18.1899 7.10992H17.9199V6.65992H18.1899C18.2799 6.65992 18.3599 6.63992 18.4399 6.60992C18.5099 6.57992 18.5699 6.52992 18.6099 6.47992C18.6499 6.41992 18.6699 6.35992 18.6699 6.27992C18.6699 6.19992 18.6499 6.13992 18.6199 6.08992C18.5899 6.02992 18.5399 5.98992 18.4699 5.95992C18.3999 5.92992 18.3399 5.90992 18.2499 5.90992C18.1599 5.90992 18.0899 5.91992 18.0199 5.94992C17.9499 5.97992 17.8999 6.01992 17.8499 6.07992C17.8099 6.12992 17.7899 6.19992 17.7799 6.26992H17.1899C17.1899 6.09992 17.2399 5.94992 17.3299 5.82992C17.4199 5.69992 17.5499 5.59992 17.7099 5.52992C17.8699 5.45992 18.0499 5.41992 18.2499 5.41992C18.4499 5.41992 18.6299 5.45992 18.7799 5.52992C18.9299 5.59992 19.0499 5.69992 19.1299 5.81992C19.2099 5.93992 19.2499 6.07992 19.2499 6.23992C19.2499 6.39992 19.1999 6.53992 19.0999 6.64992C18.9999 6.75992 18.8699 6.82992 18.6999 6.85992V6.87992C18.9099 6.90992 19.0799 6.97992 19.1899 7.09992C19.2999 7.21992 19.3599 7.36992 19.3599 7.54992C19.3599 7.71992 19.3099 7.85992 19.2199 7.98992C19.1299 8.11992 18.9899 8.21992 18.8199 8.28992C18.6499 8.35992 18.4599 8.39992 18.2399 8.39992V8.40992Z" fill="#574D42"/>
<path d="M22.0998 7.36973H21.7397V5.46973H20.9698L19.7598 7.37973V7.85973H21.1598V8.36973H21.7498V7.85973H22.1098V7.36973H22.0998ZM20.3698 7.34973L21.1398 6.13973H21.1598V7.36973H20.3698V7.34973Z" fill="#574D42"/>
</svg>
