<svg width="60" height="60" viewBox="0 0 60 60" fill="none" xmlns="http://www.w3.org/2000/svg">
<rect width="60" height="60" rx="30" fill="#0A7CFF"/>
<path d="M13 29.49C13 20.0149 20.4234 13 30 13C39.5766 13 47 20.0149 47 29.49C47 38.9651 39.5766 45.98 30 45.98C28.2799 45.98 26.6296 45.7528 25.079 45.3264C24.7776 45.2435 24.4571 45.267 24.171 45.3933L20.7968 46.8828C19.9142 47.2724 18.9178 46.6446 18.8882 45.6803L18.7956 42.656C18.7842 42.2836 18.6166 41.9352 18.3389 41.6868C15.0312 38.7287 13 34.4461 13 29.49ZM24.7854 26.3897L19.7916 34.3124C19.3124 35.0727 20.2469 35.9295 20.9629 35.3862L26.327 31.3152C26.6899 31.0398 27.1913 31.0384 27.5557 31.3116L31.5276 34.2905C32.7193 35.1845 34.4204 34.8706 35.2148 33.6103L40.2085 25.6875C40.6877 24.9272 39.7531 24.0704 39.0371 24.6137L33.673 28.6847C33.3102 28.9601 32.8088 28.9616 32.4444 28.6882L28.4726 25.7094C27.2807 24.8155 25.5797 25.1293 24.7854 26.3897Z" fill="white"/>
</svg>
