<svg width="80" height="80" viewBox="0 0 80 80" fill="none" xmlns="http://www.w3.org/2000/svg">
<g id="icon" clip-path="url(#clip0_522_1106)">
<g id="Group">
<g id="Group_2">
<path id="Vector" d="M39.2398 22.1691L26.0898 44.9491C25.7498 45.5391 26.1798 46.2691 26.8498 46.2691H53.1398C53.8098 46.2691 54.2398 45.5291 53.8998 44.9491L40.7498 22.1691C40.4098 21.5791 39.5698 21.5791 39.2298 22.1691H39.2398Z" stroke="#0067AC" stroke-width="2" stroke-linecap="round" stroke-linejoin="round"/>
<path id="Vector_2" d="M40.0098 32.5781V36.7481" stroke="#0067AC" stroke-width="2" stroke-linecap="round" stroke-linejoin="round"/>
<path id="Vector_3" d="M39.9989 42.3025C40.7589 42.3025 41.3689 41.6925 41.3689 40.9325C41.3689 40.1725 40.7489 39.5625 39.9989 39.5625C39.2489 39.5625 38.6289 40.1825 38.6289 40.9325C38.6289 41.6825 39.2389 42.3025 39.9989 42.3025Z" fill="#0067AC"/>
</g>
<path id="Vector_4" d="M7.52 9.75H72.48C73.87 9.75 75 10.9 75 12.33V55.64C75 57.07 73.87 58.22 72.48 58.22H7.52C6.13 58.22 5 57.07 5 55.64V12.34C5 10.91 6.13 9.76 7.52 9.76V9.75Z" stroke="#999999" stroke-width="2" stroke-linecap="round" stroke-linejoin="round"/>
<g id="Group_3">
<path id="Vector_5" d="M33.5918 58.2422V70.2522" stroke="#999999" stroke-width="2" stroke-linecap="round" stroke-linejoin="round"/>
<path id="Vector_6" d="M55.5409 70.25H24.4609" stroke="#999999" stroke-width="2" stroke-linecap="round" stroke-linejoin="round"/>
<path id="Vector_7" d="M47.5 58.2422V70.2522" stroke="#999999" stroke-width="2" stroke-linecap="round" stroke-linejoin="round"/>
</g>
</g>
</g>
<defs>
<clipPath id="clip0_522_1106">
<rect width="80" height="80" fill="white"/>
</clipPath>
</defs>
</svg>
