<svg width="24" height="24" viewBox="0 0 24 24" fill="none" xmlns="http://www.w3.org/2000/svg">
<path d="M10.8701 12.0007C10.8701 12.0007 10.2701 11.6107 9.40012 11.7107C8.71012 11.7907 8.13012 12.1607 8.15012 12.9407C8.17012 13.5907 8.7301 14.0407 9.5701 14.3507C10.4201 14.6607 10.9701 14.8507 11.0001 15.7607C11.0301 16.6807 10.2401 17.1807 9.59012 17.2007C8.94012 17.2207 8.67012 17.1607 7.87012 16.8207" stroke="white" stroke-width="1.2" stroke-linecap="round" stroke-linejoin="round"/>
<path d="M9.56006 10.4404V11.7004" stroke="white" stroke-width="1.2" stroke-linecap="round" stroke-linejoin="round"/>
<path d="M9.5 18.44V17.21" stroke="white" stroke-width="1.2" stroke-linecap="round" stroke-linejoin="round"/>
<path d="M15.17 10.7208L11.38 5.80078H7.37006C7.37006 5.80078 3.55005 10.2108 2.80005 11.4008C1.90005 12.8208 1.06006 14.6308 1.06006 16.0608C1.06006 19.9008 4.74004 23.0108 9.29004 23.0108C10.19 23.0108 11.05 22.8908 11.86 22.6708L12.9301 22.3208" stroke="white" stroke-width="1.5" stroke-linecap="round" stroke-linejoin="round"/>
<path d="M7.71009 5.71031L5.26008 2.25031C5.26008 2.25031 4.94009 0.840307 6.37009 1.03031C7.40009 1.16031 8.72009 1.71031 10.0501 1.71031C10.7801 1.71031 13.6701 1.46031 13.6701 1.46031L11.0201 5.72031" stroke="white" stroke-width="1.5" stroke-linecap="round" stroke-linejoin="round"/>
<path d="M22.9399 14.4403C22.9399 15.1603 21.8199 15.7703 20.2599 15.9803C19.8799 16.0303 19.4799 16.0603 19.0499 16.0603C16.9099 16.0603 15.1699 15.3303 15.1699 14.4403C15.1699 13.5503 16.9099 12.8203 19.0499 12.8203C19.2299 12.8203 19.3999 12.8203 19.5699 12.8303C21.4699 12.9403 22.9299 13.6203 22.9299 14.4403H22.9399Z" stroke="white" stroke-width="1.2" stroke-linecap="round" stroke-linejoin="round"/>
<path d="M22.9297 16.75C22.8397 17.49 21.5797 18.09 19.8997 18.25C19.6297 18.28 19.3397 18.29 19.0497 18.29C16.9797 18.29 15.2897 17.61 15.1797 16.76" stroke="white" stroke-width="1.2" stroke-linecap="round" stroke-linejoin="round"/>
<path d="M22.9297 18.9707C22.8297 19.8307 21.1297 20.5107 19.0497 20.5107C18.8797 20.5107 18.7097 20.5107 18.5397 20.5007C16.7097 20.4007 15.2897 19.7707 15.1797 18.9907" stroke="white" stroke-width="1.2" stroke-linecap="round" stroke-linejoin="round"/>
<path d="M22.9297 21.1904C22.8297 22.0504 21.1297 22.7304 19.0497 22.7304C18.2797 22.7304 17.5697 22.6404 16.9697 22.4804C15.9497 22.2104 15.2497 21.7404 15.1797 21.2104" stroke="white" stroke-width="1.2" stroke-linecap="round" stroke-linejoin="round"/>
</svg>
