<svg width="24" height="24" viewBox="0 0 24 24" fill="none" xmlns="http://www.w3.org/2000/svg">
<path d="M19.6901 6.88965H1.59013C1.20353 6.88965 0.890137 7.20305 0.890137 7.58965V19.1896C0.890137 19.5762 1.20353 19.8896 1.59013 19.8896H19.6901C20.0767 19.8896 20.3901 19.5762 20.3901 19.1896V7.58965C20.3901 7.20305 20.0767 6.88965 19.6901 6.88965Z" stroke="white" stroke-width="1.5" stroke-linecap="round" stroke-linejoin="round"/>
<path d="M5.14014 4.12012H22.3301C22.7601 4.12012 23.1101 4.47012 23.1101 4.90012V15.4701" stroke="white" stroke-width="1.5" stroke-linecap="round" stroke-linejoin="round"/>
<path d="M11.89 11.2398C11.89 11.2398 11.36 10.8998 10.61 10.9898C10.01 11.0598 9.50003 11.3798 9.51003 12.0698C9.52003 12.6398 10.01 13.0298 10.75 13.3098C11.49 13.5798 11.97 13.7398 12 14.5498C12.03 15.3498 11.34 15.7898 10.77 15.8098C10.2 15.8298 9.96002 15.7798 9.27002 15.4698" stroke="white" stroke-width="1.2" stroke-linecap="round" stroke-linejoin="round"/>
<path d="M10.75 9.88965V10.9896" stroke="white" stroke-width="1.2" stroke-linecap="round" stroke-linejoin="round"/>
<path d="M10.6899 16.8896V15.8096" stroke="white" stroke-width="1.2" stroke-linecap="round" stroke-linejoin="round"/>
</svg>
