<svg width="16" height="17" viewBox="0 0 16 17" fill="none" xmlns="http://www.w3.org/2000/svg">
<g id="ic_setting" clip-path="url(#clip0_746_34428)">
<g id="Group">
<path id="Vector" d="M13.5014 10.1331H14.4914C14.9514 10.1331 15.3114 9.76313 15.3114 9.31313V7.71313C15.3114 7.25313 14.9414 6.89313 14.4914 6.89313H13.5014L13.0414 5.77313L13.7414 5.07313C14.0614 4.75313 14.0614 4.23313 13.7414 3.90313L12.6114 2.77312C12.2914 2.45312 11.7714 2.45312 11.4414 2.77312L10.7414 3.47312L9.62141 3.01312V2.02312C9.62141 1.56312 9.25141 1.20312 8.80141 1.20312H7.20141C6.74141 1.20312 6.38141 1.57313 6.38141 2.02312V3.01312L5.26141 3.47312L4.56141 2.77312C4.24141 2.45312 3.72141 2.45312 3.39141 2.77312L2.26141 3.90313C1.94141 4.22313 1.94141 4.74313 2.26141 5.07313L2.96141 5.77313L2.50141 6.89313H1.51141C1.05141 6.89313 0.691406 7.26313 0.691406 7.71313V9.31313C0.691406 9.77313 1.06141 10.1331 1.51141 10.1331H2.50141L2.96141 11.2531L2.26141 11.9531C1.94141 12.2731 1.94141 12.7931 2.26141 13.1231L3.39141 14.2531C3.71141 14.5731 4.23141 14.5731 4.56141 14.2531L5.26141 13.5531L6.38141 14.0131V15.0031C6.38141 15.4631 6.75141 15.8231 7.20141 15.8231H8.80141C9.26141 15.8231 9.62141 15.4531 9.62141 15.0031V14.0131L10.7414 13.5531L11.4414 14.2531C11.7614 14.5731 12.2814 14.5731 12.6114 14.2531L13.7414 13.1231C14.0614 12.8031 14.0614 12.2831 13.7414 11.9531L13.0414 11.2531L13.5014 10.1331Z" stroke="#333333" stroke-width="1.2" stroke-linecap="round" stroke-linejoin="round"/>
<path id="Vector_2" d="M8.0025 10.9425C9.35007 10.9425 10.4425 9.85007 10.4425 8.5025C10.4425 7.15493 9.35007 6.0625 8.0025 6.0625C6.65493 6.0625 5.5625 7.15493 5.5625 8.5025C5.5625 9.85007 6.65493 10.9425 8.0025 10.9425Z" stroke="#333333" stroke-width="1.2" stroke-linecap="round" stroke-linejoin="round"/>
</g>
</g>
<defs>
<clipPath id="clip0_746_34428">
<rect width="16" height="16" fill="white" transform="translate(0 0.5)"/>
</clipPath>
</defs>
</svg>
