<svg width="24" height="24" viewBox="0 0 24 24" fill="none" xmlns="http://www.w3.org/2000/svg">
<path d="M10.8691 12C10.8691 12 10.2691 11.61 9.39914 11.71C8.70914 11.79 8.12914 12.16 8.14914 12.94C8.16914 13.59 8.72912 14.04 9.56912 14.35C10.4191 14.66 10.9691 14.85 10.9991 15.76C11.0291 16.68 10.2391 17.18 9.58914 17.2C8.93914 17.22 8.66914 17.16 7.86914 16.82" stroke="#FFFFFF" stroke-width="1.2" stroke-linecap="round" stroke-linejoin="round"/>
<path d="M9.55957 10.44V11.7" stroke="#FFFFFF" stroke-width="1.2" stroke-linecap="round" stroke-linejoin="round"/>
<path d="M9.49902 18.44V17.21" stroke="#FFFFFF" stroke-width="1.2" stroke-linecap="round" stroke-linejoin="round"/>
<path d="M15.1696 10.72L11.3795 5.79999H7.36957C7.36957 5.79999 3.54956 10.21 2.79956 11.4C1.89956 12.82 1.05957 14.63 1.05957 16.06C1.05957 19.9 4.73955 23.01 9.28955 23.01C10.1896 23.01 11.0496 22.89 11.8596 22.67L12.9296 22.32" stroke="#FFFFFF" stroke-width="1.5" stroke-linecap="round" stroke-linejoin="round"/>
<path d="M7.70911 5.71L5.2591 2.25C5.2591 2.25 4.93912 0.840002 6.36912 1.03C7.39912 1.16 8.71911 1.71 10.0491 1.71C10.7791 1.71 13.6691 1.46 13.6691 1.46L11.0191 5.72" stroke="#FFFFFF" stroke-width="1.5" stroke-linecap="round" stroke-linejoin="round"/>
<path d="M22.9399 14.44C22.9399 15.16 21.8199 15.77 20.2599 15.98C19.8799 16.03 19.4799 16.06 19.0499 16.06C16.9099 16.06 15.1699 15.33 15.1699 14.44C15.1699 13.55 16.9099 12.82 19.0499 12.82C19.2299 12.82 19.3999 12.82 19.5699 12.83C21.4699 12.94 22.9299 13.62 22.9299 14.44H22.9399Z" stroke="#FFFFFF" stroke-width="1.2" stroke-linecap="round" stroke-linejoin="round"/>
<path d="M22.9297 16.75C22.8397 17.49 21.5797 18.09 19.8997 18.25C19.6297 18.28 19.3397 18.29 19.0497 18.29C16.9797 18.29 15.2897 17.61 15.1797 16.76" stroke="#FFFFFF" stroke-width="1.2" stroke-linecap="round" stroke-linejoin="round"/>
<path d="M22.9297 18.97C22.8297 19.83 21.1297 20.51 19.0497 20.51C18.8797 20.51 18.7097 20.51 18.5397 20.5C16.7097 20.4 15.2897 19.77 15.1797 18.99" stroke="#FFFFFF" stroke-width="1.2" stroke-linecap="round" stroke-linejoin="round"/>
<path d="M22.9297 21.19C22.8297 22.05 21.1297 22.73 19.0497 22.73C18.2797 22.73 17.5697 22.64 16.9697 22.48C15.9497 22.21 15.2497 21.74 15.1797 21.21" stroke="#FFFFFF" stroke-width="1.2" stroke-linecap="round" stroke-linejoin="round"/>
</svg>
