<svg width="24" height="24" viewBox="0 0 24 24" fill="none" xmlns="http://www.w3.org/2000/svg">
<path d="M6.16965 11.03C5.56965 9.98999 5.22964 8.76999 5.25964 7.47999C5.34964 3.75999 8.44963 0.819988 12.1696 0.919988C15.8896 1.01999 18.8296 4.10999 18.7296 7.82999C18.6896 9.24999 18.2196 10.55 17.4496 11.61C17.3396 11.76 17.2197 11.91 17.0997 12.05" stroke="#FFFFFF" stroke-width="1.5" stroke-linecap="round" stroke-linejoin="round"/>
<path d="M13.21 5.59998C13.21 5.59998 12.71 5.27998 12.01 5.35998C11.45 5.42998 10.97 5.72998 10.98 6.36998C10.99 6.89998 11.45 7.26998 12.15 7.52998C12.84 7.78998 13.3 7.93998 13.32 8.68998C13.35 9.43998 12.7 9.85998 12.16 9.86998C11.63 9.88998 11.4 9.83998 10.75 9.55998" stroke="#FFFFFF" stroke-width="1.2" stroke-linecap="round" stroke-linejoin="round"/>
<path d="M12.1299 4.32999V5.35999" stroke="#FFFFFF" stroke-width="1.2" stroke-linecap="round" stroke-linejoin="round"/>
<path d="M12.0801 10.89V9.87997" stroke="#FFFFFF" stroke-width="1.2" stroke-linecap="round" stroke-linejoin="round"/>
<path d="M10.3896 16.96L14.5396 17.07C15.3196 17.09 15.9796 16.48 15.9996 15.71C16.0196 14.94 15.3996 14.3 14.6196 14.27L5.82962 13.94L0.849609 16.65" stroke="#FFFFFF" stroke-width="1.5" stroke-linecap="round" stroke-linejoin="round"/>
<path d="M16.4497 18.41L21.2297 16.6C21.9597 16.33 22.7897 16.7 23.0597 17.42C23.3297 18.14 22.9597 18.95 22.2297 19.22L13.9097 22.34L6.63968 21.34L2.92969 23.19" stroke="#FFFFFF" stroke-width="1.5" stroke-linecap="round" stroke-linejoin="round"/>
</svg>
