<svg width="16" height="17" viewBox="0 0 16 17" fill="none" xmlns="http://www.w3.org/2000/svg">
<g id="ic_info" clip-path="url(#clip0_746_34439)">
<g id="Group">
<path id="Vector" d="M8.00141 15.8075C12.0386 15.8075 15.3114 12.5347 15.3114 8.4975C15.3114 4.4603 12.0386 1.1875 8.00141 1.1875C3.9642 1.1875 0.691406 4.4603 0.691406 8.4975C0.691406 12.5347 3.9642 15.8075 8.00141 15.8075Z" stroke="#333333" stroke-width="1.2" stroke-linecap="round" stroke-linejoin="round"/>
<path id="Vector_2" d="M8.00313 13.5297C8.44313 13.5297 8.80313 13.1697 8.80313 12.7297C8.80313 12.2897 8.44313 11.9297 8.00313 11.9297C7.56313 11.9297 7.20312 12.2897 7.20312 12.7297C7.20312 13.1697 7.56313 13.5297 8.00313 13.5297Z" fill="#333333"/>
<path id="Vector_3" d="M5.71094 6.77C5.71094 5.51 6.73094 4.5 7.98094 4.5C9.23094 4.5 10.2509 5.52 10.2509 6.77C10.2509 7.73 9.53094 8.39 9.38094 8.54C9.23094 8.69 8.56094 9.18 8.21094 9.56C7.87094 9.94 7.91094 10.52 7.91094 10.52" stroke="#333333" stroke-width="1.2" stroke-linecap="round" stroke-linejoin="round"/>
</g>
</g>
<defs>
<clipPath id="clip0_746_34439">
<rect width="16" height="16" fill="white" transform="translate(0 0.5)"/>
</clipPath>
</defs>
</svg>
