<svg width="13" height="12" viewBox="0 0 13 12" fill="none" xmlns="http://www.w3.org/2000/svg">
<g id="mingcute:mail-line" clip-path="url(#clip0_660_2385)">
<g id="Group">
<path id="Vector" d="M10.4531 2C10.7054 1.99992 10.9484 2.0952 11.1334 2.26675C11.3184 2.43829 11.4317 2.67342 11.4506 2.925L11.4531 3V9C11.4532 9.25229 11.3579 9.49528 11.1864 9.68028C11.0148 9.86527 10.7797 9.97858 10.5281 9.9975L10.4531 10H2.45312C2.20084 10.0001 1.95784 9.9048 1.77285 9.73325C1.58786 9.56171 1.47455 9.32658 1.45563 9.075L1.45313 9V3C1.45305 2.74771 1.54833 2.50472 1.71987 2.31973C1.89142 2.13474 2.12655 2.02142 2.37812 2.0025L2.45312 2H10.4531ZM10.4531 3.707L6.98312 7.177C6.8425 7.31745 6.65188 7.39634 6.45312 7.39634C6.25437 7.39634 6.06375 7.31745 5.92312 7.177L2.45312 3.707V9H10.4531V3.707ZM9.74613 3H3.16012L6.45312 6.293L9.74613 3Z" fill="#AAAAAA"/>
</g>
</g>
<defs>
<clipPath id="clip0_660_2385">
<rect width="12" height="12" fill="white" transform="translate(0.453125)"/>
</clipPath>
</defs>
</svg>
