<svg width="80" height="80" viewBox="0 0 80 80" fill="none" xmlns="http://www.w3.org/2000/svg">
<path d="M6 35V26C6 22.6863 8.56253 20 11.7236 20H23.7431C24.3765 20 24.986 20.1079 25.5556 20.3071C26.5057 20.6393 27.345 21.2257 28 21.9892" stroke="#888888" stroke-width="2" stroke-linecap="round"/>
<path d="M21 12.1136C21 14.4068 19.1881 16.2273 17 16.2273C14.8119 16.2273 13 14.4068 13 12.1136C13 9.82043 14.8119 8 17 8C19.1881 8 21 9.82043 21 12.1136Z" fill="white" stroke="#888888" stroke-width="2"/>
<path d="M74 35V26C74 22.6863 71.4385 20 68.2788 20H56.2644C54.57 20 53.0476 20.7725 52 22" stroke="#888888" stroke-width="2" stroke-linecap="round"/>
<path d="M66 12.1158C66 14.4106 64.1877 16.2316 62 16.2316C59.8123 16.2316 58 14.4106 58 12.1158C58 9.821 59.8123 8 62 8C64.1877 8 66 9.821 66 12.1158Z" fill="white" stroke="#888888" stroke-width="2"/>
<path d="M18 54C18 48.4772 22.4772 44 28 44H53C58.5228 44 63 48.4772 63 54V72H18V54Z" fill="white"/>
<path d="M18 71V54.2C18 48.0144 22.9139 43 28.9756 43H52.0244C58.0861 43 63 48.0144 63 54.2V71" stroke="#0067AC" stroke-width="2" stroke-linecap="round"/>
<circle cx="40" cy="30" r="9" fill="white" stroke="#0067AC" stroke-width="2"/>
</svg>
