<svg width="24" height="24" viewBox="0 0 24 24" fill="none" xmlns="http://www.w3.org/2000/svg">
<mask id="mask0_264_6361" style="mask-type:alpha" maskUnits="userSpaceOnUse" x="0" y="0" width="24" height="24">
<rect width="24" height="24" rx="12" fill="white"/>
</mask>
<g mask="url(#mask0_264_6361)">
<mask id="mask1_264_6361" style="mask-type:luminance" maskUnits="userSpaceOnUse" x="-5" y="0" width="35" height="24">
<path d="M-5 0H29.1538V24H-5V0Z" fill="white"/>
</mask>
<g mask="url(#mask1_264_6361)">
<path fill-rule="evenodd" clip-rule="evenodd" d="M-5 0V24H29.1538V0H-5Z" fill="#F7FCFF"/>
<mask id="mask2_264_6361" style="mask-type:luminance" maskUnits="userSpaceOnUse" x="-5" y="0" width="35" height="24">
<path fill-rule="evenodd" clip-rule="evenodd" d="M-5 0V24H29.1538V0H-5Z" fill="white"/>
</mask>
<g mask="url(#mask2_264_6361)">
<path fill-rule="evenodd" clip-rule="evenodd" d="M12.0761 18.2194C15.4944 18.2194 18.2655 15.4622 18.2655 12.0609C18.2655 8.65961 15.4944 5.90234 12.0761 5.90234C8.65777 5.90234 5.88672 8.65961 5.88672 12.0609C5.88672 15.4622 8.65777 18.2194 12.0761 18.2194Z" fill="#3D58DB"/>
<mask id="mask3_264_6361" style="mask-type:luminance" maskUnits="userSpaceOnUse" x="5" y="5" width="14" height="14">
<path fill-rule="evenodd" clip-rule="evenodd" d="M12.0781 18.2184C15.4964 18.2184 18.2674 15.4612 18.2674 12.0599C18.2674 8.65864 15.4964 5.90137 12.0781 5.90137C8.65972 5.90137 5.88867 8.65864 5.88867 12.0599C5.88867 15.4612 8.65972 18.2184 12.0781 18.2184Z" fill="white"/>
</mask>
<g mask="url(#mask3_264_6361)">
<path fill-rule="evenodd" clip-rule="evenodd" d="M18.485 12.5316C18.485 12.5316 18.1376 9.62758 15.5646 9.46994C12.9918 9.31229 12.298 11.5995 12.1495 12.2055C12.0011 12.8115 11.6253 14.428 8.91624 14.428C6.2073 14.428 5.96289 10.3176 5.96289 10.3176V5.4707H18.485V12.5316Z" fill="#E31D1C"/>
</g>
<path fill-rule="evenodd" clip-rule="evenodd" d="M2.79129 2.05078L3.76783 2.87831L-0.757831 7.83021L-1.73438 7.00269L2.79129 2.05078ZM4.40184 3.38994L5.37839 4.21747L1.01496 9.09763L0.0384124 8.27011L4.40184 3.38994ZM6.9816 5.57313L6.00501 4.7456L1.62946 9.6628L2.60601 10.4904L6.9816 5.57313Z" fill="#272727"/>
<path fill-rule="evenodd" clip-rule="evenodd" d="M22.0718 1.70508L21.095 2.52951L22.7892 4.39234L23.766 3.56791L22.0718 1.70508ZM25.0833 5.13172L24.1065 5.95615L25.8009 7.81898L26.7776 6.99455L25.0833 5.13172ZM17.8711 5.2127L18.8479 4.38827L20.5421 6.2511L19.5653 7.07553L17.8711 5.2127ZM21.8594 7.81491L20.8826 8.63934L22.577 10.5022L23.5537 9.67774L21.8594 7.81491ZM19.5442 3.83109L20.521 3.00666L25.237 8.38753L24.2602 9.21195L19.5442 3.83109Z" fill="#272727"/>
<path fill-rule="evenodd" clip-rule="evenodd" d="M22.81 14.2427L21.8251 13.415L20.1166 15.2851L21.1015 16.1128L22.81 14.2427ZM19.9376 17.5337L18.9526 16.706L17.2441 18.5761L18.2291 19.4038L19.9376 17.5337ZM24.9357 16.0324L25.9206 16.86L24.2122 18.7301L23.2271 17.9025L24.9357 16.0324ZM23.1886 20.2273L22.2037 19.3997L20.4952 21.2698L21.4802 22.0974L23.1886 20.2273ZM20.5811 17.9776L21.5661 18.8053L19.7826 20.8022L18.7977 19.9745L20.5811 17.9776ZM24.492 15.4778L23.5071 14.6501L21.7236 16.6471L22.7086 17.4747L24.492 15.4778Z" fill="#272727"/>
<path fill-rule="evenodd" clip-rule="evenodd" d="M1.83814 14.8898L2.81495 14.0645L7.1745 18.7449L6.1977 19.5702L1.83814 14.8898ZM2.85507 18.9835L3.83187 18.1581L5.67331 20.0537L4.69651 20.879L2.85507 18.9835ZM-0.400153 16.6907L-1.37695 17.5161L3.0052 22.2594L3.982 21.4341L-0.400153 16.6907ZM0.294867 16.1521L1.27167 15.3268L2.86801 17.0807L1.89121 17.906L0.294867 16.1521Z" fill="#272727"/>
</g>
</g>
</g>
</svg>
