<svg width="24" height="24" viewBox="0 0 24 24" fill="none" xmlns="http://www.w3.org/2000/svg">
<rect width="24" height="24" fill="#BF332D"/>
<g clip-path="url(#clip0_314_3440)">
<path d="M12.0013 3C13.7817 3 15.5222 3.52799 17.0025 4.51718C18.4828 5.50638 19.6365 6.91235 20.3177 8.55729C20.9989 10.2022 21.177 12.0122 20.8295 13.7584C20.482 15.5045 19.6244 17.1084 18.3653 18.3672C17.1062 19.6259 15.502 20.483 13.7558 20.83C12.0095 21.177 10.1996 20.9984 8.55482 20.3167C6.91009 19.635 5.50446 18.4809 4.5157 17.0003C3.52694 15.5197 2.99947 13.7791 3 11.9987C3 10.8167 3.23285 9.64635 3.68524 8.55441C4.13763 7.46247 4.80071 6.47034 5.63659 5.63471C6.47248 4.79907 7.4648 4.13629 8.55687 3.68422C9.64895 3.23215 10.8194 2.99965 12.0013 3Z" fill="url(#paint0_radial_314_3440)"/>
<path d="M6.87068 12.0652C11.422 14.6755 18.2823 12.4091 20.1514 11.7053C20.082 9.73396 19.3008 7.85455 17.9523 6.41491C16.6039 4.97527 14.7796 4.07287 12.8171 3.87477C10.8545 3.67666 8.88666 4.19625 7.27772 5.33736C5.66879 6.47847 4.52773 8.16384 4.06576 10.0815C12.7391 6.86063 17.1305 11.9479 17.1305 11.9479C12.5712 9.3376 5.70019 11.6173 3.8418 12.3132C3.91694 14.2819 4.70146 16.157 6.05065 17.5927C7.39985 19.0284 9.22269 19.9278 11.183 20.1249C13.1432 20.3221 15.1087 19.8037 16.7167 18.6655C18.3248 17.5273 19.467 15.8459 19.9327 13.9316C11.2647 17.1311 6.87068 12.0652 6.87068 12.0652Z" fill="url(#paint1_linear_314_3440)"/>
<path d="M18.4648 9.5322C18.4648 12.2945 15.5639 14.5341 11.9884 14.5341C8.41296 14.5341 5.52539 12.2945 5.52539 9.5322C5.52539 6.76994 8.42096 4.53027 11.9964 4.53027C15.5719 4.53027 18.4648 6.76994 18.4648 9.5322Z" fill="url(#paint2_linear_314_3440)"/>
<path d="M19.9327 13.9316C19.9041 13.9425 19.8747 13.9514 19.8448 13.9582C19.3341 15.6378 18.2936 17.1069 16.8787 18.1459C15.4638 19.185 13.7506 19.7382 11.9953 19.7227C7.67056 19.7227 4.13242 16.4459 3.85779 12.2998H3.8418C3.91813 14.3075 4.73233 16.2164 6.12849 17.6612C7.52465 19.106 9.40466 19.985 11.4085 20.1299C13.4124 20.2749 15.3994 19.6756 16.9889 18.4468C18.5785 17.218 19.6589 15.4461 20.0234 13.4703C19.9967 13.6249 19.9647 13.7716 19.9327 13.9316Z" fill="url(#paint3_linear_314_3440)"/>
<path d="M17.1307 11.9373C17.1307 11.9373 12.7393 6.87139 4.06595 10.0709C3.91246 10.6984 3.83459 11.342 3.83398 11.988C3.83398 12.0893 3.83398 12.1933 3.83398 12.2919C5.70037 11.6067 12.5714 9.32702 17.1307 11.9373Z" fill="white"/>
<path d="M20.1518 11.6948C18.2854 12.3987 11.4224 14.6651 6.87109 12.0548C6.87109 12.0548 11.2598 17.1207 19.9358 13.9212C20.0877 13.297 20.1656 12.6571 20.1678 12.0148C20.1651 11.9108 20.1571 11.7988 20.1518 11.6948Z" fill="white"/>
<path d="M20.1527 11.6948C19.1469 12.07 18.1194 12.3843 17.0758 12.636C15.8893 13.7958 14.0576 14.5344 12.0099 14.5344C11.6533 14.5341 11.297 14.5109 10.9434 14.4651C13.1004 15.1343 16.1026 15.3476 19.9554 13.9318C20.1072 13.3077 20.1851 12.6678 20.1873 12.0254C20.166 11.9108 20.158 11.7988 20.1527 11.6948Z" fill="url(#paint4_radial_314_3440)"/>
</g>
<defs>
<radialGradient id="paint0_radial_314_3440" cx="0" cy="0" r="1" gradientUnits="userSpaceOnUse" gradientTransform="translate(12.0632 12.0186) scale(9.03906)">
<stop stop-color="#921E20"/>
<stop offset="0.75" stop-color="#E5262B"/>
<stop offset="0.83" stop-color="#EF777B"/>
<stop offset="0.91" stop-color="#F7C0C2"/>
<stop offset="0.97" stop-color="#FDEEEE"/>
<stop offset="1" stop-color="white"/>
</radialGradient>
<linearGradient id="paint1_linear_314_3440" x1="11.9739" y1="20.136" x2="11.9739" y2="3.86108" gradientUnits="userSpaceOnUse">
<stop stop-color="#EE6825"/>
<stop offset="0.5" stop-color="#E5262B"/>
<stop offset="1" stop-color="#A31E24"/>
</linearGradient>
<linearGradient id="paint2_linear_314_3440" x1="12.0098" y1="4.51428" x2="12.0098" y2="14.5395" gradientUnits="userSpaceOnUse">
<stop stop-color="#F1947A"/>
<stop offset="1" stop-color="#DC2429"/>
</linearGradient>
<linearGradient id="paint3_linear_314_3440" x1="3.8418" y1="16.2299" x2="20.1674" y2="16.2299" gradientUnits="userSpaceOnUse">
<stop stop-color="#EE6825"/>
<stop offset="0.5" stop-color="#E5262B"/>
<stop offset="1" stop-color="#A31E24"/>
</linearGradient>
<radialGradient id="paint4_radial_314_3440" cx="0" cy="0" r="1" gradientUnits="userSpaceOnUse" gradientTransform="translate(14.2389 13.6972) scale(5.8578)">
<stop stop-color="white"/>
<stop offset="0.21" stop-color="#F7F7F7"/>
<stop offset="0.53" stop-color="#E2E2E2"/>
<stop offset="0.92" stop-color="#C0C0C0"/>
<stop offset="1" stop-color="#B8B8B8"/>
</radialGradient>
<clipPath id="clip0_314_3440">
<rect width="18" height="18" fill="white" transform="translate(3 3)"/>
</clipPath>
</defs>
</svg>
