<svg width="80" height="80" viewBox="0 0 80 80" fill="none" xmlns="http://www.w3.org/2000/svg">
<path d="M47.7592 21.4792L49.3092 17.0192C49.5692 16.2792 48.9192 15.5492 48.1592 15.7092L44.9792 16.3792C44.6292 16.4492 44.2592 16.3292 44.0192 16.0592L40.7392 12.3492C40.3392 11.8992 39.6492 11.8992 39.2392 12.3492L35.9592 15.9792C35.7292 16.2392 35.3692 16.3592 35.0292 16.2892L31.7992 15.6792C31.0392 15.5392 30.4092 16.2692 30.6592 16.9992L32.2192 21.4892C32.2192 21.4892 38.6192 16.6392 47.7592 21.4892V21.4792Z" fill="white" stroke="white" stroke-width="2" stroke-linecap="round" stroke-linejoin="round"/>
<path d="M28.5 14.1484C28.5 14.7007 28.0523 15.1484 27.5 15.1484C26.9477 15.1484 26.5 14.7007 26.5 14.1484C26.5 13.5962 26.9477 13.1484 27.5 13.1484C28.0523 13.1484 28.5 13.5962 28.5 14.1484Z" fill="white" stroke="white"/>
<path d="M53.4805 14.1484C53.4805 14.7007 53.0328 15.1484 52.4805 15.1484C51.9282 15.1484 51.4805 14.7007 51.4805 14.1484C51.4805 13.5962 51.9282 13.1484 52.4805 13.1484C53.0328 13.1484 53.4805 13.5962 53.4805 14.1484Z" fill="white" stroke="white"/>
<path d="M40.9902 8.5C40.9902 9.05228 40.5425 9.5 39.9902 9.5C39.4379 9.5 38.9902 9.05228 38.9902 8.5C38.9902 7.94772 39.4379 7.5 39.9902 7.5C40.5425 7.5 40.9902 7.94772 40.9902 8.5Z" fill="white" stroke="white"/>
<path d="M17 74V57.2C17 51.0144 21.9139 46 27.9756 46H51.0244C57.0861 46 62 51.0144 62 57.2V74" stroke="white" stroke-width="2" stroke-linecap="round"/>
<circle cx="40" cy="33" r="9" stroke="white" stroke-width="2"/>
</svg>
