<svg width="13" height="12" viewBox="0 0 13 12" fill="none" xmlns="http://www.w3.org/2000/svg">
<g id="ion:call">
<path id="Vector" d="M9.61879 11.2498C9.16129 11.2498 8.51864 11.0843 7.55629 10.5467C6.38606 9.89041 5.4809 9.28455 4.317 8.12369C3.19481 7.0022 2.64871 6.27611 1.88442 4.88533C1.02098 3.31502 1.16817 2.49189 1.3327 2.14009C1.52864 1.71963 1.81785 1.46814 2.19168 1.21853C2.40401 1.07942 2.62871 0.960162 2.86293 0.862283C2.88637 0.852204 2.90817 0.842595 2.92762 0.833923C3.04364 0.781658 3.21942 0.702673 3.44207 0.787048C3.59067 0.842829 3.72332 0.95697 3.93098 1.16205C4.35684 1.58205 4.93879 2.51744 5.15348 2.97681C5.29762 3.28642 5.39301 3.4908 5.39325 3.72002C5.39325 3.98838 5.25825 4.19533 5.09442 4.41869C5.06371 4.46064 5.03325 4.50072 5.00371 4.53963C4.82535 4.774 4.78621 4.84174 4.812 4.96267C4.86426 5.20572 5.25403 5.92924 5.89457 6.56838C6.53512 7.20752 7.23778 7.57267 7.48176 7.6247C7.60785 7.65166 7.677 7.61088 7.91887 7.42619C7.95356 7.3997 7.98918 7.37228 8.02645 7.34486C8.27629 7.159 8.47364 7.02752 8.73567 7.02752H8.73707C8.96512 7.02752 9.16035 7.12642 9.48379 7.28955C9.90567 7.50236 10.8692 8.07681 11.2918 8.50314C11.4973 8.71033 11.6119 8.84252 11.6679 8.99088C11.7523 9.21424 11.6729 9.38931 11.6211 9.5065C11.6124 9.52595 11.6028 9.54728 11.5927 9.57095C11.494 9.80476 11.3741 10.029 11.2343 10.2408C10.9852 10.6135 10.7328 10.902 10.3114 11.0981C10.095 11.2005 9.85816 11.2523 9.61879 11.2498Z" fill="#AAAAAA"/>
</g>
</svg>
