<svg width="24" height="22" viewBox="0 0 24 22" fill="none" xmlns="http://www.w3.org/2000/svg">
<path id="Star 1" d="M8.73314 4.61939C10.0055 2.04132 10.6417 0.752291 11.6056 0.558384C11.8659 0.50601 12.1341 0.50601 12.3944 0.558384C13.3583 0.752291 13.9945 2.04132 15.2669 4.61939V4.61939C15.6406 5.37669 15.8275 5.75535 16.1318 6.01944C16.2189 6.09498 16.3123 6.16285 16.411 6.22229C16.7563 6.43014 17.1741 6.49085 18.0099 6.61229V6.61229C20.8549 7.02571 22.2775 7.23241 22.7597 8.08922C22.89 8.32064 22.9729 8.57569 23.0035 8.83948C23.117 9.81612 22.0876 10.8195 20.0289 12.8262V12.8262C19.4242 13.4157 19.1218 13.7105 18.9647 14.0815C18.9197 14.1876 18.884 14.2975 18.858 14.4097C18.767 14.8023 18.8384 15.2185 18.9812 16.0508V16.0508C19.4672 18.8844 19.7102 20.3012 19.0443 21.0246C18.8645 21.22 18.6475 21.3776 18.4061 21.4883C17.5123 21.898 16.24 21.2291 13.6953 19.8913V19.8913C12.9478 19.4983 12.574 19.3018 12.1726 19.267C12.0577 19.2571 11.9423 19.2571 11.8274 19.267C11.426 19.3018 11.0522 19.4983 10.3047 19.8913V19.8913C7.76003 21.2291 6.48768 21.898 5.59389 21.4883C5.35248 21.3776 5.13552 21.22 4.95568 21.0246C4.28984 20.3012 4.53284 18.8844 5.01884 16.0508V16.0508C5.1616 15.2185 5.23298 14.8023 5.14198 14.4097C5.11596 14.2975 5.08028 14.1876 5.03534 14.0815C4.87822 13.7105 4.57585 13.4157 3.97111 12.8262V12.8262C1.9124 10.8195 0.883043 9.81612 0.996489 8.83948C1.02713 8.57568 1.11 8.32064 1.24026 8.08922C1.72254 7.23241 3.14507 7.02571 5.99014 6.61229V6.61229C6.82587 6.49085 7.24374 6.43014 7.58896 6.22229C7.6877 6.16285 7.78111 6.09498 7.86816 6.01944C8.17251 5.75535 8.35938 5.37669 8.73314 4.61939V4.61939Z" fill="#0067AC"/>
</svg>
