<svg width="28" height="28" viewBox="0 0 28 28" fill="none" xmlns="http://www.w3.org/2000/svg">
<g id="Icon / 28 / Favorite-Off">
<path id="Star 2" d="M8.07642 9.20606C8.11362 9.20065 8.15032 9.19534 8.18653 9.19011C8.91467 9.0848 9.44766 9.00772 9.89844 8.73632C10.0268 8.65904 10.1482 8.57081 10.2614 8.47262C10.6588 8.12777 10.8968 7.64469 11.222 6.98474C11.2382 6.95191 11.2545 6.91864 11.2712 6.88493C11.9147 5.58102 12.3732 4.65447 12.7867 4.02387C13.2055 3.38541 13.4893 3.19378 13.7239 3.1466C13.9061 3.10994 14.0939 3.10994 14.2761 3.1466C14.5107 3.19378 14.7945 3.38541 15.2133 4.02387C15.6268 4.65447 16.0853 5.58102 16.7288 6.88493C16.7455 6.91864 16.7618 6.9519 16.778 6.98473C17.1032 7.64468 17.3412 8.12777 17.7386 8.47262C17.8518 8.57081 17.9732 8.65904 18.1016 8.73632C18.5523 9.00772 19.0853 9.0848 19.8135 9.19011C19.8497 9.19534 19.8864 9.20065 19.9236 9.20606C21.3625 9.41515 22.3854 9.56489 23.113 9.76334C23.8495 9.96425 24.1195 10.175 24.2369 10.3835C24.3281 10.5455 24.3861 10.7241 24.4075 10.9087C24.4351 11.1464 24.3406 11.4756 23.8628 12.0711C23.3908 12.6593 22.6513 13.3816 21.6101 14.3966C21.5832 14.4228 21.5566 14.4487 21.5304 14.4742C21.0032 14.9874 20.6173 15.363 20.4121 15.8476C20.3537 15.9855 20.3073 16.1283 20.2735 16.2742C20.1547 16.7868 20.2461 17.3176 20.3709 18.0426C20.3772 18.0787 20.3834 18.1152 20.3898 18.1523C20.6356 19.5854 20.8093 20.6045 20.8454 21.3577C20.8819 22.1204 20.7649 22.4423 20.6028 22.6183C20.477 22.7551 20.3251 22.8654 20.1561 22.9429C19.9386 23.0426 19.5963 23.0544 18.8823 22.784C18.1771 22.5169 17.2615 22.0368 15.9745 21.3602C15.9412 21.3427 15.9084 21.3254 15.876 21.3083C15.225 20.9656 14.7485 20.7146 14.2243 20.6692C14.0751 20.6563 13.9249 20.6563 13.7757 20.6692C13.2515 20.7146 12.775 20.9656 12.124 21.3083C12.0916 21.3254 12.0588 21.3427 12.0255 21.3602C10.7385 22.0368 9.82295 22.5169 9.11771 22.784C8.4037 23.0544 8.0614 23.0426 7.8439 22.9429C7.67492 22.8654 7.52305 22.7551 7.39716 22.6183C7.23514 22.4423 7.1181 22.1204 7.15463 21.3577C7.19072 20.6045 7.3644 19.5854 7.6102 18.1523C7.61656 18.1152 7.62285 18.0787 7.62906 18.0426C7.75391 17.3175 7.8453 16.7868 7.72649 16.2742C7.69266 16.1283 7.64627 15.9855 7.58785 15.8476C7.38269 15.363 6.9968 14.9874 6.46962 14.4742C6.4434 14.4487 6.41683 14.4228 6.38991 14.3966C5.34868 13.3816 4.60916 12.6593 4.13722 12.0711C3.6594 11.4756 3.56488 11.1464 3.59248 10.9087C3.61393 10.7241 3.67194 10.5455 3.76312 10.3835C3.88048 10.175 4.15046 9.96425 4.88705 9.76334C5.61458 9.56489 6.63747 9.41515 8.07642 9.20606Z" fill="white" stroke="#CBC5F8" stroke-width="1.2"/>
</g>
</svg>
