<svg width="60" height="60" viewBox="0 0 60 60" fill="none" xmlns="http://www.w3.org/2000/svg">
<g id="icon" clip-path="url(#clip0_522_3570)">
<g id="Group">
<path id="Vector" d="M25.9089 27.9894C25.9089 27.9894 24.5989 27.1294 22.7089 27.3594C21.2189 27.5394 19.9389 28.3294 19.9789 30.0394C20.0089 31.4494 21.2289 32.4394 23.0789 33.1194C24.9189 33.7994 26.1189 34.1994 26.1889 36.1994C26.2589 38.1994 24.5389 39.2894 23.1189 39.3394C21.7089 39.3894 21.1089 39.2594 19.3789 38.5094" stroke="#999999" stroke-width="2" stroke-linecap="round" stroke-linejoin="round"/>
<path id="Vector_2" d="M23.0586 24.6094V27.3494" stroke="#999999" stroke-width="2" stroke-linecap="round" stroke-linejoin="round"/>
<path id="Vector_3" d="M22.918 42.0316V39.3516" stroke="#999999" stroke-width="2" stroke-linecap="round" stroke-linejoin="round"/>
</g>
<g id="Group_2">
<path id="Vector_4" d="M34.2981 24.6113L26.9881 15.0312H18.6681C18.6681 15.0312 10.7481 24.2613 9.18812 26.7413C7.30812 29.7213 5.57812 33.4913 5.57812 36.4713C5.57812 44.5013 13.2181 51.0013 22.6481 51.0013C24.5081 51.0013 26.2981 50.7512 27.9681 50.2812L31.6981 49.0613" stroke="#999999" stroke-width="2" stroke-linecap="round" stroke-linejoin="round"/>
<path id="Vector_5" d="M19.3498 14.8433L14.2598 7.60333C14.2598 7.60333 13.5898 4.65333 16.5698 5.04333C18.7098 5.32333 21.4398 6.46333 24.1998 6.46333C25.7098 6.46333 31.7098 5.93333 31.7098 5.93333L26.6098 14.7633" stroke="#999999" stroke-width="2" stroke-linecap="round" stroke-linejoin="round"/>
</g>
<g id="Group_3">
<g id="Group_4">
<path id="Vector_6" d="M38.8594 40.1869C39.7094 41.7369 41.3694 42.7969 43.2694 42.7969C46.0494 42.7969 48.2894 40.5569 48.2894 37.7969C48.2894 35.0369 46.0394 32.7969 43.2694 32.7969C41.5694 32.7969 40.0594 33.6369 39.1494 34.9269" stroke="#0067AC" stroke-width="1.2" stroke-linecap="round" stroke-linejoin="round"/>
<path id="Vector_7" d="M40.9386 35.5166L38.5586 35.2366L38.8186 32.9766" stroke="#0067AC" stroke-width="1.2" stroke-linecap="round" stroke-linejoin="round"/>
</g>
<path id="Vector_8" d="M43.4297 48.7969C49.5097 48.7969 54.4297 43.8769 54.4297 37.7969C54.4297 31.7169 49.5097 26.7969 43.4297 26.7969C37.3497 26.7969 32.4297 31.7169 32.4297 37.7969C32.4297 43.8769 37.3497 48.7969 43.4297 48.7969Z" stroke="#0067AC" stroke-width="2" stroke-linecap="round" stroke-linejoin="round"/>
</g>
</g>
<defs>
<clipPath id="clip0_522_3570">
<rect width="60" height="60" fill="white"/>
</clipPath>
</defs>
</svg>
