<svg width="24" height="24" viewBox="0 0 24 24" fill="none" xmlns="http://www.w3.org/2000/svg">
<path d="M19.6896 6.89H1.58965C1.20305 6.89 0.889648 7.2034 0.889648 7.59V19.19C0.889648 19.5766 1.20305 19.89 1.58965 19.89H19.6896C20.0762 19.89 20.3896 19.5766 20.3896 19.19V7.59C20.3896 7.2034 20.0762 6.89 19.6896 6.89Z" stroke="#FFFFFF" stroke-width="1.5" stroke-linecap="round" stroke-linejoin="round"/>
<path d="M5.13965 4.12H22.3296C22.7596 4.12 23.1096 4.47 23.1096 4.9V15.47" stroke="#FFFFFF" stroke-width="1.5" stroke-linecap="round" stroke-linejoin="round"/>
<path d="M11.8895 11.24C11.8895 11.24 11.3595 10.9 10.6095 10.99C10.0095 11.06 9.49954 11.38 9.50954 12.07C9.51954 12.64 10.0095 13.03 10.7495 13.31C11.4895 13.58 11.9695 13.74 11.9995 14.55C12.0295 15.35 11.3395 15.79 10.7695 15.81C10.1995 15.83 9.95953 15.78 9.26953 15.47" stroke="#FFFFFF" stroke-width="1.2" stroke-linecap="round" stroke-linejoin="round"/>
<path d="M10.75 9.89V10.99" stroke="#FFFFFF" stroke-width="1.2" stroke-linecap="round" stroke-linejoin="round"/>
<path d="M10.6895 16.89V15.81" stroke="#FFFFFF" stroke-width="1.2" stroke-linecap="round" stroke-linejoin="round"/>
</svg>
