<svg width="24" height="24" viewBox="0 0 24 24" fill="none" xmlns="http://www.w3.org/2000/svg">
<path d="M12 23C18.0751 23 23 18.0751 23 12C23 5.92487 18.0751 1 12 1C5.92487 1 1 5.92487 1 12C1 18.0751 5.92487 23 12 23Z" stroke="#FFFFFF" stroke-width="1.5"/>
<path d="M14.33 8.02C14.33 8.02 13.35 7.38 11.95 7.55C10.84 7.68 9.87996 8.28 9.90996 9.55C9.92996 10.6 10.85 11.34 12.22 11.85C13.6 12.36 14.49 12.66 14.54 14.15C14.59 15.64 13.31 16.46 12.25 16.49C11.19 16.53 10.75 16.43 9.45996 15.87" stroke="#FFFFFF" stroke-width="1.5" stroke-linecap="round" stroke-linejoin="round"/>
<path d="M12.2002 5.5V7.55" stroke="#FFFFFF" stroke-width="1.5" stroke-linecap="round" stroke-linejoin="round"/>
<path d="M12.0996 18.5V16.5" stroke="#FFFFFF" stroke-width="1.5" stroke-linecap="round" stroke-linejoin="round"/>
</svg>
