<svg width="24" height="24" viewBox="0 0 24 24" fill="none" xmlns="http://www.w3.org/2000/svg">
<path d="M12 23C18.0751 23 23 18.0751 23 12C23 5.92487 18.0751 1 12 1C5.92487 1 1 5.92487 1 12C1 18.0751 5.92487 23 12 23Z" stroke="white" stroke-width="1.5"/>
<path d="M14.33 8.02021C14.33 8.02021 13.35 7.38021 11.95 7.55021C10.84 7.68021 9.87996 8.28021 9.90996 9.55021C9.92996 10.6002 10.85 11.3402 12.22 11.8502C13.6 12.3602 14.49 12.6602 14.54 14.1502C14.59 15.6402 13.31 16.4602 12.25 16.4902C11.19 16.5302 10.75 16.4302 9.45996 15.8702" stroke="white" stroke-width="1.5" stroke-linecap="round" stroke-linejoin="round"/>
<path d="M12.2002 5.5V7.55" stroke="white" stroke-width="1.5" stroke-linecap="round" stroke-linejoin="round"/>
<path d="M12.1001 18.5V16.5" stroke="white" stroke-width="1.5" stroke-linecap="round" stroke-linejoin="round"/>
</svg>
