<svg width="24" height="24" viewBox="0 0 24 24" fill="none" xmlns="http://www.w3.org/2000/svg">
<path d="M6.17014 11.0304C5.57014 9.99045 5.23013 8.77045 5.26013 7.48045C5.35013 3.76045 8.45012 0.820446 12.1701 0.920446C15.8901 1.02045 18.8301 4.11045 18.7301 7.83045C18.6901 9.25045 18.2201 10.5504 17.4501 11.6104C17.3401 11.7604 17.2201 11.9104 17.1001 12.0504" stroke="white" stroke-width="1.5" stroke-linecap="round" stroke-linejoin="round"/>
<path d="M13.21 5.6005C13.21 5.6005 12.71 5.2805 12.01 5.3605C11.45 5.4305 10.97 5.7305 10.98 6.3705C10.99 6.9005 11.45 7.2705 12.15 7.5305C12.84 7.7905 13.3 7.9405 13.32 8.6905C13.35 9.4405 12.7 9.8605 12.16 9.8705C11.63 9.8905 11.4 9.8405 10.75 9.5605" stroke="white" stroke-width="1.2" stroke-linecap="round" stroke-linejoin="round"/>
<path d="M12.1299 4.33008V5.36008" stroke="white" stroke-width="1.2" stroke-linecap="round" stroke-linejoin="round"/>
<path d="M12.0801 10.8899V9.87988" stroke="white" stroke-width="1.2" stroke-linecap="round" stroke-linejoin="round"/>
<path d="M10.3901 16.9604L14.5401 17.0704C15.3201 17.0904 15.9801 16.4804 16.0001 15.7104C16.0201 14.9404 15.4001 14.3004 14.6201 14.2704L5.83011 13.9404L0.850098 16.6504" stroke="white" stroke-width="1.5" stroke-linecap="round" stroke-linejoin="round"/>
<path d="M16.4502 18.4101L21.2302 16.6001C21.9602 16.3301 22.7902 16.7001 23.0602 17.4201C23.3302 18.1401 22.9602 18.9501 22.2302 19.2201L13.9102 22.3401L6.64017 21.3401L2.93018 23.1901" stroke="white" stroke-width="1.5" stroke-linecap="round" stroke-linejoin="round"/>
</svg>
