<svg width="24" height="24" viewBox="0 0 24 24" fill="none" xmlns="http://www.w3.org/2000/svg">
<path d="M14.8001 23.1404H1.78009C1.39009 23.1404 1.08008 22.8304 1.08008 22.4404V1.60039C1.08008 1.21039 1.39009 0.900391 1.78009 0.900391H15.4801C15.8701 0.900391 16.1801 1.21039 16.1801 1.60039V5.08039" stroke="white" stroke-width="1.5" stroke-linecap="round" stroke-linejoin="round"/>
<path d="M9.23019 20.0602C9.23019 20.2811 9.0511 20.4602 8.83017 20.4602C8.60926 20.4602 8.43018 20.2811 8.43018 20.0602C8.43018 19.8392 8.60926 19.6602 8.83017 19.6602C9.0511 19.6602 9.23019 19.8393 9.23019 20.0602Z" fill="white" stroke="white"/>
<path d="M1.08008 17.21H8.47009" stroke="white" stroke-width="1.2" stroke-linecap="round" stroke-linejoin="round"/>
<path d="M16.6699 20.4004C20.1217 20.4004 22.9199 17.6022 22.9199 14.1504C22.9199 10.6986 20.1217 7.90039 16.6699 7.90039C13.2181 7.90039 10.4199 10.6986 10.4199 14.1504C10.4199 17.6022 13.2181 20.4004 16.6699 20.4004Z" stroke="white" stroke-width="1.5"/>
<path d="M17.78 12.2598C17.78 12.2598 17.31 11.9498 16.64 12.0398C16.11 12.0998 15.65 12.3898 15.67 12.9998C15.68 13.4998 16.12 13.8498 16.77 14.0898C17.43 14.3298 17.85 14.4698 17.88 15.1798C17.9 15.8898 17.29 16.2798 16.79 16.2998C16.29 16.3198 16.07 16.2698 15.46 15.9998" stroke="white" stroke-width="1.2" stroke-linecap="round" stroke-linejoin="round"/>
<path d="M16.77 11.0498V12.0298" stroke="white" stroke-width="1.2" stroke-linecap="round" stroke-linejoin="round"/>
<path d="M16.7197 17.2498V16.2998" stroke="white" stroke-width="1.2" stroke-linecap="round" stroke-linejoin="round"/>
</svg>
