<svg width="22" height="22" viewBox="0 0 22 22" fill="none" xmlns="http://www.w3.org/2000/svg">
<path d="M11 1L14.0615 3.60896L18.0711 3.92893L18.391 7.93853L21 11L18.391 14.0615L18.0711 18.0711L14.0615 18.391L11 21L7.93853 18.391L3.92893 18.0711L3.60896 14.0615L1 11L3.60896 7.93853L3.92893 3.92893L7.93853 3.60896L11 1Z" stroke="white" stroke-width="1.5" stroke-linejoin="round"/>
<mask id="path-2-inside-1_357_6258" fill="white">
<path d="M14.3182 8.93754L9.85708 12.9168L7.68005 10.9272C7.55319 10.8217 7.38541 10.7643 7.21205 10.7671C7.03869 10.7698 6.87329 10.8324 6.75068 10.9418C6.62808 11.0512 6.55785 11.1987 6.55479 11.3533C6.55173 11.508 6.61608 11.6576 6.73429 11.7708L9.41097 14.1583C9.53644 14.2701 9.70652 14.3329 9.88385 14.3329C10.0612 14.3329 10.2313 14.2701 10.3567 14.1583L15.264 9.78115C15.3822 9.668 15.4465 9.51834 15.4435 9.3637C15.4404 9.20907 15.3702 9.06153 15.2476 8.95217C15.125 8.84281 14.9596 8.78017 14.7862 8.77744C14.6128 8.77471 14.4451 8.83211 14.3182 8.93754Z"/>
</mask>
<path d="M14.3182 8.93754L9.85708 12.9168L7.68005 10.9272C7.55319 10.8217 7.38541 10.7643 7.21205 10.7671C7.03869 10.7698 6.87329 10.8324 6.75068 10.9418C6.62808 11.0512 6.55785 11.1987 6.55479 11.3533C6.55173 11.508 6.61608 11.6576 6.73429 11.7708L9.41097 14.1583C9.53644 14.2701 9.70652 14.3329 9.88385 14.3329C10.0612 14.3329 10.2313 14.2701 10.3567 14.1583L15.264 9.78115C15.3822 9.668 15.4465 9.51834 15.4435 9.3637C15.4404 9.20907 15.3702 9.06153 15.2476 8.95217C15.125 8.84281 14.9596 8.78017 14.7862 8.77744C14.6128 8.77471 14.4451 8.83211 14.3182 8.93754Z" fill="white"/>
<path d="M14.3182 8.93754L13.3594 7.78398L13.3393 7.80072L13.3197 7.81815L14.3182 8.93754ZM9.85708 12.9168L8.84515 14.0241L9.84487 14.9377L10.8556 14.0362L9.85708 12.9168ZM7.68005 10.9272L8.69198 9.81993L8.66596 9.79615L8.63884 9.77361L7.68005 10.9272ZM6.73429 11.7708L5.69703 12.8543L5.7161 12.8726L5.73581 12.8902L6.73429 11.7708ZM9.41097 14.1583L8.41249 15.2777L8.41318 15.2783L9.41097 14.1583ZM10.3567 14.1583L11.3545 15.2783L11.3552 15.2777L10.3567 14.1583ZM15.264 9.78115L16.2625 10.9005L16.2822 10.883L16.3012 10.8647L15.264 9.78115ZM13.3197 7.81815L8.8586 11.7974L10.8556 14.0362L15.3167 10.0569L13.3197 7.81815ZM10.869 11.8096L8.69198 9.81993L6.66811 12.0344L8.84515 14.0241L10.869 11.8096ZM8.63884 9.77361C8.22145 9.42669 7.7002 9.2592 7.18845 9.26725L7.23566 12.2669C7.07063 12.2695 6.88494 12.2168 6.72125 12.0807L8.63884 9.77361ZM7.18845 9.26725C6.67667 9.27531 6.1593 9.45928 5.7522 9.82241L7.74916 12.0612C7.58727 12.2056 7.40072 12.2643 7.23566 12.2669L7.18845 9.26725ZM5.7522 9.82241C5.34 10.1901 5.06695 10.7236 5.05509 11.3237L8.0545 11.383C8.04875 11.6738 7.91616 11.9122 7.74916 12.0612L5.7522 9.82241ZM5.05509 11.3237C5.0432 11.9243 5.29557 12.47 5.69703 12.8543L7.77154 10.6872C7.9366 10.8452 8.06026 11.0916 8.0545 11.383L5.05509 11.3237ZM5.73581 12.8902L8.41249 15.2777L10.4094 13.0389L7.73277 10.6514L5.73581 12.8902ZM8.41318 15.2783C8.82953 15.6493 9.36079 15.8329 9.88385 15.8329V12.8329C10.0522 12.8329 10.2433 12.891 10.4088 13.0383L8.41318 15.2783ZM9.88385 15.8329C10.4069 15.8329 10.9382 15.6493 11.3545 15.2783L9.35894 13.0383C9.52435 12.891 9.71545 12.8329 9.88385 12.8329V15.8329ZM11.3552 15.2777L16.2625 10.9005L14.2655 8.66175L9.35825 13.0389L11.3552 15.2777ZM16.3012 10.8647C16.7027 10.4804 16.9551 9.9347 16.9432 9.33404L13.9438 9.39337C13.938 9.10198 14.0617 8.85559 14.2267 8.69758L16.3012 10.8647ZM16.9432 9.33404C16.9313 8.73398 16.6583 8.20045 16.2461 7.83278L14.2491 10.0716C14.0821 9.9226 13.9495 9.68416 13.9438 9.39337L16.9432 9.33404ZM16.2461 7.83278C15.839 7.46965 15.3216 7.28568 14.8098 7.27762L14.7626 10.2773C14.5975 10.2747 14.411 10.216 14.2491 10.0716L16.2461 7.83278ZM14.8098 7.27762C14.2981 7.26957 13.7768 7.43706 13.3594 7.78398L15.277 10.0911C15.1133 10.2272 14.9276 10.2798 14.7626 10.2773L14.8098 7.27762Z" fill="white" mask="url(#path-2-inside-1_357_6258)"/>
</svg>
