<svg width="24" height="24" viewBox="0 0 24 24" fill="none" xmlns="http://www.w3.org/2000/svg">
<mask id="mask0_264_6360" style="mask-type:alpha" maskUnits="userSpaceOnUse" x="0" y="0" width="24" height="24">
<rect width="24" height="24" rx="12" fill="white"/>
</mask>
<g mask="url(#mask0_264_6360)">
<mask id="mask1_264_6360" style="mask-type:luminance" maskUnits="userSpaceOnUse" x="-4" y="0" width="32" height="24">
<path d="M-4 0H28V24H-4V0Z" fill="white"/>
</mask>
<g mask="url(#mask1_264_6360)">
<path d="M-4 0H28V24H-4V0Z" fill="#032EA1"/>
<path d="M-4 6H28V18H-4V6Z" fill="#E00025"/>
<path d="M8.61914 11.3105H15.4471V13.9385H8.61914V11.3105Z" fill="white" stroke="black" stroke-width="0.0806556" stroke-linejoin="bevel"/>
<path fill-rule="evenodd" clip-rule="evenodd" d="M15.4471 11.8486H8.61914V12.1246H15.4471V11.8486ZM8.61914 12.2686H15.4471V12.5686H8.61914V12.2686ZM15.0991 12.7546H15.3091V13.7446H15.0991V12.7546Z" fill="white"/>
<path d="M8.61984 11.8503V11.8203L8.58984 11.8503H8.61984ZM15.4478 11.8503H15.4778L15.4478 11.8203V11.8503ZM8.61984 12.1263H8.58984L8.61984 12.1563V12.1263ZM15.4478 12.1263V12.1563L15.4778 12.1263H15.4478ZM15.4478 12.2703H15.4778L15.4478 12.2403V12.2703ZM8.61984 12.2703V12.2403L8.58984 12.2703H8.61984ZM15.4478 12.5703V12.6003L15.4778 12.5703H15.4478ZM8.61984 12.5703H8.58984L8.61984 12.6003V12.5703ZM15.3098 12.7563H15.3398L15.3098 12.7263V12.7563ZM15.0998 12.7563V12.7263L15.0698 12.7563H15.0998ZM15.3098 13.7463V13.7763L15.3398 13.7463H15.3098ZM15.0998 13.7463H15.0698L15.0998 13.7763V13.7463ZM8.61984 11.8803H15.4478V11.8203H8.61984V11.8803ZM8.64984 12.1263V11.8503H8.58984V12.1263H8.64984ZM15.4478 12.0963H8.61984V12.1563H15.4478V12.0963ZM15.4178 11.8503V12.1263H15.4778V11.8503H15.4178ZM15.4478 12.2403H8.61984V12.3003H15.4478V12.2403ZM15.4778 12.5703V12.2703H15.4178V12.5703H15.4778ZM8.61984 12.6003H15.4478V12.5403H8.61984V12.6003ZM8.58984 12.2703V12.5703H8.64984V12.2703H8.58984ZM15.3098 12.7263H15.0998V12.7863H15.3098V12.7263ZM15.3398 13.7463V12.7563H15.2798V13.7463H15.3398ZM15.0998 13.7763H15.3098V13.7163H15.0998V13.7763ZM15.0698 12.7563V13.7463H15.1298V12.7563H15.0698Z" fill="black"/>
<path d="M8.61914 11.4424H15.4471V11.7004H8.61914V11.4424Z" fill="white" stroke="black" stroke-width="0.0806556" stroke-linejoin="bevel"/>
<path fill-rule="evenodd" clip-rule="evenodd" d="M8.88969 12.7568H8.67969V13.7468H8.88969V12.7568ZM10.4197 12.7568H10.6357V13.7468H10.4197V12.7568ZM13.3597 12.7568H13.5757V13.7468H13.3597V12.7568ZM9.09969 12.7568H9.30969V13.7468H9.09969V12.7568ZM9.75969 12.7568H9.54969V13.7468H9.75969V12.7568ZM9.99969 12.7568H10.2097V13.7468H9.99969V12.7568ZM13.9837 12.7568H13.7677V13.7468H13.9837V12.7568ZM14.2177 12.7568H14.4337V13.7468H14.2177V12.7568ZM14.8837 12.7568H14.6677V13.7468H14.8837V12.7568Z" fill="white"/>
<path d="M8.68039 12.7556V12.7256L8.65039 12.7556H8.68039ZM8.89039 12.7556H8.92039L8.89039 12.7256V12.7556ZM8.68039 13.7456H8.65039L8.68039 13.7756V13.7456ZM8.89039 13.7456V13.7756L8.92039 13.7456H8.89039ZM10.6364 12.7556H10.6664L10.6364 12.7256V12.7556ZM10.4204 12.7556V12.7256L10.3904 12.7556H10.4204ZM10.6364 13.7456V13.7756L10.6664 13.7456H10.6364ZM10.4204 13.7456H10.3904L10.4204 13.7756V13.7456ZM13.5764 12.7556H13.6064L13.5764 12.7256V12.7556ZM13.3604 12.7556V12.7256L13.3304 12.7556H13.3604ZM13.5764 13.7456V13.7756L13.6064 13.7456H13.5764ZM13.3604 13.7456H13.3304L13.3604 13.7756V13.7456ZM9.31039 12.7556H9.34039L9.31039 12.7256V12.7556ZM9.10039 12.7556V12.7256L9.07039 12.7556H9.10039ZM9.31039 13.7456V13.7756L9.34039 13.7456H9.31039ZM9.10039 13.7456H9.07039L9.10039 13.7756V13.7456ZM9.55039 12.7556V12.7256L9.52039 12.7556H9.55039ZM9.76039 12.7556H9.79039L9.76039 12.7256V12.7556ZM9.55039 13.7456H9.52039L9.55039 13.7756V13.7456ZM9.76039 13.7456V13.7756L9.79039 13.7456H9.76039ZM10.2104 12.7556H10.2404L10.2104 12.7256V12.7556ZM10.0004 12.7556V12.7256L9.97039 12.7556H10.0004ZM10.2104 13.7456V13.7756L10.2404 13.7456H10.2104ZM10.0004 13.7456H9.97039L10.0004 13.7756V13.7456ZM13.7684 12.7556V12.7256L13.7384 12.7556H13.7684ZM13.9844 12.7556H14.0144L13.9844 12.7256V12.7556ZM13.7684 13.7456H13.7384L13.7684 13.7756V13.7456ZM13.9844 13.7456V13.7756L14.0144 13.7456H13.9844ZM14.4344 12.7556H14.4644L14.4344 12.7256V12.7556ZM14.2184 12.7556V12.7256L14.1884 12.7556H14.2184ZM14.4344 13.7456V13.7756L14.4644 13.7456H14.4344ZM14.2184 13.7456H14.1884L14.2184 13.7756V13.7456ZM14.6684 12.7556V12.7256L14.6384 12.7556H14.6684ZM14.8844 12.7556H14.9144L14.8844 12.7256V12.7556ZM14.6684 13.7456H14.6384L14.6684 13.7756V13.7456ZM14.8844 13.7456V13.7756L14.9144 13.7456H14.8844ZM8.68039 12.7856H8.89039V12.7256H8.68039V12.7856ZM8.71039 13.7456V12.7556H8.65039V13.7456H8.71039ZM8.89039 13.7156H8.68039V13.7756H8.89039V13.7156ZM8.86039 12.7556V13.7456H8.92039V12.7556H8.86039ZM10.6364 12.7256H10.4204V12.7856H10.6364V12.7256ZM10.6664 13.7456V12.7556H10.6064V13.7456H10.6664ZM10.4204 13.7756H10.6364V13.7156H10.4204V13.7756ZM10.3904 12.7556V13.7456H10.4504V12.7556H10.3904ZM13.5764 12.7256H13.3604V12.7856H13.5764V12.7256ZM13.6064 13.7456V12.7556H13.5464V13.7456H13.6064ZM13.3604 13.7756H13.5764V13.7156H13.3604V13.7756ZM13.3304 12.7556V13.7456H13.3904V12.7556H13.3304ZM9.31039 12.7256H9.10039V12.7856H9.31039V12.7256ZM9.34039 13.7456V12.7556H9.28039V13.7456H9.34039ZM9.10039 13.7756H9.31039V13.7156H9.10039V13.7756ZM9.07039 12.7556V13.7456H9.13039V12.7556H9.07039ZM9.55039 12.7856H9.76039V12.7256H9.55039V12.7856ZM9.58039 13.7456V12.7556H9.52039V13.7456H9.58039ZM9.76039 13.7156H9.55039V13.7756H9.76039V13.7156ZM9.73039 12.7556V13.7456H9.79039V12.7556H9.73039ZM10.2104 12.7256H10.0004V12.7856H10.2104V12.7256ZM10.2404 13.7456V12.7556H10.1804V13.7456H10.2404ZM10.0004 13.7756H10.2104V13.7156H10.0004V13.7756ZM9.97039 12.7556V13.7456H10.0304V12.7556H9.97039ZM13.7684 12.7856H13.9844V12.7256H13.7684V12.7856ZM13.7984 13.7456V12.7556H13.7384V13.7456H13.7984ZM13.9844 13.7156H13.7684V13.7756H13.9844V13.7156ZM13.9544 12.7556V13.7456H14.0144V12.7556H13.9544ZM14.4344 12.7256H14.2184V12.7856H14.4344V12.7256ZM14.4644 13.7456V12.7556H14.4044V13.7456H14.4644ZM14.2184 13.7756H14.4344V13.7156H14.2184V13.7756ZM14.1884 12.7556V13.7456H14.2484V12.7556H14.1884ZM14.6684 12.7856H14.8844V12.7256H14.6684V12.7856ZM14.6984 13.7456V12.7556H14.6384V13.7456H14.6984ZM14.8844 13.7156H14.6684V13.7756H14.8844V13.7156ZM14.8544 12.7556V13.7456H14.9144V12.7556H14.8544Z" fill="black"/>
<path d="M5.94922 14.07C6.07467 14.0017 6.16917 13.8879 6.21327 13.752H17.7993C17.8433 13.8879 17.9378 14.0017 18.0633 14.07H5.94922Z" fill="white" stroke="black" stroke-width="0.0806556"/>
<path fill-rule="evenodd" clip-rule="evenodd" d="M12 7.05566C11.856 7.06166 11.862 7.30766 11.862 7.30766H12.132C12.132 7.30766 12.138 7.05566 12 7.05566ZM11.112 10.2476V10.5776H12.888V10.2476C12.8913 10.1573 12.9396 10.1121 12.9836 10.0709C13.0214 10.0355 13.056 10.0031 13.056 9.94766C13.056 9.94766 13.08 9.76766 13.026 9.68366C12.966 9.92366 12.846 9.88166 12.846 9.77966C12.846 9.70666 12.8959 9.63365 12.9995 9.48188L13.05 9.40766C13.098 9.33566 13.068 9.12566 13.008 9.04766C12.984 9.23366 12.954 9.31766 12.876 9.31766C12.828 9.31766 12.786 9.28766 12.786 9.19766C12.786 9.12454 12.8172 9.07369 12.8497 9.02069C12.8706 8.98671 12.892 8.95185 12.906 8.90966C12.9498 8.80104 12.9264 8.67686 12.846 8.59166C12.8408 8.62323 12.8366 8.65147 12.8329 8.67659C12.8156 8.7947 12.8084 8.84366 12.744 8.84366C12.593 8.79892 12.7235 8.58733 12.7711 8.51024L12.78 8.49566C12.81 8.38166 12.72 8.29166 12.72 8.29166C12.672 8.44766 12.66 8.46566 12.6 8.44766C12.528 8.42966 12.54 8.32766 12.624 8.24366C12.678 8.18966 12.672 8.10566 12.612 8.04566C12.552 8.16566 12.456 8.14766 12.468 8.07566L12.522 7.81766H12.45L12.474 7.63166H11.52L11.544 7.81766H11.478L11.526 8.08166C11.52 8.15366 11.448 8.15966 11.388 8.04566C11.328 8.10566 11.322 8.18366 11.376 8.24366C11.46 8.32766 11.472 8.42966 11.4 8.44766C11.34 8.46566 11.328 8.45366 11.28 8.29166C11.28 8.29166 11.184 8.42966 11.22 8.49566L11.2304 8.51243C11.279 8.59059 11.4056 8.79381 11.256 8.84366C11.1917 8.84366 11.1845 8.7947 11.1671 8.67659C11.1634 8.65147 11.1593 8.62323 11.154 8.59166C11.0716 8.67556 11.0458 8.79989 11.088 8.90966C11.1033 8.94884 11.1232 8.98171 11.1425 9.01341C11.1764 9.06909 11.208 9.1212 11.208 9.19766C11.208 9.28766 11.172 9.31766 11.124 9.31766C11.046 9.31766 11.016 9.22766 10.992 9.04766C10.932 9.12566 10.902 9.33566 10.95 9.40166L10.9807 9.44822C11.097 9.62466 11.148 9.70216 11.148 9.77966C11.148 9.88166 11.034 9.92366 10.968 9.68366C10.92 9.76766 10.944 9.94766 10.944 9.94766C10.944 10.0026 10.9793 10.0349 11.0175 10.0699C11.0627 10.1114 11.112 10.1566 11.112 10.2476ZM11.592 7.47566L11.604 7.62566H12.384L12.402 7.47566H11.592ZM11.742 7.46966L11.724 7.31366H12.264L12.258 7.46966H11.742ZM13.422 13.7696C13.422 13.8956 13.602 14.0276 13.722 14.0696H10.332C10.452 14.0276 10.572 13.8956 10.572 13.7696V12.3116L10.422 12.1076H13.578L13.422 12.3116V13.7696Z" fill="white"/>
<path d="M11.8602 7.30937L11.8302 7.3101L11.831 7.33937H11.8602V7.30937ZM11.9982 7.05737V7.02734L11.997 7.0274L11.9982 7.05737ZM12.1302 7.30937V7.33937H12.1595L12.1602 7.31008L12.1302 7.30937ZM11.1102 10.5793H11.0802V10.6093H11.1102V10.5793ZM12.8862 10.5793V10.6093H12.9162V10.5793H12.8862ZM12.8862 10.2493L12.8562 10.2483V10.2493H12.8862ZM13.0542 9.94937L13.0242 9.94537V9.94937H13.0542ZM13.0242 9.68537L13.0495 9.66915L13.012 9.61079L12.9951 9.67809L13.0242 9.68537ZM13.0062 9.04937L13.03 9.03108L12.9858 8.97356L12.9765 9.04553L13.0062 9.04937ZM12.9042 8.91137L12.8764 8.90013L12.8758 8.90188L12.9042 8.91137ZM12.8442 8.59337L12.8661 8.57279L12.8246 8.52881L12.8146 8.58844L12.8442 8.59337ZM12.8311 8.6783L12.8607 8.68367L12.8608 8.68266L12.8311 8.6783ZM12.8311 8.6783L12.8016 8.67293L12.8014 8.67394L12.8311 8.6783ZM12.7422 8.84537L12.7333 8.87537H12.7422V8.84537ZM12.7782 8.49737L12.805 8.51373L12.8072 8.50501L12.7782 8.49737ZM12.7182 8.29337L12.7394 8.27216L12.7042 8.23692L12.6896 8.28455L12.7182 8.29337ZM12.5982 8.44937L12.6069 8.4206L12.6055 8.42027L12.5982 8.44937ZM12.6102 8.04737L12.6314 8.02616L12.602 7.99673L12.5834 8.03395L12.6102 8.04737ZM12.4662 8.07737L12.4368 8.07122L12.4366 8.07244L12.4662 8.07737ZM12.5202 7.81937L12.5496 7.82552L12.5572 7.78937H12.5202V7.81937ZM12.4482 7.81937L12.4185 7.81553L12.4141 7.84937H12.4482V7.81937ZM12.4722 7.63337L12.502 7.63721L12.5064 7.60337H12.4722V7.63337ZM11.5182 7.63337V7.60337H11.4841L11.4885 7.63721L11.5182 7.63337ZM11.5422 7.81937V7.84937H11.5764L11.572 7.81553L11.5422 7.81937ZM11.4762 7.81937V7.78937H11.4403L11.4467 7.82474L11.4762 7.81937ZM11.5242 8.08337L11.5552 8.08595L11.5538 8.078L11.5242 8.08337ZM11.3862 8.04737L11.4128 8.0334L11.3938 7.99736L11.365 8.02616L11.3862 8.04737ZM11.3742 8.24537L11.3519 8.26547L11.353 8.26658L11.3742 8.24537ZM11.3982 8.44937L11.391 8.42023L11.3896 8.42064L11.3982 8.44937ZM11.2782 8.29337L11.307 8.28485L11.2893 8.22499L11.2536 8.27624L11.2782 8.29337ZM11.2182 8.49737L11.1919 8.51176L11.1927 8.51311L11.2182 8.49737ZM11.2542 8.84537V8.87699L11.2637 8.87383L11.2542 8.84537ZM11.1522 8.59337L11.1818 8.58844L11.1721 8.53031L11.1308 8.57234L11.1522 8.59337ZM10.9902 9.04937L11.02 9.04541L11.0104 8.9739L10.9665 9.03108L10.9902 9.04937ZM10.9482 9.40337L10.9733 9.38686L10.9725 9.38573L10.9482 9.40337ZM10.9662 9.68537L10.9952 9.67742L10.976 9.60779L10.9402 9.67049L10.9662 9.68537ZM10.9422 9.94937H10.9725L10.972 9.94541L10.9422 9.94937ZM11.6022 7.62737L11.5723 7.62976L11.5745 7.65737H11.6022V7.62737ZM11.5902 7.47737V7.44737H11.5577L11.5603 7.47976L11.5902 7.47737ZM12.3822 7.62737V7.65737H12.4088L12.412 7.63094L12.3822 7.62737ZM12.4002 7.47737L12.43 7.48094L12.434 7.44737H12.4002V7.47737ZM11.7222 7.31537V7.28537H11.6886L11.6924 7.31881L11.7222 7.31537ZM11.7402 7.47137L11.7104 7.47481L11.7135 7.50137H11.7402V7.47137ZM12.2622 7.31537L12.2922 7.31652L12.2934 7.28537H12.2622V7.31537ZM12.2562 7.47137V7.50137H12.2851L12.2862 7.47252L12.2562 7.47137ZM13.7202 14.0713V14.1013L13.7301 14.043L13.7202 14.0713ZM10.3302 14.0713L10.3203 14.043L10.3302 14.1013V14.0713ZM10.5702 12.3133H10.6002V12.3035L10.5944 12.2956L10.5702 12.3133ZM10.4202 12.1093V12.0793H10.3609L10.3961 12.1271L10.4202 12.1093ZM13.5762 12.1093L13.6001 12.1276L13.6369 12.0793H13.5762V12.1093ZM13.4202 12.3133L13.3964 12.2951L13.3902 12.3032V12.3133H13.4202ZM11.8602 7.30937C11.8902 7.30864 11.8902 7.30865 11.8902 7.30865C11.8902 7.30828 11.8902 7.30726 11.8902 7.30646C11.8902 7.30486 11.8902 7.30244 11.8903 7.29931C11.8904 7.29304 11.8907 7.28397 11.8915 7.27302C11.8931 7.25098 11.8966 7.22203 11.9042 7.19331C11.9119 7.16426 11.9232 7.13758 11.9391 7.11835C11.9542 7.09996 11.9733 7.08844 11.9995 7.08734L11.997 7.0274C11.9512 7.0293 11.917 7.05078 11.8928 7.08021C11.8692 7.10878 11.855 7.14473 11.8462 7.17793C11.8373 7.21146 11.8334 7.24438 11.8316 7.26866C11.8307 7.28087 11.8304 7.29106 11.8303 7.29827C11.8302 7.30187 11.8302 7.30474 11.8302 7.30675V7.3101C11.8302 7.31011 11.8302 7.3101 11.8602 7.30937ZM12.1302 7.27937H11.8602V7.33937H12.1302V7.27937ZM11.9982 7.08737C12.022 7.08737 12.0394 7.09762 12.0536 7.11545C12.0686 7.13428 12.0795 7.16106 12.0869 7.19065C12.0942 7.21984 12.0976 7.24944 12.0991 7.27201C12.0998 7.28323 12.1001 7.29255 12.1002 7.299C12.1003 7.30222 12.1003 7.30472 12.1003 7.30637V7.3082C12.1003 7.30813 12.1002 7.30839 12.1003 7.3082C12.1003 7.30819 12.1002 7.30866 12.1302 7.30937C12.1602 7.31008 12.1602 7.31009 12.1602 7.31008C12.1603 7.30951 12.1603 7.30773 12.1603 7.30671C12.1603 7.30467 12.1603 7.30175 12.1602 7.29808C12.1601 7.29075 12.1598 7.28038 12.1589 7.26798C12.1573 7.24331 12.1535 7.20991 12.1451 7.17609C12.1367 7.14268 12.1232 7.10646 12.1005 7.07804C12.0771 7.04862 12.0435 7.02734 11.9982 7.02734V7.08737ZM11.1402 10.5793V10.2493H11.0802V10.5793H11.1402ZM12.8862 10.5493H11.1102V10.6093H12.8862V10.5493ZM12.8562 10.2493V10.5793H12.9162V10.2493H12.8562ZM12.9613 10.0507C12.917 10.0921 12.8598 10.1448 12.8562 10.2483L12.9162 10.2504C12.919 10.1732 12.9586 10.1354 13.0023 10.0945L12.9613 10.0507ZM13.0242 9.94937C13.0242 9.99004 13.0005 10.014 12.9613 10.0507L13.0023 10.0945C13.0387 10.0604 13.0842 10.0196 13.0842 9.94937H13.0242ZM12.999 9.70159C13.021 9.7358 13.0287 9.79404 13.0295 9.84928C13.0298 9.87589 13.0286 9.90007 13.0272 9.91762C13.0266 9.92637 13.0259 9.93343 13.0253 9.93824C13.0251 9.94065 13.0249 9.94249 13.0247 9.94371C13.0246 9.94432 13.0243 9.94508 13.0242 9.94537C13.0242 9.94537 13.0245 9.94541 13.0542 9.94937C13.084 9.95334 13.084 9.95333 13.084 9.95332C13.084 9.95334 13.084 9.9533 13.084 9.95332C13.084 9.95292 13.0842 9.95168 13.0843 9.95095C13.0844 9.94948 13.0847 9.94738 13.085 9.9447C13.0856 9.93935 13.0863 9.93168 13.0871 9.92225C13.0885 9.90342 13.0899 9.87735 13.0895 9.84847C13.0887 9.7927 13.0815 9.71894 13.0495 9.66915L12.999 9.70159ZM12.8142 9.78137C12.8142 9.81239 12.8233 9.84143 12.8409 9.86243C12.8591 9.88404 12.8863 9.89668 12.917 9.89115C12.9465 9.88585 12.9731 9.86503 12.9954 9.83313C13.0179 9.80095 13.0378 9.75483 13.0533 9.69265L12.9951 9.67809C12.9807 9.73591 12.9631 9.77454 12.9462 9.7988C12.9291 9.82334 12.9145 9.83064 12.9064 9.83209C12.8997 9.83331 12.8932 9.83132 12.8869 9.82387C12.8801 9.81581 12.8742 9.80135 12.8742 9.78137H12.8142ZM12.9729 9.46667C12.9215 9.54205 12.8821 9.59966 12.8558 9.64759C12.8293 9.69587 12.8142 9.73759 12.8142 9.78137H12.8742C12.8742 9.75215 12.8841 9.72087 12.9084 9.67644C12.933 9.63169 12.9703 9.57691 13.0225 9.50051L12.9729 9.46667ZM13.0234 9.39249L12.9729 9.46667L13.0225 9.50051L13.073 9.42625L13.0234 9.39249ZM12.9825 9.06766C13.0076 9.1004 13.0292 9.16609 13.038 9.23538C13.0423 9.26933 13.0432 9.30249 13.0405 9.33083C13.0377 9.35988 13.0314 9.38051 13.0234 9.39249L13.073 9.42625C13.089 9.40223 13.097 9.36961 13.1002 9.3366C13.1035 9.30288 13.1022 9.26516 13.0975 9.22786C13.0882 9.15465 13.0648 9.07634 13.03 9.03108L12.9825 9.06766ZM12.8742 9.34937C12.8996 9.34937 12.9226 9.34237 12.9426 9.32721C12.9619 9.31245 12.9764 9.29145 12.9878 9.2666C13.0101 9.21775 13.024 9.14606 13.036 9.05321L12.9765 9.04553C12.9645 9.13868 12.9513 9.20199 12.9332 9.24164C12.9243 9.26104 12.9151 9.27267 12.9062 9.27947C12.8978 9.28587 12.8879 9.28937 12.8742 9.28937V9.34937ZM12.7542 9.19937C12.7542 9.24857 12.7657 9.28676 12.7887 9.31294C12.8122 9.33968 12.8439 9.34937 12.8742 9.34937V9.28937C12.8566 9.28937 12.8432 9.28406 12.8338 9.2733C12.8238 9.26198 12.8142 9.24017 12.8142 9.19937H12.7542ZM12.8224 9.00671C12.7901 9.05931 12.7542 9.1168 12.7542 9.19937H12.8142C12.8142 9.13569 12.8407 9.09149 12.8735 9.03809L12.8224 9.00671ZM12.8758 8.90188C12.863 8.94034 12.8434 8.97244 12.8224 9.00671L12.8735 9.03809C12.8942 9.00441 12.9174 8.96678 12.9327 8.92086L12.8758 8.90188ZM12.8224 8.61395C12.8947 8.69064 12.9158 8.80237 12.8764 8.90013L12.9321 8.92259C12.9802 8.8031 12.9545 8.66651 12.8661 8.57279L12.8224 8.61395ZM12.8608 8.68266C12.8645 8.65753 12.8686 8.62955 12.8738 8.5983L12.8146 8.58844C12.8093 8.62032 12.8051 8.64884 12.8014 8.67394L12.8608 8.68266ZM12.7422 8.87537C12.762 8.87537 12.7808 8.87159 12.7971 8.8611C12.8134 8.85056 12.8241 8.83532 12.8317 8.81832C12.8458 8.78659 12.8524 8.73963 12.8608 8.68266L12.8014 8.67394C12.7925 8.73507 12.7868 8.77165 12.7769 8.79393C12.7724 8.80393 12.7682 8.80832 12.7646 8.81065C12.7609 8.81303 12.7546 8.81537 12.7422 8.81537V8.87537ZM12.7438 8.4962C12.7204 8.53411 12.6735 8.60973 12.6525 8.68246C12.642 8.71867 12.6366 8.75841 12.6473 8.79391C12.6588 8.83196 12.6874 8.8604 12.7337 8.87413L12.7508 8.81661C12.7216 8.80797 12.7098 8.79318 12.7048 8.77656C12.699 8.7574 12.7009 8.73103 12.7101 8.69912C12.7285 8.6356 12.7707 8.56688 12.7948 8.5277L12.7438 8.4962ZM12.7526 8.48171L12.7438 8.4962L12.7948 8.5277L12.8038 8.51303L12.7526 8.48171ZM12.7182 8.29337C12.697 8.31458 12.697 8.31458 12.697 8.31457C12.6974 8.31506 12.6987 8.31635 12.6997 8.31747C12.7017 8.3197 12.7046 8.32314 12.7082 8.32766C12.7153 8.33674 12.7244 8.34994 12.7328 8.36625C12.7495 8.39906 12.7617 8.44227 12.7492 8.48974L12.8072 8.50501C12.8248 8.43847 12.807 8.37968 12.7862 8.33899C12.7758 8.31855 12.7643 8.30212 12.7555 8.29077C12.751 8.28507 12.7472 8.28058 12.7444 8.27745C12.743 8.27588 12.7418 8.27465 12.741 8.27376C12.7406 8.27332 12.7396 8.27243 12.7394 8.27216C12.7395 8.27225 12.7392 8.27203 12.7394 8.27216C12.7394 8.27216 12.7394 8.27216 12.7182 8.29337ZM12.5896 8.47811C12.6052 8.48278 12.6227 8.48686 12.6401 8.48417C12.6598 8.48114 12.6748 8.47038 12.6866 8.45475C12.6976 8.44027 12.7067 8.42058 12.7157 8.39668C12.7249 8.37237 12.7349 8.34118 12.7469 8.30219L12.6896 8.28455C12.6776 8.32356 12.668 8.35313 12.6596 8.37549C12.651 8.39829 12.6444 8.41122 12.6388 8.41849C12.6342 8.42461 12.632 8.42472 12.631 8.42488C12.6277 8.42538 12.6213 8.42492 12.6069 8.4206L12.5896 8.47811ZM12.601 8.22416C12.5558 8.26939 12.5274 8.32178 12.5219 8.36862C12.5192 8.39222 12.522 8.41619 12.5338 8.43664C12.5459 8.45773 12.5657 8.47217 12.591 8.47847L12.6055 8.42027C12.5947 8.41757 12.5891 8.41251 12.5858 8.40679C12.5822 8.40043 12.5798 8.39027 12.5815 8.37563C12.585 8.34596 12.6047 8.30535 12.6434 8.26658L12.601 8.22416ZM12.589 8.06858C12.6399 8.1195 12.6408 8.18434 12.601 8.22416L12.6434 8.26658C12.7116 8.1984 12.7005 8.09524 12.6314 8.02616L12.589 8.06858ZM12.4366 8.07244C12.4325 8.09701 12.4371 8.12102 12.4522 8.1391C12.4673 8.15731 12.4897 8.16549 12.5127 8.16433C12.558 8.16207 12.6046 8.12572 12.6371 8.06079L12.5834 8.03395C12.5559 8.08902 12.5245 8.10367 12.5097 8.10441C12.5028 8.10476 12.4997 8.10243 12.4983 8.10077C12.4968 8.09897 12.4939 8.09373 12.4958 8.0823L12.4366 8.07244ZM12.4909 7.81322L12.4368 8.07122L12.4956 8.08352L12.5496 7.82552L12.4909 7.81322ZM12.4482 7.84937H12.5202V7.78937H12.4482V7.84937ZM12.4425 7.62953L12.4185 7.81553L12.478 7.82321L12.502 7.63721L12.4425 7.62953ZM11.5182 7.66337H12.4722V7.60337H11.5182V7.66337ZM11.572 7.81553L11.548 7.62953L11.4885 7.63721L11.5125 7.82321L11.572 7.81553ZM11.4762 7.84937H11.5422V7.78937H11.4762V7.84937ZM11.5538 8.078L11.5058 7.814L11.4467 7.82474L11.4947 8.08874L11.5538 8.078ZM11.3597 8.06134C11.3909 8.12057 11.4301 8.15894 11.4712 8.16482C11.4935 8.168 11.5147 8.1611 11.5302 8.1449C11.5449 8.12955 11.5523 8.10834 11.5541 8.08586L11.4943 8.08088C11.4932 8.0944 11.4893 8.10094 11.4869 8.1034C11.4854 8.10502 11.4837 8.10599 11.4797 8.10542C11.4683 8.1038 11.4416 8.08817 11.4128 8.0334L11.3597 8.06134ZM11.3965 8.2253C11.3745 8.20078 11.3657 8.17406 11.3674 8.14832C11.3691 8.12229 11.3817 8.09436 11.4074 8.06858L11.365 8.02616C11.3308 8.06038 11.3103 8.10145 11.3075 8.14442C11.3047 8.18768 11.32 8.22999 11.3519 8.26547L11.3965 8.2253ZM11.4055 8.47847C11.4307 8.47217 11.4506 8.45773 11.4627 8.43664C11.4744 8.41619 11.4773 8.39222 11.4745 8.36862C11.469 8.32178 11.4407 8.26939 11.3954 8.22416L11.353 8.26658C11.3918 8.30535 11.4114 8.34596 11.4149 8.37563C11.4167 8.39027 11.4143 8.40043 11.4106 8.40679C11.4074 8.41251 11.4017 8.41753 11.391 8.42023L11.4055 8.47847ZM11.2495 8.30189C11.2615 8.34242 11.2715 8.37442 11.2807 8.39911C11.2897 8.42331 11.2989 8.44308 11.3101 8.4574C11.3225 8.47314 11.338 8.48305 11.3577 8.48519C11.3746 8.48704 11.3918 8.48261 11.4069 8.47811L11.3896 8.42064C11.3746 8.42513 11.3679 8.42595 11.3642 8.42555C11.3632 8.42544 11.3615 8.4256 11.3573 8.42034C11.3521 8.41366 11.3455 8.40118 11.3369 8.37814C11.3285 8.35557 11.319 8.32532 11.307 8.28485L11.2495 8.30189ZM11.2446 8.483C11.2403 8.47514 11.2385 8.46216 11.242 8.44289C11.2453 8.42414 11.2528 8.40328 11.262 8.38307C11.2712 8.36306 11.2814 8.3448 11.2895 8.33147C11.2935 8.32484 11.2969 8.3195 11.2993 8.31586C11.3005 8.31404 11.3014 8.31265 11.302 8.31174C11.3023 8.31129 11.3026 8.31095 11.3027 8.31074C11.3027 8.31078 11.3028 8.31064 11.3027 8.31074C11.3027 8.31075 11.3029 8.3105 11.2782 8.29337C11.2536 8.27624 11.2536 8.27623 11.2536 8.27624C11.2534 8.27656 11.2527 8.27756 11.2523 8.27813C11.2515 8.27927 11.2504 8.28091 11.2491 8.283C11.2464 8.28716 11.2425 8.29312 11.2381 8.30045C11.2293 8.31506 11.2178 8.33543 11.2074 8.35817C11.1972 8.38071 11.1874 8.40672 11.1829 8.43242C11.1784 8.45758 11.1782 8.48662 11.1919 8.51176L11.2446 8.483ZM11.2541 8.4984L11.2438 8.48163L11.1927 8.51311L11.203 8.52989L11.2541 8.4984ZM11.2637 8.87383C11.3092 8.85866 11.3373 8.82998 11.3488 8.79241C11.3597 8.75706 11.3548 8.71789 11.3446 8.68216C11.3242 8.6106 11.2781 8.5368 11.2541 8.4984L11.203 8.52989C11.2278 8.56964 11.2692 8.63654 11.2869 8.69859C11.2957 8.72966 11.2974 8.75554 11.2915 8.77475C11.2862 8.79175 11.274 8.80715 11.2447 8.81691L11.2637 8.87383ZM11.1357 8.68267C11.144 8.73964 11.1507 8.78659 11.1648 8.81832C11.1723 8.83532 11.1831 8.85056 11.1994 8.8611C11.2157 8.87159 11.2344 8.87537 11.2542 8.87537V8.81537C11.2419 8.81537 11.2356 8.81303 11.2319 8.81065C11.2283 8.80832 11.224 8.80393 11.2196 8.79393C11.2097 8.77165 11.204 8.73507 11.195 8.67394L11.1357 8.68267ZM11.1226 8.5983C11.1279 8.62955 11.132 8.65754 11.1357 8.68267L11.195 8.67394C11.1913 8.64883 11.1871 8.62032 11.1818 8.58844L11.1226 8.5983ZM11.1142 8.9006C11.0762 8.8018 11.0994 8.6899 11.1736 8.6144L11.1308 8.57234C11.0402 8.66463 11.0118 8.80139 11.0582 8.92214L11.1142 8.9006ZM11.1664 8.99954C11.147 8.96762 11.1283 8.93698 11.1142 8.9006L11.0582 8.92214C11.0745 8.96413 11.0959 8.99921 11.1151 9.0307L11.1664 8.99954ZM11.2362 9.19937C11.2362 9.11357 11.2 9.05491 11.1664 8.99954L11.1151 9.0307C11.1491 9.0867 11.1762 9.13224 11.1762 9.19937H11.2362ZM11.1222 9.34937C11.1529 9.34937 11.1836 9.33947 11.2057 9.31186C11.2267 9.28553 11.2362 9.24758 11.2362 9.19937H11.1762C11.1762 9.24117 11.1677 9.26321 11.1588 9.27438C11.1509 9.28427 11.1396 9.28937 11.1222 9.28937V9.34937ZM10.9605 9.05334C10.9725 9.14323 10.9864 9.21474 11.0086 9.26418C11.0199 9.28925 11.0342 9.31073 11.0534 9.32598C11.0732 9.34171 11.0964 9.34937 11.1222 9.34937V9.28937C11.1091 9.28937 11.0993 9.28578 11.0907 9.27901C11.0816 9.27176 11.0723 9.25949 11.0633 9.23956C11.0451 9.199 11.032 9.13551 11.02 9.04541L10.9605 9.05334ZM10.9725 9.38573C10.9652 9.37565 10.9588 9.35651 10.956 9.32822C10.9532 9.3008 10.9542 9.26826 10.9585 9.23467C10.9672 9.16613 10.9888 9.10041 11.014 9.06766L10.9665 9.03108C10.9316 9.07633 10.9082 9.15461 10.899 9.22707C10.8943 9.26398 10.893 9.30119 10.8963 9.33415C10.8994 9.36623 10.9073 9.39809 10.924 9.42102L10.9725 9.38573ZM11.0039 9.43343L10.9733 9.38686L10.9232 9.41987L10.9538 9.46642L11.0039 9.43343ZM11.1762 9.78137C11.1762 9.7355 11.1609 9.69162 11.1326 9.63862C11.1045 9.58599 11.0617 9.52114 11.0039 9.43343L10.9538 9.46642C11.0123 9.55515 11.0532 9.61729 11.0797 9.66689C11.106 9.71612 11.1162 9.74974 11.1162 9.78137H11.1762ZM10.9373 9.69332C10.9544 9.75538 10.9751 9.8013 10.9977 9.83329C11.0201 9.86491 11.0465 9.88579 11.0756 9.89113C11.1063 9.89677 11.1332 9.88378 11.1507 9.86198C11.1677 9.84093 11.1762 9.81203 11.1762 9.78137H11.1162C11.1162 9.80171 11.1105 9.81631 11.104 9.82432C11.0982 9.83158 11.0924 9.83322 11.0864 9.83211C11.0787 9.8307 11.0643 9.82346 11.0467 9.79863C11.0294 9.77419 11.0111 9.73536 10.9952 9.67742L10.9373 9.69332ZM10.9422 9.94937C10.972 9.94541 10.972 9.94541 10.972 9.94541C10.972 9.94512 10.9718 9.94429 10.9718 9.94368C10.9716 9.94245 10.9714 9.94059 10.9711 9.93817C10.9706 9.93333 10.9699 9.92625 10.9691 9.91747C10.9677 9.89986 10.9662 9.87559 10.9662 9.84887C10.9662 9.82207 10.9677 9.79336 10.9719 9.76671C10.9761 9.73972 10.9828 9.71676 10.9923 9.70025L10.9402 9.67049C10.9256 9.69598 10.9174 9.72702 10.9126 9.75741C10.9078 9.78814 10.9062 9.82017 10.9062 9.84887C10.9062 9.87765 10.9078 9.90363 10.9093 9.9224C10.9101 9.9318 10.9109 9.93944 10.9115 9.94477C10.9118 9.94744 10.912 9.94953 10.9122 9.95098C10.9123 9.9517 10.9124 9.95227 10.9124 9.95266C10.9124 9.95255 10.9124 9.95286 10.9124 9.95266C10.9124 9.95267 10.9125 9.95334 10.9422 9.94937ZM11.036 10.0495C10.9962 10.013 10.9725 9.98926 10.9725 9.94937H10.9122C10.9122 10.0194 10.9588 10.0602 10.9954 10.0937L11.036 10.0495ZM11.1402 10.2493C11.1402 10.1442 11.0813 10.0911 11.036 10.0495L10.9954 10.0937C11.0404 10.135 11.0802 10.1723 11.0802 10.2493H11.1402ZM11.6321 7.62498L11.6201 7.47498L11.5603 7.47976L11.5723 7.62976L11.6321 7.62498ZM12.3822 7.59737H11.6022V7.65737H12.3822V7.59737ZM12.3704 7.4738L12.3524 7.6238L12.412 7.63094L12.43 7.48094L12.3704 7.4738ZM11.5902 7.50737H12.4002V7.44737H11.5902V7.50737ZM11.6924 7.31881L11.7104 7.47481L11.77 7.46793L11.752 7.31193L11.6924 7.31881ZM12.2622 7.28537H11.7222V7.34537H12.2622V7.28537ZM12.2862 7.47252L12.2922 7.31652L12.2323 7.31422L12.2263 7.47022L12.2862 7.47252ZM11.7402 7.50137H12.2562V7.44137H11.7402V7.50137ZM13.7301 14.043C13.6741 14.0234 13.6025 13.982 13.5453 13.9305C13.4868 13.8779 13.4502 13.821 13.4502 13.7713H13.3902C13.3902 13.8476 13.4436 13.9197 13.5052 13.9751C13.5679 14.0316 13.6464 14.0773 13.7103 14.0996L13.7301 14.043ZM10.3302 14.1013H13.7202V14.0413H10.3302V14.1013ZM10.5402 13.7713C10.5402 13.8251 10.5143 13.883 10.4722 13.9336C10.4302 13.984 10.3745 14.024 10.3203 14.043L10.3401 14.0996C10.4059 14.0766 10.4703 14.0296 10.5183 13.972C10.5661 13.9146 10.6002 13.8435 10.6002 13.7713H10.5402ZM10.5402 12.3133V13.7713H10.6002V12.3133H10.5402ZM10.3961 12.1271L10.5461 12.3311L10.5944 12.2956L10.4444 12.0916L10.3961 12.1271ZM13.5762 12.0793H10.4202V12.1393H13.5762V12.0793ZM13.4441 12.3316L13.6001 12.1276L13.5524 12.0911L13.3964 12.2951L13.4441 12.3316ZM13.4502 13.7713V12.3133H13.3902V13.7713H13.4502Z" fill="black"/>
<path fill-rule="evenodd" clip-rule="evenodd" d="M11.1887 12.7568H10.9727V13.7468H11.1887V12.7568ZM13.0127 12.7568H12.7967V13.7468H13.0127V12.7568Z" fill="white"/>
<path d="M10.9714 12.7556V12.7256L10.9414 12.7556H10.9714ZM11.1874 12.7556H11.2174L11.1874 12.7256V12.7556ZM10.9714 13.7456H10.9414L10.9714 13.7756V13.7456ZM11.1874 13.7456V13.7756L11.2174 13.7456H11.1874ZM12.7954 12.7556V12.7256L12.7654 12.7556H12.7954ZM13.0114 12.7556H13.0414L13.0114 12.7256V12.7556ZM12.7954 13.7456H12.7654L12.7954 13.7756V13.7456ZM13.0114 13.7456V13.7756L13.0414 13.7456H13.0114ZM10.9714 12.7856H11.1874V12.7256H10.9714V12.7856ZM11.0014 13.7456V12.7556H10.9414V13.7456H11.0014ZM11.1874 13.7156H10.9714V13.7756H11.1874V13.7156ZM11.1574 12.7556V13.7456H11.2174V12.7556H11.1574ZM12.7954 12.7856H13.0114V12.7256H12.7954V12.7856ZM12.8254 13.7456V12.7556H12.7654V13.7456H12.8254ZM13.0114 13.7156H12.7954V13.7756H13.0114V13.7156ZM12.9814 12.7556V13.7456H13.0414V12.7556H12.9814Z" fill="black"/>
<path d="M10.3595 10.4521V12.1081H13.5995V10.4521C13.5236 10.4799 13.4655 10.5423 13.4435 10.6201V11.3281H10.5215V10.6201C10.5215 10.6201 10.4855 10.5001 10.3535 10.4521H10.3595Z" fill="white" stroke="black" stroke-width="0.0806556"/>
<path d="M13.1571 14.0706C13.0491 14.0286 12.8211 13.8966 12.8211 13.7706V12.1386C12.8451 12.0486 12.9651 11.9946 13.0431 11.9346H10.9011C11.0031 11.9946 11.1171 12.0366 11.1591 12.1386V13.7706C11.1591 13.8966 10.9791 14.0286 10.8711 14.0706H13.1571Z" fill="white" stroke="black" stroke-width="0.0806556"/>
<path fill-rule="evenodd" clip-rule="evenodd" d="M13.4435 10.7761V11.9521H10.5215V10.7821H10.8215V10.6621H13.1495V10.7761H13.4435ZM12.4415 13.7701C12.4415 13.8961 12.5915 14.0281 12.6995 14.0701H11.2955C11.3975 14.0281 11.5535 13.8961 11.5535 13.7701V12.3721L11.4635 12.2521H12.5255L12.4415 12.3781V13.7701Z" fill="white"/>
<path d="M13.4442 11.9509V11.9809H13.4742V11.9509H13.4442ZM13.4442 10.7749H13.4742V10.7449H13.4442V10.7749ZM10.5222 11.9509H10.4922V11.9809H10.5222V11.9509ZM10.5222 10.7809V10.7509H10.4922V10.7809H10.5222ZM10.8222 10.7809V10.8109H10.8522V10.7809H10.8222ZM10.8222 10.6609V10.6309H10.7922V10.6609H10.8222ZM13.1502 10.6609H13.1802V10.6309H13.1502V10.6609ZM13.1502 10.7749H13.1202V10.8049H13.1502V10.7749ZM12.7002 14.0689V14.0989L12.711 14.0409L12.7002 14.0689ZM11.2962 14.0689L11.2848 14.0411L11.2962 14.0989V14.0689ZM11.5542 12.3709H11.5842V12.3609L11.5782 12.3529L11.5542 12.3709ZM11.4642 12.2509V12.2209H11.4042L11.4402 12.2689L11.4642 12.2509ZM12.5262 12.2509L12.5511 12.2675L12.5822 12.2209H12.5262V12.2509ZM12.4422 12.3769L12.4172 12.3602L12.4122 12.3678V12.3769H12.4422ZM13.4742 11.9509V10.7749H13.4142V11.9509H13.4742ZM10.5222 11.9809H13.4442V11.9209H10.5222V11.9809ZM10.4922 10.7809V11.9509H10.5522V10.7809H10.4922ZM10.8222 10.7509H10.5222V10.8109H10.8222V10.7509ZM10.7922 10.6609V10.7809H10.8522V10.6609H10.7922ZM13.1502 10.6309H10.8222V10.6909H13.1502V10.6309ZM13.1802 10.7749V10.6609H13.1202V10.7749H13.1802ZM13.4442 10.7449H13.1502V10.8049H13.4442V10.7449ZM12.711 14.0409C12.6617 14.0217 12.6008 13.981 12.5525 13.9298C12.5036 13.878 12.4722 13.8206 12.4722 13.7689H12.4122C12.4122 13.8431 12.4557 13.9147 12.5089 13.971C12.5625 14.0278 12.6307 14.074 12.6893 14.0968L12.711 14.0409ZM11.2962 14.0989H12.7002V14.0389H11.2962V14.0989ZM11.5242 13.7689C11.5242 13.8203 11.4916 13.8776 11.4418 13.9296C11.3926 13.981 11.3315 14.0219 11.2848 14.0411L11.3076 14.0966C11.3629 14.0739 11.4308 14.0278 11.4851 13.9711C11.5387 13.9152 11.5842 13.8435 11.5842 13.7689H11.5242ZM11.5242 12.3709V13.7689H11.5842V12.3709H11.5242ZM11.4402 12.2689L11.5302 12.3889L11.5782 12.3529L11.4882 12.2329L11.4402 12.2689ZM12.5262 12.2209H11.4642V12.2809H12.5262V12.2209ZM12.4671 12.3935L12.5511 12.2675L12.5012 12.2342L12.4172 12.3602L12.4671 12.3935ZM12.4722 13.7689V12.3769H12.4122V13.7689H12.4722Z" fill="black"/>
<path d="M11.7227 12.251H12.2627V14.069H11.7227V12.251Z" fill="white" stroke="black" stroke-width="0.0806556"/>
<path d="M12.5441 11.851C12.5441 11.731 12.8921 11.725 13.0721 11.623H10.9121C11.0921 11.725 11.4341 11.731 11.4341 11.851L11.5061 12.085L12.4061 12.121L12.5441 11.851Z" fill="white" stroke="black" stroke-width="0.0806556" stroke-linejoin="bevel"/>
<path fill-rule="evenodd" clip-rule="evenodd" d="M13.36 10.0859C13.36 10.0859 13.066 10.1219 13.066 10.4579V10.1759C12.976 10.1759 12.964 10.2839 12.964 10.5779L11.026 10.5719C11.026 10.2899 11.026 10.1699 10.918 10.1699V11.0999C11.14 11.1839 11.296 11.4599 11.296 11.4599H12.688C12.688 11.4599 12.844 11.1839 13.066 11.0999V11.6279H13.282V10.7759C13.282 10.7759 13.192 10.7759 13.192 10.6259C13.192 10.4819 13.246 10.3799 13.36 10.3859V10.0859Z" fill="white"/>
<path d="M13.3607 10.0857H13.3907V10.0518L13.357 10.0559L13.3607 10.0857ZM13.0667 10.1757H13.0967V10.1457H13.0667V10.1757ZM12.9647 10.5777L12.9646 10.6077L12.9947 10.6078V10.5777H12.9647ZM11.0267 10.5717H10.9967V10.6016L11.0266 10.6017L11.0267 10.5717ZM10.9187 10.1697V10.1397H10.8887V10.1697H10.9187ZM10.9187 11.0997H10.8887V11.1204L10.9081 11.1277L10.9187 11.0997ZM11.2967 11.4597L11.2706 11.4744L11.2792 11.4897H11.2967V11.4597ZM12.6887 11.4597V11.4897H12.7062L12.7148 11.4744L12.6887 11.4597ZM13.0667 11.0997H13.0967V11.0562L13.0561 11.0716L13.0667 11.0997ZM13.0667 11.6277H13.0367V11.6577H13.0667V11.6277ZM13.2827 11.6277V11.6577H13.3127V11.6277H13.2827ZM13.2827 10.7757H13.3127V10.7457H13.2827V10.7757ZM13.3607 10.3857L13.3591 10.4156L13.3907 10.4173V10.3857H13.3607ZM13.0967 10.4577C13.0967 10.3002 13.1647 10.2161 13.2308 10.1703C13.2644 10.147 13.2982 10.1331 13.3237 10.1252C13.3364 10.1212 13.3469 10.1187 13.354 10.1173C13.3576 10.1165 13.3604 10.116 13.3621 10.1158C13.363 10.1156 13.3636 10.1155 13.364 10.1155C13.3639 10.1155 13.3642 10.1155 13.364 10.1155C13.364 10.1155 13.3643 10.1154 13.3607 10.0857C13.357 10.0559 13.357 10.0559 13.357 10.0559C13.3568 10.056 13.356 10.056 13.3556 10.0561C13.3549 10.0562 13.3539 10.0563 13.3526 10.0565C13.3501 10.0569 13.3465 10.0576 13.342 10.0585C13.3331 10.0603 13.3206 10.0632 13.3058 10.0679C13.2761 10.0772 13.2364 10.0934 13.1966 10.121C13.1156 10.1772 13.0367 10.2791 13.0367 10.4577H13.0967ZM13.0367 10.1757V10.4577H13.0967V10.1757H13.0367ZM12.9947 10.5777C12.9947 10.4297 12.9978 10.3328 13.0112 10.273C13.0179 10.2432 13.0262 10.2266 13.0347 10.2176C13.0418 10.21 13.051 10.2057 13.0667 10.2057V10.1457C13.0374 10.1457 13.0113 10.1548 12.9909 10.1766C12.9717 10.1971 12.9602 10.2259 12.9526 10.2599C12.9375 10.3275 12.9347 10.4316 12.9347 10.5777H12.9947ZM11.0266 10.6017L12.9646 10.6077L12.9648 10.5477L11.0268 10.5417L11.0266 10.6017ZM10.9187 10.1997C10.9396 10.1997 10.9513 10.2052 10.9596 10.2137C10.9689 10.2234 10.9775 10.2406 10.9838 10.271C10.9965 10.3324 10.9967 10.429 10.9967 10.5717H11.0567C11.0567 10.4323 11.0568 10.3279 11.0425 10.2588C11.0353 10.224 11.0236 10.1936 11.0026 10.1719C10.9805 10.1491 10.9517 10.1397 10.9187 10.1397V10.1997ZM10.9487 11.0997V10.1697H10.8887V11.0997H10.9487ZM11.2967 11.4597C11.3228 11.4449 11.3228 11.4449 11.3228 11.4449C11.3229 11.445 11.3228 11.4448 11.3228 11.4449C11.3227 11.4447 11.3224 11.4442 11.3222 11.4439C11.3219 11.4433 11.3214 11.4425 11.3207 11.4414C11.3195 11.4392 11.3176 11.436 11.3151 11.432C11.3103 11.424 11.3031 11.4126 11.2938 11.3986C11.2752 11.3707 11.2481 11.3327 11.2139 11.2919C11.146 11.211 11.0475 11.1163 10.9293 11.0716L10.9081 11.1277C11.0119 11.167 11.1024 11.2523 11.1679 11.3305C11.2004 11.3692 11.2262 11.4054 11.2439 11.4318C11.2527 11.4451 11.2594 11.4558 11.2639 11.4632C11.2662 11.4669 11.2679 11.4698 11.269 11.4717C11.2695 11.4727 11.2703 11.474 11.2706 11.4744C11.2707 11.4744 11.2706 11.4744 11.2967 11.4597ZM12.6887 11.4297H11.2967V11.4897H12.6887V11.4297ZM13.0561 11.0716C12.9379 11.1163 12.8394 11.211 12.7714 11.2919C12.7372 11.3327 12.7101 11.3707 12.6915 11.3986C12.6822 11.4126 12.6751 11.424 12.6702 11.432C12.6677 11.436 12.6659 11.4392 12.6646 11.4414C12.664 11.4425 12.6635 11.4433 12.6631 11.4439C12.6632 11.4437 12.6629 11.4442 12.6631 11.4439C12.6631 11.444 12.6626 11.4447 12.6626 11.4448C12.6626 11.4448 12.6626 11.4449 12.6887 11.4597C12.7148 11.4744 12.7148 11.4744 12.7148 11.4744C12.7147 11.4747 12.7149 11.4743 12.7148 11.4744C12.7151 11.474 12.7158 11.4727 12.7164 11.4717C12.7175 11.4698 12.7192 11.4669 12.7214 11.4632C12.7259 11.4558 12.7327 11.4451 12.7415 11.4318C12.7591 11.4054 12.7849 11.3692 12.8174 11.3305C12.883 11.2523 12.9735 11.167 13.0773 11.1277L13.0561 11.0716ZM13.0967 11.6277V11.0997H13.0367V11.6277H13.0967ZM13.2827 11.5977H13.0667V11.6577H13.2827V11.5977ZM13.2527 10.7757V11.6277H13.3127V10.7757H13.2527ZM13.1627 10.6257C13.1627 10.7069 13.1873 10.754 13.2185 10.78C13.2336 10.7925 13.2488 10.799 13.2606 10.8022C13.2664 10.8039 13.2715 10.8047 13.2753 10.8052C13.2772 10.8054 13.2787 10.8055 13.28 10.8056H13.2816C13.2814 10.8056 13.2818 10.8057 13.2816 10.8056L13.2826 10.8057C13.2826 10.8057 13.2827 10.8057 13.2827 10.7757C13.2827 10.7457 13.2827 10.7457 13.2827 10.7457C13.2828 10.7457 13.2828 10.7457 13.2827 10.7457C13.2816 10.7455 13.2792 10.7451 13.2766 10.7444C13.2715 10.743 13.2643 10.74 13.2569 10.7339C13.243 10.7223 13.2227 10.6945 13.2227 10.6257H13.1627ZM13.3622 10.3557C13.2942 10.3521 13.2421 10.3817 13.2088 10.4331C13.1766 10.4826 13.1627 10.5507 13.1627 10.6257H13.2227C13.2227 10.5566 13.2357 10.5017 13.2591 10.4657C13.2812 10.4317 13.3132 10.4132 13.3591 10.4156L13.3622 10.3557ZM13.3307 10.0857V10.3857H13.3907V10.0857H13.3307Z" fill="black"/>
<path d="M10.917 10.4579C10.917 10.1219 10.623 10.0859 10.623 10.0859V10.3859C10.737 10.3799 10.791 10.4819 10.791 10.6259C10.791 10.7759 10.701 10.7759 10.701 10.7759V11.6279H10.917V10.4579Z" fill="white" stroke="black" stroke-width="0.0806556"/>
<path d="M11.4881 8.18598H12.5201V8.12598H11.4881V8.18598ZM11.3681 8.50998H12.6281V8.44998H11.3681V8.50998ZM11.2481 8.89998H12.7421V8.83998H11.2481V8.89998ZM11.1221 9.37398H12.8921V9.31398H11.1221V9.37398ZM11.0801 9.91398H12.9041V9.85398H11.0801V9.91398Z" fill="black"/>
<path d="M11.4513 11.6413V11.6113H11.4213V11.6413H11.4513ZM12.5313 11.6413H12.5613V11.6113H12.5313V11.6413ZM12.5313 12.0373V12.0673H12.5613V12.0373H12.5313ZM11.4513 12.0373H11.4213V12.0673H11.4513V12.0373ZM10.5273 11.6913H13.4433V11.6313H10.5273V11.6913ZM13.4433 11.6313H10.5273V11.6913H13.4433V11.6313ZM11.4513 11.6713H12.5313V11.6113H11.4513V11.6713ZM12.5013 11.6413V12.0373H12.5613V11.6413H12.5013ZM12.5313 12.0073H11.4513V12.0673H12.5313V12.0073ZM11.4813 12.0373V11.6413H11.4213V12.0373H11.4813Z" fill="black"/>
<path fill-rule="evenodd" clip-rule="evenodd" d="M11.7564 8.21434L11.9004 8.29234L12.1044 8.28634L12.2424 8.21434V8.00434C12.2351 8.00676 12.2275 8.00896 12.2198 8.0112C12.1703 8.02558 12.1164 8.04125 12.1164 8.12434C12.0977 8.01686 12.0753 8.00037 12.038 7.97282C12.0274 7.965 12.0156 7.95628 12.0024 7.94434C11.9886 7.95809 11.9756 7.96756 11.9636 7.97632C11.9285 8.00196 11.9018 8.02148 11.8884 8.12434C11.8776 8.03832 11.8283 8.02456 11.775 8.00968C11.7688 8.00795 11.7626 8.00621 11.7564 8.00434V8.21434ZM11.4749 11.4815C11.4771 11.2628 11.4804 10.9468 11.3184 10.7524H12.6744C12.5123 10.9468 12.5156 11.2628 12.5179 11.4815C12.5181 11.5058 12.5184 11.5288 12.5184 11.5504H11.4744C11.4744 11.5288 11.4746 11.5058 11.4749 11.4815Z" fill="white"/>
<path d="M11.902 8.29168L11.8877 8.31806L11.8948 8.3219L11.9029 8.32167L11.902 8.29168ZM11.758 8.21368H11.728V8.23155L11.7437 8.24006L11.758 8.21368ZM12.106 8.28568L12.1069 8.31901L12.1198 8.31228L12.106 8.28568ZM12.244 8.21368L12.2578 8.24028L12.274 8.23187V8.21368H12.244ZM12.244 8.00368H12.274V7.96206L12.2345 7.97522L12.244 8.00368ZM12.118 8.12368L12.0884 8.12882L12.148 8.12368H12.118ZM12.004 7.94368L12.024 7.92138L12.0029 7.90234L11.9828 7.92247L12.004 7.94368ZM11.89 8.12368L11.8602 8.1274L11.9197 8.12756L11.89 8.12368ZM11.758 8.00368L11.7666 7.97494L11.728 7.96336V8.00368H11.758ZM11.32 10.7517V10.7217H11.2559L11.2969 10.7709L11.32 10.7517ZM12.676 10.7517L12.699 10.7709L12.74 10.7217H12.676V10.7517ZM12.52 11.5497V11.5797H12.55V11.5497H12.52ZM11.476 11.5497H11.446V11.5797H11.476V11.5497ZM11.9163 8.2653L11.7723 8.1873L11.7437 8.24006L11.8877 8.31806L11.9163 8.2653ZM12.1051 8.25569L11.9011 8.26169L11.9029 8.32167L12.1069 8.31567L12.1051 8.25569ZM12.2301 8.18708L12.0921 8.25908L12.1198 8.31228L12.2578 8.24028L12.2301 8.18708ZM12.214 8.00368V8.21368H12.274V8.00368H12.214ZM12.2298 8.03935C12.2374 8.03714 12.2455 8.03478 12.2535 8.03214L12.2345 7.97522C12.2279 7.97742 12.2209 7.97946 12.2131 7.98173L12.2298 8.03935ZM12.148 8.12368C12.148 8.08969 12.1585 8.07411 12.1701 8.06456C12.1842 8.05303 12.2038 8.04691 12.2298 8.03935L12.2131 7.98173C12.1896 7.98855 12.1574 7.99745 12.1321 8.01813C12.1044 8.04078 12.088 8.07458 12.088 8.12368H12.148ZM12.0218 7.99629C12.0406 8.01018 12.0509 8.01809 12.06 8.03336C12.0698 8.04957 12.0793 8.07618 12.0884 8.12882L12.1475 8.11854C12.138 8.0637 12.127 8.02832 12.1115 8.00253C12.0955 7.9758 12.076 7.96168 12.0575 7.94802L12.0218 7.99629ZM11.9839 7.96598C11.9984 7.97899 12.0112 7.98846 12.0218 7.99629L12.0575 7.94802C12.0469 7.94021 12.0361 7.93225 12.024 7.92138L11.9839 7.96598ZM11.9829 7.99989C11.9949 7.99114 12.0096 7.98046 12.0252 7.96489L11.9828 7.92247C11.9708 7.9344 11.9596 7.94267 11.9476 7.95143L11.9829 7.99989ZM11.9197 8.12756C11.9262 8.07799 11.9355 8.05213 11.9451 8.03632C11.9544 8.02104 11.9652 8.01281 11.9829 7.99989L11.9476 7.95143C11.9301 7.96415 11.91 7.9785 11.8938 8.00511C11.878 8.03118 11.8672 8.06651 11.8602 8.1198L11.9197 8.12756ZM11.7686 8.03792C11.7965 8.0457 11.8159 8.05156 11.8307 8.06322C11.8435 8.07335 11.8556 8.09038 11.8602 8.1274L11.9197 8.11996C11.9136 8.07096 11.8957 8.0381 11.8678 8.01613C11.842 7.99568 11.8101 7.98722 11.7847 7.98013L11.7686 8.03792ZM11.7493 8.03241C11.7559 8.03438 11.7624 8.0362 11.7686 8.03792L11.7847 7.98013C11.7785 7.97839 11.7725 7.97672 11.7666 7.97494L11.7493 8.03241ZM11.788 8.21368V8.00368H11.728V8.21368H11.788ZM11.2969 10.7709C11.3729 10.862 11.4114 10.9834 11.4301 11.1115C11.4489 11.2395 11.4476 11.3708 11.4465 11.4805L11.5065 11.4811C11.5076 11.3721 11.5091 11.2361 11.4895 11.1028C11.47 10.9696 11.4291 10.8357 11.343 10.7325L11.2969 10.7709ZM12.676 10.7217H11.32V10.7817H12.676V10.7217ZM12.5495 11.4805C12.5483 11.3708 12.547 11.2395 12.5658 11.1115C12.5846 10.9834 12.623 10.862 12.699 10.7709L12.6529 10.7325C12.5669 10.8357 12.5259 10.9696 12.5064 11.1028C12.4869 11.2361 12.4883 11.3721 12.4895 11.4811L12.5495 11.4805ZM12.55 11.5497C12.55 11.5279 12.5497 11.5047 12.5495 11.4805L12.4895 11.4811C12.4897 11.5054 12.49 11.5283 12.49 11.5497H12.55ZM11.476 11.5797H12.52V11.5197H11.476V11.5797ZM11.4465 11.4805C11.4462 11.5047 11.446 11.5279 11.446 11.5497H11.506C11.506 11.5283 11.5062 11.5054 11.5065 11.4811L11.4465 11.4805Z" fill="black"/>
<path d="M11.8904 8.63388L11.6504 8.46588V8.27988C11.7404 8.29788 11.8304 8.30988 11.8424 8.41188C11.8664 8.26188 11.9204 8.18988 12.0044 8.12988C12.0824 8.18988 12.1364 8.26188 12.1664 8.41188C12.1724 8.30988 12.2684 8.29788 12.3464 8.27988V8.47188L12.1124 8.63388H11.8904Z" fill="white" stroke="black" stroke-width="0.0806556"/>
<path fill-rule="evenodd" clip-rule="evenodd" d="M11.8728 9.1688L11.6028 8.9288V8.6468L11.6273 8.65272C11.7163 8.67382 11.8078 8.69548 11.8188 8.8328C11.8488 8.6228 11.9088 8.5088 11.9988 8.4248C12.0948 8.5088 12.1548 8.6228 12.1908 8.8328C12.2018 8.69548 12.2932 8.67382 12.3822 8.65272L12.4068 8.6468V8.9288L12.1308 9.1688H11.8728ZM12.3768 9.4868L12.1368 9.8288H11.8548L11.6088 9.4868H12.3768ZM11.6448 10.5128C11.6328 10.2608 11.5848 10.1228 11.4648 10.0568H12.5208C12.4008 10.1228 12.3528 10.2608 12.3408 10.5128H11.6448Z" fill="white"/>
<path d="M11.6017 8.92724H11.5717V8.94071L11.5817 8.94966L11.6017 8.92724ZM11.8717 9.16724L11.8517 9.18966L11.8603 9.19724H11.8717V9.16724ZM11.6017 8.64524L11.6087 8.61608L11.5717 8.60714V8.64524H11.6017ZM11.8177 8.83124L11.7878 8.83363L11.8474 8.83548L11.8177 8.83124ZM11.9977 8.42324L12.0174 8.40066L11.997 8.38281L11.9772 8.40131L11.9977 8.42324ZM12.1897 8.83124L12.1601 8.83631L12.2196 8.83363L12.1897 8.83124ZM12.4057 8.64524H12.4357V8.60714L12.3986 8.61608L12.4057 8.64524ZM12.4057 8.92724L12.4254 8.94988L12.4357 8.94091V8.92724H12.4057ZM12.1297 9.16724V9.19724H12.1409L12.1494 9.18988L12.1297 9.16724ZM12.1357 9.82724V9.85724H12.1513L12.1602 9.84448L12.1357 9.82724ZM12.3757 9.48524L12.4002 9.50248L12.4334 9.45524H12.3757V9.48524ZM11.8537 9.82724L11.8293 9.84476L11.8383 9.85724H11.8537V9.82724ZM11.6077 9.48524V9.45524H11.5491L11.5833 9.50276L11.6077 9.48524ZM11.4637 10.0553V10.0253L11.4492 10.0816L11.4637 10.0553ZM11.6437 10.5113L11.6137 10.5127L11.6151 10.5413H11.6437V10.5113ZM12.5197 10.0553L12.5341 10.0816L12.5197 10.0253V10.0553ZM12.3397 10.5113V10.5413H12.3683L12.3696 10.5127L12.3397 10.5113ZM11.5817 8.94966L11.8517 9.18966L11.8916 9.14482L11.6216 8.90482L11.5817 8.94966ZM11.5717 8.64524V8.92724H11.6317V8.64524H11.5717ZM11.6332 8.622L11.6087 8.61608L11.5946 8.67441L11.6192 8.68033L11.6332 8.622ZM11.8476 8.82885C11.8415 8.7526 11.8122 8.70423 11.7686 8.67319C11.7276 8.64394 11.6764 8.63224 11.6332 8.622L11.6192 8.68033C11.665 8.69119 11.7041 8.70086 11.7338 8.72204C11.761 8.74144 11.7829 8.77256 11.7878 8.83363L11.8476 8.82885ZM11.9772 8.40131C11.8808 8.49132 11.8186 8.61247 11.788 8.827L11.8474 8.83548C11.8767 8.63002 11.9346 8.52316 12.0181 8.44517L11.9772 8.40131ZM12.2192 8.82617C12.1825 8.61216 12.1204 8.49076 12.0174 8.40066L11.9779 8.44582C12.0669 8.52372 12.1248 8.63033 12.1601 8.83631L12.2192 8.82617ZM12.3742 8.62197C12.331 8.63221 12.2797 8.64394 12.2387 8.67319C12.1952 8.70423 12.1659 8.7526 12.1598 8.82885L12.2196 8.83363C12.2245 8.77256 12.2463 8.74144 12.2735 8.72204C12.3033 8.70086 12.3422 8.69121 12.388 8.68035L12.3742 8.62197ZM12.3986 8.61608L12.3742 8.62197L12.388 8.68035L12.4127 8.67441L12.3986 8.61608ZM12.4357 8.92724V8.64524H12.3757V8.92724H12.4357ZM12.1494 9.18988L12.4254 8.94988L12.386 8.9046L12.11 9.1446L12.1494 9.18988ZM11.8717 9.19724H12.1297V9.13724H11.8717V9.19724ZM12.1602 9.84448L12.4002 9.50248L12.3511 9.46801L12.1111 9.81001L12.1602 9.84448ZM11.8537 9.85724H12.1357V9.79724H11.8537V9.85724ZM11.5833 9.50276L11.8293 9.84476L11.878 9.80972L11.632 9.46772L11.5833 9.50276ZM12.3757 9.45524H11.6077V9.51524H12.3757V9.45524ZM11.4492 10.0816C11.5537 10.1391 11.6017 10.2609 11.6137 10.5127L11.6736 10.5098C11.6616 10.2576 11.6136 10.1035 11.4781 10.029L11.4492 10.0816ZM12.5197 10.0253H11.4637V10.0853H12.5197V10.0253ZM12.3696 10.5127C12.3816 10.2609 12.4296 10.1391 12.5341 10.0816L12.5052 10.029C12.3697 10.1035 12.3217 10.2576 12.3097 10.5098L12.3696 10.5127ZM11.6437 10.5413H12.3397V10.4813H11.6437V10.5413Z" fill="black"/>
<path d="M12.5312 9.48003V9.14403C12.4262 9.16641 12.3401 9.2412 12.3032 9.34203C12.3032 9.22203 12.1532 8.96403 11.9912 8.83203C11.8292 8.97603 11.6732 9.21603 11.6792 9.33603C11.6492 9.24603 11.5712 9.17403 11.4512 9.14403V9.48603L12.5312 9.48003Z" fill="white" stroke="black" stroke-width="0.0806556" stroke-linejoin="bevel"/>
<path d="M12.5803 10.0562V9.7202C12.4543 9.7562 12.3703 9.8222 12.3343 9.9182C12.3343 9.7982 12.1723 9.5402 11.9923 9.4082C11.8123 9.5582 11.6443 9.7922 11.6503 9.9182C11.6203 9.8282 11.5303 9.7562 11.4043 9.7202V10.0622L12.5803 10.0562Z" fill="white" stroke="black" stroke-width="0.0806556" stroke-linejoin="bevel"/>
<path d="M12.7239 10.7582V10.3622C12.599 10.4012 12.491 10.4816 12.4179 10.5902C12.4179 10.3802 12.1779 10.0502 11.9919 9.94824C11.7999 10.0562 11.5659 10.3922 11.5659 10.5902C11.4909 10.4809 11.3808 10.4004 11.2539 10.3622V10.7582H12.7239Z" fill="white" stroke="black" stroke-width="0.0806556" stroke-linejoin="bevel"/>
<path d="M12.6397 11.6399V11.2319C12.4957 11.2859 12.4598 11.4179 12.4118 11.5139C12.4298 11.0999 12.1837 10.6619 11.9917 10.5479C11.7997 10.6619 11.5477 11.1119 11.5717 11.5079C11.5237 11.4239 11.4817 11.2859 11.3438 11.2319V11.6339L12.6397 11.6399Z" fill="white" stroke="black" stroke-width="0.0806556" stroke-linejoin="bevel"/>
<path d="M12.5415 12.2507V11.8427C12.3915 11.8787 12.3855 11.9327 12.3375 12.0227C12.3555 11.7767 12.1815 11.4947 11.9895 11.3867C11.7975 11.4947 11.6295 11.7767 11.6415 12.0227C11.5935 11.9327 11.5875 11.8787 11.4375 11.8427V12.2507H12.5415Z" fill="white" stroke="black" stroke-width="0.0806556"/>
<path d="M6.22126 13.752V12.528C6.17926 12.372 6.04126 12.228 5.94531 12.204V11.124L6.16726 11.244L6.42526 12.378V13.758L6.22126 13.752Z" fill="white" stroke="black" stroke-width="0.0806556"/>
<path d="M6.22126 13.7568V12.5268C6.17926 12.3708 6.04126 12.2268 5.94531 12.2028V11.0508C6.09526 11.0508 6.16726 11.2428 6.16726 11.2428L6.42526 12.3768V13.7508L6.22126 13.7568Z" fill="white" stroke="black" stroke-width="0.0806556"/>
<path d="M6.05859 14.0703C6.16059 14.0283 6.31059 13.8963 6.31059 13.7703V12.2343L6.23859 12.1143H8.86059L8.75859 12.2343V13.7703C8.76749 13.8998 8.84549 14.0144 8.96259 14.0703H6.05859Z" fill="white" stroke="black" stroke-width="0.0806556"/>
<path d="M8.43003 14.0704C8.32803 14.0284 8.17803 13.8964 8.17803 13.7704V12.3124L8.39403 12.1084H6.61803L6.83403 12.3124V13.7704C6.83403 13.8964 6.68403 14.0284 6.58203 14.0704H8.43003Z" fill="white" stroke="black" stroke-width="0.0806556"/>
<path d="M8.18217 14.069C8.08017 14.027 7.92417 13.895 7.92417 13.769V12.449L8.06817 12.251H6.94017L7.08417 12.449V13.769C7.08417 13.895 6.93417 14.027 6.82617 14.069H8.18217Z" fill="white" stroke="black" stroke-width="0.0806556"/>
<path d="M7.24037 12.251H7.77437V14.075H7.23438L7.24037 12.251Z" fill="white" stroke="black" stroke-width="0.0806556"/>
<path fill-rule="evenodd" clip-rule="evenodd" d="M6.31641 10.8965H6.57441V11.0885H6.58041V12.1085H6.31641V11.0885V10.8965ZM6.50241 12.7565H6.71841V13.7465H6.50241V12.7565ZM8.35041 12.7565H8.56041V13.7465H8.34441L8.35041 12.7565ZM8.81841 11.3105H8.45241V12.0905H8.81841V11.3105Z" fill="white"/>
<path d="M6.57316 10.8972H6.60316L6.57316 10.8672V10.8972ZM6.31516 10.8972V10.8672L6.28516 10.8972H6.31516ZM6.57316 11.0892H6.54316L6.57316 11.1192V11.0892ZM6.57916 11.0892H6.60916L6.57916 11.0592V11.0892ZM6.57916 12.1092V12.1392L6.60916 12.1092H6.57916ZM6.31516 12.1092H6.28516L6.31516 12.1392V12.1092ZM6.71716 12.7572H6.74716L6.71716 12.7272V12.7572ZM6.50116 12.7572V12.7272L6.47116 12.7572H6.50116ZM6.71716 13.7472V13.7772L6.74716 13.7472H6.71716ZM6.50116 13.7472H6.47116L6.50116 13.7772V13.7472ZM8.55916 12.7572H8.58916L8.55916 12.7272V12.7572ZM8.34916 12.7572V12.7272L8.31916 12.757L8.34916 12.7572ZM8.55916 13.7472V13.7772L8.58916 13.7472H8.55916ZM8.34316 13.7472L8.31316 13.747L8.34316 13.7772V13.7472ZM8.45116 11.3112V11.2812L8.42116 11.3112H8.45116ZM8.81716 11.3112H8.84716L8.81716 11.2812V11.3112ZM8.45116 12.0912H8.42116L8.45116 12.1212V12.0912ZM8.81716 12.0912V12.1212L8.84716 12.0912H8.81716ZM6.57316 10.8672H6.31516V10.9272H6.57316V10.8672ZM6.60316 11.0892V10.8972H6.54316V11.0892H6.60316ZM6.57916 11.0592H6.57316V11.1192H6.57916V11.0592ZM6.60916 12.1092V11.0892H6.54916V12.1092H6.60916ZM6.31516 12.1392H6.57916V12.0792H6.31516V12.1392ZM6.28516 11.0892V12.1092H6.34516V11.0892H6.28516ZM6.28516 10.8972V11.0892H6.34516V10.8972H6.28516ZM6.71716 12.7272H6.50116V12.7872H6.71716V12.7272ZM6.74716 13.7472V12.7572H6.68716V13.7472H6.74716ZM6.50116 13.7772H6.71716V13.7172H6.50116V13.7772ZM6.47116 12.7572V13.7472H6.53116V12.7572H6.47116ZM8.55916 12.7272H8.34916V12.7872H8.55916V12.7272ZM8.58916 13.7472V12.7572H8.52916V13.7472H8.58916ZM8.34316 13.7772H8.55916V13.7172H8.34316V13.7772ZM8.31916 12.757L8.31316 13.747L8.37316 13.7474L8.37916 12.7574L8.31916 12.757ZM8.45116 11.3412H8.81716V11.2812H8.45116V11.3412ZM8.48116 12.0912V11.3112H8.42116V12.0912H8.48116ZM8.81716 12.0612H8.45116V12.1212H8.81716V12.0612ZM8.78716 11.3112V12.0912H8.84716V11.3112H8.78716Z" fill="black"/>
<path fill-rule="evenodd" clip-rule="evenodd" d="M6.57416 10.3569V12.0969H8.46416V10.3629C8.43566 10.3629 8.41656 10.4024 8.39356 10.45C8.35826 10.5229 8.31366 10.6149 8.21216 10.6149C8.12216 10.6149 8.13416 10.5069 8.18216 10.4229C8.22416 10.3449 8.27816 10.2429 8.20616 10.0449C8.15216 10.1949 8.02016 10.2429 8.04416 10.1529C8.05746 10.1018 8.07906 10.0638 8.09946 10.028C8.14356 9.9504 8.18186 9.88322 8.11616 9.71488C8.08616 9.91888 7.95416 9.91288 7.98416 9.79288C7.99296 9.75936 8.00416 9.73043 8.01476 9.7031C8.04776 9.61793 8.07486 9.54824 8.00216 9.40288C7.94816 9.62488 7.88216 9.61288 7.88216 9.47488C7.88216 9.47049 7.88216 9.46609 7.88216 9.46168C7.88226 9.26711 7.88246 9.05315 7.63016 8.97688C7.63016 8.97688 7.61216 8.79688 7.52216 8.79688C7.42616 8.79688 7.40816 8.97688 7.40816 8.97688C7.15616 9.05488 7.15616 9.27088 7.15616 9.47488C7.15616 9.61288 7.09016 9.62488 7.03616 9.40288C6.96346 9.54824 6.99056 9.61793 7.02356 9.7031C7.03416 9.73043 7.04546 9.75936 7.05416 9.79288C7.08416 9.91288 6.95216 9.91888 6.92216 9.71488C6.85646 9.88322 6.89476 9.9504 6.93886 10.028C6.95926 10.0638 6.98096 10.1018 6.99416 10.1529C7.01816 10.2429 6.88616 10.1949 6.83216 10.0449C6.76016 10.2429 6.81416 10.3449 6.85616 10.4229C6.91016 10.5069 6.91616 10.6149 6.82616 10.6149C6.72466 10.6149 6.68006 10.5207 6.64486 10.4461C6.62176 10.3973 6.60266 10.3569 6.57416 10.3569ZM6.16016 12.1089V10.7829C6.20816 10.7529 6.25616 10.7529 6.31016 10.7829V12.1089H6.16016Z" fill="white"/>
<path d="M6.57681 12.0956H6.54681V12.1256H6.57681V12.0956ZM6.57681 10.3556V10.3256H6.54681V10.3556H6.57681ZM8.46681 12.0956V12.1256H8.49681V12.0956H8.46681ZM8.46681 10.3616H8.49681V10.3316H8.46681V10.3616ZM8.20881 10.0436L8.23701 10.0334L8.20871 9.95545L8.18061 10.0335L8.20881 10.0436ZM8.11881 9.71362L8.14681 9.70271L8.10561 9.59725L8.08911 9.70926L8.11881 9.71362ZM8.00481 9.40163L8.03161 9.38821L7.99501 9.31495L7.97571 9.39454L8.00481 9.40163ZM7.63281 8.97563L7.60301 8.97861L7.60501 8.99855L7.62411 9.00434L7.63281 8.97563ZM7.41081 8.97563L7.41971 9.00428L7.43871 8.99841L7.44071 8.97861L7.41081 8.97563ZM7.03881 9.40163L7.06801 9.39454L7.04861 9.31495L7.01201 9.38821L7.03881 9.40163ZM6.92481 9.71362L6.95451 9.70926L6.93801 9.59725L6.89691 9.70271L6.92481 9.71362ZM6.83481 10.0436L6.86301 10.0335L6.83501 9.95545L6.80661 10.0334L6.83481 10.0436ZM6.85881 10.4216L6.83231 10.4359L6.83361 10.4378L6.85881 10.4216ZM6.16281 10.7816L6.14691 10.7562L6.13281 10.765V10.7816H6.16281ZM6.16281 12.1076H6.13281V12.1376H6.16281V12.1076ZM6.31281 10.7816H6.34281V10.764L6.32741 10.7554L6.31281 10.7816ZM6.31281 12.1076V12.1376H6.34281V12.1076H6.31281ZM6.60681 12.0956V10.3556H6.54681V12.0956H6.60681ZM8.46681 12.0656H6.57681V12.1256H8.46681V12.0656ZM8.43681 10.3616V12.0956H8.49681V10.3616H8.43681ZM8.42321 10.4618C8.43511 10.4372 8.44451 10.418 8.45391 10.4047C8.45851 10.3982 8.46211 10.3946 8.46461 10.3929C8.46571 10.392 8.46641 10.3918 8.46661 10.3917L8.46681 10.3316C8.43721 10.3316 8.41741 10.3524 8.40501 10.37C8.39201 10.3883 8.38031 10.4126 8.36911 10.4357L8.42321 10.4618ZM8.21481 10.6436C8.27631 10.6436 8.32051 10.6152 8.35291 10.5783C8.38431 10.5426 8.40591 10.4975 8.42321 10.4618L8.36911 10.4357C8.35121 10.4728 8.33291 10.5102 8.30781 10.5387C8.28371 10.5661 8.25491 10.5836 8.21481 10.5836V10.6436ZM8.15881 10.4067C8.13321 10.4515 8.11541 10.5054 8.11811 10.5509C8.11951 10.574 8.12641 10.5978 8.14361 10.616C8.16131 10.6348 8.18611 10.6436 8.21481 10.6436V10.5836C8.19861 10.5836 8.19111 10.579 8.18721 10.5749C8.18281 10.5702 8.17891 10.5617 8.17801 10.5473C8.17621 10.5178 8.18851 10.4757 8.21091 10.4365L8.15881 10.4067ZM8.18061 10.0539C8.21521 10.1489 8.21881 10.2186 8.21001 10.2728C8.20111 10.3274 8.17981 10.3678 8.15881 10.4067L8.21091 10.4365C8.23201 10.3975 8.25851 10.3479 8.26921 10.2824C8.27991 10.2166 8.27451 10.1364 8.23701 10.0334L8.18061 10.0539ZM8.01781 10.1439C8.01111 10.1692 8.01061 10.2028 8.03921 10.2196C8.05181 10.2271 8.06571 10.2279 8.07751 10.2263C8.08941 10.2246 8.10131 10.2201 8.11261 10.2141C8.15721 10.1905 8.20801 10.1344 8.23701 10.0538L8.18061 10.0335C8.15561 10.1028 8.11351 10.1458 8.08451 10.1611C8.07741 10.1649 8.07221 10.1664 8.06911 10.1668C8.06591 10.1673 8.06691 10.1663 8.06971 10.168C8.07851 10.1732 8.07051 10.1791 8.07581 10.1594L8.01781 10.1439ZM8.07601 10.0119C8.05571 10.0476 8.03211 10.0885 8.01781 10.1439L8.07581 10.1594C8.08791 10.1126 8.10771 10.0774 8.12811 10.0416L8.07601 10.0119ZM8.09091 9.72453C8.12251 9.80568 8.12781 9.85914 8.12201 9.89991C8.11601 9.94107 8.09831 9.97263 8.07601 10.0119L8.12811 10.0416C8.15001 10.0032 8.17351 9.96243 8.18131 9.90851C8.18921 9.85421 8.18081 9.7899 8.14681 9.70271L8.09091 9.72453ZM7.95781 9.78405C7.94931 9.81818 7.95051 9.85054 7.96491 9.87428C7.97231 9.88649 7.98311 9.89619 7.99671 9.90145C8.01021 9.90668 8.02461 9.90676 8.03821 9.90306C8.06471 9.89584 8.08851 9.87441 8.10691 9.84445C8.12561 9.81394 8.14061 9.77197 8.14851 9.718L8.08911 9.70926C8.08211 9.75728 8.06931 9.79107 8.05571 9.81305C8.04191 9.83559 8.02891 9.84342 8.02241 9.84519C8.01951 9.84599 8.01831 9.8455 8.01831 9.84548C8.01861 9.84573 8.01821 9.84544 8.01831 9.84548C8.01801 9.84523 8.01691 9.8443 8.01621 9.84321C8.01331 9.83845 8.00941 9.82478 8.01591 9.79891L7.95781 9.78405ZM7.98941 9.691C7.97891 9.71822 7.96701 9.74863 7.95781 9.78405L8.01591 9.79891C8.02421 9.76728 8.03471 9.74015 8.04541 9.71271L7.98941 9.691ZM7.97801 9.41504C8.01281 9.48461 8.02231 9.53332 8.02081 9.57314C8.01921 9.61363 8.00621 9.64785 7.98941 9.691L8.04541 9.71271C8.06171 9.6707 8.07871 9.62748 8.08071 9.57549C8.08281 9.52282 8.06951 9.464 8.03161 9.38821L7.97801 9.41504ZM7.85481 9.47363C7.85481 9.50972 7.85901 9.54089 7.86821 9.56324C7.87281 9.57432 7.87981 9.5861 7.89081 9.5942C7.90331 9.60337 7.91871 9.60606 7.93381 9.60118C7.94711 9.59688 7.95781 9.58751 7.96601 9.57769C7.97461 9.56752 7.98261 9.55452 7.99021 9.53921C8.00531 9.50857 8.02021 9.46538 8.03401 9.40872L7.97571 9.39454C7.96241 9.44889 7.94881 9.48743 7.93641 9.51266C7.93011 9.52529 7.92461 9.53376 7.92021 9.53901C7.91551 9.54461 7.91361 9.54463 7.91541 9.54408C7.91881 9.54295 7.92351 9.54377 7.92631 9.54585C7.92771 9.54688 7.92621 9.54637 7.92371 9.54039C7.91891 9.52862 7.91481 9.50654 7.91481 9.47363H7.85481ZM7.85481 9.46041V9.47363H7.91481C7.91481 9.46925 7.91481 9.46486 7.91481 9.46045L7.85481 9.46041ZM7.62411 9.00434C7.74111 9.03969 7.79691 9.10531 7.82521 9.18384C7.85461 9.26532 7.85491 9.36186 7.85481 9.46041L7.91481 9.46045C7.91491 9.36442 7.91531 9.2567 7.88171 9.16349C7.84701 9.06733 7.77681 8.98783 7.64151 8.94691L7.62411 9.00434ZM7.52481 8.82563C7.53591 8.82563 7.54631 8.83077 7.55681 8.84317C7.56771 8.85604 7.57691 8.87465 7.58421 8.89554C7.59141 8.91609 7.59621 8.93697 7.59911 8.95292C7.60051 8.96083 7.60151 8.96739 7.60211 8.97192C7.60241 8.97418 7.60271 8.97594 7.60281 8.97709C7.60291 8.97766 7.60301 8.97835 7.60301 8.97861C7.60301 8.97857 7.60301 8.97874 7.60301 8.97861C7.60301 8.9786 7.60301 8.97862 7.63281 8.97563C7.66271 8.97265 7.66271 8.97263 7.66271 8.97262C7.66271 8.97265 7.66271 8.9726 7.66271 8.97262C7.66261 8.9722 7.66251 8.97088 7.66241 8.97013C7.66221 8.96864 7.66201 8.96651 7.66161 8.96385C7.66091 8.95854 7.65971 8.95104 7.65811 8.94209C7.65481 8.92428 7.64941 8.90017 7.64091 8.87572C7.63241 8.85161 7.62031 8.82521 7.60251 8.80433C7.58441 8.78298 7.55871 8.76562 7.52481 8.76562V8.82563ZM7.41081 8.97563C7.44071 8.97862 7.44071 8.9786 7.44071 8.97861C7.44071 8.97874 7.44071 8.97857 7.44071 8.97861C7.44071 8.97836 7.44081 8.97768 7.44081 8.97712C7.44101 8.97598 7.44121 8.97425 7.44151 8.972C7.44211 8.96749 7.44311 8.96095 7.44461 8.95306C7.44761 8.93718 7.45251 8.91641 7.46001 8.89596C7.46761 8.8752 7.47721 8.85668 7.48881 8.84381C7.49991 8.83149 7.51141 8.82563 7.52481 8.82563V8.76562C7.49021 8.76562 7.46351 8.78226 7.44421 8.80369C7.42541 8.82457 7.41251 8.85107 7.40361 8.8753C7.39461 8.89986 7.38901 8.92407 7.38561 8.94194C7.38391 8.95093 7.38281 8.95845 7.38211 8.96379C7.38171 8.96646 7.38141 8.9686 7.38121 8.9701C7.38121 8.97085 7.38111 8.97145 7.38101 8.97188C7.38101 8.97189 7.38101 8.97265 7.41081 8.97563ZM7.18881 9.47363C7.18881 9.37034 7.18911 9.27085 7.21861 9.18737C7.24701 9.10686 7.30291 9.04041 7.41971 9.00428L7.40191 8.94697C7.26671 8.98884 7.19661 9.0694 7.16201 9.1674C7.12851 9.26241 7.12881 9.37292 7.12881 9.47363H7.18881ZM7.00971 9.40872C7.02341 9.46538 7.03831 9.50857 7.05341 9.53921C7.06101 9.55452 7.06901 9.56752 7.07761 9.57769C7.08591 9.58751 7.09651 9.59688 7.10991 9.60118C7.12501 9.60606 7.14041 9.60337 7.15281 9.5942C7.16391 9.5861 7.17081 9.57432 7.17541 9.56324C7.18461 9.54089 7.18881 9.50972 7.18881 9.47363H7.12881C7.12881 9.50654 7.12481 9.52862 7.11991 9.54039C7.11751 9.54637 7.11591 9.54688 7.11731 9.54585C7.12021 9.54377 7.12481 9.54295 7.12831 9.54408C7.13001 9.54463 7.12821 9.54461 7.12341 9.53901C7.11901 9.53376 7.11351 9.52529 7.10721 9.51266C7.09481 9.48743 7.08121 9.44889 7.06801 9.39454L7.00971 9.40872ZM7.05421 9.691C7.03751 9.64785 7.02441 9.61363 7.02291 9.57314C7.02131 9.53332 7.03091 9.48461 7.06561 9.41504L7.01201 9.38821C6.97411 9.464 6.96081 9.52282 6.96291 9.57549C6.96491 9.62748 6.98201 9.6707 6.99831 9.71271L7.05421 9.691ZM7.08591 9.78435C7.07671 9.74893 7.06481 9.71822 7.05421 9.691L6.99831 9.71271C7.00891 9.74015 7.01951 9.76757 7.02781 9.7992L7.08591 9.78435ZM6.89511 9.718C6.90311 9.77197 6.91801 9.81394 6.93671 9.84445C6.95521 9.87441 6.97891 9.89584 7.00541 9.90306C7.01901 9.90676 7.03341 9.90668 7.04691 9.90145C7.06061 9.89619 7.07131 9.88649 7.07871 9.87428C7.09311 9.85054 7.09441 9.81848 7.08591 9.78435L7.02781 9.7992C7.03431 9.82507 7.03031 9.83845 7.02741 9.84321C7.02671 9.8443 7.02621 9.84486 7.02591 9.84511C7.02601 9.84507 7.02561 9.84536 7.02591 9.84511C7.02591 9.84513 7.02411 9.84599 7.02121 9.84519C7.01471 9.84342 7.00171 9.83559 6.98791 9.81305C6.97441 9.79107 6.96161 9.75728 6.95451 9.70926L6.89511 9.718ZM6.96761 10.0119C6.94531 9.97263 6.92761 9.94107 6.92171 9.89991C6.91581 9.85914 6.92111 9.80568 6.95281 9.72453L6.89691 9.70271C6.86281 9.7899 6.85441 9.85421 6.86231 9.90851C6.87011 9.96243 6.89371 10.0032 6.91551 10.0416L6.96761 10.0119ZM7.02591 10.1441C7.01151 10.0887 6.98801 10.0476 6.96761 10.0119L6.91551 10.0416C6.93591 10.0774 6.95561 10.1123 6.96781 10.1591L7.02591 10.1441ZM6.80661 10.0538C6.83561 10.1344 6.88651 10.1905 6.93101 10.2141C6.94231 10.2201 6.95431 10.2246 6.96621 10.2263C6.97791 10.2279 6.99191 10.2271 7.00451 10.2196C7.03301 10.2028 7.03261 10.1694 7.02591 10.1441L6.96781 10.1591C6.97311 10.1788 6.96511 10.1732 6.97401 10.168C6.97671 10.1663 6.97781 10.1673 6.97451 10.1668C6.97141 10.1664 6.96621 10.1649 6.95911 10.1611C6.93021 10.1458 6.88801 10.1028 6.86301 10.0335L6.80661 10.0538ZM6.88521 10.4074C6.86431 10.3685 6.84251 10.3274 6.83371 10.2728C6.82491 10.2186 6.82851 10.1489 6.86301 10.0539L6.80661 10.0334C6.76921 10.1364 6.76381 10.2166 6.77451 10.2824C6.78511 10.3479 6.81131 10.3969 6.83231 10.4359L6.88521 10.4074ZM6.82881 10.6436C6.85761 10.6436 6.88241 10.6348 6.90041 10.6165C6.91811 10.5986 6.92581 10.575 6.92771 10.5515C6.93141 10.5054 6.91331 10.4509 6.88401 10.4054L6.83361 10.4378C6.85831 10.4763 6.87021 10.5178 6.86791 10.5467C6.86681 10.5608 6.86261 10.5694 6.85771 10.5744C6.85321 10.5789 6.84511 10.5836 6.82881 10.5836V10.6436ZM6.62041 10.4576C6.63761 10.4942 6.65921 10.5402 6.69051 10.5767C6.72281 10.6143 6.76711 10.6436 6.82881 10.6436V10.5836C6.78901 10.5836 6.76021 10.5658 6.73601 10.5376C6.71091 10.5084 6.69261 10.47 6.67461 10.432L6.62041 10.4576ZM6.57681 10.3856C6.57701 10.3857 6.57771 10.386 6.57881 10.3868C6.58131 10.3887 6.58491 10.3923 6.58951 10.399C6.59901 10.4127 6.60841 10.4324 6.62041 10.4576L6.67461 10.432C6.66341 10.4084 6.65181 10.3835 6.63881 10.3648C6.62651 10.3471 6.60681 10.3256 6.57681 10.3256V10.3856ZM6.13281 10.7816V12.1076H6.19281V10.7816H6.13281ZM6.32741 10.7554C6.29711 10.7386 6.26661 10.7291 6.23561 10.7291C6.20431 10.7291 6.17491 10.7387 6.14691 10.7562L6.17871 10.8071C6.19871 10.7946 6.21731 10.7891 6.23561 10.7891C6.25401 10.7891 6.27451 10.7947 6.29821 10.8078L6.32741 10.7554ZM6.34281 12.1076V10.7816H6.28281V12.1076H6.34281ZM6.16281 12.1376H6.31281V12.0776H6.16281V12.1376Z" fill="black"/>
<path fill-rule="evenodd" clip-rule="evenodd" d="M8.76387 12.1074V11.2434C8.79387 11.2194 8.84787 11.2254 8.88387 11.2434V12.1074H8.76387ZM6.59188 12.1074C6.54388 11.8494 6.35787 11.7354 6.17188 11.6394V12.1074H6.59188Z" fill="white"/>
<path d="M8.76458 11.2441L8.74578 11.2207L8.73458 11.2297V11.2441H8.76458ZM8.76458 12.1081H8.73458V12.1381H8.76458V12.1081ZM8.88458 11.2441H8.91458V11.2255L8.89798 11.2172L8.88458 11.2441ZM8.88458 12.1081V12.1381H8.91458V12.1081H8.88458ZM6.17258 11.6401L6.18628 11.6134L6.14258 11.5908V11.6401H6.17258ZM6.59258 12.1081V12.1381H6.62868L6.62208 12.1026L6.59258 12.1081ZM6.17258 12.1081H6.14258V12.1381H6.17258V12.1081ZM8.73458 11.2441V12.1081H8.79458V11.2441H8.73458ZM8.89798 11.2172C8.87618 11.2064 8.84948 11.1992 8.82338 11.1983C8.79758 11.1975 8.76848 11.2025 8.74578 11.2207L8.78328 11.2675C8.79068 11.2616 8.80348 11.2577 8.82128 11.2583C8.83858 11.2589 8.85688 11.2638 8.87118 11.2709L8.89798 11.2172ZM8.91458 12.1081V11.2441H8.85458V12.1081H8.91458ZM8.76458 12.1381H8.88458V12.0781H8.76458V12.1381ZM6.15878 11.6667C6.34428 11.7624 6.51788 11.8707 6.56308 12.1136L6.62208 12.1026C6.57128 11.8295 6.37288 11.7097 6.18628 11.6134L6.15878 11.6667ZM6.20258 12.1081V11.6401H6.14258V12.1081H6.20258ZM6.59258 12.0781H6.17258V12.1381H6.59258V12.0781Z" fill="black"/>
<path fill-rule="evenodd" clip-rule="evenodd" d="M7.75553 9.52809L7.64753 9.61809H7.37753L7.26953 9.52209V9.40209C7.31153 9.41409 7.32953 9.42009 7.35953 9.46209C7.38593 9.38538 7.44213 9.32262 7.51553 9.28809C7.58793 9.32527 7.64203 9.39023 7.66553 9.46809C7.69553 9.42609 7.71953 9.40809 7.75553 9.40809V9.52809ZM8.46353 12.1021C8.51153 11.8381 8.69753 11.7301 8.88353 11.6401V12.1021H8.46353Z" fill="white"/>
<path d="M7.64628 9.61832V9.64832H7.65718L7.66548 9.64136L7.64628 9.61832ZM7.75428 9.52832L7.77348 9.55136L7.78428 9.54237V9.52832H7.75428ZM7.37628 9.61832L7.35638 9.64074L7.36488 9.64832H7.37628V9.61832ZM7.26828 9.52232H7.23828V9.53579L7.24838 9.54474L7.26828 9.52232ZM7.26828 9.40232L7.27658 9.37347L7.23828 9.36254V9.40232H7.26828ZM7.35828 9.46232L7.33388 9.47975L7.36778 9.52716L7.38668 9.47206L7.35828 9.46232ZM7.51428 9.28832L7.52798 9.26164L7.51488 9.25488L7.50148 9.26117L7.51428 9.28832ZM7.66428 9.46832L7.63558 9.477L7.65328 9.53541L7.68868 9.48575L7.66428 9.46832ZM7.75428 9.40832H7.78428V9.37832H7.75428V9.40832ZM8.88228 11.6403H8.91228V11.5924L8.86928 11.6133L8.88228 11.6403ZM8.46228 12.1023L8.43278 12.0969L8.42638 12.1323H8.46228V12.1023ZM8.88228 12.1023V12.1323H8.91228V12.1023H8.88228ZM7.66548 9.64136L7.77348 9.55136L7.73508 9.50527L7.62708 9.59527L7.66548 9.64136ZM7.37628 9.64832H7.64628V9.58832H7.37628V9.64832ZM7.24838 9.54474L7.35638 9.64074L7.39628 9.59589L7.28828 9.49989L7.24838 9.54474ZM7.23828 9.40232V9.52232H7.29828V9.40232H7.23828ZM7.38268 9.44488C7.36648 9.42217 7.35168 9.40664 7.33348 9.39547C7.31588 9.38474 7.29688 9.37928 7.27658 9.37347L7.26008 9.43116C7.28168 9.43735 7.29268 9.44089 7.30218 9.44666C7.31088 9.45199 7.32008 9.46046 7.33388 9.47975L7.38268 9.44488ZM7.50148 9.26117C7.42078 9.29915 7.35888 9.3682 7.32988 9.45257L7.38668 9.47206C7.41038 9.40303 7.46098 9.34654 7.52708 9.31546L7.50148 9.26117ZM7.69298 9.45964C7.66708 9.374 7.60758 9.30254 7.52798 9.26164L7.50058 9.315C7.56568 9.34846 7.61438 9.40693 7.63558 9.477L7.69298 9.45964ZM7.75428 9.37832C7.73058 9.37832 7.70958 9.38447 7.69008 9.39781C7.67158 9.4105 7.65558 9.42884 7.63988 9.45088L7.68868 9.48575C7.70298 9.46579 7.71408 9.45413 7.72398 9.44733C7.73298 9.44116 7.74198 9.43832 7.75428 9.43832V9.37832ZM7.78428 9.52832V9.40832H7.72428V9.52832H7.78428ZM8.86928 11.6133C8.68238 11.7037 8.48358 11.8174 8.43278 12.0969L8.49178 12.1077C8.53698 11.8592 8.71018 11.7569 8.89538 11.6673L8.86928 11.6133ZM8.91228 12.1023V11.6403H8.85228V12.1023H8.91228ZM8.46228 12.1323H8.88228V12.0723H8.46228V12.1323Z" fill="black"/>
<path d="M7.70753 9.91232L7.75553 9.79832V9.64832C7.71953 9.64832 7.69553 9.66632 7.66553 9.70832C7.64203 9.63046 7.58793 9.5655 7.51553 9.52832C7.44213 9.56285 7.38593 9.62561 7.35953 9.70232C7.32953 9.66032 7.31153 9.65432 7.26953 9.64832V9.79832L7.31753 9.91232H7.70753Z" fill="white" stroke="black" stroke-width="0.0806556"/>
<path d="M7.71844 10.3081L7.87444 10.1101V9.91813C7.81444 9.91813 7.78444 9.94813 7.74244 10.0141C7.70044 9.87613 7.62244 9.85213 7.51444 9.78613C7.40044 9.84613 7.32244 9.87613 7.28644 10.0081C7.23844 9.94213 7.20844 9.92413 7.14844 9.91813V10.1101L7.31044 10.3081H7.71844Z" fill="white" stroke="black" stroke-width="0.0806556"/>
<path d="M7.76436 10.6978C7.76436 10.6978 7.95636 10.5358 7.96236 10.4458V10.2358C7.89036 10.2418 7.82436 10.2598 7.77036 10.3498C7.72236 10.1758 7.65036 10.1278 7.51836 10.0498C7.38036 10.1278 7.30836 10.1758 7.26636 10.3498C7.20636 10.2598 7.14636 10.2418 7.06836 10.2298V10.4458C7.11876 10.541 7.18586 10.6264 7.26636 10.6978H7.76436Z" fill="white" stroke="black" stroke-width="0.0806556"/>
<path d="M7.83988 11.4182C7.83988 11.4182 8.10388 11.1362 8.10988 11.0222V10.6982C8.01388 10.7102 7.91787 10.7762 7.84587 10.9142C7.78587 10.6442 7.68987 10.4582 7.51587 10.3262C7.33587 10.4582 7.23988 10.6442 7.17988 10.9142C7.10788 10.7762 7.01788 10.7102 6.92188 10.6982V11.0222C6.93987 11.1362 7.18587 11.4182 7.18587 11.4182H7.83988Z" fill="white" stroke="black" stroke-width="0.0806556"/>
<path d="M7.83988 11.8444C7.83988 11.8444 8.06188 11.6224 8.10988 11.5264V11.2024C8.01388 11.2144 7.91787 11.2804 7.84587 11.4124C7.81347 11.1919 7.69467 10.9933 7.51587 10.8604C7.33587 10.9924 7.23988 11.1424 7.17988 11.4124C7.10788 11.2804 7.01788 11.2144 6.92188 11.2024V11.5264C6.98187 11.6224 7.18587 11.8444 7.18587 11.8444H7.83988Z" fill="white" stroke="black" stroke-width="0.0806556"/>
<path d="M7.93222 12.0965C7.87222 11.8145 7.81222 11.6045 7.50622 11.3945C7.19422 11.6045 7.14022 11.8145 7.07422 12.0965H7.93222Z" fill="white" stroke="black" stroke-width="0.0806556"/>
<path d="M8.09188 12.2524V11.8444C7.94788 11.9044 7.82188 11.9824 7.77388 12.0724C7.72588 11.8444 7.62388 11.7484 7.49788 11.6104C7.37188 11.7484 7.28788 11.8504 7.23388 12.0724C7.18588 11.9824 7.05987 11.8984 6.92188 11.8444V12.2524H8.09188Z" fill="white" stroke="black" stroke-width="0.0806556"/>
<path d="M17.7802 13.752V12.528C17.8222 12.372 17.9602 12.228 18.0562 12.204V11.124L17.8342 11.244L17.5762 12.378V13.758L17.7802 13.752Z" fill="white" stroke="black" stroke-width="0.0806556"/>
<path d="M17.7802 13.7578V12.5278C17.8222 12.3718 17.9602 12.2278 18.0562 12.2038V11.0518C17.9062 11.0518 17.8342 11.2438 17.8342 11.2438L17.5762 12.3778V13.7518L17.7802 13.7578Z" fill="white" stroke="black" stroke-width="0.0806556"/>
<path d="M17.9431 14.0712C17.8411 14.0292 17.6911 13.8972 17.6911 13.7712V12.2352L17.7631 12.1152H15.1411L15.2431 12.2352V13.7712C15.2342 13.9007 15.1562 14.0153 15.0391 14.0712H17.9431Z" fill="white" stroke="black" stroke-width="0.0806556"/>
<path d="M15.5742 14.0704C15.6762 14.0284 15.8262 13.8964 15.8262 13.7704V12.3124L15.6102 12.1084H17.3862L17.1702 12.3124V13.7704C17.1702 13.8964 17.3202 14.0284 17.4222 14.0704H15.5742Z" fill="white" stroke="black" stroke-width="0.0806556"/>
<path d="M15.8203 14.07C15.9223 14.028 16.0783 13.896 16.0783 13.77V12.45L15.9343 12.252H17.0623L16.9183 12.45V13.77C16.9183 13.896 17.0683 14.028 17.1763 14.07H15.8203Z" fill="white" stroke="black" stroke-width="0.0806556"/>
<path d="M16.7625 12.252H16.2285V14.076H16.7685L16.7625 12.252Z" fill="white" stroke="black" stroke-width="0.0806556"/>
<path fill-rule="evenodd" clip-rule="evenodd" d="M17.6856 10.8965H17.4276V11.0885H17.4216V12.1085H17.6856V11.0885V10.8965ZM17.4996 12.7565H17.2836V13.7465H17.4996V12.7565ZM15.6516 12.7565H15.4416V13.7465H15.6576L15.6516 12.7565ZM15.1836 11.3105H15.5496V12.0905H15.1836V11.3105Z" fill="white"/>
<path d="M17.4283 10.8972H17.3983L17.4283 10.8672V10.8972ZM17.6863 10.8972V10.8672L17.7163 10.8972H17.6863ZM17.4283 11.0892H17.4583L17.4283 11.1192V11.0892ZM17.4223 11.0892H17.3923L17.4223 11.0592V11.0892ZM17.4223 12.1092V12.1392L17.3923 12.1092H17.4223ZM17.6863 12.1092H17.7163L17.6863 12.1392V12.1092ZM17.2843 12.7572H17.2543L17.2843 12.7272V12.7572ZM17.5003 12.7572V12.7272L17.5303 12.7572H17.5003ZM17.2843 13.7472V13.7772L17.2543 13.7472H17.2843ZM17.5003 13.7472H17.5303L17.5003 13.7772V13.7472ZM15.4423 12.7572H15.4123L15.4423 12.7272V12.7572ZM15.6523 12.7572V12.7272L15.6823 12.757L15.6523 12.7572ZM15.4423 13.7472V13.7772L15.4123 13.7472H15.4423ZM15.6583 13.7472L15.6883 13.747L15.6583 13.7772V13.7472ZM15.5503 11.3112V11.2812L15.5803 11.3112H15.5503ZM15.1843 11.3112H15.1543L15.1843 11.2812V11.3112ZM15.5503 12.0912H15.5803L15.5503 12.1212V12.0912ZM15.1843 12.0912V12.1212L15.1543 12.0912H15.1843ZM17.4283 10.8672H17.6863V10.9272H17.4283V10.8672ZM17.3983 11.0892V10.8972H17.4583V11.0892H17.3983ZM17.4223 11.0592H17.4283V11.1192H17.4223V11.0592ZM17.3923 12.1092V11.0892H17.4523V12.1092H17.3923ZM17.6863 12.1392H17.4223V12.0792H17.6863V12.1392ZM17.7163 11.0892V12.1092H17.6563V11.0892H17.7163ZM17.7163 10.8972V11.0892H17.6563V10.8972H17.7163ZM17.2843 12.7272H17.5003V12.7872H17.2843V12.7272ZM17.2543 13.7472V12.7572H17.3143V13.7472H17.2543ZM17.5003 13.7772H17.2843V13.7172H17.5003V13.7772ZM17.5303 12.7572V13.7472H17.4703V12.7572H17.5303ZM15.4423 12.7272H15.6523V12.7872H15.4423V12.7272ZM15.4123 13.7472V12.7572H15.4723V13.7472H15.4123ZM15.6583 13.7772H15.4423V13.7172H15.6583V13.7772ZM15.6823 12.757L15.6883 13.747L15.6283 13.7474L15.6223 12.7574L15.6823 12.757ZM15.5503 11.3412H15.1843V11.2812H15.5503V11.3412ZM15.5203 12.0912V11.3112H15.5803V12.0912H15.5203ZM15.1843 12.0612H15.5503V12.1212H15.1843V12.0612ZM15.2143 11.3112V12.0912H15.1543V11.3112H15.2143Z" fill="black"/>
<path fill-rule="evenodd" clip-rule="evenodd" d="M17.4271 10.3569V12.0969H15.5371V10.3629C15.5656 10.3629 15.5847 10.4024 15.6078 10.45C15.6431 10.5229 15.6876 10.6149 15.7891 10.6149C15.8791 10.6149 15.8671 10.5069 15.8191 10.4229C15.7771 10.3449 15.7231 10.2429 15.7951 10.0449C15.8491 10.1949 15.9811 10.2429 15.9571 10.1529C15.9439 10.1018 15.9222 10.0638 15.9019 10.028C15.8577 9.9504 15.8194 9.88322 15.8851 9.71488C15.9151 9.91888 16.0471 9.91288 16.0171 9.79288C16.0084 9.75936 15.9972 9.73043 15.9866 9.7031C15.9535 9.61793 15.9265 9.54824 15.9991 9.40288C16.0531 9.62488 16.1191 9.61288 16.1191 9.47488C16.1191 9.47049 16.1191 9.46609 16.1191 9.46168C16.119 9.26711 16.1189 9.05315 16.3711 8.97688C16.3711 8.97688 16.3891 8.79688 16.4791 8.79688C16.5751 8.79688 16.5931 8.97688 16.5931 8.97688C16.8451 9.05488 16.8451 9.27088 16.8451 9.47488C16.8451 9.61288 16.9111 9.62488 16.9651 9.40288C17.0378 9.54824 17.0108 9.61793 16.9777 9.7031C16.9671 9.73043 16.9559 9.75936 16.9471 9.79288C16.9171 9.91288 17.0491 9.91888 17.0791 9.71488C17.1448 9.88322 17.1066 9.9504 17.0624 10.028C17.042 10.0638 17.0204 10.1018 17.0071 10.1529C16.9831 10.2429 17.1151 10.1949 17.1691 10.0449C17.2411 10.2429 17.1871 10.3449 17.1451 10.4229C17.0911 10.5069 17.0851 10.6149 17.1751 10.6149C17.2767 10.6149 17.3212 10.5207 17.3565 10.4461C17.3796 10.3973 17.3987 10.3569 17.4271 10.3569ZM17.8411 12.1089V10.7829C17.7931 10.7529 17.7451 10.7529 17.6911 10.7829V12.1089H17.8411Z" fill="white"/>
<path d="M17.4278 12.0956H17.4578V12.1256H17.4278V12.0956ZM17.4278 10.3556V10.3256H17.4578V10.3556H17.4278ZM15.5378 12.0956V12.1256H15.5078V12.0956H15.5378ZM15.5378 10.3616H15.5078V10.3316H15.5378V10.3616ZM15.7958 10.0436L15.7676 10.0334L15.796 9.95545L15.8241 10.0335L15.7958 10.0436ZM15.8858 9.71362L15.8579 9.70271L15.8991 9.59725L15.9155 9.70926L15.8858 9.71362ZM15.9998 9.40163L15.973 9.38821L16.0096 9.31495L16.029 9.39454L15.9998 9.40163ZM16.3718 8.97563L16.4017 8.97861L16.3997 8.99855L16.3805 9.00434L16.3718 8.97563ZM16.5938 8.97563L16.585 9.00428L16.566 8.99841L16.564 8.97861L16.5938 8.97563ZM16.9658 9.40163L16.9367 9.39454L16.956 9.31495L16.9927 9.38821L16.9658 9.40163ZM17.0798 9.71362L17.0502 9.70926L17.0666 9.59725L17.1078 9.70271L17.0798 9.71362ZM17.1698 10.0436L17.1416 10.0335L17.1697 9.95545L17.198 10.0334L17.1698 10.0436ZM17.1458 10.4216L17.1723 10.4359L17.1711 10.4378L17.1458 10.4216ZM17.8418 10.7816L17.8577 10.7562L17.8718 10.765V10.7816H17.8418ZM17.8418 12.1076H17.8718V12.1376H17.8418V12.1076ZM17.6918 10.7816H17.6618V10.764L17.6773 10.7554L17.6918 10.7816ZM17.6918 12.1076V12.1376H17.6618V12.1076H17.6918ZM17.3978 12.0956V10.3556H17.4578V12.0956H17.3978ZM15.5378 12.0656H17.4278V12.1256H15.5378V12.0656ZM15.5678 10.3616V12.0956H15.5078V10.3616H15.5678ZM15.5815 10.4618C15.5696 10.4372 15.5602 10.418 15.5507 10.4047C15.5461 10.3982 15.5426 10.3946 15.5401 10.3929C15.539 10.392 15.5383 10.3918 15.5381 10.3917C15.5382 10.3917 15.5379 10.3916 15.5381 10.3917L15.5378 10.3316C15.5675 10.3316 15.5872 10.3524 15.5997 10.37C15.6127 10.3883 15.6243 10.4126 15.6355 10.4357L15.5815 10.4618ZM15.7898 10.6436C15.7284 10.6436 15.6842 10.6152 15.6518 10.5783C15.6204 10.5426 15.5988 10.4975 15.5815 10.4618L15.6355 10.4357C15.6535 10.4728 15.6718 10.5102 15.6968 10.5387C15.7209 10.5661 15.7498 10.5836 15.7898 10.5836V10.6436ZM15.8459 10.4067C15.8715 10.4515 15.8893 10.5054 15.8865 10.5509C15.8852 10.574 15.8782 10.5978 15.8611 10.616C15.8434 10.6348 15.8186 10.6436 15.7898 10.6436V10.5836C15.8061 10.5836 15.8135 10.579 15.8174 10.5749C15.8218 10.5702 15.8258 10.5617 15.8266 10.5473C15.8284 10.5178 15.8162 10.4757 15.7938 10.4365L15.8459 10.4067ZM15.824 10.0539C15.7895 10.1489 15.7859 10.2186 15.7947 10.2728C15.8036 10.3274 15.8249 10.3678 15.8459 10.4067L15.7938 10.4365C15.7728 10.3975 15.7461 10.3479 15.7355 10.2824C15.7248 10.2166 15.7302 10.1364 15.7676 10.0334L15.824 10.0539ZM15.9868 10.1439C15.9936 10.1692 15.994 10.2028 15.9655 10.2196C15.9529 10.2271 15.939 10.2279 15.9272 10.2263C15.9153 10.2246 15.9033 10.2201 15.892 10.2141C15.8475 10.1905 15.7966 10.1344 15.7676 10.0538L15.8241 10.0335C15.849 10.1028 15.8912 10.1458 15.9202 10.1611C15.9272 10.1649 15.9324 10.1664 15.9355 10.1668C15.9388 10.1673 15.9378 10.1663 15.935 10.168C15.9262 10.1732 15.9341 10.1791 15.9289 10.1594L15.9868 10.1439ZM15.9286 10.0119C15.949 10.0476 15.9724 10.0885 15.9868 10.1439L15.9289 10.1594C15.9167 10.1126 15.8969 10.0774 15.8765 10.0416L15.9286 10.0119ZM15.9138 9.72453C15.8821 9.80568 15.8768 9.85914 15.8827 9.89991C15.8887 9.94107 15.9063 9.97263 15.9286 10.0119L15.8765 10.0416C15.8547 10.0032 15.8311 9.96243 15.8233 9.90851C15.8155 9.85421 15.8239 9.7899 15.8579 9.70271L15.9138 9.72453ZM16.0469 9.78405C16.0555 9.81818 16.0541 9.85054 16.0398 9.87428C16.0324 9.88649 16.0216 9.89619 16.008 9.90145C15.9944 9.90668 15.98 9.90676 15.9664 9.90306C15.9399 9.89584 15.9162 9.87441 15.8978 9.84445C15.879 9.81394 15.8641 9.77197 15.8562 9.718L15.9155 9.70926C15.9226 9.75728 15.9354 9.79107 15.9489 9.81305C15.9627 9.83559 15.9757 9.84342 15.9822 9.84519C15.9852 9.84599 15.9863 9.8455 15.9864 9.84548C15.9861 9.84573 15.9865 9.84544 15.9864 9.84548C15.9867 9.84523 15.9878 9.8443 15.9884 9.84321C15.9913 9.83845 15.9952 9.82478 15.9887 9.79891L16.0469 9.78405ZM16.0152 9.691C16.0258 9.71822 16.0376 9.74863 16.0469 9.78405L15.9887 9.79891C15.9805 9.76728 15.9699 9.74015 15.9593 9.71271L16.0152 9.691ZM16.0267 9.41504C15.9919 9.48461 15.9823 9.53332 15.9839 9.57314C15.9855 9.61363 15.9985 9.64785 16.0152 9.691L15.9593 9.71271C15.943 9.6707 15.926 9.62748 15.9239 9.57549C15.9219 9.52282 15.9351 9.464 15.973 9.38821L16.0267 9.41504ZM16.1498 9.47363C16.1498 9.50972 16.1456 9.54089 16.1364 9.56324C16.1319 9.57432 16.1249 9.5861 16.1139 9.5942C16.1014 9.60337 16.086 9.60606 16.0709 9.60118C16.0575 9.59688 16.0469 9.58751 16.0386 9.57769C16.03 9.56752 16.022 9.55452 16.0145 9.53921C15.9994 9.50857 15.9845 9.46538 15.9707 9.40872L16.029 9.39454C16.0422 9.44889 16.0558 9.48743 16.0683 9.51266C16.0745 9.52529 16.08 9.53376 16.0845 9.53901C16.0892 9.54461 16.091 9.54463 16.0893 9.54408C16.0858 9.54295 16.0812 9.54377 16.0783 9.54585C16.077 9.54688 16.0785 9.54637 16.0809 9.54039C16.0858 9.52862 16.0898 9.50654 16.0898 9.47363H16.1498ZM16.1498 9.46041V9.47363H16.0898C16.0898 9.46925 16.0898 9.46486 16.0898 9.46045L16.1498 9.46041ZM16.3805 9.00434C16.2636 9.03969 16.2077 9.10531 16.1794 9.18384C16.15 9.26532 16.1498 9.36186 16.1498 9.46041L16.0898 9.46045C16.0898 9.36442 16.0894 9.2567 16.123 9.16349C16.1576 9.06733 16.2278 8.98783 16.3632 8.94691L16.3805 9.00434ZM16.4798 8.82563C16.4687 8.82563 16.4584 8.83077 16.4479 8.84317C16.4369 8.85604 16.4277 8.87465 16.4204 8.89554C16.4132 8.91609 16.4085 8.93697 16.4056 8.95292C16.4041 8.96083 16.4031 8.96739 16.4025 8.97192C16.4022 8.97418 16.402 8.97594 16.4019 8.97709C16.4018 8.97766 16.4017 8.97835 16.4017 8.97861C16.4017 8.9786 16.4017 8.97862 16.3718 8.97563C16.342 8.97265 16.342 8.97263 16.342 8.97262C16.342 8.97265 16.342 8.9726 16.342 8.97262C16.342 8.9722 16.3422 8.97088 16.3423 8.97013C16.3424 8.96864 16.3427 8.96651 16.3431 8.96385C16.3438 8.95854 16.3449 8.95104 16.3466 8.94209C16.3498 8.92428 16.3552 8.90017 16.3638 8.87572C16.3722 8.85161 16.3844 8.82521 16.4021 8.80433C16.4203 8.78298 16.446 8.76562 16.4798 8.76562V8.82563ZM16.5938 8.97563C16.564 8.97862 16.564 8.9786 16.564 8.97861C16.564 8.97874 16.564 8.97857 16.564 8.97861C16.5639 8.97836 16.5639 8.97768 16.5638 8.97712C16.5637 8.97598 16.5635 8.97425 16.5632 8.972C16.5625 8.96749 16.5615 8.96095 16.56 8.95306C16.557 8.93718 16.5522 8.91641 16.5447 8.89596C16.5371 8.8752 16.5274 8.85668 16.5159 8.84381C16.5048 8.83149 16.4932 8.82563 16.4798 8.82563V8.76562C16.5145 8.76562 16.5412 8.78226 16.5605 8.80369C16.5793 8.82457 16.5921 8.85107 16.601 8.8753C16.61 8.89986 16.6156 8.92407 16.619 8.94194C16.6207 8.95093 16.6219 8.95845 16.6226 8.96379C16.623 8.96646 16.6232 8.9686 16.6234 8.9701C16.6235 8.97085 16.6236 8.97145 16.6236 8.97188C16.6236 8.97175 16.6236 8.97209 16.6236 8.97188C16.6236 8.97189 16.6237 8.97265 16.5938 8.97563ZM16.8158 9.47363C16.8158 9.37034 16.8155 9.27085 16.7861 9.18737C16.7576 9.10686 16.7017 9.04041 16.585 9.00428L16.6027 8.94697C16.738 8.98884 16.808 9.0694 16.8426 9.1674C16.8762 9.26241 16.8758 9.37292 16.8758 9.47363H16.8158ZM16.995 9.40872C16.9812 9.46538 16.9663 9.50857 16.9512 9.53921C16.9437 9.55452 16.9356 9.56752 16.9271 9.57769C16.9188 9.58751 16.9081 9.59688 16.8948 9.60118C16.8797 9.60606 16.8643 9.60337 16.8518 9.5942C16.8408 9.5861 16.8338 9.57432 16.8293 9.56324C16.82 9.54089 16.8158 9.50972 16.8158 9.47363H16.8758C16.8758 9.50654 16.8799 9.52862 16.8847 9.54039C16.8872 9.54637 16.8887 9.54688 16.8873 9.54585C16.8845 9.54377 16.8799 9.54295 16.8764 9.54408C16.8747 9.54463 16.8765 9.54461 16.8812 9.53901C16.8856 9.53376 16.8912 9.52529 16.8974 9.51266C16.9099 9.48743 16.9235 9.44889 16.9367 9.39454L16.995 9.40872ZM16.9504 9.691C16.9672 9.64785 16.9802 9.61363 16.9818 9.57314C16.9834 9.53332 16.9738 9.48461 16.939 9.41504L16.9927 9.38821C17.0306 9.464 17.0438 9.52282 17.0418 9.57549C17.0397 9.62748 17.0227 9.6707 17.0064 9.71271L16.9504 9.691ZM16.9187 9.78435C16.928 9.74893 16.9399 9.71822 16.9504 9.691L17.0064 9.71271C16.9957 9.74015 16.9851 9.76757 16.9769 9.7992L16.9187 9.78435ZM17.1095 9.718C17.1016 9.77197 17.0866 9.81394 17.0679 9.84445C17.0495 9.87441 17.0257 9.89584 16.9992 9.90306C16.9857 9.90676 16.9713 9.90668 16.9577 9.90145C16.9441 9.89619 16.9333 9.88649 16.9259 9.87428C16.9116 9.85054 16.9102 9.81848 16.9187 9.78435L16.9769 9.7992C16.9705 9.82507 16.9744 9.83845 16.9773 9.84321C16.9779 9.8443 16.9785 9.84486 16.9788 9.84511C16.9787 9.84507 16.979 9.84536 16.9788 9.84511C16.9789 9.84513 16.9805 9.84599 16.9834 9.84519C16.9899 9.84342 17.0029 9.83559 17.0168 9.81305C17.0303 9.79107 17.0431 9.75728 17.0502 9.70926L17.1095 9.718ZM17.037 10.0119C17.0594 9.97263 17.077 9.94107 17.083 9.89991C17.0889 9.85914 17.0836 9.80568 17.0519 9.72453L17.1078 9.70271C17.1418 9.7899 17.1502 9.85421 17.1424 9.90851C17.1346 9.96243 17.111 10.0032 17.0892 10.0416L17.037 10.0119ZM16.9788 10.1441C16.9932 10.0887 17.0167 10.0476 17.037 10.0119L17.0892 10.0416C17.0688 10.0774 17.049 10.1123 17.0369 10.1591L16.9788 10.1441ZM17.1981 10.0538C17.169 10.1344 17.1182 10.1905 17.0737 10.2141C17.0623 10.2201 17.0504 10.2246 17.0385 10.2263C17.0267 10.2279 17.0128 10.2271 17.0002 10.2196C16.9717 10.2028 16.972 10.1694 16.9788 10.1441L17.0369 10.1591C17.0317 10.1788 17.0395 10.1732 17.0307 10.168C17.0279 10.1663 17.0269 10.1673 17.0301 10.1668C17.0333 10.1664 17.0385 10.1649 17.0455 10.1611C17.0745 10.1458 17.1166 10.1028 17.1416 10.0335L17.1981 10.0538ZM17.1194 10.4074C17.1404 10.3685 17.1621 10.3274 17.171 10.2728C17.1798 10.2186 17.1762 10.1489 17.1416 10.0539L17.198 10.0334C17.2355 10.1364 17.2409 10.2166 17.2302 10.2824C17.2196 10.3479 17.1933 10.3969 17.1723 10.4359L17.1194 10.4074ZM17.1758 10.6436C17.1471 10.6436 17.1222 10.6348 17.1042 10.6165C17.0866 10.5986 17.0788 10.575 17.0769 10.5515C17.0732 10.5054 17.0914 10.4509 17.1206 10.4054L17.1711 10.4378C17.1463 10.4763 17.1344 10.5178 17.1367 10.5467C17.1379 10.5608 17.1421 10.5694 17.147 10.5744C17.1515 10.5789 17.1596 10.5836 17.1758 10.5836V10.6436ZM17.3843 10.4576C17.367 10.4942 17.3455 10.5402 17.3141 10.5767C17.2818 10.6143 17.2376 10.6436 17.1758 10.6436V10.5836C17.2156 10.5836 17.2444 10.5658 17.2686 10.5376C17.2937 10.5084 17.3121 10.47 17.3301 10.432L17.3843 10.4576ZM17.4278 10.3856C17.4279 10.3856 17.4279 10.3856 17.4278 10.3856C17.4276 10.3857 17.427 10.386 17.4259 10.3868C17.4234 10.3887 17.4198 10.3923 17.4151 10.399C17.4056 10.4127 17.3962 10.4324 17.3843 10.4576L17.3301 10.432C17.3412 10.4084 17.3529 10.3835 17.3658 10.3648C17.3781 10.3471 17.3979 10.3256 17.4278 10.3256V10.3856ZM17.8718 10.7816V12.1076H17.8118V10.7816H17.8718ZM17.6773 10.7554C17.7076 10.7386 17.7381 10.7291 17.7691 10.7291C17.8003 10.7291 17.8298 10.7387 17.8577 10.7562L17.8259 10.8071C17.8059 10.7946 17.7874 10.7891 17.7691 10.7891C17.7506 10.7891 17.7301 10.7947 17.7064 10.8078L17.6773 10.7554ZM17.6618 12.1076V10.7816H17.7218V12.1076H17.6618ZM17.8418 12.1376H17.6918V12.0776H17.8418V12.1376Z" fill="black"/>
<path fill-rule="evenodd" clip-rule="evenodd" d="M15.2372 12.1074V11.2434C15.2072 11.2194 15.1532 11.2254 15.1172 11.2434V12.1074H15.2372ZM17.4092 12.1074C17.4572 11.8494 17.6432 11.7354 17.8292 11.6394V12.1074H17.4092Z" fill="white"/>
<path d="M15.2379 11.2441L15.2567 11.2207L15.2679 11.2297V11.2441H15.2379ZM15.2379 12.1081H15.2679V12.1381H15.2379V12.1081ZM15.1179 11.2441H15.0879V11.2255L15.1045 11.2172L15.1179 11.2441ZM15.1179 12.1081V12.1381H15.0879V12.1081H15.1179ZM17.8299 11.6401L17.8162 11.6134L17.8599 11.5908V11.6401H17.8299ZM17.4099 12.1081V12.1381H17.3738L17.3804 12.1026L17.4099 12.1081ZM17.8299 12.1081H17.8599V12.1381H17.8299V12.1081ZM15.2679 11.2441V12.1081H15.2079V11.2441H15.2679ZM15.1045 11.2172C15.1263 11.2064 15.153 11.1992 15.1792 11.1983C15.2049 11.1975 15.234 11.2025 15.2567 11.2207L15.2192 11.2675C15.2119 11.2616 15.199 11.2577 15.1812 11.2583C15.1639 11.2589 15.1456 11.2638 15.1314 11.2709L15.1045 11.2172ZM15.0879 12.1081V11.2441H15.1479V12.1081H15.0879ZM15.2379 12.1381H15.1179V12.0781H15.2379V12.1381ZM17.8437 11.6667C17.6583 11.7624 17.4846 11.8707 17.4394 12.1136L17.3804 12.1026C17.4313 11.8295 17.6296 11.7097 17.8162 11.6134L17.8437 11.6667ZM17.7999 12.1081V11.6401H17.8599V12.1081H17.7999ZM17.4099 12.0781H17.8299V12.1381H17.4099V12.0781Z" fill="black"/>
<path fill-rule="evenodd" clip-rule="evenodd" d="M16.2452 9.52809L16.3532 9.61809H16.6232L16.7312 9.52209V9.40209C16.6892 9.41409 16.6712 9.42009 16.6412 9.46209C16.6149 9.38538 16.5586 9.32262 16.4852 9.28809C16.4129 9.32527 16.3588 9.39023 16.3352 9.46809C16.3052 9.42609 16.2812 9.40809 16.2452 9.40809V9.52809ZM15.5372 12.1021C15.4892 11.8381 15.3032 11.7301 15.1172 11.6401V12.1021H15.5372Z" fill="white"/>
<path d="M16.3539 9.61832V9.64832H16.3431L16.3347 9.64136L16.3539 9.61832ZM16.2459 9.52832L16.2267 9.55136L16.2159 9.54237V9.52832H16.2459ZM16.6239 9.61832L16.6439 9.64074L16.6353 9.64832H16.6239V9.61832ZM16.7319 9.52232H16.7619V9.53579L16.7519 9.54474L16.7319 9.52232ZM16.7319 9.40232L16.7237 9.37347L16.7619 9.36254V9.40232H16.7319ZM16.6419 9.46232L16.6663 9.47975L16.6325 9.52716L16.6136 9.47206L16.6419 9.46232ZM16.4859 9.28832L16.4722 9.26164L16.4853 9.25488L16.4987 9.26117L16.4859 9.28832ZM16.3359 9.46832L16.3647 9.477L16.347 9.53541L16.3115 9.48575L16.3359 9.46832ZM16.2459 9.40832H16.2159V9.37832H16.2459V9.40832ZM15.1179 11.6403H15.0879V11.5924L15.131 11.6133L15.1179 11.6403ZM15.5379 12.1023L15.5674 12.0969L15.5739 12.1323H15.5379V12.1023ZM15.1179 12.1023V12.1323H15.0879V12.1023H15.1179ZM16.3347 9.64136L16.2267 9.55136L16.2651 9.50527L16.3731 9.59527L16.3347 9.64136ZM16.6239 9.64832H16.3539V9.58832H16.6239V9.64832ZM16.7519 9.54474L16.6439 9.64074L16.604 9.59589L16.712 9.49989L16.7519 9.54474ZM16.7619 9.40232V9.52232H16.7019V9.40232H16.7619ZM16.6175 9.44488C16.6337 9.42217 16.6485 9.40664 16.6668 9.39547C16.6843 9.38474 16.7034 9.37928 16.7237 9.37347L16.7402 9.43116C16.7185 9.43735 16.7075 9.44089 16.6981 9.44666C16.6894 9.45199 16.6801 9.46046 16.6663 9.47975L16.6175 9.44488ZM16.4987 9.26117C16.5794 9.29915 16.6413 9.3682 16.6703 9.45257L16.6136 9.47206C16.5899 9.40303 16.5392 9.34654 16.4732 9.31546L16.4987 9.26117ZM16.3072 9.45964C16.3331 9.374 16.3927 9.30254 16.4722 9.26164L16.4997 9.315C16.4346 9.34846 16.3858 9.40693 16.3647 9.477L16.3072 9.45964ZM16.2459 9.37832C16.2697 9.37832 16.2906 9.38447 16.3101 9.39781C16.3287 9.4105 16.3446 9.42884 16.3603 9.45088L16.3115 9.48575C16.2973 9.46579 16.2862 9.45413 16.2762 9.44733C16.2672 9.44116 16.2582 9.43832 16.2459 9.43832V9.37832ZM16.2159 9.52832V9.40832H16.2759V9.52832H16.2159ZM15.131 11.6133C15.3179 11.7037 15.5166 11.8174 15.5674 12.0969L15.5084 12.1077C15.4632 11.8592 15.29 11.7569 15.1049 11.6673L15.131 11.6133ZM15.0879 12.1023V11.6403H15.1479V12.1023H15.0879ZM15.5379 12.1323H15.1179V12.0723H15.5379V12.1323Z" fill="black"/>
<path d="M16.2941 9.91134L16.2461 9.79734V9.64734C16.2821 9.64734 16.3061 9.66534 16.3361 9.70734C16.3597 9.62948 16.4138 9.56452 16.4861 9.52734C16.5595 9.56187 16.6158 9.62463 16.6421 9.70134C16.6721 9.65934 16.6901 9.65334 16.7321 9.64734V9.79734L16.6841 9.91134H16.2941Z" fill="white" stroke="black" stroke-width="0.0806556"/>
<path d="M16.283 10.3081L16.127 10.1101V9.91813C16.187 9.91813 16.217 9.94813 16.259 10.0141C16.301 9.87613 16.379 9.85213 16.487 9.78613C16.601 9.84613 16.679 9.87613 16.715 10.0081C16.763 9.94213 16.793 9.92413 16.853 9.91813V10.1101L16.691 10.3081H16.283Z" fill="white" stroke="black" stroke-width="0.0806556"/>
<path d="M16.241 10.6988C16.241 10.6988 16.049 10.5368 16.043 10.4468V10.2368C16.115 10.2428 16.181 10.2608 16.235 10.3508C16.283 10.1768 16.355 10.1288 16.487 10.0508C16.625 10.1288 16.697 10.1768 16.739 10.3508C16.799 10.2608 16.859 10.2428 16.937 10.2308V10.4468C16.8866 10.542 16.8196 10.6274 16.739 10.6988H16.241Z" fill="white" stroke="black" stroke-width="0.0806556"/>
<path d="M16.1626 11.4172C16.1626 11.4172 15.8986 11.1352 15.8926 11.0212V10.6972C15.9886 10.7092 16.0846 10.7752 16.1566 10.9132C16.2166 10.6432 16.3126 10.4572 16.4866 10.3252C16.6666 10.4572 16.7626 10.6432 16.8226 10.9132C16.8946 10.7752 16.9846 10.7092 17.0806 10.6972V11.0212C17.0626 11.1352 16.8166 11.4172 16.8166 11.4172H16.1626Z" fill="white" stroke="black" stroke-width="0.0806556"/>
<path d="M16.1626 11.8453C16.1626 11.8453 15.9406 11.6233 15.8926 11.5273V11.2033C15.9886 11.2153 16.0846 11.2813 16.1566 11.4133C16.1891 11.1928 16.3078 10.9942 16.4866 10.8613C16.6666 10.9933 16.7626 11.1433 16.8226 11.4133C16.8946 11.2813 16.9846 11.2153 17.0806 11.2033V11.5273C17.0206 11.6233 16.8166 11.8453 16.8166 11.8453H16.1626Z" fill="white" stroke="black" stroke-width="0.0806556"/>
<path d="M16.0723 12.0946C16.1323 11.8126 16.1923 11.6026 16.4983 11.3926C16.8103 11.6026 16.8643 11.8126 16.9303 12.0946H16.0723Z" fill="white" stroke="black" stroke-width="0.0806556"/>
<path d="M15.9102 12.2533V11.8453C16.0542 11.9053 16.1802 11.9833 16.2282 12.0733C16.2762 11.8453 16.3782 11.7493 16.5042 11.6113C16.6302 11.7493 16.7142 11.8513 16.7682 12.0733C16.8162 11.9833 16.9422 11.8993 17.0802 11.8453V12.2533H15.9102Z" fill="white" stroke="black" stroke-width="0.0806556"/>
<path fill-rule="evenodd" clip-rule="evenodd" d="M18.58 14.4297H5.41595V14.9157H18.58V14.4297ZM4.64195 15.5577H19.36V16.3077H19.75V17.0577H4.25195V16.3077H4.64195V15.5577Z" fill="white"/>
<path d="M5.41666 14.4294V14.3994H5.38666V14.4294H5.41666ZM18.5807 14.4294H18.6107V14.3994H18.5807V14.4294ZM5.41666 14.9154H5.38666V14.9454H5.41666V14.9154ZM18.5807 14.9154V14.9454H18.6107V14.9154H18.5807ZM19.3607 15.5574H19.3907V15.5274H19.3607V15.5574ZM4.64266 15.5574V15.5274H4.61266V15.5574H4.64266ZM19.3607 16.3074H19.3307V16.3374H19.3607V16.3074ZM19.7507 16.3074H19.7807V16.2774H19.7507V16.3074ZM19.7507 17.0574V17.0874H19.7807V17.0574H19.7507ZM4.25266 17.0574H4.22266V17.0874H4.25266V17.0574ZM4.25266 16.3074V16.2774H4.22266V16.3074H4.25266ZM4.64266 16.3074V16.3374H4.67266V16.3074H4.64266ZM5.41666 14.4594H18.5807V14.3994H5.41666V14.4594ZM5.44666 14.9154V14.4294H5.38666V14.9154H5.44666ZM18.5807 14.8854H5.41666V14.9454H18.5807V14.8854ZM18.5507 14.4294V14.9154H18.6107V14.4294H18.5507ZM19.3607 15.5274H4.64266V15.5874H19.3607V15.5274ZM19.3907 16.3074V15.5574H19.3307V16.3074H19.3907ZM19.7507 16.2774H19.3607V16.3374H19.7507V16.2774ZM19.7807 17.0574V16.3074H19.7207V17.0574H19.7807ZM4.25266 17.0874H19.7507V17.0274H4.25266V17.0874ZM4.22266 16.3074V17.0574H4.28266V16.3074H4.22266ZM4.64266 16.2774H4.25266V16.3374H4.64266V16.2774ZM4.61266 15.5574V16.3074H4.67266V15.5574H4.61266Z" fill="black"/>
<path fill-rule="evenodd" clip-rule="evenodd" d="M18.3633 14.0576H5.64325V14.4296H18.3633V14.0576ZM18.9753 14.9156H5.03125V15.5516H18.9753V14.9156Z" fill="white"/>
<path d="M5.64395 14.0583V14.0283H5.61395V14.0583H5.64395ZM18.364 14.0583H18.394V14.0283H18.364V14.0583ZM5.64395 14.4303H5.61395V14.4603H5.64395V14.4303ZM18.364 14.4303V14.4603H18.394V14.4303H18.364ZM5.03195 14.9163V14.8863H5.00195V14.9163H5.03195ZM18.976 14.9163H19.006V14.8863H18.976V14.9163ZM5.03195 15.5523H5.00195V15.5823H5.03195V15.5523ZM18.976 15.5523V15.5823H19.006V15.5523H18.976ZM5.64395 14.0883H18.364V14.0283H5.64395V14.0883ZM5.67395 14.4303V14.0583H5.61395V14.4303H5.67395ZM18.364 14.4003H5.64395V14.4603H18.364V14.4003ZM18.334 14.0583V14.4303H18.394V14.0583H18.334ZM5.03195 14.9463H18.976V14.8863H5.03195V14.9463ZM5.06195 15.5523V14.9163H5.00195V15.5523H5.06195ZM18.976 15.5223H5.03195V15.5823H18.976V15.5223ZM18.946 14.9163V15.5523H19.006V14.9163H18.946Z" fill="black"/>
<path d="M7.02344 14.0576H7.98344V17.0576H7.02344V14.0576Z" fill="white" stroke="black" stroke-width="0.0806556"/>
<path fill-rule="evenodd" clip-rule="evenodd" d="M7.77437 14.0576H7.24037L7.23438 17.0576H7.77437V14.0576ZM12.4604 14.0576H11.5004V17.0576H12.4604V14.0576Z" fill="white"/>
<path d="M7.23922 14.0583V14.0283H7.20922V14.0582L7.23922 14.0583ZM7.77322 14.0583H7.80322V14.0283H7.77322V14.0583ZM7.23322 17.0583L7.20323 17.0582L7.20312 17.0883H7.23322V17.0583ZM7.77322 17.0583V17.0883H7.80322V17.0583H7.77322ZM11.4992 14.0583V14.0283H11.4692V14.0583H11.4992ZM12.4592 14.0583H12.4892V14.0283H12.4592V14.0583ZM11.4992 17.0583H11.4692V17.0883H11.4992V17.0583ZM12.4592 17.0583V17.0883H12.4892V17.0583H12.4592ZM7.23922 14.0883H7.77322V14.0283H7.23922V14.0883ZM7.26322 17.0583L7.26923 14.0583L7.20922 14.0582L7.20323 17.0582L7.26322 17.0583ZM7.77322 17.0283H7.23322V17.0883H7.77322V17.0283ZM7.74323 14.0583V17.0583H7.80322V14.0583H7.74323ZM11.4992 14.0883H12.4592V14.0283H11.4992V14.0883ZM11.5292 17.0583V14.0583H11.4692V17.0583H11.5292ZM12.4592 17.0283H11.4992V17.0883H12.4592V17.0283ZM12.4292 14.0583V17.0583H12.4892V14.0583H12.4292Z" fill="black"/>
<path fill-rule="evenodd" clip-rule="evenodd" d="M12.2627 14.0576H11.7227V17.0576H12.2627V14.0576ZM16.9727 14.0576H16.0127V17.0576H16.9727V14.0576Z" fill="white"/>
<path d="M11.7214 14.0583V14.0283H11.6914V14.0583H11.7214ZM12.2614 14.0583H12.2914V14.0283H12.2614V14.0583ZM11.7214 17.0583H11.6914V17.0883H11.7214V17.0583ZM12.2614 17.0583V17.0883H12.2914V17.0583H12.2614ZM16.0114 14.0583V14.0283H15.9814V14.0583H16.0114ZM16.9714 14.0583H17.0014V14.0283H16.9714V14.0583ZM16.0114 17.0583H15.9814V17.0883H16.0114V17.0583ZM16.9714 17.0583V17.0883H17.0014V17.0583H16.9714ZM11.7214 14.0883H12.2614V14.0283H11.7214V14.0883ZM11.7514 17.0583V14.0583H11.6914V17.0583H11.7514ZM12.2614 17.0283H11.7214V17.0883H12.2614V17.0283ZM12.2314 14.0583V17.0583H12.2914V14.0583H12.2314ZM16.0114 14.0883H16.9714V14.0283H16.0114V14.0883ZM16.0414 17.0583V14.0583H15.9814V17.0583H16.0414ZM16.9714 17.0283H16.0114V17.0883H16.9714V17.0283ZM16.9414 14.0583V17.0583H17.0014V14.0583H16.9414Z" fill="black"/>
<path d="M16.2207 14.0576H16.7607V17.0576H16.2207V14.0576Z" fill="white" stroke="black" stroke-width="0.0806556"/>
<path d="M6.2207 13.8012H17.8007V13.7412H6.2207V13.8012ZM7.2287 16.7292H7.7807V16.6692H7.2287V16.7292ZM7.2287 16.3512H7.7807V16.2912H7.2287V16.3512ZM7.2287 15.9792H7.7807V15.9192H7.2287V15.9792ZM7.2287 15.6012H7.7807V15.5412H7.2287V15.6012ZM7.2287 15.2292H7.7807V15.1692H7.2287V15.2292ZM7.2287 14.8512H7.7807V14.7912H7.2287V14.8512ZM7.2287 14.4792H7.7807V14.4192H7.2287V14.4792ZM11.7287 16.7292H12.2447V16.6692H11.7287V16.7292ZM11.7287 16.3512H12.2447V16.2912H11.7287V16.3512ZM11.7287 15.9792H12.2447V15.9192H11.7287V15.9792ZM11.7287 15.6012H12.2447V15.5412H11.7287V15.6012ZM11.7287 15.2292H12.2447V15.1692H11.7287V15.2292ZM11.7287 14.8512H12.2447V14.7912H11.7287V14.8512ZM11.7287 14.4792H12.2447V14.4192H11.7287V14.4792ZM16.2167 16.7292H16.7687V16.6692H16.2167V16.7292ZM16.2167 16.3512H16.7687V16.2912H16.2167V16.3512ZM16.2167 15.9792H16.7687V15.9192H16.2167V15.9792ZM16.2167 15.6012H16.7687V15.5412H16.2167V15.6012ZM16.2167 15.2292H16.7687V15.1692H16.2167V15.2292ZM16.2167 14.8512H16.7687V14.7912H16.2167V14.8512ZM16.2167 14.4792H16.7687V14.4192H16.2167V14.4792Z" fill="black"/>
</g>
</g>
</svg>
