<svg width="13" height="12" viewBox="0 0 13 12" fill="none" xmlns="http://www.w3.org/2000/svg">
<g id="bx:map">
<path id="Vector" d="M6.45313 7C7.55613 7 8.45313 6.103 8.45313 5C8.45313 3.897 7.55613 3 6.45313 3C5.35013 3 4.45312 3.897 4.45312 5C4.45312 6.103 5.35013 7 6.45313 7ZM6.45313 4C7.00463 4 7.45313 4.4485 7.45313 5C7.45313 5.5515 7.00463 6 6.45313 6C5.90163 6 5.45313 5.5515 5.45313 5C5.45313 4.4485 5.90163 4 6.45313 4Z" fill="#AAAAAA"/>
<path id="Vector_2" d="M6.16317 10.907C6.24779 10.9674 6.34918 10.9999 6.45317 10.9999C6.55716 10.9999 6.65855 10.9674 6.74317 10.907C6.89517 10.7995 10.4677 8.22 10.4532 5C10.4532 2.7945 8.65867 1 6.45317 1C4.24767 1 2.45317 2.7945 2.45317 4.9975C2.43867 8.22 6.01117 10.7995 6.16317 10.907ZM6.45317 2C8.10767 2 9.45317 3.3455 9.45317 5.0025C9.46367 7.2215 7.25917 9.214 6.45317 9.8675C5.64767 9.2135 3.44267 7.2205 3.45317 5C3.45317 3.3455 4.79867 2 6.45317 2Z" fill="#AAAAAA"/>
</g>
</svg>
