<svg width="80" height="80" viewBox="0 0 80 80" fill="none" xmlns="http://www.w3.org/2000/svg">
<g id="icon">
<g id="image">
<g id="icon_2">
<g id="Group">
<g id="Group_2">
<g id="Group_3">
<path id="Vector" d="M24.2227 16.8594V19.2831" stroke="#999999" stroke-width="2" stroke-linecap="round" stroke-linejoin="round"/>
<path id="Vector_2" d="M24.2227 31.4219V33.8456" stroke="#999999" stroke-width="2" stroke-linecap="round" stroke-linejoin="round"/>
<path id="Vector_3" d="M24.8355 25.3538H23.6192C21.9392 25.3538 20.5742 23.9887 20.5742 22.3175C20.5742 20.6462 21.948 19.2812 23.6192 19.2812H24.8355C26.5155 19.2812 27.8805 20.6462 27.8805 22.3175" stroke="#999999" stroke-width="2" stroke-linecap="round" stroke-linejoin="round"/>
<path id="Vector_4" d="M23.6192 25.3516H24.8355C26.5155 25.3516 27.8805 26.7166 27.8805 28.3878C27.8805 30.0591 26.5067 31.4241 24.8355 31.4241H23.6192C21.9392 31.4241 20.5742 30.0591 20.5742 28.3878" stroke="#999999" stroke-width="2" stroke-linecap="round" stroke-linejoin="round"/>
</g>
<g id="Group_4">
<path id="Vector_5" d="M16.5762 49.25H23.6899" stroke="#999999" stroke-width="2" stroke-linecap="round" stroke-linejoin="round"/>
<path id="Vector_6" d="M29.2539 49.25H41.2327" stroke="#999999" stroke-width="2" stroke-linecap="round" stroke-linejoin="round"/>
</g>
<g id="Group_5">
<path id="Vector_7" d="M14.2832 55.7188H22.7182" stroke="#999999" stroke-width="2" stroke-linecap="round" stroke-linejoin="round"/>
<path id="Vector_8" d="M29.3242 55.7188H43.5255" stroke="#999999" stroke-width="2" stroke-linecap="round" stroke-linejoin="round"/>
</g>
<path id="Vector_9" d="M69.7056 63.1944L70.9043 68.5931C71.1318 69.6344 70.2568 70.6056 69.0931 70.6056H6.95933C5.78683 70.6056 4.91183 69.6344 5.14808 68.5931L11.1856 41.3281H41.2418" stroke="#999999" stroke-width="2" stroke-linecap="round" stroke-linejoin="round"/>
<path id="Vector_10" d="M64.8667 25.3594V11.1406C64.8667 10.1781 64.0355 9.39062 63.0117 9.39062H13.1017C12.078 9.39062 11.2555 10.1694 11.2467 11.1406L11.168 41.3369H41.2242" stroke="#999999" stroke-width="2" stroke-linecap="round" stroke-linejoin="round"/>
</g>
<g id="Group_6">
<path id="Vector_11" d="M61 58.375C68.735 58.375 75 52.11 75 44.375C75 36.64 68.735 30.375 61 30.375C53.265 30.375 47 36.64 47 44.375C47 52.11 53.265 58.375 61 58.375Z" stroke="#0067AC" stroke-width="2" stroke-linecap="round" stroke-linejoin="round"/>
<path id="Vector_12" d="M68.7085 39.5078L58.9698 49.2466L53.291 43.5503" stroke="#0067AC" stroke-width="2" stroke-linecap="round" stroke-linejoin="round"/>
</g>
</g>
</g>
</g>
</g>
</svg>
