<svg width="24" height="24" viewBox="0 0 24 24" fill="none" xmlns="http://www.w3.org/2000/svg">
<g opacity="0.4">
<rect width="24" height="24" rx="12" fill="white"/>
<path d="M15.0932 10.6474L16.3065 9.43411L17.1066 10.2341C17.2866 10.4141 17.5799 10.4141 17.7599 10.2341L18.4466 9.54745C18.6266 9.36745 18.6266 9.07411 18.4466 8.89411L15.1132 5.56078C14.9332 5.38078 14.6399 5.38078 14.4599 5.56078L13.7732 6.24745C13.5932 6.42745 13.5932 6.72078 13.7732 6.90078L14.5599 7.68745L13.3465 8.90078C11.2465 7.92745 9.53988 8.10078 7.71988 9.70745C7.59321 9.82078 7.5932 10.0208 7.7132 10.1474L13.8599 16.2941C13.9799 16.4141 14.1932 16.4141 14.3065 16.2874C15.8999 14.4741 16.0732 12.7541 15.0999 10.6608L15.0932 10.6474Z" stroke="#574D42" stroke-linecap="round" stroke-linejoin="round"/>
<path d="M10.7866 13.2148L5.41992 18.5815" stroke="#574D42" stroke-linecap="round" stroke-linejoin="round"/>
</g>
</svg>
