<svg width="24" height="24" viewBox="0 0 24 24" fill="none" xmlns="http://www.w3.org/2000/svg">
<rect width="24" height="24" fill="#F9A01B"/>
<path fill-rule="evenodd" clip-rule="evenodd" d="M6.01089 19.9998H4.00052C3.92168 10.3816 12.791 3.44384 20.2806 4.03513V5.96666C16.4569 6.12434 13.1063 7.38575 10.347 10.1057C7.62708 12.8256 6.24741 16.1368 6.01089 19.9998Z" fill="white"/>
<path fill-rule="evenodd" clip-rule="evenodd" d="M20.2807 7.62225V9.55378C14.4466 9.90855 10.2682 13.7322 9.55868 19.9998H7.70598C7.15411 14.56 12.6728 7.30689 20.2807 7.62225Z" fill="white"/>
<path fill-rule="evenodd" clip-rule="evenodd" d="M20.2804 11.2091V13.2195C16.2202 13.6531 13.8156 15.8606 13.2244 19.9602H11.3717C10.3862 16.0577 15.4712 10.9726 20.2804 11.2091Z" fill="white"/>
<path fill-rule="evenodd" clip-rule="evenodd" d="M20.281 16.8465C18.3889 17.083 17.2458 18.1474 16.8516 20.0001H14.8806C14.8018 17.2013 17.4429 14.6785 20.281 14.8756V16.8465Z" fill="white"/>
</svg>
