<svg width="80" height="80" viewBox="0 0 80 80" fill="none" xmlns="http://www.w3.org/2000/svg">
<g id="icon" clip-path="url(#clip0_522_1184)">
<g id="Group">
<path id="Vector" d="M7.52 9.75H72.48C73.87 9.75 75 10.9 75 12.33V55.64C75 57.07 73.87 58.22 72.48 58.22H7.52C6.13 58.22 5 57.07 5 55.64V12.34C5 10.91 6.13 9.76 7.52 9.76V9.75Z" fill="white" stroke="#999999" stroke-width="2" stroke-linecap="round" stroke-linejoin="round"/>
<g id="Group_2">
<path id="Vector_2" d="M33.5918 58.2266V70.2366" stroke="#999999" stroke-width="2" stroke-linecap="round" stroke-linejoin="round"/>
<path id="Vector_3" d="M55.5409 70.2344H24.4609" stroke="#999999" stroke-width="2" stroke-linecap="round" stroke-linejoin="round"/>
<path id="Vector_4" d="M47.5 58.2266V70.2366" stroke="#999999" stroke-width="2" stroke-linecap="round" stroke-linejoin="round"/>
</g>
<g id="Group_3">
<path id="Vector_5" d="M40 48C47.74 48 54 41.74 54 34C54 26.26 47.74 20 40 20C32.26 20 26 26.26 26 34C26 41.74 32.26 48 40 48Z" stroke="#0067AC" stroke-width="2" stroke-linecap="round" stroke-linejoin="round"/>
<g id="Group_4">
<path id="Vector_6" d="M35 39L45 29" stroke="#0067AC" stroke-width="2" stroke-linecap="round" stroke-linejoin="round"/>
<path id="Vector_7" d="M35 29L45 39" stroke="#0067AC" stroke-width="2" stroke-linecap="round" stroke-linejoin="round"/>
</g>
</g>
</g>
</g>
<defs>
<clipPath id="clip0_522_1184">
<rect width="80" height="80" fill="white"/>
</clipPath>
</defs>
</svg>
