<svg width="412" height="285" viewBox="0 0 412 285" fill="none" xmlns="http://www.w3.org/2000/svg">
<path d="M399 0.75H13C6.23451 0.75 0.75 6.23451 0.75 13V272C0.75 278.765 6.2345 284.25 13 284.25H399C405.766 284.25 411.25 278.766 411.25 272V13C411.25 6.23451 405.766 0.75 399 0.75Z" fill="white" stroke="#EBEBEB" stroke-width="0.5" stroke-linecap="square"/>
<path d="M356.439 169.256C355.462 169.252 354.621 169.011 353.917 168.534C353.216 168.057 352.676 167.366 352.297 166.46C351.922 165.555 351.737 164.466 351.741 163.193C351.741 161.924 351.928 160.843 352.303 159.949C352.682 159.055 353.222 158.375 353.922 157.909C354.627 157.439 355.466 157.205 356.439 157.205C357.413 157.205 358.25 157.439 358.951 157.909C359.655 158.379 360.197 159.061 360.576 159.955C360.955 160.845 361.142 161.924 361.138 163.193C361.138 164.47 360.949 165.561 360.57 166.466C360.195 167.371 359.657 168.062 358.957 168.54C358.256 169.017 357.417 169.256 356.439 169.256ZM356.439 167.216C357.106 167.216 357.638 166.881 358.036 166.21C358.434 165.54 358.631 164.534 358.627 163.193C358.627 162.311 358.536 161.576 358.354 160.989C358.176 160.402 357.922 159.96 357.593 159.665C357.267 159.369 356.883 159.222 356.439 159.222C355.777 159.222 355.246 159.553 354.849 160.216C354.451 160.879 354.25 161.871 354.246 163.193C354.246 164.087 354.335 164.833 354.513 165.432C354.695 166.027 354.951 166.473 355.28 166.773C355.61 167.068 355.996 167.216 356.439 167.216Z" fill="#1D8CFC"/>
<path d="M371.802 160.273H373.647V165.94C373.647 166.577 373.495 167.134 373.191 167.611C372.89 168.088 372.468 168.46 371.925 168.727C371.383 168.991 370.751 169.124 370.029 169.124C369.305 169.124 368.671 168.991 368.128 168.727C367.586 168.46 367.164 168.088 366.863 167.611C366.562 167.134 366.411 166.577 366.411 165.94V160.273H368.256V165.783C368.256 166.115 368.329 166.411 368.474 166.669C368.621 166.928 368.829 167.131 369.096 167.278C369.363 167.426 369.674 167.5 370.029 167.5C370.387 167.5 370.698 167.426 370.962 167.278C371.229 167.131 371.435 166.928 371.58 166.669C371.728 166.411 371.802 166.115 371.802 165.783V160.273ZM379.899 162.783C379.865 162.439 379.719 162.172 379.46 161.982C379.202 161.791 378.851 161.696 378.408 161.696C378.107 161.696 377.852 161.739 377.645 161.824C377.438 161.906 377.279 162.021 377.168 162.169C377.06 162.317 377.006 162.484 377.006 162.672C377 162.828 377.033 162.964 377.104 163.081C377.178 163.197 377.279 163.298 377.406 163.384C377.534 163.466 377.682 163.538 377.85 163.601C378.017 163.661 378.196 163.712 378.387 163.754L379.171 163.942C379.551 164.027 379.901 164.141 380.219 164.283C380.537 164.425 380.813 164.599 381.046 164.807C381.279 165.014 381.459 165.259 381.587 165.54C381.718 165.821 381.784 166.143 381.787 166.507C381.784 167.041 381.648 167.504 381.378 167.896C381.111 168.286 380.725 168.588 380.219 168.804C379.716 169.017 379.11 169.124 378.399 169.124C377.695 169.124 377.081 169.016 376.558 168.8C376.039 168.584 375.632 168.264 375.34 167.841C375.05 167.415 374.898 166.888 374.884 166.26H376.669C376.689 166.553 376.773 166.797 376.921 166.993C377.071 167.186 377.271 167.332 377.521 167.432C377.774 167.528 378.06 167.577 378.378 167.577C378.691 167.577 378.962 167.531 379.192 167.44C379.425 167.349 379.605 167.223 379.733 167.061C379.861 166.899 379.925 166.713 379.925 166.503C379.925 166.307 379.867 166.142 379.75 166.009C379.637 165.875 379.469 165.761 379.247 165.668C379.029 165.574 378.76 165.489 378.442 165.412L377.492 165.173C376.756 164.994 376.175 164.714 375.749 164.334C375.323 163.953 375.111 163.44 375.114 162.795C375.111 162.267 375.252 161.805 375.536 161.411C375.823 161.016 376.216 160.707 376.716 160.486C377.216 160.264 377.784 160.153 378.421 160.153C379.068 160.153 379.634 160.264 380.117 160.486C380.602 160.707 380.98 161.016 381.25 161.411C381.52 161.805 381.659 162.263 381.668 162.783H379.899ZM386.122 169H383.028V160.273H386.148C387.025 160.273 387.781 160.447 388.415 160.797C389.048 161.143 389.535 161.642 389.876 162.293C390.22 162.943 390.392 163.722 390.392 164.628C390.392 165.537 390.22 166.318 389.876 166.972C389.535 167.625 389.045 168.126 388.406 168.476C387.77 168.825 387.008 169 386.122 169ZM384.873 167.419H386.045C386.591 167.419 387.05 167.322 387.422 167.129C387.797 166.933 388.078 166.631 388.265 166.222C388.456 165.81 388.551 165.278 388.551 164.628C388.551 163.983 388.456 163.456 388.265 163.047C388.078 162.638 387.798 162.337 387.426 162.143C387.054 161.95 386.595 161.854 386.05 161.854H384.873V167.419Z" fill="#888888"/>
<path d="M115.605 169H113.298L116.813 158.818H119.587L123.097 169H120.79L118.24 161.145H118.16L115.605 169ZM115.461 164.998H120.909V166.678H115.461V164.998ZM127.377 169.149C126.595 169.149 125.922 168.983 125.359 168.652C124.799 168.317 124.368 167.853 124.066 167.26C123.768 166.667 123.619 165.984 123.619 165.212C123.619 164.429 123.77 163.743 124.071 163.153C124.376 162.56 124.809 162.098 125.369 161.766C125.929 161.432 126.595 161.264 127.368 161.264C128.034 161.264 128.617 161.385 129.118 161.627C129.618 161.869 130.014 162.209 130.306 162.646C130.597 163.084 130.758 163.598 130.788 164.188H128.789C128.733 163.806 128.584 163.5 128.342 163.268C128.103 163.032 127.79 162.915 127.402 162.915C127.074 162.915 126.788 163.004 126.542 163.183C126.3 163.359 126.111 163.616 125.975 163.954C125.84 164.292 125.772 164.701 125.772 165.182C125.772 165.669 125.838 166.083 125.971 166.425C126.106 166.766 126.297 167.026 126.542 167.205C126.788 167.384 127.074 167.474 127.402 167.474C127.644 167.474 127.861 167.424 128.054 167.325C128.249 167.225 128.41 167.081 128.536 166.892C128.665 166.7 128.75 166.469 128.789 166.201H130.788C130.755 166.784 130.596 167.298 130.311 167.742C130.029 168.183 129.64 168.528 129.142 168.776C128.645 169.025 128.057 169.149 127.377 169.149ZM135.594 169.149C134.812 169.149 134.139 168.983 133.576 168.652C133.016 168.317 132.585 167.853 132.283 167.26C131.985 166.667 131.836 165.984 131.836 165.212C131.836 164.429 131.987 163.743 132.288 163.153C132.593 162.56 133.026 162.098 133.586 161.766C134.146 161.432 134.812 161.264 135.584 161.264C136.251 161.264 136.834 161.385 137.334 161.627C137.835 161.869 138.231 162.209 138.523 162.646C138.814 163.084 138.975 163.598 139.005 164.188H137.006C136.95 163.806 136.801 163.5 136.559 163.268C136.32 163.032 136.007 162.915 135.619 162.915C135.291 162.915 135.004 163.004 134.759 163.183C134.517 163.359 134.328 163.616 134.192 163.954C134.056 164.292 133.988 164.701 133.988 165.182C133.988 165.669 134.055 166.083 134.187 166.425C134.323 166.766 134.514 167.026 134.759 167.205C135.004 167.384 135.291 167.474 135.619 167.474C135.861 167.474 136.078 167.424 136.27 167.325C136.466 167.225 136.627 167.081 136.753 166.892C136.882 166.7 136.966 166.469 137.006 166.201H139.005C138.972 166.784 138.813 167.298 138.528 167.742C138.246 168.183 137.856 168.528 137.359 168.776C136.862 169.025 136.274 169.149 135.594 169.149ZM143.811 169.149C143.039 169.149 142.371 168.985 141.808 168.657C141.247 168.326 140.815 167.865 140.51 167.275C140.205 166.682 140.053 165.994 140.053 165.212C140.053 164.423 140.205 163.733 140.51 163.143C140.815 162.55 141.247 162.089 141.808 161.761C142.371 161.43 143.039 161.264 143.811 161.264C144.583 161.264 145.25 161.43 145.81 161.761C146.373 162.089 146.807 162.55 147.112 163.143C147.417 163.733 147.57 164.423 147.57 165.212C147.57 165.994 147.417 166.682 147.112 167.275C146.807 167.865 146.373 168.326 145.81 168.657C145.25 168.985 144.583 169.149 143.811 169.149ZM143.821 167.509C144.172 167.509 144.466 167.409 144.701 167.21C144.936 167.008 145.114 166.733 145.233 166.385C145.356 166.037 145.417 165.641 145.417 165.197C145.417 164.753 145.356 164.357 145.233 164.009C145.114 163.661 144.936 163.385 144.701 163.183C144.466 162.981 144.172 162.88 143.821 162.88C143.466 162.88 143.168 162.981 142.926 163.183C142.688 163.385 142.507 163.661 142.384 164.009C142.265 164.357 142.205 164.753 142.205 165.197C142.205 165.641 142.265 166.037 142.384 166.385C142.507 166.733 142.688 167.008 142.926 167.21C143.168 167.409 143.466 167.509 143.821 167.509ZM153.844 165.749V161.364H155.962V169H153.928V167.613H153.849C153.676 168.06 153.39 168.42 152.989 168.692C152.591 168.964 152.105 169.099 151.532 169.099C151.022 169.099 150.572 168.983 150.185 168.751C149.797 168.519 149.494 168.19 149.275 167.762C149.059 167.335 148.95 166.822 148.947 166.226V161.364H151.065V165.848C151.068 166.299 151.189 166.655 151.428 166.917C151.666 167.179 151.986 167.31 152.387 167.31C152.642 167.31 152.881 167.252 153.103 167.136C153.325 167.016 153.504 166.841 153.64 166.609C153.779 166.377 153.847 166.09 153.844 165.749ZM159.774 164.585V169H157.656V161.364H159.674V162.711H159.764C159.933 162.267 160.216 161.915 160.614 161.657C161.012 161.395 161.494 161.264 162.061 161.264C162.591 161.264 163.053 161.38 163.448 161.612C163.842 161.844 164.149 162.176 164.367 162.607C164.586 163.034 164.695 163.545 164.695 164.138V169H162.578V164.516C162.581 164.048 162.462 163.684 162.22 163.422C161.978 163.157 161.645 163.024 161.22 163.024C160.935 163.024 160.683 163.085 160.465 163.208C160.249 163.331 160.08 163.51 159.958 163.745C159.838 163.977 159.777 164.257 159.774 164.585ZM170.426 161.364V162.955H165.828V161.364H170.426ZM166.872 159.534H168.99V166.653C168.99 166.849 169.02 167.001 169.079 167.111C169.139 167.217 169.222 167.291 169.328 167.335C169.437 167.378 169.563 167.399 169.706 167.399C169.805 167.399 169.904 167.391 170.004 167.374C170.103 167.354 170.18 167.339 170.233 167.33L170.566 168.906C170.46 168.939 170.31 168.977 170.118 169.02C169.926 169.066 169.692 169.094 169.417 169.104C168.907 169.124 168.459 169.056 168.075 168.901C167.694 168.745 167.397 168.503 167.185 168.175C166.973 167.847 166.868 167.432 166.872 166.932V159.534ZM174.698 160.593V158.818H183.061V160.593H179.943V169H177.816V160.593H174.698ZM183.605 169V161.364H185.658V162.696H185.738C185.877 162.222 186.111 161.864 186.439 161.622C186.767 161.377 187.145 161.254 187.572 161.254C187.678 161.254 187.793 161.261 187.915 161.274C188.038 161.287 188.146 161.306 188.238 161.329V163.208C188.139 163.178 188.001 163.152 187.826 163.129C187.65 163.105 187.489 163.094 187.344 163.094C187.032 163.094 186.754 163.162 186.508 163.298C186.266 163.43 186.074 163.616 185.932 163.854C185.792 164.093 185.723 164.368 185.723 164.68V169H183.605ZM191.292 169.144C190.805 169.144 190.371 169.06 189.99 168.891C189.609 168.718 189.307 168.465 189.085 168.13C188.866 167.792 188.757 167.371 188.757 166.867C188.757 166.443 188.835 166.087 188.99 165.798C189.146 165.51 189.358 165.278 189.627 165.102C189.895 164.927 190.2 164.794 190.542 164.705C190.886 164.615 191.248 164.552 191.625 164.516C192.069 164.469 192.427 164.426 192.699 164.386C192.971 164.343 193.168 164.28 193.291 164.197C193.413 164.115 193.475 163.992 193.475 163.83V163.8C193.475 163.485 193.375 163.241 193.176 163.069C192.981 162.897 192.703 162.81 192.341 162.81C191.96 162.81 191.657 162.895 191.431 163.064C191.206 163.23 191.057 163.438 190.984 163.69L189.025 163.531C189.125 163.067 189.32 162.666 189.612 162.328C189.904 161.987 190.28 161.725 190.74 161.543C191.204 161.357 191.741 161.264 192.351 161.264C192.775 161.264 193.181 161.314 193.569 161.413C193.96 161.513 194.307 161.667 194.608 161.876C194.913 162.085 195.154 162.353 195.329 162.681C195.505 163.006 195.593 163.395 195.593 163.849V169H193.584V167.941H193.525C193.402 168.18 193.238 168.39 193.032 168.572C192.827 168.751 192.58 168.892 192.292 168.995C192.003 169.094 191.67 169.144 191.292 169.144ZM191.899 167.683C192.21 167.683 192.485 167.621 192.724 167.499C192.963 167.373 193.15 167.204 193.286 166.991C193.422 166.779 193.49 166.539 193.49 166.271V165.46C193.423 165.503 193.332 165.543 193.216 165.58C193.104 165.613 192.976 165.644 192.833 165.674C192.691 165.701 192.548 165.725 192.406 165.749C192.263 165.768 192.134 165.787 192.018 165.803C191.77 165.84 191.552 165.898 191.367 165.977C191.181 166.057 191.037 166.165 190.934 166.3C190.832 166.433 190.78 166.599 190.78 166.798C190.78 167.086 190.885 167.306 191.093 167.459C191.306 167.608 191.574 167.683 191.899 167.683ZM199.354 164.585V169H197.236V161.364H199.254V162.711H199.344C199.513 162.267 199.796 161.915 200.194 161.657C200.592 161.395 201.074 161.264 201.641 161.264C202.171 161.264 202.633 161.38 203.028 161.612C203.422 161.844 203.729 162.176 203.947 162.607C204.166 163.034 204.276 163.545 204.276 164.138V169H202.158V164.516C202.161 164.048 202.042 163.684 201.8 163.422C201.558 163.157 201.225 163.024 200.8 163.024C200.515 163.024 200.263 163.085 200.045 163.208C199.829 163.331 199.66 163.51 199.538 163.745C199.418 163.977 199.357 164.257 199.354 164.585ZM212.298 163.541L210.36 163.661C210.326 163.495 210.255 163.346 210.146 163.213C210.036 163.077 209.892 162.969 209.713 162.89C209.538 162.807 209.327 162.766 209.082 162.766C208.754 162.766 208.477 162.835 208.252 162.974C208.026 163.11 207.914 163.293 207.914 163.521C207.914 163.704 207.986 163.858 208.132 163.984C208.278 164.11 208.528 164.211 208.883 164.287L210.265 164.565C211.008 164.718 211.561 164.963 211.926 165.301C212.29 165.639 212.472 166.083 212.472 166.634C212.472 167.134 212.325 167.573 212.03 167.951C211.738 168.329 211.337 168.624 210.827 168.836C210.32 169.045 209.735 169.149 209.072 169.149C208.061 169.149 207.256 168.939 206.656 168.518C206.059 168.094 205.709 167.517 205.607 166.788L207.69 166.678C207.753 166.987 207.905 167.222 208.147 167.384C208.389 167.543 208.699 167.623 209.077 167.623C209.448 167.623 209.746 167.552 209.972 167.409C210.2 167.263 210.316 167.076 210.32 166.847C210.316 166.655 210.235 166.498 210.076 166.375C209.917 166.249 209.672 166.153 209.34 166.087L208.018 165.823C207.272 165.674 206.717 165.415 206.352 165.048C205.991 164.68 205.811 164.211 205.811 163.641C205.811 163.15 205.943 162.728 206.208 162.373C206.477 162.018 206.853 161.745 207.337 161.553C207.824 161.36 208.394 161.264 209.047 161.264C210.012 161.264 210.771 161.468 211.324 161.876C211.881 162.283 212.206 162.839 212.298 163.541ZM217.913 161.364V162.955H213.2V161.364H217.913ZM214.278 169V160.812C214.278 160.258 214.386 159.799 214.602 159.435C214.82 159.07 215.119 158.797 215.496 158.614C215.874 158.432 216.304 158.341 216.784 158.341C217.109 158.341 217.406 158.366 217.674 158.415C217.946 158.465 218.148 158.51 218.281 158.55L217.903 160.141C217.82 160.114 217.717 160.089 217.594 160.066C217.475 160.043 217.353 160.031 217.227 160.031C216.915 160.031 216.698 160.104 216.575 160.25C216.453 160.393 216.391 160.593 216.391 160.852V169H214.278ZM222.413 169.149C221.628 169.149 220.952 168.99 220.385 168.672C219.821 168.35 219.387 167.896 219.082 167.31C218.777 166.72 218.625 166.022 218.625 165.217C218.625 164.431 218.777 163.742 219.082 163.148C219.387 162.555 219.816 162.093 220.37 161.761C220.927 161.43 221.58 161.264 222.329 161.264C222.832 161.264 223.301 161.345 223.736 161.508C224.173 161.667 224.554 161.907 224.879 162.229C225.207 162.55 225.462 162.955 225.645 163.442C225.827 163.926 225.918 164.492 225.918 165.142V165.724H219.47V164.411H223.925C223.925 164.106 223.858 163.836 223.726 163.601C223.593 163.366 223.409 163.182 223.174 163.049C222.942 162.913 222.672 162.845 222.363 162.845C222.042 162.845 221.757 162.92 221.508 163.069C221.263 163.215 221.071 163.412 220.932 163.661C220.792 163.906 220.721 164.179 220.718 164.481V165.729C220.718 166.107 220.787 166.433 220.927 166.708C221.069 166.983 221.27 167.195 221.528 167.344C221.787 167.494 222.093 167.568 222.448 167.568C222.683 167.568 222.899 167.535 223.094 167.469C223.29 167.402 223.457 167.303 223.596 167.17C223.736 167.038 223.842 166.875 223.915 166.683L225.873 166.812C225.774 167.283 225.57 167.694 225.262 168.045C224.957 168.393 224.563 168.665 224.079 168.861C223.598 169.053 223.043 169.149 222.413 169.149ZM227.3 169V161.364H229.354V162.696H229.433C229.572 162.222 229.806 161.864 230.134 161.622C230.462 161.377 230.84 161.254 231.268 161.254C231.374 161.254 231.488 161.261 231.611 161.274C231.733 161.287 231.841 161.306 231.934 161.329V163.208C231.834 163.178 231.697 163.152 231.521 163.129C231.345 163.105 231.185 163.094 231.039 163.094C230.727 163.094 230.449 163.162 230.204 163.298C229.962 163.43 229.769 163.616 229.627 163.854C229.488 164.093 229.418 164.368 229.418 164.68V169H227.3Z" fill="#333333"/>
<path d="M21.9716 168V167.416L24.8224 164.212C25.1946 163.791 25.4943 163.432 25.7216 163.134C25.9489 162.835 26.1136 162.56 26.2159 162.307C26.321 162.054 26.3736 161.791 26.3736 161.518C26.3736 161.186 26.2955 160.896 26.1392 160.649C25.9858 160.399 25.7741 160.205 25.5043 160.065C25.2344 159.926 24.9304 159.857 24.5923 159.857C24.2344 159.857 23.9205 159.933 23.6506 160.087C23.3835 160.24 23.1761 160.45 23.0284 160.717C22.8807 160.984 22.8068 161.291 22.8068 161.638H22.044C22.044 161.155 22.1548 160.727 22.3764 160.355C22.6009 159.98 22.9063 159.686 23.2926 159.473C23.6818 159.26 24.1222 159.153 24.6136 159.153C25.0994 159.153 25.5313 159.259 25.9091 159.469C26.2869 159.676 26.5838 159.959 26.7997 160.317C27.0156 160.675 27.1236 161.075 27.1236 161.518C27.1236 161.839 27.0668 162.151 26.9531 162.452C26.8423 162.753 26.6506 163.088 26.3778 163.457C26.1051 163.827 25.7273 164.278 25.2443 164.812L23.0795 167.229V167.284H27.3963V168H21.9716ZM32.1296 168.119C31.5927 168.119 31.1126 168.023 30.6893 167.83C30.266 167.634 29.9308 167.362 29.6836 167.016C29.4364 166.669 29.3058 166.27 29.2915 165.818H30.0969C30.1112 166.136 30.2092 166.415 30.391 166.653C30.5728 166.889 30.8143 167.074 31.1154 167.207C31.4165 167.338 31.7518 167.403 32.1211 167.403C32.5245 167.403 32.8796 167.328 33.1864 167.178C33.4961 167.027 33.7376 166.821 33.9109 166.56C34.087 166.295 34.1751 165.997 34.1751 165.665C34.1751 165.312 34.0856 165.001 33.9066 164.732C33.7276 164.462 33.4705 164.251 33.1353 164.101C32.8029 163.95 32.4052 163.875 31.9421 163.875H31.4308V163.159H31.9421C32.32 163.159 32.6538 163.091 32.9435 162.955C33.2362 162.815 33.4663 162.621 33.6339 162.371C33.8015 162.121 33.8853 161.827 33.8853 161.489C33.8853 161.168 33.8129 160.885 33.668 160.641C33.5231 160.396 33.3185 160.205 33.0543 160.065C32.793 159.926 32.4876 159.857 32.1381 159.857C31.8001 159.857 31.4904 159.922 31.2092 160.053C30.9279 160.183 30.7006 160.368 30.5273 160.607C30.3569 160.845 30.266 161.128 30.2546 161.455H29.4833C29.4947 161 29.6197 160.601 29.8583 160.257C30.0998 159.911 30.4194 159.641 30.8171 159.447C31.2177 159.251 31.6609 159.153 32.1467 159.153C32.6609 159.153 33.1055 159.259 33.4805 159.469C33.8555 159.679 34.1452 159.959 34.3498 160.308C34.5572 160.655 34.6609 161.037 34.6609 161.455C34.6609 161.952 34.5259 162.378 34.256 162.733C33.9862 163.085 33.6225 163.33 33.1651 163.466V163.521C33.7219 163.632 34.1594 163.879 34.4776 164.263C34.7987 164.643 34.9592 165.111 34.9592 165.665C34.9592 166.131 34.837 166.55 34.5927 166.922C34.3484 167.291 34.0131 167.584 33.587 167.8C33.1637 168.013 32.6779 168.119 32.1296 168.119ZM39.7063 158.864L36.8938 169.312H36.1822L38.9947 158.864H39.7063ZM43.7013 168.119C43.0877 168.119 42.5636 167.943 42.1289 167.591C41.6971 167.236 41.3647 166.723 41.1317 166.053C40.9016 165.382 40.7866 164.577 40.7866 163.636C40.7866 162.699 40.9016 161.896 41.1317 161.229C41.3647 160.558 41.6985 160.045 42.1332 159.69C42.5707 159.332 43.0934 159.153 43.7013 159.153C44.3093 159.153 44.8306 159.332 45.2653 159.69C45.7028 160.045 46.0366 160.558 46.2667 161.229C46.4996 161.896 46.6161 162.699 46.6161 163.636C46.6161 164.577 46.4996 165.382 46.2667 166.053C46.0366 166.723 45.7042 167.236 45.2695 167.591C44.8377 167.943 44.315 168.119 43.7013 168.119ZM43.7013 167.403C44.3746 167.403 44.9002 167.075 45.2781 166.419C45.6559 165.76 45.8448 164.832 45.8448 163.636C45.8448 162.841 45.7582 162.162 45.5849 161.599C45.4144 161.034 45.1687 160.602 44.8477 160.304C44.5295 160.006 44.1474 159.857 43.7013 159.857C43.0337 159.857 42.5096 160.189 42.1289 160.854C41.7482 161.516 41.5579 162.443 41.5579 163.636C41.5579 164.432 41.6431 165.111 41.8136 165.673C41.9869 166.236 42.2326 166.665 42.5508 166.96C42.8718 167.256 43.2553 167.403 43.7013 167.403ZM51.0437 159.273V168H50.2468V160.108H50.1957L48.1502 161.467V160.641L50.2127 159.273H51.0437ZM56.5579 158.864L53.7454 169.312H53.0337L55.8462 158.864H56.5579ZM57.8427 168V167.416L60.6935 164.212C61.0657 163.791 61.3654 163.432 61.5927 163.134C61.82 162.835 61.9847 162.56 62.087 162.307C62.1921 162.054 62.2447 161.791 62.2447 161.518C62.2447 161.186 62.1665 160.896 62.0103 160.649C61.8569 160.399 61.6452 160.205 61.3754 160.065C61.1055 159.926 60.8015 159.857 60.4634 159.857C60.1055 159.857 59.7915 159.933 59.5217 160.087C59.2546 160.24 59.0472 160.45 58.8995 160.717C58.7518 160.984 58.6779 161.291 58.6779 161.638H57.9151C57.9151 161.155 58.0259 160.727 58.2475 160.355C58.4719 159.98 58.7773 159.686 59.1637 159.473C59.5529 159.26 59.9933 159.153 60.4847 159.153C60.9705 159.153 61.4023 159.259 61.7802 159.469C62.158 159.676 62.4549 159.959 62.6708 160.317C62.8867 160.675 62.9947 161.075 62.9947 161.518C62.9947 161.839 62.9379 162.151 62.8242 162.452C62.7134 162.753 62.5217 163.088 62.2489 163.457C61.9762 163.827 61.5984 164.278 61.1154 164.812L58.9506 167.229V167.284H63.2674V168H57.8427ZM67.8771 168.119C67.2635 168.119 66.7393 167.943 66.3047 167.591C65.8729 167.236 65.5405 166.723 65.3075 166.053C65.0774 165.382 64.9624 164.577 64.9624 163.636C64.9624 162.699 65.0774 161.896 65.3075 161.229C65.5405 160.558 65.8743 160.045 66.3089 159.69C66.7464 159.332 67.2692 159.153 67.8771 159.153C68.4851 159.153 69.0064 159.332 69.4411 159.69C69.8786 160.045 70.2124 160.558 70.4425 161.229C70.6754 161.896 70.7919 162.699 70.7919 163.636C70.7919 164.577 70.6754 165.382 70.4425 166.053C70.2124 166.723 69.88 167.236 69.4453 167.591C69.0135 167.943 68.4908 168.119 67.8771 168.119ZM67.8771 167.403C68.5504 167.403 69.076 167.075 69.4538 166.419C69.8317 165.76 70.0206 164.832 70.0206 163.636C70.0206 162.841 69.9339 162.162 69.7607 161.599C69.5902 161.034 69.3445 160.602 69.0234 160.304C68.7053 160.006 68.3232 159.857 67.8771 159.857C67.2095 159.857 66.6854 160.189 66.3047 160.854C65.924 161.516 65.7337 162.443 65.7337 163.636C65.7337 164.432 65.8189 165.111 65.9893 165.673C66.1626 166.236 66.4084 166.665 66.7266 166.96C67.0476 167.256 67.4311 167.403 67.8771 167.403ZM72.5263 168V167.416L75.3771 164.212C75.7493 163.791 76.049 163.432 76.2763 163.134C76.5036 162.835 76.6683 162.56 76.7706 162.307C76.8757 162.054 76.9283 161.791 76.9283 161.518C76.9283 161.186 76.8501 160.896 76.6939 160.649C76.5405 160.399 76.3288 160.205 76.0589 160.065C75.7891 159.926 75.4851 159.857 75.147 159.857C74.7891 159.857 74.4751 159.933 74.2053 160.087C73.9382 160.24 73.7308 160.45 73.5831 160.717C73.4354 160.984 73.3615 161.291 73.3615 161.638H72.5987C72.5987 161.155 72.7095 160.727 72.9311 160.355C73.1555 159.98 73.4609 159.686 73.8473 159.473C74.2365 159.26 74.6768 159.153 75.1683 159.153C75.6541 159.153 76.0859 159.259 76.4638 159.469C76.8416 159.676 77.1385 159.959 77.3544 160.317C77.5703 160.675 77.6783 161.075 77.6783 161.518C77.6783 161.839 77.6214 162.151 77.5078 162.452C77.397 162.753 77.2053 163.088 76.9325 163.457C76.6598 163.827 76.282 164.278 75.799 164.812L73.6342 167.229V167.284H77.951V168H72.5263ZM82.6843 168.119C82.1474 168.119 81.6673 168.023 81.244 167.83C80.8207 167.634 80.4854 167.362 80.2383 167.016C79.9911 166.669 79.8604 166.27 79.8462 165.818H80.6516C80.6658 166.136 80.7638 166.415 80.9457 166.653C81.1275 166.889 81.369 167.074 81.6701 167.207C81.9712 167.338 82.3065 167.403 82.6758 167.403C83.0792 167.403 83.4343 167.328 83.7411 167.178C84.0508 167.027 84.2923 166.821 84.4656 166.56C84.6417 166.295 84.7298 165.997 84.7298 165.665C84.7298 165.312 84.6403 165.001 84.4613 164.732C84.2823 164.462 84.0252 164.251 83.69 164.101C83.3576 163.95 82.9599 163.875 82.4968 163.875H81.9854V163.159H82.4968C82.8746 163.159 83.2085 163.091 83.4982 162.955C83.7908 162.815 84.021 162.621 84.1886 162.371C84.3562 162.121 84.44 161.827 84.44 161.489C84.44 161.168 84.3675 160.885 84.2227 160.641C84.0778 160.396 83.8732 160.205 83.609 160.065C83.3477 159.926 83.0423 159.857 82.6928 159.857C82.3548 159.857 82.0451 159.922 81.7638 160.053C81.4826 160.183 81.2553 160.368 81.082 160.607C80.9116 160.845 80.8207 161.128 80.8093 161.455H80.038C80.0494 161 80.1744 160.601 80.413 160.257C80.6545 159.911 80.9741 159.641 81.3718 159.447C81.7724 159.251 82.2156 159.153 82.7013 159.153C83.2156 159.153 83.6602 159.259 84.0352 159.469C84.4102 159.679 84.6999 159.959 84.9045 160.308C85.1119 160.655 85.2156 161.037 85.2156 161.455C85.2156 161.952 85.0806 162.378 84.8107 162.733C84.5408 163.085 84.1772 163.33 83.7198 163.466V163.521C84.2766 163.632 84.7141 163.879 85.0323 164.263C85.3533 164.643 85.5138 165.111 85.5138 165.665C85.5138 166.131 85.3917 166.55 85.1474 166.922C84.9031 167.291 84.5678 167.584 84.1417 167.8C83.7184 168.013 83.2326 168.119 82.6843 168.119Z" fill="#333333"/>
<path d="M356.439 213.256C355.462 213.252 354.621 213.011 353.917 212.534C353.216 212.057 352.676 211.366 352.297 210.46C351.922 209.555 351.737 208.466 351.741 207.193C351.741 205.924 351.928 204.843 352.303 203.949C352.682 203.055 353.222 202.375 353.922 201.909C354.627 201.439 355.466 201.205 356.439 201.205C357.413 201.205 358.25 201.439 358.951 201.909C359.655 202.379 360.197 203.061 360.576 203.955C360.955 204.845 361.142 205.924 361.138 207.193C361.138 208.47 360.949 209.561 360.57 210.466C360.195 211.371 359.657 212.062 358.957 212.54C358.256 213.017 357.417 213.256 356.439 213.256ZM356.439 211.216C357.106 211.216 357.638 210.881 358.036 210.21C358.434 209.54 358.631 208.534 358.627 207.193C358.627 206.311 358.536 205.576 358.354 204.989C358.176 204.402 357.922 203.96 357.593 203.665C357.267 203.369 356.883 203.222 356.439 203.222C355.777 203.222 355.246 203.553 354.849 204.216C354.451 204.879 354.25 205.871 354.246 207.193C354.246 208.087 354.335 208.833 354.513 209.432C354.695 210.027 354.951 210.473 355.28 210.773C355.61 211.068 355.996 211.216 356.439 211.216Z" fill="#FF3D00"/>
<path d="M371.802 204.273H373.647V209.94C373.647 210.577 373.495 211.134 373.191 211.611C372.89 212.088 372.468 212.46 371.925 212.727C371.383 212.991 370.751 213.124 370.029 213.124C369.305 213.124 368.671 212.991 368.128 212.727C367.586 212.46 367.164 212.088 366.863 211.611C366.562 211.134 366.411 210.577 366.411 209.94V204.273H368.256V209.783C368.256 210.115 368.329 210.411 368.474 210.669C368.621 210.928 368.829 211.131 369.096 211.278C369.363 211.426 369.674 211.5 370.029 211.5C370.387 211.5 370.698 211.426 370.962 211.278C371.229 211.131 371.435 210.928 371.58 210.669C371.728 210.411 371.802 210.115 371.802 209.783V204.273ZM379.899 206.783C379.865 206.439 379.719 206.172 379.46 205.982C379.202 205.791 378.851 205.696 378.408 205.696C378.107 205.696 377.852 205.739 377.645 205.824C377.438 205.906 377.279 206.021 377.168 206.169C377.06 206.317 377.006 206.484 377.006 206.672C377 206.828 377.033 206.964 377.104 207.081C377.178 207.197 377.279 207.298 377.406 207.384C377.534 207.466 377.682 207.538 377.85 207.601C378.017 207.661 378.196 207.712 378.387 207.754L379.171 207.942C379.551 208.027 379.901 208.141 380.219 208.283C380.537 208.425 380.813 208.599 381.046 208.807C381.279 209.014 381.459 209.259 381.587 209.54C381.718 209.821 381.784 210.143 381.787 210.507C381.784 211.041 381.648 211.504 381.378 211.896C381.111 212.286 380.725 212.588 380.219 212.804C379.716 213.017 379.11 213.124 378.399 213.124C377.695 213.124 377.081 213.016 376.558 212.8C376.039 212.584 375.632 212.264 375.34 211.841C375.05 211.415 374.898 210.888 374.884 210.26H376.669C376.689 210.553 376.773 210.797 376.921 210.993C377.071 211.186 377.271 211.332 377.521 211.432C377.774 211.528 378.06 211.577 378.378 211.577C378.691 211.577 378.962 211.531 379.192 211.44C379.425 211.349 379.605 211.223 379.733 211.061C379.861 210.899 379.925 210.713 379.925 210.503C379.925 210.307 379.867 210.142 379.75 210.009C379.637 209.875 379.469 209.761 379.247 209.668C379.029 209.574 378.76 209.489 378.442 209.412L377.492 209.173C376.756 208.994 376.175 208.714 375.749 208.334C375.323 207.953 375.111 207.44 375.114 206.795C375.111 206.267 375.252 205.805 375.536 205.411C375.823 205.016 376.216 204.707 376.716 204.486C377.216 204.264 377.784 204.153 378.421 204.153C379.068 204.153 379.634 204.264 380.117 204.486C380.602 204.707 380.98 205.016 381.25 205.411C381.52 205.805 381.659 206.263 381.668 206.783H379.899ZM386.122 213H383.028V204.273H386.148C387.025 204.273 387.781 204.447 388.415 204.797C389.048 205.143 389.535 205.642 389.876 206.293C390.22 206.943 390.392 207.722 390.392 208.628C390.392 209.537 390.22 210.318 389.876 210.972C389.535 211.625 389.045 212.126 388.406 212.476C387.77 212.825 387.008 213 386.122 213ZM384.873 211.419H386.045C386.591 211.419 387.05 211.322 387.422 211.129C387.797 210.933 388.078 210.631 388.265 210.222C388.456 209.81 388.551 209.278 388.551 208.628C388.551 207.983 388.456 207.456 388.265 207.047C388.078 206.638 387.798 206.337 387.426 206.143C387.054 205.95 386.595 205.854 386.05 205.854H384.873V211.419Z" fill="#888888"/>
<path d="M117.459 213H113.85V202.818H117.489C118.513 202.818 119.395 203.022 120.134 203.43C120.873 203.834 121.441 204.416 121.839 205.175C122.24 205.934 122.441 206.842 122.441 207.899C122.441 208.96 122.24 209.871 121.839 210.634C121.441 211.396 120.87 211.981 120.124 212.388C119.382 212.796 118.493 213 117.459 213ZM116.002 211.156H117.37C118.006 211.156 118.541 211.043 118.975 210.817C119.413 210.589 119.741 210.236 119.96 209.759C120.182 209.278 120.293 208.658 120.293 207.899C120.293 207.147 120.182 206.532 119.96 206.055C119.741 205.577 119.415 205.226 118.98 205.001C118.546 204.775 118.011 204.663 117.375 204.663H116.002V211.156ZM127.476 213.149C126.69 213.149 126.014 212.99 125.447 212.672C124.884 212.35 124.45 211.896 124.145 211.31C123.84 210.72 123.687 210.022 123.687 209.217C123.687 208.431 123.84 207.742 124.145 207.148C124.45 206.555 124.879 206.093 125.432 205.761C125.989 205.43 126.642 205.264 127.391 205.264C127.895 205.264 128.364 205.345 128.798 205.508C129.236 205.667 129.617 205.907 129.942 206.229C130.27 206.55 130.525 206.955 130.707 207.442C130.89 207.926 130.981 208.492 130.981 209.142V209.724H124.532V208.411H128.987C128.987 208.106 128.921 207.836 128.788 207.601C128.656 207.366 128.472 207.182 128.236 207.049C128.004 206.913 127.734 206.845 127.426 206.845C127.104 206.845 126.819 206.92 126.571 207.069C126.326 207.215 126.133 207.412 125.994 207.661C125.855 207.906 125.784 208.179 125.78 208.481V209.729C125.78 210.107 125.85 210.433 125.989 210.708C126.132 210.983 126.332 211.195 126.591 211.344C126.849 211.494 127.156 211.568 127.51 211.568C127.746 211.568 127.961 211.535 128.157 211.469C128.352 211.402 128.52 211.303 128.659 211.17C128.798 211.038 128.904 210.875 128.977 210.683L130.936 210.812C130.836 211.283 130.633 211.694 130.324 212.045C130.019 212.393 129.625 212.665 129.141 212.861C128.661 213.053 128.105 213.149 127.476 213.149ZM132.363 215.864V205.364H134.451V206.646H134.545C134.638 206.441 134.772 206.232 134.948 206.02C135.127 205.804 135.359 205.625 135.644 205.483C135.932 205.337 136.29 205.264 136.718 205.264C137.275 205.264 137.788 205.41 138.259 205.702C138.73 205.99 139.106 206.426 139.388 207.009C139.669 207.589 139.81 208.317 139.81 209.192C139.81 210.044 139.673 210.763 139.398 211.349C139.126 211.933 138.755 212.375 138.284 212.677C137.817 212.975 137.293 213.124 136.713 213.124C136.302 213.124 135.952 213.056 135.664 212.92C135.379 212.785 135.145 212.614 134.963 212.408C134.781 212.2 134.641 211.989 134.545 211.777H134.481V215.864H132.363ZM134.436 209.182C134.436 209.636 134.499 210.032 134.625 210.37C134.751 210.708 134.933 210.972 135.172 211.161C135.41 211.346 135.7 211.439 136.042 211.439C136.386 211.439 136.678 211.344 136.917 211.156C137.155 210.963 137.336 210.698 137.459 210.36C137.585 210.019 137.648 209.626 137.648 209.182C137.648 208.741 137.586 208.353 137.464 208.018C137.341 207.684 137.16 207.422 136.922 207.233C136.683 207.044 136.39 206.95 136.042 206.95C135.697 206.95 135.405 207.041 135.167 207.223C134.931 207.405 134.751 207.664 134.625 207.999C134.499 208.333 134.436 208.728 134.436 209.182ZM144.672 213.149C143.9 213.149 143.232 212.985 142.669 212.657C142.109 212.326 141.676 211.865 141.371 211.275C141.066 210.682 140.914 209.994 140.914 209.212C140.914 208.423 141.066 207.733 141.371 207.143C141.676 206.55 142.109 206.089 142.669 205.761C143.232 205.43 143.9 205.264 144.672 205.264C145.445 205.264 146.111 205.43 146.671 205.761C147.234 206.089 147.669 206.55 147.974 207.143C148.278 207.733 148.431 208.423 148.431 209.212C148.431 209.994 148.278 210.682 147.974 211.275C147.669 211.865 147.234 212.326 146.671 212.657C146.111 212.985 145.445 213.149 144.672 213.149ZM144.682 211.509C145.034 211.509 145.327 211.409 145.562 211.21C145.798 211.008 145.975 210.733 146.094 210.385C146.217 210.037 146.278 209.641 146.278 209.197C146.278 208.753 146.217 208.357 146.094 208.009C145.975 207.661 145.798 207.385 145.562 207.183C145.327 206.981 145.034 206.88 144.682 206.88C144.328 206.88 144.029 206.981 143.787 207.183C143.549 207.385 143.368 207.661 143.246 208.009C143.126 208.357 143.067 208.753 143.067 209.197C143.067 209.641 143.126 210.037 143.246 210.385C143.368 210.733 143.549 211.008 143.787 211.21C144.029 211.409 144.328 211.509 144.682 211.509ZM156.162 207.541L154.223 207.661C154.19 207.495 154.118 207.346 154.009 207.213C153.9 207.077 153.756 206.969 153.577 206.89C153.401 206.807 153.19 206.766 152.945 206.766C152.617 206.766 152.34 206.835 152.115 206.974C151.89 207.11 151.777 207.293 151.777 207.521C151.777 207.704 151.85 207.858 151.996 207.984C152.141 208.11 152.392 208.211 152.746 208.287L154.128 208.565C154.871 208.718 155.424 208.963 155.789 209.301C156.153 209.639 156.336 210.083 156.336 210.634C156.336 211.134 156.188 211.573 155.893 211.951C155.602 212.329 155.201 212.624 154.69 212.836C154.183 213.045 153.598 213.149 152.935 213.149C151.924 213.149 151.119 212.939 150.519 212.518C149.922 212.094 149.573 211.517 149.47 210.788L151.553 210.678C151.616 210.987 151.769 211.222 152.01 211.384C152.252 211.543 152.562 211.623 152.94 211.623C153.311 211.623 153.61 211.552 153.835 211.409C154.064 211.263 154.18 211.076 154.183 210.847C154.18 210.655 154.099 210.498 153.939 210.375C153.78 210.249 153.535 210.153 153.204 210.087L151.881 209.823C151.135 209.674 150.58 209.415 150.216 209.048C149.854 208.68 149.674 208.211 149.674 207.641C149.674 207.15 149.806 206.728 150.072 206.373C150.34 206.018 150.716 205.745 151.2 205.553C151.687 205.36 152.257 205.264 152.91 205.264C153.875 205.264 154.634 205.468 155.187 205.876C155.744 206.283 156.069 206.839 156.162 207.541ZM157.669 213V205.364H159.787V213H157.669ZM158.733 204.379C158.418 204.379 158.148 204.275 157.923 204.066C157.701 203.854 157.59 203.6 157.59 203.305C157.59 203.014 157.701 202.763 157.923 202.555C158.148 202.343 158.418 202.237 158.733 202.237C159.048 202.237 159.317 202.343 159.539 202.555C159.764 202.763 159.877 203.014 159.877 203.305C159.877 203.6 159.764 203.854 159.539 204.066C159.317 204.275 159.048 204.379 158.733 204.379ZM165.546 205.364V206.955H160.947V205.364H165.546ZM161.991 203.534H164.109V210.653C164.109 210.849 164.139 211.001 164.198 211.111C164.258 211.217 164.341 211.291 164.447 211.335C164.556 211.378 164.682 211.399 164.825 211.399C164.924 211.399 165.024 211.391 165.123 211.374C165.222 211.354 165.299 211.339 165.352 211.33L165.685 212.906C165.579 212.939 165.43 212.977 165.237 213.02C165.045 213.066 164.811 213.094 164.536 213.104C164.026 213.124 163.579 213.056 163.194 212.901C162.813 212.745 162.516 212.503 162.304 212.175C162.092 211.847 161.988 211.432 161.991 210.932V203.534Z" fill="#333333"/>
<path d="M21.9716 212V211.416L24.8224 208.212C25.1946 207.791 25.4943 207.432 25.7216 207.134C25.9489 206.835 26.1136 206.56 26.2159 206.307C26.321 206.054 26.3736 205.791 26.3736 205.518C26.3736 205.186 26.2955 204.896 26.1392 204.649C25.9858 204.399 25.7741 204.205 25.5043 204.065C25.2344 203.926 24.9304 203.857 24.5923 203.857C24.2344 203.857 23.9205 203.933 23.6506 204.087C23.3835 204.24 23.1761 204.45 23.0284 204.717C22.8807 204.984 22.8068 205.291 22.8068 205.638H22.044C22.044 205.155 22.1548 204.727 22.3764 204.355C22.6009 203.98 22.9063 203.686 23.2926 203.473C23.6818 203.26 24.1222 203.153 24.6136 203.153C25.0994 203.153 25.5313 203.259 25.9091 203.469C26.2869 203.676 26.5838 203.959 26.7997 204.317C27.0156 204.675 27.1236 205.075 27.1236 205.518C27.1236 205.839 27.0668 206.151 26.9531 206.452C26.8423 206.753 26.6506 207.088 26.3778 207.457C26.1051 207.827 25.7273 208.278 25.2443 208.812L23.0795 211.229V211.284H27.3963V212H21.9716ZM32.1296 212.119C31.5927 212.119 31.1126 212.023 30.6893 211.83C30.266 211.634 29.9308 211.362 29.6836 211.016C29.4364 210.669 29.3058 210.27 29.2915 209.818H30.0969C30.1112 210.136 30.2092 210.415 30.391 210.653C30.5728 210.889 30.8143 211.074 31.1154 211.207C31.4165 211.338 31.7518 211.403 32.1211 211.403C32.5245 211.403 32.8796 211.328 33.1864 211.178C33.4961 211.027 33.7376 210.821 33.9109 210.56C34.087 210.295 34.1751 209.997 34.1751 209.665C34.1751 209.312 34.0856 209.001 33.9066 208.732C33.7276 208.462 33.4705 208.251 33.1353 208.101C32.8029 207.95 32.4052 207.875 31.9421 207.875H31.4308V207.159H31.9421C32.32 207.159 32.6538 207.091 32.9435 206.955C33.2362 206.815 33.4663 206.621 33.6339 206.371C33.8015 206.121 33.8853 205.827 33.8853 205.489C33.8853 205.168 33.8129 204.885 33.668 204.641C33.5231 204.396 33.3185 204.205 33.0543 204.065C32.793 203.926 32.4876 203.857 32.1381 203.857C31.8001 203.857 31.4904 203.922 31.2092 204.053C30.9279 204.183 30.7006 204.368 30.5273 204.607C30.3569 204.845 30.266 205.128 30.2546 205.455H29.4833C29.4947 205 29.6197 204.601 29.8583 204.257C30.0998 203.911 30.4194 203.641 30.8171 203.447C31.2177 203.251 31.6609 203.153 32.1467 203.153C32.6609 203.153 33.1055 203.259 33.4805 203.469C33.8555 203.679 34.1452 203.959 34.3498 204.308C34.5572 204.655 34.6609 205.037 34.6609 205.455C34.6609 205.952 34.5259 206.378 34.256 206.733C33.9862 207.085 33.6225 207.33 33.1651 207.466V207.521C33.7219 207.632 34.1594 207.879 34.4776 208.263C34.7987 208.643 34.9592 209.111 34.9592 209.665C34.9592 210.131 34.837 210.55 34.5927 210.922C34.3484 211.291 34.0131 211.584 33.587 211.8C33.1637 212.013 32.6779 212.119 32.1296 212.119ZM39.7063 202.864L36.8938 213.312H36.1822L38.9947 202.864H39.7063ZM43.7013 212.119C43.0877 212.119 42.5636 211.943 42.1289 211.591C41.6971 211.236 41.3647 210.723 41.1317 210.053C40.9016 209.382 40.7866 208.577 40.7866 207.636C40.7866 206.699 40.9016 205.896 41.1317 205.229C41.3647 204.558 41.6985 204.045 42.1332 203.69C42.5707 203.332 43.0934 203.153 43.7013 203.153C44.3093 203.153 44.8306 203.332 45.2653 203.69C45.7028 204.045 46.0366 204.558 46.2667 205.229C46.4996 205.896 46.6161 206.699 46.6161 207.636C46.6161 208.577 46.4996 209.382 46.2667 210.053C46.0366 210.723 45.7042 211.236 45.2695 211.591C44.8377 211.943 44.315 212.119 43.7013 212.119ZM43.7013 211.403C44.3746 211.403 44.9002 211.075 45.2781 210.419C45.6559 209.76 45.8448 208.832 45.8448 207.636C45.8448 206.841 45.7582 206.162 45.5849 205.599C45.4144 205.034 45.1687 204.602 44.8477 204.304C44.5295 204.006 44.1474 203.857 43.7013 203.857C43.0337 203.857 42.5096 204.189 42.1289 204.854C41.7482 205.516 41.5579 206.443 41.5579 207.636C41.5579 208.432 41.6431 209.111 41.8136 209.673C41.9869 210.236 42.2326 210.665 42.5508 210.96C42.8718 211.256 43.2553 211.403 43.7013 211.403ZM51.0437 203.273V212H50.2468V204.108H50.1957L48.1502 205.467V204.641L50.2127 203.273H51.0437ZM56.5579 202.864L53.7454 213.312H53.0337L55.8462 202.864H56.5579ZM57.8427 212V211.416L60.6935 208.212C61.0657 207.791 61.3654 207.432 61.5927 207.134C61.82 206.835 61.9847 206.56 62.087 206.307C62.1921 206.054 62.2447 205.791 62.2447 205.518C62.2447 205.186 62.1665 204.896 62.0103 204.649C61.8569 204.399 61.6452 204.205 61.3754 204.065C61.1055 203.926 60.8015 203.857 60.4634 203.857C60.1055 203.857 59.7915 203.933 59.5217 204.087C59.2546 204.24 59.0472 204.45 58.8995 204.717C58.7518 204.984 58.6779 205.291 58.6779 205.638H57.9151C57.9151 205.155 58.0259 204.727 58.2475 204.355C58.4719 203.98 58.7773 203.686 59.1637 203.473C59.5529 203.26 59.9933 203.153 60.4847 203.153C60.9705 203.153 61.4023 203.259 61.7802 203.469C62.158 203.676 62.4549 203.959 62.6708 204.317C62.8867 204.675 62.9947 205.075 62.9947 205.518C62.9947 205.839 62.9379 206.151 62.8242 206.452C62.7134 206.753 62.5217 207.088 62.2489 207.457C61.9762 207.827 61.5984 208.278 61.1154 208.812L58.9506 211.229V211.284H63.2674V212H57.8427ZM67.8771 212.119C67.2635 212.119 66.7393 211.943 66.3047 211.591C65.8729 211.236 65.5405 210.723 65.3075 210.053C65.0774 209.382 64.9624 208.577 64.9624 207.636C64.9624 206.699 65.0774 205.896 65.3075 205.229C65.5405 204.558 65.8743 204.045 66.3089 203.69C66.7464 203.332 67.2692 203.153 67.8771 203.153C68.4851 203.153 69.0064 203.332 69.4411 203.69C69.8786 204.045 70.2124 204.558 70.4425 205.229C70.6754 205.896 70.7919 206.699 70.7919 207.636C70.7919 208.577 70.6754 209.382 70.4425 210.053C70.2124 210.723 69.88 211.236 69.4453 211.591C69.0135 211.943 68.4908 212.119 67.8771 212.119ZM67.8771 211.403C68.5504 211.403 69.076 211.075 69.4538 210.419C69.8317 209.76 70.0206 208.832 70.0206 207.636C70.0206 206.841 69.9339 206.162 69.7607 205.599C69.5902 205.034 69.3445 204.602 69.0234 204.304C68.7053 204.006 68.3232 203.857 67.8771 203.857C67.2095 203.857 66.6854 204.189 66.3047 204.854C65.924 205.516 65.7337 206.443 65.7337 207.636C65.7337 208.432 65.8189 209.111 65.9893 209.673C66.1626 210.236 66.4084 210.665 66.7266 210.96C67.0476 211.256 67.4311 211.403 67.8771 211.403ZM72.5263 212V211.416L75.3771 208.212C75.7493 207.791 76.049 207.432 76.2763 207.134C76.5036 206.835 76.6683 206.56 76.7706 206.307C76.8757 206.054 76.9283 205.791 76.9283 205.518C76.9283 205.186 76.8501 204.896 76.6939 204.649C76.5405 204.399 76.3288 204.205 76.0589 204.065C75.7891 203.926 75.4851 203.857 75.147 203.857C74.7891 203.857 74.4751 203.933 74.2053 204.087C73.9382 204.24 73.7308 204.45 73.5831 204.717C73.4354 204.984 73.3615 205.291 73.3615 205.638H72.5987C72.5987 205.155 72.7095 204.727 72.9311 204.355C73.1555 203.98 73.4609 203.686 73.8473 203.473C74.2365 203.26 74.6768 203.153 75.1683 203.153C75.6541 203.153 76.0859 203.259 76.4638 203.469C76.8416 203.676 77.1385 203.959 77.3544 204.317C77.5703 204.675 77.6783 205.075 77.6783 205.518C77.6783 205.839 77.6214 206.151 77.5078 206.452C77.397 206.753 77.2053 207.088 76.9325 207.457C76.6598 207.827 76.282 208.278 75.799 208.812L73.6342 211.229V211.284H77.951V212H72.5263ZM82.6843 212.119C82.1474 212.119 81.6673 212.023 81.244 211.83C80.8207 211.634 80.4854 211.362 80.2383 211.016C79.9911 210.669 79.8604 210.27 79.8462 209.818H80.6516C80.6658 210.136 80.7638 210.415 80.9457 210.653C81.1275 210.889 81.369 211.074 81.6701 211.207C81.9712 211.338 82.3065 211.403 82.6758 211.403C83.0792 211.403 83.4343 211.328 83.7411 211.178C84.0508 211.027 84.2923 210.821 84.4656 210.56C84.6417 210.295 84.7298 209.997 84.7298 209.665C84.7298 209.312 84.6403 209.001 84.4613 208.732C84.2823 208.462 84.0252 208.251 83.69 208.101C83.3576 207.95 82.9599 207.875 82.4968 207.875H81.9854V207.159H82.4968C82.8746 207.159 83.2085 207.091 83.4982 206.955C83.7908 206.815 84.021 206.621 84.1886 206.371C84.3562 206.121 84.44 205.827 84.44 205.489C84.44 205.168 84.3675 204.885 84.2227 204.641C84.0778 204.396 83.8732 204.205 83.609 204.065C83.3477 203.926 83.0423 203.857 82.6928 203.857C82.3548 203.857 82.0451 203.922 81.7638 204.053C81.4826 204.183 81.2553 204.368 81.082 204.607C80.9116 204.845 80.8207 205.128 80.8093 205.455H80.038C80.0494 205 80.1744 204.601 80.413 204.257C80.6545 203.911 80.9741 203.641 81.3718 203.447C81.7724 203.251 82.2156 203.153 82.7013 203.153C83.2156 203.153 83.6602 203.259 84.0352 203.469C84.4102 203.679 84.6999 203.959 84.9045 204.308C85.1119 204.655 85.2156 205.037 85.2156 205.455C85.2156 205.952 85.0806 206.378 84.8107 206.733C84.5408 207.085 84.1772 207.33 83.7198 207.466V207.521C84.2766 207.632 84.7141 207.879 85.0323 208.263C85.3533 208.643 85.5138 209.111 85.5138 209.665C85.5138 210.131 85.3917 210.55 85.1474 210.922C84.9031 211.291 84.5678 211.584 84.1417 211.8C83.7184 212.013 83.2326 212.119 82.6843 212.119Z" fill="#333333"/>
<path d="M356.439 259.256C355.462 259.252 354.621 259.011 353.917 258.534C353.216 258.057 352.676 257.366 352.297 256.46C351.922 255.555 351.737 254.466 351.741 253.193C351.741 251.924 351.928 250.843 352.303 249.949C352.682 249.055 353.222 248.375 353.922 247.909C354.627 247.439 355.466 247.205 356.439 247.205C357.413 247.205 358.25 247.439 358.951 247.909C359.655 248.379 360.197 249.061 360.576 249.955C360.955 250.845 361.142 251.924 361.138 253.193C361.138 254.47 360.949 255.561 360.57 256.466C360.195 257.371 359.657 258.062 358.956 258.54C358.256 259.017 357.417 259.256 356.439 259.256ZM356.439 257.216C357.106 257.216 357.638 256.881 358.036 256.21C358.434 255.54 358.631 254.534 358.627 253.193C358.627 252.311 358.536 251.576 358.354 250.989C358.176 250.402 357.922 249.96 357.593 249.665C357.267 249.369 356.883 249.222 356.439 249.222C355.777 249.222 355.246 249.553 354.849 250.216C354.451 250.879 354.25 251.871 354.246 253.193C354.246 254.087 354.335 254.833 354.513 255.432C354.695 256.027 354.951 256.473 355.28 256.773C355.61 257.068 355.996 257.216 356.439 257.216Z" fill="#1D8CFC"/>
<path d="M371.802 250.273H373.647V255.94C373.647 256.577 373.495 257.134 373.191 257.611C372.89 258.088 372.468 258.46 371.925 258.727C371.383 258.991 370.751 259.124 370.029 259.124C369.304 259.124 368.671 258.991 368.128 258.727C367.586 258.46 367.164 258.088 366.863 257.611C366.562 257.134 366.411 256.577 366.411 255.94V250.273H368.256V255.783C368.256 256.115 368.329 256.411 368.474 256.669C368.621 256.928 368.829 257.131 369.096 257.278C369.363 257.426 369.674 257.5 370.029 257.5C370.387 257.5 370.698 257.426 370.962 257.278C371.229 257.131 371.435 256.928 371.58 256.669C371.728 256.411 371.802 256.115 371.802 255.783V250.273ZM379.899 252.783C379.865 252.439 379.719 252.172 379.46 251.982C379.202 251.791 378.851 251.696 378.408 251.696C378.107 251.696 377.852 251.739 377.645 251.824C377.438 251.906 377.279 252.021 377.168 252.169C377.06 252.317 377.006 252.484 377.006 252.672C377 252.828 377.033 252.964 377.104 253.081C377.178 253.197 377.279 253.298 377.406 253.384C377.534 253.466 377.682 253.538 377.85 253.601C378.017 253.661 378.196 253.712 378.387 253.754L379.171 253.942C379.551 254.027 379.901 254.141 380.219 254.283C380.537 254.425 380.813 254.599 381.046 254.807C381.279 255.014 381.459 255.259 381.587 255.54C381.717 255.821 381.784 256.143 381.787 256.507C381.784 257.041 381.648 257.504 381.378 257.896C381.111 258.286 380.725 258.588 380.219 258.804C379.716 259.017 379.11 259.124 378.399 259.124C377.695 259.124 377.081 259.016 376.558 258.8C376.039 258.584 375.632 258.264 375.34 257.841C375.05 257.415 374.898 256.888 374.884 256.26H376.669C376.689 256.553 376.773 256.797 376.921 256.993C377.071 257.186 377.271 257.332 377.521 257.432C377.774 257.528 378.06 257.577 378.378 257.577C378.69 257.577 378.962 257.531 379.192 257.44C379.425 257.349 379.605 257.223 379.733 257.061C379.861 256.899 379.925 256.713 379.925 256.503C379.925 256.307 379.867 256.142 379.75 256.009C379.637 255.875 379.469 255.761 379.247 255.668C379.029 255.574 378.76 255.489 378.442 255.412L377.492 255.173C376.756 254.994 376.175 254.714 375.749 254.334C375.323 253.953 375.111 253.44 375.114 252.795C375.111 252.267 375.252 251.805 375.536 251.411C375.823 251.016 376.216 250.707 376.716 250.486C377.216 250.264 377.784 250.153 378.421 250.153C379.068 250.153 379.634 250.264 380.117 250.486C380.602 250.707 380.98 251.016 381.25 251.411C381.52 251.805 381.659 252.263 381.668 252.783H379.899ZM386.122 259H383.028V250.273H386.148C387.025 250.273 387.781 250.447 388.415 250.797C389.048 251.143 389.535 251.642 389.876 252.293C390.22 252.943 390.392 253.722 390.392 254.628C390.392 255.537 390.22 256.318 389.876 256.972C389.535 257.625 389.045 258.126 388.406 258.476C387.77 258.825 387.008 259 386.122 259ZM384.873 257.419H386.045C386.591 257.419 387.05 257.322 387.422 257.129C387.797 256.933 388.078 256.631 388.265 256.222C388.456 255.81 388.551 255.278 388.551 254.628C388.551 253.983 388.456 253.456 388.265 253.047C388.078 252.638 387.798 252.337 387.426 252.143C387.054 251.95 386.595 251.854 386.05 251.854H384.873V257.419Z" fill="#888888"/>
<path d="M116.932 258.042H113.322V247.86H116.962C117.986 247.86 118.867 248.064 119.607 248.471C120.346 248.876 120.914 249.457 121.312 250.216C121.713 250.975 121.913 251.883 121.913 252.941C121.913 254.001 121.713 254.913 121.312 255.675C120.914 256.437 120.342 257.022 119.597 257.43C118.854 257.838 117.966 258.042 116.932 258.042ZM115.475 256.197H116.842C117.479 256.197 118.014 256.084 118.448 255.859C118.886 255.63 119.214 255.277 119.433 254.8C119.655 254.319 119.766 253.7 119.766 252.941C119.766 252.188 119.655 251.573 119.433 251.096C119.214 250.619 118.887 250.268 118.453 250.042C118.019 249.817 117.484 249.704 116.847 249.704H115.475V256.197ZM126.948 258.191C126.163 258.191 125.487 258.032 124.92 257.713C124.356 257.392 123.922 256.938 123.617 256.351C123.312 255.761 123.16 255.064 123.16 254.258C123.16 253.473 123.312 252.783 123.617 252.19C123.922 251.597 124.352 251.134 124.905 250.803C125.462 250.471 126.115 250.306 126.864 250.306C127.368 250.306 127.837 250.387 128.271 250.549C128.708 250.708 129.089 250.949 129.414 251.27C129.742 251.592 129.998 251.996 130.18 252.483C130.362 252.967 130.453 253.534 130.453 254.184V254.765H124.005V253.453H128.46C128.46 253.148 128.393 252.878 128.261 252.642C128.128 252.407 127.944 252.223 127.709 252.091C127.477 251.955 127.207 251.887 126.899 251.887C126.577 251.887 126.292 251.961 126.044 252.11C125.798 252.256 125.606 252.453 125.467 252.702C125.328 252.947 125.256 253.221 125.253 253.522V254.77C125.253 255.148 125.323 255.475 125.462 255.75C125.604 256.025 125.805 256.237 126.063 256.386C126.322 256.535 126.628 256.61 126.983 256.61C127.218 256.61 127.434 256.577 127.629 256.51C127.825 256.444 127.992 256.345 128.132 256.212C128.271 256.079 128.377 255.917 128.45 255.725L130.409 255.854C130.309 256.325 130.105 256.736 129.797 257.087C129.492 257.435 129.098 257.707 128.614 257.902C128.133 258.095 127.578 258.191 126.948 258.191ZM131.835 260.905V250.405H133.923V251.688H134.018C134.111 251.482 134.245 251.274 134.421 251.061C134.6 250.846 134.832 250.667 135.117 250.524C135.405 250.379 135.763 250.306 136.191 250.306C136.747 250.306 137.261 250.452 137.732 250.743C138.202 251.032 138.579 251.467 138.86 252.051C139.142 252.631 139.283 253.358 139.283 254.233C139.283 255.085 139.145 255.804 138.87 256.391C138.598 256.974 138.227 257.417 137.757 257.718C137.289 258.017 136.766 258.166 136.186 258.166C135.775 258.166 135.425 258.098 135.137 257.962C134.852 257.826 134.618 257.655 134.436 257.45C134.253 257.241 134.114 257.031 134.018 256.818H133.953V260.905H131.835ZM133.909 254.223C133.909 254.677 133.972 255.073 134.097 255.412C134.223 255.75 134.406 256.013 134.644 256.202C134.883 256.388 135.173 256.48 135.514 256.48C135.859 256.48 136.151 256.386 136.389 256.197C136.628 256.005 136.809 255.74 136.931 255.402C137.057 255.06 137.12 254.667 137.12 254.223C137.12 253.783 137.059 253.395 136.936 253.06C136.814 252.725 136.633 252.463 136.394 252.274C136.156 252.086 135.862 251.991 135.514 251.991C135.17 251.991 134.878 252.082 134.639 252.265C134.404 252.447 134.223 252.705 134.097 253.04C133.972 253.375 133.909 253.769 133.909 254.223ZM144.145 258.191C143.373 258.191 142.705 258.027 142.142 257.698C141.581 257.367 141.149 256.906 140.844 256.316C140.539 255.723 140.387 255.035 140.387 254.253C140.387 253.464 140.539 252.775 140.844 252.185C141.149 251.592 141.581 251.131 142.142 250.803C142.705 250.471 143.373 250.306 144.145 250.306C144.917 250.306 145.584 250.471 146.144 250.803C146.707 251.131 147.141 251.592 147.446 252.185C147.751 252.775 147.904 253.464 147.904 254.253C147.904 255.035 147.751 255.723 147.446 256.316C147.141 256.906 146.707 257.367 146.144 257.698C145.584 258.027 144.917 258.191 144.145 258.191ZM144.155 256.55C144.506 256.55 144.8 256.451 145.035 256.252C145.27 256.05 145.448 255.774 145.567 255.426C145.69 255.078 145.751 254.682 145.751 254.238C145.751 253.794 145.69 253.398 145.567 253.05C145.448 252.702 145.27 252.427 145.035 252.225C144.8 252.023 144.506 251.921 144.155 251.921C143.8 251.921 143.502 252.023 143.26 252.225C143.021 252.427 142.841 252.702 142.718 253.05C142.599 253.398 142.539 253.794 142.539 254.238C142.539 254.682 142.599 255.078 142.718 255.426C142.841 255.774 143.021 256.05 143.26 256.252C143.502 256.451 143.8 256.55 144.155 256.55ZM155.634 252.583L153.695 252.702C153.662 252.536 153.591 252.387 153.482 252.255C153.372 252.119 153.228 252.011 153.049 251.931C152.874 251.849 152.663 251.807 152.418 251.807C152.09 251.807 151.813 251.877 151.588 252.016C151.362 252.152 151.249 252.334 151.249 252.563C151.249 252.745 151.322 252.899 151.468 253.025C151.614 253.151 151.864 253.252 152.219 253.328L153.601 253.607C154.343 253.759 154.897 254.005 155.262 254.343C155.626 254.681 155.808 255.125 155.808 255.675C155.808 256.176 155.661 256.615 155.366 256.992C155.074 257.37 154.673 257.665 154.163 257.877C153.656 258.086 153.071 258.191 152.408 258.191C151.397 258.191 150.592 257.98 149.992 257.559C149.395 257.135 149.045 256.558 148.943 255.829L151.026 255.72C151.089 256.028 151.241 256.263 151.483 256.426C151.725 256.585 152.035 256.664 152.413 256.664C152.784 256.664 153.082 256.593 153.308 256.451C153.536 256.305 153.652 256.117 153.656 255.889C153.652 255.697 153.571 255.539 153.412 255.417C153.253 255.291 153.008 255.194 152.676 255.128L151.354 254.865C150.608 254.716 150.053 254.457 149.688 254.089C149.327 253.721 149.146 253.252 149.146 252.682C149.146 252.192 149.279 251.769 149.544 251.414C149.813 251.06 150.189 250.786 150.673 250.594C151.16 250.402 151.73 250.306 152.383 250.306C153.347 250.306 154.106 250.51 154.66 250.917C155.217 251.325 155.542 251.88 155.634 252.583ZM157.142 258.042V250.405H159.26V258.042H157.142ZM158.206 249.421C157.891 249.421 157.621 249.316 157.396 249.108C157.174 248.895 157.062 248.642 157.062 248.347C157.062 248.055 157.174 247.805 157.396 247.596C157.621 247.384 157.891 247.278 158.206 247.278C158.521 247.278 158.789 247.384 159.011 247.596C159.237 247.805 159.349 248.055 159.349 248.347C159.349 248.642 159.237 248.895 159.011 249.108C158.789 249.316 158.521 249.421 158.206 249.421ZM165.018 250.405V251.996H160.42V250.405H165.018ZM161.464 248.576H163.581V255.695C163.581 255.89 163.611 256.043 163.671 256.152C163.731 256.258 163.814 256.333 163.92 256.376C164.029 256.419 164.155 256.441 164.297 256.441C164.397 256.441 164.496 256.432 164.596 256.416C164.695 256.396 164.771 256.381 164.824 256.371L165.157 257.947C165.051 257.98 164.902 258.018 164.71 258.061C164.518 258.108 164.284 258.136 164.009 258.146C163.499 258.166 163.051 258.098 162.667 257.942C162.286 257.786 161.989 257.544 161.777 257.216C161.565 256.888 161.46 256.474 161.464 255.973V248.576Z" fill="#333333"/>
<path d="M21.9716 258.125V257.541L24.8224 254.337C25.1946 253.916 25.4943 253.557 25.7216 253.259C25.9489 252.96 26.1136 252.685 26.2159 252.432C26.321 252.179 26.3736 251.916 26.3736 251.643C26.3736 251.311 26.2955 251.021 26.1392 250.774C25.9858 250.524 25.7741 250.33 25.5043 250.19C25.2344 250.051 24.9304 249.982 24.5923 249.982C24.2344 249.982 23.9205 250.058 23.6506 250.212C23.3835 250.365 23.1761 250.575 23.0284 250.842C22.8807 251.109 22.8068 251.416 22.8068 251.763H22.044C22.044 251.28 22.1548 250.852 22.3764 250.48C22.6009 250.105 22.9063 249.811 23.2926 249.598C23.6818 249.385 24.1222 249.278 24.6136 249.278C25.0994 249.278 25.5313 249.384 25.9091 249.594C26.2869 249.801 26.5838 250.084 26.7997 250.442C27.0156 250.8 27.1236 251.2 27.1236 251.643C27.1236 251.964 27.0668 252.276 26.9531 252.577C26.8423 252.878 26.6506 253.213 26.3778 253.582C26.1051 253.952 25.7273 254.403 25.2443 254.938L23.0795 257.354V257.409H27.3963V258.125H21.9716ZM32.1296 258.244C31.5927 258.244 31.1126 258.148 30.6893 257.955C30.266 257.759 29.9308 257.487 29.6836 257.141C29.4364 256.794 29.3058 256.395 29.2915 255.943H30.0969C30.1112 256.261 30.2092 256.54 30.391 256.778C30.5728 257.014 30.8143 257.199 31.1154 257.332C31.4165 257.463 31.7518 257.528 32.1211 257.528C32.5245 257.528 32.8796 257.453 33.1864 257.303C33.4961 257.152 33.7376 256.946 33.9109 256.685C34.087 256.42 34.1751 256.122 34.1751 255.79C34.1751 255.437 34.0856 255.126 33.9066 254.857C33.7276 254.587 33.4705 254.376 33.1353 254.226C32.8029 254.075 32.4052 254 31.9421 254H31.4308V253.284H31.9421C32.32 253.284 32.6538 253.216 32.9435 253.08C33.2362 252.94 33.4663 252.746 33.6339 252.496C33.8015 252.246 33.8853 251.952 33.8853 251.614C33.8853 251.293 33.8129 251.01 33.668 250.766C33.5231 250.521 33.3185 250.33 33.0543 250.19C32.793 250.051 32.4876 249.982 32.1381 249.982C31.8001 249.982 31.4904 250.047 31.2092 250.178C30.9279 250.308 30.7006 250.493 30.5273 250.732C30.3569 250.97 30.266 251.253 30.2546 251.58H29.4833C29.4947 251.125 29.6197 250.726 29.8583 250.382C30.0998 250.036 30.4194 249.766 30.8171 249.572C31.2177 249.376 31.6609 249.278 32.1467 249.278C32.6609 249.278 33.1055 249.384 33.4805 249.594C33.8555 249.804 34.1452 250.084 34.3498 250.433C34.5572 250.78 34.6609 251.162 34.6609 251.58C34.6609 252.077 34.5259 252.503 34.256 252.858C33.9862 253.21 33.6225 253.455 33.1651 253.591V253.646C33.7219 253.757 34.1594 254.004 34.4776 254.388C34.7987 254.768 34.9592 255.236 34.9592 255.79C34.9592 256.256 34.837 256.675 34.5927 257.047C34.3484 257.416 34.0131 257.709 33.587 257.925C33.1637 258.138 32.6779 258.244 32.1296 258.244ZM39.7063 248.989L36.8938 259.438H36.1822L38.9947 248.989H39.7063ZM43.7013 258.244C43.0877 258.244 42.5636 258.068 42.1289 257.716C41.6971 257.361 41.3647 256.848 41.1317 256.178C40.9016 255.507 40.7866 254.702 40.7866 253.761C40.7866 252.824 40.9016 252.021 41.1317 251.354C41.3647 250.683 41.6985 250.17 42.1332 249.815C42.5707 249.457 43.0934 249.278 43.7013 249.278C44.3093 249.278 44.8306 249.457 45.2653 249.815C45.7028 250.17 46.0366 250.683 46.2667 251.354C46.4996 252.021 46.6161 252.824 46.6161 253.761C46.6161 254.702 46.4996 255.507 46.2667 256.178C46.0366 256.848 45.7042 257.361 45.2695 257.716C44.8377 258.068 44.315 258.244 43.7013 258.244ZM43.7013 257.528C44.3746 257.528 44.9002 257.2 45.2781 256.544C45.6559 255.885 45.8448 254.957 45.8448 253.761C45.8448 252.966 45.7582 252.287 45.5849 251.724C45.4144 251.159 45.1687 250.727 44.8477 250.429C44.5295 250.131 44.1474 249.982 43.7013 249.982C43.0337 249.982 42.5096 250.314 42.1289 250.979C41.7482 251.641 41.5579 252.568 41.5579 253.761C41.5579 254.557 41.6431 255.236 41.8136 255.798C41.9869 256.361 42.2326 256.79 42.5508 257.085C42.8718 257.381 43.2553 257.528 43.7013 257.528ZM51.0437 249.398V258.125H50.2468V250.233H50.1957L48.1502 251.592V250.766L50.2127 249.398H51.0437ZM56.5579 248.989L53.7454 259.438H53.0337L55.8462 248.989H56.5579ZM57.8427 258.125V257.541L60.6935 254.337C61.0657 253.916 61.3654 253.557 61.5927 253.259C61.82 252.96 61.9847 252.685 62.087 252.432C62.1921 252.179 62.2447 251.916 62.2447 251.643C62.2447 251.311 62.1665 251.021 62.0103 250.774C61.8569 250.524 61.6452 250.33 61.3754 250.19C61.1055 250.051 60.8015 249.982 60.4634 249.982C60.1055 249.982 59.7915 250.058 59.5217 250.212C59.2546 250.365 59.0472 250.575 58.8995 250.842C58.7518 251.109 58.6779 251.416 58.6779 251.763H57.9151C57.9151 251.28 58.0259 250.852 58.2475 250.48C58.4719 250.105 58.7773 249.811 59.1637 249.598C59.5529 249.385 59.9933 249.278 60.4847 249.278C60.9705 249.278 61.4023 249.384 61.7802 249.594C62.158 249.801 62.4549 250.084 62.6708 250.442C62.8867 250.8 62.9947 251.2 62.9947 251.643C62.9947 251.964 62.9379 252.276 62.8242 252.577C62.7134 252.878 62.5217 253.213 62.2489 253.582C61.9762 253.952 61.5984 254.403 61.1154 254.938L58.9506 257.354V257.409H63.2674V258.125H57.8427ZM67.8771 258.244C67.2635 258.244 66.7393 258.068 66.3047 257.716C65.8729 257.361 65.5405 256.848 65.3075 256.178C65.0774 255.507 64.9624 254.702 64.9624 253.761C64.9624 252.824 65.0774 252.021 65.3075 251.354C65.5405 250.683 65.8743 250.17 66.3089 249.815C66.7464 249.457 67.2692 249.278 67.8771 249.278C68.4851 249.278 69.0064 249.457 69.4411 249.815C69.8786 250.17 70.2124 250.683 70.4425 251.354C70.6754 252.021 70.7919 252.824 70.7919 253.761C70.7919 254.702 70.6754 255.507 70.4425 256.178C70.2124 256.848 69.88 257.361 69.4453 257.716C69.0135 258.068 68.4908 258.244 67.8771 258.244ZM67.8771 257.528C68.5504 257.528 69.076 257.2 69.4538 256.544C69.8317 255.885 70.0206 254.957 70.0206 253.761C70.0206 252.966 69.9339 252.287 69.7607 251.724C69.5902 251.159 69.3445 250.727 69.0234 250.429C68.7053 250.131 68.3232 249.982 67.8771 249.982C67.2095 249.982 66.6854 250.314 66.3047 250.979C65.924 251.641 65.7337 252.568 65.7337 253.761C65.7337 254.557 65.8189 255.236 65.9893 255.798C66.1626 256.361 66.4084 256.79 66.7266 257.085C67.0476 257.381 67.4311 257.528 67.8771 257.528ZM72.5263 258.125V257.541L75.3771 254.337C75.7493 253.916 76.049 253.557 76.2763 253.259C76.5036 252.96 76.6683 252.685 76.7706 252.432C76.8757 252.179 76.9283 251.916 76.9283 251.643C76.9283 251.311 76.8501 251.021 76.6939 250.774C76.5405 250.524 76.3288 250.33 76.0589 250.19C75.7891 250.051 75.4851 249.982 75.147 249.982C74.7891 249.982 74.4751 250.058 74.2053 250.212C73.9382 250.365 73.7308 250.575 73.5831 250.842C73.4354 251.109 73.3615 251.416 73.3615 251.763H72.5987C72.5987 251.28 72.7095 250.852 72.9311 250.48C73.1555 250.105 73.4609 249.811 73.8473 249.598C74.2365 249.385 74.6768 249.278 75.1683 249.278C75.6541 249.278 76.0859 249.384 76.4638 249.594C76.8416 249.801 77.1385 250.084 77.3544 250.442C77.5703 250.8 77.6783 251.2 77.6783 251.643C77.6783 251.964 77.6214 252.276 77.5078 252.577C77.397 252.878 77.2053 253.213 76.9325 253.582C76.6598 253.952 76.282 254.403 75.799 254.938L73.6342 257.354V257.409H77.951V258.125H72.5263ZM82.6843 258.244C82.1474 258.244 81.6673 258.148 81.244 257.955C80.8207 257.759 80.4854 257.487 80.2383 257.141C79.9911 256.794 79.8604 256.395 79.8462 255.943H80.6516C80.6658 256.261 80.7638 256.54 80.9457 256.778C81.1275 257.014 81.369 257.199 81.6701 257.332C81.9712 257.463 82.3065 257.528 82.6758 257.528C83.0792 257.528 83.4343 257.453 83.7411 257.303C84.0508 257.152 84.2923 256.946 84.4656 256.685C84.6417 256.42 84.7298 256.122 84.7298 255.79C84.7298 255.437 84.6403 255.126 84.4613 254.857C84.2823 254.587 84.0252 254.376 83.69 254.226C83.3576 254.075 82.9599 254 82.4968 254H81.9854V253.284H82.4968C82.8746 253.284 83.2085 253.216 83.4982 253.08C83.7908 252.94 84.021 252.746 84.1886 252.496C84.3562 252.246 84.44 251.952 84.44 251.614C84.44 251.293 84.3675 251.01 84.2227 250.766C84.0778 250.521 83.8732 250.33 83.609 250.19C83.3477 250.051 83.0423 249.982 82.6928 249.982C82.3548 249.982 82.0451 250.047 81.7638 250.178C81.4826 250.308 81.2553 250.493 81.082 250.732C80.9116 250.97 80.8207 251.253 80.8093 251.58H80.038C80.0494 251.125 80.1744 250.726 80.413 250.382C80.6545 250.036 80.9741 249.766 81.3718 249.572C81.7724 249.376 82.2156 249.278 82.7013 249.278C83.2156 249.278 83.6602 249.384 84.0352 249.594C84.4102 249.804 84.6999 250.084 84.9045 250.433C85.1119 250.78 85.2156 251.162 85.2156 251.58C85.2156 252.077 85.0806 252.503 84.8107 252.858C84.5408 253.21 84.1772 253.455 83.7198 253.591V253.646C84.2766 253.757 84.7141 254.004 85.0323 254.388C85.3533 254.768 85.5138 255.236 85.5138 255.79C85.5138 256.256 85.3917 256.675 85.1474 257.047C84.9031 257.416 84.5678 257.709 84.1417 257.925C83.7184 258.138 83.2326 258.244 82.6843 258.244Z" fill="#333333"/>
<rect x="21.5" y="75.5" width="369" height="47" rx="7.5" fill="white"/>
<path d="M42.5625 105H41.4489L45.6818 93.3636H46.8182L51.0511 105H49.9375L46.2898 94.7443H46.2102L42.5625 105ZM43.3636 100.54H49.1364V101.494H43.3636V100.54ZM53.8466 93.3636V105H52.8352V93.3636H53.8466ZM57.5341 93.3636V105H56.5227V93.3636H57.5341ZM67.1477 105.199C66.6212 105.199 66.1402 105.097 65.7045 104.892C65.2689 104.684 64.9223 104.384 64.6648 103.994C64.4072 103.6 64.2784 103.123 64.2784 102.562C64.2784 102.131 64.3598 101.767 64.5227 101.472C64.6856 101.176 64.9167 100.934 65.2159 100.744C65.5152 100.555 65.8693 100.405 66.2784 100.295C66.6875 100.186 67.1383 100.1 67.6307 100.04C68.1193 99.9792 68.5322 99.9261 68.8693 99.8807C69.2102 99.8352 69.4697 99.7633 69.6477 99.6648C69.8258 99.5663 69.9148 99.4072 69.9148 99.1875V98.983C69.9148 98.3883 69.7367 97.9205 69.3807 97.5795C69.0284 97.2348 68.5208 97.0625 67.858 97.0625C67.2292 97.0625 66.7159 97.2008 66.3182 97.4773C65.9242 97.7538 65.6477 98.0795 65.4886 98.4545L64.5284 98.108C64.7254 97.6307 64.9981 97.25 65.3466 96.9659C65.6951 96.678 66.0852 96.4716 66.517 96.3466C66.9489 96.2178 67.3864 96.1534 67.8295 96.1534C68.1629 96.1534 68.5095 96.197 68.8693 96.2841C69.233 96.3712 69.5701 96.5227 69.8807 96.7386C70.1913 96.9508 70.4432 97.2481 70.6364 97.6307C70.8295 98.0095 70.9261 98.4905 70.9261 99.0739V105H69.9148V103.619H69.8523C69.7311 103.877 69.5511 104.127 69.3125 104.369C69.0739 104.612 68.7746 104.811 68.4148 104.966C68.0549 105.121 67.6326 105.199 67.1477 105.199ZM67.2841 104.273C67.822 104.273 68.2879 104.153 68.6818 103.915C69.0758 103.676 69.3788 103.36 69.5909 102.966C69.8068 102.568 69.9148 102.131 69.9148 101.653V100.392C69.839 100.464 69.7121 100.528 69.5341 100.585C69.3598 100.642 69.1572 100.693 68.9261 100.739C68.6989 100.78 68.4716 100.816 68.2443 100.847C68.017 100.877 67.8125 100.903 67.6307 100.926C67.1383 100.987 66.7178 101.081 66.3693 101.21C66.0208 101.339 65.7538 101.517 65.5682 101.744C65.3826 101.968 65.2898 102.256 65.2898 102.608C65.2898 103.138 65.4792 103.549 65.858 103.841C66.2367 104.129 66.7121 104.273 67.2841 104.273ZM77.0256 105.182C76.2453 105.182 75.5653 104.987 74.9858 104.597C74.41 104.206 73.9631 103.672 73.6449 102.994C73.3267 102.316 73.1676 101.544 73.1676 100.676C73.1676 99.8011 73.3286 99.0227 73.6506 98.3409C73.9763 97.6591 74.4271 97.125 75.0028 96.7386C75.5786 96.3485 76.2472 96.1534 77.0085 96.1534C77.5919 96.1534 78.1203 96.267 78.5938 96.4943C79.0672 96.7178 79.4574 97.0341 79.7642 97.4432C80.0748 97.8485 80.2699 98.322 80.3494 98.8636H79.3267C79.2206 98.3712 78.965 97.9508 78.5597 97.6023C78.1581 97.25 77.6468 97.0739 77.0256 97.0739C76.4688 97.0739 75.9763 97.2254 75.5483 97.5284C75.1203 97.8277 74.785 98.2462 74.5426 98.7841C74.304 99.3182 74.1847 99.9375 74.1847 100.642C74.1847 101.35 74.3021 101.977 74.5369 102.523C74.7718 103.064 75.1013 103.489 75.5256 103.795C75.9536 104.102 76.4536 104.256 77.0256 104.256C77.4119 104.256 77.7642 104.184 78.0824 104.04C78.4044 103.892 78.6733 103.684 78.8892 103.415C79.1089 103.146 79.2566 102.826 79.3324 102.455H80.3551C80.2794 102.981 80.0919 103.451 79.7926 103.864C79.4972 104.273 79.1127 104.595 78.6392 104.83C78.1695 105.064 77.6316 105.182 77.0256 105.182ZM85.9318 105.182C85.1515 105.182 84.4716 104.987 83.892 104.597C83.3163 104.206 82.8693 103.672 82.5511 102.994C82.233 102.316 82.0739 101.544 82.0739 100.676C82.0739 99.8011 82.2348 99.0227 82.5568 98.3409C82.8826 97.6591 83.3333 97.125 83.9091 96.7386C84.4848 96.3485 85.1534 96.1534 85.9148 96.1534C86.4981 96.1534 87.0265 96.267 87.5 96.4943C87.9735 96.7178 88.3636 97.0341 88.6705 97.4432C88.9811 97.8485 89.1761 98.322 89.2557 98.8636H88.233C88.1269 98.3712 87.8712 97.9508 87.4659 97.6023C87.0644 97.25 86.553 97.0739 85.9318 97.0739C85.375 97.0739 84.8826 97.2254 84.4545 97.5284C84.0265 97.8277 83.6913 98.2462 83.4489 98.7841C83.2102 99.3182 83.0909 99.9375 83.0909 100.642C83.0909 101.35 83.2083 101.977 83.4432 102.523C83.678 103.064 84.0076 103.489 84.4318 103.795C84.8598 104.102 85.3598 104.256 85.9318 104.256C86.3182 104.256 86.6705 104.184 86.9886 104.04C87.3106 103.892 87.5795 103.684 87.7955 103.415C88.0152 103.146 88.1629 102.826 88.2386 102.455H89.2614C89.1856 102.981 88.9981 103.451 88.6989 103.864C88.4034 104.273 88.0189 104.595 87.5455 104.83C87.0758 105.064 86.5379 105.182 85.9318 105.182ZM94.821 105.182C94.0672 105.182 93.4006 104.991 92.821 104.608C92.2453 104.225 91.7945 103.697 91.4688 103.023C91.143 102.345 90.9801 101.562 90.9801 100.676C90.9801 99.7822 91.143 98.9962 91.4688 98.3182C91.7945 97.6364 92.2453 97.1061 92.821 96.7273C93.4006 96.3447 94.0672 96.1534 94.821 96.1534C95.5748 96.1534 96.2396 96.3447 96.8153 96.7273C97.3911 97.1098 97.8419 97.6402 98.1676 98.3182C98.4972 98.9962 98.6619 99.7822 98.6619 100.676C98.6619 101.562 98.4991 102.345 98.1733 103.023C97.8475 103.697 97.3949 104.225 96.8153 104.608C96.2396 104.991 95.5748 105.182 94.821 105.182ZM94.821 104.256C95.4271 104.256 95.9403 104.093 96.3608 103.767C96.7813 103.441 97.0994 103.008 97.3153 102.466C97.535 101.924 97.6449 101.328 97.6449 100.676C97.6449 100.025 97.535 99.4261 97.3153 98.8807C97.0994 98.3352 96.7813 97.8977 96.3608 97.5682C95.9403 97.2386 95.4271 97.0739 94.821 97.0739C94.2188 97.0739 93.7055 97.2386 93.2812 97.5682C92.8608 97.8977 92.5407 98.3352 92.321 98.8807C92.1051 99.4261 91.9972 100.025 91.9972 100.676C91.9972 101.328 92.1051 101.924 92.321 102.466C92.5407 103.008 92.8608 103.441 93.2812 103.767C93.7017 104.093 94.215 104.256 94.821 104.256ZM106.428 101.665V96.2727H107.439V105H106.428V103.551H106.348C106.143 103.998 105.82 104.371 105.376 104.67C104.933 104.966 104.392 105.114 103.751 105.114C103.195 105.114 102.7 104.992 102.268 104.75C101.837 104.504 101.498 104.144 101.251 103.67C101.005 103.197 100.882 102.616 100.882 101.926V96.2727H101.893V101.864C101.893 102.545 102.094 103.095 102.496 103.511C102.897 103.924 103.412 104.131 104.041 104.131C104.435 104.131 104.814 104.036 105.178 103.847C105.541 103.657 105.84 103.381 106.075 103.017C106.31 102.65 106.428 102.199 106.428 101.665ZM111.128 99.5455V105H110.116V96.2727H111.099V97.642H111.19C111.395 97.1951 111.713 96.8371 112.145 96.5682C112.58 96.2955 113.118 96.1591 113.759 96.1591C114.346 96.1591 114.861 96.2822 115.304 96.5284C115.751 96.7708 116.098 97.1288 116.344 97.6023C116.594 98.0758 116.719 98.6572 116.719 99.3466V105H115.707V99.4091C115.707 98.6932 115.507 98.1269 115.105 97.7102C114.707 97.2936 114.173 97.0852 113.503 97.0852C113.045 97.0852 112.637 97.1837 112.281 97.3807C111.925 97.5777 111.643 97.8617 111.435 98.233C111.23 98.6004 111.128 99.0379 111.128 99.5455ZM122.82 96.2727V97.1534H118.655V96.2727H122.82ZM119.956 94.1818H120.973V102.722C120.973 103.085 121.036 103.371 121.161 103.58C121.286 103.784 121.448 103.93 121.649 104.017C121.85 104.1 122.064 104.142 122.291 104.142C122.424 104.142 122.537 104.134 122.632 104.119C122.727 104.1 122.81 104.081 122.882 104.062L123.098 104.977C123 105.015 122.878 105.049 122.734 105.08C122.59 105.114 122.412 105.131 122.2 105.131C121.829 105.131 121.471 105.049 121.126 104.886C120.786 104.723 120.505 104.481 120.286 104.159C120.066 103.837 119.956 103.438 119.956 102.96V94.1818ZM130.824 98.1875L129.898 98.4489C129.807 98.1875 129.678 97.9508 129.511 97.7386C129.345 97.5265 129.127 97.358 128.858 97.233C128.593 97.108 128.263 97.0455 127.869 97.0455C127.278 97.0455 126.794 97.1856 126.415 97.4659C126.036 97.7462 125.847 98.108 125.847 98.5511C125.847 98.9261 125.975 99.2311 126.233 99.4659C126.494 99.697 126.896 99.8807 127.438 100.017L128.756 100.341C129.487 100.519 130.034 100.801 130.398 101.188C130.765 101.574 130.949 102.059 130.949 102.642C130.949 103.134 130.813 103.572 130.54 103.955C130.267 104.337 129.886 104.638 129.398 104.858C128.913 105.074 128.35 105.182 127.71 105.182C126.858 105.182 126.155 104.991 125.602 104.608C125.049 104.222 124.695 103.665 124.54 102.938L125.511 102.699C125.636 103.218 125.881 103.61 126.244 103.875C126.612 104.14 127.095 104.273 127.693 104.273C128.364 104.273 128.9 104.123 129.301 103.824C129.703 103.521 129.903 103.142 129.903 102.688C129.903 102.335 129.786 102.04 129.551 101.801C129.316 101.559 128.96 101.381 128.483 101.267L127.057 100.926C126.299 100.744 125.739 100.456 125.375 100.062C125.011 99.6686 124.83 99.1799 124.83 98.5966C124.83 98.1155 124.96 97.6932 125.222 97.3295C125.483 96.9621 125.843 96.6742 126.301 96.4659C126.759 96.2576 127.282 96.1534 127.869 96.1534C128.669 96.1534 129.307 96.3352 129.784 96.6989C130.265 97.0587 130.612 97.5549 130.824 98.1875Z" fill="#333333"/>
<path d="M368 96.5L363 101.5L358 96.5" stroke="#333333" stroke-width="1.2" stroke-linecap="round" stroke-linejoin="round"/>
<rect x="21.5" y="75.5" width="369" height="47" rx="7.5" stroke="#DDDDDD"/>
</svg>
