<svg width="412" height="285" viewBox="0 0 412 285" fill="none" xmlns="http://www.w3.org/2000/svg">
<path d="M399 0.75H13C6.23451 0.75 0.75 6.23451 0.75 13V272C0.75 278.766 6.2345 284.25 13 284.25H399C405.766 284.25 411.25 278.766 411.25 272V13C411.25 6.23451 405.766 0.75 399 0.75Z" fill="white" stroke="#EBEBEB" stroke-width="0.5" stroke-linecap="square"/>
<path d="M21 168C21 163.582 24.5817 160 29 160H123C127.418 160 131 163.582 131 168V256C131 260.418 127.418 264 123 264H29C24.5817 264 21 260.418 21 256V168Z" fill="#EEF4FF"/>
<path d="M36.5057 250.256C35.5284 250.252 34.6875 250.011 33.983 249.534C33.2822 249.057 32.7424 248.366 32.3636 247.46C31.9886 246.555 31.803 245.466 31.8068 244.193C31.8068 242.924 31.9943 241.843 32.3693 240.949C32.7481 240.055 33.2879 239.375 33.9886 238.909C34.6932 238.439 35.5322 238.205 36.5057 238.205C37.4792 238.205 38.3163 238.439 39.017 238.909C39.7216 239.379 40.2633 240.061 40.642 240.955C41.0208 241.845 41.2083 242.924 41.2045 244.193C41.2045 245.47 41.0152 246.561 40.6364 247.466C40.2614 248.371 39.7235 249.062 39.0227 249.54C38.322 250.017 37.483 250.256 36.5057 250.256ZM36.5057 248.216C37.1723 248.216 37.7045 247.881 38.1023 247.21C38.5 246.54 38.697 245.534 38.6932 244.193C38.6932 243.311 38.6023 242.576 38.4205 241.989C38.2424 241.402 37.9886 240.96 37.6591 240.665C37.3333 240.369 36.9489 240.222 36.5057 240.222C35.8428 240.222 35.3125 240.553 34.9148 241.216C34.517 241.879 34.3163 242.871 34.3125 244.193C34.3125 245.087 34.4015 245.833 34.5795 246.432C34.7614 247.027 35.017 247.473 35.3466 247.773C35.6761 248.068 36.0625 248.216 36.5057 248.216ZM47.5 248.364V247.903C47.5 247.554 47.5739 247.233 47.7216 246.94C47.8722 246.645 48.0895 246.409 48.3736 246.233C48.6605 246.054 49.0099 245.964 49.4219 245.964C49.8395 245.964 50.1903 246.053 50.4744 246.229C50.7614 246.405 50.9773 246.641 51.1222 246.936C51.2699 247.229 51.3438 247.551 51.3438 247.903V248.364C51.3438 248.713 51.2699 249.036 51.1222 249.331C50.9744 249.624 50.7571 249.858 50.4702 250.034C50.1832 250.213 49.8338 250.303 49.4219 250.303C49.0043 250.303 48.6534 250.213 48.3693 250.034C48.0852 249.858 47.8693 249.624 47.7216 249.331C47.5739 249.036 47.5 248.713 47.5 248.364ZM48.7401 247.903V248.364C48.7401 248.565 48.7884 248.756 48.8849 248.935C48.9844 249.114 49.1634 249.203 49.4219 249.203C49.6804 249.203 49.8565 249.115 49.9503 248.939C50.0469 248.763 50.0952 248.571 50.0952 248.364V247.903C50.0952 247.696 50.0497 247.503 49.9588 247.324C49.8679 247.145 49.6889 247.055 49.4219 247.055C49.1662 247.055 48.9886 247.145 48.8892 247.324C48.7898 247.503 48.7401 247.696 48.7401 247.903ZM43.0213 243.369V242.909C43.0213 242.557 43.0966 242.234 43.2472 241.942C43.3977 241.646 43.6151 241.411 43.8991 241.234C44.1861 241.058 44.5327 240.97 44.9389 240.97C45.3594 240.97 45.7116 241.058 45.9957 241.234C46.2798 241.411 46.4957 241.646 46.6435 241.942C46.7912 242.234 46.8651 242.557 46.8651 242.909V243.369C46.8651 243.722 46.7898 244.044 46.6392 244.337C46.4915 244.629 46.2741 244.864 45.9872 245.04C45.7031 245.213 45.3537 245.3 44.9389 245.3C44.5241 245.3 44.1733 245.212 43.8864 245.036C43.6023 244.857 43.3864 244.622 43.2386 244.332C43.0938 244.04 43.0213 243.719 43.0213 243.369ZM44.2699 242.909V243.369C44.2699 243.577 44.3182 243.768 44.4148 243.945C44.5142 244.121 44.6889 244.209 44.9389 244.209C45.2003 244.209 45.3778 244.121 45.4716 243.945C45.5682 243.768 45.6165 243.577 45.6165 243.369V242.909C45.6165 242.702 45.571 242.509 45.4801 242.33C45.3892 242.151 45.2088 242.061 44.9389 242.061C44.6861 242.061 44.5114 242.152 44.4148 242.334C44.3182 242.516 44.2699 242.707 44.2699 242.909ZM43.5838 250L49.5838 241.273H50.7003L44.7003 250H43.5838ZM58.2088 246.426C58.2164 245.903 58.3224 245.475 58.527 245.142C58.7353 244.809 59.0024 244.562 59.3281 244.403C59.6577 244.241 60.0118 244.159 60.3906 244.159C60.777 244.159 61.1236 244.241 61.4304 244.403C61.7372 244.566 62.0668 244.794 62.419 245.085C62.6804 245.297 62.902 245.455 63.0838 245.557C63.2694 245.659 63.474 245.71 63.6974 245.71C64.0497 245.714 64.3376 245.598 64.5611 245.364C64.7846 245.129 64.9096 244.801 64.9361 244.381L65.8736 244.409C65.8546 244.928 65.741 245.352 65.5327 245.682C65.3281 246.011 65.0649 246.256 64.7429 246.415C64.4209 246.574 64.0781 246.653 63.7145 246.653C63.3471 246.65 63.0156 246.57 62.7202 246.415C62.4247 246.256 62.099 246.032 61.7429 245.744C61.4815 245.528 61.2543 245.367 61.0611 245.261C60.8679 245.155 60.6482 245.1 60.402 245.097C60.0497 245.097 59.7543 245.208 59.5156 245.432C59.2808 245.652 59.1577 245.987 59.1463 246.438L58.2088 246.426ZM77.2557 250.256C76.2784 250.252 75.4375 250.011 74.733 249.534C74.0322 249.057 73.4924 248.366 73.1136 247.46C72.7386 246.555 72.553 245.466 72.5568 244.193C72.5568 242.924 72.7443 241.843 73.1193 240.949C73.4981 240.055 74.0379 239.375 74.7386 238.909C75.4432 238.439 76.2822 238.205 77.2557 238.205C78.2292 238.205 79.0663 238.439 79.767 238.909C80.4716 239.379 81.0133 240.061 81.392 240.955C81.7708 241.845 81.9583 242.924 81.9545 244.193C81.9545 245.47 81.7652 246.561 81.3864 247.466C81.0114 248.371 80.4735 249.062 79.7727 249.54C79.072 250.017 78.233 250.256 77.2557 250.256ZM77.2557 248.216C77.9223 248.216 78.4545 247.881 78.8523 247.21C79.25 246.54 79.447 245.534 79.4432 244.193C79.4432 243.311 79.3523 242.576 79.1705 241.989C78.9924 241.402 78.7386 240.96 78.4091 240.665C78.0833 240.369 77.6989 240.222 77.2557 240.222C76.5928 240.222 76.0625 240.553 75.6648 241.216C75.267 241.879 75.0663 242.871 75.0625 244.193C75.0625 245.087 75.1515 245.833 75.3295 246.432C75.5114 247.027 75.767 247.473 76.0966 247.773C76.4261 248.068 76.8125 248.216 77.2557 248.216ZM88.25 248.364V247.903C88.25 247.554 88.3239 247.233 88.4716 246.94C88.6222 246.645 88.8395 246.409 89.1236 246.233C89.4105 246.054 89.7599 245.964 90.1719 245.964C90.5895 245.964 90.9403 246.053 91.2244 246.229C91.5114 246.405 91.7273 246.641 91.8722 246.936C92.0199 247.229 92.0938 247.551 92.0938 247.903V248.364C92.0938 248.713 92.0199 249.036 91.8722 249.331C91.7244 249.624 91.5071 249.858 91.2202 250.034C90.9332 250.213 90.5838 250.303 90.1719 250.303C89.7543 250.303 89.4034 250.213 89.1193 250.034C88.8352 249.858 88.6193 249.624 88.4716 249.331C88.3239 249.036 88.25 248.713 88.25 248.364ZM89.4901 247.903V248.364C89.4901 248.565 89.5384 248.756 89.6349 248.935C89.7344 249.114 89.9134 249.203 90.1719 249.203C90.4304 249.203 90.6065 249.115 90.7003 248.939C90.7969 248.763 90.8452 248.571 90.8452 248.364V247.903C90.8452 247.696 90.7997 247.503 90.7088 247.324C90.6179 247.145 90.4389 247.055 90.1719 247.055C89.9162 247.055 89.7386 247.145 89.6392 247.324C89.5398 247.503 89.4901 247.696 89.4901 247.903ZM83.7713 243.369V242.909C83.7713 242.557 83.8466 242.234 83.9972 241.942C84.1477 241.646 84.3651 241.411 84.6491 241.234C84.9361 241.058 85.2827 240.97 85.6889 240.97C86.1094 240.97 86.4616 241.058 86.7457 241.234C87.0298 241.411 87.2457 241.646 87.3935 241.942C87.5412 242.234 87.6151 242.557 87.6151 242.909V243.369C87.6151 243.722 87.5398 244.044 87.3892 244.337C87.2415 244.629 87.0241 244.864 86.7372 245.04C86.4531 245.213 86.1037 245.3 85.6889 245.3C85.2741 245.3 84.9233 245.212 84.6364 245.036C84.3523 244.857 84.1364 244.622 83.9886 244.332C83.8438 244.04 83.7713 243.719 83.7713 243.369ZM85.0199 242.909V243.369C85.0199 243.577 85.0682 243.768 85.1648 243.945C85.2642 244.121 85.4389 244.209 85.6889 244.209C85.9503 244.209 86.1278 244.121 86.2216 243.945C86.3182 243.768 86.3665 243.577 86.3665 243.369V242.909C86.3665 242.702 86.321 242.509 86.2301 242.33C86.1392 242.151 85.9588 242.061 85.6889 242.061C85.4361 242.061 85.2614 242.152 85.1648 242.334C85.0682 242.516 85.0199 242.707 85.0199 242.909ZM84.3338 250L90.3338 241.273H91.4503L85.4503 250H84.3338Z" fill="#333333"/>
<path d="M33.2756 211.273V220H31.9588V211.273H33.2756ZM36.3651 216.114V220H35.0909V213.455H36.3139V214.52H36.3949C36.5455 214.173 36.7813 213.895 37.1023 213.685C37.4261 213.474 37.8338 213.369 38.3253 213.369C38.7713 213.369 39.1619 213.463 39.4972 213.651C39.8324 213.835 40.0923 214.111 40.277 214.477C40.4616 214.844 40.554 215.297 40.554 215.837V220H39.2798V215.99C39.2798 215.516 39.1563 215.145 38.9091 214.878C38.6619 214.608 38.3224 214.473 37.8906 214.473C37.5952 214.473 37.3324 214.537 37.1023 214.665C36.875 214.793 36.6946 214.98 36.5611 215.227C36.4304 215.472 36.3651 215.767 36.3651 216.114ZM45.3182 213.455V214.477H41.7429V213.455H45.3182ZM42.7017 211.886H43.9759V218.078C43.9759 218.325 44.0128 218.511 44.0866 218.636C44.1605 218.759 44.2557 218.842 44.3722 218.888C44.4915 218.93 44.6207 218.952 44.7599 218.952C44.8622 218.952 44.9517 218.945 45.0284 218.93C45.1051 218.916 45.1648 218.905 45.2074 218.896L45.4375 219.949C45.3636 219.977 45.2585 220.006 45.1222 220.034C44.9858 220.065 44.8153 220.082 44.6108 220.085C44.2756 220.091 43.9631 220.031 43.6733 219.906C43.3835 219.781 43.1491 219.588 42.9702 219.327C42.7912 219.065 42.7017 218.737 42.7017 218.342V211.886ZM49.4783 220.132C48.8335 220.132 48.2781 219.994 47.8121 219.719C47.3491 219.44 46.9911 219.05 46.7383 218.547C46.4883 218.041 46.3633 217.449 46.3633 216.77C46.3633 216.099 46.4883 215.509 46.7383 214.997C46.9911 214.486 47.3434 214.087 47.7951 213.8C48.2496 213.513 48.7809 213.369 49.3888 213.369C49.7582 213.369 50.1161 213.43 50.4627 213.553C50.8093 213.675 51.1204 213.866 51.396 214.128C51.6715 214.389 51.8888 214.729 52.0479 215.146C52.207 215.561 52.2866 216.065 52.2866 216.659V217.111H47.0835V216.156H51.038C51.038 215.821 50.9698 215.524 50.8335 215.266C50.6971 215.004 50.5053 214.798 50.2582 214.648C50.0138 214.497 49.7269 214.422 49.3974 214.422C49.0394 214.422 48.7269 214.51 48.4599 214.686C48.1957 214.859 47.9911 215.087 47.8462 215.368C47.7042 215.646 47.6332 215.949 47.6332 216.276V217.021C47.6332 217.459 47.7099 217.831 47.8633 218.138C48.0195 218.445 48.2369 218.679 48.5153 218.841C48.7937 219 49.119 219.08 49.4911 219.08C49.7326 219.08 49.9528 219.045 50.1516 218.977C50.3505 218.906 50.5224 218.801 50.6673 218.662C50.8121 218.523 50.9229 218.351 50.9996 218.146L52.2056 218.364C52.109 218.719 51.9357 219.03 51.6857 219.297C51.4386 219.561 51.1275 219.767 50.7525 219.915C50.3803 220.06 49.9556 220.132 49.4783 220.132ZM53.7003 220V213.455H54.9318V214.494H55C55.1193 214.142 55.3295 213.865 55.6307 213.663C55.9347 213.459 56.2784 213.357 56.6619 213.357C56.7415 213.357 56.8352 213.359 56.9432 213.365C57.054 213.371 57.1406 213.378 57.2031 213.386V214.605C57.152 214.591 57.0611 214.575 56.9304 214.558C56.7997 214.538 56.669 214.528 56.5384 214.528C56.2372 214.528 55.9688 214.592 55.733 214.72C55.5 214.845 55.3153 215.02 55.179 215.244C55.0426 215.466 54.9744 215.719 54.9744 216.003V220H53.7003ZM60.8924 220.132C60.2475 220.132 59.6921 219.994 59.2262 219.719C58.7631 219.44 58.4052 219.05 58.1523 218.547C57.9023 218.041 57.7773 217.449 57.7773 216.77C57.7773 216.099 57.9023 215.509 58.1523 214.997C58.4052 214.486 58.7575 214.087 59.2092 213.8C59.6637 213.513 60.195 213.369 60.8029 213.369C61.1722 213.369 61.5302 213.43 61.8768 213.553C62.2234 213.675 62.5344 213.866 62.81 214.128C63.0856 214.389 63.3029 214.729 63.462 215.146C63.6211 215.561 63.7006 216.065 63.7006 216.659V217.111H58.4975V216.156H62.4521C62.4521 215.821 62.3839 215.524 62.2475 215.266C62.1112 215.004 61.9194 214.798 61.6722 214.648C61.4279 214.497 61.141 214.422 60.8114 214.422C60.4535 214.422 60.141 214.51 59.8739 214.686C59.6097 214.859 59.4052 215.087 59.2603 215.368C59.1183 215.646 59.0472 215.949 59.0472 216.276V217.021C59.0472 217.459 59.1239 217.831 59.2773 218.138C59.4336 218.445 59.6509 218.679 59.9293 218.841C60.2077 219 60.533 219.08 60.9052 219.08C61.1467 219.08 61.3668 219.045 61.5657 218.977C61.7646 218.906 61.9364 218.801 62.0813 218.662C62.2262 218.523 62.337 218.351 62.4137 218.146L63.6197 218.364C63.5231 218.719 63.3498 219.03 63.0998 219.297C62.8526 219.561 62.5415 219.767 62.1665 219.915C61.7944 220.06 61.3697 220.132 60.8924 220.132ZM70.0192 215.053L68.8643 215.257C68.8161 215.109 68.7393 214.969 68.6342 214.835C68.532 214.702 68.3928 214.592 68.2166 214.507C68.0405 214.422 67.8203 214.379 67.5561 214.379C67.1953 214.379 66.8942 214.46 66.6527 214.622C66.4112 214.781 66.2905 214.987 66.2905 215.24C66.2905 215.459 66.3714 215.635 66.5334 215.768C66.6953 215.902 66.9567 216.011 67.3175 216.097L68.3572 216.335C68.9595 216.474 69.4084 216.689 69.7038 216.979C69.9993 217.268 70.147 217.645 70.147 218.108C70.147 218.5 70.0334 218.849 69.8061 219.156C69.5817 219.46 69.2678 219.699 68.8643 219.872C68.4638 220.045 67.9993 220.132 67.4709 220.132C66.7379 220.132 66.1399 219.976 65.6768 219.663C65.2138 219.348 64.9297 218.901 64.8246 218.321L66.0561 218.134C66.1328 218.455 66.2905 218.697 66.5291 218.862C66.7678 219.024 67.0788 219.105 67.4624 219.105C67.88 219.105 68.2138 219.018 68.4638 218.845C68.7138 218.669 68.8388 218.455 68.8388 218.202C68.8388 217.997 68.7621 217.825 68.6087 217.686C68.4581 217.547 68.2266 217.442 67.9141 217.371L66.8061 217.128C66.1953 216.989 65.7436 216.767 65.451 216.463C65.1612 216.159 65.0163 215.774 65.0163 215.308C65.0163 214.922 65.1243 214.584 65.3402 214.294C65.5561 214.004 65.8544 213.778 66.2351 213.616C66.6158 213.452 67.0518 213.369 67.5433 213.369C68.2507 213.369 68.8075 213.523 69.2138 213.83C69.62 214.134 69.8885 214.541 70.0192 215.053ZM74.6033 213.455V214.477H71.0281V213.455H74.6033ZM71.9869 211.886H73.261V218.078C73.261 218.325 73.2979 218.511 73.3718 218.636C73.4457 218.759 73.5408 218.842 73.6573 218.888C73.7766 218.93 73.9059 218.952 74.0451 218.952C74.1474 218.952 74.2369 218.945 74.3136 218.93C74.3903 218.916 74.4499 218.905 74.4925 218.896L74.7227 219.949C74.6488 219.977 74.5437 220.006 74.4073 220.034C74.271 220.065 74.1005 220.082 73.896 220.085C73.5607 220.091 73.2482 220.031 72.9585 219.906C72.6687 219.781 72.4343 219.588 72.2553 219.327C72.0763 219.065 71.9869 218.737 71.9869 218.342V211.886ZM80.8121 215.053L79.6573 215.257C79.609 215.109 79.5323 214.969 79.4272 214.835C79.3249 214.702 79.1857 214.592 79.0096 214.507C78.8335 214.422 78.6133 214.379 78.3491 214.379C77.9883 214.379 77.6871 214.46 77.4457 214.622C77.2042 214.781 77.0835 214.987 77.0835 215.24C77.0835 215.459 77.1644 215.635 77.3263 215.768C77.4883 215.902 77.7496 216.011 78.1104 216.097L79.1502 216.335C79.7525 216.474 80.2013 216.689 80.4968 216.979C80.7923 217.268 80.94 217.645 80.94 218.108C80.94 218.5 80.8263 218.849 80.5991 219.156C80.3746 219.46 80.0607 219.699 79.6573 219.872C79.2567 220.045 78.7923 220.132 78.2638 220.132C77.5309 220.132 76.9329 219.976 76.4698 219.663C76.0067 219.348 75.7227 218.901 75.6175 218.321L76.8491 218.134C76.9258 218.455 77.0835 218.697 77.3221 218.862C77.5607 219.024 77.8718 219.105 78.2553 219.105C78.6729 219.105 79.0067 219.018 79.2567 218.845C79.5067 218.669 79.6317 218.455 79.6317 218.202C79.6317 217.997 79.555 217.825 79.4016 217.686C79.2511 217.547 79.0195 217.442 78.707 217.371L77.5991 217.128C76.9883 216.989 76.5366 216.767 76.244 216.463C75.9542 216.159 75.8093 215.774 75.8093 215.308C75.8093 214.922 75.9173 214.584 76.1332 214.294C76.3491 214.004 76.6474 213.778 77.0281 213.616C77.4087 213.452 77.8448 213.369 78.3363 213.369C79.0437 213.369 79.6005 213.523 80.0067 213.83C80.413 214.134 80.6815 214.541 80.8121 215.053Z" fill="#D0A809"/>
<path d="M31.8849 184V173.818H35.9616C36.7107 173.818 37.3355 173.929 37.8359 174.151C38.3364 174.373 38.7126 174.682 38.9645 175.076C39.2164 175.467 39.3423 175.918 39.3423 176.428C39.3423 176.826 39.2628 177.176 39.1037 177.477C38.9446 177.776 38.7259 178.021 38.4474 178.213C38.1723 178.402 37.8575 178.536 37.5028 178.616V178.715C37.8906 178.732 38.2536 178.841 38.5916 179.043C38.933 179.246 39.2098 179.529 39.4219 179.893C39.634 180.255 39.7401 180.686 39.7401 181.186C39.7401 181.726 39.6058 182.209 39.3374 182.633C39.0722 183.054 38.6795 183.387 38.1591 183.632C37.6387 183.877 36.9974 184 36.2351 184H31.8849ZM34.0376 182.24H35.7926C36.3925 182.24 36.83 182.126 37.1051 181.897C37.3802 181.665 37.5178 181.357 37.5178 180.972C37.5178 180.691 37.4498 180.442 37.3139 180.227C37.178 180.011 36.9841 179.842 36.7322 179.719C36.4837 179.597 36.187 179.536 35.8423 179.536H34.0376V182.24ZM34.0376 178.079H35.6335C35.9285 178.079 36.1903 178.027 36.419 177.925C36.651 177.819 36.8333 177.67 36.9659 177.477C37.1018 177.285 37.1697 177.055 37.1697 176.786C37.1697 176.418 37.0388 176.122 36.777 175.896C36.5185 175.671 36.1506 175.558 35.6733 175.558H34.0376V178.079ZM45.998 180.749V176.364H48.1159V184H46.0826V182.613H46.003C45.8307 183.06 45.544 183.42 45.1429 183.692C44.7452 183.964 44.2596 184.099 43.6863 184.099C43.1758 184.099 42.7267 183.983 42.339 183.751C41.9512 183.519 41.6479 183.19 41.4292 182.762C41.2137 182.335 41.1043 181.822 41.101 181.226V176.364H43.2189V180.848C43.2222 181.299 43.3432 181.655 43.5819 181.917C43.8205 182.179 44.1403 182.31 44.5414 182.31C44.7966 182.31 45.0352 182.252 45.2573 182.136C45.4793 182.016 45.6583 181.841 45.7942 181.609C45.9334 181.377 46.0014 181.09 45.998 180.749ZM56.1637 178.541L54.2248 178.661C54.1916 178.495 54.1204 178.346 54.011 178.213C53.9016 178.077 53.7575 177.969 53.5785 177.89C53.4028 177.807 53.1924 177.766 52.9471 177.766C52.619 177.766 52.3422 177.835 52.1168 177.974C51.8915 178.11 51.7788 178.293 51.7788 178.521C51.7788 178.704 51.8517 178.858 51.9975 178.984C52.1433 179.11 52.3936 179.211 52.7482 179.287L54.1303 179.565C54.8728 179.718 55.4263 179.963 55.7908 180.301C56.1554 180.639 56.3377 181.083 56.3377 181.634C56.3377 182.134 56.1902 182.573 55.8952 182.951C55.6036 183.329 55.2025 183.624 54.6921 183.836C54.185 184.045 53.6 184.149 52.9371 184.149C51.9263 184.149 51.1209 183.939 50.521 183.518C49.9244 183.094 49.5747 182.517 49.4719 181.788L51.555 181.678C51.618 181.987 51.7705 182.222 52.0124 182.384C52.2544 182.543 52.5643 182.623 52.9421 182.623C53.3133 182.623 53.6116 182.552 53.837 182.409C54.0657 182.263 54.1817 182.076 54.185 181.847C54.1817 181.655 54.1005 181.498 53.9414 181.375C53.7823 181.249 53.5371 181.153 53.2056 181.087L51.8832 180.823C51.1374 180.674 50.5823 180.415 50.2177 180.048C49.8564 179.68 49.6758 179.211 49.6758 178.641C49.6758 178.15 49.8084 177.728 50.0735 177.373C50.342 177.018 50.7182 176.745 51.2021 176.553C51.6893 176.36 52.2594 176.264 52.9123 176.264C53.8768 176.264 54.6358 176.468 55.1893 176.876C55.7461 177.283 56.0709 177.839 56.1637 178.541ZM57.6713 184V176.364H59.7892V184H57.6713ZM58.7353 175.379C58.4204 175.379 58.1503 175.275 57.9249 175.066C57.7028 174.854 57.5918 174.6 57.5918 174.305C57.5918 174.014 57.7028 173.763 57.9249 173.555C58.1503 173.343 58.4204 173.237 58.7353 173.237C59.0501 173.237 59.3186 173.343 59.5407 173.555C59.766 173.763 59.8787 174.014 59.8787 174.305C59.8787 174.6 59.766 174.854 59.5407 175.066C59.3186 175.275 59.0501 175.379 58.7353 175.379ZM63.6037 179.585V184H61.4858V176.364H63.5043V177.711H63.5938C63.7628 177.267 64.0462 176.915 64.4439 176.657C64.8416 176.395 65.3239 176.264 65.8906 176.264C66.4209 176.264 66.8833 176.38 67.2777 176.612C67.6721 176.844 67.9787 177.176 68.1974 177.607C68.4162 178.034 68.5256 178.545 68.5256 179.138V184H66.4077V179.516C66.411 179.048 66.2917 178.684 66.0497 178.422C65.8078 178.157 65.4747 178.024 65.0504 178.024C64.7654 178.024 64.5135 178.085 64.2947 178.208C64.0793 178.331 63.9103 178.51 63.7876 178.745C63.6683 178.977 63.607 179.257 63.6037 179.585ZM73.6749 184.149C72.8894 184.149 72.2132 183.99 71.6465 183.672C71.083 183.35 70.6489 182.896 70.3439 182.31C70.039 181.72 69.8865 181.022 69.8865 180.217C69.8865 179.431 70.039 178.742 70.3439 178.148C70.6489 177.555 71.0781 177.093 71.6316 176.761C72.1884 176.43 72.8413 176.264 73.5904 176.264C74.0942 176.264 74.5632 176.345 74.9973 176.508C75.4348 176.667 75.816 176.907 76.1408 177.229C76.4689 177.55 76.7241 177.955 76.9064 178.442C77.0887 178.926 77.1799 179.492 77.1799 180.142V180.724H70.7317V179.411H75.1863C75.1863 179.106 75.12 178.836 74.9874 178.601C74.8548 178.366 74.6709 178.182 74.4355 178.049C74.2035 177.913 73.9334 177.845 73.6252 177.845C73.3037 177.845 73.0186 177.92 72.7701 178.069C72.5248 178.215 72.3326 178.412 72.1934 178.661C72.0542 178.906 71.9829 179.179 71.9796 179.481V180.729C71.9796 181.107 72.0492 181.433 72.1884 181.708C72.3309 181.983 72.5314 182.195 72.79 182.344C73.0485 182.494 73.3551 182.568 73.7097 182.568C73.945 182.568 74.1605 182.535 74.356 182.469C74.5516 182.402 74.7189 182.303 74.8581 182.17C74.9973 182.038 75.1034 181.875 75.1763 181.683L77.1351 181.812C77.0357 182.283 76.8319 182.694 76.5236 183.045C76.2187 183.393 75.8243 183.665 75.3404 183.861C74.8598 184.053 74.3046 184.149 73.6749 184.149ZM84.9157 178.541L82.9767 178.661C82.9436 178.495 82.8723 178.346 82.763 178.213C82.6536 178.077 82.5094 177.969 82.3304 177.89C82.1548 177.807 81.9443 177.766 81.699 177.766C81.3709 177.766 81.0942 177.835 80.8688 177.974C80.6434 178.11 80.5307 178.293 80.5307 178.521C80.5307 178.704 80.6036 178.858 80.7495 178.984C80.8953 179.11 81.1455 179.211 81.5002 179.287L82.8823 179.565C83.6247 179.718 84.1782 179.963 84.5428 180.301C84.9074 180.639 85.0897 181.083 85.0897 181.634C85.0897 182.134 84.9422 182.573 84.6472 182.951C84.3555 183.329 83.9545 183.624 83.4441 183.836C82.937 184.045 82.352 184.149 81.6891 184.149C80.6782 184.149 79.8728 183.939 79.2729 183.518C78.6763 183.094 78.3266 182.517 78.2239 181.788L80.307 181.678C80.37 181.987 80.5224 182.222 80.7644 182.384C81.0063 182.543 81.3162 182.623 81.6941 182.623C82.0653 182.623 82.3636 182.552 82.589 182.409C82.8176 182.263 82.9337 182.076 82.937 181.847C82.9337 181.655 82.8525 181.498 82.6934 181.375C82.5343 181.249 82.289 181.153 81.9576 181.087L80.6351 180.823C79.8894 180.674 79.3342 180.415 78.9696 180.048C78.6084 179.68 78.4277 179.211 78.4277 178.641C78.4277 178.15 78.5603 177.728 78.8255 177.373C79.0939 177.018 79.4701 176.745 79.954 176.553C80.4412 176.36 81.0113 176.264 81.6642 176.264C82.6287 176.264 83.3877 176.468 83.9412 176.876C84.498 177.283 84.8229 177.839 84.9157 178.541ZM92.777 178.541L90.8381 178.661C90.8049 178.495 90.7337 178.346 90.6243 178.213C90.5149 178.077 90.3707 177.969 90.1918 177.89C90.0161 177.807 89.8056 177.766 89.5604 177.766C89.2322 177.766 88.9555 177.835 88.7301 177.974C88.5047 178.11 88.392 178.293 88.392 178.521C88.392 178.704 88.465 178.858 88.6108 178.984C88.7566 179.11 89.0069 179.211 89.3615 179.287L90.7436 179.565C91.486 179.718 92.0395 179.963 92.4041 180.301C92.7687 180.639 92.951 181.083 92.951 181.634C92.951 182.134 92.8035 182.573 92.5085 182.951C92.2169 183.329 91.8158 183.624 91.3054 183.836C90.7983 184.045 90.2133 184.149 89.5504 184.149C88.5395 184.149 87.7341 183.939 87.1342 183.518C86.5376 183.094 86.188 182.517 86.0852 181.788L88.1683 181.678C88.2313 181.987 88.3838 182.222 88.6257 182.384C88.8677 182.543 89.1776 182.623 89.5554 182.623C89.9266 182.623 90.2249 182.552 90.4503 182.409C90.679 182.263 90.795 182.076 90.7983 181.847C90.795 181.655 90.7138 181.498 90.5547 181.375C90.3956 181.249 90.1503 181.153 89.8189 181.087L88.4964 180.823C87.7507 180.674 87.1955 180.415 86.831 180.048C86.4697 179.68 86.2891 179.211 86.2891 178.641C86.2891 178.15 86.4216 177.728 86.6868 177.373C86.9553 177.018 87.3314 176.745 87.8153 176.553C88.3026 176.36 88.8726 176.264 89.5256 176.264C90.4901 176.264 91.2491 176.468 91.8026 176.876C92.3594 177.283 92.6842 177.839 92.777 178.541ZM31.8849 201V190.818H34.0376V199.225H38.4027V201H31.8849ZM43.2388 201.149C42.4666 201.149 41.7987 200.985 41.2353 200.657C40.6751 200.326 40.2426 199.865 39.9377 199.275C39.6328 198.682 39.4803 197.994 39.4803 197.212C39.4803 196.423 39.6328 195.733 39.9377 195.143C40.2426 194.55 40.6751 194.089 41.2353 193.761C41.7987 193.43 42.4666 193.264 43.2388 193.264C44.0111 193.264 44.6773 193.43 45.2374 193.761C45.8008 194.089 46.235 194.55 46.54 195.143C46.8449 195.733 46.9973 196.423 46.9973 197.212C46.9973 197.994 46.8449 198.682 46.54 199.275C46.235 199.865 45.8008 200.326 45.2374 200.657C44.6773 200.985 44.0111 201.149 43.2388 201.149ZM43.2488 199.509C43.6001 199.509 43.8934 199.409 44.1287 199.21C44.3641 199.008 44.5414 198.733 44.6607 198.385C44.7833 198.037 44.8446 197.641 44.8446 197.197C44.8446 196.753 44.7833 196.357 44.6607 196.009C44.5414 195.661 44.3641 195.385 44.1287 195.183C43.8934 194.981 43.6001 194.88 43.2488 194.88C42.8941 194.88 42.5958 194.981 42.3539 195.183C42.1152 195.385 41.9346 195.661 41.812 196.009C41.6926 196.357 41.633 196.753 41.633 197.197C41.633 197.641 41.6926 198.037 41.812 198.385C41.9346 198.733 42.1152 199.008 42.3539 199.21C42.5958 199.409 42.8941 199.509 43.2488 199.509ZM50.552 201.144C50.0648 201.144 49.6306 201.06 49.2495 200.891C48.8683 200.718 48.5667 200.465 48.3446 200.13C48.1259 199.792 48.0165 199.371 48.0165 198.867C48.0165 198.443 48.0944 198.087 48.2502 197.798C48.406 197.51 48.6181 197.278 48.8865 197.102C49.155 196.927 49.4599 196.794 49.8013 196.705C50.146 196.615 50.5073 196.552 50.8851 196.516C51.3292 196.469 51.6872 196.426 51.959 196.386C52.2308 196.343 52.428 196.28 52.5506 196.197C52.6732 196.115 52.7346 195.992 52.7346 195.83V195.8C52.7346 195.485 52.6351 195.241 52.4363 195.069C52.2407 194.897 51.9623 194.81 51.601 194.81C51.2199 194.81 50.9166 194.895 50.6912 195.064C50.4658 195.23 50.3167 195.438 50.2438 195.69L48.285 195.531C48.3844 195.067 48.58 194.666 48.8716 194.328C49.1633 193.987 49.5395 193.725 50.0002 193.543C50.4642 193.357 51.0011 193.264 51.611 193.264C52.0352 193.264 52.4412 193.314 52.829 193.413C53.2201 193.513 53.5665 193.667 53.8681 193.876C54.173 194.085 54.4133 194.353 54.589 194.681C54.7646 195.006 54.8525 195.395 54.8525 195.849V201H52.8439V199.941H52.7843C52.6616 200.18 52.4976 200.39 52.2921 200.572C52.0866 200.751 51.8397 200.892 51.5513 200.995C51.263 201.094 50.9299 201.144 50.552 201.144ZM51.1586 199.683C51.4701 199.683 51.7452 199.621 51.9838 199.499C52.2225 199.373 52.4097 199.204 52.5456 198.991C52.6815 198.779 52.7495 198.539 52.7495 198.271V197.46C52.6832 197.503 52.592 197.543 52.476 197.58C52.3633 197.613 52.2357 197.644 52.0932 197.674C51.9507 197.701 51.8082 197.725 51.6657 197.749C51.5231 197.768 51.3939 197.787 51.2779 197.803C51.0293 197.84 50.8122 197.898 50.6266 197.977C50.441 198.057 50.2968 198.165 50.1941 198.3C50.0913 198.433 50.04 198.599 50.04 198.798C50.04 199.086 50.1444 199.306 50.3532 199.459C50.5653 199.608 50.8337 199.683 51.1586 199.683ZM58.6135 196.585V201H56.4956V193.364H58.514V194.711H58.6035C58.7725 194.267 59.0559 193.915 59.4537 193.657C59.8514 193.395 60.3336 193.264 60.9004 193.264C61.4307 193.264 61.8931 193.38 62.2875 193.612C62.6819 193.844 62.9885 194.176 63.2072 194.607C63.426 195.034 63.5353 195.545 63.5353 196.138V201H61.4174V196.516C61.4208 196.048 61.3014 195.684 61.0595 195.422C60.8175 195.157 60.4844 195.024 60.0602 195.024C59.7752 195.024 59.5233 195.085 59.3045 195.208C59.0891 195.331 58.92 195.51 58.7974 195.745C58.6781 195.977 58.6168 196.257 58.6135 196.585Z" fill="#333333"/>
<path d="M151 168C151 163.582 154.582 160 159 160H253C257.418 160 261 163.582 261 168V256C261 260.418 257.418 264 253 264H159C154.582 264 151 260.418 151 256V168Z" fill="#DAEFBE"/>
<path d="M166.506 250.256C165.528 250.252 164.688 250.011 163.983 249.534C163.282 249.057 162.742 248.366 162.364 247.46C161.989 246.555 161.803 245.466 161.807 244.193C161.807 242.924 161.994 241.843 162.369 240.949C162.748 240.055 163.288 239.375 163.989 238.909C164.693 238.439 165.532 238.205 166.506 238.205C167.479 238.205 168.316 238.439 169.017 238.909C169.722 239.379 170.263 240.061 170.642 240.955C171.021 241.845 171.208 242.924 171.205 244.193C171.205 245.47 171.015 246.561 170.636 247.466C170.261 248.371 169.723 249.062 169.023 249.54C168.322 250.017 167.483 250.256 166.506 250.256ZM166.506 248.216C167.172 248.216 167.705 247.881 168.102 247.21C168.5 246.54 168.697 245.534 168.693 244.193C168.693 243.311 168.602 242.576 168.42 241.989C168.242 241.402 167.989 240.96 167.659 240.665C167.333 240.369 166.949 240.222 166.506 240.222C165.843 240.222 165.313 240.553 164.915 241.216C164.517 241.879 164.316 242.871 164.312 244.193C164.312 245.087 164.402 245.833 164.58 246.432C164.761 247.027 165.017 247.473 165.347 247.773C165.676 248.068 166.062 248.216 166.506 248.216ZM177.5 248.364V247.903C177.5 247.554 177.574 247.233 177.722 246.94C177.872 246.645 178.089 246.409 178.374 246.233C178.661 246.054 179.01 245.964 179.422 245.964C179.839 245.964 180.19 246.053 180.474 246.229C180.761 246.405 180.977 246.641 181.122 246.936C181.27 247.229 181.344 247.551 181.344 247.903V248.364C181.344 248.713 181.27 249.036 181.122 249.331C180.974 249.624 180.757 249.858 180.47 250.034C180.183 250.213 179.834 250.303 179.422 250.303C179.004 250.303 178.653 250.213 178.369 250.034C178.085 249.858 177.869 249.624 177.722 249.331C177.574 249.036 177.5 248.713 177.5 248.364ZM178.74 247.903V248.364C178.74 248.565 178.788 248.756 178.885 248.935C178.984 249.114 179.163 249.203 179.422 249.203C179.68 249.203 179.857 249.115 179.95 248.939C180.047 248.763 180.095 248.571 180.095 248.364V247.903C180.095 247.696 180.05 247.503 179.959 247.324C179.868 247.145 179.689 247.055 179.422 247.055C179.166 247.055 178.989 247.145 178.889 247.324C178.79 247.503 178.74 247.696 178.74 247.903ZM173.021 243.369V242.909C173.021 242.557 173.097 242.234 173.247 241.942C173.398 241.646 173.615 241.411 173.899 241.234C174.186 241.058 174.533 240.97 174.939 240.97C175.359 240.97 175.712 241.058 175.996 241.234C176.28 241.411 176.496 241.646 176.643 241.942C176.791 242.234 176.865 242.557 176.865 242.909V243.369C176.865 243.722 176.79 244.044 176.639 244.337C176.491 244.629 176.274 244.864 175.987 245.04C175.703 245.213 175.354 245.3 174.939 245.3C174.524 245.3 174.173 245.212 173.886 245.036C173.602 244.857 173.386 244.622 173.239 244.332C173.094 244.04 173.021 243.719 173.021 243.369ZM174.27 242.909V243.369C174.27 243.577 174.318 243.768 174.415 243.945C174.514 244.121 174.689 244.209 174.939 244.209C175.2 244.209 175.378 244.121 175.472 243.945C175.568 243.768 175.616 243.577 175.616 243.369V242.909C175.616 242.702 175.571 242.509 175.48 242.33C175.389 242.151 175.209 242.061 174.939 242.061C174.686 242.061 174.511 242.152 174.415 242.334C174.318 242.516 174.27 242.707 174.27 242.909ZM173.584 250L179.584 241.273H180.7L174.7 250H173.584ZM188.209 246.426C188.216 245.903 188.322 245.475 188.527 245.142C188.735 244.809 189.002 244.562 189.328 244.403C189.658 244.241 190.012 244.159 190.391 244.159C190.777 244.159 191.124 244.241 191.43 244.403C191.737 244.566 192.067 244.794 192.419 245.085C192.68 245.297 192.902 245.455 193.084 245.557C193.269 245.659 193.474 245.71 193.697 245.71C194.05 245.714 194.338 245.598 194.561 245.364C194.785 245.129 194.91 244.801 194.936 244.381L195.874 244.409C195.855 244.928 195.741 245.352 195.533 245.682C195.328 246.011 195.065 246.256 194.743 246.415C194.421 246.574 194.078 246.653 193.714 246.653C193.347 246.65 193.016 246.57 192.72 246.415C192.425 246.256 192.099 246.032 191.743 245.744C191.482 245.528 191.254 245.367 191.061 245.261C190.868 245.155 190.648 245.1 190.402 245.097C190.05 245.097 189.754 245.208 189.516 245.432C189.281 245.652 189.158 245.987 189.146 246.438L188.209 246.426ZM207.256 250.256C206.278 250.252 205.438 250.011 204.733 249.534C204.032 249.057 203.492 248.366 203.114 247.46C202.739 246.555 202.553 245.466 202.557 244.193C202.557 242.924 202.744 241.843 203.119 240.949C203.498 240.055 204.038 239.375 204.739 238.909C205.443 238.439 206.282 238.205 207.256 238.205C208.229 238.205 209.066 238.439 209.767 238.909C210.472 239.379 211.013 240.061 211.392 240.955C211.771 241.845 211.958 242.924 211.955 244.193C211.955 245.47 211.765 246.561 211.386 247.466C211.011 248.371 210.473 249.062 209.773 249.54C209.072 250.017 208.233 250.256 207.256 250.256ZM207.256 248.216C207.922 248.216 208.455 247.881 208.852 247.21C209.25 246.54 209.447 245.534 209.443 244.193C209.443 243.311 209.352 242.576 209.17 241.989C208.992 241.402 208.739 240.96 208.409 240.665C208.083 240.369 207.699 240.222 207.256 240.222C206.593 240.222 206.063 240.553 205.665 241.216C205.267 241.879 205.066 242.871 205.062 244.193C205.062 245.087 205.152 245.833 205.33 246.432C205.511 247.027 205.767 247.473 206.097 247.773C206.426 248.068 206.812 248.216 207.256 248.216ZM218.25 248.364V247.903C218.25 247.554 218.324 247.233 218.472 246.94C218.622 246.645 218.839 246.409 219.124 246.233C219.411 246.054 219.76 245.964 220.172 245.964C220.589 245.964 220.94 246.053 221.224 246.229C221.511 246.405 221.727 246.641 221.872 246.936C222.02 247.229 222.094 247.551 222.094 247.903V248.364C222.094 248.713 222.02 249.036 221.872 249.331C221.724 249.624 221.507 249.858 221.22 250.034C220.933 250.213 220.584 250.303 220.172 250.303C219.754 250.303 219.403 250.213 219.119 250.034C218.835 249.858 218.619 249.624 218.472 249.331C218.324 249.036 218.25 248.713 218.25 248.364ZM219.49 247.903V248.364C219.49 248.565 219.538 248.756 219.635 248.935C219.734 249.114 219.913 249.203 220.172 249.203C220.43 249.203 220.607 249.115 220.7 248.939C220.797 248.763 220.845 248.571 220.845 248.364V247.903C220.845 247.696 220.8 247.503 220.709 247.324C220.618 247.145 220.439 247.055 220.172 247.055C219.916 247.055 219.739 247.145 219.639 247.324C219.54 247.503 219.49 247.696 219.49 247.903ZM213.771 243.369V242.909C213.771 242.557 213.847 242.234 213.997 241.942C214.148 241.646 214.365 241.411 214.649 241.234C214.936 241.058 215.283 240.97 215.689 240.97C216.109 240.97 216.462 241.058 216.746 241.234C217.03 241.411 217.246 241.646 217.393 241.942C217.541 242.234 217.615 242.557 217.615 242.909V243.369C217.615 243.722 217.54 244.044 217.389 244.337C217.241 244.629 217.024 244.864 216.737 245.04C216.453 245.213 216.104 245.3 215.689 245.3C215.274 245.3 214.923 245.212 214.636 245.036C214.352 244.857 214.136 244.622 213.989 244.332C213.844 244.04 213.771 243.719 213.771 243.369ZM215.02 242.909V243.369C215.02 243.577 215.068 243.768 215.165 243.945C215.264 244.121 215.439 244.209 215.689 244.209C215.95 244.209 216.128 244.121 216.222 243.945C216.318 243.768 216.366 243.577 216.366 243.369V242.909C216.366 242.702 216.321 242.509 216.23 242.33C216.139 242.151 215.959 242.061 215.689 242.061C215.436 242.061 215.261 242.152 215.165 242.334C215.068 242.516 215.02 242.707 215.02 242.909ZM214.334 250L220.334 241.273H221.45L215.45 250H214.334Z" fill="#333333"/>
<path d="M163.276 211.273V220H161.959V211.273H163.276ZM166.365 216.114V220H165.091V213.455H166.314V214.52H166.395C166.545 214.173 166.781 213.895 167.102 213.685C167.426 213.474 167.834 213.369 168.325 213.369C168.771 213.369 169.162 213.463 169.497 213.651C169.832 213.835 170.092 214.111 170.277 214.477C170.462 214.844 170.554 215.297 170.554 215.837V220H169.28V215.99C169.28 215.516 169.156 215.145 168.909 214.878C168.662 214.608 168.322 214.473 167.891 214.473C167.595 214.473 167.332 214.537 167.102 214.665C166.875 214.793 166.695 214.98 166.561 215.227C166.43 215.472 166.365 215.767 166.365 216.114ZM175.318 213.455V214.477H171.743V213.455H175.318ZM172.702 211.886H173.976V218.078C173.976 218.325 174.013 218.511 174.087 218.636C174.161 218.759 174.256 218.842 174.372 218.888C174.491 218.93 174.621 218.952 174.76 218.952C174.862 218.952 174.952 218.945 175.028 218.93C175.105 218.916 175.165 218.905 175.207 218.896L175.438 219.949C175.364 219.977 175.259 220.006 175.122 220.034C174.986 220.065 174.815 220.082 174.611 220.085C174.276 220.091 173.963 220.031 173.673 219.906C173.384 219.781 173.149 219.588 172.97 219.327C172.791 219.065 172.702 218.737 172.702 218.342V211.886ZM179.478 220.132C178.833 220.132 178.278 219.994 177.812 219.719C177.349 219.44 176.991 219.05 176.738 218.547C176.488 218.041 176.363 217.449 176.363 216.77C176.363 216.099 176.488 215.509 176.738 214.997C176.991 214.486 177.343 214.087 177.795 213.8C178.25 213.513 178.781 213.369 179.389 213.369C179.758 213.369 180.116 213.43 180.463 213.553C180.809 213.675 181.12 213.866 181.396 214.128C181.672 214.389 181.889 214.729 182.048 215.146C182.207 215.561 182.287 216.065 182.287 216.659V217.111H177.083V216.156H181.038C181.038 215.821 180.97 215.524 180.833 215.266C180.697 215.004 180.505 214.798 180.258 214.648C180.014 214.497 179.727 214.422 179.397 214.422C179.039 214.422 178.727 214.51 178.46 214.686C178.196 214.859 177.991 215.087 177.846 215.368C177.704 215.646 177.633 215.949 177.633 216.276V217.021C177.633 217.459 177.71 217.831 177.863 218.138C178.02 218.445 178.237 218.679 178.515 218.841C178.794 219 179.119 219.08 179.491 219.08C179.733 219.08 179.953 219.045 180.152 218.977C180.35 218.906 180.522 218.801 180.667 218.662C180.812 218.523 180.923 218.351 181 218.146L182.206 218.364C182.109 218.719 181.936 219.03 181.686 219.297C181.439 219.561 181.127 219.767 180.752 219.915C180.38 220.06 179.956 220.132 179.478 220.132ZM183.7 220V213.455H184.932V214.494H185C185.119 214.142 185.33 213.865 185.631 213.663C185.935 213.459 186.278 213.357 186.662 213.357C186.741 213.357 186.835 213.359 186.943 213.365C187.054 213.371 187.141 213.378 187.203 213.386V214.605C187.152 214.591 187.061 214.575 186.93 214.558C186.8 214.538 186.669 214.528 186.538 214.528C186.237 214.528 185.969 214.592 185.733 214.72C185.5 214.845 185.315 215.02 185.179 215.244C185.043 215.466 184.974 215.719 184.974 216.003V220H183.7ZM190.892 220.132C190.248 220.132 189.692 219.994 189.226 219.719C188.763 219.44 188.405 219.05 188.152 218.547C187.902 218.041 187.777 217.449 187.777 216.77C187.777 216.099 187.902 215.509 188.152 214.997C188.405 214.486 188.757 214.087 189.209 213.8C189.664 213.513 190.195 213.369 190.803 213.369C191.172 213.369 191.53 213.43 191.877 213.553C192.223 213.675 192.534 213.866 192.81 214.128C193.086 214.389 193.303 214.729 193.462 215.146C193.621 215.561 193.701 216.065 193.701 216.659V217.111H188.498V216.156H192.452C192.452 215.821 192.384 215.524 192.248 215.266C192.111 215.004 191.919 214.798 191.672 214.648C191.428 214.497 191.141 214.422 190.811 214.422C190.453 214.422 190.141 214.51 189.874 214.686C189.61 214.859 189.405 215.087 189.26 215.368C189.118 215.646 189.047 215.949 189.047 216.276V217.021C189.047 217.459 189.124 217.831 189.277 218.138C189.434 218.445 189.651 218.679 189.929 218.841C190.208 219 190.533 219.08 190.905 219.08C191.147 219.08 191.367 219.045 191.566 218.977C191.765 218.906 191.936 218.801 192.081 218.662C192.226 218.523 192.337 218.351 192.414 218.146L193.62 218.364C193.523 218.719 193.35 219.03 193.1 219.297C192.853 219.561 192.542 219.767 192.167 219.915C191.794 220.06 191.37 220.132 190.892 220.132ZM200.019 215.053L198.864 215.257C198.816 215.109 198.739 214.969 198.634 214.835C198.532 214.702 198.393 214.592 198.217 214.507C198.04 214.422 197.82 214.379 197.556 214.379C197.195 214.379 196.894 214.46 196.653 214.622C196.411 214.781 196.29 214.987 196.29 215.24C196.29 215.459 196.371 215.635 196.533 215.768C196.695 215.902 196.957 216.011 197.317 216.097L198.357 216.335C198.96 216.474 199.408 216.689 199.704 216.979C199.999 217.268 200.147 217.645 200.147 218.108C200.147 218.5 200.033 218.849 199.806 219.156C199.582 219.46 199.268 219.699 198.864 219.872C198.464 220.045 197.999 220.132 197.471 220.132C196.738 220.132 196.14 219.976 195.677 219.663C195.214 219.348 194.93 218.901 194.825 218.321L196.056 218.134C196.133 218.455 196.29 218.697 196.529 218.862C196.768 219.024 197.079 219.105 197.462 219.105C197.88 219.105 198.214 219.018 198.464 218.845C198.714 218.669 198.839 218.455 198.839 218.202C198.839 217.997 198.762 217.825 198.609 217.686C198.458 217.547 198.227 217.442 197.914 217.371L196.806 217.128C196.195 216.989 195.744 216.767 195.451 216.463C195.161 216.159 195.016 215.774 195.016 215.308C195.016 214.922 195.124 214.584 195.34 214.294C195.556 214.004 195.854 213.778 196.235 213.616C196.616 213.452 197.052 213.369 197.543 213.369C198.251 213.369 198.808 213.523 199.214 213.83C199.62 214.134 199.888 214.541 200.019 215.053ZM204.603 213.455V214.477H201.028V213.455H204.603ZM201.987 211.886H203.261V218.078C203.261 218.325 203.298 218.511 203.372 218.636C203.446 218.759 203.541 218.842 203.657 218.888C203.777 218.93 203.906 218.952 204.045 218.952C204.147 218.952 204.237 218.945 204.314 218.93C204.39 218.916 204.45 218.905 204.493 218.896L204.723 219.949C204.649 219.977 204.544 220.006 204.407 220.034C204.271 220.065 204.1 220.082 203.896 220.085C203.561 220.091 203.248 220.031 202.958 219.906C202.669 219.781 202.434 219.588 202.255 219.327C202.076 219.065 201.987 218.737 201.987 218.342V211.886ZM210.812 215.053L209.657 215.257C209.609 215.109 209.532 214.969 209.427 214.835C209.325 214.702 209.186 214.592 209.01 214.507C208.833 214.422 208.613 214.379 208.349 214.379C207.988 214.379 207.687 214.46 207.446 214.622C207.204 214.781 207.083 214.987 207.083 215.24C207.083 215.459 207.164 215.635 207.326 215.768C207.488 215.902 207.75 216.011 208.11 216.097L209.15 216.335C209.752 216.474 210.201 216.689 210.497 216.979C210.792 217.268 210.94 217.645 210.94 218.108C210.94 218.5 210.826 218.849 210.599 219.156C210.375 219.46 210.061 219.699 209.657 219.872C209.257 220.045 208.792 220.132 208.264 220.132C207.531 220.132 206.933 219.976 206.47 219.663C206.007 219.348 205.723 218.901 205.618 218.321L206.849 218.134C206.926 218.455 207.083 218.697 207.322 218.862C207.561 219.024 207.872 219.105 208.255 219.105C208.673 219.105 209.007 219.018 209.257 218.845C209.507 218.669 209.632 218.455 209.632 218.202C209.632 217.997 209.555 217.825 209.402 217.686C209.251 217.547 209.02 217.442 208.707 217.371L207.599 217.128C206.988 216.989 206.537 216.767 206.244 216.463C205.954 216.159 205.809 215.774 205.809 215.308C205.809 214.922 205.917 214.584 206.133 214.294C206.349 214.004 206.647 213.778 207.028 213.616C207.409 213.452 207.845 213.369 208.336 213.369C209.044 213.369 209.6 213.523 210.007 213.83C210.413 214.134 210.681 214.541 210.812 215.053Z" fill="#6DB210"/>
<path d="M170.869 177.383H168.691C168.651 177.101 168.57 176.851 168.447 176.632C168.325 176.41 168.167 176.221 167.975 176.065C167.783 175.91 167.561 175.79 167.309 175.707C167.06 175.625 166.79 175.583 166.499 175.583C165.972 175.583 165.513 175.714 165.121 175.976C164.73 176.234 164.427 176.612 164.212 177.109C163.996 177.603 163.888 178.203 163.888 178.909C163.888 179.635 163.996 180.245 164.212 180.739C164.43 181.232 164.735 181.605 165.126 181.857C165.518 182.109 165.97 182.235 166.484 182.235C166.772 182.235 167.039 182.197 167.284 182.121C167.533 182.045 167.753 181.933 167.945 181.788C168.138 181.638 168.297 181.458 168.423 181.246C168.552 181.034 168.641 180.792 168.691 180.52L170.869 180.53C170.812 180.997 170.671 181.448 170.446 181.882C170.224 182.313 169.924 182.699 169.546 183.04C169.172 183.379 168.724 183.647 168.204 183.846C167.687 184.041 167.102 184.139 166.449 184.139C165.541 184.139 164.729 183.934 164.013 183.523C163.3 183.112 162.737 182.517 162.322 181.738C161.911 180.959 161.706 180.016 161.706 178.909C161.706 177.799 161.915 176.854 162.332 176.075C162.75 175.296 163.317 174.703 164.033 174.295C164.749 173.884 165.554 173.679 166.449 173.679C167.039 173.679 167.586 173.762 168.089 173.928C168.597 174.093 169.046 174.335 169.437 174.653C169.828 174.968 170.146 175.354 170.391 175.812C170.64 176.269 170.799 176.793 170.869 177.383ZM174.55 184.144C174.063 184.144 173.629 184.06 173.248 183.891C172.866 183.718 172.565 183.465 172.343 183.13C172.124 182.792 172.015 182.371 172.015 181.867C172.015 181.443 172.092 181.087 172.248 180.798C172.404 180.51 172.616 180.278 172.885 180.102C173.153 179.927 173.458 179.794 173.799 179.705C174.144 179.615 174.505 179.552 174.883 179.516C175.327 179.469 175.685 179.426 175.957 179.386C176.229 179.343 176.426 179.28 176.549 179.197C176.671 179.115 176.733 178.992 176.733 178.83V178.8C176.733 178.485 176.633 178.241 176.434 178.069C176.239 177.897 175.96 177.81 175.599 177.81C175.218 177.81 174.915 177.895 174.689 178.064C174.464 178.23 174.315 178.438 174.242 178.69L172.283 178.531C172.382 178.067 172.578 177.666 172.87 177.328C173.161 176.987 173.538 176.725 173.998 176.543C174.462 176.357 174.999 176.264 175.609 176.264C176.033 176.264 176.439 176.314 176.827 176.413C177.218 176.513 177.565 176.667 177.866 176.876C178.171 177.085 178.411 177.353 178.587 177.681C178.763 178.006 178.85 178.395 178.85 178.849V184H176.842V182.941H176.782C176.66 183.18 176.496 183.39 176.29 183.572C176.085 183.751 175.838 183.892 175.549 183.995C175.261 184.094 174.928 184.144 174.55 184.144ZM175.157 182.683C175.468 182.683 175.743 182.621 175.982 182.499C176.221 182.373 176.408 182.204 176.544 181.991C176.68 181.779 176.748 181.539 176.748 181.271V180.46C176.681 180.503 176.59 180.543 176.474 180.58C176.361 180.613 176.234 180.644 176.091 180.674C175.949 180.701 175.806 180.725 175.664 180.749C175.521 180.768 175.392 180.787 175.276 180.803C175.027 180.84 174.81 180.898 174.625 180.977C174.439 181.057 174.295 181.165 174.192 181.3C174.089 181.433 174.038 181.599 174.038 181.798C174.038 182.086 174.142 182.306 174.351 182.459C174.563 182.608 174.832 182.683 175.157 182.683ZM180.494 184V176.364H182.547V177.696H182.626C182.766 177.222 182.999 176.864 183.327 176.622C183.656 176.377 184.033 176.254 184.461 176.254C184.567 176.254 184.681 176.261 184.804 176.274C184.927 176.287 185.034 176.306 185.127 176.329V178.208C185.028 178.178 184.89 178.152 184.714 178.129C184.539 178.105 184.378 178.094 184.232 178.094C183.921 178.094 183.642 178.162 183.397 178.298C183.155 178.43 182.963 178.616 182.82 178.854C182.681 179.093 182.612 179.368 182.612 179.68V184H180.494ZM161.885 201V190.818H164.038V199.225H168.403V201H161.885ZM173.239 201.149C172.467 201.149 171.799 200.985 171.235 200.657C170.675 200.326 170.243 199.865 169.938 199.275C169.633 198.682 169.48 197.994 169.48 197.212C169.48 196.423 169.633 195.733 169.938 195.143C170.243 194.55 170.675 194.089 171.235 193.761C171.799 193.43 172.467 193.264 173.239 193.264C174.011 193.264 174.677 193.43 175.237 193.761C175.801 194.089 176.235 194.55 176.54 195.143C176.845 195.733 176.997 196.423 176.997 197.212C176.997 197.994 176.845 198.682 176.54 199.275C176.235 199.865 175.801 200.326 175.237 200.657C174.677 200.985 174.011 201.149 173.239 201.149ZM173.249 199.509C173.6 199.509 173.893 199.409 174.129 199.21C174.364 199.008 174.541 198.733 174.661 198.385C174.783 198.037 174.845 197.641 174.845 197.197C174.845 196.753 174.783 196.357 174.661 196.009C174.541 195.661 174.364 195.385 174.129 195.183C173.893 194.981 173.6 194.88 173.249 194.88C172.894 194.88 172.596 194.981 172.354 195.183C172.115 195.385 171.935 195.661 171.812 196.009C171.693 196.357 171.633 196.753 171.633 197.197C171.633 197.641 171.693 198.037 171.812 198.385C171.935 198.733 172.115 199.008 172.354 199.21C172.596 199.409 172.894 199.509 173.249 199.509ZM180.552 201.144C180.065 201.144 179.631 201.06 179.249 200.891C178.868 200.718 178.567 200.465 178.345 200.13C178.126 199.792 178.017 199.371 178.017 198.867C178.017 198.443 178.094 198.087 178.25 197.798C178.406 197.51 178.618 197.278 178.887 197.102C179.155 196.927 179.46 196.794 179.801 196.705C180.146 196.615 180.507 196.552 180.885 196.516C181.329 196.469 181.687 196.426 181.959 196.386C182.231 196.343 182.428 196.28 182.551 196.197C182.673 196.115 182.735 195.992 182.735 195.83V195.8C182.735 195.485 182.635 195.241 182.436 195.069C182.241 194.897 181.962 194.81 181.601 194.81C181.22 194.81 180.917 194.895 180.691 195.064C180.466 195.23 180.317 195.438 180.244 195.69L178.285 195.531C178.384 195.067 178.58 194.666 178.872 194.328C179.163 193.987 179.539 193.725 180 193.543C180.464 193.357 181.001 193.264 181.611 193.264C182.035 193.264 182.441 193.314 182.829 193.413C183.22 193.513 183.566 193.667 183.868 193.876C184.173 194.085 184.413 194.353 184.589 194.681C184.765 195.006 184.852 195.395 184.852 195.849V201H182.844V199.941H182.784C182.662 200.18 182.498 200.39 182.292 200.572C182.087 200.751 181.84 200.892 181.551 200.995C181.263 201.094 180.93 201.144 180.552 201.144ZM181.159 199.683C181.47 199.683 181.745 199.621 181.984 199.499C182.222 199.373 182.41 199.204 182.546 198.991C182.682 198.779 182.749 198.539 182.749 198.271V197.46C182.683 197.503 182.592 197.543 182.476 197.58C182.363 197.613 182.236 197.644 182.093 197.674C181.951 197.701 181.808 197.725 181.666 197.749C181.523 197.768 181.394 197.787 181.278 197.803C181.029 197.84 180.812 197.898 180.627 197.977C180.441 198.057 180.297 198.165 180.194 198.3C180.091 198.433 180.04 198.599 180.04 198.798C180.04 199.086 180.144 199.306 180.353 199.459C180.565 199.608 180.834 199.683 181.159 199.683ZM188.613 196.585V201H186.496V193.364H188.514V194.711H188.604C188.773 194.267 189.056 193.915 189.454 193.657C189.851 193.395 190.334 193.264 190.9 193.264C191.431 193.264 191.893 193.38 192.287 193.612C192.682 193.844 192.988 194.176 193.207 194.607C193.426 195.034 193.535 195.545 193.535 196.138V201H191.417V196.516C191.421 196.048 191.301 195.684 191.059 195.422C190.818 195.157 190.484 195.024 190.06 195.024C189.775 195.024 189.523 195.085 189.305 195.208C189.089 195.331 188.92 195.51 188.797 195.745C188.678 195.977 188.617 196.257 188.613 196.585Z" fill="#333333"/>
<path d="M281 168C281 163.582 284.582 160 289 160H383C387.418 160 391 163.582 391 168V256C391 260.418 387.418 264 383 264H289C284.582 264 281 260.418 281 256V168Z" fill="#CEEAFF"/>
<path d="M296.506 250.256C295.528 250.252 294.688 250.011 293.983 249.534C293.282 249.057 292.742 248.366 292.364 247.46C291.989 246.555 291.803 245.466 291.807 244.193C291.807 242.924 291.994 241.843 292.369 240.949C292.748 240.055 293.288 239.375 293.989 238.909C294.693 238.439 295.532 238.205 296.506 238.205C297.479 238.205 298.316 238.439 299.017 238.909C299.722 239.379 300.263 240.061 300.642 240.955C301.021 241.845 301.208 242.924 301.205 244.193C301.205 245.47 301.015 246.561 300.636 247.466C300.261 248.371 299.723 249.062 299.023 249.54C298.322 250.017 297.483 250.256 296.506 250.256ZM296.506 248.216C297.172 248.216 297.705 247.881 298.102 247.21C298.5 246.54 298.697 245.534 298.693 244.193C298.693 243.311 298.602 242.576 298.42 241.989C298.242 241.402 297.989 240.96 297.659 240.665C297.333 240.369 296.949 240.222 296.506 240.222C295.843 240.222 295.313 240.553 294.915 241.216C294.517 241.879 294.316 242.871 294.312 244.193C294.312 245.087 294.402 245.833 294.58 246.432C294.761 247.027 295.017 247.473 295.347 247.773C295.676 248.068 296.062 248.216 296.506 248.216ZM307.5 248.364V247.903C307.5 247.554 307.574 247.233 307.722 246.94C307.872 246.645 308.089 246.409 308.374 246.233C308.661 246.054 309.01 245.964 309.422 245.964C309.839 245.964 310.19 246.053 310.474 246.229C310.761 246.405 310.977 246.641 311.122 246.936C311.27 247.229 311.344 247.551 311.344 247.903V248.364C311.344 248.713 311.27 249.036 311.122 249.331C310.974 249.624 310.757 249.858 310.47 250.034C310.183 250.213 309.834 250.303 309.422 250.303C309.004 250.303 308.653 250.213 308.369 250.034C308.085 249.858 307.869 249.624 307.722 249.331C307.574 249.036 307.5 248.713 307.5 248.364ZM308.74 247.903V248.364C308.74 248.565 308.788 248.756 308.885 248.935C308.984 249.114 309.163 249.203 309.422 249.203C309.68 249.203 309.857 249.115 309.95 248.939C310.047 248.763 310.095 248.571 310.095 248.364V247.903C310.095 247.696 310.05 247.503 309.959 247.324C309.868 247.145 309.689 247.055 309.422 247.055C309.166 247.055 308.989 247.145 308.889 247.324C308.79 247.503 308.74 247.696 308.74 247.903ZM303.021 243.369V242.909C303.021 242.557 303.097 242.234 303.247 241.942C303.398 241.646 303.615 241.411 303.899 241.234C304.186 241.058 304.533 240.97 304.939 240.97C305.359 240.97 305.712 241.058 305.996 241.234C306.28 241.411 306.496 241.646 306.643 241.942C306.791 242.234 306.865 242.557 306.865 242.909V243.369C306.865 243.722 306.79 244.044 306.639 244.337C306.491 244.629 306.274 244.864 305.987 245.04C305.703 245.213 305.354 245.3 304.939 245.3C304.524 245.3 304.173 245.212 303.886 245.036C303.602 244.857 303.386 244.622 303.239 244.332C303.094 244.04 303.021 243.719 303.021 243.369ZM304.27 242.909V243.369C304.27 243.577 304.318 243.768 304.415 243.945C304.514 244.121 304.689 244.209 304.939 244.209C305.2 244.209 305.378 244.121 305.472 243.945C305.568 243.768 305.616 243.577 305.616 243.369V242.909C305.616 242.702 305.571 242.509 305.48 242.33C305.389 242.151 305.209 242.061 304.939 242.061C304.686 242.061 304.511 242.152 304.415 242.334C304.318 242.516 304.27 242.707 304.27 242.909ZM303.584 250L309.584 241.273H310.7L304.7 250H303.584ZM318.209 246.426C318.216 245.903 318.322 245.475 318.527 245.142C318.735 244.809 319.002 244.562 319.328 244.403C319.658 244.241 320.012 244.159 320.391 244.159C320.777 244.159 321.124 244.241 321.43 244.403C321.737 244.566 322.067 244.794 322.419 245.085C322.68 245.297 322.902 245.455 323.084 245.557C323.269 245.659 323.474 245.71 323.697 245.71C324.05 245.714 324.338 245.598 324.561 245.364C324.785 245.129 324.91 244.801 324.936 244.381L325.874 244.409C325.855 244.928 325.741 245.352 325.533 245.682C325.328 246.011 325.065 246.256 324.743 246.415C324.421 246.574 324.078 246.653 323.714 246.653C323.347 246.65 323.016 246.57 322.72 246.415C322.425 246.256 322.099 246.032 321.743 245.744C321.482 245.528 321.254 245.367 321.061 245.261C320.868 245.155 320.648 245.1 320.402 245.097C320.05 245.097 319.754 245.208 319.516 245.432C319.281 245.652 319.158 245.987 319.146 246.438L318.209 246.426ZM337.256 250.256C336.278 250.252 335.438 250.011 334.733 249.534C334.032 249.057 333.492 248.366 333.114 247.46C332.739 246.555 332.553 245.466 332.557 244.193C332.557 242.924 332.744 241.843 333.119 240.949C333.498 240.055 334.038 239.375 334.739 238.909C335.443 238.439 336.282 238.205 337.256 238.205C338.229 238.205 339.066 238.439 339.767 238.909C340.472 239.379 341.013 240.061 341.392 240.955C341.771 241.845 341.958 242.924 341.955 244.193C341.955 245.47 341.765 246.561 341.386 247.466C341.011 248.371 340.473 249.062 339.773 249.54C339.072 250.017 338.233 250.256 337.256 250.256ZM337.256 248.216C337.922 248.216 338.455 247.881 338.852 247.21C339.25 246.54 339.447 245.534 339.443 244.193C339.443 243.311 339.352 242.576 339.17 241.989C338.992 241.402 338.739 240.96 338.409 240.665C338.083 240.369 337.699 240.222 337.256 240.222C336.593 240.222 336.063 240.553 335.665 241.216C335.267 241.879 335.066 242.871 335.062 244.193C335.062 245.087 335.152 245.833 335.33 246.432C335.511 247.027 335.767 247.473 336.097 247.773C336.426 248.068 336.812 248.216 337.256 248.216ZM348.25 248.364V247.903C348.25 247.554 348.324 247.233 348.472 246.94C348.622 246.645 348.839 246.409 349.124 246.233C349.411 246.054 349.76 245.964 350.172 245.964C350.589 245.964 350.94 246.053 351.224 246.229C351.511 246.405 351.727 246.641 351.872 246.936C352.02 247.229 352.094 247.551 352.094 247.903V248.364C352.094 248.713 352.02 249.036 351.872 249.331C351.724 249.624 351.507 249.858 351.22 250.034C350.933 250.213 350.584 250.303 350.172 250.303C349.754 250.303 349.403 250.213 349.119 250.034C348.835 249.858 348.619 249.624 348.472 249.331C348.324 249.036 348.25 248.713 348.25 248.364ZM349.49 247.903V248.364C349.49 248.565 349.538 248.756 349.635 248.935C349.734 249.114 349.913 249.203 350.172 249.203C350.43 249.203 350.607 249.115 350.7 248.939C350.797 248.763 350.845 248.571 350.845 248.364V247.903C350.845 247.696 350.8 247.503 350.709 247.324C350.618 247.145 350.439 247.055 350.172 247.055C349.916 247.055 349.739 247.145 349.639 247.324C349.54 247.503 349.49 247.696 349.49 247.903ZM343.771 243.369V242.909C343.771 242.557 343.847 242.234 343.997 241.942C344.148 241.646 344.365 241.411 344.649 241.234C344.936 241.058 345.283 240.97 345.689 240.97C346.109 240.97 346.462 241.058 346.746 241.234C347.03 241.411 347.246 241.646 347.393 241.942C347.541 242.234 347.615 242.557 347.615 242.909V243.369C347.615 243.722 347.54 244.044 347.389 244.337C347.241 244.629 347.024 244.864 346.737 245.04C346.453 245.213 346.104 245.3 345.689 245.3C345.274 245.3 344.923 245.212 344.636 245.036C344.352 244.857 344.136 244.622 343.989 244.332C343.844 244.04 343.771 243.719 343.771 243.369ZM345.02 242.909V243.369C345.02 243.577 345.068 243.768 345.165 243.945C345.264 244.121 345.439 244.209 345.689 244.209C345.95 244.209 346.128 244.121 346.222 243.945C346.318 243.768 346.366 243.577 346.366 243.369V242.909C346.366 242.702 346.321 242.509 346.23 242.33C346.139 242.151 345.959 242.061 345.689 242.061C345.436 242.061 345.261 242.152 345.165 242.334C345.068 242.516 345.02 242.707 345.02 242.909ZM344.334 250L350.334 241.273H351.45L345.45 250H344.334Z" fill="#333333"/>
<path d="M293.276 211.273V220H291.959V211.273H293.276ZM296.365 216.114V220H295.091V213.455H296.314V214.52H296.395C296.545 214.173 296.781 213.895 297.102 213.685C297.426 213.474 297.834 213.369 298.325 213.369C298.771 213.369 299.162 213.463 299.497 213.651C299.832 213.835 300.092 214.111 300.277 214.477C300.462 214.844 300.554 215.297 300.554 215.837V220H299.28V215.99C299.28 215.516 299.156 215.145 298.909 214.878C298.662 214.608 298.322 214.473 297.891 214.473C297.595 214.473 297.332 214.537 297.102 214.665C296.875 214.793 296.695 214.98 296.561 215.227C296.43 215.472 296.365 215.767 296.365 216.114ZM305.318 213.455V214.477H301.743V213.455H305.318ZM302.702 211.886H303.976V218.078C303.976 218.325 304.013 218.511 304.087 218.636C304.161 218.759 304.256 218.842 304.372 218.888C304.491 218.93 304.621 218.952 304.76 218.952C304.862 218.952 304.952 218.945 305.028 218.93C305.105 218.916 305.165 218.905 305.207 218.896L305.438 219.949C305.364 219.977 305.259 220.006 305.122 220.034C304.986 220.065 304.815 220.082 304.611 220.085C304.276 220.091 303.963 220.031 303.673 219.906C303.384 219.781 303.149 219.588 302.97 219.327C302.791 219.065 302.702 218.737 302.702 218.342V211.886ZM309.478 220.132C308.833 220.132 308.278 219.994 307.812 219.719C307.349 219.44 306.991 219.05 306.738 218.547C306.488 218.041 306.363 217.449 306.363 216.77C306.363 216.099 306.488 215.509 306.738 214.997C306.991 214.486 307.343 214.087 307.795 213.8C308.25 213.513 308.781 213.369 309.389 213.369C309.758 213.369 310.116 213.43 310.463 213.553C310.809 213.675 311.12 213.866 311.396 214.128C311.672 214.389 311.889 214.729 312.048 215.146C312.207 215.561 312.287 216.065 312.287 216.659V217.111H307.083V216.156H311.038C311.038 215.821 310.97 215.524 310.833 215.266C310.697 215.004 310.505 214.798 310.258 214.648C310.014 214.497 309.727 214.422 309.397 214.422C309.039 214.422 308.727 214.51 308.46 214.686C308.196 214.859 307.991 215.087 307.846 215.368C307.704 215.646 307.633 215.949 307.633 216.276V217.021C307.633 217.459 307.71 217.831 307.863 218.138C308.02 218.445 308.237 218.679 308.515 218.841C308.794 219 309.119 219.08 309.491 219.08C309.733 219.08 309.953 219.045 310.152 218.977C310.35 218.906 310.522 218.801 310.667 218.662C310.812 218.523 310.923 218.351 311 218.146L312.206 218.364C312.109 218.719 311.936 219.03 311.686 219.297C311.439 219.561 311.127 219.767 310.752 219.915C310.38 220.06 309.956 220.132 309.478 220.132ZM313.7 220V213.455H314.932V214.494H315C315.119 214.142 315.33 213.865 315.631 213.663C315.935 213.459 316.278 213.357 316.662 213.357C316.741 213.357 316.835 213.359 316.943 213.365C317.054 213.371 317.141 213.378 317.203 213.386V214.605C317.152 214.591 317.061 214.575 316.93 214.558C316.8 214.538 316.669 214.528 316.538 214.528C316.237 214.528 315.969 214.592 315.733 214.72C315.5 214.845 315.315 215.02 315.179 215.244C315.043 215.466 314.974 215.719 314.974 216.003V220H313.7ZM320.892 220.132C320.248 220.132 319.692 219.994 319.226 219.719C318.763 219.44 318.405 219.05 318.152 218.547C317.902 218.041 317.777 217.449 317.777 216.77C317.777 216.099 317.902 215.509 318.152 214.997C318.405 214.486 318.757 214.087 319.209 213.8C319.664 213.513 320.195 213.369 320.803 213.369C321.172 213.369 321.53 213.43 321.877 213.553C322.223 213.675 322.534 213.866 322.81 214.128C323.086 214.389 323.303 214.729 323.462 215.146C323.621 215.561 323.701 216.065 323.701 216.659V217.111H318.498V216.156H322.452C322.452 215.821 322.384 215.524 322.248 215.266C322.111 215.004 321.919 214.798 321.672 214.648C321.428 214.497 321.141 214.422 320.811 214.422C320.453 214.422 320.141 214.51 319.874 214.686C319.61 214.859 319.405 215.087 319.26 215.368C319.118 215.646 319.047 215.949 319.047 216.276V217.021C319.047 217.459 319.124 217.831 319.277 218.138C319.434 218.445 319.651 218.679 319.929 218.841C320.208 219 320.533 219.08 320.905 219.08C321.147 219.08 321.367 219.045 321.566 218.977C321.765 218.906 321.936 218.801 322.081 218.662C322.226 218.523 322.337 218.351 322.414 218.146L323.62 218.364C323.523 218.719 323.35 219.03 323.1 219.297C322.853 219.561 322.542 219.767 322.167 219.915C321.794 220.06 321.37 220.132 320.892 220.132ZM330.019 215.053L328.864 215.257C328.816 215.109 328.739 214.969 328.634 214.835C328.532 214.702 328.393 214.592 328.217 214.507C328.04 214.422 327.82 214.379 327.556 214.379C327.195 214.379 326.894 214.46 326.653 214.622C326.411 214.781 326.29 214.987 326.29 215.24C326.29 215.459 326.371 215.635 326.533 215.768C326.695 215.902 326.957 216.011 327.317 216.097L328.357 216.335C328.96 216.474 329.408 216.689 329.704 216.979C329.999 217.268 330.147 217.645 330.147 218.108C330.147 218.5 330.033 218.849 329.806 219.156C329.582 219.46 329.268 219.699 328.864 219.872C328.464 220.045 327.999 220.132 327.471 220.132C326.738 220.132 326.14 219.976 325.677 219.663C325.214 219.348 324.93 218.901 324.825 218.321L326.056 218.134C326.133 218.455 326.29 218.697 326.529 218.862C326.768 219.024 327.079 219.105 327.462 219.105C327.88 219.105 328.214 219.018 328.464 218.845C328.714 218.669 328.839 218.455 328.839 218.202C328.839 217.997 328.762 217.825 328.609 217.686C328.458 217.547 328.227 217.442 327.914 217.371L326.806 217.128C326.195 216.989 325.744 216.767 325.451 216.463C325.161 216.159 325.016 215.774 325.016 215.308C325.016 214.922 325.124 214.584 325.34 214.294C325.556 214.004 325.854 213.778 326.235 213.616C326.616 213.452 327.052 213.369 327.543 213.369C328.251 213.369 328.808 213.523 329.214 213.83C329.62 214.134 329.888 214.541 330.019 215.053ZM334.603 213.455V214.477H331.028V213.455H334.603ZM331.987 211.886H333.261V218.078C333.261 218.325 333.298 218.511 333.372 218.636C333.446 218.759 333.541 218.842 333.657 218.888C333.777 218.93 333.906 218.952 334.045 218.952C334.147 218.952 334.237 218.945 334.314 218.93C334.39 218.916 334.45 218.905 334.493 218.896L334.723 219.949C334.649 219.977 334.544 220.006 334.407 220.034C334.271 220.065 334.1 220.082 333.896 220.085C333.561 220.091 333.248 220.031 332.958 219.906C332.669 219.781 332.434 219.588 332.255 219.327C332.076 219.065 331.987 218.737 331.987 218.342V211.886ZM340.812 215.053L339.657 215.257C339.609 215.109 339.532 214.969 339.427 214.835C339.325 214.702 339.186 214.592 339.01 214.507C338.833 214.422 338.613 214.379 338.349 214.379C337.988 214.379 337.687 214.46 337.446 214.622C337.204 214.781 337.083 214.987 337.083 215.24C337.083 215.459 337.164 215.635 337.326 215.768C337.488 215.902 337.75 216.011 338.11 216.097L339.15 216.335C339.752 216.474 340.201 216.689 340.497 216.979C340.792 217.268 340.94 217.645 340.94 218.108C340.94 218.5 340.826 218.849 340.599 219.156C340.375 219.46 340.061 219.699 339.657 219.872C339.257 220.045 338.792 220.132 338.264 220.132C337.531 220.132 336.933 219.976 336.47 219.663C336.007 219.348 335.723 218.901 335.618 218.321L336.849 218.134C336.926 218.455 337.083 218.697 337.322 218.862C337.561 219.024 337.872 219.105 338.255 219.105C338.673 219.105 339.007 219.018 339.257 218.845C339.507 218.669 339.632 218.455 339.632 218.202C339.632 217.997 339.555 217.825 339.402 217.686C339.251 217.547 339.02 217.442 338.707 217.371L337.599 217.128C336.988 216.989 336.537 216.767 336.244 216.463C335.954 216.159 335.809 215.774 335.809 215.308C335.809 214.922 335.917 214.584 336.133 214.294C336.349 214.004 336.647 213.778 337.028 213.616C337.409 213.452 337.845 213.369 338.336 213.369C339.044 213.369 339.6 213.523 340.007 213.83C340.413 214.134 340.681 214.541 340.812 215.053Z" fill="#45A0E4"/>
<path d="M291.885 184V173.818H294.038V178.019H298.408V173.818H300.555V184H298.408V179.794H294.038V184H291.885ZM305.741 184.149C304.969 184.149 304.301 183.985 303.737 183.657C303.177 183.326 302.745 182.865 302.44 182.275C302.135 181.682 301.982 180.994 301.982 180.212C301.982 179.423 302.135 178.733 302.44 178.143C302.745 177.55 303.177 177.089 303.737 176.761C304.301 176.43 304.969 176.264 305.741 176.264C306.513 176.264 307.179 176.43 307.739 176.761C308.303 177.089 308.737 177.55 309.042 178.143C309.347 178.733 309.499 179.423 309.499 180.212C309.499 180.994 309.347 181.682 309.042 182.275C308.737 182.865 308.303 183.326 307.739 183.657C307.179 183.985 306.513 184.149 305.741 184.149ZM305.751 182.509C306.102 182.509 306.395 182.409 306.631 182.21C306.866 182.008 307.043 181.733 307.163 181.385C307.285 181.037 307.347 180.641 307.347 180.197C307.347 179.753 307.285 179.357 307.163 179.009C307.043 178.661 306.866 178.385 306.631 178.183C306.395 177.981 306.102 177.88 305.751 177.88C305.396 177.88 305.098 177.981 304.856 178.183C304.617 178.385 304.437 178.661 304.314 179.009C304.195 179.357 304.135 179.753 304.135 180.197C304.135 180.641 304.195 181.037 304.314 181.385C304.437 181.733 304.617 182.008 304.856 182.21C305.098 182.409 305.396 182.509 305.751 182.509ZM315.773 180.749V176.364H317.891V184H315.858V182.613H315.778C315.606 183.06 315.319 183.42 314.918 183.692C314.521 183.964 314.035 184.099 313.462 184.099C312.951 184.099 312.502 183.983 312.114 183.751C311.727 183.519 311.423 183.19 311.205 182.762C310.989 182.335 310.88 181.822 310.876 181.226V176.364H312.994V180.848C312.998 181.299 313.119 181.655 313.357 181.917C313.596 182.179 313.916 182.31 314.317 182.31C314.572 182.31 314.811 182.252 315.033 182.136C315.255 182.016 315.434 181.841 315.57 181.609C315.709 181.377 315.777 181.09 315.773 180.749ZM325.939 178.541L324 178.661C323.967 178.495 323.896 178.346 323.786 178.213C323.677 178.077 323.533 177.969 323.354 177.89C323.178 177.807 322.968 177.766 322.722 177.766C322.394 177.766 322.118 177.835 321.892 177.974C321.667 178.11 321.554 178.293 321.554 178.521C321.554 178.704 321.627 178.858 321.773 178.984C321.919 179.11 322.169 179.211 322.524 179.287L323.906 179.565C324.648 179.718 325.202 179.963 325.566 180.301C325.931 180.639 326.113 181.083 326.113 181.634C326.113 182.134 325.966 182.573 325.671 182.951C325.379 183.329 324.978 183.624 324.468 183.836C323.96 184.045 323.375 184.149 322.713 184.149C321.702 184.149 320.896 183.939 320.296 183.518C319.7 183.094 319.35 182.517 319.247 181.788L321.33 181.678C321.393 181.987 321.546 182.222 321.788 182.384C322.03 182.543 322.34 182.623 322.718 182.623C323.089 182.623 323.387 182.552 323.612 182.409C323.841 182.263 323.957 182.076 323.96 181.847C323.957 181.655 323.876 181.498 323.717 181.375C323.558 181.249 323.312 181.153 322.981 181.087L321.659 180.823C320.913 180.674 320.358 180.415 319.993 180.048C319.632 179.68 319.451 179.211 319.451 178.641C319.451 178.15 319.584 177.728 319.849 177.373C320.117 177.018 320.494 176.745 320.977 176.553C321.465 176.36 322.035 176.264 322.688 176.264C323.652 176.264 324.411 176.468 324.965 176.876C325.521 177.283 325.846 177.839 325.939 178.541ZM327.447 184V176.364H329.565V184H327.447ZM328.511 175.379C328.196 175.379 327.926 175.275 327.7 175.066C327.478 174.854 327.367 174.6 327.367 174.305C327.367 174.014 327.478 173.763 327.7 173.555C327.926 173.343 328.196 173.237 328.511 173.237C328.826 173.237 329.094 173.343 329.316 173.555C329.541 173.763 329.654 174.014 329.654 174.305C329.654 174.6 329.541 174.854 329.316 175.066C329.094 175.275 328.826 175.379 328.511 175.379ZM333.379 179.585V184H331.261V176.364H333.28V177.711H333.369C333.538 177.267 333.822 176.915 334.219 176.657C334.617 176.395 335.099 176.264 335.666 176.264C336.196 176.264 336.659 176.38 337.053 176.612C337.448 176.844 337.754 177.176 337.973 177.607C338.192 178.034 338.301 178.545 338.301 179.138V184H336.183V179.516C336.186 179.048 336.067 178.684 335.825 178.422C335.583 178.157 335.25 178.024 334.826 178.024C334.541 178.024 334.289 178.085 334.07 178.208C333.855 178.331 333.686 178.51 333.563 178.745C333.444 178.977 333.382 179.257 333.379 179.585ZM343.411 187.023C342.724 187.023 342.136 186.928 341.646 186.739C341.158 186.554 340.771 186.3 340.482 185.979C340.194 185.657 340.007 185.296 339.92 184.895L341.879 184.631C341.939 184.784 342.033 184.926 342.163 185.059C342.292 185.192 342.463 185.298 342.675 185.377C342.89 185.46 343.152 185.501 343.46 185.501C343.921 185.501 344.3 185.389 344.599 185.163C344.9 184.941 345.051 184.568 345.051 184.045V182.648H344.962C344.869 182.86 344.73 183.06 344.544 183.249C344.358 183.438 344.12 183.592 343.828 183.712C343.536 183.831 343.188 183.891 342.784 183.891C342.211 183.891 341.689 183.758 341.218 183.493C340.751 183.224 340.378 182.815 340.099 182.265C339.824 181.711 339.687 181.012 339.687 180.167C339.687 179.302 339.828 178.579 340.109 177.999C340.391 177.419 340.766 176.985 341.233 176.697C341.704 176.408 342.219 176.264 342.779 176.264C343.207 176.264 343.565 176.337 343.853 176.483C344.141 176.625 344.373 176.804 344.549 177.02C344.728 177.232 344.866 177.441 344.962 177.646H345.041V176.364H347.144V184.075C347.144 184.724 346.985 185.268 346.667 185.705C346.349 186.143 345.908 186.471 345.344 186.69C344.784 186.912 344.14 187.023 343.411 187.023ZM343.455 182.3C343.797 182.3 344.085 182.215 344.32 182.046C344.559 181.874 344.741 181.629 344.867 181.31C344.996 180.989 345.061 180.604 345.061 180.157C345.061 179.71 344.998 179.322 344.872 178.994C344.746 178.662 344.564 178.405 344.325 178.223C344.087 178.041 343.797 177.95 343.455 177.95C343.107 177.95 342.814 178.044 342.575 178.233C342.337 178.419 342.156 178.677 342.033 179.009C341.911 179.34 341.849 179.723 341.849 180.157C341.849 180.598 341.911 180.979 342.033 181.3C342.159 181.619 342.34 181.866 342.575 182.041C342.814 182.214 343.107 182.3 343.455 182.3ZM291.885 201V190.818H294.038V199.225H298.403V201H291.885ZM303.239 201.149C302.467 201.149 301.799 200.985 301.235 200.657C300.675 200.326 300.243 199.865 299.938 199.275C299.633 198.682 299.48 197.994 299.48 197.212C299.48 196.423 299.633 195.733 299.938 195.143C300.243 194.55 300.675 194.089 301.235 193.761C301.799 193.43 302.467 193.264 303.239 193.264C304.011 193.264 304.677 193.43 305.237 193.761C305.801 194.089 306.235 194.55 306.54 195.143C306.845 195.733 306.997 196.423 306.997 197.212C306.997 197.994 306.845 198.682 306.54 199.275C306.235 199.865 305.801 200.326 305.237 200.657C304.677 200.985 304.011 201.149 303.239 201.149ZM303.249 199.509C303.6 199.509 303.893 199.409 304.129 199.21C304.364 199.008 304.541 198.733 304.661 198.385C304.783 198.037 304.845 197.641 304.845 197.197C304.845 196.753 304.783 196.357 304.661 196.009C304.541 195.661 304.364 195.385 304.129 195.183C303.893 194.981 303.6 194.88 303.249 194.88C302.894 194.88 302.596 194.981 302.354 195.183C302.115 195.385 301.935 195.661 301.812 196.009C301.693 196.357 301.633 196.753 301.633 197.197C301.633 197.641 301.693 198.037 301.812 198.385C301.935 198.733 302.115 199.008 302.354 199.21C302.596 199.409 302.894 199.509 303.249 199.509ZM310.552 201.144C310.065 201.144 309.631 201.06 309.249 200.891C308.868 200.718 308.567 200.465 308.345 200.13C308.126 199.792 308.017 199.371 308.017 198.867C308.017 198.443 308.094 198.087 308.25 197.798C308.406 197.51 308.618 197.278 308.887 197.102C309.155 196.927 309.46 196.794 309.801 196.705C310.146 196.615 310.507 196.552 310.885 196.516C311.329 196.469 311.687 196.426 311.959 196.386C312.231 196.343 312.428 196.28 312.551 196.197C312.673 196.115 312.735 195.992 312.735 195.83V195.8C312.735 195.485 312.635 195.241 312.436 195.069C312.241 194.897 311.962 194.81 311.601 194.81C311.22 194.81 310.917 194.895 310.691 195.064C310.466 195.23 310.317 195.438 310.244 195.69L308.285 195.531C308.384 195.067 308.58 194.666 308.872 194.328C309.163 193.987 309.539 193.725 310 193.543C310.464 193.357 311.001 193.264 311.611 193.264C312.035 193.264 312.441 193.314 312.829 193.413C313.22 193.513 313.566 193.667 313.868 193.876C314.173 194.085 314.413 194.353 314.589 194.681C314.765 195.006 314.852 195.395 314.852 195.849V201H312.844V199.941H312.784C312.662 200.18 312.498 200.39 312.292 200.572C312.087 200.751 311.84 200.892 311.551 200.995C311.263 201.094 310.93 201.144 310.552 201.144ZM311.159 199.683C311.47 199.683 311.745 199.621 311.984 199.499C312.222 199.373 312.41 199.204 312.546 198.991C312.682 198.779 312.749 198.539 312.749 198.271V197.46C312.683 197.503 312.592 197.543 312.476 197.58C312.363 197.613 312.236 197.644 312.093 197.674C311.951 197.701 311.808 197.725 311.666 197.749C311.523 197.768 311.394 197.787 311.278 197.803C311.029 197.84 310.812 197.898 310.627 197.977C310.441 198.057 310.297 198.165 310.194 198.3C310.091 198.433 310.04 198.599 310.04 198.798C310.04 199.086 310.144 199.306 310.353 199.459C310.565 199.608 310.834 199.683 311.159 199.683ZM318.613 196.585V201H316.496V193.364H318.514V194.711H318.604C318.773 194.267 319.056 193.915 319.454 193.657C319.851 193.395 320.334 193.264 320.9 193.264C321.431 193.264 321.893 193.38 322.287 193.612C322.682 193.844 322.988 194.176 323.207 194.607C323.426 195.034 323.535 195.545 323.535 196.138V201H321.417V196.516C321.421 196.048 321.301 195.684 321.059 195.422C320.818 195.157 320.484 195.024 320.06 195.024C319.775 195.024 319.523 195.085 319.305 195.208C319.089 195.331 318.92 195.51 318.797 195.745C318.678 195.977 318.617 196.257 318.613 196.585Z" fill="#333333"/>
<rect x="21.5" y="74.5" width="369" height="65" rx="7.5" fill="#FBFBFB"/>
<path d="M50.282 102.818V113H49.3771L43.3615 104.474H43.282V113H42.3523V102.818H43.2521L49.2876 111.354H49.3672V102.818H50.282ZM55.7731 113.159C55.1135 113.159 54.5302 112.992 54.0231 112.657C53.5193 112.322 53.1249 111.86 52.8398 111.27C52.5548 110.677 52.4123 109.992 52.4123 109.217C52.4123 108.434 52.5548 107.747 52.8398 107.153C53.1249 106.557 53.5193 106.093 54.0231 105.761C54.5302 105.427 55.1135 105.259 55.7731 105.259C56.4326 105.259 57.0143 105.427 57.5181 105.761C58.0219 106.096 58.4163 106.56 58.7013 107.153C58.9897 107.747 59.1339 108.434 59.1339 109.217C59.1339 109.992 58.9914 110.677 58.7063 111.27C58.4213 111.86 58.0252 112.322 57.5181 112.657C57.0143 112.992 56.4326 113.159 55.7731 113.159ZM55.7731 112.349C56.3034 112.349 56.7525 112.206 57.1204 111.921C57.4883 111.636 57.7667 111.257 57.9556 110.783C58.1478 110.309 58.244 109.787 58.244 109.217C58.244 108.647 58.1478 108.123 57.9556 107.646C57.7667 107.168 57.4883 106.786 57.1204 106.497C56.7525 106.209 56.3034 106.065 55.7731 106.065C55.2461 106.065 54.797 106.209 54.4258 106.497C54.0579 106.786 53.7778 107.168 53.5856 107.646C53.3967 108.123 53.3022 108.647 53.3022 109.217C53.3022 109.787 53.3967 110.309 53.5856 110.783C53.7778 111.257 54.0579 111.636 54.4258 111.921C54.7937 112.206 55.2428 112.349 55.7731 112.349ZM61.7825 113.075C61.5869 113.075 61.4179 113.005 61.2754 112.866C61.1362 112.723 61.0666 112.554 61.0666 112.359C61.0666 112.16 61.1362 111.991 61.2754 111.852C61.4179 111.712 61.5869 111.643 61.7825 111.643C61.9814 111.643 62.1504 111.712 62.2896 111.852C62.4288 111.991 62.4984 112.16 62.4984 112.359C62.4984 112.488 62.4653 112.607 62.399 112.717C62.336 112.826 62.2498 112.914 62.1404 112.98C62.0344 113.043 61.9151 113.075 61.7825 113.075ZM71.7418 113.159C71.0823 113.159 70.4989 112.992 69.9918 112.657C69.488 112.322 69.0936 111.86 68.8086 111.27C68.5236 110.677 68.381 109.992 68.381 109.217C68.381 108.434 68.5236 107.747 68.8086 107.153C69.0936 106.557 69.488 106.093 69.9918 105.761C70.4989 105.427 71.0823 105.259 71.7418 105.259C72.4014 105.259 72.9831 105.427 73.4869 105.761C73.9906 106.096 74.3851 106.56 74.6701 107.153C74.9585 107.747 75.1026 108.434 75.1026 109.217C75.1026 109.992 74.9601 110.677 74.6751 111.27C74.39 111.86 73.994 112.322 73.4869 112.657C72.9831 112.992 72.4014 113.159 71.7418 113.159ZM71.7418 112.349C72.2721 112.349 72.7212 112.206 73.0891 111.921C73.457 111.636 73.7354 111.257 73.9244 110.783C74.1166 110.309 74.2127 109.787 74.2127 109.217C74.2127 108.647 74.1166 108.123 73.9244 107.646C73.7354 107.168 73.457 106.786 73.0891 106.497C72.7212 106.209 72.2721 106.065 71.7418 106.065C71.2148 106.065 70.7657 106.209 70.3945 106.497C70.0266 106.786 69.7466 107.168 69.5543 107.646C69.3654 108.123 69.271 108.647 69.271 109.217C69.271 109.787 69.3654 110.309 69.5543 110.783C69.7466 111.257 70.0266 111.636 70.3945 111.921C70.7624 112.206 71.2115 112.349 71.7418 112.349ZM80.1873 105.364V106.134H76.4338V105.364H80.1873ZM77.6071 113V104.245C77.6071 103.834 77.7015 103.488 77.8904 103.206C78.0827 102.924 78.3329 102.71 78.6412 102.565C78.9494 102.419 79.2759 102.346 79.6206 102.346C79.8526 102.346 80.0448 102.366 80.1973 102.406C80.353 102.442 80.4757 102.478 80.5652 102.515L80.3066 103.29C80.2404 103.271 80.1592 103.247 80.063 103.221C79.9669 103.194 79.8459 103.181 79.7001 103.181C79.3156 103.181 79.019 103.289 78.8102 103.504C78.6014 103.72 78.497 104.028 78.497 104.429L78.492 113H77.6071ZM86.0898 113H85.1154L88.8192 102.818H89.8136L93.5174 113H92.543L89.3512 104.026H89.2816L86.0898 113ZM86.7908 109.097H91.842V109.933H86.7908V109.097ZM98.0614 113.159C97.3787 113.159 96.7837 112.988 96.2766 112.647C95.7728 112.306 95.3817 111.838 95.1033 111.245C94.8249 110.652 94.6857 109.976 94.6857 109.217C94.6857 108.451 94.8266 107.77 95.1083 107.173C95.3933 106.577 95.7878 106.109 96.2915 105.771C96.7953 105.43 97.3803 105.259 98.0465 105.259C98.5569 105.259 99.0193 105.359 99.4336 105.558C99.8479 105.753 100.189 106.03 100.458 106.388C100.73 106.742 100.9 107.157 100.97 107.631H100.075C99.9821 107.2 99.7584 106.832 99.4038 106.527C99.0524 106.219 98.605 106.065 98.0614 106.065C97.5742 106.065 97.1433 106.197 96.7688 106.462C96.3943 106.724 96.101 107.09 95.8888 107.561C95.68 108.028 95.5756 108.57 95.5756 109.187C95.5756 109.807 95.6784 110.355 95.8839 110.832C96.0894 111.306 96.3777 111.678 96.7489 111.946C97.1235 112.214 97.561 112.349 98.0614 112.349C98.3995 112.349 98.7077 112.286 98.9862 112.16C99.2679 112.031 99.5032 111.848 99.6921 111.613C99.8844 111.378 100.014 111.098 100.08 110.773H100.975C100.908 111.233 100.744 111.644 100.483 112.006C100.224 112.364 99.8877 112.645 99.4734 112.851C99.0624 113.056 98.5917 113.159 98.0614 113.159ZM105.854 113.159C105.172 113.159 104.577 112.988 104.07 112.647C103.566 112.306 103.175 111.838 102.896 111.245C102.618 110.652 102.479 109.976 102.479 109.217C102.479 108.451 102.62 107.77 102.901 107.173C103.186 106.577 103.581 106.109 104.085 105.771C104.588 105.43 105.173 105.259 105.839 105.259C106.35 105.259 106.812 105.359 107.227 105.558C107.641 105.753 107.982 106.03 108.251 106.388C108.522 106.742 108.693 107.157 108.763 107.631H107.868C107.775 107.2 107.551 106.832 107.197 106.527C106.845 106.219 106.398 106.065 105.854 106.065C105.367 106.065 104.936 106.197 104.562 106.462C104.187 106.724 103.894 107.09 103.682 107.561C103.473 108.028 103.369 108.57 103.369 109.187C103.369 109.807 103.471 110.355 103.677 110.832C103.882 111.306 104.171 111.678 104.542 111.946C104.916 112.214 105.354 112.349 105.854 112.349C106.192 112.349 106.501 112.286 106.779 112.16C107.061 112.031 107.296 111.848 107.485 111.613C107.677 111.378 107.807 111.098 107.873 110.773H108.768C108.701 111.233 108.537 111.644 108.276 112.006C108.017 112.364 107.681 112.645 107.266 112.851C106.855 113.056 106.385 113.159 105.854 113.159ZM113.632 113.159C112.973 113.159 112.39 112.992 111.882 112.657C111.379 112.322 110.984 111.86 110.699 111.27C110.414 110.677 110.272 109.992 110.272 109.217C110.272 108.434 110.414 107.747 110.699 107.153C110.984 106.557 111.379 106.093 111.882 105.761C112.39 105.427 112.973 105.259 113.632 105.259C114.292 105.259 114.874 105.427 115.377 105.761C115.881 106.096 116.276 106.56 116.561 107.153C116.849 107.747 116.993 108.434 116.993 109.217C116.993 109.992 116.851 110.677 116.566 111.27C116.281 111.86 115.885 112.322 115.377 112.657C114.874 112.992 114.292 113.159 113.632 113.159ZM113.632 112.349C114.163 112.349 114.612 112.206 114.98 111.921C115.348 111.636 115.626 111.257 115.815 110.783C116.007 110.309 116.103 109.787 116.103 109.217C116.103 108.647 116.007 108.123 115.815 107.646C115.626 107.168 115.348 106.786 114.98 106.497C114.612 106.209 114.163 106.065 113.632 106.065C113.105 106.065 112.656 106.209 112.285 106.497C111.917 106.786 111.637 107.168 111.445 107.646C111.256 108.123 111.162 108.647 111.162 109.217C111.162 109.787 111.256 110.309 111.445 110.783C111.637 111.257 111.917 111.636 112.285 111.921C112.653 112.206 113.102 112.349 113.632 112.349ZM123.788 110.082V105.364H124.673V113H123.788V111.732H123.719C123.54 112.123 123.256 112.45 122.868 112.712C122.481 112.97 122.007 113.099 121.447 113.099C120.959 113.099 120.527 112.993 120.149 112.781C119.771 112.566 119.474 112.251 119.259 111.837C119.044 111.422 118.936 110.914 118.936 110.31V105.364H119.821V110.256C119.821 110.852 119.997 111.333 120.348 111.697C120.699 112.059 121.15 112.239 121.7 112.239C122.045 112.239 122.376 112.156 122.694 111.991C123.013 111.825 123.274 111.583 123.48 111.265C123.685 110.943 123.788 110.549 123.788 110.082ZM127.901 108.227V113H127.016V105.364H127.876V106.562H127.956C128.135 106.171 128.413 105.857 128.791 105.622C129.172 105.384 129.643 105.264 130.203 105.264C130.717 105.264 131.167 105.372 131.555 105.587C131.946 105.799 132.249 106.113 132.465 106.527C132.684 106.941 132.793 107.45 132.793 108.053V113H131.908V108.108C131.908 107.482 131.732 106.986 131.381 106.621C131.033 106.257 130.566 106.075 129.979 106.075C129.578 106.075 129.222 106.161 128.91 106.333C128.599 106.505 128.352 106.754 128.169 107.079C127.99 107.4 127.901 107.783 127.901 108.227ZM138.131 105.364V106.134H134.487V105.364H138.131ZM135.626 103.534H136.515V111.006C136.515 111.325 136.57 111.575 136.68 111.757C136.789 111.936 136.931 112.064 137.107 112.14C137.283 112.213 137.47 112.249 137.669 112.249C137.785 112.249 137.884 112.243 137.967 112.229C138.05 112.213 138.123 112.196 138.186 112.18L138.375 112.98C138.289 113.013 138.183 113.043 138.057 113.07C137.931 113.099 137.775 113.114 137.589 113.114C137.265 113.114 136.951 113.043 136.65 112.901C136.351 112.758 136.106 112.546 135.914 112.264C135.722 111.982 135.626 111.633 135.626 111.215V103.534Z" fill="#888888"/>
<path d="M195.406 102.818V113H193.253V104.862H193.193L190.862 106.323V104.414L193.382 102.818H195.406Z" fill="#333333"/>
<path d="M329.529 118.447C327.819 118.441 326.348 118.02 325.115 117.185C323.888 116.349 322.944 115.14 322.281 113.555C321.625 111.971 321.3 110.065 321.306 107.838C321.306 105.617 321.635 103.725 322.291 102.161C322.954 100.596 323.898 99.4062 325.125 98.5909C326.358 97.7689 327.826 97.358 329.529 97.358C331.233 97.358 332.698 97.7689 333.924 98.5909C335.157 99.4129 336.105 100.606 336.768 102.17C337.431 103.728 337.759 105.617 337.752 107.838C337.752 110.072 337.421 111.981 336.758 113.565C336.102 115.15 335.161 116.359 333.934 117.195C332.708 118.03 331.24 118.447 329.529 118.447ZM329.529 114.878C330.696 114.878 331.627 114.291 332.324 113.118C333.02 111.945 333.364 110.185 333.358 107.838C333.358 106.294 333.199 105.008 332.88 103.98C332.569 102.953 332.125 102.18 331.548 101.663C330.978 101.146 330.305 100.888 329.529 100.888C328.369 100.888 327.441 101.468 326.745 102.628C326.049 103.788 325.698 105.525 325.691 107.838C325.691 109.402 325.847 110.708 326.159 111.756C326.477 112.796 326.924 113.579 327.501 114.102C328.078 114.619 328.754 114.878 329.529 114.878Z" fill="#333333"/>
<path d="M351.801 109.273H353.647V114.94C353.647 115.577 353.495 116.134 353.191 116.611C352.89 117.088 352.468 117.46 351.925 117.727C351.382 117.991 350.75 118.124 350.029 118.124C349.304 118.124 348.671 117.991 348.128 117.727C347.586 117.46 347.164 117.088 346.863 116.611C346.561 116.134 346.411 115.577 346.411 114.94V109.273H348.256V114.783C348.256 115.115 348.328 115.411 348.473 115.669C348.621 115.928 348.828 116.131 349.096 116.278C349.363 116.426 349.674 116.5 350.029 116.5C350.387 116.5 350.698 116.426 350.962 116.278C351.229 116.131 351.435 115.928 351.58 115.669C351.728 115.411 351.801 115.115 351.801 114.783V109.273ZM359.899 111.783C359.865 111.439 359.719 111.172 359.46 110.982C359.202 110.791 358.851 110.696 358.408 110.696C358.107 110.696 357.852 110.739 357.645 110.824C357.438 110.906 357.278 111.021 357.168 111.169C357.06 111.317 357.006 111.484 357.006 111.672C357 111.828 357.033 111.964 357.104 112.081C357.178 112.197 357.278 112.298 357.406 112.384C357.534 112.466 357.682 112.538 357.849 112.601C358.017 112.661 358.196 112.712 358.386 112.754L359.17 112.942C359.551 113.027 359.901 113.141 360.219 113.283C360.537 113.425 360.813 113.599 361.045 113.807C361.278 114.014 361.459 114.259 361.587 114.54C361.717 114.821 361.784 115.143 361.787 115.507C361.784 116.041 361.648 116.504 361.378 116.896C361.111 117.286 360.724 117.588 360.219 117.804C359.716 118.017 359.109 118.124 358.399 118.124C357.695 118.124 357.081 118.016 356.558 117.8C356.038 117.584 355.632 117.264 355.339 116.841C355.05 116.415 354.898 115.888 354.884 115.26H356.669C356.689 115.553 356.773 115.797 356.92 115.993C357.071 116.186 357.271 116.332 357.521 116.432C357.774 116.528 358.06 116.577 358.378 116.577C358.69 116.577 358.962 116.531 359.192 116.44C359.425 116.349 359.605 116.223 359.733 116.061C359.861 115.899 359.925 115.713 359.925 115.503C359.925 115.307 359.866 115.142 359.75 115.009C359.636 114.875 359.469 114.761 359.247 114.668C359.028 114.574 358.76 114.489 358.442 114.412L357.491 114.173C356.756 113.994 356.175 113.714 355.749 113.334C355.322 112.953 355.111 112.44 355.114 111.795C355.111 111.267 355.251 110.805 355.536 110.411C355.822 110.016 356.216 109.707 356.716 109.486C357.216 109.264 357.784 109.153 358.42 109.153C359.068 109.153 359.634 109.264 360.116 109.486C360.602 109.707 360.98 110.016 361.25 110.411C361.52 110.805 361.659 111.263 361.668 111.783H359.899ZM366.122 118H363.028V109.273H366.147C367.025 109.273 367.781 109.447 368.414 109.797C369.048 110.143 369.535 110.642 369.876 111.293C370.22 111.943 370.392 112.722 370.392 113.628C370.392 114.537 370.22 115.318 369.876 115.972C369.535 116.625 369.045 117.126 368.406 117.476C367.77 117.825 367.008 118 366.122 118ZM364.873 116.419H366.045C366.591 116.419 367.049 116.322 367.422 116.129C367.797 115.933 368.078 115.631 368.265 115.222C368.456 114.81 368.551 114.278 368.551 113.628C368.551 112.983 368.456 112.456 368.265 112.047C368.078 111.638 367.798 111.337 367.426 111.143C367.054 110.95 366.595 110.854 366.049 110.854H364.873V116.419Z" fill="#888888"/>
<rect x="21.5" y="74.5" width="369" height="65" rx="7.5" stroke="#F5F5F5"/>
</svg>
