<svg width="196" height="279" viewBox="0 0 196 279" fill="none" xmlns="http://www.w3.org/2000/svg">
<path d="M24 9H172V85H24V9Z" fill="url(#paint0_linear_1862_39520)"/>
<path d="M24 9H172V85H24V9Z" fill="url(#paint1_linear_1862_39520)"/>
<path d="M35.8618 19.5547C35.6834 19.5521 35.5076 19.5195 35.3345 19.457C35.1626 19.3945 35.0063 19.2904 34.8657 19.1445C34.7251 18.9987 34.6125 18.8027 34.5278 18.5566C34.4445 18.3105 34.4028 18.0033 34.4028 17.6348C34.4028 17.2858 34.4373 16.9759 34.5063 16.7051C34.5767 16.4342 34.6776 16.2057 34.8091 16.0195C34.9406 15.832 35.0994 15.6895 35.2856 15.5918C35.4718 15.4941 35.6808 15.4453 35.9126 15.4453C36.1509 15.4453 36.3625 15.4922 36.5474 15.5859C36.7323 15.6797 36.882 15.8092 36.9966 15.9746C37.1125 16.14 37.186 16.3281 37.2173 16.5391H36.6216C36.5812 16.3724 36.5011 16.2363 36.3813 16.1309C36.2616 16.0254 36.1053 15.9727 35.9126 15.9727C35.6196 15.9727 35.3911 16.1003 35.2271 16.3555C35.0643 16.6107 34.9823 16.9655 34.981 17.4199H35.0103C35.0793 17.3066 35.1639 17.2103 35.2642 17.1309C35.3657 17.0501 35.479 16.9883 35.604 16.9453C35.7303 16.901 35.8631 16.8789 36.0024 16.8789C36.2342 16.8789 36.4438 16.9355 36.6313 17.0488C36.8201 17.1608 36.9705 17.3158 37.0825 17.5137C37.1945 17.7116 37.2505 17.9382 37.2505 18.1934C37.2505 18.4486 37.1925 18.6797 37.0767 18.8867C36.9621 19.0937 36.8006 19.2578 36.5923 19.3789C36.384 19.4987 36.1405 19.5573 35.8618 19.5547ZM35.8599 19.0469C36.0135 19.0469 36.1509 19.0091 36.272 18.9336C36.3931 18.8581 36.4888 18.7565 36.5591 18.6289C36.6294 18.5013 36.6646 18.3587 36.6646 18.2012C36.6646 18.0475 36.63 17.9076 36.561 17.7812C36.4933 17.6549 36.3996 17.5547 36.2798 17.4805C36.1613 17.4062 36.0259 17.3691 35.8735 17.3691C35.7576 17.3691 35.6502 17.3913 35.5513 17.4355C35.4536 17.4798 35.3677 17.541 35.2935 17.6191C35.2192 17.6973 35.1606 17.7871 35.1177 17.8887C35.076 17.9889 35.0552 18.0951 35.0552 18.207C35.0552 18.3568 35.0897 18.4954 35.1587 18.623C35.229 18.7507 35.3247 18.8535 35.4458 18.9316C35.5682 19.0085 35.7062 19.0469 35.8599 19.0469ZM38.3545 19.0039C38.2477 19.0039 38.1559 18.9661 38.0791 18.8906C38.0023 18.8138 37.9639 18.7214 37.9639 18.6133C37.9639 18.5065 38.0023 18.4154 38.0791 18.3398C38.1559 18.263 38.2477 18.2246 38.3545 18.2246C38.4613 18.2246 38.5531 18.263 38.6299 18.3398C38.7067 18.4154 38.7451 18.5065 38.7451 18.6133C38.7451 18.6849 38.7269 18.7507 38.6904 18.8105C38.6553 18.8691 38.6084 18.916 38.5498 18.9512C38.4912 18.9863 38.4261 19.0039 38.3545 19.0039ZM38.3545 17C38.2477 17 38.1559 16.9622 38.0791 16.8867C38.0023 16.8099 37.9639 16.7174 37.9639 16.6094C37.9639 16.5026 38.0023 16.4115 38.0791 16.3359C38.1559 16.2591 38.2477 16.2207 38.3545 16.2207C38.4613 16.2207 38.5531 16.2591 38.6299 16.3359C38.7067 16.4115 38.7451 16.5026 38.7451 16.6094C38.7451 16.681 38.7269 16.7467 38.6904 16.8066C38.6553 16.8652 38.6084 16.9121 38.5498 16.9473C38.4912 16.9824 38.4261 17 38.3545 17ZM41.0371 15.5V19.5H40.4316V16.1055H40.4082L39.4512 16.7305V16.1523L40.4492 15.5H41.0371ZM42.2539 19.5L44 16.0469V16.0176H41.9805V15.5H44.625V16.0352L42.8848 19.5H42.2539Z" fill="white"/>
<path d="M146.301 19.429C146.057 19.429 145.841 19.3823 145.652 19.2888C145.463 19.1953 145.312 19.0681 145.2 18.9071C145.087 18.7443 145.022 18.5625 145.003 18.3617L145 18.328H145.548L145.551 18.3487C145.568 18.4578 145.609 18.5574 145.675 18.6474C145.743 18.7374 145.831 18.8084 145.94 18.8603C146.049 18.9123 146.171 18.9382 146.306 18.9382C146.46 18.9382 146.596 18.9045 146.714 18.8369C146.832 18.7677 146.923 18.6733 146.989 18.5539C147.057 18.4344 147.09 18.2968 147.09 18.141V18.1358C147.09 17.9817 147.057 17.845 146.989 17.7255C146.922 17.606 146.83 17.5134 146.714 17.4476C146.598 17.3801 146.464 17.3464 146.311 17.3464C146.199 17.3464 146.094 17.3637 145.997 17.3983C145.902 17.4312 145.817 17.4814 145.743 17.5489C145.71 17.5801 145.679 17.6138 145.649 17.6502C145.62 17.6848 145.594 17.7238 145.571 17.767H145.068L145.254 15.5909H147.436V16.0843H145.714L145.6 17.2788H145.641C145.695 17.194 145.762 17.1222 145.841 17.0633C145.923 17.0044 146.015 16.9594 146.117 16.9283C146.219 16.8971 146.327 16.8815 146.441 16.8815C146.677 16.8815 146.884 16.9352 147.064 17.0425C147.246 17.1499 147.389 17.297 147.493 17.484C147.597 17.671 147.649 17.8848 147.649 18.1254V18.1306C147.649 18.3851 147.591 18.6102 147.475 18.8058C147.361 19.0014 147.202 19.1546 147 19.2654C146.799 19.3745 146.566 19.429 146.301 19.429Z" fill="white"/>
<path d="M150.025 19.429C149.757 19.429 149.516 19.384 149.303 19.294C149.09 19.2022 148.908 19.0707 148.758 18.8993C148.607 18.7279 148.491 18.5219 148.41 18.2812C148.33 18.0389 148.29 17.767 148.29 17.4658V17.4606C148.29 17.0624 148.361 16.7171 148.503 16.4245C148.645 16.1302 148.846 15.9025 149.106 15.7415C149.365 15.5805 149.669 15.5 150.017 15.5C150.301 15.5 150.555 15.5502 150.778 15.6506C151.001 15.751 151.185 15.8921 151.329 16.0739C151.472 16.254 151.567 16.4652 151.612 16.7075L151.614 16.7335H151.03L151.022 16.7075C150.956 16.4859 150.836 16.3154 150.661 16.196C150.488 16.0765 150.273 16.0168 150.017 16.0168C149.787 16.0168 149.587 16.0756 149.417 16.1934C149.248 16.3111 149.116 16.4781 149.023 16.6945C148.931 16.9092 148.885 17.1637 148.885 17.458V17.4632C148.885 17.6865 148.911 17.8874 148.963 18.0657C149.016 18.244 149.093 18.3964 149.194 18.5227C149.294 18.6474 149.415 18.7435 149.555 18.811C149.695 18.8785 149.854 18.9123 150.03 18.9123C150.234 18.9123 150.414 18.8724 150.568 18.7928C150.723 18.7114 150.845 18.5989 150.931 18.4552C151.018 18.3115 151.062 18.1436 151.064 17.9514L151.066 17.8683H150.103V17.3983H151.643V17.8631C151.643 18.1003 151.605 18.315 151.528 18.5071C151.452 18.6993 151.343 18.8646 151.201 19.0031C151.059 19.1399 150.889 19.2455 150.69 19.32C150.491 19.3927 150.269 19.429 150.025 19.429Z" fill="white"/>
<rect x="134.688" y="17.6562" width="1.13964" height="1.89941" rx="0.569822" fill="white"/>
<rect x="136.586" y="16.8984" width="1.13964" height="2.65917" rx="0.569822" fill="white"/>
<rect x="138.484" y="15.7578" width="1.13964" height="3.79882" rx="0.569822" fill="white"/>
<rect x="140.387" y="15" width="1.13964" height="4.55858" rx="0.569822" fill="white"/>
<rect x="155.25" y="15.25" width="6.20847" height="4" rx="0.25" stroke="white" stroke-width="0.5"/>
<path d="M161.707 16.6094C161.868 16.6094 161.999 16.74 161.999 16.901V17.6034C161.999 17.7645 161.868 17.8951 161.707 17.8951V16.6094Z" fill="white"/>
<path d="M155.898 16.0984C155.898 15.988 155.988 15.8984 156.098 15.8984H158.898V18.6984H156.098C155.988 18.6984 155.898 18.6089 155.898 18.4984V16.0984Z" fill="white"/>
<path d="M44.6849 40.8182C44.6849 41.2841 44.5997 41.6847 44.4292 42.0199C44.2588 42.3537 44.0251 42.6108 43.7282 42.7912C43.4328 42.9702 43.0969 43.0597 42.7204 43.0597C42.3426 43.0597 42.0052 42.9702 41.7084 42.7912C41.4129 42.6108 41.18 42.353 41.0095 42.0178C40.839 41.6825 40.7538 41.2827 40.7538 40.8182C40.7538 40.3523 40.839 39.9524 41.0095 39.6186C41.18 39.2834 41.4129 39.0263 41.7084 38.8473C42.0052 38.6669 42.3426 38.5767 42.7204 38.5767C43.0969 38.5767 43.4328 38.6669 43.7282 38.8473C44.0251 39.0263 44.2588 39.2834 44.4292 39.6186C44.5997 39.9524 44.6849 40.3523 44.6849 40.8182ZM44.0329 40.8182C44.0329 40.4631 43.9754 40.1641 43.8604 39.9212C43.7467 39.6768 43.5905 39.4922 43.3916 39.3672C43.1942 39.2408 42.9704 39.1776 42.7204 39.1776C42.469 39.1776 42.2446 39.2408 42.0471 39.3672C41.8497 39.4922 41.6934 39.6768 41.5784 39.9212C41.4648 40.1641 41.4079 40.4631 41.4079 40.8182C41.4079 41.1733 41.4648 41.473 41.5784 41.7173C41.6934 41.9602 41.8497 42.1449 42.0471 42.2713C42.2446 42.3963 42.469 42.4588 42.7204 42.4588C42.9704 42.4588 43.1942 42.3963 43.3916 42.2713C43.5905 42.1449 43.7467 41.9602 43.8604 41.7173C43.9754 41.473 44.0329 41.1733 44.0329 40.8182ZM45.1031 39.2031V38.6364H48.4802V39.2031H47.1187V43H46.4624V39.2031H45.1031ZM49.2265 43V38.6364H50.7819C51.1214 38.6364 51.4026 38.6982 51.6256 38.8217C51.8486 38.9453 52.0155 39.1143 52.1263 39.3288C52.2371 39.5419 52.2925 39.782 52.2925 40.049C52.2925 40.3175 52.2364 40.5589 52.1242 40.7734C52.0134 40.9865 51.8458 41.1555 51.6214 41.2805C51.3983 41.4041 51.1178 41.4659 50.7797 41.4659H49.7101V40.9077H50.7201C50.9346 40.9077 51.1086 40.8707 51.2421 40.7969C51.3756 40.7216 51.4736 40.6193 51.5361 40.4901C51.5986 40.3608 51.6299 40.2138 51.6299 40.049C51.6299 39.8842 51.5986 39.7379 51.5361 39.6101C51.4736 39.4822 51.3749 39.3821 51.24 39.3097C51.1064 39.2372 50.9303 39.201 50.7116 39.201H49.8849V43H49.2265Z" fill="white"/>
<path d="M36 43L34 41L36 39" fill="white"/>
<path d="M36 43L34 41L36 39" stroke="white" stroke-width="0.8" stroke-linecap="round" stroke-linejoin="round"/>
<g filter="url(#filter0_d_1862_39520)">
<path d="M24 80C24 66.7452 34.7452 56 48 56H148C161.255 56 172 66.7452 172 80V279H24V80Z" fill="white"/>
</g>
<path d="M34.7045 85V79.1818H36.6705C37.1269 79.1818 37.5 79.2642 37.7898 79.429C38.0814 79.5919 38.2973 79.8125 38.4375 80.0909C38.5777 80.3693 38.6477 80.6799 38.6477 81.0227C38.6477 81.3655 38.5777 81.6771 38.4375 81.9574C38.2992 82.2377 38.0852 82.4612 37.7955 82.6278C37.5057 82.7926 37.1345 82.875 36.6818 82.875H35.2727V82.25H36.6591C36.9716 82.25 37.2225 82.196 37.4119 82.0881C37.6013 81.9801 37.7386 81.8343 37.8239 81.6506C37.911 81.465 37.9545 81.2557 37.9545 81.0227C37.9545 80.7898 37.911 80.5814 37.8239 80.3977C37.7386 80.214 37.6004 80.0701 37.4091 79.9659C37.2178 79.8598 36.964 79.8068 36.6477 79.8068H35.4091V85H34.7045ZM40.3622 79.1818V85H39.6918V79.1818H40.3622ZM43.4197 85.0909C42.9993 85.0909 42.6366 84.9981 42.3317 84.8125C42.0286 84.625 41.7947 84.3636 41.63 84.0284C41.4671 83.6913 41.3857 83.2992 41.3857 82.8523C41.3857 82.4053 41.4671 82.0114 41.63 81.6705C41.7947 81.3277 42.0239 81.0606 42.3175 80.8693C42.6129 80.6761 42.9576 80.5795 43.3516 80.5795C43.5788 80.5795 43.8033 80.6174 44.0249 80.6932C44.2464 80.7689 44.4482 80.892 44.63 81.0625C44.8118 81.2311 44.9567 81.4545 45.0646 81.733C45.1726 82.0114 45.2266 82.3542 45.2266 82.7614V83.0455H41.8629V82.4659H44.5447C44.5447 82.2197 44.4955 82 44.397 81.8068C44.3004 81.6136 44.1622 81.4612 43.9822 81.3494C43.8042 81.2377 43.594 81.1818 43.3516 81.1818C43.0845 81.1818 42.8535 81.2481 42.6584 81.3807C42.4652 81.5114 42.3165 81.6818 42.2124 81.892C42.1082 82.1023 42.0561 82.3277 42.0561 82.5682V82.9545C42.0561 83.2841 42.1129 83.5634 42.2266 83.7926C42.3421 84.0199 42.5021 84.1932 42.7067 84.3125C42.9112 84.4299 43.1489 84.4886 43.4197 84.4886C43.5959 84.4886 43.755 84.464 43.897 84.4148C44.041 84.3636 44.165 84.2879 44.2692 84.1875C44.3733 84.0852 44.4538 83.9583 44.5107 83.8068L45.1584 83.9886C45.0902 84.2083 44.9756 84.4015 44.8146 84.5682C44.6536 84.733 44.4548 84.8617 44.218 84.9545C43.9813 85.0455 43.7152 85.0909 43.4197 85.0909ZM47.5305 85.1023C47.254 85.1023 47.0031 85.0502 46.7777 84.946C46.5523 84.84 46.3733 84.6875 46.2408 84.4886C46.1082 84.2879 46.0419 84.0455 46.0419 83.7614C46.0419 83.5114 46.0911 83.3087 46.1896 83.1534C46.2881 82.9962 46.4197 82.8731 46.5845 82.7841C46.7493 82.6951 46.9311 82.6288 47.13 82.5852C47.3307 82.5398 47.5324 82.5038 47.7351 82.4773C48.0002 82.4432 48.2152 82.4176 48.38 82.4006C48.5466 82.3816 48.6679 82.3504 48.7436 82.3068C48.8213 82.2633 48.8601 82.1875 48.8601 82.0795V82.0568C48.8601 81.7765 48.7834 81.5587 48.63 81.4034C48.4785 81.2481 48.2483 81.1705 47.9396 81.1705C47.6196 81.1705 47.3686 81.2405 47.1868 81.3807C47.005 81.5208 46.8771 81.6705 46.8033 81.8295L46.1669 81.6023C46.2805 81.3371 46.4321 81.1307 46.6214 80.983C46.8127 80.8333 47.0211 80.7292 47.2464 80.6705C47.4737 80.6098 47.6972 80.5795 47.9169 80.5795C48.0571 80.5795 48.218 80.5966 48.3999 80.6307C48.5836 80.6629 48.7607 80.7301 48.9311 80.8324C49.1035 80.9347 49.2464 81.089 49.3601 81.2955C49.4737 81.5019 49.5305 81.7784 49.5305 82.125V85H48.8601V84.4091H48.826C48.7805 84.5038 48.7048 84.6051 48.5987 84.7131C48.4927 84.821 48.3516 84.9129 48.1754 84.9886C47.9993 85.0644 47.7843 85.1023 47.5305 85.1023ZM47.6328 84.5C47.898 84.5 48.1214 84.4479 48.3033 84.3438C48.487 84.2396 48.6252 84.1051 48.718 83.9403C48.8127 83.7756 48.8601 83.6023 48.8601 83.4205V82.8068C48.8317 82.8409 48.7692 82.8722 48.6726 82.9006C48.5779 82.9271 48.468 82.9508 48.343 82.9716C48.2199 82.9905 48.0997 83.0076 47.9822 83.0227C47.8667 83.036 47.773 83.0473 47.701 83.0568C47.5268 83.0795 47.3639 83.1165 47.2124 83.1676C47.0627 83.2169 46.9415 83.2917 46.8487 83.392C46.7578 83.4905 46.7124 83.625 46.7124 83.7955C46.7124 84.0284 46.7985 84.2045 46.9709 84.3239C47.1451 84.4413 47.3658 84.5 47.6328 84.5ZM53.8452 81.6136L53.2429 81.7841C53.205 81.6837 53.1491 81.5862 53.0753 81.4915C53.0033 81.3949 52.9048 81.3153 52.7798 81.2528C52.6548 81.1903 52.4948 81.1591 52.2997 81.1591C52.0327 81.1591 51.8101 81.2206 51.6321 81.3438C51.456 81.465 51.3679 81.6193 51.3679 81.8068C51.3679 81.9735 51.4285 82.1051 51.5497 82.2017C51.6709 82.2983 51.8603 82.3788 52.1179 82.4432L52.7656 82.6023C53.1558 82.697 53.4465 82.8419 53.6378 83.0369C53.8291 83.2301 53.9247 83.4792 53.9247 83.7841C53.9247 84.0341 53.8527 84.2576 53.7088 84.4545C53.5668 84.6515 53.3679 84.8068 53.1122 84.9205C52.8565 85.0341 52.5592 85.0909 52.2202 85.0909C51.7751 85.0909 51.4067 84.9943 51.1151 84.8011C50.8234 84.608 50.6387 84.3258 50.5611 83.9545L51.1974 83.7955C51.258 84.0303 51.3726 84.2064 51.5412 84.3239C51.7116 84.4413 51.9342 84.5 52.2088 84.5C52.5213 84.5 52.7694 84.4337 52.9531 84.3011C53.1387 84.1667 53.2315 84.0057 53.2315 83.8182C53.2315 83.6667 53.1785 83.5398 53.0724 83.4375C52.9664 83.3333 52.8035 83.2557 52.5838 83.2045L51.8565 83.0341C51.4569 82.9394 51.1634 82.7926 50.9759 82.5938C50.7902 82.393 50.6974 82.142 50.6974 81.8409C50.6974 81.5947 50.7666 81.3769 50.9048 81.1875C51.045 80.9981 51.2353 80.8494 51.4759 80.7415C51.7183 80.6335 51.9929 80.5795 52.2997 80.5795C52.7315 80.5795 53.0705 80.6742 53.3168 80.8636C53.5649 81.053 53.741 81.303 53.8452 81.6136ZM56.7635 85.0909C56.343 85.0909 55.9804 84.9981 55.6754 84.8125C55.3724 84.625 55.1385 84.3636 54.9737 84.0284C54.8108 83.6913 54.7294 83.2992 54.7294 82.8523C54.7294 82.4053 54.8108 82.0114 54.9737 81.6705C55.1385 81.3277 55.3677 81.0606 55.6612 80.8693C55.9567 80.6761 56.3014 80.5795 56.6953 80.5795C56.9226 80.5795 57.147 80.6174 57.3686 80.6932C57.5902 80.7689 57.7919 80.892 57.9737 81.0625C58.1555 81.2311 58.3004 81.4545 58.4084 81.733C58.5163 82.0114 58.5703 82.3542 58.5703 82.7614V83.0455H55.2067V82.4659H57.8885C57.8885 82.2197 57.8393 82 57.7408 81.8068C57.6442 81.6136 57.5059 81.4612 57.326 81.3494C57.148 81.2377 56.9377 81.1818 56.6953 81.1818C56.4283 81.1818 56.1972 81.2481 56.0021 81.3807C55.8089 81.5114 55.6603 81.6818 55.5561 81.892C55.4519 82.1023 55.3999 82.3277 55.3999 82.5682V82.9545C55.3999 83.2841 55.4567 83.5634 55.5703 83.7926C55.6858 84.0199 55.8459 84.1932 56.0504 84.3125C56.255 84.4299 56.4927 84.4886 56.7635 84.4886C56.9396 84.4886 57.0987 84.464 57.2408 84.4148C57.3847 84.3636 57.5088 84.2879 57.6129 84.1875C57.7171 84.0852 57.7976 83.9583 57.8544 83.8068L58.5021 83.9886C58.4339 84.2083 58.3194 84.4015 58.1584 84.5682C57.9974 84.733 57.7985 84.8617 57.5618 84.9545C57.325 85.0455 57.0589 85.0909 56.7635 85.0909ZM63.6697 85.0909C63.2493 85.0909 62.8866 84.9981 62.5817 84.8125C62.2786 84.625 62.0447 84.3636 61.88 84.0284C61.7171 83.6913 61.6357 83.2992 61.6357 82.8523C61.6357 82.4053 61.7171 82.0114 61.88 81.6705C62.0447 81.3277 62.2739 81.0606 62.5675 80.8693C62.8629 80.6761 63.2076 80.5795 63.6016 80.5795C63.8288 80.5795 64.0533 80.6174 64.2749 80.6932C64.4964 80.7689 64.6982 80.892 64.88 81.0625C65.0618 81.2311 65.2067 81.4545 65.3146 81.733C65.4226 82.0114 65.4766 82.3542 65.4766 82.7614V83.0455H62.1129V82.4659H64.7947C64.7947 82.2197 64.7455 82 64.647 81.8068C64.5504 81.6136 64.4122 81.4612 64.2322 81.3494C64.0542 81.2377 63.844 81.1818 63.6016 81.1818C63.3345 81.1818 63.1035 81.2481 62.9084 81.3807C62.7152 81.5114 62.5665 81.6818 62.4624 81.892C62.3582 82.1023 62.3061 82.3277 62.3061 82.5682V82.9545C62.3061 83.2841 62.3629 83.5634 62.4766 83.7926C62.5921 84.0199 62.7521 84.1932 62.9567 84.3125C63.1612 84.4299 63.3989 84.4886 63.6697 84.4886C63.8459 84.4886 64.005 84.464 64.147 84.4148C64.291 84.3636 64.415 84.2879 64.5192 84.1875C64.6233 84.0852 64.7038 83.9583 64.7607 83.8068L65.4084 83.9886C65.3402 84.2083 65.2256 84.4015 65.0646 84.5682C64.9036 84.733 64.7048 84.8617 64.468 84.9545C64.2313 85.0455 63.9652 85.0909 63.6697 85.0909ZM67.1669 82.375V85H66.4964V80.6364H67.1442V81.3182H67.201C67.3033 81.0966 67.4586 80.9186 67.6669 80.7841C67.8752 80.6477 68.1442 80.5795 68.4737 80.5795C68.7692 80.5795 69.0277 80.6402 69.2493 80.7614C69.4709 80.8807 69.6432 81.0625 69.7663 81.3068C69.8894 81.5492 69.951 81.8561 69.951 82.2273V85H69.2805V82.2727C69.2805 81.9299 69.1915 81.6629 69.0135 81.4716C68.8355 81.2784 68.5911 81.1818 68.2805 81.1818C68.0665 81.1818 67.8752 81.2282 67.7067 81.321C67.54 81.4138 67.4084 81.5492 67.3118 81.7273C67.2152 81.9053 67.1669 82.1212 67.1669 82.375ZM73.0739 80.6364V81.2045H70.8125V80.6364H73.0739ZM71.4716 79.5909H72.142V83.75C72.142 83.9394 72.1695 84.0814 72.2244 84.1761C72.2813 84.2689 72.3532 84.3314 72.4403 84.3636C72.5294 84.3939 72.6231 84.4091 72.7216 84.4091C72.7955 84.4091 72.8561 84.4053 72.9034 84.3977C72.9508 84.3883 72.9886 84.3807 73.017 84.375L73.1534 84.9773C73.108 84.9943 73.0445 85.0114 72.9631 85.0284C72.8816 85.0473 72.7784 85.0568 72.6534 85.0568C72.464 85.0568 72.2784 85.0161 72.0966 84.9347C71.9167 84.8532 71.767 84.7292 71.6477 84.5625C71.5303 84.3958 71.4716 84.1856 71.4716 83.9318V79.5909ZM75.8651 85.0909C75.4446 85.0909 75.0819 84.9981 74.777 84.8125C74.474 84.625 74.2401 84.3636 74.0753 84.0284C73.9124 83.6913 73.831 83.2992 73.831 82.8523C73.831 82.4053 73.9124 82.0114 74.0753 81.6705C74.2401 81.3277 74.4692 81.0606 74.7628 80.8693C75.0582 80.6761 75.4029 80.5795 75.7969 80.5795C76.0241 80.5795 76.2486 80.6174 76.4702 80.6932C76.6918 80.7689 76.8935 80.892 77.0753 81.0625C77.2571 81.2311 77.402 81.4545 77.5099 81.733C77.6179 82.0114 77.6719 82.3542 77.6719 82.7614V83.0455H74.3082V82.4659H76.9901C76.9901 82.2197 76.9408 82 76.8423 81.8068C76.7457 81.6136 76.6075 81.4612 76.4276 81.3494C76.2495 81.2377 76.0393 81.1818 75.7969 81.1818C75.5298 81.1818 75.2988 81.2481 75.1037 81.3807C74.9105 81.5114 74.7618 81.6818 74.6577 81.892C74.5535 82.1023 74.5014 82.3277 74.5014 82.5682V82.9545C74.5014 83.2841 74.5582 83.5634 74.6719 83.7926C74.7874 84.0199 74.9474 84.1932 75.152 84.3125C75.3565 84.4299 75.5942 84.4886 75.8651 84.4886C76.0412 84.4886 76.2003 84.464 76.3423 84.4148C76.4863 84.3636 76.6103 84.2879 76.7145 84.1875C76.8187 84.0852 76.8991 83.9583 76.956 83.8068L77.6037 83.9886C77.5355 84.2083 77.4209 84.4015 77.2599 84.5682C77.099 84.733 76.9001 84.8617 76.6634 84.9545C76.4266 85.0455 76.1605 85.0909 75.8651 85.0909ZM78.6918 85V80.6364H79.3395V81.2955H79.3849C79.4645 81.0795 79.6084 80.9044 79.8168 80.7699C80.0251 80.6354 80.2599 80.5682 80.5213 80.5682C80.5705 80.5682 80.6321 80.5691 80.706 80.571C80.7798 80.5729 80.8357 80.5758 80.8736 80.5795V81.2614C80.8509 81.2557 80.7988 81.2472 80.7173 81.2358C80.6378 81.2225 80.5535 81.2159 80.4645 81.2159C80.2524 81.2159 80.063 81.2604 79.8963 81.3494C79.7315 81.4366 79.6009 81.5578 79.5043 81.7131C79.4096 81.8665 79.3622 82.0417 79.3622 82.2386V85H78.6918ZM85.8161 80.6364V81.2045H83.5547V80.6364H85.8161ZM84.2138 79.5909H84.8842V83.75C84.8842 83.9394 84.9117 84.0814 84.9666 84.1761C85.0234 84.2689 85.0954 84.3314 85.1825 84.3636C85.2715 84.3939 85.3653 84.4091 85.4638 84.4091C85.5376 84.4091 85.5982 84.4053 85.6456 84.3977C85.6929 84.3883 85.7308 84.3807 85.7592 84.375L85.8956 84.9773C85.8501 84.9943 85.7867 85.0114 85.7053 85.0284C85.6238 85.0473 85.5206 85.0568 85.3956 85.0568C85.2062 85.0568 85.0206 85.0161 84.8388 84.9347C84.6589 84.8532 84.5092 84.7292 84.3899 84.5625C84.2725 84.3958 84.2138 84.1856 84.2138 83.9318V79.5909ZM87.5888 82.375V85H86.9183V79.1818H87.5888V81.3182H87.6456C87.7479 81.0928 87.9013 80.9138 88.1058 80.7812C88.3123 80.6468 88.5869 80.5795 88.9297 80.5795C89.227 80.5795 89.4875 80.6392 89.7109 80.7585C89.9344 80.8759 90.1077 81.0568 90.2308 81.3011C90.3558 81.5436 90.4183 81.8523 90.4183 82.2273V85H89.7479V82.2727C89.7479 81.9261 89.6579 81.6581 89.478 81.4688C89.3 81.2775 89.0528 81.1818 88.7365 81.1818C88.5168 81.1818 88.3198 81.2282 88.1456 81.321C87.9732 81.4138 87.8369 81.5492 87.7365 81.7273C87.638 81.9053 87.5888 82.1212 87.5888 82.375ZM93.4744 85.0909C93.054 85.0909 92.6913 84.9981 92.3864 84.8125C92.0833 84.625 91.8494 84.3636 91.6847 84.0284C91.5218 83.6913 91.4403 83.2992 91.4403 82.8523C91.4403 82.4053 91.5218 82.0114 91.6847 81.6705C91.8494 81.3277 92.0786 81.0606 92.3722 80.8693C92.6676 80.6761 93.0123 80.5795 93.4062 80.5795C93.6335 80.5795 93.858 80.6174 94.0795 80.6932C94.3011 80.7689 94.5028 80.892 94.6847 81.0625C94.8665 81.2311 95.0114 81.4545 95.1193 81.733C95.2273 82.0114 95.2812 82.3542 95.2812 82.7614V83.0455H91.9176V82.4659H94.5994C94.5994 82.2197 94.5502 82 94.4517 81.8068C94.3551 81.6136 94.2169 81.4612 94.0369 81.3494C93.8589 81.2377 93.6487 81.1818 93.4062 81.1818C93.1392 81.1818 92.9081 81.2481 92.7131 81.3807C92.5199 81.5114 92.3712 81.6818 92.267 81.892C92.1629 82.1023 92.1108 82.3277 92.1108 82.5682V82.9545C92.1108 83.2841 92.1676 83.5634 92.2812 83.7926C92.3968 84.0199 92.5568 84.1932 92.7614 84.3125C92.9659 84.4299 93.2036 84.4886 93.4744 84.4886C93.6506 84.4886 93.8097 84.464 93.9517 84.4148C94.0956 84.3636 94.2197 84.2879 94.3239 84.1875C94.428 84.0852 94.5085 83.9583 94.5653 83.8068L95.2131 83.9886C95.1449 84.2083 95.0303 84.4015 94.8693 84.5682C94.7083 84.733 94.5095 84.8617 94.2727 84.9545C94.036 85.0455 93.7699 85.0909 93.4744 85.0909ZM103.551 82.0909C103.551 82.7045 103.44 83.2348 103.219 83.6818C102.997 84.1288 102.693 84.4735 102.307 84.7159C101.92 84.9583 101.479 85.0795 100.983 85.0795C100.487 85.0795 100.045 84.9583 99.6591 84.7159C99.2727 84.4735 98.9688 84.1288 98.7472 83.6818C98.5256 83.2348 98.4148 82.7045 98.4148 82.0909C98.4148 81.4773 98.5256 80.947 98.7472 80.5C98.9688 80.053 99.2727 79.7083 99.6591 79.4659C100.045 79.2235 100.487 79.1023 100.983 79.1023C101.479 79.1023 101.92 79.2235 102.307 79.4659C102.693 79.7083 102.997 80.053 103.219 80.5C103.44 80.947 103.551 81.4773 103.551 82.0909ZM102.869 82.0909C102.869 81.5871 102.785 81.1619 102.616 80.8153C102.45 80.4688 102.223 80.2064 101.938 80.0284C101.653 79.8504 101.335 79.7614 100.983 79.7614C100.631 79.7614 100.312 79.8504 100.026 80.0284C99.7415 80.2064 99.5152 80.4688 99.3466 80.8153C99.1799 81.1619 99.0966 81.5871 99.0966 82.0909C99.0966 82.5947 99.1799 83.0199 99.3466 83.3665C99.5152 83.7131 99.7415 83.9754 100.026 84.1534C100.312 84.3314 100.631 84.4205 100.983 84.4205C101.335 84.4205 101.653 84.3314 101.938 84.1534C102.223 83.9754 102.45 83.7131 102.616 83.3665C102.785 83.0199 102.869 82.5947 102.869 82.0909ZM104.175 79.8068V79.1818H108.539V79.8068H106.71V85H106.005V79.8068H104.175ZM109.626 85V79.1818H111.592C112.049 79.1818 112.422 79.2642 112.712 79.429C113.003 79.5919 113.219 79.8125 113.359 80.0909C113.5 80.3693 113.57 80.6799 113.57 81.0227C113.57 81.3655 113.5 81.6771 113.359 81.9574C113.221 82.2377 113.007 82.4612 112.717 82.6278C112.428 82.7926 112.056 82.875 111.604 82.875H110.195V82.25H111.581C111.893 82.25 112.144 82.196 112.334 82.0881C112.523 81.9801 112.661 81.8343 112.746 81.6506C112.833 81.465 112.876 81.2557 112.876 81.0227C112.876 80.7898 112.833 80.5814 112.746 80.3977C112.661 80.214 112.522 80.0701 112.331 79.9659C112.14 79.8598 111.886 79.8068 111.57 79.8068H110.331V85H109.626ZM35.2841 94.375V97H34.6136V92.6364H35.2614V93.3182H35.3182C35.4205 93.0966 35.5758 92.9186 35.7841 92.7841C35.9924 92.6477 36.2614 92.5795 36.5909 92.5795C36.8864 92.5795 37.1449 92.6402 37.3665 92.7614C37.5881 92.8807 37.7604 93.0625 37.8835 93.3068C38.0066 93.5492 38.0682 93.8561 38.0682 94.2273V97H37.3977V94.2727C37.3977 93.9299 37.3087 93.6629 37.1307 93.4716C36.9527 93.2784 36.7083 93.1818 36.3977 93.1818C36.1837 93.1818 35.9924 93.2282 35.8239 93.321C35.6572 93.4138 35.5256 93.5492 35.429 93.7273C35.3324 93.9053 35.2841 94.1212 35.2841 94.375ZM42.0433 95.2159V92.6364H42.7138V97H42.0433V96.2614H41.9979C41.8956 96.483 41.7365 96.6714 41.5206 96.8267C41.3047 96.9801 41.032 97.0568 40.7024 97.0568C40.4297 97.0568 40.1873 96.9972 39.9751 96.8778C39.763 96.7566 39.5964 96.5748 39.4751 96.3324C39.3539 96.0881 39.2933 95.7803 39.2933 95.4091V92.6364H39.9638V95.3636C39.9638 95.6818 40.0528 95.9356 40.2308 96.125C40.4107 96.3144 40.6399 96.4091 40.9183 96.4091C41.085 96.4091 41.2545 96.3665 41.4268 96.2812C41.6011 96.196 41.7469 96.0653 41.8643 95.8892C41.9837 95.7131 42.0433 95.4886 42.0433 95.2159ZM43.9418 97V92.6364H44.5895V93.3182H44.6463C44.7372 93.0852 44.884 92.9044 45.0866 92.7756C45.2893 92.6449 45.5327 92.5795 45.8168 92.5795C46.1046 92.5795 46.3442 92.6449 46.5355 92.7756C46.7287 92.9044 46.8793 93.0852 46.9872 93.3182H47.0327C47.1444 93.0928 47.312 92.9138 47.5355 92.7812C47.759 92.6468 48.027 92.5795 48.3395 92.5795C48.7296 92.5795 49.0488 92.7017 49.2969 92.946C49.545 93.1884 49.669 93.5663 49.669 94.0795V97H48.9986V94.0795C48.9986 93.7576 48.9105 93.5275 48.7344 93.3892C48.5582 93.2509 48.3509 93.1818 48.1122 93.1818C47.8054 93.1818 47.5677 93.2746 47.3991 93.4602C47.2306 93.6439 47.1463 93.8769 47.1463 94.1591V97H46.4645V94.0114C46.4645 93.7633 46.384 93.5634 46.223 93.4119C46.062 93.2585 45.8546 93.1818 45.6009 93.1818C45.4266 93.1818 45.2637 93.2282 45.1122 93.321C44.9626 93.4138 44.8414 93.5426 44.7486 93.7074C44.6577 93.8703 44.6122 94.0587 44.6122 94.2727V97H43.9418ZM50.9858 97V91.1818H51.6562V93.3295H51.7131C51.7623 93.2538 51.8305 93.1572 51.9176 93.0398C52.0066 92.9205 52.1335 92.8144 52.2983 92.7216C52.465 92.6269 52.6903 92.5795 52.9744 92.5795C53.3419 92.5795 53.6657 92.6714 53.946 92.8551C54.2263 93.0388 54.4451 93.2992 54.6023 93.6364C54.7595 93.9735 54.8381 94.3712 54.8381 94.8295C54.8381 95.2917 54.7595 95.6922 54.6023 96.0312C54.4451 96.3684 54.2273 96.6297 53.9489 96.8153C53.6705 96.9991 53.3494 97.0909 52.9858 97.0909C52.7055 97.0909 52.4811 97.0445 52.3125 96.9517C52.1439 96.857 52.0142 96.75 51.9233 96.6307C51.8324 96.5095 51.7623 96.4091 51.7131 96.3295H51.6335V97H50.9858ZM51.6449 94.8182C51.6449 95.1477 51.6932 95.4384 51.7898 95.6903C51.8864 95.9403 52.0275 96.1364 52.2131 96.2784C52.3987 96.4186 52.6259 96.4886 52.8949 96.4886C53.1752 96.4886 53.4091 96.4148 53.5966 96.267C53.786 96.1174 53.928 95.9167 54.0227 95.6648C54.1193 95.411 54.1676 95.1288 54.1676 94.8182C54.1676 94.5114 54.1203 94.2348 54.0256 93.9886C53.9328 93.7405 53.7917 93.5445 53.6023 93.4006C53.4148 93.2547 53.179 93.1818 52.8949 93.1818C52.6222 93.1818 52.393 93.2509 52.2074 93.3892C52.0218 93.5256 51.8816 93.7169 51.7869 93.9631C51.6922 94.2074 51.6449 94.4924 51.6449 94.8182ZM57.6932 97.0909C57.2727 97.0909 56.91 96.9981 56.6051 96.8125C56.3021 96.625 56.0682 96.3636 55.9034 96.0284C55.7405 95.6913 55.6591 95.2992 55.6591 94.8523C55.6591 94.4053 55.7405 94.0114 55.9034 93.6705C56.0682 93.3277 56.2973 93.0606 56.5909 92.8693C56.8864 92.6761 57.2311 92.5795 57.625 92.5795C57.8523 92.5795 58.0767 92.6174 58.2983 92.6932C58.5199 92.7689 58.7216 92.892 58.9034 93.0625C59.0852 93.2311 59.2301 93.4545 59.3381 93.733C59.446 94.0114 59.5 94.3542 59.5 94.7614V95.0455H56.1364V94.4659H58.8182C58.8182 94.2197 58.7689 94 58.6705 93.8068C58.5739 93.6136 58.4356 93.4612 58.2557 93.3494C58.0777 93.2377 57.8674 93.1818 57.625 93.1818C57.358 93.1818 57.1269 93.2481 56.9318 93.3807C56.7386 93.5114 56.59 93.6818 56.4858 93.892C56.3816 94.1023 56.3295 94.3277 56.3295 94.5682V94.9545C56.3295 95.2841 56.3864 95.5634 56.5 95.7926C56.6155 96.0199 56.7756 96.1932 56.9801 96.3125C57.1847 96.4299 57.4223 96.4886 57.6932 96.4886C57.8693 96.4886 58.0284 96.464 58.1705 96.4148C58.3144 96.3636 58.4384 96.2879 58.5426 96.1875C58.6468 96.0852 58.7273 95.9583 58.7841 95.8068L59.4318 95.9886C59.3636 96.2083 59.2491 96.4015 59.0881 96.5682C58.9271 96.733 58.7282 96.8617 58.4915 96.9545C58.2547 97.0455 57.9886 97.0909 57.6932 97.0909ZM60.5199 97V92.6364H61.1676V93.2955H61.2131C61.2926 93.0795 61.4366 92.9044 61.6449 92.7699C61.8532 92.6354 62.0881 92.5682 62.3494 92.5682C62.3987 92.5682 62.4602 92.5691 62.5341 92.571C62.608 92.5729 62.6638 92.5758 62.7017 92.5795V93.2614C62.679 93.2557 62.6269 93.2472 62.5455 93.2358C62.4659 93.2225 62.3816 93.2159 62.2926 93.2159C62.0805 93.2159 61.8911 93.2604 61.7244 93.3494C61.5597 93.4366 61.429 93.5578 61.3324 93.7131C61.2377 93.8665 61.1903 94.0417 61.1903 94.2386V97H60.5199ZM65.7464 97V92.6364H66.4169V97H65.7464ZM66.0874 91.9091C65.9567 91.9091 65.844 91.8646 65.7493 91.7756C65.6565 91.6866 65.6101 91.5795 65.6101 91.4545C65.6101 91.3295 65.6565 91.2225 65.7493 91.1335C65.844 91.0445 65.9567 91 66.0874 91C66.218 91 66.3298 91.0445 66.4226 91.1335C66.5173 91.2225 66.5646 91.3295 66.5646 91.4545C66.5646 91.5795 66.5173 91.6866 66.4226 91.7756C66.3298 91.8646 66.218 91.9091 66.0874 91.9091ZM68.3153 94.375V97H67.6449V92.6364H68.2926V93.3182H68.3494C68.4517 93.0966 68.607 92.9186 68.8153 92.7841C69.0237 92.6477 69.2926 92.5795 69.6222 92.5795C69.9176 92.5795 70.1761 92.6402 70.3977 92.7614C70.6193 92.8807 70.7917 93.0625 70.9148 93.3068C71.0379 93.5492 71.0994 93.8561 71.0994 94.2273V97H70.429V94.2727C70.429 93.9299 70.34 93.6629 70.1619 93.4716C69.9839 93.2784 69.7396 93.1818 69.429 93.1818C69.215 93.1818 69.0237 93.2282 68.8551 93.321C68.6884 93.4138 68.5568 93.5492 68.4602 93.7273C68.3636 93.9053 68.3153 94.1212 68.3153 94.375ZM76.4723 92.6364V93.2045H74.2109V92.6364H76.4723ZM74.87 91.5909H75.5405V95.75C75.5405 95.9394 75.5679 96.0814 75.6229 96.1761C75.6797 96.2689 75.7517 96.3314 75.8388 96.3636C75.9278 96.3939 76.0215 96.4091 76.12 96.4091C76.1939 96.4091 76.2545 96.4053 76.3018 96.3977C76.3492 96.3883 76.3871 96.3807 76.4155 96.375L76.5518 96.9773C76.5064 96.9943 76.4429 97.0114 76.3615 97.0284C76.2801 97.0473 76.1768 97.0568 76.0518 97.0568C75.8625 97.0568 75.6768 97.0161 75.495 96.9347C75.3151 96.8532 75.1655 96.7292 75.0462 96.5625C74.9287 96.3958 74.87 96.1856 74.87 95.9318V91.5909ZM78.245 94.375V97H77.5746V91.1818H78.245V93.3182H78.3018C78.4041 93.0928 78.5575 92.9138 78.7621 92.7812C78.9685 92.6468 79.2431 92.5795 79.5859 92.5795C79.8833 92.5795 80.1437 92.6392 80.3672 92.7585C80.5907 92.8759 80.764 93.0568 80.8871 93.3011C81.0121 93.5436 81.0746 93.8523 81.0746 94.2273V97H80.4041V94.2727C80.4041 93.9261 80.3142 93.6581 80.1342 93.4688C79.9562 93.2775 79.709 93.1818 79.3928 93.1818C79.1731 93.1818 78.9761 93.2282 78.8018 93.321C78.6295 93.4138 78.4931 93.5492 78.3928 93.7273C78.2943 93.9053 78.245 94.1212 78.245 94.375ZM84.1307 97.0909C83.7102 97.0909 83.3475 96.9981 83.0426 96.8125C82.7396 96.625 82.5057 96.3636 82.3409 96.0284C82.178 95.6913 82.0966 95.2992 82.0966 94.8523C82.0966 94.4053 82.178 94.0114 82.3409 93.6705C82.5057 93.3277 82.7348 93.0606 83.0284 92.8693C83.3239 92.6761 83.6686 92.5795 84.0625 92.5795C84.2898 92.5795 84.5142 92.6174 84.7358 92.6932C84.9574 92.7689 85.1591 92.892 85.3409 93.0625C85.5227 93.2311 85.6676 93.4545 85.7756 93.733C85.8835 94.0114 85.9375 94.3542 85.9375 94.7614V95.0455H82.5739V94.4659H85.2557C85.2557 94.2197 85.2064 94 85.108 93.8068C85.0114 93.6136 84.8731 93.4612 84.6932 93.3494C84.5152 93.2377 84.3049 93.1818 84.0625 93.1818C83.7955 93.1818 83.5644 93.2481 83.3693 93.3807C83.1761 93.5114 83.0275 93.6818 82.9233 93.892C82.8191 94.1023 82.767 94.3277 82.767 94.5682V94.9545C82.767 95.2841 82.8239 95.5634 82.9375 95.7926C83.053 96.0199 83.2131 96.1932 83.4176 96.3125C83.6222 96.4299 83.8598 96.4886 84.1307 96.4886C84.3068 96.4886 84.4659 96.464 84.608 96.4148C84.7519 96.3636 84.8759 96.2879 84.9801 96.1875C85.0843 96.0852 85.1648 95.9583 85.2216 95.8068L85.8693 95.9886C85.8011 96.2083 85.6866 96.4015 85.5256 96.5682C85.3646 96.733 85.1657 96.8617 84.929 96.9545C84.6922 97.0455 84.4261 97.0909 84.1307 97.0909ZM90.4091 97L88.7443 91.1818H90.0881L91.0511 95.2244H91.0994L92.1619 91.1818H93.3125L94.3722 95.233H94.4233L95.3864 91.1818H96.7301L95.0653 97H93.8665L92.7585 93.196H92.7131L91.608 97H90.4091ZM102.407 94.0909C102.407 94.7254 102.287 95.2652 102.046 95.7102C101.808 96.1553 101.482 96.4953 101.069 96.7301C100.658 96.9631 100.196 97.0795 99.6825 97.0795C99.1655 97.0795 98.7015 96.9621 98.2905 96.7273C97.8795 96.4924 97.5547 96.1525 97.3161 95.7074C97.0774 95.2623 96.9581 94.7235 96.9581 94.0909C96.9581 93.4564 97.0774 92.9167 97.3161 92.4716C97.5547 92.0265 97.8795 91.6875 98.2905 91.4545C98.7015 91.2197 99.1655 91.1023 99.6825 91.1023C100.196 91.1023 100.658 91.2197 101.069 91.4545C101.482 91.6875 101.808 92.0265 102.046 92.4716C102.287 92.9167 102.407 93.4564 102.407 94.0909ZM101.16 94.0909C101.16 93.6799 101.098 93.3333 100.975 93.0511C100.854 92.7689 100.683 92.5549 100.461 92.4091C100.239 92.2633 99.9799 92.1903 99.6825 92.1903C99.3852 92.1903 99.1257 92.2633 98.9041 92.4091C98.6825 92.5549 98.5102 92.7689 98.3871 93.0511C98.2659 93.3333 98.2053 93.6799 98.2053 94.0909C98.2053 94.5019 98.2659 94.8485 98.3871 95.1307C98.5102 95.4129 98.6825 95.6269 98.9041 95.7727C99.1257 95.9186 99.3852 95.9915 99.6825 95.9915C99.9799 95.9915 100.239 95.9186 100.461 95.7727C100.683 95.6269 100.854 95.4129 100.975 95.1307C101.098 94.8485 101.16 94.5019 101.16 94.0909ZM108.665 94.0909C108.665 94.7254 108.545 95.2652 108.304 95.7102C108.065 96.1553 107.74 96.4953 107.327 96.7301C106.916 96.9631 106.454 97.0795 105.94 97.0795C105.423 97.0795 104.959 96.9621 104.548 96.7273C104.137 96.4924 103.813 96.1525 103.574 95.7074C103.335 95.2623 103.216 94.7235 103.216 94.0909C103.216 93.4564 103.335 92.9167 103.574 92.4716C103.813 92.0265 104.137 91.6875 104.548 91.4545C104.959 91.2197 105.423 91.1023 105.94 91.1023C106.454 91.1023 106.916 91.2197 107.327 91.4545C107.74 91.6875 108.065 92.0265 108.304 92.4716C108.545 92.9167 108.665 93.4564 108.665 94.0909ZM107.418 94.0909C107.418 93.6799 107.356 93.3333 107.233 93.0511C107.112 92.7689 106.94 92.5549 106.719 92.4091C106.497 92.2633 106.238 92.1903 105.94 92.1903C105.643 92.1903 105.384 92.2633 105.162 92.4091C104.94 92.5549 104.768 92.7689 104.645 93.0511C104.524 93.3333 104.463 93.6799 104.463 94.0909C104.463 94.5019 104.524 94.8485 104.645 95.1307C104.768 95.4129 104.94 95.6269 105.162 95.7727C105.384 95.9186 105.643 95.9915 105.94 95.9915C106.238 95.9915 106.497 95.9186 106.719 95.7727C106.94 95.6269 107.112 95.4129 107.233 95.1307C107.356 94.8485 107.418 94.5019 107.418 94.0909ZM109.576 97V91.1818H111.871C112.311 91.1818 112.686 91.2604 112.996 91.4176C113.309 91.5729 113.547 91.7936 113.71 92.0795C113.874 92.3636 113.957 92.6979 113.957 93.0824C113.957 93.4687 113.873 93.8011 113.707 94.0795C113.54 94.3561 113.299 94.5682 112.982 94.7159C112.668 94.8636 112.287 94.9375 111.84 94.9375H110.303V93.9489H111.641C111.876 93.9489 112.071 93.9167 112.227 93.8523C112.382 93.7879 112.497 93.6913 112.573 93.5625C112.651 93.4337 112.69 93.2737 112.69 93.0824C112.69 92.8892 112.651 92.7263 112.573 92.5938C112.497 92.4612 112.381 92.3608 112.224 92.2926C112.068 92.2225 111.872 92.1875 111.636 92.1875H110.806V97H109.576ZM112.718 94.3523L114.164 97H112.806L111.391 94.3523H112.718ZM116.056 91.1818V97H114.826V91.1818H116.056ZM117.068 97V91.1818H119.398C119.826 91.1818 120.183 91.2453 120.469 91.3722C120.755 91.4991 120.97 91.6752 121.114 91.9006C121.258 92.1241 121.33 92.3816 121.33 92.6733C121.33 92.9006 121.284 93.1004 121.193 93.2727C121.102 93.4432 120.977 93.5833 120.818 93.6932C120.661 93.8011 120.481 93.8778 120.278 93.9233V93.9801C120.5 93.9896 120.707 94.0521 120.901 94.1676C121.096 94.2831 121.254 94.4451 121.375 94.6534C121.496 94.8598 121.557 95.1061 121.557 95.392C121.557 95.7008 121.48 95.9763 121.327 96.2188C121.175 96.4593 120.951 96.6496 120.653 96.7898C120.356 96.9299 119.99 97 119.554 97H117.068ZM118.298 95.9943H119.301C119.644 95.9943 119.894 95.929 120.051 95.7983C120.208 95.6657 120.287 95.4896 120.287 95.2699C120.287 95.1089 120.248 94.9669 120.17 94.8438C120.093 94.7206 119.982 94.6241 119.838 94.554C119.696 94.4839 119.527 94.4489 119.33 94.4489H118.298V95.9943ZM118.298 93.6165H119.21C119.379 93.6165 119.528 93.5871 119.659 93.5284C119.792 93.4678 119.896 93.3826 119.972 93.2727C120.049 93.1629 120.088 93.0312 120.088 92.8778C120.088 92.6676 120.013 92.4981 119.864 92.3693C119.716 92.2405 119.506 92.1761 119.233 92.1761H118.298V93.6165ZM123.36 97H122.042L124.05 91.1818H125.636L127.641 97H126.323L124.866 92.5114H124.82L123.36 97ZM123.278 94.7131H126.391V95.6733H123.278V94.7131ZM133.208 91.1818V97H132.146L129.614 93.3381H129.572V97H128.342V91.1818H129.421L131.933 94.8409H131.984V91.1818H133.208ZM134.224 97V91.1818H135.455V93.7472H135.531L137.625 91.1818H139.099L136.94 93.7869L139.125 97H137.653L136.06 94.608L135.455 95.3466V97H134.224ZM35.7358 103.182V109H34.5057V103.182H35.7358ZM37.9354 106.477V109H36.7251V104.636H37.8786V105.406H37.9297C38.0263 105.152 38.1882 104.952 38.4155 104.804C38.6428 104.654 38.9183 104.58 39.2422 104.58C39.5452 104.58 39.8094 104.646 40.0348 104.778C40.2602 104.911 40.4354 105.1 40.5604 105.347C40.6854 105.591 40.7479 105.883 40.7479 106.222V109H39.5376V106.438C39.5395 106.17 39.4714 105.962 39.3331 105.812C39.1948 105.661 39.0045 105.585 38.7621 105.585C38.5992 105.585 38.4553 105.62 38.3303 105.69C38.2071 105.76 38.1106 105.863 38.0405 105.997C37.9723 106.13 37.9373 106.29 37.9354 106.477ZM44.0227 104.636V105.545H41.3949V104.636H44.0227ZM41.9915 103.591H43.2017V107.659C43.2017 107.771 43.2188 107.858 43.2528 107.92C43.2869 107.981 43.3343 108.024 43.3949 108.048C43.4574 108.073 43.5294 108.085 43.6108 108.085C43.6676 108.085 43.7244 108.08 43.7812 108.071C43.8381 108.06 43.8816 108.051 43.9119 108.045L44.1023 108.946C44.0417 108.965 43.9564 108.987 43.8466 109.011C43.7367 109.038 43.6032 109.054 43.446 109.06C43.1544 109.071 42.8987 109.032 42.679 108.943C42.4612 108.854 42.2917 108.716 42.1705 108.528C42.0492 108.341 41.9896 108.104 41.9915 107.818V103.591ZM46.7528 109.085C46.304 109.085 45.9176 108.994 45.5938 108.812C45.2718 108.629 45.0237 108.369 44.8494 108.034C44.6752 107.697 44.5881 107.298 44.5881 106.838C44.5881 106.389 44.6752 105.995 44.8494 105.656C45.0237 105.317 45.2689 105.053 45.5852 104.864C45.9034 104.674 46.2765 104.58 46.7045 104.58C46.9924 104.58 47.2604 104.626 47.5085 104.719C47.7585 104.81 47.9763 104.947 48.1619 105.131C48.3494 105.314 48.4953 105.545 48.5994 105.824C48.7036 106.1 48.7557 106.424 48.7557 106.795V107.128H45.071V106.378H47.6165C47.6165 106.204 47.5786 106.049 47.5028 105.915C47.4271 105.78 47.322 105.675 47.1875 105.599C47.0549 105.522 46.9006 105.483 46.7244 105.483C46.5407 105.483 46.3778 105.526 46.2358 105.611C46.0956 105.694 45.9858 105.807 45.9062 105.949C45.8267 106.089 45.786 106.245 45.7841 106.418V107.131C45.7841 107.347 45.8239 107.533 45.9034 107.69C45.9848 107.848 46.0994 107.969 46.2472 108.054C46.3949 108.139 46.5701 108.182 46.7727 108.182C46.9072 108.182 47.0303 108.163 47.142 108.125C47.2538 108.087 47.3494 108.03 47.429 107.955C47.5085 107.879 47.5691 107.786 47.6108 107.676L48.7301 107.75C48.6733 108.019 48.5568 108.254 48.3807 108.455C48.2064 108.653 47.9811 108.809 47.7045 108.92C47.4299 109.03 47.1127 109.085 46.7528 109.085ZM49.5455 109V104.636H50.7188V105.398H50.7642C50.8438 105.127 50.9773 104.922 51.1648 104.784C51.3523 104.644 51.5682 104.574 51.8125 104.574C51.8731 104.574 51.9384 104.578 52.0085 104.585C52.0786 104.593 52.1402 104.603 52.1932 104.616V105.69C52.1364 105.673 52.0578 105.658 51.9574 105.645C51.857 105.632 51.7652 105.625 51.6818 105.625C51.5038 105.625 51.3447 105.664 51.2045 105.741C51.0663 105.817 50.9564 105.923 50.875 106.06C50.7955 106.196 50.7557 106.353 50.7557 106.531V109H49.5455ZM54.0291 106.477V109H52.8189V104.636H53.9723V105.406H54.0234C54.12 105.152 54.282 104.952 54.5092 104.804C54.7365 104.654 55.0121 104.58 55.3359 104.58C55.639 104.58 55.9032 104.646 56.1286 104.778C56.3539 104.911 56.5291 105.1 56.6541 105.347C56.7791 105.591 56.8416 105.883 56.8416 106.222V109H55.6314V106.438C55.6333 106.17 55.5651 105.962 55.4268 105.812C55.2886 105.661 55.0982 105.585 54.8558 105.585C54.6929 105.585 54.549 105.62 54.424 105.69C54.3009 105.76 54.2043 105.863 54.1342 105.997C54.0661 106.13 54.031 106.29 54.0291 106.477ZM59.7841 109.085C59.3352 109.085 58.9489 108.994 58.625 108.812C58.303 108.629 58.0549 108.369 57.8807 108.034C57.7064 107.697 57.6193 107.298 57.6193 106.838C57.6193 106.389 57.7064 105.995 57.8807 105.656C58.0549 105.317 58.3002 105.053 58.6165 104.864C58.9347 104.674 59.3078 104.58 59.7358 104.58C60.0237 104.58 60.2917 104.626 60.5398 104.719C60.7898 104.81 61.0076 104.947 61.1932 105.131C61.3807 105.314 61.5265 105.545 61.6307 105.824C61.7348 106.1 61.7869 106.424 61.7869 106.795V107.128H58.1023V106.378H60.6477C60.6477 106.204 60.6098 106.049 60.5341 105.915C60.4583 105.78 60.3532 105.675 60.2188 105.599C60.0862 105.522 59.9318 105.483 59.7557 105.483C59.572 105.483 59.4091 105.526 59.267 105.611C59.1269 105.694 59.017 105.807 58.9375 105.949C58.858 106.089 58.8172 106.245 58.8153 106.418V107.131C58.8153 107.347 58.8551 107.533 58.9347 107.69C59.0161 107.848 59.1307 107.969 59.2784 108.054C59.4261 108.139 59.6013 108.182 59.804 108.182C59.9384 108.182 60.0616 108.163 60.1733 108.125C60.285 108.087 60.3807 108.03 60.4602 107.955C60.5398 107.879 60.6004 107.786 60.642 107.676L61.7614 107.75C61.7045 108.019 61.5881 108.254 61.4119 108.455C61.2377 108.653 61.0123 108.809 60.7358 108.92C60.4612 109.03 60.1439 109.085 59.7841 109.085ZM64.8977 104.636V105.545H62.2699V104.636H64.8977ZM62.8665 103.591H64.0767V107.659C64.0767 107.771 64.0938 107.858 64.1278 107.92C64.1619 107.981 64.2093 108.024 64.2699 108.048C64.3324 108.073 64.4044 108.085 64.4858 108.085C64.5426 108.085 64.5994 108.08 64.6562 108.071C64.7131 108.06 64.7566 108.051 64.7869 108.045L64.9773 108.946C64.9167 108.965 64.8314 108.987 64.7216 109.011C64.6117 109.038 64.4782 109.054 64.321 109.06C64.0294 109.071 63.7737 109.032 63.554 108.943C63.3362 108.854 63.1667 108.716 63.0455 108.528C62.9242 108.341 62.8646 108.104 62.8665 107.818V103.591ZM67.5604 109V103.182H69.8899C70.3179 103.182 70.675 103.245 70.9609 103.372C71.2469 103.499 71.4619 103.675 71.6058 103.901C71.7498 104.124 71.8217 104.382 71.8217 104.673C71.8217 104.901 71.7763 105.1 71.6854 105.273C71.5945 105.443 71.4695 105.583 71.3104 105.693C71.1532 105.801 70.9732 105.878 70.7706 105.923V105.98C70.9922 105.99 71.1996 106.052 71.3928 106.168C71.5878 106.283 71.746 106.445 71.8672 106.653C71.9884 106.86 72.049 107.106 72.049 107.392C72.049 107.701 71.9723 107.976 71.8189 108.219C71.6674 108.459 71.4429 108.65 71.1456 108.79C70.8482 108.93 70.4818 109 70.0462 109H67.5604ZM68.7905 107.994H69.7933C70.1361 107.994 70.3861 107.929 70.5433 107.798C70.7005 107.666 70.7791 107.49 70.7791 107.27C70.7791 107.109 70.7403 106.967 70.6626 106.844C70.585 106.721 70.4742 106.624 70.3303 106.554C70.1882 106.484 70.0187 106.449 69.8217 106.449H68.7905V107.994ZM68.7905 105.616H69.7024C69.871 105.616 70.0206 105.587 70.1513 105.528C70.2839 105.468 70.388 105.383 70.4638 105.273C70.5414 105.163 70.5803 105.031 70.5803 104.878C70.5803 104.668 70.5054 104.498 70.3558 104.369C70.2081 104.241 69.9979 104.176 69.7251 104.176H68.7905V105.616ZM74.071 109.082C73.7926 109.082 73.5445 109.034 73.3267 108.938C73.1089 108.839 72.9366 108.694 72.8097 108.503C72.6847 108.31 72.6222 108.069 72.6222 107.781C72.6222 107.539 72.6667 107.335 72.7557 107.17C72.8447 107.006 72.9659 106.873 73.1193 106.773C73.2727 106.672 73.447 106.597 73.642 106.545C73.839 106.494 74.0455 106.458 74.2614 106.438C74.5152 106.411 74.7197 106.386 74.875 106.364C75.0303 106.339 75.143 106.303 75.2131 106.256C75.2831 106.208 75.3182 106.138 75.3182 106.045V106.028C75.3182 105.848 75.2614 105.709 75.1477 105.611C75.036 105.512 74.8769 105.463 74.6705 105.463C74.4527 105.463 74.2794 105.511 74.1506 105.608C74.0218 105.703 73.9366 105.822 73.8949 105.966L72.7756 105.875C72.8324 105.61 72.9441 105.381 73.1108 105.188C73.2775 104.992 73.4924 104.843 73.7557 104.739C74.0208 104.633 74.3277 104.58 74.6761 104.58C74.9186 104.58 75.1506 104.608 75.3722 104.665C75.5956 104.722 75.7936 104.81 75.9659 104.929C76.1402 105.048 76.2775 105.202 76.3778 105.389C76.4782 105.575 76.5284 105.797 76.5284 106.057V109H75.3807V108.395H75.3466C75.2765 108.531 75.1828 108.652 75.0653 108.756C74.9479 108.858 74.8068 108.938 74.642 108.997C74.4773 109.054 74.2869 109.082 74.071 109.082ZM74.4176 108.247C74.5956 108.247 74.7528 108.212 74.8892 108.142C75.0256 108.07 75.1326 107.973 75.2102 107.852C75.2879 107.731 75.3267 107.594 75.3267 107.44V106.977C75.2888 107.002 75.2367 107.025 75.1705 107.045C75.1061 107.064 75.0331 107.082 74.9517 107.099C74.8703 107.115 74.7888 107.129 74.7074 107.142C74.6259 107.153 74.5521 107.164 74.4858 107.173C74.3438 107.194 74.2197 107.227 74.1136 107.273C74.0076 107.318 73.9252 107.38 73.8665 107.457C73.8078 107.533 73.7784 107.628 73.7784 107.741C73.7784 107.906 73.8381 108.032 73.9574 108.119C74.0786 108.205 74.232 108.247 74.4176 108.247ZM78.6776 106.477V109H77.4673V104.636H78.6207V105.406H78.6719C78.7685 105.152 78.9304 104.952 79.1577 104.804C79.3849 104.654 79.6605 104.58 79.9844 104.58C80.2874 104.58 80.5516 104.646 80.777 104.778C81.0024 104.911 81.1776 105.1 81.3026 105.347C81.4276 105.591 81.4901 105.883 81.4901 106.222V109H80.2798V106.438C80.2817 106.17 80.2135 105.962 80.0753 105.812C79.937 105.661 79.7467 105.585 79.5043 105.585C79.3414 105.585 79.1974 105.62 79.0724 105.69C78.9493 105.76 78.8527 105.863 78.7827 105.997C78.7145 106.13 78.6795 106.29 78.6776 106.477ZM83.5405 107.744L83.5433 106.293H83.7195L85.1172 104.636H86.5064L84.6286 106.83H84.3416L83.5405 107.744ZM82.4439 109V103.182H83.6541V109H82.4439ZM85.1712 109L83.8871 107.099L84.6939 106.244L86.5888 109H85.1712ZM87.1001 109V104.636H88.3104V109H87.1001ZM87.7081 104.074C87.5282 104.074 87.3738 104.014 87.245 103.895C87.1181 103.774 87.0547 103.629 87.0547 103.46C87.0547 103.294 87.1181 103.151 87.245 103.031C87.3738 102.91 87.5282 102.849 87.7081 102.849C87.888 102.849 88.0414 102.91 88.1683 103.031C88.2971 103.151 88.3615 103.294 88.3615 103.46C88.3615 103.629 88.2971 103.774 88.1683 103.895C88.0414 104.014 87.888 104.074 87.7081 104.074ZM90.4901 106.477V109H89.2798V104.636H90.4332V105.406H90.4844C90.581 105.152 90.7429 104.952 90.9702 104.804C91.1974 104.654 91.473 104.58 91.7969 104.58C92.0999 104.58 92.3641 104.646 92.5895 104.778C92.8149 104.911 92.9901 105.1 93.1151 105.347C93.2401 105.591 93.3026 105.883 93.3026 106.222V109H92.0923V106.438C92.0942 106.17 92.026 105.962 91.8878 105.812C91.7495 105.661 91.5592 105.585 91.3168 105.585C91.1539 105.585 91.0099 105.62 90.8849 105.69C90.7618 105.76 90.6652 105.863 90.5952 105.997C90.527 106.13 90.492 106.29 90.4901 106.477ZM96.2223 110.727C95.8303 110.727 95.4941 110.673 95.2138 110.565C94.9354 110.459 94.7138 110.314 94.549 110.131C94.3842 109.947 94.2772 109.741 94.228 109.511L95.3473 109.361C95.3814 109.448 95.4354 109.529 95.5092 109.605C95.5831 109.681 95.6806 109.741 95.8018 109.787C95.925 109.834 96.0746 109.858 96.2507 109.858C96.514 109.858 96.7308 109.794 96.9013 109.665C97.0736 109.538 97.1598 109.325 97.1598 109.026V108.227H97.1087C97.0556 108.348 96.9761 108.463 96.87 108.571C96.764 108.679 96.6276 108.767 96.4609 108.835C96.2943 108.903 96.0954 108.938 95.8643 108.938C95.5367 108.938 95.2384 108.862 94.9695 108.71C94.7024 108.557 94.4893 108.323 94.3303 108.009C94.1731 107.692 94.0945 107.293 94.0945 106.81C94.0945 106.315 94.175 105.902 94.3359 105.571C94.4969 105.24 94.7109 104.991 94.978 104.827C95.2469 104.662 95.5414 104.58 95.8615 104.58C96.1058 104.58 96.3104 104.621 96.4751 104.705C96.6399 104.786 96.7725 104.888 96.8729 105.011C96.9751 105.133 97.0537 105.252 97.1087 105.369H97.1541V104.636H98.3558V109.043C98.3558 109.414 98.2649 109.724 98.0831 109.974C97.9013 110.224 97.6494 110.412 97.3274 110.537C97.0073 110.664 96.639 110.727 96.2223 110.727ZM96.2479 108.028C96.4429 108.028 96.6077 107.98 96.7422 107.884C96.8786 107.785 96.9827 107.645 97.0547 107.463C97.1286 107.279 97.1655 107.06 97.1655 106.804C97.1655 106.548 97.1295 106.327 97.0575 106.139C96.9856 105.95 96.8814 105.803 96.745 105.699C96.6087 105.595 96.4429 105.543 96.2479 105.543C96.049 105.543 95.8814 105.597 95.745 105.705C95.6087 105.811 95.5054 105.958 95.4354 106.148C95.3653 106.337 95.3303 106.556 95.3303 106.804C95.3303 107.056 95.3653 107.274 95.4354 107.457C95.5073 107.639 95.6106 107.78 95.745 107.881C95.8814 107.979 96.049 108.028 96.2479 108.028ZM34.5057 121V115.182H36.8011C37.2424 115.182 37.6184 115.266 37.929 115.435C38.2396 115.601 38.4763 115.833 38.6392 116.131C38.804 116.426 38.8864 116.767 38.8864 117.153C38.8864 117.54 38.803 117.881 38.6364 118.176C38.4697 118.472 38.2282 118.702 37.9119 118.866C37.5975 119.031 37.2169 119.114 36.7699 119.114H35.3068V118.128H36.571C36.8078 118.128 37.0028 118.087 37.1562 118.006C37.3116 117.922 37.4271 117.808 37.5028 117.662C37.5805 117.514 37.6193 117.345 37.6193 117.153C37.6193 116.96 37.5805 116.792 37.5028 116.648C37.4271 116.502 37.3116 116.389 37.1562 116.31C37.0009 116.228 36.804 116.188 36.5653 116.188H35.7358V121H34.5057ZM44.8189 117.219H43.5746C43.5518 117.058 43.5054 116.915 43.4354 116.79C43.3653 116.663 43.2753 116.555 43.1655 116.466C43.0556 116.377 42.9287 116.309 42.7848 116.261C42.6428 116.214 42.4884 116.19 42.3217 116.19C42.0206 116.19 41.7583 116.265 41.5348 116.415C41.3113 116.562 41.138 116.778 41.0149 117.062C40.8918 117.345 40.8303 117.687 40.8303 118.091C40.8303 118.506 40.8918 118.854 41.0149 119.136C41.1399 119.419 41.3142 119.632 41.5376 119.776C41.7611 119.92 42.0196 119.991 42.3132 119.991C42.478 119.991 42.6304 119.97 42.7706 119.926C42.9126 119.883 43.0386 119.819 43.1484 119.736C43.2583 119.651 43.3492 119.547 43.4212 119.426C43.495 119.305 43.5462 119.167 43.5746 119.011L44.8189 119.017C44.7867 119.284 44.7062 119.542 44.5774 119.79C44.4505 120.036 44.2791 120.257 44.0632 120.452C43.8492 120.645 43.5935 120.798 43.2962 120.912C43.0007 121.024 42.6664 121.08 42.2933 121.08C41.7744 121.08 41.3104 120.962 40.9013 120.727C40.4941 120.492 40.1721 120.152 39.9354 119.707C39.7005 119.262 39.5831 118.723 39.5831 118.091C39.5831 117.456 39.7024 116.917 39.9411 116.472C40.1797 116.027 40.5036 115.687 40.9126 115.455C41.3217 115.22 41.782 115.102 42.2933 115.102C42.6304 115.102 42.9429 115.15 43.2308 115.244C43.5206 115.339 43.7772 115.477 44.0007 115.659C44.2242 115.839 44.406 116.06 44.5462 116.321C44.6882 116.582 44.7791 116.882 44.8189 117.219ZM50.7088 116.855C50.6861 116.626 50.5885 116.448 50.4162 116.321C50.2438 116.194 50.0099 116.131 49.7145 116.131C49.5137 116.131 49.3442 116.159 49.206 116.216C49.0677 116.271 48.9616 116.348 48.8878 116.446C48.8158 116.545 48.7798 116.656 48.7798 116.781C48.776 116.885 48.7978 116.976 48.8452 117.054C48.8944 117.132 48.9616 117.199 49.0469 117.256C49.1321 117.311 49.2306 117.359 49.3423 117.401C49.4541 117.44 49.5734 117.474 49.7003 117.503L50.223 117.628C50.4768 117.685 50.7098 117.76 50.9219 117.855C51.134 117.95 51.3177 118.066 51.473 118.205C51.6283 118.343 51.7486 118.506 51.8338 118.693C51.9209 118.881 51.9654 119.096 51.9673 119.338C51.9654 119.694 51.8745 120.003 51.6946 120.264C51.5166 120.524 51.259 120.725 50.9219 120.869C50.5866 121.011 50.1823 121.082 49.7088 121.082C49.2391 121.082 48.83 121.01 48.4815 120.866C48.1349 120.723 47.8641 120.509 47.669 120.227C47.4759 119.943 47.3745 119.592 47.3651 119.173H48.5554C48.5687 119.368 48.6245 119.531 48.723 119.662C48.8234 119.791 48.9569 119.888 49.1236 119.955C49.2921 120.019 49.4825 120.051 49.6946 120.051C49.9029 120.051 50.0838 120.021 50.2372 119.96C50.3925 119.9 50.5128 119.815 50.598 119.707C50.6832 119.599 50.7259 119.475 50.7259 119.335C50.7259 119.205 50.687 119.095 50.6094 119.006C50.5336 118.917 50.4219 118.841 50.2741 118.778C50.1283 118.716 49.9493 118.659 49.7372 118.608L49.1037 118.449C48.6132 118.33 48.2259 118.143 47.9418 117.889C47.6577 117.635 47.5166 117.294 47.5185 116.864C47.5166 116.511 47.6103 116.204 47.7997 115.94C47.991 115.677 48.2533 115.472 48.5866 115.324C48.92 115.176 49.2988 115.102 49.723 115.102C50.1548 115.102 50.5317 115.176 50.8537 115.324C51.1776 115.472 51.4295 115.677 51.6094 115.94C51.7893 116.204 51.8821 116.509 51.8878 116.855H50.7088ZM54.7436 121.085C54.2966 121.085 53.9122 120.991 53.5902 120.801C53.2701 120.61 53.0239 120.345 52.8516 120.006C52.6811 119.667 52.5959 119.277 52.5959 118.835C52.5959 118.388 52.6821 117.996 52.8544 117.659C53.0286 117.32 53.2758 117.056 53.5959 116.866C53.916 116.675 54.2966 116.58 54.7379 116.58C55.1186 116.58 55.4519 116.649 55.7379 116.787C56.0239 116.925 56.2502 117.119 56.4169 117.369C56.5836 117.619 56.6754 117.913 56.6925 118.25H55.5504C55.5182 118.032 55.433 117.857 55.2947 117.724C55.1584 117.59 54.9794 117.523 54.7578 117.523C54.5703 117.523 54.4065 117.574 54.2663 117.676C54.1281 117.777 54.0201 117.923 53.9425 118.116C53.8648 118.31 53.826 118.544 53.826 118.818C53.826 119.097 53.8639 119.333 53.9396 119.528C54.0173 119.723 54.1262 119.872 54.2663 119.974C54.4065 120.077 54.5703 120.128 54.7578 120.128C54.8961 120.128 55.0201 120.099 55.13 120.043C55.2417 119.986 55.3336 119.903 55.4055 119.795C55.4794 119.686 55.5277 119.554 55.5504 119.401H56.6925C56.6735 119.734 56.5826 120.027 56.4197 120.281C56.2588 120.533 56.0362 120.73 55.7521 120.872C55.468 121.014 55.1319 121.085 54.7436 121.085ZM57.4673 121V116.636H58.6406V117.398H58.6861C58.7656 117.127 58.8991 116.922 59.0866 116.784C59.2741 116.644 59.4901 116.574 59.7344 116.574C59.795 116.574 59.8603 116.578 59.9304 116.585C60.0005 116.593 60.062 116.603 60.1151 116.616V117.69C60.0582 117.673 59.9796 117.658 59.8793 117.645C59.7789 117.632 59.687 117.625 59.6037 117.625C59.4257 117.625 59.2666 117.664 59.1264 117.741C58.9882 117.817 58.8783 117.923 58.7969 118.06C58.7173 118.196 58.6776 118.353 58.6776 118.531V121H57.4673ZM62.5263 121.085C62.0774 121.085 61.6911 120.994 61.3672 120.812C61.0452 120.629 60.7971 120.369 60.6229 120.034C60.4486 119.697 60.3615 119.298 60.3615 118.838C60.3615 118.389 60.4486 117.995 60.6229 117.656C60.7971 117.317 61.0424 117.053 61.3587 116.864C61.6768 116.674 62.05 116.58 62.478 116.58C62.7659 116.58 63.0339 116.626 63.282 116.719C63.532 116.81 63.7498 116.947 63.9354 117.131C64.1229 117.314 64.2687 117.545 64.3729 117.824C64.477 118.1 64.5291 118.424 64.5291 118.795V119.128H60.8445V118.378H63.3899C63.3899 118.204 63.352 118.049 63.2763 117.915C63.2005 117.78 63.0954 117.675 62.9609 117.599C62.8284 117.522 62.674 117.483 62.4979 117.483C62.3142 117.483 62.1513 117.526 62.0092 117.611C61.8691 117.694 61.7592 117.807 61.6797 117.949C61.6001 118.089 61.5594 118.245 61.5575 118.418V119.131C61.5575 119.347 61.5973 119.533 61.6768 119.69C61.7583 119.848 61.8729 119.969 62.0206 120.054C62.1683 120.139 62.3435 120.182 62.5462 120.182C62.6806 120.182 62.8037 120.163 62.9155 120.125C63.0272 120.087 63.1229 120.03 63.2024 119.955C63.282 119.879 63.3426 119.786 63.3842 119.676L64.5036 119.75C64.4467 120.019 64.3303 120.254 64.1541 120.455C63.9799 120.653 63.7545 120.809 63.478 120.92C63.2034 121.03 62.8861 121.085 62.5263 121.085ZM67.3075 121.085C66.8587 121.085 66.4723 120.994 66.1484 120.812C65.8265 120.629 65.5784 120.369 65.4041 120.034C65.2299 119.697 65.1428 119.298 65.1428 118.838C65.1428 118.389 65.2299 117.995 65.4041 117.656C65.5784 117.317 65.8236 117.053 66.1399 116.864C66.4581 116.674 66.8312 116.58 67.2592 116.58C67.5471 116.58 67.8151 116.626 68.0632 116.719C68.3132 116.81 68.531 116.947 68.7166 117.131C68.9041 117.314 69.05 117.545 69.1541 117.824C69.2583 118.1 69.3104 118.424 69.3104 118.795V119.128H65.6257V118.378H68.1712C68.1712 118.204 68.1333 118.049 68.0575 117.915C67.9818 117.78 67.8767 117.675 67.7422 117.599C67.6096 117.522 67.4553 117.483 67.2791 117.483C67.0954 117.483 66.9325 117.526 66.7905 117.611C66.6503 117.694 66.5405 117.807 66.4609 117.949C66.3814 118.089 66.3407 118.245 66.3388 118.418V119.131C66.3388 119.347 66.3786 119.533 66.4581 119.69C66.5395 119.848 66.6541 119.969 66.8018 120.054C66.9496 120.139 67.1248 120.182 67.3274 120.182C67.4619 120.182 67.585 120.163 67.6967 120.125C67.8085 120.087 67.9041 120.03 67.9837 119.955C68.0632 119.879 68.1238 119.786 68.1655 119.676L69.2848 119.75C69.228 120.019 69.1115 120.254 68.9354 120.455C68.7611 120.653 68.5357 120.809 68.2592 120.92C67.9846 121.03 67.6674 121.085 67.3075 121.085ZM71.3104 118.477V121H70.1001V116.636H71.2536V117.406H71.3047C71.4013 117.152 71.5632 116.952 71.7905 116.804C72.0178 116.654 72.2933 116.58 72.6172 116.58C72.9202 116.58 73.1844 116.646 73.4098 116.778C73.6352 116.911 73.8104 117.1 73.9354 117.347C74.0604 117.591 74.1229 117.883 74.1229 118.222V121H72.9126V118.438C72.9145 118.17 72.8464 117.962 72.7081 117.812C72.5698 117.661 72.3795 117.585 72.1371 117.585C71.9742 117.585 71.8303 117.62 71.7053 117.69C71.5821 117.76 71.4856 117.863 71.4155 117.997C71.3473 118.13 71.3123 118.29 71.3104 118.477ZM75.7841 121.074C75.5966 121.074 75.4356 121.008 75.3011 120.875C75.1686 120.741 75.1023 120.58 75.1023 120.392C75.1023 120.206 75.1686 120.047 75.3011 119.915C75.4356 119.782 75.5966 119.716 75.7841 119.716C75.9659 119.716 76.125 119.782 76.2614 119.915C76.3977 120.047 76.4659 120.206 76.4659 120.392C76.4659 120.517 76.4337 120.632 76.3693 120.736C76.3068 120.838 76.2244 120.92 76.1222 120.983C76.0199 121.044 75.9072 121.074 75.7841 121.074Z" fill="#333333"/>
<path d="M70.6775 149.105V148.636H73.9502V149.105H72.578V153H72.0496V149.105H70.6775ZM75.2004 151.031V153H74.6975V148.636H75.2004V150.239H75.243C75.3197 150.07 75.4347 149.935 75.5882 149.836C75.743 149.735 75.949 149.685 76.2061 149.685C76.4291 149.685 76.6244 149.729 76.792 149.819C76.9596 149.907 77.0896 150.043 77.1819 150.226C77.2757 150.408 77.3225 150.639 77.3225 150.92V153H76.8197V150.955C76.8197 150.695 76.7522 150.494 76.6173 150.352C76.4838 150.208 76.2984 150.136 76.0612 150.136C75.8964 150.136 75.7487 150.171 75.618 150.241C75.4887 150.31 75.3865 150.412 75.3112 150.545C75.2373 150.679 75.2004 150.841 75.2004 151.031ZM79.6146 153.068C79.2993 153.068 79.0273 152.999 78.7986 152.859C78.5713 152.719 78.3959 152.523 78.2723 152.271C78.1501 152.018 78.089 151.724 78.089 151.389C78.089 151.054 78.1501 150.759 78.2723 150.503C78.3959 150.246 78.5677 150.045 78.7879 149.902C79.0095 149.757 79.268 149.685 79.5635 149.685C79.7339 149.685 79.9023 149.713 80.0684 149.77C80.2346 149.827 80.3859 149.919 80.5223 150.047C80.6586 150.173 80.7673 150.341 80.8483 150.55C80.9292 150.759 80.9697 151.016 80.9697 151.321V151.534H78.447V151.099H80.4584C80.4584 150.915 80.4214 150.75 80.3476 150.605C80.2751 150.46 80.1714 150.346 80.0365 150.262C79.903 150.178 79.7453 150.136 79.5635 150.136C79.3632 150.136 79.1899 150.186 79.0436 150.286C78.8987 150.384 78.7872 150.511 78.7091 150.669C78.6309 150.827 78.5919 150.996 78.5919 151.176V151.466C78.5919 151.713 78.6345 151.923 78.7197 152.094C78.8064 152.265 78.9264 152.395 79.0798 152.484C79.2332 152.572 79.4115 152.616 79.6146 152.616C79.7467 152.616 79.866 152.598 79.9726 152.561C80.0805 152.523 80.1736 152.466 80.2517 152.391C80.3298 152.314 80.3902 152.219 80.4328 152.105L80.9186 152.241C80.8675 152.406 80.7815 152.551 80.6608 152.676C80.54 152.8 80.3909 152.896 80.2133 152.966C80.0358 153.034 79.8362 153.068 79.6146 153.068ZM87.1721 150.818C87.1721 151.278 87.089 151.676 86.9229 152.011C86.7567 152.347 86.5287 152.605 86.2389 152.787C85.9491 152.969 85.6182 153.06 85.246 153.06C84.8738 153.06 84.5429 152.969 84.2531 152.787C83.9633 152.605 83.7354 152.347 83.5692 152.011C83.403 151.676 83.3199 151.278 83.3199 150.818C83.3199 150.358 83.403 149.96 83.5692 149.625C83.7354 149.29 83.9633 149.031 84.2531 148.849C84.5429 148.668 84.8738 148.577 85.246 148.577C85.6182 148.577 85.9491 148.668 86.2389 148.849C86.5287 149.031 86.7567 149.29 86.9229 149.625C87.089 149.96 87.1721 150.358 87.1721 150.818ZM86.6608 150.818C86.6608 150.44 86.5976 150.121 86.4711 149.862C86.3461 149.602 86.1764 149.405 85.9619 149.271C85.7488 149.138 85.5102 149.071 85.246 149.071C84.9818 149.071 84.7425 149.138 84.528 149.271C84.3149 149.405 84.1452 149.602 84.0187 149.862C83.8937 150.121 83.8312 150.44 83.8312 150.818C83.8312 151.196 83.8937 151.515 84.0187 151.775C84.1452 152.035 84.3149 152.232 84.528 152.365C84.7425 152.499 84.9818 152.565 85.246 152.565C85.5102 152.565 85.7488 152.499 85.9619 152.365C86.1764 152.232 86.3461 152.035 86.4711 151.775C86.5976 151.515 86.6608 151.196 86.6608 150.818ZM87.6404 149.105V148.636H90.9131V149.105H89.5409V153H89.0125V149.105H87.6404ZM91.7286 153V148.636H93.203C93.5454 148.636 93.8252 148.698 94.0425 148.822C94.2613 148.944 94.4232 149.109 94.5283 149.318C94.6334 149.527 94.686 149.76 94.686 150.017C94.686 150.274 94.6334 150.508 94.5283 150.718C94.4246 150.928 94.2641 151.096 94.0468 151.221C93.8295 151.344 93.551 151.406 93.2116 151.406H92.1547V150.938H93.1945C93.4289 150.938 93.6171 150.897 93.7591 150.816C93.9012 150.735 94.0042 150.626 94.0681 150.488C94.1334 150.349 94.1661 150.192 94.1661 150.017C94.1661 149.842 94.1334 149.686 94.0681 149.548C94.0042 149.411 93.9005 149.303 93.757 149.224C93.6135 149.145 93.4232 149.105 93.186 149.105H92.257V153H91.7286ZM100.685 148.636V153H100.174L97.7957 149.574H97.7531V153H97.2247V148.636H97.7361L100.122 152.071H100.165V148.636H100.685ZM103.737 151.662V149.727H104.239V153H103.737V152.446H103.703C103.626 152.612 103.506 152.754 103.345 152.87C103.183 152.985 102.978 153.043 102.731 153.043C102.526 153.043 102.345 152.998 102.185 152.908C102.026 152.817 101.901 152.681 101.81 152.499C101.72 152.316 101.674 152.085 101.674 151.807V149.727H102.177V151.773C102.177 152.011 102.244 152.202 102.377 152.344C102.512 152.486 102.684 152.557 102.893 152.557C103.018 152.557 103.145 152.525 103.274 152.461C103.405 152.397 103.514 152.299 103.602 152.167C103.692 152.035 103.737 151.866 103.737 151.662ZM105.16 153V149.727H105.646V150.239H105.689C105.757 150.064 105.867 149.928 106.019 149.832C106.171 149.734 106.354 149.685 106.567 149.685C106.783 149.685 106.962 149.734 107.106 149.832C107.251 149.928 107.364 150.064 107.445 150.239H107.479C107.562 150.07 107.688 149.935 107.856 149.836C108.023 149.735 108.224 149.685 108.459 149.685C108.751 149.685 108.991 149.776 109.177 149.96C109.363 150.141 109.456 150.425 109.456 150.81V153H108.953V150.81C108.953 150.568 108.887 150.396 108.755 150.292C108.623 150.188 108.467 150.136 108.288 150.136C108.058 150.136 107.88 150.206 107.753 150.345C107.627 150.483 107.564 150.658 107.564 150.869V153H107.052V150.759C107.052 150.572 106.992 150.423 106.871 150.309C106.751 150.194 106.595 150.136 106.405 150.136C106.274 150.136 106.152 150.171 106.038 150.241C105.926 150.31 105.835 150.407 105.766 150.531C105.697 150.653 105.663 150.794 105.663 150.955V153H105.16ZM110.443 153V148.636H110.946V150.247H110.989C111.026 150.19 111.077 150.118 111.142 150.03C111.209 149.94 111.304 149.861 111.428 149.791C111.553 149.72 111.722 149.685 111.935 149.685C112.21 149.685 112.453 149.754 112.664 149.891C112.874 150.029 113.038 150.224 113.156 150.477C113.274 150.73 113.333 151.028 113.333 151.372C113.333 151.719 113.274 152.019 113.156 152.273C113.038 152.526 112.875 152.722 112.666 152.862C112.457 152.999 112.216 153.068 111.943 153.068C111.733 153.068 111.565 153.033 111.438 152.964C111.312 152.893 111.215 152.812 111.147 152.723C111.078 152.632 111.026 152.557 110.989 152.497H110.929V153H110.443ZM110.938 151.364C110.938 151.611 110.974 151.829 111.046 152.018C111.119 152.205 111.225 152.352 111.364 152.459C111.503 152.564 111.674 152.616 111.875 152.616C112.085 152.616 112.261 152.561 112.402 152.45C112.544 152.338 112.65 152.187 112.721 151.999C112.794 151.808 112.83 151.597 112.83 151.364C112.83 151.134 112.794 150.926 112.723 150.741C112.654 150.555 112.548 150.408 112.406 150.3C112.265 150.191 112.088 150.136 111.875 150.136C111.671 150.136 111.499 150.188 111.36 150.292C111.22 150.394 111.115 150.538 111.044 150.722C110.973 150.906 110.938 151.119 110.938 151.364ZM115.474 153.068C115.159 153.068 114.887 152.999 114.658 152.859C114.431 152.719 114.255 152.523 114.132 152.271C114.009 152.018 113.948 151.724 113.948 151.389C113.948 151.054 114.009 150.759 114.132 150.503C114.255 150.246 114.427 150.045 114.647 149.902C114.869 149.757 115.127 149.685 115.423 149.685C115.593 149.685 115.762 149.713 115.928 149.77C116.094 149.827 116.245 149.919 116.382 150.047C116.518 150.173 116.627 150.341 116.708 150.55C116.789 150.759 116.829 151.016 116.829 151.321V151.534H114.306V151.099H116.318C116.318 150.915 116.281 150.75 116.207 150.605C116.134 150.46 116.031 150.346 115.896 150.262C115.762 150.178 115.605 150.136 115.423 150.136C115.223 150.136 115.049 150.186 114.903 150.286C114.758 150.384 114.647 150.511 114.568 150.669C114.49 150.827 114.451 150.996 114.451 151.176V151.466C114.451 151.713 114.494 151.923 114.579 152.094C114.666 152.265 114.786 152.395 114.939 152.484C115.093 152.572 115.271 152.616 115.474 152.616C115.606 152.616 115.725 152.598 115.832 152.561C115.94 152.523 116.033 152.466 116.111 152.391C116.189 152.314 116.25 152.219 116.292 152.105L116.778 152.241C116.727 152.406 116.641 152.551 116.52 152.676C116.399 152.8 116.25 152.896 116.073 152.966C115.895 153.034 115.696 153.068 115.474 153.068ZM117.594 153V149.727H118.08V150.222H118.114C118.174 150.06 118.282 149.928 118.438 149.827C118.594 149.727 118.77 149.676 118.966 149.676C119.003 149.676 119.049 149.677 119.105 149.678C119.16 149.68 119.202 149.682 119.23 149.685V150.196C119.213 150.192 119.174 150.185 119.113 150.177C119.054 150.167 118.99 150.162 118.924 150.162C118.764 150.162 118.622 150.195 118.497 150.262C118.374 150.327 118.276 150.418 118.203 150.535C118.132 150.65 118.097 150.781 118.097 150.929V153H117.594ZM121.514 153V149.727H122.017V153H121.514ZM121.77 149.182C121.672 149.182 121.587 149.148 121.516 149.082C121.446 149.015 121.412 148.935 121.412 148.841C121.412 148.747 121.446 148.667 121.516 148.6C121.587 148.533 121.672 148.5 121.77 148.5C121.868 148.5 121.951 148.533 122.021 148.6C122.092 148.667 122.128 148.747 122.128 148.841C122.128 148.935 122.092 149.015 122.021 149.082C121.951 149.148 121.868 149.182 121.77 149.182ZM125.256 150.46L124.804 150.588C124.776 150.513 124.734 150.44 124.679 150.369C124.625 150.296 124.551 150.237 124.457 150.19C124.363 150.143 124.243 150.119 124.097 150.119C123.897 150.119 123.73 150.165 123.596 150.258C123.464 150.349 123.398 150.464 123.398 150.605C123.398 150.73 123.443 150.829 123.534 150.901C123.625 150.974 123.767 151.034 123.96 151.082L124.446 151.202C124.739 151.273 124.957 151.381 125.1 151.528C125.244 151.673 125.316 151.859 125.316 152.088C125.316 152.276 125.262 152.443 125.154 152.591C125.047 152.739 124.898 152.855 124.706 152.94C124.514 153.026 124.291 153.068 124.037 153.068C123.703 153.068 123.427 152.996 123.208 152.851C122.99 152.706 122.851 152.494 122.793 152.216L123.27 152.097C123.316 152.273 123.402 152.405 123.528 152.493C123.656 152.581 123.823 152.625 124.029 152.625C124.263 152.625 124.449 152.575 124.587 152.476C124.726 152.375 124.796 152.254 124.796 152.114C124.796 152 124.756 151.905 124.676 151.828C124.597 151.75 124.475 151.692 124.31 151.653L123.764 151.526C123.465 151.455 123.245 151.344 123.104 151.195C122.965 151.045 122.895 150.857 122.895 150.631C122.895 150.446 122.947 150.283 123.051 150.141C123.156 149.999 123.299 149.887 123.479 149.806C123.661 149.725 123.867 149.685 124.097 149.685C124.421 149.685 124.675 149.756 124.86 149.898C125.046 150.04 125.178 150.227 125.256 150.46Z" fill="#333333"/>
<path d="M68.0518 213.08C67.6276 213.08 67.2498 213.007 66.9183 212.861C66.5888 212.713 66.3284 212.51 66.1371 212.253C65.9477 211.993 65.8501 211.694 65.8445 211.355H67.0831C67.0907 211.497 67.1371 211.622 67.2223 211.73C67.3094 211.836 67.425 211.919 67.5689 211.977C67.7128 212.036 67.8748 212.065 68.0547 212.065C68.2422 212.065 68.4079 212.032 68.5518 211.966C68.6958 211.9 68.8085 211.808 68.8899 211.69C68.9714 211.573 69.0121 211.437 69.0121 211.284C69.0121 211.129 68.9685 210.991 68.8814 210.872C68.7962 210.751 68.6731 210.656 68.5121 210.588C68.353 210.52 68.1636 210.486 67.9439 210.486H67.4013V209.582H67.9439C68.1295 209.582 68.2933 209.55 68.4354 209.486C68.5793 209.421 68.6911 209.332 68.7706 209.219C68.8501 209.103 68.8899 208.969 68.8899 208.815C68.8899 208.67 68.8549 208.542 68.7848 208.432C68.7166 208.32 68.62 208.233 68.495 208.17C68.3719 208.108 68.228 208.077 68.0632 208.077C67.8965 208.077 67.7441 208.107 67.6058 208.168C67.4676 208.226 67.3568 208.311 67.2734 208.42C67.1901 208.53 67.1456 208.659 67.1399 208.807H65.9609C65.9666 208.472 66.0623 208.176 66.2479 207.92C66.4335 207.665 66.6835 207.465 66.9979 207.321C67.3142 207.175 67.6712 207.102 68.0689 207.102C68.4704 207.102 68.8217 207.175 69.1229 207.321C69.424 207.467 69.6579 207.664 69.8246 207.912C69.9931 208.158 70.0765 208.435 70.0746 208.741C70.0765 209.067 69.9751 209.339 69.7706 209.557C69.5679 209.775 69.3037 209.913 68.978 209.972V210.017C69.406 210.072 69.7318 210.221 69.9553 210.463C70.1806 210.704 70.2924 211.005 70.2905 211.366C70.2924 211.698 70.1967 211.992 70.0036 212.25C69.8123 212.508 69.5481 212.71 69.2109 212.858C68.8738 213.006 68.4875 213.08 68.0518 213.08ZM73.456 213.128C72.9673 213.126 72.5469 213.006 72.1946 212.767C71.8442 212.528 71.5743 212.183 71.3849 211.73C71.1974 211.277 71.1046 210.733 71.1065 210.097C71.1065 209.462 71.2003 208.921 71.3878 208.474C71.5772 208.027 71.8471 207.687 72.1974 207.455C72.5497 207.22 72.9692 207.102 73.456 207.102C73.9427 207.102 74.3613 207.22 74.7116 207.455C75.0639 207.689 75.3348 208.03 75.5241 208.477C75.7135 208.922 75.8073 209.462 75.8054 210.097C75.8054 210.735 75.7107 211.28 75.5213 211.733C75.3338 212.186 75.0649 212.531 74.7145 212.77C74.3641 213.009 73.9446 213.128 73.456 213.128ZM73.456 212.108C73.7893 212.108 74.0554 211.94 74.2543 211.605C74.4531 211.27 74.5516 210.767 74.5497 210.097C74.5497 209.655 74.5043 209.288 74.4134 208.994C74.3243 208.701 74.1974 208.48 74.0327 208.332C73.8698 208.185 73.6776 208.111 73.456 208.111C73.1245 208.111 72.8594 208.277 72.6605 208.608C72.4616 208.939 72.3613 209.436 72.3594 210.097C72.3594 210.544 72.4039 210.917 72.4929 211.216C72.5838 211.513 72.7116 211.737 72.8764 211.886C73.0412 212.034 73.2344 212.108 73.456 212.108ZM82.1655 209.614L81.5632 209.784C81.5253 209.684 81.4695 209.586 81.3956 209.491C81.3236 209.395 81.2251 209.315 81.1001 209.253C80.9751 209.19 80.8151 209.159 80.62 209.159C80.353 209.159 80.1304 209.221 79.9524 209.344C79.7763 209.465 79.6882 209.619 79.6882 209.807C79.6882 209.973 79.7488 210.105 79.87 210.202C79.9912 210.298 80.1806 210.379 80.4382 210.443L81.0859 210.602C81.4761 210.697 81.7668 210.842 81.9581 211.037C82.1494 211.23 82.245 211.479 82.245 211.784C82.245 212.034 82.1731 212.258 82.0291 212.455C81.8871 212.652 81.6882 212.807 81.4325 212.92C81.1768 213.034 80.8795 213.091 80.5405 213.091C80.0954 213.091 79.727 212.994 79.4354 212.801C79.1437 212.608 78.959 212.326 78.8814 211.955L79.5178 211.795C79.5784 212.03 79.6929 212.206 79.8615 212.324C80.032 212.441 80.2545 212.5 80.5291 212.5C80.8416 212.5 81.0897 212.434 81.2734 212.301C81.459 212.167 81.5518 212.006 81.5518 211.818C81.5518 211.667 81.4988 211.54 81.3928 211.438C81.2867 211.333 81.1238 211.256 80.9041 211.205L80.1768 211.034C79.7772 210.939 79.4837 210.793 79.2962 210.594C79.1106 210.393 79.0178 210.142 79.0178 209.841C79.0178 209.595 79.0869 209.377 79.2251 209.188C79.3653 208.998 79.5556 208.849 79.7962 208.741C80.0386 208.634 80.3132 208.58 80.62 208.58C81.0518 208.58 81.3909 208.674 81.6371 208.864C81.8852 209.053 82.0613 209.303 82.1655 209.614ZM85.0838 213.091C84.6634 213.091 84.3007 212.998 83.9957 212.812C83.6927 212.625 83.4588 212.364 83.294 212.028C83.1312 211.691 83.0497 211.299 83.0497 210.852C83.0497 210.405 83.1312 210.011 83.294 209.67C83.4588 209.328 83.688 209.061 83.9815 208.869C84.277 208.676 84.6217 208.58 85.0156 208.58C85.2429 208.58 85.4673 208.617 85.6889 208.693C85.9105 208.769 86.1122 208.892 86.294 209.062C86.4759 209.231 86.6207 209.455 86.7287 209.733C86.8366 210.011 86.8906 210.354 86.8906 210.761V211.045H83.527V210.466H86.2088C86.2088 210.22 86.1596 210 86.0611 209.807C85.9645 209.614 85.8262 209.461 85.6463 209.349C85.4683 209.238 85.258 209.182 85.0156 209.182C84.7486 209.182 84.5175 209.248 84.3224 209.381C84.1293 209.511 83.9806 209.682 83.8764 209.892C83.7723 210.102 83.7202 210.328 83.7202 210.568V210.955C83.7202 211.284 83.777 211.563 83.8906 211.793C84.0062 212.02 84.1662 212.193 84.3707 212.312C84.5753 212.43 84.813 212.489 85.0838 212.489C85.2599 212.489 85.419 212.464 85.5611 212.415C85.705 212.364 85.8291 212.288 85.9332 212.188C86.0374 212.085 86.1179 211.958 86.1747 211.807L86.8224 211.989C86.7543 212.208 86.6397 212.402 86.4787 212.568C86.3177 212.733 86.1188 212.862 85.8821 212.955C85.6454 213.045 85.3793 213.091 85.0838 213.091ZM89.6832 213.091C89.2741 213.091 88.9219 212.994 88.6264 212.801C88.331 212.608 88.1037 212.342 87.9446 212.003C87.7855 211.664 87.706 211.277 87.706 210.841C87.706 210.398 87.7874 210.007 87.9503 209.668C88.1151 209.327 88.3442 209.061 88.6378 208.869C88.9332 208.676 89.2779 208.58 89.6719 208.58C89.9787 208.58 90.2552 208.636 90.5014 208.75C90.7476 208.864 90.9493 209.023 91.1065 209.227C91.2637 209.432 91.3613 209.67 91.3991 209.943H90.7287C90.6776 209.744 90.5639 209.568 90.3878 209.415C90.2135 209.259 89.9787 209.182 89.6832 209.182C89.4219 209.182 89.1927 209.25 88.9957 209.386C88.8007 209.521 88.6482 209.711 88.5384 209.957C88.4304 210.202 88.3764 210.489 88.3764 210.818C88.3764 211.155 88.4295 211.449 88.5355 211.699C88.6435 211.949 88.795 212.143 88.9901 212.281C89.187 212.42 89.4181 212.489 89.6832 212.489C89.8575 212.489 90.0156 212.458 90.1577 212.398C90.2997 212.337 90.42 212.25 90.5185 212.136C90.617 212.023 90.687 211.886 90.7287 211.727H91.3991C91.3613 211.985 91.2675 212.217 91.1179 212.423C90.9702 212.628 90.7741 212.791 90.5298 212.912C90.2874 213.031 90.0052 213.091 89.6832 213.091ZM94.152 213.091C93.758 213.091 93.4124 212.997 93.1151 212.81C92.8196 212.622 92.5885 212.36 92.4219 212.023C92.2571 211.686 92.1747 211.292 92.1747 210.841C92.1747 210.386 92.2571 209.99 92.4219 209.651C92.5885 209.312 92.8196 209.048 93.1151 208.861C93.4124 208.673 93.758 208.58 94.152 208.58C94.5459 208.58 94.8906 208.673 95.1861 208.861C95.4834 209.048 95.7145 209.312 95.8793 209.651C96.0459 209.99 96.1293 210.386 96.1293 210.841C96.1293 211.292 96.0459 211.686 95.8793 212.023C95.7145 212.36 95.4834 212.622 95.1861 212.81C94.8906 212.997 94.5459 213.091 94.152 213.091ZM94.152 212.489C94.4512 212.489 94.6974 212.412 94.8906 212.259C95.0838 212.105 95.2268 211.903 95.3196 211.653C95.4124 211.403 95.4588 211.133 95.4588 210.841C95.4588 210.549 95.4124 210.277 95.3196 210.026C95.2268 209.774 95.0838 209.57 94.8906 209.415C94.6974 209.259 94.4512 209.182 94.152 209.182C93.8527 209.182 93.6065 209.259 93.4134 209.415C93.2202 209.57 93.0772 209.774 92.9844 210.026C92.8916 210.277 92.8452 210.549 92.8452 210.841C92.8452 211.133 92.8916 211.403 92.9844 211.653C93.0772 211.903 93.2202 212.105 93.4134 212.259C93.6065 212.412 93.8527 212.489 94.152 212.489ZM97.8232 210.375V213H97.1527V208.636H97.8004V209.318H97.8572C97.9595 209.097 98.1148 208.919 98.3232 208.784C98.5315 208.648 98.8004 208.58 99.13 208.58C99.4254 208.58 99.6839 208.64 99.9055 208.761C100.127 208.881 100.299 209.062 100.423 209.307C100.546 209.549 100.607 209.856 100.607 210.227V213H99.9368V210.273C99.9368 209.93 99.8478 209.663 99.6697 209.472C99.4917 209.278 99.2474 209.182 98.9368 209.182C98.7228 209.182 98.5315 209.228 98.3629 209.321C98.1963 209.414 98.0646 209.549 97.968 209.727C97.8714 209.905 97.8232 210.121 97.8232 210.375ZM103.48 213.091C103.116 213.091 102.795 212.999 102.517 212.815C102.239 212.63 102.021 212.368 101.864 212.031C101.706 211.692 101.628 211.292 101.628 210.83C101.628 210.371 101.706 209.973 101.864 209.636C102.021 209.299 102.24 209.039 102.52 208.855C102.8 208.671 103.124 208.58 103.491 208.58C103.776 208.58 104 208.627 104.165 208.722C104.331 208.814 104.458 208.92 104.545 209.04C104.634 209.157 104.704 209.254 104.753 209.33H104.81V207.182H105.48V213H104.832V212.33H104.753C104.704 212.409 104.634 212.509 104.543 212.631C104.452 212.75 104.322 212.857 104.153 212.952C103.985 213.045 103.76 213.091 103.48 213.091ZM103.571 212.489C103.84 212.489 104.067 212.419 104.253 212.278C104.438 212.136 104.58 211.94 104.676 211.69C104.773 211.438 104.821 211.148 104.821 210.818C104.821 210.492 104.774 210.207 104.679 209.963C104.584 209.717 104.444 209.526 104.259 209.389C104.073 209.251 103.844 209.182 103.571 209.182C103.287 209.182 103.05 209.255 102.861 209.401C102.673 209.545 102.532 209.741 102.438 209.989C102.345 210.235 102.298 210.511 102.298 210.818C102.298 211.129 102.346 211.411 102.44 211.665C102.537 211.917 102.679 212.117 102.866 212.267C103.056 212.415 103.291 212.489 103.571 212.489ZM109.892 209.614L109.29 209.784C109.252 209.684 109.196 209.586 109.122 209.491C109.05 209.395 108.952 209.315 108.827 209.253C108.702 209.19 108.542 209.159 108.347 209.159C108.08 209.159 107.857 209.221 107.679 209.344C107.503 209.465 107.415 209.619 107.415 209.807C107.415 209.973 107.475 210.105 107.597 210.202C107.718 210.298 107.907 210.379 108.165 210.443L108.812 210.602C109.203 210.697 109.493 210.842 109.685 211.037C109.876 211.23 109.972 211.479 109.972 211.784C109.972 212.034 109.9 212.258 109.756 212.455C109.614 212.652 109.415 212.807 109.159 212.92C108.903 213.034 108.606 213.091 108.267 213.091C107.822 213.091 107.454 212.994 107.162 212.801C106.87 212.608 106.686 212.326 106.608 211.955L107.244 211.795C107.305 212.03 107.42 212.206 107.588 212.324C107.759 212.441 107.981 212.5 108.256 212.5C108.568 212.5 108.816 212.434 109 212.301C109.186 212.167 109.278 212.006 109.278 211.818C109.278 211.667 109.225 211.54 109.119 211.438C109.013 211.333 108.85 211.256 108.631 211.205L107.903 211.034C107.504 210.939 107.21 210.793 107.023 210.594C106.837 210.393 106.744 210.142 106.744 209.841C106.744 209.595 106.813 209.377 106.952 209.188C107.092 208.998 107.282 208.849 107.523 208.741C107.765 208.634 108.04 208.58 108.347 208.58C108.778 208.58 109.117 208.674 109.364 208.864C109.612 209.053 109.788 209.303 109.892 209.614ZM113.901 207.182V213H113.231V207.182H113.901ZM116.959 213.091C116.538 213.091 116.176 212.998 115.871 212.812C115.568 212.625 115.334 212.364 115.169 212.028C115.006 211.691 114.925 211.299 114.925 210.852C114.925 210.405 115.006 210.011 115.169 209.67C115.334 209.328 115.563 209.061 115.857 208.869C116.152 208.676 116.497 208.58 116.891 208.58C117.118 208.58 117.342 208.617 117.564 208.693C117.786 208.769 117.987 208.892 118.169 209.062C118.351 209.231 118.496 209.455 118.604 209.733C118.712 210.011 118.766 210.354 118.766 210.761V211.045H115.402V210.466H118.084C118.084 210.22 118.035 210 117.936 209.807C117.839 209.614 117.701 209.461 117.521 209.349C117.343 209.238 117.133 209.182 116.891 209.182C116.624 209.182 116.393 209.248 116.197 209.381C116.004 209.511 115.856 209.682 115.751 209.892C115.647 210.102 115.595 210.328 115.595 210.568V210.955C115.595 211.284 115.652 211.563 115.766 211.793C115.881 212.02 116.041 212.193 116.246 212.312C116.45 212.43 116.688 212.489 116.959 212.489C117.135 212.489 117.294 212.464 117.436 212.415C117.58 212.364 117.704 212.288 117.808 212.188C117.912 212.085 117.993 211.958 118.05 211.807L118.697 211.989C118.629 212.208 118.515 212.402 118.354 212.568C118.193 212.733 117.994 212.862 117.757 212.955C117.52 213.045 117.254 213.091 116.959 213.091ZM121.729 208.636V209.205H119.376V208.636H121.729ZM120.081 213V208.034C120.081 207.784 120.14 207.576 120.257 207.409C120.375 207.242 120.527 207.117 120.714 207.034C120.902 206.951 121.1 206.909 121.308 206.909C121.473 206.909 121.607 206.922 121.712 206.949C121.816 206.975 121.893 207 121.945 207.023L121.751 207.602C121.717 207.591 121.67 207.577 121.609 207.56C121.551 207.543 121.473 207.534 121.376 207.534C121.155 207.534 120.995 207.59 120.896 207.702C120.8 207.813 120.751 207.977 120.751 208.193V213H120.081ZM124.566 208.636V209.205H122.305V208.636H124.566ZM122.964 207.591H123.634V211.75C123.634 211.939 123.662 212.081 123.717 212.176C123.773 212.269 123.845 212.331 123.933 212.364C124.022 212.394 124.115 212.409 124.214 212.409C124.288 212.409 124.348 212.405 124.396 212.398C124.443 212.388 124.481 212.381 124.509 212.375L124.646 212.977C124.6 212.994 124.537 213.011 124.455 213.028C124.374 213.047 124.271 213.057 124.146 213.057C123.956 213.057 123.771 213.016 123.589 212.935C123.409 212.853 123.259 212.729 123.14 212.562C123.022 212.396 122.964 212.186 122.964 211.932V207.591ZM126.063 213.045C125.923 213.045 125.803 212.995 125.702 212.895C125.602 212.795 125.552 212.674 125.552 212.534C125.552 212.394 125.602 212.274 125.702 212.173C125.803 212.073 125.923 212.023 126.063 212.023C126.203 212.023 126.324 212.073 126.424 212.173C126.524 212.274 126.575 212.394 126.575 212.534C126.575 212.627 126.551 212.712 126.504 212.79C126.458 212.867 126.397 212.93 126.319 212.977C126.243 213.023 126.158 213.045 126.063 213.045ZM128.266 213.045C128.126 213.045 128.006 212.995 127.906 212.895C127.805 212.795 127.755 212.674 127.755 212.534C127.755 212.394 127.805 212.274 127.906 212.173C128.006 212.073 128.126 212.023 128.266 212.023C128.406 212.023 128.527 212.073 128.627 212.173C128.728 212.274 128.778 212.394 128.778 212.534C128.778 212.627 128.754 212.712 128.707 212.79C128.661 212.867 128.6 212.93 128.522 212.977C128.446 213.023 128.361 213.045 128.266 213.045ZM130.469 213.045C130.329 213.045 130.209 212.995 130.109 212.895C130.008 212.795 129.958 212.674 129.958 212.534C129.958 212.394 130.008 212.274 130.109 212.173C130.209 212.073 130.329 212.023 130.469 212.023C130.61 212.023 130.73 212.073 130.83 212.173C130.931 212.274 130.981 212.394 130.981 212.534C130.981 212.627 130.957 212.712 130.91 212.79C130.864 212.867 130.803 212.93 130.725 212.977C130.649 213.023 130.564 213.045 130.469 213.045Z" fill="#333333"/>
<rect x="34" y="167" width="18" height="22" rx="3" fill="#0067AC"/>
<path d="M42.7528 181.128C42.2642 181.126 41.8438 181.006 41.4915 180.767C41.1411 180.528 40.8712 180.183 40.6818 179.73C40.4943 179.277 40.4015 178.733 40.4034 178.097C40.4034 177.462 40.4972 176.921 40.6847 176.474C40.8741 176.027 41.1439 175.687 41.4943 175.455C41.8466 175.22 42.2661 175.102 42.7528 175.102C43.2396 175.102 43.6581 175.22 44.0085 175.455C44.3608 175.689 44.6316 176.03 44.821 176.477C45.0104 176.922 45.1042 177.462 45.1023 178.097C45.1023 178.735 45.0076 179.28 44.8182 179.733C44.6307 180.186 44.3617 180.531 44.0114 180.77C43.661 181.009 43.2415 181.128 42.7528 181.128ZM42.7528 180.108C43.0862 180.108 43.3523 179.94 43.5511 179.605C43.75 179.27 43.8485 178.767 43.8466 178.097C43.8466 177.655 43.8011 177.288 43.7102 176.994C43.6212 176.701 43.4943 176.48 43.3295 176.332C43.1667 176.185 42.9744 176.111 42.7528 176.111C42.4214 176.111 42.1563 176.277 41.9574 176.608C41.7585 176.939 41.6581 177.436 41.6562 178.097C41.6562 178.544 41.7008 178.917 41.7898 179.216C41.8807 179.513 42.0085 179.737 42.1733 179.886C42.3381 180.034 42.5312 180.108 42.7528 180.108Z" fill="white"/>
<rect x="56" y="167" width="18" height="22" rx="3" fill="#0067AC"/>
<path d="M64.6222 181.08C64.1979 181.08 63.8201 181.007 63.4886 180.861C63.1591 180.713 62.8987 180.51 62.7074 180.253C62.518 179.993 62.4205 179.694 62.4148 179.355H63.6534C63.661 179.497 63.7074 179.622 63.7926 179.73C63.8797 179.836 63.9953 179.919 64.1392 179.977C64.2831 180.036 64.4451 180.065 64.625 180.065C64.8125 180.065 64.9782 180.032 65.1222 179.966C65.2661 179.9 65.3788 179.808 65.4602 179.69C65.5417 179.573 65.5824 179.437 65.5824 179.284C65.5824 179.129 65.5388 178.991 65.4517 178.872C65.3665 178.751 65.2434 178.656 65.0824 178.588C64.9233 178.52 64.7339 178.486 64.5142 178.486H63.9716V177.582H64.5142C64.6998 177.582 64.8636 177.55 65.0057 177.486C65.1496 177.421 65.2614 177.332 65.3409 177.219C65.4205 177.103 65.4602 176.969 65.4602 176.815C65.4602 176.67 65.4252 176.542 65.3551 176.432C65.2869 176.32 65.1903 176.233 65.0653 176.17C64.9422 176.108 64.7983 176.077 64.6335 176.077C64.4669 176.077 64.3144 176.107 64.1761 176.168C64.0379 176.226 63.9271 176.311 63.8438 176.42C63.7604 176.53 63.7159 176.659 63.7102 176.807H62.5312C62.5369 176.472 62.6326 176.176 62.8182 175.92C63.0038 175.665 63.2538 175.465 63.5682 175.321C63.8845 175.175 64.2415 175.102 64.6392 175.102C65.0407 175.102 65.392 175.175 65.6932 175.321C65.9943 175.467 66.2282 175.664 66.3949 175.912C66.5634 176.158 66.6468 176.435 66.6449 176.741C66.6468 177.067 66.5455 177.339 66.3409 177.557C66.1383 177.775 65.8741 177.913 65.5483 177.972V178.017C65.9763 178.072 66.3021 178.221 66.5256 178.463C66.7509 178.704 66.8627 179.005 66.8608 179.366C66.8627 179.698 66.767 179.992 66.5739 180.25C66.3826 180.508 66.1184 180.71 65.7812 180.858C65.4441 181.006 65.0578 181.08 64.6222 181.08Z" fill="white"/>
<rect x="78" y="167" width="18" height="22" rx="3" fill="#0067AC"/>
<path d="M86.5966 181.08C86.1951 181.08 85.8371 181.006 85.5227 180.858C85.2102 180.71 84.9621 180.507 84.7784 180.247C84.5947 179.988 84.4991 179.69 84.4915 179.355H85.6847C85.6979 179.58 85.7926 179.763 85.9688 179.903C86.1449 180.044 86.3542 180.114 86.5966 180.114C86.7898 180.114 86.9602 180.071 87.108 179.986C87.2576 179.899 87.3741 179.778 87.4574 179.625C87.5426 179.47 87.5852 179.292 87.5852 179.091C87.5852 178.886 87.5417 178.706 87.4545 178.551C87.3693 178.396 87.2509 178.275 87.0994 178.188C86.9479 178.1 86.7746 178.056 86.5795 178.054C86.4091 178.054 86.2434 178.089 86.0824 178.159C85.9233 178.229 85.7992 178.325 85.7102 178.446L84.6165 178.25L84.892 175.182H88.4489V176.188H85.9062L85.7557 177.645H85.7898C85.892 177.501 86.0464 177.382 86.2528 177.287C86.4593 177.192 86.6903 177.145 86.946 177.145C87.2964 177.145 87.6089 177.227 87.8835 177.392C88.1581 177.557 88.375 177.783 88.5341 178.071C88.6932 178.357 88.7718 178.687 88.7699 179.06C88.7718 179.452 88.6809 179.8 88.4972 180.105C88.3153 180.408 88.0606 180.647 87.733 180.821C87.4072 180.993 87.0284 181.08 86.5966 181.08Z" fill="white"/>
<rect x="100" y="167" width="18" height="22" rx="3" fill="#0067AC"/>
<path d="M108.705 181.08C108.405 181.078 108.116 181.027 107.838 180.929C107.562 180.83 107.313 180.67 107.094 180.449C106.874 180.227 106.7 179.934 106.571 179.568C106.444 179.203 106.381 178.754 106.381 178.222C106.383 177.733 106.438 177.296 106.548 176.912C106.66 176.526 106.819 176.198 107.026 175.929C107.234 175.66 107.483 175.455 107.773 175.315C108.063 175.173 108.387 175.102 108.747 175.102C109.135 175.102 109.478 175.178 109.776 175.33C110.073 175.479 110.312 175.683 110.491 175.94C110.673 176.198 110.783 176.487 110.821 176.807H109.608C109.561 176.604 109.461 176.445 109.31 176.33C109.158 176.214 108.971 176.156 108.747 176.156C108.368 176.156 108.08 176.321 107.884 176.651C107.688 176.98 107.589 177.428 107.585 177.994H107.625C107.712 177.822 107.83 177.675 107.977 177.554C108.127 177.431 108.296 177.337 108.486 177.273C108.677 177.206 108.879 177.173 109.091 177.173C109.436 177.173 109.742 177.255 110.011 177.418C110.28 177.579 110.492 177.8 110.648 178.082C110.803 178.365 110.881 178.687 110.881 179.051C110.881 179.445 110.789 179.795 110.605 180.102C110.423 180.409 110.169 180.65 109.841 180.824C109.515 180.996 109.136 181.081 108.705 181.08ZM108.699 180.114C108.888 180.114 109.058 180.068 109.207 179.977C109.357 179.886 109.474 179.763 109.56 179.608C109.645 179.453 109.688 179.278 109.688 179.085C109.688 178.892 109.645 178.719 109.56 178.565C109.476 178.412 109.361 178.29 109.213 178.199C109.065 178.108 108.897 178.062 108.707 178.062C108.565 178.062 108.434 178.089 108.312 178.142C108.193 178.195 108.088 178.269 107.997 178.364C107.908 178.458 107.838 178.568 107.787 178.693C107.736 178.816 107.71 178.948 107.71 179.088C107.71 179.276 107.753 179.447 107.838 179.602C107.925 179.758 108.043 179.882 108.19 179.974C108.34 180.067 108.509 180.114 108.699 180.114Z" fill="white"/>
<rect x="122" y="167" width="18" height="22" rx="3" fill="#0067AC"/>
<path d="M129.702 181L132.114 176.227V176.188H129.304V175.182H133.386V176.202L130.972 181H129.702Z" fill="white"/>
<rect x="144" y="167" width="18" height="22" rx="3" fill="#0067AC"/>
<path d="M152.577 175.102C152.876 175.102 153.164 175.152 153.44 175.253C153.719 175.353 153.967 175.513 154.185 175.733C154.404 175.953 154.578 176.244 154.705 176.608C154.833 176.97 154.899 177.414 154.901 177.94C154.901 178.435 154.845 178.876 154.733 179.264C154.623 179.651 154.465 179.979 154.259 180.25C154.052 180.521 153.803 180.727 153.511 180.869C153.22 181.009 152.894 181.08 152.534 181.08C152.146 181.08 151.803 181.005 151.506 180.855C151.208 180.704 150.969 180.498 150.787 180.239C150.607 179.977 150.498 179.684 150.46 179.358H151.673C151.721 179.57 151.82 179.735 151.972 179.852C152.123 179.968 152.311 180.026 152.534 180.026C152.913 180.026 153.201 179.861 153.398 179.531C153.595 179.2 153.694 178.746 153.696 178.17H153.656C153.569 178.341 153.452 178.488 153.304 178.611C153.156 178.732 152.987 178.826 152.795 178.892C152.606 178.958 152.404 178.991 152.19 178.991C151.848 178.991 151.542 178.911 151.273 178.75C151.004 178.589 150.792 178.367 150.636 178.085C150.481 177.803 150.403 177.481 150.403 177.119C150.402 176.729 150.491 176.382 150.673 176.077C150.855 175.772 151.109 175.533 151.435 175.361C151.762 175.187 152.143 175.1 152.577 175.102ZM152.585 176.068C152.394 176.068 152.223 176.114 152.074 176.205C151.926 176.295 151.809 176.418 151.722 176.571C151.636 176.724 151.595 176.896 151.597 177.085C151.597 177.277 151.638 177.449 151.722 177.602C151.807 177.754 151.922 177.875 152.068 177.966C152.216 178.055 152.384 178.099 152.574 178.099C152.716 178.099 152.848 178.073 152.969 178.02C153.09 177.967 153.195 177.894 153.284 177.801C153.375 177.706 153.446 177.598 153.497 177.474C153.548 177.351 153.574 177.221 153.574 177.082C153.572 176.899 153.528 176.73 153.443 176.577C153.358 176.423 153.241 176.3 153.091 176.207C152.941 176.115 152.773 176.068 152.585 176.068Z" fill="white"/>
<defs>
<filter id="filter0_d_1862_39520" x="0" y="0" width="196" height="279" filterUnits="userSpaceOnUse" color-interpolation-filters="sRGB">
<feFlood flood-opacity="0" result="BackgroundImageFix"/>
<feColorMatrix in="SourceAlpha" type="matrix" values="0 0 0 0 0 0 0 0 0 0 0 0 0 0 0 0 0 0 127 0" result="hardAlpha"/>
<feOffset dy="-32"/>
<feGaussianBlur stdDeviation="12"/>
<feComposite in2="hardAlpha" operator="out"/>
<feColorMatrix type="matrix" values="0 0 0 0 0 0 0 0 0 0 0 0 0 0 0 0 0 0 0.08 0"/>
<feBlend mode="normal" in2="BackgroundImageFix" result="effect1_dropShadow_1862_39520"/>
<feBlend mode="normal" in="SourceGraphic" in2="effect1_dropShadow_1862_39520" result="shape"/>
</filter>
<linearGradient id="paint0_linear_1862_39520" x1="98" y1="9" x2="98" y2="85" gradientUnits="userSpaceOnUse">
<stop stop-color="#0067AC"/>
<stop offset="0.9997" stop-color="#08B2E6"/>
<stop offset="0.9998" stop-color="#53D7FF"/>
<stop offset="0.9999" stop-color="#32BCE4"/>
<stop offset="1" stop-color="#32C6F1"/>
</linearGradient>
<linearGradient id="paint1_linear_1862_39520" x1="98" y1="9" x2="98" y2="85" gradientUnits="userSpaceOnUse">
<stop stop-color="#0067AC"/>
<stop offset="0.9997" stop-color="#08B2E6"/>
<stop offset="0.9998" stop-color="#53D7FF"/>
<stop offset="0.9999" stop-color="#32BCE4"/>
<stop offset="1" stop-color="#32C6F1"/>
</linearGradient>
</defs>
</svg>
