<svg width="412" height="285" viewBox="0 0 412 285" fill="none" xmlns="http://www.w3.org/2000/svg">
<path d="M399 0.75H13C6.23451 0.75 0.75 6.23451 0.75 13V272C0.75 278.766 6.2345 284.25 13 284.25H399C405.766 284.25 411.25 278.766 411.25 272V13C411.25 6.23451 405.766 0.75 399 0.75Z" fill="white" stroke="#EBEBEB" stroke-width="0.5" stroke-linecap="square"/>
<path d="M77.3576 239.447C75.6474 239.441 74.1758 239.02 72.9428 238.185C71.7165 237.349 70.7719 236.14 70.109 234.555C69.4528 232.971 69.128 231.065 69.1346 228.838C69.1346 226.617 69.4627 224.725 70.119 223.161C70.7818 221.596 71.7264 220.406 72.9528 219.591C74.1857 218.769 75.654 218.358 77.3576 218.358C79.0612 218.358 80.5262 218.769 81.7525 219.591C82.9854 220.413 83.9334 221.606 84.5962 223.17C85.2591 224.728 85.5872 226.617 85.5806 228.838C85.5806 231.072 85.2492 232.981 84.5863 234.565C83.93 236.15 82.9888 237.359 81.7624 238.195C80.5361 239.03 79.0678 239.447 77.3576 239.447ZM77.3576 235.878C78.5243 235.878 79.4556 235.291 80.1516 234.118C80.8477 232.945 81.1924 231.185 81.1857 228.838C81.1857 227.294 81.0266 226.008 80.7085 224.98C80.3969 223.953 79.9528 223.18 79.3761 222.663C78.806 222.146 78.1332 221.888 77.3576 221.888C76.1976 221.888 75.2695 222.468 74.5735 223.628C73.8775 224.788 73.5262 226.525 73.5195 228.838C73.5195 230.402 73.6753 231.708 73.9869 232.756C74.305 233.796 74.7525 234.579 75.3292 235.102C75.9059 235.619 76.582 235.878 77.3576 235.878Z" fill="#333333"/>
<g clip-path="url(#clip0_310_2351)">
<path d="M67.5267 160.38C66.52 158.646 65.96 156.62 66.02 154.46C66.18 148.26 71.3333 143.366 77.5267 143.526C83.72 143.686 88.62 148.84 88.46 155.033C88.4 157.393 87.6133 159.56 86.3267 161.34C86.14 161.593 85.9467 161.84 85.7467 162.073" stroke="#0067AC" stroke-width="1.5" stroke-linecap="round" stroke-linejoin="round"/>
<path d="M74.3204 170.746L81.2271 170.926C82.5271 170.96 83.6271 169.94 83.6604 168.66C83.6937 167.38 82.6604 166.3 81.3537 166.266L66.7071 165.72L58.4004 170.24" stroke="#999999" stroke-width="1.5" stroke-linecap="round" stroke-linejoin="round"/>
<path d="M81.6267 172.16L92.3934 169.673C93.6134 169.227 94.9867 169.84 95.4401 171.04C95.9001 172.24 95.2734 173.593 94.0534 174.04L80.1867 179.24L68.0667 177.58L61.8867 180.66" stroke="#999999" stroke-width="1.5" stroke-linecap="round" stroke-linejoin="round"/>
<path d="M77.1465 149.52V159.966" stroke="#0067AC" stroke-width="1.5" stroke-linecap="round" stroke-linejoin="round"/>
<path d="M80.44 156.933L77.1667 160.206L74.04 157.079" stroke="#0067AC" stroke-width="1.5" stroke-linecap="round" stroke-linejoin="round"/>
</g>
<path d="M43.6882 114V103.818H46.9744C47.697 103.818 48.3002 103.949 48.7841 104.211C49.2713 104.469 49.6375 104.829 49.8828 105.29C50.1314 105.747 50.2557 106.272 50.2557 106.866C50.2557 107.459 50.1314 107.983 49.8828 108.437C49.6375 108.891 49.273 109.246 48.7891 109.501C48.3052 109.756 47.7053 109.884 46.9893 109.884H44.1903V109.033H46.9645C47.4948 109.033 47.9356 108.946 48.2869 108.77C48.6416 108.594 48.9051 108.344 49.0774 108.019C49.2531 107.694 49.3409 107.31 49.3409 106.866C49.3409 106.422 49.2531 106.034 49.0774 105.702C48.9018 105.368 48.6366 105.109 48.282 104.927C47.9306 104.745 47.4865 104.653 46.9496 104.653H44.6179V114H43.6882ZM48.1776 109.406L50.6832 114H49.6094L47.1286 109.406H48.1776ZM55.3416 114.159C54.629 114.159 54.0125 113.993 53.4922 113.662C52.9718 113.327 52.5691 112.865 52.2841 112.275C52.0024 111.682 51.8615 110.999 51.8615 110.227C51.8615 109.458 52.0024 108.775 52.2841 108.178C52.5691 107.578 52.9619 107.109 53.4624 106.771C53.9661 106.43 54.5478 106.259 55.2074 106.259C55.6217 106.259 56.0211 106.335 56.4055 106.488C56.79 106.637 57.1347 106.867 57.4396 107.179C57.7479 107.487 57.9915 107.877 58.1705 108.347C58.3494 108.815 58.4389 109.368 58.4389 110.008V110.445H52.473V109.665H57.5341C57.5341 109.174 57.4347 108.733 57.2358 108.342C57.0402 107.948 56.7668 107.636 56.4155 107.408C56.0675 107.179 55.6648 107.065 55.2074 107.065C54.7235 107.065 54.2976 107.194 53.9297 107.452C53.5618 107.711 53.2734 108.052 53.0646 108.477C52.8591 108.901 52.7547 109.365 52.7514 109.869V110.336C52.7514 110.942 52.8558 111.473 53.0646 111.927C53.2768 112.378 53.5767 112.727 53.9645 112.976C54.3523 113.224 54.8113 113.349 55.3416 113.349C55.7029 113.349 56.0194 113.292 56.2912 113.18C56.5663 113.067 56.7966 112.916 56.9822 112.727C57.1712 112.535 57.3137 112.325 57.4098 112.096L58.25 112.369C58.134 112.691 57.9434 112.987 57.6783 113.259C57.4164 113.531 57.0883 113.75 56.6939 113.915C56.3028 114.078 55.852 114.159 55.3416 114.159ZM65.5645 116.864V112.583H65.4849C65.3822 112.815 65.2363 113.054 65.0474 113.299C64.8585 113.541 64.6083 113.745 64.2967 113.911C63.9851 114.076 63.599 114.159 63.1383 114.159C62.5152 114.159 61.9667 113.993 61.4927 113.662C61.0221 113.33 60.6542 112.868 60.389 112.275C60.1272 111.682 59.9963 110.991 59.9963 110.202C59.9963 109.416 60.1272 108.728 60.389 108.138C60.6542 107.545 61.0237 107.085 61.4977 106.756C61.9717 106.425 62.5235 106.259 63.1532 106.259C63.6206 106.259 64.0067 106.342 64.3116 106.508C64.6199 106.674 64.8668 106.877 65.0524 107.119C65.238 107.358 65.3822 107.592 65.4849 107.82H65.5893V106.364H66.4544V116.864H65.5645ZM63.2427 113.349C63.7366 113.349 64.1575 113.214 64.5055 112.946C64.8535 112.674 65.1187 112.301 65.301 111.827C65.4866 111.35 65.5794 110.803 65.5794 110.187C65.5794 109.577 65.4882 109.038 65.3059 108.571C65.1236 108.1 64.8585 107.732 64.5105 107.467C64.1658 107.199 63.7432 107.065 63.2427 107.065C62.7323 107.065 62.3014 107.204 61.9501 107.482C61.5988 107.757 61.3336 108.13 61.1547 108.601C60.9757 109.071 60.8862 109.6 60.8862 110.187C60.8862 110.78 60.9773 111.315 61.1596 111.793C61.3419 112.27 61.6087 112.649 61.96 112.931C62.3114 113.21 62.7389 113.349 63.2427 113.349ZM73.6358 111.082V106.364H74.5208V114H73.6358V112.732H73.5662C73.3873 113.123 73.1039 113.45 72.7161 113.712C72.3283 113.97 71.8543 114.099 71.2942 114.099C70.807 114.099 70.3745 113.993 69.9966 113.781C69.6188 113.566 69.3221 113.251 69.1067 112.837C68.8913 112.422 68.7836 111.914 68.7836 111.31V106.364H69.6685V111.256C69.6685 111.852 69.8442 112.333 70.1955 112.697C70.5468 113.059 70.9976 113.239 71.5478 113.239C71.8925 113.239 72.2239 113.156 72.5421 112.991C72.8603 112.825 73.1221 112.583 73.3276 112.265C73.5331 111.943 73.6358 111.549 73.6358 111.082ZM79.951 114.159C79.2384 114.159 78.6219 113.993 78.1016 113.662C77.5812 113.327 77.1785 112.865 76.8935 112.275C76.6117 111.682 76.4709 110.999 76.4709 110.227C76.4709 109.458 76.6117 108.775 76.8935 108.178C77.1785 107.578 77.5713 107.109 78.0717 106.771C78.5755 106.43 79.1572 106.259 79.8168 106.259C80.2311 106.259 80.6304 106.335 81.0149 106.488C81.3994 106.637 81.7441 106.867 82.049 107.179C82.3572 107.487 82.6009 107.877 82.7798 108.347C82.9588 108.815 83.0483 109.368 83.0483 110.008V110.445H77.0824V109.665H82.1435C82.1435 109.174 82.044 108.733 81.8452 108.342C81.6496 107.948 81.3762 107.636 81.0249 107.408C80.6768 107.179 80.2741 107.065 79.8168 107.065C79.3329 107.065 78.907 107.194 78.5391 107.452C78.1712 107.711 77.8828 108.052 77.674 108.477C77.4685 108.901 77.3641 109.365 77.3608 109.869V110.336C77.3608 110.942 77.4652 111.473 77.674 111.927C77.8861 112.378 78.1861 112.727 78.5739 112.976C78.9616 113.224 79.4207 113.349 79.951 113.349C80.3123 113.349 80.6288 113.292 80.9006 113.18C81.1757 113.067 81.406 112.916 81.5916 112.727C81.7805 112.535 81.9231 112.325 82.0192 112.096L82.8594 112.369C82.7434 112.691 82.5528 112.987 82.2876 113.259C82.0258 113.531 81.6977 113.75 81.3033 113.915C80.9122 114.078 80.4614 114.159 79.951 114.159ZM90.1291 108.039L89.3187 108.268C89.2392 108.039 89.1265 107.832 88.9806 107.646C88.8348 107.461 88.6442 107.313 88.4089 107.204C88.1769 107.094 87.8886 107.04 87.5439 107.04C87.0268 107.04 86.6026 107.162 86.2711 107.408C85.9397 107.653 85.774 107.969 85.774 108.357C85.774 108.685 85.8867 108.952 86.112 109.158C86.3407 109.36 86.6921 109.521 87.166 109.64L88.3194 109.923C88.9591 110.079 89.438 110.326 89.7562 110.664C90.0777 111.002 90.2385 111.426 90.2385 111.937C90.2385 112.368 90.1191 112.75 89.8805 113.085C89.6419 113.42 89.3088 113.683 88.8812 113.876C88.457 114.065 87.9648 114.159 87.4047 114.159C86.6589 114.159 86.0441 113.992 85.5602 113.657C85.0763 113.319 84.7664 112.832 84.6305 112.195L85.4806 111.987C85.59 112.441 85.8038 112.784 86.122 113.016C86.4435 113.248 86.8661 113.364 87.3897 113.364C87.9764 113.364 88.4454 113.233 88.7967 112.971C89.148 112.706 89.3237 112.374 89.3237 111.977C89.3237 111.668 89.2209 111.41 89.0154 111.201C88.81 110.989 88.4984 110.833 88.0808 110.734L86.8329 110.435C86.17 110.276 85.6795 110.024 85.3613 109.68C85.0431 109.335 84.8841 108.907 84.8841 108.397C84.8841 107.976 84.9984 107.607 85.2271 107.288C85.4558 106.967 85.7707 106.715 86.1717 106.533C86.5727 106.35 87.0301 106.259 87.5439 106.259C88.2432 106.259 88.8017 106.418 89.2193 106.737C89.6402 107.051 89.9435 107.486 90.1291 108.039ZM95.1839 106.364V107.134H91.5398V106.364H95.1839ZM92.6783 104.534H93.5682V112.006C93.5682 112.325 93.6229 112.575 93.7322 112.757C93.8416 112.936 93.9841 113.064 94.1598 113.14C94.3355 113.213 94.5227 113.249 94.7216 113.249C94.8376 113.249 94.937 113.243 95.0199 113.229C95.1027 113.213 95.1757 113.196 95.2386 113.18L95.4276 113.98C95.3414 114.013 95.2353 114.043 95.1094 114.07C94.9834 114.099 94.8277 114.114 94.642 114.114C94.3172 114.114 94.004 114.043 93.7024 113.901C93.4041 113.758 93.1589 113.546 92.9666 113.264C92.7744 112.982 92.6783 112.633 92.6783 112.215V104.534ZM100.199 114.159C99.4864 114.159 98.87 113.993 98.3496 113.662C97.8292 113.327 97.4266 112.865 97.1415 112.275C96.8598 111.682 96.7189 110.999 96.7189 110.227C96.7189 109.458 96.8598 108.775 97.1415 108.178C97.4266 107.578 97.8193 107.109 98.3198 106.771C98.8236 106.43 99.4052 106.259 100.065 106.259C100.479 106.259 100.878 106.335 101.263 106.488C101.647 106.637 101.992 106.867 102.297 107.179C102.605 107.487 102.849 107.877 103.028 108.347C103.207 108.815 103.296 109.368 103.296 110.008V110.445H97.3304V109.665H102.392C102.392 109.174 102.292 108.733 102.093 108.342C101.898 107.948 101.624 107.636 101.273 107.408C100.925 107.179 100.522 107.065 100.065 107.065C99.5809 107.065 99.155 107.194 98.7871 107.452C98.4192 107.711 98.1309 108.052 97.9221 108.477C97.7166 108.901 97.6122 109.365 97.6088 109.869V110.336C97.6088 110.942 97.7132 111.473 97.9221 111.927C98.1342 112.378 98.4341 112.727 98.8219 112.976C99.2097 113.224 99.6687 113.349 100.199 113.349C100.56 113.349 100.877 113.292 101.149 113.18C101.424 113.067 101.654 112.916 101.84 112.727C102.029 112.535 102.171 112.325 102.267 112.096L103.107 112.369C102.991 112.691 102.801 112.987 102.536 113.259C102.274 113.531 101.946 113.75 101.551 113.915C101.16 114.078 100.709 114.159 100.199 114.159ZM107.996 114.159C107.369 114.159 106.821 113.993 106.35 113.662C105.879 113.33 105.512 112.868 105.246 112.275C104.985 111.682 104.854 110.991 104.854 110.202C104.854 109.416 104.985 108.728 105.246 108.138C105.512 107.545 105.881 107.085 106.355 106.756C106.829 106.425 107.381 106.259 108.011 106.259C108.475 106.259 108.861 106.342 109.169 106.508C109.477 106.67 109.724 106.872 109.91 107.114C110.095 107.356 110.24 107.592 110.342 107.82H110.422V103.818H111.312V114H110.447V112.583H110.342C110.24 112.815 110.094 113.054 109.905 113.299C109.716 113.541 109.466 113.745 109.154 113.911C108.846 114.076 108.46 114.159 107.996 114.159ZM108.1 113.349C108.594 113.349 109.015 113.214 109.363 112.946C109.711 112.674 109.976 112.301 110.158 111.827C110.344 111.35 110.437 110.803 110.437 110.187C110.437 109.577 110.346 109.038 110.163 108.571C109.981 108.1 109.716 107.732 109.368 107.467C109.02 107.199 108.597 107.065 108.1 107.065C107.59 107.065 107.159 107.204 106.808 107.482C106.46 107.757 106.194 108.13 106.012 108.601C105.833 109.071 105.744 109.6 105.744 110.187C105.744 110.78 105.835 111.315 106.017 111.793C106.199 112.27 106.464 112.649 106.812 112.931C107.164 113.21 107.593 113.349 108.1 113.349Z" fill="#333333"/>
<path d="M169.358 239.447C167.647 239.441 166.176 239.02 164.943 238.185C163.717 237.349 162.772 236.14 162.109 234.555C161.453 232.971 161.128 231.065 161.135 228.838C161.135 226.617 161.463 224.725 162.119 223.161C162.782 221.596 163.726 220.406 164.953 219.591C166.186 218.769 167.654 218.358 169.358 218.358C171.061 218.358 172.526 218.769 173.752 219.591C174.985 220.413 175.933 221.606 176.596 223.17C177.259 224.728 177.587 226.617 177.581 228.838C177.581 231.072 177.249 232.981 176.586 234.565C175.93 236.15 174.989 237.359 173.762 238.195C172.536 239.03 171.068 239.447 169.358 239.447ZM169.358 235.878C170.524 235.878 171.456 235.291 172.152 234.118C172.848 232.945 173.192 231.185 173.186 228.838C173.186 227.294 173.027 226.008 172.708 224.98C172.397 223.953 171.953 223.18 171.376 222.663C170.806 222.146 170.133 221.888 169.358 221.888C168.198 221.888 167.27 222.468 166.574 223.628C165.877 224.788 165.526 226.525 165.52 228.838C165.52 230.402 165.675 231.708 165.987 232.756C166.305 233.796 166.752 234.579 167.329 235.102C167.906 235.619 168.582 235.878 169.358 235.878Z" fill="#1D8CFC"/>
<g clip-path="url(#clip1_310_2351)">
<path d="M157.84 153.44H167.567" stroke="#999999" stroke-width="1.5" stroke-linecap="round" stroke-linejoin="round"/>
<path d="M157.84 158.107H164.513" stroke="#999999" stroke-width="1.5" stroke-linecap="round" stroke-linejoin="round"/>
<path d="M177.6 156.16V150.774C177.6 148.507 175.806 146.667 173.6 146.667H157.6C155.393 146.667 153.6 148.507 153.6 150.774V173.234C153.6 175.5 155.393 177.34 157.6 177.34H172.253" stroke="#999999" stroke-width="1.5" stroke-linecap="round" stroke-linejoin="round"/>
<path d="M175.826 174.433C180.846 175.253 185.12 170.98 184.3 165.96C183.8 162.92 181.353 160.467 178.313 159.973C173.293 159.153 169.02 163.427 169.84 168.447C170.34 171.487 172.786 173.94 175.826 174.433Z" stroke="#0067AC" stroke-width="1.5" stroke-linecap="round" stroke-linejoin="round"/>
<path d="M180.76 164.867L176.093 169.534L173.373 166.807" stroke="#0067AC" stroke-width="1.5" stroke-linecap="round" stroke-linejoin="round"/>
</g>
<path d="M139.456 114H138.482L142.185 103.818H143.18L146.884 114H145.909L142.717 105.026H142.648L139.456 114ZM140.157 110.097H145.208V110.933H140.157V110.097ZM148.445 116.864V106.364H149.305V107.82H149.409C149.515 107.592 149.661 107.358 149.847 107.119C150.032 106.877 150.278 106.674 150.582 106.508C150.891 106.342 151.278 106.259 151.746 106.259C152.376 106.259 152.926 106.425 153.396 106.756C153.87 107.085 154.238 107.545 154.5 108.138C154.765 108.728 154.898 109.416 154.898 110.202C154.898 110.991 154.765 111.682 154.5 112.275C154.238 112.868 153.87 113.33 153.396 113.662C152.926 113.993 152.379 114.159 151.756 114.159C151.295 114.159 150.909 114.076 150.597 113.911C150.289 113.745 150.039 113.541 149.847 113.299C149.658 113.054 149.512 112.815 149.409 112.583H149.33V116.864H148.445ZM149.32 110.187C149.32 110.803 149.411 111.35 149.593 111.827C149.779 112.301 150.044 112.674 150.389 112.946C150.737 113.214 151.158 113.349 151.651 113.349C152.158 113.349 152.586 113.21 152.934 112.931C153.285 112.649 153.552 112.27 153.734 111.793C153.92 111.315 154.013 110.78 154.013 110.187C154.013 109.6 153.922 109.071 153.739 108.601C153.56 108.13 153.295 107.757 152.944 107.482C152.593 107.204 152.162 107.065 151.651 107.065C151.154 107.065 150.732 107.199 150.384 107.467C150.036 107.732 149.77 108.1 149.588 108.571C149.409 109.038 149.32 109.577 149.32 110.187ZM156.839 116.864V106.364H157.699V107.82H157.804C157.91 107.592 158.056 107.358 158.241 107.119C158.427 106.877 158.672 106.674 158.977 106.508C159.285 106.342 159.673 106.259 160.14 106.259C160.77 106.259 161.32 106.425 161.791 106.756C162.265 107.085 162.633 107.545 162.895 108.138C163.16 108.728 163.292 109.416 163.292 110.202C163.292 110.991 163.16 111.682 162.895 112.275C162.633 112.868 162.265 113.33 161.791 113.662C161.32 113.993 160.773 114.159 160.15 114.159C159.69 114.159 159.303 114.076 158.992 113.911C158.684 113.745 158.433 113.541 158.241 113.299C158.052 113.054 157.906 112.815 157.804 112.583H157.724V116.864H156.839ZM157.714 110.187C157.714 110.803 157.805 111.35 157.988 111.827C158.173 112.301 158.438 112.674 158.783 112.946C159.131 113.214 159.552 113.349 160.046 113.349C160.553 113.349 160.981 113.21 161.329 112.931C161.68 112.649 161.947 112.27 162.129 111.793C162.315 111.315 162.407 110.78 162.407 110.187C162.407 109.6 162.316 109.071 162.134 108.601C161.955 108.13 161.69 107.757 161.339 107.482C160.987 107.204 160.556 107.065 160.046 107.065C159.549 107.065 159.126 107.199 158.778 107.467C158.43 107.732 158.165 108.1 157.983 108.571C157.804 109.038 157.714 109.577 157.714 110.187ZM165.234 114V106.364H166.094V107.537H166.158C166.311 107.152 166.576 106.843 166.954 106.607C167.335 106.369 167.766 106.249 168.247 106.249C168.319 106.249 168.401 106.251 168.49 106.254C168.58 106.258 168.654 106.261 168.714 106.264V107.164C168.674 107.157 168.604 107.147 168.505 107.134C168.406 107.121 168.298 107.114 168.182 107.114C167.784 107.114 167.43 107.199 167.118 107.368C166.81 107.534 166.566 107.764 166.387 108.059C166.208 108.354 166.119 108.69 166.119 109.068V114H165.234ZM172.96 114.159C172.3 114.159 171.717 113.992 171.21 113.657C170.706 113.322 170.311 112.86 170.026 112.27C169.741 111.677 169.599 110.992 169.599 110.217C169.599 109.434 169.741 108.747 170.026 108.153C170.311 107.557 170.706 107.093 171.21 106.761C171.717 106.427 172.3 106.259 172.96 106.259C173.619 106.259 174.201 106.427 174.705 106.761C175.208 107.096 175.603 107.56 175.888 108.153C176.176 108.747 176.32 109.434 176.32 110.217C176.32 110.992 176.178 111.677 175.893 112.27C175.608 112.86 175.212 113.322 174.705 113.657C174.201 113.992 173.619 114.159 172.96 114.159ZM172.96 113.349C173.49 113.349 173.939 113.206 174.307 112.921C174.675 112.636 174.953 112.257 175.142 111.783C175.334 111.309 175.43 110.787 175.43 110.217C175.43 109.647 175.334 109.123 175.142 108.646C174.953 108.168 174.675 107.786 174.307 107.497C173.939 107.209 173.49 107.065 172.96 107.065C172.433 107.065 171.984 107.209 171.612 107.497C171.244 107.786 170.964 108.168 170.772 108.646C170.583 109.123 170.489 109.647 170.489 110.217C170.489 110.787 170.583 111.309 170.772 111.783C170.964 112.257 171.244 112.636 171.612 112.921C171.98 113.206 172.429 113.349 172.96 113.349ZM183.901 106.364L181.112 114H180.167L177.378 106.364H178.338L180.605 112.832H180.674L182.941 106.364H183.901ZM188.446 114.159C187.734 114.159 187.117 113.993 186.597 113.662C186.076 113.327 185.674 112.865 185.389 112.275C185.107 111.682 184.966 110.999 184.966 110.227C184.966 109.458 185.107 108.775 185.389 108.178C185.674 107.578 186.066 107.109 186.567 106.771C187.071 106.43 187.652 106.259 188.312 106.259C188.726 106.259 189.126 106.335 189.51 106.488C189.895 106.637 190.239 106.867 190.544 107.179C190.852 107.487 191.096 107.877 191.275 108.347C191.454 108.815 191.543 109.368 191.543 110.008V110.445H185.578V109.665H190.639C190.639 109.174 190.539 108.733 190.34 108.342C190.145 107.948 189.871 107.636 189.52 107.408C189.172 107.179 188.769 107.065 188.312 107.065C187.828 107.065 187.402 107.194 187.034 107.452C186.666 107.711 186.378 108.052 186.169 108.477C185.964 108.901 185.859 109.365 185.856 109.869V110.336C185.856 110.942 185.96 111.473 186.169 111.927C186.381 112.378 186.681 112.727 187.069 112.976C187.457 113.224 187.916 113.349 188.446 113.349C188.807 113.349 189.124 113.292 189.396 113.18C189.671 113.067 189.901 112.916 190.087 112.727C190.276 112.535 190.418 112.325 190.514 112.096L191.354 112.369C191.238 112.691 191.048 112.987 190.783 113.259C190.521 113.531 190.193 113.75 189.798 113.915C189.407 114.078 188.957 114.159 188.446 114.159ZM196.243 114.159C195.616 114.159 195.068 113.993 194.597 113.662C194.127 113.33 193.759 112.868 193.494 112.275C193.232 111.682 193.101 110.991 193.101 110.202C193.101 109.416 193.232 108.728 193.494 108.138C193.759 107.545 194.128 107.085 194.602 106.756C195.076 106.425 195.628 106.259 196.258 106.259C196.722 106.259 197.108 106.342 197.416 106.508C197.724 106.67 197.971 106.872 198.157 107.114C198.342 107.356 198.487 107.592 198.589 107.82H198.669V103.818H199.559V114H198.694V112.583H198.589C198.487 112.815 198.341 113.054 198.152 113.299C197.963 113.541 197.713 113.745 197.401 113.911C197.093 114.076 196.707 114.159 196.243 114.159ZM196.347 113.349C196.841 113.349 197.262 113.214 197.61 112.946C197.958 112.674 198.223 112.301 198.405 111.827C198.591 111.35 198.684 110.803 198.684 110.187C198.684 109.577 198.593 109.038 198.41 108.571C198.228 108.1 197.963 107.732 197.615 107.467C197.267 107.199 196.844 107.065 196.347 107.065C195.837 107.065 195.406 107.204 195.055 107.482C194.707 107.757 194.441 108.13 194.259 108.601C194.08 109.071 193.991 109.6 193.991 110.187C193.991 110.78 194.082 111.315 194.264 111.793C194.446 112.27 194.712 112.649 195.06 112.931C195.411 113.21 195.84 113.349 196.347 113.349Z" fill="#333333"/>
<path d="M255.358 239.447C253.647 239.441 252.176 239.02 250.943 238.185C249.717 237.349 248.772 236.14 248.109 234.555C247.453 232.971 247.128 231.065 247.135 228.838C247.135 226.617 247.463 224.725 248.119 223.161C248.782 221.596 249.726 220.406 250.953 219.591C252.186 218.769 253.654 218.358 255.358 218.358C257.061 218.358 258.526 218.769 259.752 219.591C260.985 220.413 261.933 221.606 262.596 223.17C263.259 224.728 263.587 226.617 263.581 228.838C263.581 231.072 263.249 232.981 262.586 234.565C261.93 236.15 260.989 237.359 259.762 238.195C258.536 239.03 257.068 239.447 255.358 239.447ZM255.358 235.878C256.524 235.878 257.456 235.291 258.152 234.118C258.848 232.945 259.192 231.185 259.186 228.838C259.186 227.294 259.027 226.008 258.708 224.98C258.397 223.953 257.953 223.18 257.376 222.663C256.806 222.146 256.133 221.888 255.358 221.888C254.198 221.888 253.27 222.468 252.574 223.628C251.877 224.788 251.526 226.525 251.52 228.838C251.52 230.402 251.675 231.708 251.987 232.756C252.305 233.796 252.752 234.579 253.329 235.102C253.906 235.619 254.582 235.878 255.358 235.878Z" fill="#FF3D00"/>
<g clip-path="url(#clip2_310_2351)">
<path d="M243.84 153.44H253.567" stroke="#999999" stroke-width="1.5" stroke-linecap="round" stroke-linejoin="round"/>
<path d="M243.84 158.107H250.513" stroke="#999999" stroke-width="1.5" stroke-linecap="round" stroke-linejoin="round"/>
<path d="M263.6 156.16V150.774C263.6 148.507 261.806 146.667 259.6 146.667H243.6C241.393 146.667 239.6 148.507 239.6 150.774V173.234C239.6 175.5 241.393 177.34 243.6 177.34H258.253" stroke="#999999" stroke-width="1.5" stroke-linecap="round" stroke-linejoin="round"/>
<path d="M263.067 174.533C267.12 174.533 270.4 171.253 270.4 167.2C270.4 163.146 267.12 159.866 263.067 159.866C259.013 159.866 255.733 163.146 255.733 167.2C255.733 171.253 259.013 174.533 263.067 174.533Z" stroke="#0067AC" stroke-width="1.5" stroke-linecap="round" stroke-linejoin="round"/>
<path d="M260.446 169.82L265.686 164.58" stroke="#0067AC" stroke-width="2" stroke-linecap="round" stroke-linejoin="round"/>
<path d="M260.446 164.58L265.686 169.82" stroke="#0067AC" stroke-width="2" stroke-linecap="round" stroke-linejoin="round"/>
</g>
<path d="M230.699 114H227.717V103.818H230.878C231.85 103.818 232.68 104.02 233.369 104.425C234.062 104.829 234.592 105.409 234.96 106.165C235.328 106.92 235.512 107.827 235.512 108.884C235.512 109.951 235.323 110.868 234.945 111.634C234.571 112.396 234.024 112.981 233.305 113.388C232.589 113.796 231.72 114 230.699 114ZM228.646 113.165H230.645C231.52 113.165 232.252 112.992 232.842 112.648C233.432 112.303 233.875 111.811 234.17 111.171C234.465 110.531 234.612 109.769 234.612 108.884C234.609 108.006 234.463 107.25 234.175 106.617C233.89 105.984 233.465 105.499 232.902 105.161C232.342 104.822 231.649 104.653 230.824 104.653H228.646V113.165ZM240.669 114.159C239.956 114.159 239.34 113.993 238.819 113.662C238.299 113.327 237.896 112.865 237.611 112.275C237.33 111.682 237.189 110.999 237.189 110.227C237.189 109.458 237.33 108.775 237.611 108.178C237.896 107.578 238.289 107.109 238.79 106.771C239.293 106.43 239.875 106.259 240.535 106.259C240.949 106.259 241.348 106.335 241.733 106.488C242.117 106.637 242.462 106.867 242.767 107.179C243.075 107.487 243.319 107.877 243.498 108.347C243.677 108.815 243.766 109.368 243.766 110.008V110.445H237.8V109.665H242.861C242.861 109.174 242.762 108.733 242.563 108.342C242.367 107.948 242.094 107.636 241.743 107.408C241.395 107.179 240.992 107.065 240.535 107.065C240.051 107.065 239.625 107.194 239.257 107.452C238.889 107.711 238.601 108.052 238.392 108.477C238.186 108.901 238.082 109.365 238.079 109.869V110.336C238.079 110.942 238.183 111.473 238.392 111.927C238.604 112.378 238.904 112.727 239.292 112.976C239.679 113.224 240.138 113.349 240.669 113.349C241.03 113.349 241.347 113.292 241.618 113.18C241.893 113.067 242.124 112.916 242.309 112.727C242.498 112.535 242.641 112.325 242.737 112.096L243.577 112.369C243.461 112.691 243.271 112.987 243.005 113.259C242.744 113.531 242.415 113.75 242.021 113.915C241.63 114.078 241.179 114.159 240.669 114.159ZM248.699 114.159C248.016 114.159 247.421 113.988 246.914 113.647C246.411 113.306 246.019 112.838 245.741 112.245C245.463 111.652 245.323 110.976 245.323 110.217C245.323 109.451 245.464 108.77 245.746 108.173C246.031 107.577 246.425 107.109 246.929 106.771C247.433 106.43 248.018 106.259 248.684 106.259C249.195 106.259 249.657 106.359 250.071 106.558C250.486 106.753 250.827 107.03 251.095 107.388C251.367 107.742 251.538 108.157 251.608 108.631H250.713C250.62 108.2 250.396 107.832 250.041 107.527C249.69 107.219 249.243 107.065 248.699 107.065C248.212 107.065 247.781 107.197 247.407 107.462C247.032 107.724 246.739 108.09 246.527 108.561C246.318 109.028 246.213 109.57 246.213 110.187C246.213 110.807 246.316 111.355 246.522 111.832C246.727 112.306 247.015 112.678 247.387 112.946C247.761 113.214 248.199 113.349 248.699 113.349C249.037 113.349 249.345 113.286 249.624 113.16C249.906 113.031 250.141 112.848 250.33 112.613C250.522 112.378 250.651 112.098 250.718 111.773H251.612C251.546 112.233 251.382 112.644 251.12 113.006C250.862 113.364 250.525 113.645 250.111 113.851C249.7 114.056 249.229 114.159 248.699 114.159ZM254.394 103.818V114H253.509V103.818H254.394ZM256.746 114V106.364H257.636V114H256.746ZM257.198 105.051C257.016 105.051 256.86 104.99 256.731 104.867C256.601 104.741 256.537 104.59 256.537 104.415C256.537 104.239 256.601 104.09 256.731 103.967C256.86 103.841 257.016 103.778 257.198 103.778C257.38 103.778 257.536 103.841 257.665 103.967C257.795 104.09 257.859 104.239 257.859 104.415C257.859 104.59 257.795 104.741 257.665 104.867C257.536 104.99 257.38 105.051 257.198 105.051ZM260.861 109.227V114H259.976V106.364H260.836V107.562H260.916C261.095 107.171 261.373 106.857 261.751 106.622C262.132 106.384 262.603 106.264 263.163 106.264C263.676 106.264 264.127 106.372 264.515 106.587C264.906 106.799 265.209 107.113 265.425 107.527C265.644 107.941 265.753 108.45 265.753 109.053V114H264.868V109.108C264.868 108.482 264.692 107.986 264.341 107.621C263.993 107.257 263.526 107.075 262.939 107.075C262.538 107.075 262.182 107.161 261.87 107.333C261.559 107.505 261.312 107.754 261.129 108.079C260.95 108.4 260.861 108.783 260.861 109.227ZM271.171 114.159C270.458 114.159 269.842 113.993 269.321 113.662C268.801 113.327 268.398 112.865 268.113 112.275C267.831 111.682 267.691 110.999 267.691 110.227C267.691 109.458 267.831 108.775 268.113 108.178C268.398 107.578 268.791 107.109 269.291 106.771C269.795 106.43 270.377 106.259 271.036 106.259C271.451 106.259 271.85 106.335 272.235 106.488C272.619 106.637 272.964 106.867 273.269 107.179C273.577 107.487 273.821 107.877 274 108.347C274.179 108.815 274.268 109.368 274.268 110.008V110.445H268.302V109.665H273.363C273.363 109.174 273.264 108.733 273.065 108.342C272.869 107.948 272.596 107.636 272.245 107.408C271.897 107.179 271.494 107.065 271.036 107.065C270.553 107.065 270.127 107.194 269.759 107.452C269.391 107.711 269.103 108.052 268.894 108.477C268.688 108.901 268.584 109.365 268.581 109.869V110.336C268.581 110.942 268.685 111.473 268.894 111.927C269.106 112.378 269.406 112.727 269.794 112.976C270.181 113.224 270.64 113.349 271.171 113.349C271.532 113.349 271.849 113.292 272.12 113.18C272.395 113.067 272.626 112.916 272.811 112.727C273 112.535 273.143 112.325 273.239 112.096L274.079 112.369C273.963 112.691 273.773 112.987 273.507 113.259C273.246 113.531 272.917 113.75 272.523 113.915C272.132 114.078 271.681 114.159 271.171 114.159ZM278.967 114.159C278.341 114.159 277.792 113.993 277.322 113.662C276.851 113.33 276.483 112.868 276.218 112.275C275.956 111.682 275.825 110.991 275.825 110.202C275.825 109.416 275.956 108.728 276.218 108.138C276.483 107.545 276.853 107.085 277.327 106.756C277.801 106.425 278.353 106.259 278.982 106.259C279.446 106.259 279.832 106.342 280.141 106.508C280.449 106.67 280.696 106.872 280.881 107.114C281.067 107.356 281.211 107.592 281.314 107.82H281.394V103.818H282.283V114H281.418V112.583H281.314C281.211 112.815 281.065 113.054 280.877 113.299C280.688 113.541 280.437 113.745 280.126 113.911C279.818 114.076 279.431 114.159 278.967 114.159ZM279.072 113.349C279.566 113.349 279.987 113.214 280.335 112.946C280.683 112.674 280.948 112.301 281.13 111.827C281.316 111.35 281.408 110.803 281.408 110.187C281.408 109.577 281.317 109.038 281.135 108.571C280.953 108.1 280.688 107.732 280.34 107.467C279.992 107.199 279.569 107.065 279.072 107.065C278.561 107.065 278.131 107.204 277.779 107.482C277.431 107.757 277.166 108.13 276.984 108.601C276.805 109.071 276.715 109.6 276.715 110.187C276.715 110.78 276.806 111.315 276.989 111.793C277.171 112.27 277.436 112.649 277.784 112.931C278.136 113.21 278.565 113.349 279.072 113.349Z" fill="#333333"/>
<path d="M339.358 239.447C337.647 239.441 336.176 239.02 334.943 238.185C333.717 237.349 332.772 236.14 332.109 234.555C331.453 232.971 331.128 231.065 331.135 228.838C331.135 226.617 331.463 224.725 332.119 223.161C332.782 221.596 333.726 220.406 334.953 219.591C336.186 218.769 337.654 218.358 339.358 218.358C341.061 218.358 342.526 218.769 343.752 219.591C344.985 220.413 345.933 221.606 346.596 223.17C347.259 224.728 347.587 226.617 347.581 228.838C347.581 231.072 347.249 232.981 346.586 234.565C345.93 236.15 344.989 237.359 343.762 238.195C342.536 239.03 341.068 239.447 339.358 239.447ZM339.358 235.878C340.524 235.878 341.456 235.291 342.152 234.118C342.848 232.945 343.192 231.185 343.186 228.838C343.186 227.294 343.027 226.008 342.708 224.98C342.397 223.953 341.953 223.18 341.376 222.663C340.806 222.146 340.133 221.888 339.358 221.888C338.198 221.888 337.27 222.468 336.574 223.628C335.877 224.788 335.526 226.525 335.52 228.838C335.52 230.402 335.675 231.708 335.987 232.756C336.305 233.796 336.752 234.579 337.329 235.102C337.906 235.619 338.582 235.878 339.358 235.878Z" fill="#333333"/>
<g clip-path="url(#clip3_310_2351)">
<path d="M336.273 160.66C336.273 160.66 335.4 160.087 334.14 160.24C333.147 160.36 332.293 160.887 332.32 162.027C332.34 162.967 333.153 163.627 334.387 164.08C335.613 164.533 336.413 164.8 336.46 166.133C336.507 167.467 335.36 168.193 334.413 168.227C333.473 168.26 333.073 168.173 331.92 167.673" stroke="#999999" stroke-width="1.5" stroke-linecap="round" stroke-linejoin="round"/>
<path d="M334.373 158.406V160.233" stroke="#999999" stroke-width="1.5" stroke-linecap="round" stroke-linejoin="round"/>
<path d="M334.28 170.02V168.233" stroke="#999999" stroke-width="1.5" stroke-linecap="round" stroke-linejoin="round"/>
<path d="M341.866 158.406L336.993 152.02H331.446C331.446 152.02 326.166 158.173 325.126 159.826C323.873 161.813 322.72 164.326 322.72 166.313C322.72 171.666 327.813 176 334.1 176C335.34 176 336.533 175.833 337.646 175.52L340.133 174.706" stroke="#999999" stroke-width="1.5" stroke-linecap="round" stroke-linejoin="round"/>
<path d="M331.9 151.893L328.507 147.066C328.507 147.066 328.06 145.1 330.047 145.36C331.474 145.546 333.294 146.306 335.134 146.306C336.14 146.306 340.14 145.953 340.14 145.953L336.74 151.84" stroke="#999999" stroke-width="1.5" stroke-linecap="round" stroke-linejoin="round"/>
<path d="M344.907 168.793C345.474 169.826 346.581 170.533 347.847 170.533C349.701 170.533 351.194 169.04 351.194 167.2C351.194 165.36 349.694 163.866 347.847 163.866C346.714 163.866 345.707 164.426 345.101 165.286" stroke="#0067AC" stroke-width="1.5" stroke-linecap="round" stroke-linejoin="round"/>
<path d="M346.294 165.68L344.707 165.493L344.88 163.986" stroke="#0067AC" stroke-width="1.5" stroke-linecap="round" stroke-linejoin="round"/>
<path d="M347.953 174.533C352.007 174.533 355.287 171.253 355.287 167.2C355.287 163.146 352.007 159.866 347.953 159.866C343.9 159.866 340.62 163.146 340.62 167.2C340.62 171.253 343.9 174.533 347.953 174.533Z" stroke="#0067AC" stroke-width="1.5" stroke-linecap="round" stroke-linejoin="round"/>
</g>
<path d="M310.452 114V103.818H313.738C314.461 103.818 315.064 103.949 315.548 104.211C316.035 104.469 316.401 104.829 316.646 105.29C316.895 105.747 317.019 106.272 317.019 106.866C317.019 107.459 316.895 107.983 316.646 108.437C316.401 108.891 316.037 109.246 315.553 109.501C315.069 109.756 314.469 109.884 313.753 109.884H310.954V109.033H313.728C314.258 109.033 314.699 108.946 315.051 108.77C315.405 108.594 315.669 108.344 315.841 108.019C316.017 107.694 316.105 107.31 316.105 106.866C316.105 106.422 316.017 106.034 315.841 105.702C315.665 105.368 315.4 105.109 315.046 104.927C314.694 104.745 314.25 104.653 313.713 104.653H311.382V114H310.452ZM314.941 109.406L317.447 114H316.373L313.892 109.406H314.941ZM322.105 114.159C321.393 114.159 320.776 113.993 320.256 113.662C319.735 113.327 319.333 112.865 319.048 112.275C318.766 111.682 318.625 110.999 318.625 110.227C318.625 109.458 318.766 108.775 319.048 108.178C319.333 107.578 319.726 107.109 320.226 106.771C320.73 106.43 321.311 106.259 321.971 106.259C322.385 106.259 322.785 106.335 323.169 106.488C323.554 106.637 323.898 106.867 324.203 107.179C324.512 107.487 324.755 107.877 324.934 108.347C325.113 108.815 325.203 109.368 325.203 110.008V110.445H319.237V109.665H324.298C324.298 109.174 324.198 108.733 323.999 108.342C323.804 107.948 323.53 107.636 323.179 107.408C322.831 107.179 322.428 107.065 321.971 107.065C321.487 107.065 321.061 107.194 320.693 107.452C320.325 107.711 320.037 108.052 319.828 108.477C319.623 108.901 319.518 109.365 319.515 109.869V110.336C319.515 110.942 319.619 111.473 319.828 111.927C320.04 112.378 320.34 112.727 320.728 112.976C321.116 113.224 321.575 113.349 322.105 113.349C322.467 113.349 322.783 113.292 323.055 113.18C323.33 113.067 323.56 112.916 323.746 112.727C323.935 112.535 324.077 112.325 324.173 112.096L325.014 112.369C324.898 112.691 324.707 112.987 324.442 113.259C324.18 113.531 323.852 113.75 323.458 113.915C323.066 114.078 322.616 114.159 322.105 114.159ZM330.161 106.364V107.134H326.516V106.364H330.161ZM327.655 104.534H328.545V112.006C328.545 112.325 328.599 112.575 328.709 112.757C328.818 112.936 328.961 113.064 329.136 113.14C329.312 113.213 329.499 113.249 329.698 113.249C329.814 113.249 329.914 113.243 329.996 113.229C330.079 113.213 330.152 113.196 330.215 113.18L330.404 113.98C330.318 114.013 330.212 114.043 330.086 114.07C329.96 114.099 329.804 114.114 329.619 114.114C329.294 114.114 328.981 114.043 328.679 113.901C328.381 113.758 328.135 113.546 327.943 113.264C327.751 112.982 327.655 112.633 327.655 112.215V104.534ZM337.023 111.082V106.364H337.907V114H337.023V112.732H336.953C336.774 113.123 336.491 113.45 336.103 113.712C335.715 113.97 335.241 114.099 334.681 114.099C334.194 114.099 333.761 113.993 333.383 113.781C333.006 113.566 332.709 113.251 332.493 112.837C332.278 112.422 332.17 111.914 332.17 111.31V106.364H333.055V111.256C333.055 111.852 333.231 112.333 333.582 112.697C333.934 113.059 334.384 113.239 334.934 113.239C335.279 113.239 335.611 113.156 335.929 112.991C336.247 112.825 336.509 112.583 336.714 112.265C336.92 111.943 337.023 111.549 337.023 111.082ZM340.25 114V106.364H341.11V107.537H341.175C341.328 107.152 341.593 106.843 341.971 106.607C342.352 106.369 342.783 106.249 343.263 106.249C343.336 106.249 343.417 106.251 343.507 106.254C343.596 106.258 343.671 106.261 343.73 106.264V107.164C343.691 107.157 343.621 107.147 343.522 107.134C343.422 107.121 343.315 107.114 343.199 107.114C342.801 107.114 342.446 107.199 342.135 107.368C341.826 107.534 341.583 107.764 341.404 108.059C341.225 108.354 341.135 108.69 341.135 109.068V114H340.25ZM346.126 109.227V114H345.241V106.364H346.101V107.562H346.18C346.359 107.171 346.638 106.857 347.015 106.622C347.397 106.384 347.867 106.264 348.427 106.264C348.941 106.264 349.392 106.372 349.78 106.587C350.171 106.799 350.474 107.113 350.689 107.527C350.908 107.941 351.018 108.45 351.018 109.053V114H350.133V109.108C350.133 108.482 349.957 107.986 349.606 107.621C349.258 107.257 348.79 107.075 348.204 107.075C347.803 107.075 347.446 107.161 347.135 107.333C346.823 107.505 346.576 107.754 346.394 108.079C346.215 108.4 346.126 108.783 346.126 109.227ZM356.435 114.159C355.723 114.159 355.106 113.993 354.586 113.662C354.066 113.327 353.663 112.865 353.378 112.275C353.096 111.682 352.955 110.999 352.955 110.227C352.955 109.458 353.096 108.775 353.378 108.178C353.663 107.578 354.056 107.109 354.556 106.771C355.06 106.43 355.642 106.259 356.301 106.259C356.715 106.259 357.115 106.335 357.499 106.488C357.884 106.637 358.228 106.867 358.533 107.179C358.842 107.487 359.085 107.877 359.264 108.347C359.443 108.815 359.533 109.368 359.533 110.008V110.445H353.567V109.665H358.628C358.628 109.174 358.528 108.733 358.33 108.342C358.134 107.948 357.861 107.636 357.509 107.408C357.161 107.179 356.759 107.065 356.301 107.065C355.817 107.065 355.391 107.194 355.023 107.452C354.656 107.711 354.367 108.052 354.158 108.477C353.953 108.901 353.848 109.365 353.845 109.869V110.336C353.845 110.942 353.95 111.473 354.158 111.927C354.371 112.378 354.67 112.727 355.058 112.976C355.446 113.224 355.905 113.349 356.435 113.349C356.797 113.349 357.113 113.292 357.385 113.18C357.66 113.067 357.89 112.916 358.076 112.727C358.265 112.535 358.407 112.325 358.504 112.096L359.344 112.369C359.228 112.691 359.037 112.987 358.772 113.259C358.51 113.531 358.182 113.75 357.788 113.915C357.397 114.078 356.946 114.159 356.435 114.159ZM364.232 114.159C363.606 114.159 363.057 113.993 362.586 113.662C362.116 113.33 361.748 112.868 361.483 112.275C361.221 111.682 361.09 110.991 361.09 110.202C361.09 109.416 361.221 108.728 361.483 108.138C361.748 107.545 362.117 107.085 362.591 106.756C363.065 106.425 363.617 106.259 364.247 106.259C364.711 106.259 365.097 106.342 365.405 106.508C365.714 106.67 365.961 106.872 366.146 107.114C366.332 107.356 366.476 107.592 366.579 107.82H366.658V103.818H367.548V114H366.683V112.583H366.579C366.476 112.815 366.33 113.054 366.141 113.299C365.952 113.541 365.702 113.745 365.39 113.911C365.082 114.076 364.696 114.159 364.232 114.159ZM364.336 113.349C364.83 113.349 365.251 113.214 365.599 112.946C365.947 112.674 366.212 112.301 366.395 111.827C366.58 111.35 366.673 110.803 366.673 110.187C366.673 109.577 366.582 109.038 366.4 108.571C366.217 108.1 365.952 107.732 365.604 107.467C365.256 107.199 364.834 107.065 364.336 107.065C363.826 107.065 363.395 107.204 363.044 107.482C362.696 107.757 362.431 108.13 362.248 108.601C362.069 109.071 361.98 109.6 361.98 110.187C361.98 110.78 362.071 111.315 362.253 111.793C362.436 112.27 362.701 112.649 363.049 112.931C363.4 113.21 363.829 113.349 364.336 113.349Z" fill="#333333"/>
<defs>
<clipPath id="clip0_310_2351">
<rect width="40" height="40" fill="white" transform="translate(57 142)"/>
</clipPath>
<clipPath id="clip1_310_2351">
<rect width="40" height="40" fill="white" transform="translate(149 142)"/>
</clipPath>
<clipPath id="clip2_310_2351">
<rect width="40" height="40" fill="white" transform="translate(235 142)"/>
</clipPath>
<clipPath id="clip3_310_2351">
<rect width="40" height="40" fill="white" transform="translate(319 142)"/>
</clipPath>
</defs>
</svg>
