<svg width="412" height="285" viewBox="0 0 412 285" fill="none" xmlns="http://www.w3.org/2000/svg">
<path d="M399 0.75H13C6.23451 0.75 0.75 6.23451 0.75 13V272C0.75 278.766 6.2345 284.25 13 284.25H399C405.766 284.25 411.25 278.766 411.25 272V13C411.25 6.23451 405.766 0.75 399 0.75Z" fill="white" stroke="#EBEBEB" stroke-width="0.5" stroke-linecap="square"/>
<path d="M159.358 239.447C157.647 239.441 156.176 239.02 154.943 238.185C153.717 237.349 152.772 236.14 152.109 234.555C151.453 232.971 151.128 231.065 151.135 228.838C151.135 226.617 151.463 224.725 152.119 223.161C152.782 221.596 153.726 220.406 154.953 219.591C156.186 218.769 157.654 218.358 159.358 218.358C161.061 218.358 162.526 218.769 163.752 219.591C164.985 220.413 165.933 221.606 166.596 223.17C167.259 224.728 167.587 226.617 167.581 228.838C167.581 231.072 167.249 232.981 166.586 234.565C165.93 236.15 164.989 237.359 163.762 238.195C162.536 239.03 161.068 239.447 159.358 239.447ZM159.358 235.878C160.524 235.878 161.456 235.291 162.152 234.118C162.848 232.945 163.192 231.185 163.186 228.838C163.186 227.294 163.027 226.008 162.708 224.98C162.397 223.953 161.953 223.18 161.376 222.663C160.806 222.146 160.133 221.888 159.358 221.888C158.198 221.888 157.27 222.468 156.574 223.628C155.877 224.788 155.526 226.525 155.52 228.838C155.52 230.402 155.675 231.708 155.987 232.756C156.305 233.796 156.752 234.579 157.329 235.102C157.906 235.619 158.582 235.878 159.358 235.878Z" fill="#1D8CFC"/>
<g clip-path="url(#clip0_310_2335)">
<path d="M166.48 177.82C171.5 178.64 175.773 174.367 174.953 169.347C174.453 166.307 172.006 163.854 168.966 163.36C163.946 162.54 159.673 166.814 160.493 171.834C160.993 174.874 163.44 177.327 166.48 177.82Z" stroke="#0067AC" stroke-width="1.5" stroke-linecap="round" stroke-linejoin="round"/>
<path d="M171.413 168.254L166.746 172.921L164.026 170.194" stroke="#0067AC" stroke-width="1.5" stroke-linecap="round" stroke-linejoin="round"/>
<path d="M156.4 157.334C159.345 157.334 161.733 154.946 161.733 152C161.733 149.055 159.345 146.667 156.4 146.667C153.454 146.667 151.066 149.055 151.066 152C151.066 154.946 153.454 157.334 156.4 157.334Z" stroke="#999999" stroke-width="1.5" stroke-linecap="round" stroke-linejoin="round"/>
<path d="M143 175.24V167.474C143 163.267 146.44 159.827 150.647 159.827H162.92C163.787 159.827 164.62 159.974 165.393 160.24" stroke="#999999" stroke-width="1.5" stroke-linecap="round" stroke-linejoin="round"/>
</g>
<path d="M104.441 103.818V114H103.536L97.5207 105.474H97.4411V114H96.5115V103.818H97.4113L103.447 112.354H103.526V103.818H104.441ZM110.052 114.159C109.339 114.159 108.723 113.993 108.202 113.662C107.682 113.327 107.279 112.865 106.994 112.275C106.712 111.682 106.571 110.999 106.571 110.227C106.571 109.458 106.712 108.775 106.994 108.178C107.279 107.578 107.672 107.109 108.172 106.771C108.676 106.43 109.258 106.259 109.917 106.259C110.332 106.259 110.731 106.335 111.116 106.488C111.5 106.637 111.845 106.867 112.15 107.179C112.458 107.487 112.701 107.877 112.88 108.347C113.059 108.815 113.149 109.368 113.149 110.008V110.445H107.183V109.665H112.244C112.244 109.174 112.145 108.733 111.946 108.342C111.75 107.948 111.477 107.636 111.125 107.408C110.777 107.179 110.375 107.065 109.917 107.065C109.433 107.065 109.008 107.194 108.64 107.452C108.272 107.711 107.983 108.052 107.775 108.477C107.569 108.901 107.465 109.365 107.461 109.869V110.336C107.461 110.942 107.566 111.473 107.775 111.927C107.987 112.378 108.287 112.727 108.674 112.976C109.062 113.224 109.521 113.349 110.052 113.349C110.413 113.349 110.729 113.292 111.001 113.18C111.276 113.067 111.507 112.916 111.692 112.727C111.881 112.535 112.024 112.325 112.12 112.096L112.96 112.369C112.844 112.691 112.653 112.987 112.388 113.259C112.126 113.531 111.798 113.75 111.404 113.915C111.013 114.078 110.562 114.159 110.052 114.159ZM118.186 114.159C117.474 114.159 116.857 113.993 116.337 113.662C115.817 113.327 115.414 112.865 115.129 112.275C114.847 111.682 114.706 110.999 114.706 110.227C114.706 109.458 114.847 108.775 115.129 108.178C115.414 107.578 115.807 107.109 116.307 106.771C116.811 106.43 117.393 106.259 118.052 106.259C118.466 106.259 118.866 106.335 119.25 106.488C119.635 106.637 119.979 106.867 120.284 107.179C120.593 107.487 120.836 107.877 121.015 108.347C121.194 108.815 121.284 109.368 121.284 110.008V110.445H115.318V109.665H120.379C120.379 109.174 120.279 108.733 120.081 108.342C119.885 107.948 119.612 107.636 119.26 107.408C118.912 107.179 118.509 107.065 118.052 107.065C117.568 107.065 117.142 107.194 116.774 107.452C116.407 107.711 116.118 108.052 115.909 108.477C115.704 108.901 115.599 109.365 115.596 109.869V110.336C115.596 110.942 115.701 111.473 115.909 111.927C116.121 112.378 116.421 112.727 116.809 112.976C117.197 113.224 117.656 113.349 118.186 113.349C118.548 113.349 118.864 113.292 119.136 113.18C119.411 113.067 119.641 112.916 119.827 112.727C120.016 112.535 120.158 112.325 120.255 112.096L121.095 112.369C120.979 112.691 120.788 112.987 120.523 113.259C120.261 113.531 119.933 113.75 119.539 113.915C119.148 114.078 118.697 114.159 118.186 114.159ZM125.983 114.159C125.357 114.159 124.808 113.993 124.337 113.662C123.867 113.33 123.499 112.868 123.234 112.275C122.972 111.682 122.841 110.991 122.841 110.202C122.841 109.416 122.972 108.728 123.234 108.138C123.499 107.545 123.868 107.085 124.342 106.756C124.816 106.425 125.368 106.259 125.998 106.259C126.462 106.259 126.848 106.342 127.156 106.508C127.465 106.67 127.711 106.872 127.897 107.114C128.083 107.356 128.227 107.592 128.33 107.82H128.409V103.818H129.299V114H128.434V112.583H128.33C128.227 112.815 128.081 113.054 127.892 113.299C127.703 113.541 127.453 113.745 127.141 113.911C126.833 114.076 126.447 114.159 125.983 114.159ZM126.087 113.349C126.581 113.349 127.002 113.214 127.35 112.946C127.698 112.674 127.963 112.301 128.146 111.827C128.331 111.35 128.424 110.803 128.424 110.187C128.424 109.577 128.333 109.038 128.151 108.571C127.968 108.1 127.703 107.732 127.355 107.467C127.007 107.199 126.585 107.065 126.087 107.065C125.577 107.065 125.146 107.204 124.795 107.482C124.447 107.757 124.182 108.13 123.999 108.601C123.82 109.071 123.731 109.6 123.731 110.187C123.731 110.78 123.822 111.315 124.004 111.793C124.187 112.27 124.452 112.649 124.8 112.931C125.151 113.21 125.58 113.349 126.087 113.349ZM136.95 108.039L136.14 108.268C136.06 108.039 135.948 107.832 135.802 107.646C135.656 107.461 135.466 107.313 135.23 107.204C134.998 107.094 134.71 107.04 134.365 107.04C133.848 107.04 133.424 107.162 133.092 107.408C132.761 107.653 132.595 107.969 132.595 108.357C132.595 108.685 132.708 108.952 132.933 109.158C133.162 109.36 133.513 109.521 133.987 109.64L135.141 109.923C135.78 110.079 136.259 110.326 136.578 110.664C136.899 111.002 137.06 111.426 137.06 111.937C137.06 112.368 136.94 112.75 136.702 113.085C136.463 113.42 136.13 113.683 135.703 113.876C135.278 114.065 134.786 114.159 134.226 114.159C133.48 114.159 132.865 113.992 132.381 113.657C131.898 113.319 131.588 112.832 131.452 112.195L132.302 111.987C132.411 112.441 132.625 112.784 132.943 113.016C133.265 113.248 133.687 113.364 134.211 113.364C134.798 113.364 135.267 113.233 135.618 112.971C135.969 112.706 136.145 112.374 136.145 111.977C136.145 111.668 136.042 111.41 135.837 111.201C135.631 110.989 135.32 110.833 134.902 110.734L133.654 110.435C132.991 110.276 132.501 110.024 132.183 109.68C131.864 109.335 131.705 108.907 131.705 108.397C131.705 107.976 131.82 107.607 132.048 107.288C132.277 106.967 132.592 106.715 132.993 106.533C133.394 106.35 133.851 106.259 134.365 106.259C135.064 106.259 135.623 106.418 136.041 106.737C136.461 107.051 136.765 107.486 136.95 108.039ZM143.119 103.818H144.193L147.887 112.688H147.976L151.67 103.818H152.744V114H151.869V105.782H151.789L148.354 114H147.509L144.073 105.782H143.994V114H143.119V103.818ZM155.883 116.864C155.708 116.864 155.544 116.847 155.391 116.814C155.239 116.781 155.118 116.744 155.028 116.705L155.267 115.924C155.569 116.017 155.837 116.05 156.072 116.023C156.308 116 156.516 115.894 156.699 115.705C156.881 115.52 157.043 115.235 157.186 114.85L157.464 114.075L154.655 106.364H155.615L157.882 112.832H157.952L160.219 106.364H161.178L157.947 115.208C157.811 115.576 157.643 115.883 157.445 116.128C157.246 116.376 157.015 116.56 156.753 116.68C156.495 116.802 156.205 116.864 155.883 116.864ZM167.046 114H166.071L169.775 103.818H170.77L174.473 114H173.499L170.307 105.026H170.238L167.046 114ZM167.747 110.097H172.798V110.933H167.747V110.097ZM176.035 116.864V106.364H176.895V107.82H176.999C177.105 107.592 177.251 107.358 177.437 107.119C177.622 106.877 177.867 106.674 178.172 106.508C178.481 106.342 178.868 106.259 179.336 106.259C179.965 106.259 180.516 106.425 180.986 106.756C181.46 107.085 181.828 107.545 182.09 108.138C182.355 108.728 182.488 109.416 182.488 110.202C182.488 110.991 182.355 111.682 182.09 112.275C181.828 112.868 181.46 113.33 180.986 113.662C180.516 113.993 179.969 114.159 179.346 114.159C178.885 114.159 178.499 114.076 178.187 113.911C177.879 113.745 177.629 113.541 177.437 113.299C177.248 113.054 177.102 112.815 176.999 112.583H176.919V116.864H176.035ZM176.91 110.187C176.91 110.803 177.001 111.35 177.183 111.827C177.369 112.301 177.634 112.674 177.978 112.946C178.326 113.214 178.747 113.349 179.241 113.349C179.748 113.349 180.176 113.21 180.524 112.931C180.875 112.649 181.142 112.27 181.324 111.793C181.51 111.315 181.603 110.78 181.603 110.187C181.603 109.6 181.512 109.071 181.329 108.601C181.15 108.13 180.885 107.757 180.534 107.482C180.182 107.204 179.752 107.065 179.241 107.065C178.744 107.065 178.321 107.199 177.973 107.467C177.625 107.732 177.36 108.1 177.178 108.571C176.999 109.038 176.91 109.577 176.91 110.187ZM184.429 116.864V106.364H185.289V107.82H185.394C185.5 107.592 185.645 107.358 185.831 107.119C186.017 106.877 186.262 106.674 186.567 106.508C186.875 106.342 187.263 106.259 187.73 106.259C188.36 106.259 188.91 106.425 189.381 106.756C189.855 107.085 190.223 107.545 190.484 108.138C190.75 108.728 190.882 109.416 190.882 110.202C190.882 110.991 190.75 111.682 190.484 112.275C190.223 112.868 189.855 113.33 189.381 113.662C188.91 113.993 188.363 114.159 187.74 114.159C187.279 114.159 186.893 114.076 186.582 113.911C186.274 113.745 186.023 113.541 185.831 113.299C185.642 113.054 185.496 112.815 185.394 112.583H185.314V116.864H184.429ZM185.304 110.187C185.304 110.803 185.395 111.35 185.578 111.827C185.763 112.301 186.028 112.674 186.373 112.946C186.721 113.214 187.142 113.349 187.636 113.349C188.143 113.349 188.57 113.21 188.918 112.931C189.27 112.649 189.537 112.27 189.719 111.793C189.904 111.315 189.997 110.78 189.997 110.187C189.997 109.6 189.906 109.071 189.724 108.601C189.545 108.13 189.28 107.757 188.928 107.482C188.577 107.204 188.146 107.065 187.636 107.065C187.139 107.065 186.716 107.199 186.368 107.467C186.02 107.732 185.755 108.1 185.573 108.571C185.394 109.038 185.304 109.577 185.304 110.187ZM192.824 114V106.364H193.684V107.537H193.748C193.901 107.152 194.166 106.843 194.544 106.607C194.925 106.369 195.356 106.249 195.836 106.249C195.909 106.249 195.991 106.251 196.08 106.254C196.169 106.258 196.244 106.261 196.304 106.264V107.164C196.264 107.157 196.194 107.147 196.095 107.134C195.995 107.121 195.888 107.114 195.772 107.114C195.374 107.114 195.019 107.199 194.708 107.368C194.4 107.534 194.156 107.764 193.977 108.059C193.798 108.354 193.709 108.69 193.709 109.068V114H192.824ZM200.549 114.159C199.89 114.159 199.307 113.992 198.799 113.657C198.296 113.322 197.901 112.86 197.616 112.27C197.331 111.677 197.189 110.992 197.189 110.217C197.189 109.434 197.331 108.747 197.616 108.153C197.901 107.557 198.296 107.093 198.799 106.761C199.307 106.427 199.89 106.259 200.549 106.259C201.209 106.259 201.791 106.427 202.294 106.761C202.798 107.096 203.193 107.56 203.478 108.153C203.766 108.747 203.91 109.434 203.91 110.217C203.91 110.992 203.768 111.677 203.483 112.27C203.198 112.86 202.802 113.322 202.294 113.657C201.791 113.992 201.209 114.159 200.549 114.159ZM200.549 113.349C201.08 113.349 201.529 113.206 201.897 112.921C202.265 112.636 202.543 112.257 202.732 111.783C202.924 111.309 203.02 110.787 203.02 110.217C203.02 109.647 202.924 109.123 202.732 108.646C202.543 108.168 202.265 107.786 201.897 107.497C201.529 107.209 201.08 107.065 200.549 107.065C200.022 107.065 199.573 107.209 199.202 107.497C198.834 107.786 198.554 108.168 198.362 108.646C198.173 109.123 198.079 109.647 198.079 110.217C198.079 110.787 198.173 111.309 198.362 111.783C198.554 112.257 198.834 112.636 199.202 112.921C199.57 113.206 200.019 113.349 200.549 113.349ZM211.491 106.364L208.702 114H207.757L204.968 106.364H205.927L208.195 112.832H208.264L210.531 106.364H211.491ZM215.122 114.174C214.662 114.174 214.241 114.085 213.86 113.906C213.478 113.723 213.175 113.461 212.95 113.12C212.724 112.775 212.612 112.358 212.612 111.867C212.612 111.489 212.683 111.171 212.826 110.913C212.968 110.654 213.17 110.442 213.432 110.276C213.694 110.111 214.004 109.98 214.362 109.884C214.72 109.787 215.114 109.713 215.545 109.66C215.973 109.607 216.334 109.56 216.629 109.521C216.927 109.481 217.154 109.418 217.31 109.332C217.466 109.246 217.544 109.106 217.544 108.914V108.735C217.544 108.215 217.388 107.805 217.076 107.507C216.768 107.205 216.324 107.055 215.744 107.055C215.194 107.055 214.745 107.176 214.397 107.418C214.052 107.66 213.81 107.945 213.671 108.273L212.831 107.969C213.003 107.552 213.242 107.219 213.546 106.97C213.851 106.718 214.193 106.538 214.571 106.428C214.948 106.316 215.331 106.259 215.719 106.259C216.011 106.259 216.314 106.297 216.629 106.374C216.947 106.45 217.242 106.582 217.514 106.771C217.786 106.957 218.006 107.217 218.175 107.552C218.344 107.883 218.429 108.304 218.429 108.815V114H217.544V112.792H217.489C217.383 113.017 217.225 113.236 217.017 113.448C216.808 113.66 216.546 113.834 216.231 113.97C215.916 114.106 215.547 114.174 215.122 114.174ZM215.242 113.364C215.712 113.364 216.12 113.259 216.465 113.05C216.809 112.842 217.075 112.565 217.26 112.22C217.449 111.872 217.544 111.489 217.544 111.072V109.968C217.477 110.031 217.366 110.087 217.21 110.137C217.058 110.187 216.881 110.232 216.679 110.271C216.48 110.308 216.281 110.339 216.082 110.366C215.883 110.392 215.704 110.415 215.545 110.435C215.114 110.488 214.746 110.571 214.441 110.684C214.136 110.797 213.903 110.952 213.74 111.151C213.578 111.347 213.497 111.599 213.497 111.907C213.497 112.371 213.662 112.731 213.994 112.986C214.325 113.238 214.741 113.364 215.242 113.364ZM221.668 103.818V114H220.783V103.818H221.668Z" fill="#333333"/>
<path d="M284.358 239.447C282.647 239.441 281.176 239.02 279.943 238.185C278.717 237.349 277.772 236.14 277.109 234.555C276.453 232.971 276.128 231.065 276.135 228.838C276.135 226.617 276.463 224.725 277.119 223.161C277.782 221.596 278.726 220.406 279.953 219.591C281.186 218.769 282.654 218.358 284.358 218.358C286.061 218.358 287.526 218.769 288.752 219.591C289.985 220.413 290.933 221.606 291.596 223.17C292.259 224.728 292.587 226.617 292.581 228.838C292.581 231.072 292.249 232.981 291.586 234.565C290.93 236.15 289.989 237.359 288.762 238.195C287.536 239.03 286.068 239.447 284.358 239.447ZM284.358 235.878C285.524 235.878 286.456 235.291 287.152 234.118C287.848 232.945 288.192 231.185 288.186 228.838C288.186 227.294 288.027 226.008 287.708 224.98C287.397 223.953 286.953 223.18 286.376 222.663C285.806 222.146 285.133 221.888 284.358 221.888C283.198 221.888 282.27 222.468 281.574 223.628C280.877 224.788 280.526 226.525 280.52 228.838C280.52 230.402 280.675 231.708 280.987 232.756C281.305 233.796 281.752 234.579 282.329 235.102C282.906 235.619 283.582 235.878 284.358 235.878Z" fill="#333333"/>
<g clip-path="url(#clip1_310_2335)">
<path d="M272.84 153.44H282.567" stroke="#999999" stroke-width="1.5" stroke-linecap="round" stroke-linejoin="round"/>
<path d="M272.84 158.107H279.513" stroke="#999999" stroke-width="1.5" stroke-linecap="round" stroke-linejoin="round"/>
<path d="M292.6 156.16V150.774C292.6 148.507 290.806 146.667 288.6 146.667H272.6C270.393 146.667 268.6 148.507 268.6 150.774V173.234C268.6 175.5 270.393 177.34 272.6 177.34H287.253" stroke="#999999" stroke-width="1.5" stroke-linecap="round" stroke-linejoin="round"/>
<path d="M290.826 174.433C295.846 175.253 300.12 170.98 299.3 165.96C298.8 162.92 296.353 160.467 293.313 159.973C288.293 159.153 284.02 163.427 284.84 168.447C285.34 171.487 287.786 173.94 290.826 174.433Z" stroke="#0067AC" stroke-width="1.5" stroke-linecap="round" stroke-linejoin="round"/>
<path d="M295.76 164.867L291.093 169.534L288.373 166.807" stroke="#0067AC" stroke-width="1.5" stroke-linecap="round" stroke-linejoin="round"/>
</g>
<path d="M254.456 114H253.482L257.185 103.818H258.18L261.884 114H260.909L257.717 105.026H257.648L254.456 114ZM255.157 110.097H260.208V110.933H255.157V110.097ZM263.445 116.864V106.364H264.305V107.82H264.409C264.515 107.592 264.661 107.358 264.847 107.119C265.032 106.877 265.278 106.674 265.582 106.508C265.891 106.342 266.278 106.259 266.746 106.259C267.376 106.259 267.926 106.425 268.396 106.756C268.87 107.085 269.238 107.545 269.5 108.138C269.765 108.728 269.898 109.416 269.898 110.202C269.898 110.991 269.765 111.682 269.5 112.275C269.238 112.868 268.87 113.33 268.396 113.662C267.926 113.993 267.379 114.159 266.756 114.159C266.295 114.159 265.909 114.076 265.597 113.911C265.289 113.745 265.039 113.541 264.847 113.299C264.658 113.054 264.512 112.815 264.409 112.583H264.33V116.864H263.445ZM264.32 110.187C264.32 110.803 264.411 111.35 264.593 111.827C264.779 112.301 265.044 112.674 265.389 112.946C265.737 113.214 266.158 113.349 266.651 113.349C267.158 113.349 267.586 113.21 267.934 112.931C268.285 112.649 268.552 112.27 268.734 111.793C268.92 111.315 269.013 110.78 269.013 110.187C269.013 109.6 268.922 109.071 268.739 108.601C268.56 108.13 268.295 107.757 267.944 107.482C267.593 107.204 267.162 107.065 266.651 107.065C266.154 107.065 265.732 107.199 265.384 107.467C265.036 107.732 264.77 108.1 264.588 108.571C264.409 109.038 264.32 109.577 264.32 110.187ZM271.839 116.864V106.364H272.699V107.82H272.804C272.91 107.592 273.056 107.358 273.241 107.119C273.427 106.877 273.672 106.674 273.977 106.508C274.285 106.342 274.673 106.259 275.14 106.259C275.77 106.259 276.32 106.425 276.791 106.756C277.265 107.085 277.633 107.545 277.895 108.138C278.16 108.728 278.292 109.416 278.292 110.202C278.292 110.991 278.16 111.682 277.895 112.275C277.633 112.868 277.265 113.33 276.791 113.662C276.32 113.993 275.773 114.159 275.15 114.159C274.69 114.159 274.303 114.076 273.992 113.911C273.684 113.745 273.433 113.541 273.241 113.299C273.052 113.054 272.906 112.815 272.804 112.583H272.724V116.864H271.839ZM272.714 110.187C272.714 110.803 272.805 111.35 272.988 111.827C273.173 112.301 273.438 112.674 273.783 112.946C274.131 113.214 274.552 113.349 275.046 113.349C275.553 113.349 275.981 113.21 276.329 112.931C276.68 112.649 276.947 112.27 277.129 111.793C277.315 111.315 277.407 110.78 277.407 110.187C277.407 109.6 277.316 109.071 277.134 108.601C276.955 108.13 276.69 107.757 276.339 107.482C275.987 107.204 275.556 107.065 275.046 107.065C274.549 107.065 274.126 107.199 273.778 107.467C273.43 107.732 273.165 108.1 272.983 108.571C272.804 109.038 272.714 109.577 272.714 110.187ZM280.234 114V106.364H281.094V107.537H281.158C281.311 107.152 281.576 106.843 281.954 106.607C282.335 106.369 282.766 106.249 283.247 106.249C283.319 106.249 283.401 106.251 283.49 106.254C283.58 106.258 283.654 106.261 283.714 106.264V107.164C283.674 107.157 283.604 107.147 283.505 107.134C283.406 107.121 283.298 107.114 283.182 107.114C282.784 107.114 282.43 107.199 282.118 107.368C281.81 107.534 281.566 107.764 281.387 108.059C281.208 108.354 281.119 108.69 281.119 109.068V114H280.234ZM287.96 114.159C287.3 114.159 286.717 113.992 286.21 113.657C285.706 113.322 285.311 112.86 285.026 112.27C284.741 111.677 284.599 110.992 284.599 110.217C284.599 109.434 284.741 108.747 285.026 108.153C285.311 107.557 285.706 107.093 286.21 106.761C286.717 106.427 287.3 106.259 287.96 106.259C288.619 106.259 289.201 106.427 289.705 106.761C290.208 107.096 290.603 107.56 290.888 108.153C291.176 108.747 291.32 109.434 291.32 110.217C291.32 110.992 291.178 111.677 290.893 112.27C290.608 112.86 290.212 113.322 289.705 113.657C289.201 113.992 288.619 114.159 287.96 114.159ZM287.96 113.349C288.49 113.349 288.939 113.206 289.307 112.921C289.675 112.636 289.953 112.257 290.142 111.783C290.334 111.309 290.43 110.787 290.43 110.217C290.43 109.647 290.334 109.123 290.142 108.646C289.953 108.168 289.675 107.786 289.307 107.497C288.939 107.209 288.49 107.065 287.96 107.065C287.433 107.065 286.984 107.209 286.612 107.497C286.244 107.786 285.964 108.168 285.772 108.646C285.583 109.123 285.489 109.647 285.489 110.217C285.489 110.787 285.583 111.309 285.772 111.783C285.964 112.257 286.244 112.636 286.612 112.921C286.98 113.206 287.429 113.349 287.96 113.349ZM298.901 106.364L296.112 114H295.167L292.378 106.364H293.338L295.605 112.832H295.674L297.941 106.364H298.901ZM303.446 114.159C302.734 114.159 302.117 113.993 301.597 113.662C301.076 113.327 300.674 112.865 300.389 112.275C300.107 111.682 299.966 110.999 299.966 110.227C299.966 109.458 300.107 108.775 300.389 108.178C300.674 107.578 301.066 107.109 301.567 106.771C302.071 106.43 302.652 106.259 303.312 106.259C303.726 106.259 304.126 106.335 304.51 106.488C304.895 106.637 305.239 106.867 305.544 107.179C305.852 107.487 306.096 107.877 306.275 108.347C306.454 108.815 306.543 109.368 306.543 110.008V110.445H300.578V109.665H305.639C305.639 109.174 305.539 108.733 305.34 108.342C305.145 107.948 304.871 107.636 304.52 107.408C304.172 107.179 303.769 107.065 303.312 107.065C302.828 107.065 302.402 107.194 302.034 107.452C301.666 107.711 301.378 108.052 301.169 108.477C300.964 108.901 300.859 109.365 300.856 109.869V110.336C300.856 110.942 300.96 111.473 301.169 111.927C301.381 112.378 301.681 112.727 302.069 112.976C302.457 113.224 302.916 113.349 303.446 113.349C303.807 113.349 304.124 113.292 304.396 113.18C304.671 113.067 304.901 112.916 305.087 112.727C305.276 112.535 305.418 112.325 305.514 112.096L306.354 112.369C306.238 112.691 306.048 112.987 305.783 113.259C305.521 113.531 305.193 113.75 304.798 113.915C304.407 114.078 303.957 114.159 303.446 114.159ZM311.243 114.159C310.616 114.159 310.068 113.993 309.597 113.662C309.127 113.33 308.759 112.868 308.494 112.275C308.232 111.682 308.101 110.991 308.101 110.202C308.101 109.416 308.232 108.728 308.494 108.138C308.759 107.545 309.128 107.085 309.602 106.756C310.076 106.425 310.628 106.259 311.258 106.259C311.722 106.259 312.108 106.342 312.416 106.508C312.724 106.67 312.971 106.872 313.157 107.114C313.342 107.356 313.487 107.592 313.589 107.82H313.669V103.818H314.559V114H313.694V112.583H313.589C313.487 112.815 313.341 113.054 313.152 113.299C312.963 113.541 312.713 113.745 312.401 113.911C312.093 114.076 311.707 114.159 311.243 114.159ZM311.347 113.349C311.841 113.349 312.262 113.214 312.61 112.946C312.958 112.674 313.223 112.301 313.405 111.827C313.591 111.35 313.684 110.803 313.684 110.187C313.684 109.577 313.593 109.038 313.41 108.571C313.228 108.1 312.963 107.732 312.615 107.467C312.267 107.199 311.844 107.065 311.347 107.065C310.837 107.065 310.406 107.204 310.055 107.482C309.707 107.757 309.441 108.13 309.259 108.601C309.08 109.071 308.991 109.6 308.991 110.187C308.991 110.78 309.082 111.315 309.264 111.793C309.446 112.27 309.712 112.649 310.06 112.931C310.411 113.21 310.84 113.349 311.347 113.349Z" fill="#333333"/>
<defs>
<clipPath id="clip0_310_2335">
<rect width="40" height="40" fill="white" transform="translate(139 142)"/>
</clipPath>
<clipPath id="clip1_310_2335">
<rect width="40" height="40" fill="white" transform="translate(264 142)"/>
</clipPath>
</defs>
</svg>
