<svg width="412" height="285" viewBox="0 0 412 285" fill="none" xmlns="http://www.w3.org/2000/svg">
<path d="M399 0.75H13C6.23451 0.75 0.75 6.23451 0.75 13V272C0.75 278.766 6.2345 284.25 13 284.25H399C405.766 284.25 411.25 278.766 411.25 272V13C411.25 6.23451 405.766 0.75 399 0.75Z" fill="white" stroke="#EBEBEB" stroke-width="0.5" stroke-linecap="square"/>
<rect x="21" y="73" width="180" height="32" rx="8" fill="#EEF4FF"/>
<path d="M180 94L190 84" stroke="#999999" stroke-width="1.2" stroke-linecap="round"/>
<path d="M190 94L180 84" stroke="#999999" stroke-width="1.2" stroke-linecap="round"/>
<path d="M33.832 93.4551H32.8576L36.5614 83.2733H37.5558L41.2596 93.4551H40.2852L37.0934 84.4814H37.0238L33.832 93.4551ZM34.533 89.5524H39.5842V90.3876H34.533V89.5524ZM45.8036 93.6142C45.1209 93.6142 44.5259 93.4435 44.0188 93.1021C43.515 92.7607 43.1239 92.2934 42.8455 91.7001C42.5671 91.1068 42.4279 90.4307 42.4279 89.6717C42.4279 88.9061 42.5688 88.225 42.8505 87.6284C43.1355 87.0318 43.5299 86.5645 44.0337 86.2264C44.5375 85.885 45.1225 85.7143 45.7887 85.7143C46.2991 85.7143 46.7615 85.8137 47.1758 86.0126C47.5901 86.2082 47.9315 86.4849 48.1999 86.8429C48.4717 87.1975 48.6424 87.6118 48.712 88.0858H47.8171C47.7243 87.6549 47.5006 87.287 47.146 86.9821C46.7946 86.6738 46.3472 86.5197 45.8036 86.5197C45.3164 86.5197 44.8855 86.6523 44.511 86.9174C44.1365 87.1793 43.8432 87.5455 43.631 88.0162C43.4222 88.4835 43.3178 89.0254 43.3178 89.6419C43.3178 90.2617 43.4206 90.8102 43.6261 91.2875C43.8316 91.7614 44.1199 92.1326 44.4911 92.4011C44.8656 92.6696 45.3031 92.8038 45.8036 92.8038C46.1417 92.8038 46.4499 92.7408 46.7283 92.6149C47.0101 92.4856 47.2454 92.3033 47.4343 92.068C47.6265 91.8327 47.7558 91.5526 47.8221 91.2278H48.717C48.6507 91.6885 48.4866 92.0995 48.2248 92.4608C47.9663 92.8187 47.6299 93.1004 47.2156 93.3059C46.8046 93.5114 46.3339 93.6142 45.8036 93.6142ZM53.5966 93.6142C52.9138 93.6142 52.3189 93.4435 51.8118 93.1021C51.308 92.7607 50.9169 92.2934 50.6385 91.7001C50.3601 91.1068 50.2209 90.4307 50.2209 89.6717C50.2209 88.9061 50.3617 88.225 50.6435 87.6284C50.9285 87.0318 51.3229 86.5645 51.8267 86.2264C52.3305 85.885 52.9155 85.7143 53.5817 85.7143C54.0921 85.7143 54.5545 85.8137 54.9688 86.0126C55.383 86.2082 55.7244 86.4849 55.9929 86.8429C56.2647 87.1975 56.4354 87.6118 56.505 88.0858H55.6101C55.5173 87.6549 55.2936 87.287 54.9389 86.9821C54.5876 86.6738 54.1402 86.5197 53.5966 86.5197C53.1094 86.5197 52.6785 86.6523 52.304 86.9174C51.9295 87.1793 51.6361 87.5455 51.424 88.0162C51.2152 88.4835 51.1108 89.0254 51.1108 89.6419C51.1108 90.2617 51.2135 90.8102 51.419 91.2875C51.6245 91.7614 51.9129 92.1326 52.2841 92.4011C52.6586 92.6696 53.0961 92.8038 53.5966 92.8038C53.9347 92.8038 54.2429 92.7408 54.5213 92.6149C54.803 92.4856 55.0384 92.3033 55.2273 92.068C55.4195 91.8327 55.5488 91.5526 55.6151 91.2278H56.5099C56.4437 91.6885 56.2796 92.0995 56.0178 92.4608C55.7592 92.8187 55.4228 93.1004 55.0085 93.3059C54.5975 93.5114 54.1269 93.6142 53.5966 93.6142ZM61.3746 93.6142C60.7151 93.6142 60.1317 93.4468 59.6246 93.112C59.1209 92.7773 58.7264 92.3149 58.4414 91.725C58.1564 91.1317 58.0138 90.4473 58.0138 89.6717C58.0138 88.8895 58.1564 88.2018 58.4414 87.6085C58.7264 87.0119 59.1209 86.5479 59.6246 86.2164C60.1317 85.8817 60.7151 85.7143 61.3746 85.7143C62.0342 85.7143 62.6159 85.8817 63.1197 86.2164C63.6235 86.5512 64.0179 87.0152 64.3029 87.6085C64.5913 88.2018 64.7354 88.8895 64.7354 89.6717C64.7354 90.4473 64.5929 91.1317 64.3079 91.725C64.0228 92.3149 63.6268 92.7773 63.1197 93.112C62.6159 93.4468 62.0342 93.6142 61.3746 93.6142ZM61.3746 92.8038C61.9049 92.8038 62.354 92.6613 62.7219 92.3762C63.0898 92.0912 63.3683 91.7117 63.5572 91.2377C63.7494 90.7638 63.8455 90.2418 63.8455 89.6717C63.8455 89.1016 63.7494 88.5779 63.5572 88.1007C63.3683 87.6234 63.0898 87.2406 62.7219 86.9522C62.354 86.6639 61.9049 86.5197 61.3746 86.5197C60.8477 86.5197 60.3986 86.6639 60.0273 86.9522C59.6594 87.2406 59.3794 87.6234 59.1871 88.1007C58.9982 88.5779 58.9038 89.1016 58.9038 89.6717C58.9038 90.2418 58.9982 90.7638 59.1871 91.2377C59.3794 91.7117 59.6594 92.0912 60.0273 92.3762C60.3952 92.6613 60.8443 92.8038 61.3746 92.8038ZM71.5304 90.5368V85.8187H72.4153V93.4551H71.5304V92.1873H71.4608C71.2818 92.5784 70.9984 92.9049 70.6106 93.1667C70.2228 93.4252 69.7489 93.5545 69.1887 93.5545C68.7015 93.5545 68.269 93.4484 67.8912 93.2363C67.5133 93.0209 67.2167 92.706 67.0012 92.2917C66.7858 91.8774 66.6781 91.3687 66.6781 90.7654V85.8187H67.563V90.7108C67.563 91.3074 67.7387 91.7879 68.09 92.1525C68.4413 92.5138 68.8921 92.6944 69.4423 92.6944C69.787 92.6944 70.1184 92.6116 70.4366 92.4458C70.7548 92.2801 71.0166 92.0382 71.2221 91.72C71.4276 91.3985 71.5304 91.0041 71.5304 90.5368ZM75.6431 88.6824V93.4551H74.7582V85.8187H75.6183V87.0169H75.6978C75.8768 86.6258 76.1552 86.3126 76.533 86.0772C76.9142 85.8386 77.3848 85.7193 77.945 85.7193C78.4587 85.7193 78.9094 85.827 79.2972 86.0424C79.6883 86.2546 79.9916 86.5678 80.207 86.9821C80.4258 87.3964 80.5352 87.9051 80.5352 88.5083V93.4551H79.6502V88.563C79.6502 87.9366 79.4746 87.4411 79.1232 87.0765C78.7752 86.7119 78.3079 86.5297 77.7212 86.5297C77.3202 86.5297 76.9639 86.6158 76.6523 86.7882C76.3408 86.9605 76.0939 87.2091 75.9116 87.5339C75.7326 87.8554 75.6431 88.2382 75.6431 88.6824ZM85.8734 85.8187V86.5893H82.2292V85.8187H85.8734ZM83.3677 83.9892H84.2576V91.4615C84.2576 91.7797 84.3123 92.0299 84.4217 92.2122C84.5311 92.3912 84.6736 92.5188 84.8493 92.595C85.0249 92.6679 85.2122 92.7044 85.411 92.7044C85.527 92.7044 85.6265 92.6977 85.7093 92.6845C85.7922 92.6679 85.8651 92.6513 85.9281 92.6348L86.117 93.4352C86.0308 93.4683 85.9248 93.4982 85.7988 93.5247C85.6729 93.5545 85.5171 93.5694 85.3315 93.5694C85.0067 93.5694 84.6935 93.4982 84.3919 93.3556C84.0936 93.2131 83.8483 93.001 83.6561 92.7193C83.4638 92.4376 83.3677 92.0879 83.3677 91.6703V83.9892ZM92.9343 83.2733V93.4551H92.0046V83.2733H92.9343ZM96.3423 88.6824V93.4551H95.4574V85.8187H96.3175V87.0169H96.397C96.576 86.6258 96.8544 86.3126 97.2322 86.0772C97.6134 85.8386 98.084 85.7193 98.6442 85.7193C99.1579 85.7193 99.6087 85.827 99.9964 86.0424C100.388 86.2546 100.691 86.5678 100.906 86.9821C101.125 87.3964 101.234 87.9051 101.234 88.5083V93.4551H100.349V88.563C100.349 87.9366 100.174 87.4411 99.8224 87.0765C99.4744 86.7119 99.0071 86.5297 98.4205 86.5297C98.0194 86.5297 97.6631 86.6158 97.3516 86.7882C97.04 86.9605 96.7931 87.2091 96.6108 87.5339C96.4318 87.8554 96.3423 88.2382 96.3423 88.6824ZM108.74 96.3187V92.0382H108.661C108.558 92.2702 108.412 92.5088 108.223 92.7541C108.034 92.996 107.784 93.1999 107.472 93.3656C107.161 93.5313 106.775 93.6142 106.314 93.6142C105.691 93.6142 105.142 93.4484 104.669 93.117C104.198 92.7856 103.83 92.3232 103.565 91.7299C103.303 91.1367 103.172 90.4456 103.172 89.6568C103.172 88.8713 103.303 88.1835 103.565 87.5936C103.83 87.0003 104.2 86.5396 104.673 86.2115C105.147 85.88 105.699 85.7143 106.329 85.7143C106.796 85.7143 107.182 85.7972 107.487 85.9629C107.796 86.1286 108.043 86.3324 108.228 86.5744C108.414 86.813 108.558 87.0467 108.661 87.2754H108.765V85.8187H109.63V96.3187H108.74ZM106.419 92.8038C106.912 92.8038 107.333 92.6696 107.681 92.4011C108.029 92.1293 108.294 91.7565 108.477 91.2825C108.662 90.8052 108.755 90.2583 108.755 89.6419C108.755 89.032 108.664 88.4934 108.482 88.0261C108.299 87.5555 108.034 87.1876 107.686 86.9224C107.342 86.6539 106.919 86.5197 106.419 86.5197C105.908 86.5197 105.477 86.6589 105.126 86.9373C104.775 87.2124 104.509 87.5853 104.33 88.0559C104.151 88.5266 104.062 89.0552 104.062 89.6419C104.062 90.2351 104.153 90.7704 104.335 91.2477C104.518 91.725 104.785 92.1045 105.136 92.3862C105.487 92.6646 105.915 92.8038 106.419 92.8038ZM116.812 90.5368V85.8187H117.697V93.4551H116.812V92.1873H116.742C116.563 92.5784 116.28 92.9049 115.892 93.1667C115.504 93.4252 115.03 93.5545 114.47 93.5545C113.983 93.5545 113.55 93.4484 113.172 93.2363C112.795 93.0209 112.498 92.706 112.282 92.2917C112.067 91.8774 111.959 91.3687 111.959 90.7654V85.8187H112.844V90.7108C112.844 91.3074 113.02 91.7879 113.371 92.1525C113.723 92.5138 114.173 92.6944 114.724 92.6944C115.068 92.6944 115.4 92.6116 115.718 92.4458C116.036 92.2801 116.298 92.0382 116.503 91.72C116.709 91.3985 116.812 91.0041 116.812 90.5368ZM120.049 93.4551V85.8187H120.939V93.4551H120.049ZM120.502 84.5062C120.319 84.5062 120.164 84.4449 120.034 84.3223C119.905 84.1963 119.841 84.0455 119.841 83.8699C119.841 83.6942 119.905 83.545 120.034 83.4224C120.164 83.2965 120.319 83.2335 120.502 83.2335C120.684 83.2335 120.84 83.2965 120.969 83.4224C121.098 83.545 121.163 83.6942 121.163 83.8699C121.163 84.0455 121.098 84.1963 120.969 84.3223C120.84 84.4449 120.684 84.5062 120.502 84.5062ZM123.28 93.4551V85.8187H124.14V86.992H124.204C124.357 86.6075 124.622 86.2976 125 86.0623C125.381 85.8237 125.812 85.7044 126.292 85.7044C126.365 85.7044 126.447 85.706 126.536 85.7093C126.626 85.7127 126.7 85.716 126.76 85.7193V86.6191C126.72 86.6125 126.65 86.6026 126.551 86.5893C126.452 86.5761 126.344 86.5694 126.228 86.5694C125.83 86.5694 125.475 86.6539 125.164 86.823C124.856 86.9887 124.612 87.219 124.433 87.514C124.254 87.809 124.165 88.1454 124.165 88.5233V93.4551H123.28ZM129.119 96.3187C128.943 96.3187 128.779 96.3021 128.627 96.269C128.474 96.2359 128.353 96.1994 128.264 96.1596L128.502 95.3791C128.804 95.4719 129.072 95.505 129.308 95.4785C129.543 95.4553 129.752 95.3493 129.934 95.1603C130.116 94.9747 130.279 94.6897 130.421 94.3052L130.7 93.5297L127.891 85.8187H128.85L131.117 92.2868H131.187L133.454 85.8187H134.414L131.182 94.6632C131.046 95.0311 130.879 95.3377 130.68 95.5829C130.481 95.8315 130.251 96.0154 129.989 96.1348C129.73 96.2574 129.44 96.3187 129.119 96.3187Z" fill="#333333"/>
<rect x="211" y="73" width="180" height="32" rx="8" fill="#EEF4FF"/>
<path d="M370 94L380 84" stroke="#999999" stroke-width="1.2" stroke-linecap="round"/>
<path d="M380 94L370 84" stroke="#999999" stroke-width="1.2" stroke-linecap="round"/>
<path d="M223.033 93.4551H222.059L225.763 83.2733H226.757L230.461 93.4551H229.486L226.295 84.4814H226.225L223.033 93.4551ZM223.734 89.5524H228.785V90.3876H223.734V89.5524ZM232.022 96.3187V85.8187H232.882V87.2754H232.986C233.092 87.0467 233.238 86.813 233.424 86.5744C233.609 86.3324 233.855 86.1286 234.16 85.9629C234.468 85.7972 234.856 85.7143 235.323 85.7143C235.953 85.7143 236.503 85.88 236.974 86.2115C237.448 86.5396 237.815 87.0003 238.077 87.5936C238.342 88.1835 238.475 88.8713 238.475 89.6568C238.475 90.4456 238.342 91.1367 238.077 91.7299C237.815 92.3232 237.448 92.7856 236.974 93.117C236.503 93.4484 235.956 93.6142 235.333 93.6142C234.872 93.6142 234.486 93.5313 234.175 93.3656C233.866 93.1999 233.616 92.996 233.424 92.7541C233.235 92.5088 233.089 92.2702 232.986 92.0382H232.907V96.3187H232.022ZM232.897 89.6419C232.897 90.2583 232.988 90.8052 233.17 91.2825C233.356 91.7565 233.621 92.1293 233.966 92.4011C234.314 92.6696 234.735 92.8038 235.229 92.8038C235.736 92.8038 236.163 92.6646 236.511 92.3862C236.863 92.1045 237.129 91.725 237.312 91.2477C237.497 90.7704 237.59 90.2351 237.59 89.6419C237.59 89.0552 237.499 88.5266 237.317 88.0559C237.138 87.5853 236.872 87.2124 236.521 86.9373C236.17 86.6589 235.739 86.5197 235.229 86.5197C234.731 86.5197 234.309 86.6539 233.961 86.9224C233.613 87.1876 233.348 87.5555 233.165 88.0261C232.986 88.4934 232.897 89.032 232.897 89.6419ZM240.416 96.3187V85.8187H241.276V87.2754H241.381C241.487 87.0467 241.633 86.813 241.818 86.5744C242.004 86.3324 242.249 86.1286 242.554 85.9629C242.862 85.7972 243.25 85.7143 243.718 85.7143C244.347 85.7143 244.897 85.88 245.368 86.2115C245.842 86.5396 246.21 87.0003 246.472 87.5936C246.737 88.1835 246.869 88.8713 246.869 89.6568C246.869 90.4456 246.737 91.1367 246.472 91.7299C246.21 92.3232 245.842 92.7856 245.368 93.117C244.897 93.4484 244.351 93.6142 243.727 93.6142C243.267 93.6142 242.881 93.5313 242.569 93.3656C242.261 93.1999 242.011 92.996 241.818 92.7541C241.629 92.5088 241.484 92.2702 241.381 92.0382H241.301V96.3187H240.416ZM241.291 89.6419C241.291 90.2583 241.383 90.8052 241.565 91.2825C241.75 91.7565 242.016 92.1293 242.36 92.4011C242.708 92.6696 243.129 92.8038 243.623 92.8038C244.13 92.8038 244.558 92.6646 244.906 92.3862C245.257 92.1045 245.524 91.725 245.706 91.2477C245.892 90.7704 245.985 90.2351 245.985 89.6419C245.985 89.0552 245.893 88.5266 245.711 88.0559C245.532 87.5853 245.267 87.2124 244.916 86.9373C244.564 86.6589 244.133 86.5197 243.623 86.5197C243.126 86.5197 242.703 86.6539 242.355 86.9224C242.007 87.1876 241.742 87.5555 241.56 88.0261C241.381 88.4934 241.291 89.032 241.291 89.6419ZM248.811 93.4551V85.8187H249.671V86.992H249.736C249.888 86.6075 250.153 86.2976 250.531 86.0623C250.912 85.8237 251.343 85.7044 251.824 85.7044C251.897 85.7044 251.978 85.706 252.067 85.7093C252.157 85.7127 252.231 85.716 252.291 85.7193V86.6191C252.251 86.6125 252.182 86.6026 252.082 86.5893C251.983 86.5761 251.875 86.5694 251.759 86.5694C251.361 86.5694 251.007 86.6539 250.695 86.823C250.387 86.9887 250.143 87.219 249.964 87.514C249.785 87.809 249.696 88.1454 249.696 88.5233V93.4551H248.811ZM256.537 93.6142C255.877 93.6142 255.294 93.4468 254.787 93.112C254.283 92.7773 253.889 92.3149 253.604 91.725C253.318 91.1317 253.176 90.4473 253.176 89.6717C253.176 88.8895 253.318 88.2018 253.604 87.6085C253.889 87.0119 254.283 86.5479 254.787 86.2164C255.294 85.8817 255.877 85.7143 256.537 85.7143C257.196 85.7143 257.778 85.8817 258.282 86.2164C258.786 86.5512 259.18 87.0152 259.465 87.6085C259.753 88.2018 259.898 88.8895 259.898 89.6717C259.898 90.4473 259.755 91.1317 259.47 91.725C259.185 92.3149 258.789 92.7773 258.282 93.112C257.778 93.4468 257.196 93.6142 256.537 93.6142ZM256.537 92.8038C257.067 92.8038 257.516 92.6613 257.884 92.3762C258.252 92.0912 258.53 91.7117 258.719 91.2377C258.912 90.7638 259.008 90.2418 259.008 89.6717C259.008 89.1016 258.912 88.5779 258.719 88.1007C258.53 87.6234 258.252 87.2406 257.884 86.9522C257.516 86.6639 257.067 86.5197 256.537 86.5197C256.01 86.5197 255.561 86.6639 255.189 86.9522C254.822 87.2406 254.541 87.6234 254.349 88.1007C254.16 88.5779 254.066 89.1016 254.066 89.6717C254.066 90.2418 254.16 90.7638 254.349 91.2377C254.541 91.7117 254.822 92.0912 255.189 92.3762C255.557 92.6613 256.006 92.8038 256.537 92.8038ZM267.478 85.8187L264.689 93.4551H263.744L260.955 85.8187H261.915L264.182 92.2868H264.251L266.518 85.8187H267.478ZM271.11 93.6291C270.649 93.6291 270.228 93.5396 269.847 93.3606C269.466 93.1783 269.163 92.9165 268.937 92.5751C268.712 92.2304 268.599 91.8128 268.599 91.3223C268.599 90.9444 268.67 90.6262 268.813 90.3677C268.955 90.1092 269.158 89.8971 269.419 89.7314C269.681 89.5656 269.991 89.4347 270.349 89.3386C270.707 89.2425 271.101 89.1679 271.532 89.1149C271.96 89.0618 272.321 89.0154 272.616 88.9757C272.914 88.9359 273.141 88.8729 273.297 88.7868C273.453 88.7006 273.531 88.5614 273.531 88.3691V88.1902C273.531 87.6698 273.375 87.2605 273.064 86.9622C272.755 86.6606 272.311 86.5098 271.731 86.5098C271.181 86.5098 270.732 86.6307 270.384 86.8727C270.039 87.1146 269.797 87.3997 269.658 87.7278L268.818 87.4245C268.99 87.0069 269.229 86.6738 269.534 86.4252C269.839 86.1734 270.18 85.9927 270.558 85.8833C270.936 85.7707 271.319 85.7143 271.706 85.7143C271.998 85.7143 272.301 85.7524 272.616 85.8287C272.934 85.9049 273.229 86.0375 273.501 86.2264C273.773 86.412 273.993 86.6722 274.162 87.0069C274.331 87.3384 274.416 87.7593 274.416 88.2697V93.4551H273.531V92.247H273.476C273.37 92.4724 273.213 92.6911 273.004 92.9032C272.795 93.1154 272.533 93.2894 272.218 93.4252C271.904 93.5611 271.534 93.6291 271.11 93.6291ZM271.229 92.8187C271.7 92.8187 272.107 92.7143 272.452 92.5055C272.797 92.2967 273.062 92.0199 273.248 91.6752C273.436 91.3272 273.531 90.9444 273.531 90.5268V89.4231C273.465 89.4861 273.354 89.5424 273.198 89.5922C273.045 89.6419 272.868 89.6866 272.666 89.7264C272.467 89.7628 272.268 89.7943 272.069 89.8208C271.87 89.8474 271.691 89.8706 271.532 89.8904C271.101 89.9435 270.734 90.0263 270.429 90.139C270.124 90.2517 269.89 90.4075 269.728 90.6064C269.565 90.8019 269.484 91.0538 269.484 91.362C269.484 91.8261 269.65 92.1857 269.981 92.4409C270.313 92.6928 270.729 92.8187 271.229 92.8187ZM277.655 83.2733V93.4551H276.77V83.2733H277.655Z" fill="#333333"/>
<rect x="21" y="115" width="180" height="32" rx="8" fill="#EEF4FF"/>
<path d="M180 136L190 126" stroke="#999999" stroke-width="1.2" stroke-linecap="round"/>
<path d="M190 136L180 126" stroke="#999999" stroke-width="1.2" stroke-linecap="round"/>
<path d="M33.1518 126.108V125.272H40.5346V126.108H37.3081V135.454H36.3784V126.108H33.1518ZM41.6507 135.454V127.818H42.5108V128.991H42.5755C42.7279 128.607 42.9931 128.297 43.3709 128.061C43.7521 127.823 44.1829 127.703 44.6635 127.703C44.7364 127.703 44.8176 127.705 44.9071 127.708C44.9966 127.712 45.0712 127.715 45.1309 127.718V128.618C45.0911 128.612 45.0215 128.602 44.9221 128.588C44.8226 128.575 44.7149 128.568 44.5989 128.568C44.2012 128.568 43.8465 128.653 43.535 128.822C43.2267 128.988 42.9831 129.218 42.8042 129.513C42.6252 129.808 42.5357 130.144 42.5357 130.522V135.454H41.6507ZM48.7738 135.628C48.3131 135.628 47.8922 135.539 47.511 135.36C47.1299 135.177 46.8266 134.916 46.6012 134.574C46.3758 134.229 46.2631 133.812 46.2631 133.321C46.2631 132.943 46.3344 132.625 46.4769 132.367C46.6194 132.108 46.8216 131.896 47.0835 131.73C47.3453 131.565 47.6552 131.434 48.0131 131.338C48.3711 131.242 48.7655 131.167 49.1964 131.114C49.6239 131.061 49.9852 131.014 50.2802 130.975C50.5785 130.935 50.8055 130.872 50.9613 130.786C51.1171 130.7 51.195 130.56 51.195 130.368V130.189C51.195 129.669 51.0392 129.259 50.7276 128.961C50.4194 128.66 49.9753 128.509 49.3952 128.509C48.8451 128.509 48.396 128.63 48.0479 128.872C47.7032 129.114 47.4613 129.399 47.3221 129.727L46.4819 129.424C46.6542 129.006 46.8929 128.673 47.1978 128.424C47.5027 128.172 47.8441 127.992 48.2219 127.882C48.5998 127.77 48.9826 127.713 49.3704 127.713C49.6621 127.713 49.9653 127.751 50.2802 127.828C50.5984 127.904 50.8933 128.036 51.1651 128.225C51.4369 128.411 51.6573 128.671 51.8263 129.006C51.9954 129.337 52.0799 129.758 52.0799 130.269V135.454H51.195V134.246H51.1403C51.0342 134.471 50.8768 134.69 50.668 134.902C50.4592 135.114 50.1973 135.288 49.8825 135.424C49.5676 135.56 49.198 135.628 48.7738 135.628ZM48.8931 134.818C49.3638 134.818 49.7714 134.713 50.1161 134.505C50.4608 134.296 50.726 134.019 50.9116 133.674C51.1005 133.326 51.195 132.943 51.195 132.526V131.422C51.1287 131.485 51.0176 131.541 50.8619 131.591C50.7094 131.641 50.5321 131.686 50.3299 131.725C50.131 131.762 49.9322 131.793 49.7333 131.82C49.5344 131.846 49.3555 131.87 49.1964 131.889C48.7655 131.943 48.3976 132.025 48.0927 132.138C47.7878 132.251 47.5541 132.407 47.3917 132.605C47.2293 132.801 47.1481 133.053 47.1481 133.361C47.1481 133.825 47.3138 134.185 47.6452 134.44C47.9767 134.692 48.3926 134.818 48.8931 134.818ZM55.3189 130.681V135.454H54.4339V127.818H55.294V129.016H55.3736C55.5526 128.625 55.831 128.312 56.2088 128.076C56.59 127.838 57.0606 127.718 57.6207 127.718C58.1345 127.718 58.5852 127.826 58.973 128.041C59.3641 128.254 59.6674 128.567 59.8828 128.981C60.1016 129.395 60.2109 129.904 60.2109 130.507V135.454H59.326V130.562C59.326 129.936 59.1503 129.44 58.799 129.076C58.451 128.711 57.9837 128.529 57.397 128.529C56.996 128.529 56.6397 128.615 56.3281 128.787C56.0166 128.96 55.7696 129.208 55.5874 129.533C55.4084 129.854 55.3189 130.237 55.3189 130.681ZM67.6721 129.493L66.8617 129.722C66.7821 129.493 66.6694 129.286 66.5236 129.1C66.3778 128.915 66.1872 128.767 65.9519 128.658C65.7199 128.549 65.4315 128.494 65.0868 128.494C64.5698 128.494 64.1455 128.617 63.8141 128.862C63.4827 129.107 63.3169 129.424 63.3169 129.811C63.3169 130.139 63.4296 130.406 63.655 130.612C63.8837 130.814 64.235 130.975 64.709 131.094L65.8624 131.377C66.5021 131.533 66.981 131.78 67.2992 132.118C67.6207 132.456 67.7814 132.88 67.7814 133.391C67.7814 133.822 67.6621 134.205 67.4235 134.539C67.1848 134.874 66.8517 135.138 66.4242 135.33C65.9999 135.519 65.5078 135.613 64.9476 135.613C64.2019 135.613 63.5871 135.446 63.1032 135.111C62.6193 134.773 62.3094 134.286 62.1735 133.649L63.0236 133.441C63.133 133.895 63.3468 134.238 63.665 134.47C63.9864 134.702 64.409 134.818 64.9327 134.818C65.5194 134.818 65.9883 134.687 66.3397 134.425C66.691 134.16 66.8667 133.828 66.8667 133.431C66.8667 133.122 66.7639 132.864 66.5584 132.655C66.3529 132.443 66.0414 132.287 65.6238 132.188L64.3759 131.889C63.713 131.73 63.2225 131.478 62.9043 131.134C62.5861 130.789 62.427 130.362 62.427 129.851C62.427 129.43 62.5414 129.061 62.7701 128.742C62.9988 128.421 63.3136 128.169 63.7147 127.987C64.1157 127.804 64.5731 127.713 65.0868 127.713C65.7862 127.713 66.3446 127.872 66.7623 128.191C67.1832 128.505 67.4864 128.94 67.6721 129.493ZM72.8612 127.818V128.588H69.1076V127.818H72.8612ZM70.2809 135.454V126.699C70.2809 126.288 70.3754 125.942 70.5643 125.66C70.7565 125.378 71.0067 125.165 71.315 125.019C71.6232 124.873 71.9497 124.8 72.2944 124.8C72.5264 124.8 72.7186 124.82 72.8711 124.86C73.0269 124.896 73.1495 124.933 73.239 124.969L72.9805 125.745C72.9142 125.725 72.833 125.701 72.7369 125.675C72.6407 125.648 72.5198 125.635 72.3739 125.635C71.9895 125.635 71.6928 125.743 71.484 125.958C71.2752 126.174 71.1708 126.482 71.1708 126.883L71.1658 135.454H70.2809ZM77.4002 135.613C76.6876 135.613 76.0711 135.447 75.5508 135.116C75.0304 134.781 74.6277 134.319 74.3427 133.729C74.061 133.136 73.9201 132.453 73.9201 131.681C73.9201 130.912 74.061 130.229 74.3427 129.632C74.6277 129.032 75.0205 128.563 75.521 128.225C76.0247 127.884 76.6064 127.713 77.266 127.713C77.6803 127.713 78.0797 127.79 78.4641 127.942C78.8486 128.091 79.1933 128.322 79.4982 128.633C79.8065 128.941 80.0501 129.331 80.229 129.801C80.408 130.269 80.4975 130.822 80.4975 131.462V131.899H74.5316V131.119H79.5927C79.5927 130.628 79.4933 130.188 79.2944 129.796C79.0988 129.402 78.8254 129.09 78.4741 128.862C78.1261 128.633 77.7234 128.519 77.266 128.519C76.7821 128.519 76.3562 128.648 75.9883 128.907C75.6204 129.165 75.332 129.506 75.1232 129.931C74.9177 130.355 74.8133 130.819 74.81 131.323V131.79C74.81 132.397 74.9144 132.927 75.1232 133.381C75.3353 133.832 75.6353 134.181 76.0231 134.43C76.4109 134.679 76.8699 134.803 77.4002 134.803C77.7615 134.803 78.078 134.746 78.3498 134.634C78.6249 134.521 78.8552 134.37 79.0408 134.181C79.2298 133.989 79.3723 133.779 79.4684 133.55L80.3086 133.823C80.1926 134.145 80.002 134.442 79.7369 134.713C79.475 134.985 79.1469 135.204 78.7525 135.37C78.3614 135.532 77.9106 135.613 77.4002 135.613ZM82.4476 135.454V127.818H83.3077V128.991H83.3723C83.5248 128.607 83.79 128.297 84.1678 128.061C84.5489 127.823 84.9798 127.703 85.4604 127.703C85.5333 127.703 85.6145 127.705 85.704 127.708C85.7935 127.712 85.8681 127.715 85.9277 127.718V128.618C85.888 128.612 85.8184 128.602 85.7189 128.588C85.6195 128.575 85.5118 128.568 85.3958 128.568C84.998 128.568 84.6434 128.653 84.3319 128.822C84.0236 128.988 83.78 129.218 83.601 129.513C83.4221 129.808 83.3326 130.144 83.3326 130.522V135.454H82.4476Z" fill="#333333"/>
<rect x="211" y="115" width="180" height="32" rx="8" fill="#EEF4FF"/>
<path d="M370 136L380 126" stroke="#999999" stroke-width="1.2" stroke-linecap="round"/>
<path d="M380 136L370 126" stroke="#999999" stroke-width="1.2" stroke-linecap="round"/>
<path d="M230.076 125.272H231.006V132.014C231.006 132.706 230.843 133.326 230.518 133.873C230.194 134.417 229.741 134.846 229.161 135.161C228.585 135.472 227.913 135.628 227.148 135.628C226.385 135.628 225.714 135.471 225.134 135.156C224.554 134.841 224.102 134.412 223.777 133.868C223.452 133.325 223.29 132.706 223.29 132.014V125.272H224.219V131.949C224.219 132.489 224.34 132.972 224.582 133.396C224.824 133.817 225.164 134.148 225.602 134.39C226.042 134.632 226.558 134.753 227.148 134.753C227.738 134.753 228.253 134.632 228.694 134.39C229.135 134.148 229.474 133.817 229.713 133.396C229.955 132.972 230.076 132.489 230.076 131.949V125.272ZM238.654 129.493L237.844 129.722C237.765 129.493 237.652 129.286 237.506 129.1C237.36 128.915 237.17 128.767 236.934 128.658C236.702 128.549 236.414 128.494 236.069 128.494C235.552 128.494 235.128 128.617 234.797 128.862C234.465 129.107 234.299 129.424 234.299 129.811C234.299 130.139 234.412 130.406 234.637 130.612C234.866 130.814 235.217 130.975 235.691 131.094L236.845 131.377C237.484 131.533 237.963 131.78 238.282 132.118C238.603 132.456 238.764 132.88 238.764 133.391C238.764 133.822 238.645 134.205 238.406 134.539C238.167 134.874 237.834 135.138 237.407 135.33C236.982 135.519 236.49 135.613 235.93 135.613C235.184 135.613 234.569 135.446 234.086 135.111C233.602 134.773 233.292 134.286 233.156 133.649L234.006 133.441C234.115 133.895 234.329 134.238 234.647 134.47C234.969 134.702 235.391 134.818 235.915 134.818C236.502 134.818 236.971 134.687 237.322 134.425C237.673 134.16 237.849 133.828 237.849 133.431C237.849 133.122 237.746 132.864 237.541 132.655C237.335 132.443 237.024 132.287 236.606 132.188L235.358 131.889C234.695 131.73 234.205 131.478 233.887 131.134C233.569 130.789 233.409 130.362 233.409 129.851C233.409 129.43 233.524 129.061 233.752 128.742C233.981 128.421 234.296 128.169 234.697 127.987C235.098 127.804 235.556 127.713 236.069 127.713C236.769 127.713 237.327 127.872 237.745 128.191C238.166 128.505 238.469 128.94 238.654 129.493ZM243.789 135.613C243.076 135.613 242.46 135.447 241.939 135.116C241.419 134.781 241.016 134.319 240.731 133.729C240.45 133.136 240.309 132.453 240.309 131.681C240.309 130.912 240.45 130.229 240.731 129.632C241.016 129.032 241.409 128.563 241.91 128.225C242.413 127.884 242.995 127.713 243.655 127.713C244.069 127.713 244.468 127.79 244.853 127.942C245.237 128.091 245.582 128.322 245.887 128.633C246.195 128.941 246.439 129.331 246.618 129.801C246.797 130.269 246.886 130.822 246.886 131.462V131.899H240.92V131.119H245.981C245.981 130.628 245.882 130.188 245.683 129.796C245.488 129.402 245.214 129.09 244.863 128.862C244.515 128.633 244.112 128.519 243.655 128.519C243.171 128.519 242.745 128.648 242.377 128.907C242.009 129.165 241.721 129.506 241.512 129.931C241.306 130.355 241.202 130.819 241.199 131.323V131.79C241.199 132.397 241.303 132.927 241.512 133.381C241.724 133.832 242.024 134.181 242.412 134.43C242.8 134.679 243.259 134.803 243.789 134.803C244.15 134.803 244.467 134.746 244.738 134.634C245.014 134.521 245.244 134.37 245.43 134.181C245.618 133.989 245.761 133.779 245.857 133.55L246.697 133.823C246.581 134.145 246.391 134.442 246.126 134.713C245.864 134.985 245.536 135.204 245.141 135.37C244.75 135.532 244.299 135.613 243.789 135.613ZM248.836 135.454V127.818H249.696V128.991H249.761C249.913 128.607 250.179 128.297 250.556 128.061C250.938 127.823 251.368 127.703 251.849 127.703C251.922 127.703 252.003 127.705 252.093 127.708C252.182 127.712 252.257 127.715 252.316 127.718V128.618C252.277 128.612 252.207 128.602 252.108 128.588C252.008 128.575 251.9 128.568 251.784 128.568C251.387 128.568 251.032 128.653 250.721 128.822C250.412 128.988 250.169 129.218 249.99 129.513C249.811 129.808 249.721 130.144 249.721 130.522V135.454H248.836ZM257.948 125.272H259.022L262.716 134.142H262.805L266.499 125.272H267.573V135.454H266.698V127.236H266.618L263.183 135.454H262.338L258.903 127.236H258.823V135.454H257.948V125.272ZM272.229 135.628C271.768 135.628 271.347 135.539 270.966 135.36C270.585 135.177 270.282 134.916 270.056 134.574C269.831 134.229 269.718 133.812 269.718 133.321C269.718 132.943 269.789 132.625 269.932 132.367C270.075 132.108 270.277 131.896 270.539 131.73C270.8 131.565 271.11 131.434 271.468 131.338C271.826 131.242 272.221 131.167 272.651 131.114C273.079 131.061 273.44 131.014 273.735 130.975C274.034 130.935 274.261 130.872 274.416 130.786C274.572 130.7 274.65 130.56 274.65 130.368V130.189C274.65 129.669 274.494 129.259 274.183 128.961C273.874 128.66 273.43 128.509 272.85 128.509C272.3 128.509 271.851 128.63 271.503 128.872C271.158 129.114 270.916 129.399 270.777 129.727L269.937 129.424C270.109 129.006 270.348 128.673 270.653 128.424C270.958 128.172 271.299 127.992 271.677 127.882C272.055 127.77 272.438 127.713 272.825 127.713C273.117 127.713 273.42 127.751 273.735 127.828C274.053 127.904 274.348 128.036 274.62 128.225C274.892 128.411 275.112 128.671 275.281 129.006C275.45 129.337 275.535 129.758 275.535 130.269V135.454H274.65V134.246H274.595C274.489 134.471 274.332 134.69 274.123 134.902C273.914 135.114 273.652 135.288 273.338 135.424C273.023 135.56 272.653 135.628 272.229 135.628ZM272.348 134.818C272.819 134.818 273.227 134.713 273.571 134.505C273.916 134.296 274.181 134.019 274.367 133.674C274.556 133.326 274.65 132.943 274.65 132.526V131.422C274.584 131.485 274.473 131.541 274.317 131.591C274.164 131.641 273.987 131.686 273.785 131.725C273.586 131.762 273.387 131.793 273.188 131.82C272.99 131.846 272.811 131.87 272.651 131.889C272.221 131.943 271.853 132.025 271.548 132.138C271.243 132.251 271.009 132.407 270.847 132.605C270.684 132.801 270.603 133.053 270.603 133.361C270.603 133.825 270.769 134.185 271.1 134.44C271.432 134.692 271.848 134.818 272.348 134.818ZM278.774 130.681V135.454H277.889V127.818H278.749V129.016H278.829C279.008 128.625 279.286 128.312 279.664 128.076C280.045 127.838 280.516 127.718 281.076 127.718C281.59 127.718 282.04 127.826 282.428 128.041C282.819 128.254 283.122 128.567 283.338 128.981C283.557 129.395 283.666 129.904 283.666 130.507V135.454H282.781V130.562C282.781 129.936 282.605 129.44 282.254 129.076C281.906 128.711 281.439 128.529 280.852 128.529C280.451 128.529 280.095 128.615 279.783 128.787C279.472 128.96 279.225 129.208 279.042 129.533C278.863 129.854 278.774 130.237 278.774 130.681ZM288.129 135.628C287.669 135.628 287.248 135.539 286.866 135.36C286.485 135.177 286.182 134.916 285.957 134.574C285.731 134.229 285.619 133.812 285.619 133.321C285.619 132.943 285.69 132.625 285.832 132.367C285.975 132.108 286.177 131.896 286.439 131.73C286.701 131.565 287.011 131.434 287.369 131.338C287.727 131.242 288.121 131.167 288.552 131.114C288.979 131.061 289.341 131.014 289.636 130.975C289.934 130.935 290.161 130.872 290.317 130.786C290.473 130.7 290.55 130.56 290.55 130.368V130.189C290.55 129.669 290.395 129.259 290.083 128.961C289.775 128.66 289.331 128.509 288.751 128.509C288.201 128.509 287.751 128.63 287.403 128.872C287.059 129.114 286.817 129.399 286.678 129.727L285.837 129.424C286.01 129.006 286.248 128.673 286.553 128.424C286.858 128.172 287.2 127.992 287.577 127.882C287.955 127.77 288.338 127.713 288.726 127.713C289.018 127.713 289.321 127.751 289.636 127.828C289.954 127.904 290.249 128.036 290.521 128.225C290.792 128.411 291.013 128.671 291.182 129.006C291.351 129.337 291.435 129.758 291.435 130.269V135.454H290.55V134.246H290.496C290.39 134.471 290.232 134.69 290.023 134.902C289.815 135.114 289.553 135.288 289.238 135.424C288.923 135.56 288.554 135.628 288.129 135.628ZM288.249 134.818C288.719 134.818 289.127 134.713 289.472 134.505C289.816 134.296 290.081 134.019 290.267 133.674C290.456 133.326 290.55 132.943 290.55 132.526V131.422C290.484 131.485 290.373 131.541 290.217 131.591C290.065 131.641 289.888 131.686 289.685 131.725C289.487 131.762 289.288 131.793 289.089 131.82C288.89 131.846 288.711 131.87 288.552 131.889C288.121 131.943 287.753 132.025 287.448 132.138C287.143 132.251 286.91 132.407 286.747 132.605C286.585 132.801 286.504 133.053 286.504 133.361C286.504 133.825 286.669 134.185 287.001 134.44C287.332 134.692 287.748 134.818 288.249 134.818ZM296.703 138.477C296.182 138.477 295.727 138.409 295.336 138.273C294.944 138.14 294.615 137.958 294.346 137.726C294.078 137.494 293.869 137.234 293.72 136.946L294.446 136.468C294.555 136.661 294.701 136.849 294.883 137.035C295.069 137.221 295.309 137.375 295.604 137.497C295.902 137.62 296.269 137.681 296.703 137.681C297.379 137.681 297.924 137.512 298.338 137.174C298.756 136.836 298.965 136.311 298.965 135.598V133.878H298.885C298.783 134.11 298.635 134.342 298.443 134.574C298.251 134.803 297.999 134.993 297.687 135.146C297.379 135.298 296.996 135.375 296.539 135.375C295.929 135.375 295.387 135.224 294.913 134.922C294.442 134.621 294.071 134.19 293.799 133.63C293.531 133.066 293.397 132.395 293.397 131.616C293.397 130.844 293.528 130.164 293.789 129.578C294.055 128.991 294.424 128.534 294.898 128.206C295.372 127.877 295.924 127.713 296.554 127.713C297.021 127.713 297.409 127.796 297.717 127.962C298.025 128.124 298.272 128.326 298.458 128.568C298.647 128.81 298.794 129.046 298.9 129.274H298.99V127.818H299.855V135.653C299.855 136.299 299.717 136.831 299.442 137.249C299.167 137.666 298.792 137.975 298.319 138.174C297.845 138.376 297.306 138.477 296.703 138.477ZM296.643 134.564C297.134 134.564 297.553 134.447 297.901 134.211C298.249 133.973 298.516 133.631 298.701 133.187C298.887 132.743 298.98 132.214 298.98 131.601C298.98 131.005 298.889 130.476 298.706 130.015C298.524 129.551 298.259 129.187 297.911 128.921C297.566 128.653 297.144 128.519 296.643 128.519C296.133 128.519 295.702 128.656 295.35 128.931C294.999 129.206 294.734 129.578 294.555 130.045C294.376 130.509 294.287 131.028 294.287 131.601C294.287 132.184 294.378 132.7 294.56 133.147C294.742 133.591 295.009 133.939 295.36 134.191C295.712 134.44 296.139 134.564 296.643 134.564ZM305.285 135.613C304.572 135.613 303.956 135.447 303.436 135.116C302.915 134.781 302.512 134.319 302.227 133.729C301.946 133.136 301.805 132.453 301.805 131.681C301.805 130.912 301.946 130.229 302.227 129.632C302.512 129.032 302.905 128.563 303.406 128.225C303.91 127.884 304.491 127.713 305.151 127.713C305.565 127.713 305.964 127.79 306.349 127.942C306.733 128.091 307.078 128.322 307.383 128.633C307.691 128.941 307.935 129.331 308.114 129.801C308.293 130.269 308.382 130.822 308.382 131.462V131.899H302.416V131.119H307.477C307.477 130.628 307.378 130.188 307.179 129.796C306.984 129.402 306.71 129.09 306.359 128.862C306.011 128.633 305.608 128.519 305.151 128.519C304.667 128.519 304.241 128.648 303.873 128.907C303.505 129.165 303.217 129.506 303.008 129.931C302.802 130.355 302.698 130.819 302.695 131.323V131.79C302.695 132.397 302.799 132.927 303.008 133.381C303.22 133.832 303.52 134.181 303.908 134.43C304.296 134.679 304.755 134.803 305.285 134.803C305.646 134.803 305.963 134.746 306.235 134.634C306.51 134.521 306.74 134.37 306.926 134.181C307.115 133.989 307.257 133.779 307.353 133.55L308.193 133.823C308.077 134.145 307.887 134.442 307.622 134.713C307.36 134.985 307.032 135.204 306.637 135.37C306.246 135.532 305.795 135.613 305.285 135.613ZM310.332 135.454V127.818H311.192V128.991H311.272C311.424 128.597 311.678 128.287 312.033 128.061C312.391 127.833 312.82 127.718 313.32 127.718C313.847 127.718 314.28 127.843 314.618 128.091C314.959 128.336 315.214 128.675 315.384 129.105H315.448C315.621 128.681 315.901 128.345 316.288 128.096C316.679 127.844 317.153 127.718 317.71 127.718C318.42 127.718 318.98 127.942 319.391 128.389C319.802 128.834 320.007 129.483 320.007 130.338V135.454H319.122V130.338C319.122 129.735 318.968 129.283 318.66 128.981C318.352 128.679 317.946 128.529 317.442 128.529C316.858 128.529 316.409 128.708 316.094 129.066C315.78 129.424 315.622 129.878 315.622 130.428V135.454H314.717V130.259C314.717 129.742 314.573 129.324 314.285 129.006C313.996 128.688 313.59 128.529 313.067 128.529C312.715 128.529 312.399 128.615 312.117 128.787C311.839 128.96 311.618 129.2 311.456 129.508C311.297 129.813 311.217 130.164 311.217 130.562V135.454H310.332ZM325.437 135.613C324.725 135.613 324.108 135.447 323.588 135.116C323.068 134.781 322.665 134.319 322.38 133.729C322.098 133.136 321.957 132.453 321.957 131.681C321.957 130.912 322.098 130.229 322.38 129.632C322.665 129.032 323.058 128.563 323.558 128.225C324.062 127.884 324.644 127.713 325.303 127.713C325.717 127.713 326.117 127.79 326.501 127.942C326.886 128.091 327.23 128.322 327.535 128.633C327.844 128.941 328.087 129.331 328.266 129.801C328.445 130.269 328.535 130.822 328.535 131.462V131.899H322.569V131.119H327.63C327.63 130.628 327.53 130.188 327.331 129.796C327.136 129.402 326.863 129.09 326.511 128.862C326.163 128.633 325.76 128.519 325.303 128.519C324.819 128.519 324.393 128.648 324.025 128.907C323.657 129.165 323.369 129.506 323.16 129.931C322.955 130.355 322.85 130.819 322.847 131.323V131.79C322.847 132.397 322.952 132.927 323.16 133.381C323.372 133.832 323.672 134.181 324.06 134.43C324.448 134.679 324.907 134.803 325.437 134.803C325.799 134.803 326.115 134.746 326.387 134.634C326.662 134.521 326.892 134.37 327.078 134.181C327.267 133.989 327.409 133.779 327.506 133.55L328.346 133.823C328.23 134.145 328.039 134.442 327.774 134.713C327.512 134.985 327.184 135.204 326.79 135.37C326.398 135.532 325.948 135.613 325.437 135.613ZM331.37 130.681V135.454H330.485V127.818H331.345V129.016H331.424C331.603 128.625 331.882 128.312 332.26 128.076C332.641 127.838 333.111 127.718 333.672 127.718C334.185 127.718 334.636 127.826 335.024 128.041C335.415 128.254 335.718 128.567 335.934 128.981C336.152 129.395 336.262 129.904 336.262 130.507V135.454H335.377V130.562C335.377 129.936 335.201 129.44 334.85 129.076C334.502 128.711 334.034 128.529 333.448 128.529C333.047 128.529 332.69 128.615 332.379 128.787C332.067 128.96 331.82 129.208 331.638 129.533C331.459 129.854 331.37 130.237 331.37 130.681ZM341.6 127.818V128.588H337.956V127.818H341.6ZM339.094 125.988H339.984V133.46C339.984 133.779 340.039 134.029 340.148 134.211C340.258 134.39 340.4 134.518 340.576 134.594C340.751 134.667 340.939 134.703 341.138 134.703C341.254 134.703 341.353 134.697 341.436 134.684C341.519 134.667 341.592 134.65 341.655 134.634L341.844 135.434C341.757 135.467 341.651 135.497 341.525 135.524C341.399 135.554 341.244 135.568 341.058 135.568C340.733 135.568 340.42 135.497 340.118 135.355C339.82 135.212 339.575 135 339.383 134.718C339.19 134.437 339.094 134.087 339.094 133.669V125.988Z" fill="#333333"/>
<rect x="21" y="157" width="180" height="32" rx="8" fill="#EEF4FF"/>
<path d="M180 178L190 168" stroke="#999999" stroke-width="1.2" stroke-linecap="round"/>
<path d="M190 178L180 168" stroke="#999999" stroke-width="1.2" stroke-linecap="round"/>
<path d="M33.7683 177.454V167.272H37.2037C37.8665 167.272 38.4184 167.388 38.8592 167.62C39.3033 167.852 39.6364 168.169 39.8585 168.57C40.0806 168.971 40.1916 169.427 40.1916 169.937C40.1916 170.361 40.1203 170.724 39.9778 171.026C39.8353 171.327 39.6414 171.571 39.3961 171.757C39.1509 171.942 38.8774 172.076 38.5758 172.159V172.239C38.9039 172.262 39.2221 172.378 39.5304 172.587C39.8386 172.792 40.0922 173.081 40.291 173.452C40.4899 173.823 40.5893 174.267 40.5893 174.784C40.5893 175.298 40.475 175.757 40.2463 176.161C40.0176 176.563 39.6663 176.879 39.1923 177.111C38.7217 177.34 38.1217 177.454 37.3926 177.454H33.7683ZM34.698 176.619H37.3926C38.1781 176.619 38.7581 176.445 39.1326 176.097C39.5105 175.749 39.6994 175.311 39.6994 174.784C39.6994 174.397 39.6049 174.045 39.416 173.73C39.2304 173.412 38.9669 173.16 38.6255 172.975C38.2875 172.789 37.8897 172.696 37.4324 172.696H34.698V176.619ZM34.698 171.871H37.2882C37.6892 171.871 38.0405 171.788 38.3422 171.622C38.6438 171.457 38.8791 171.228 39.0481 170.936C39.2172 170.645 39.3017 170.312 39.3017 169.937C39.3017 169.397 39.126 168.958 38.7747 168.62C38.4234 168.278 37.8997 168.108 37.2037 168.108H34.698V171.871ZM47.5011 174.536V169.818H48.386V177.454H47.5011V176.186H47.4315C47.2525 176.577 46.9691 176.904 46.5813 177.166C46.1935 177.424 45.7196 177.554 45.1594 177.554C44.6722 177.554 44.2397 177.447 43.8619 177.235C43.484 177.02 43.1874 176.705 42.9719 176.291C42.7565 175.876 42.6488 175.368 42.6488 174.764V169.818H43.5337V174.71C43.5337 175.306 43.7094 175.787 44.0607 176.152C44.4121 176.513 44.8628 176.693 45.413 176.693C45.7577 176.693 46.0891 176.611 46.4073 176.445C46.7255 176.279 46.9873 176.037 47.1928 175.719C47.3983 175.398 47.5011 175.003 47.5011 174.536ZM51.6138 167.272V177.454H50.7289V167.272H51.6138ZM54.7608 174.571L54.7509 173.412H54.9498L58.5293 169.818H59.6479L56.1131 173.358L56.0336 173.372L54.7608 174.571ZM53.9554 177.454V167.272H54.8404V177.454H53.9554ZM58.7132 177.454L55.611 173.532L56.2473 172.92L59.8468 177.454H58.7132ZM64.8159 168.108V167.272H72.1987V168.108H68.9721V177.454H68.0424V168.108H64.8159ZM73.3148 177.454V169.818H74.1749V170.991H74.2395C74.392 170.607 74.6571 170.297 75.035 170.061C75.4161 169.823 75.847 169.703 76.3276 169.703C76.4005 169.703 76.4817 169.705 76.5712 169.708C76.6607 169.712 76.7353 169.715 76.7949 169.718V170.618C76.7551 170.612 76.6855 170.602 76.5861 170.588C76.4867 170.575 76.379 170.568 76.263 170.568C75.8652 170.568 75.5106 170.653 75.199 170.822C74.8908 170.988 74.6472 171.218 74.4682 171.513C74.2892 171.808 74.1998 172.144 74.1998 172.522V177.454H73.3148ZM80.4379 177.628C79.9772 177.628 79.5562 177.539 79.1751 177.36C78.7939 177.177 78.4906 176.916 78.2653 176.574C78.0399 176.229 77.9272 175.812 77.9272 175.321C77.9272 174.943 77.9985 174.625 78.141 174.367C78.2835 174.108 78.4857 173.896 78.7475 173.73C79.0094 173.565 79.3192 173.434 79.6772 173.338C80.0352 173.242 80.4296 173.167 80.8604 173.114C81.288 173.061 81.6493 173.014 81.9442 172.975C82.2425 172.935 82.4696 172.872 82.6254 172.786C82.7811 172.7 82.859 172.56 82.859 172.368V172.189C82.859 171.669 82.7032 171.259 82.3917 170.961C82.0835 170.66 81.6393 170.509 81.0593 170.509C80.5091 170.509 80.06 170.63 79.712 170.872C79.3673 171.114 79.1254 171.399 78.9862 171.727L78.146 171.424C78.3183 171.006 78.5569 170.673 78.8619 170.424C79.1668 170.172 79.5082 169.992 79.886 169.882C80.2638 169.77 80.6467 169.713 81.0344 169.713C81.3261 169.713 81.6294 169.751 81.9442 169.828C82.2624 169.904 82.5574 170.036 82.8292 170.225C83.101 170.411 83.3214 170.671 83.4904 171.006C83.6594 171.337 83.744 171.758 83.744 172.269V177.454H82.859V176.246H82.8043C82.6983 176.471 82.5408 176.69 82.332 176.902C82.1232 177.114 81.8614 177.288 81.5465 177.424C81.2317 177.56 80.8621 177.628 80.4379 177.628ZM80.5572 176.818C81.0278 176.818 81.4355 176.713 81.7802 176.505C82.1249 176.296 82.39 176.019 82.5756 175.674C82.7646 175.326 82.859 174.943 82.859 174.526V173.422C82.7927 173.485 82.6817 173.541 82.5259 173.591C82.3735 173.641 82.1961 173.686 81.994 173.725C81.7951 173.762 81.5962 173.793 81.3974 173.82C81.1985 173.846 81.0195 173.87 80.8604 173.889C80.4296 173.943 80.0617 174.025 79.7567 174.138C79.4518 174.251 79.2182 174.407 79.0558 174.605C78.8933 174.801 78.8121 175.053 78.8121 175.361C78.8121 175.825 78.9779 176.185 79.3093 176.44C79.6407 176.692 80.0567 176.818 80.5572 176.818ZM86.983 172.681V177.454H86.098V169.818H86.9581V171.016H87.0376C87.2166 170.625 87.495 170.312 87.8729 170.076C88.254 169.838 88.7247 169.718 89.2848 169.718C89.7985 169.718 90.2493 169.826 90.6371 170.041C91.0282 170.254 91.3314 170.567 91.5469 170.981C91.7656 171.395 91.875 171.904 91.875 172.507V177.454H90.9901V172.562C90.9901 171.936 90.8144 171.44 90.4631 171.076C90.1151 170.711 89.6477 170.529 89.0611 170.529C88.66 170.529 88.3037 170.615 87.9922 170.787C87.6806 170.96 87.4337 171.208 87.2514 171.533C87.0724 171.854 86.983 172.237 86.983 172.681ZM99.3361 171.493L98.5257 171.722C98.4462 171.493 98.3335 171.286 98.1877 171.1C98.0418 170.915 97.8513 170.767 97.6159 170.658C97.3839 170.549 97.0956 170.494 96.7509 170.494C96.2338 170.494 95.8096 170.617 95.4782 170.862C95.1467 171.107 94.981 171.424 94.981 171.811C94.981 172.139 95.0937 172.406 95.3191 172.612C95.5478 172.814 95.8991 172.975 96.373 173.094L97.5265 173.377C98.1661 173.533 98.6451 173.78 98.9632 174.118C99.2847 174.456 99.4455 174.88 99.4455 175.391C99.4455 175.822 99.3262 176.205 99.0875 176.539C98.8489 176.874 98.5158 177.138 98.0882 177.33C97.664 177.519 97.1718 177.613 96.6117 177.613C95.8659 177.613 95.2511 177.446 94.7672 177.111C94.2833 176.773 93.9734 176.286 93.8375 175.649L94.6877 175.441C94.7971 175.895 95.0108 176.238 95.329 176.47C95.6505 176.702 96.0731 176.818 96.5968 176.818C97.1834 176.818 97.6524 176.687 98.0037 176.425C98.3551 176.16 98.5307 175.828 98.5307 175.431C98.5307 175.122 98.428 174.864 98.2225 174.655C98.017 174.443 97.7054 174.287 97.2878 174.188L96.04 173.889C95.3771 173.73 94.8865 173.478 94.5684 173.134C94.2502 172.789 94.0911 172.362 94.0911 171.851C94.0911 171.43 94.2054 171.061 94.4341 170.742C94.6628 170.421 94.9777 170.169 95.3787 169.987C95.7798 169.804 96.2372 169.713 96.7509 169.713C97.4502 169.713 98.0087 169.872 98.4263 170.191C98.8472 170.505 99.1505 170.94 99.3361 171.493ZM104.525 169.818V170.588H100.772V169.818H104.525ZM101.945 177.454V168.699C101.945 168.288 102.039 167.942 102.228 167.66C102.421 167.378 102.671 167.165 102.979 167.019C103.287 166.873 103.614 166.8 103.958 166.8C104.19 166.8 104.383 166.82 104.535 166.86C104.691 166.896 104.814 166.933 104.903 166.969L104.645 167.745C104.578 167.725 104.497 167.701 104.401 167.675C104.305 167.648 104.184 167.635 104.038 167.635C103.654 167.635 103.357 167.743 103.148 167.958C102.939 168.174 102.835 168.482 102.835 168.883L102.83 177.454H101.945ZM109.064 177.613C108.352 177.613 107.735 177.447 107.215 177.116C106.694 176.781 106.292 176.319 106.007 175.729C105.725 175.136 105.584 174.453 105.584 173.681C105.584 172.912 105.725 172.229 106.007 171.632C106.292 171.032 106.685 170.563 107.185 170.225C107.689 169.884 108.27 169.713 108.93 169.713C109.344 169.713 109.744 169.79 110.128 169.942C110.513 170.091 110.857 170.322 111.162 170.633C111.471 170.941 111.714 171.331 111.893 171.801C112.072 172.269 112.162 172.822 112.162 173.462V173.899H106.196V173.119H111.257C111.257 172.628 111.157 172.188 110.958 171.796C110.763 171.402 110.489 171.09 110.138 170.862C109.79 170.633 109.387 170.519 108.93 170.519C108.446 170.519 108.02 170.648 107.652 170.907C107.284 171.165 106.996 171.506 106.787 171.931C106.582 172.355 106.477 172.819 106.474 173.323V173.79C106.474 174.397 106.578 174.927 106.787 175.381C106.999 175.832 107.299 176.181 107.687 176.43C108.075 176.679 108.534 176.803 109.064 176.803C109.426 176.803 109.742 176.746 110.014 176.634C110.289 176.521 110.519 176.37 110.705 176.181C110.894 175.989 111.036 175.779 111.132 175.55L111.973 175.823C111.857 176.145 111.666 176.442 111.401 176.713C111.139 176.985 110.811 177.204 110.417 177.37C110.025 177.532 109.575 177.613 109.064 177.613ZM114.112 177.454V169.818H114.972V170.991H115.036C115.189 170.607 115.454 170.297 115.832 170.061C116.213 169.823 116.644 169.703 117.124 169.703C117.197 169.703 117.279 169.705 117.368 169.708C117.458 169.712 117.532 169.715 117.592 169.718V170.618C117.552 170.612 117.482 170.602 117.383 170.588C117.284 170.575 117.176 170.568 117.06 170.568C116.662 170.568 116.307 170.653 115.996 170.822C115.688 170.988 115.444 171.218 115.265 171.513C115.086 171.808 114.997 172.144 114.997 172.522V177.454H114.112Z" fill="#333333"/>
<rect x="211" y="157" width="180" height="32" rx="8" fill="#EEF4FF"/>
<path d="M370 178L380 168" stroke="#999999" stroke-width="1.2" stroke-linecap="round"/>
<path d="M380 178L370 168" stroke="#999999" stroke-width="1.2" stroke-linecap="round"/>
<path d="M223.169 177.454V167.272H229.06V168.108H224.098V171.941H228.598V172.776H224.098V177.454H223.169ZM230.115 177.454H229.141L232.845 167.272H233.839L237.543 177.454H236.568L233.377 168.48H233.307L230.115 177.454ZM230.816 173.551H235.867V174.387H230.816V173.551ZM242.623 174.272H243.657L244.959 175.997L245.178 176.286L246.779 178.409H245.745L244.571 176.843L244.363 176.564L242.623 174.272ZM247.157 172.363C247.157 173.424 246.968 174.347 246.59 175.132C246.212 175.915 245.692 176.521 245.029 176.952C244.369 177.38 243.61 177.593 242.752 177.593C241.893 177.593 241.133 177.38 240.47 176.952C239.81 176.521 239.292 175.915 238.914 175.132C238.539 174.347 238.352 173.424 238.352 172.363C238.352 171.303 238.539 170.381 238.914 169.599C239.292 168.813 239.812 168.207 240.475 167.779C241.138 167.349 241.897 167.133 242.752 167.133C243.61 167.133 244.369 167.349 245.029 167.779C245.692 168.207 246.212 168.813 246.59 169.599C246.968 170.381 247.157 171.303 247.157 172.363ZM246.252 172.363C246.252 171.452 246.099 170.671 245.794 170.022C245.489 169.369 245.074 168.87 244.547 168.525C244.02 168.18 243.421 168.008 242.752 168.008C242.086 168.008 241.489 168.18 240.962 168.525C240.435 168.87 240.017 169.367 239.709 170.017C239.404 170.666 239.252 171.448 239.252 172.363C239.252 173.275 239.404 174.055 239.709 174.705C240.014 175.354 240.43 175.853 240.957 176.201C241.484 176.546 242.082 176.718 242.752 176.718C243.421 176.718 244.02 176.546 244.547 176.201C245.077 175.857 245.494 175.359 245.799 174.71C246.104 174.057 246.255 173.275 246.252 172.363Z" fill="#333333"/>
<rect x="21" y="199" width="180" height="65" rx="8" fill="#EEF4FF"/>
<path d="M180 236L190 226" stroke="#999999" stroke-width="1.2" stroke-linecap="round"/>
<path d="M190 236L180 226" stroke="#999999" stroke-width="1.2" stroke-linecap="round"/>
<path d="M33.9929 218.503V228.685H33.0632V218.503H33.9929ZM37.4009 223.912V228.685H36.516V221.048H37.3761V222.246H37.4556C37.6346 221.855 37.913 221.542 38.2908 221.307C38.672 221.068 39.1426 220.949 39.7028 220.949C40.2165 220.949 40.6673 221.056 41.055 221.272C41.4461 221.484 41.7494 221.797 41.9648 222.212C42.1836 222.626 42.293 223.135 42.293 223.738V228.685H41.408V223.793C41.408 223.166 41.2324 222.671 40.881 222.306C40.533 221.941 40.0657 221.759 39.479 221.759C39.078 221.759 38.7217 221.845 38.4102 222.018C38.0986 222.19 37.8517 222.439 37.6694 222.763C37.4904 223.085 37.4009 223.468 37.4009 223.912ZM47.6312 221.048V221.819H43.987V221.048H47.6312ZM45.1255 219.219H46.0154V226.691C46.0154 227.009 46.0701 227.259 46.1795 227.442C46.2889 227.621 46.4314 227.748 46.6071 227.824C46.7827 227.897 46.97 227.934 47.1689 227.934C47.2849 227.934 47.3843 227.927 47.4672 227.914C47.55 227.897 47.6229 227.881 47.6859 227.864L47.8748 228.665C47.7886 228.698 47.6826 228.728 47.5566 228.754C47.4307 228.784 47.2749 228.799 47.0893 228.799C46.7645 228.799 46.4513 228.728 46.1497 228.585C45.8514 228.443 45.6061 228.23 45.4139 227.949C45.2217 227.667 45.1255 227.317 45.1255 226.9V219.219ZM52.6463 228.844C51.9337 228.844 51.3172 228.678 50.7969 228.347C50.2765 228.012 49.8738 227.549 49.5888 226.959C49.3071 226.366 49.1662 225.683 49.1662 224.911C49.1662 224.142 49.3071 223.459 49.5888 222.863C49.8738 222.263 50.2666 221.794 50.767 221.456C51.2708 221.114 51.8525 220.944 52.5121 220.944C52.9264 220.944 53.3258 221.02 53.7102 221.172C54.0947 221.322 54.4394 221.552 54.7443 221.864C55.0526 222.172 55.2962 222.561 55.4751 223.032C55.6541 223.499 55.7436 224.053 55.7436 224.692V225.13H49.7777V224.349H54.8388C54.8388 223.859 54.7393 223.418 54.5405 223.027C54.3449 222.632 54.0715 222.321 53.7202 222.092C53.3722 221.864 52.9695 221.749 52.5121 221.749C52.0282 221.749 51.6023 221.878 51.2344 222.137C50.8665 222.396 50.5781 222.737 50.3693 223.161C50.1638 223.585 50.0594 224.049 50.0561 224.553V225.021C50.0561 225.627 50.1605 226.157 50.3693 226.611C50.5814 227.062 50.8814 227.412 51.2692 227.66C51.657 227.909 52.116 228.033 52.6463 228.033C53.0076 228.033 53.3241 227.977 53.5959 227.864C53.871 227.752 54.1013 227.601 54.2869 227.412C54.4759 227.22 54.6184 227.009 54.7145 226.78L55.5547 227.054C55.4387 227.375 55.2481 227.672 54.983 227.944C54.7211 228.216 54.393 228.434 53.9986 228.6C53.6075 228.762 53.1567 228.844 52.6463 228.844ZM57.6937 228.685V221.048H58.5538V222.222H58.6184C58.7709 221.837 59.036 221.527 59.4139 221.292C59.795 221.053 60.2259 220.934 60.7065 220.934C60.7794 220.934 60.8606 220.936 60.9501 220.939C61.0396 220.942 61.1142 220.945 61.1738 220.949V221.849C61.1341 221.842 61.0645 221.832 60.965 221.819C60.8656 221.806 60.7579 221.799 60.6419 221.799C60.2441 221.799 59.8895 221.883 59.5779 222.052C59.2697 222.218 59.0261 222.449 58.8471 222.744C58.6681 223.039 58.5787 223.375 58.5787 223.753V228.685H57.6937ZM63.5689 223.912V228.685H62.6839V221.048H63.544V222.246H63.6236C63.8026 221.855 64.081 221.542 64.4588 221.307C64.84 221.068 65.3106 220.949 65.8707 220.949C66.3845 220.949 66.8352 221.056 67.223 221.272C67.6141 221.484 67.9174 221.797 68.1328 222.212C68.3516 222.626 68.4609 223.135 68.4609 223.738V228.685H67.576V223.793C67.576 223.166 67.4003 222.671 67.049 222.306C66.701 221.941 66.2337 221.759 65.647 221.759C65.246 221.759 64.8897 221.845 64.5781 222.018C64.2666 222.19 64.0196 222.439 63.8374 222.763C63.6584 223.085 63.5689 223.468 63.5689 223.912ZM72.9242 228.859C72.4635 228.859 72.0426 228.769 71.6614 228.59C71.2802 228.408 70.977 228.146 70.7516 227.805C70.5262 227.46 70.4135 227.042 70.4135 226.552C70.4135 226.174 70.4848 225.856 70.6273 225.597C70.7698 225.339 70.972 225.127 71.2338 224.961C71.4957 224.795 71.8056 224.664 72.1635 224.568C72.5215 224.472 72.9159 224.397 73.3468 224.344C73.7743 224.291 74.1356 224.245 74.4306 224.205C74.7289 224.165 74.9559 224.102 75.1117 224.016C75.2675 223.93 75.3453 223.791 75.3453 223.599V223.42C75.3453 222.899 75.1896 222.49 74.878 222.192C74.5698 221.89 74.1257 221.739 73.5456 221.739C72.9954 221.739 72.5463 221.86 72.1983 222.102C71.8536 222.344 71.6117 222.629 71.4725 222.957L70.6323 222.654C70.8046 222.236 71.0433 221.903 71.3482 221.655C71.6531 221.403 71.9945 221.222 72.3723 221.113C72.7502 221 73.133 220.944 73.5208 220.944C73.8124 220.944 74.1157 220.982 74.4306 221.058C74.7488 221.134 75.0437 221.267 75.3155 221.456C75.5873 221.641 75.8077 221.902 75.9767 222.236C76.1458 222.568 76.2303 222.989 76.2303 223.499V228.685H75.3453V227.476H75.2907C75.1846 227.702 75.0272 227.921 74.8184 228.133C74.6096 228.345 74.3477 228.519 74.0328 228.655C73.718 228.791 73.3484 228.859 72.9242 228.859ZM73.0435 228.048C73.5141 228.048 73.9218 227.944 74.2665 227.735C74.6112 227.526 74.8764 227.249 75.062 226.905C75.2509 226.557 75.3453 226.174 75.3453 225.756V224.653C75.2791 224.716 75.168 224.772 75.0123 224.822C74.8598 224.871 74.6825 224.916 74.4803 224.956C74.2814 224.992 74.0826 225.024 73.8837 225.05C73.6848 225.077 73.5059 225.1 73.3468 225.12C72.9159 225.173 72.548 225.256 72.2431 225.369C71.9382 225.481 71.7045 225.637 71.5421 225.836C71.3797 226.031 71.2985 226.283 71.2985 226.592C71.2985 227.056 71.4642 227.415 71.7956 227.67C72.1271 227.922 72.543 228.048 73.0435 228.048ZM81.5922 221.048V221.819H77.948V221.048H81.5922ZM79.0865 219.219H79.9764V226.691C79.9764 227.009 80.0311 227.259 80.1404 227.442C80.2498 227.621 80.3923 227.748 80.568 227.824C80.7437 227.897 80.9309 227.934 81.1298 227.934C81.2458 227.934 81.3452 227.927 81.4281 227.914C81.5109 227.897 81.5839 227.881 81.6468 227.864L81.8358 228.665C81.7496 228.698 81.6435 228.728 81.5176 228.754C81.3916 228.784 81.2359 228.799 81.0502 228.799C80.7254 228.799 80.4122 228.728 80.1106 228.585C79.8123 228.443 79.5671 228.23 79.3748 227.949C79.1826 227.667 79.0865 227.317 79.0865 226.9V219.219ZM83.6119 228.685V221.048H84.5018V228.685H83.6119ZM84.0643 219.736C83.882 219.736 83.7262 219.674 83.5969 219.552C83.4677 219.426 83.4031 219.275 83.4031 219.099C83.4031 218.924 83.4677 218.775 83.5969 218.652C83.7262 218.526 83.882 218.463 84.0643 218.463C84.2466 218.463 84.4023 218.526 84.5316 218.652C84.6609 218.775 84.7255 218.924 84.7255 219.099C84.7255 219.275 84.6609 219.426 84.5316 219.552C84.4023 219.674 84.2466 219.736 84.0643 219.736ZM89.8102 228.844C89.1506 228.844 88.5673 228.676 88.0602 228.342C87.5564 228.007 87.162 227.544 86.877 226.954C86.5919 226.361 86.4494 225.677 86.4494 224.901C86.4494 224.119 86.5919 223.431 86.877 222.838C87.162 222.241 87.5564 221.777 88.0602 221.446C88.5673 221.111 89.1506 220.944 89.8102 220.944C90.4698 220.944 91.0514 221.111 91.5552 221.446C92.059 221.781 92.4534 222.245 92.7385 222.838C93.0268 223.431 93.171 224.119 93.171 224.901C93.171 225.677 93.0285 226.361 92.7434 226.954C92.4584 227.544 92.0623 228.007 91.5552 228.342C91.0514 228.676 90.4698 228.844 89.8102 228.844ZM89.8102 228.033C90.3405 228.033 90.7896 227.891 91.1575 227.606C91.5254 227.321 91.8038 226.941 91.9927 226.467C92.185 225.993 92.2811 225.471 92.2811 224.901C92.2811 224.331 92.185 223.807 91.9927 223.33C91.8038 222.853 91.5254 222.47 91.1575 222.182C90.7896 221.893 90.3405 221.749 89.8102 221.749C89.2832 221.749 88.8341 221.893 88.4629 222.182C88.095 222.47 87.8149 222.853 87.6227 223.33C87.4338 223.807 87.3393 224.331 87.3393 224.901C87.3393 225.471 87.4338 225.993 87.6227 226.467C87.8149 226.941 88.095 227.321 88.4629 227.606C88.8308 227.891 89.2799 228.033 89.8102 228.033ZM95.9986 223.912V228.685H95.1136V221.048H95.9737V222.246H96.0533C96.2322 221.855 96.5107 221.542 96.8885 221.307C97.2696 221.068 97.7403 220.949 98.3004 220.949C98.8142 220.949 99.2649 221.056 99.6527 221.272C100.044 221.484 100.347 221.797 100.562 222.212C100.781 222.626 100.891 223.135 100.891 223.738V228.685H100.006V223.793C100.006 223.166 99.83 222.671 99.4787 222.306C99.1307 221.941 98.6634 221.759 98.0767 221.759C97.6757 221.759 97.3194 221.845 97.0078 222.018C96.6963 222.19 96.4493 222.439 96.267 222.763C96.0881 223.085 95.9986 223.468 95.9986 223.912ZM105.354 228.859C104.893 228.859 104.472 228.769 104.091 228.59C103.71 228.408 103.407 228.146 103.181 227.805C102.956 227.46 102.843 227.042 102.843 226.552C102.843 226.174 102.914 225.856 103.057 225.597C103.2 225.339 103.402 225.127 103.664 224.961C103.925 224.795 104.235 224.664 104.593 224.568C104.951 224.472 105.346 224.397 105.776 224.344C106.204 224.291 106.565 224.245 106.86 224.205C107.159 224.165 107.386 224.102 107.541 224.016C107.697 223.93 107.775 223.791 107.775 223.599V223.42C107.775 222.899 107.619 222.49 107.308 222.192C106.999 221.89 106.555 221.739 105.975 221.739C105.425 221.739 104.976 221.86 104.628 222.102C104.283 222.344 104.041 222.629 103.902 222.957L103.062 222.654C103.234 222.236 103.473 221.903 103.778 221.655C104.083 221.403 104.424 221.222 104.802 221.113C105.18 221 105.563 220.944 105.95 220.944C106.242 220.944 106.545 220.982 106.86 221.058C107.178 221.134 107.473 221.267 107.745 221.456C108.017 221.641 108.237 221.902 108.406 222.236C108.575 222.568 108.66 222.989 108.66 223.499V228.685H107.775V227.476H107.72C107.614 227.702 107.457 227.921 107.248 228.133C107.039 228.345 106.777 228.519 106.463 228.655C106.148 228.791 105.778 228.859 105.354 228.859ZM105.473 228.048C105.944 228.048 106.352 227.944 106.696 227.735C107.041 227.526 107.306 227.249 107.492 226.905C107.681 226.557 107.775 226.174 107.775 225.756V224.653C107.709 224.716 107.598 224.772 107.442 224.822C107.289 224.871 107.112 224.916 106.91 224.956C106.711 224.992 106.512 225.024 106.313 225.05C106.115 225.077 105.936 225.1 105.776 225.12C105.346 225.173 104.978 225.256 104.673 225.369C104.368 225.481 104.134 225.637 103.972 225.836C103.809 226.031 103.728 226.283 103.728 226.592C103.728 227.056 103.894 227.415 104.225 227.67C104.557 227.922 104.973 228.048 105.473 228.048ZM111.899 218.503V228.685H111.014V218.503H111.899ZM118.362 228.685V218.503H124.253V219.338H119.292V223.171H123.791V224.006H119.292V228.685H118.362ZM130.755 225.766V221.048H131.64V228.685H130.755V227.417H130.685C130.506 227.808 130.223 228.134 129.835 228.396C129.447 228.655 128.973 228.784 128.413 228.784C127.926 228.784 127.494 228.678 127.116 228.466C126.738 228.25 126.441 227.936 126.226 227.521C126.01 227.107 125.903 226.598 125.903 225.995V221.048H126.788V225.94C126.788 226.537 126.963 227.017 127.315 227.382C127.666 227.743 128.117 227.924 128.667 227.924C129.012 227.924 129.343 227.841 129.661 227.675C129.979 227.51 130.241 227.268 130.447 226.949C130.652 226.628 130.755 226.234 130.755 225.766ZM134.868 223.912V228.685H133.983V221.048H134.843V222.246H134.922C135.101 221.855 135.38 221.542 135.758 221.307C136.139 221.068 136.609 220.949 137.17 220.949C137.683 220.949 138.134 221.056 138.522 221.272C138.913 221.484 139.216 221.797 139.432 222.212C139.65 222.626 139.76 223.135 139.76 223.738V228.685H138.875V223.793C138.875 223.166 138.699 222.671 138.348 222.306C138 221.941 137.532 221.759 136.946 221.759C136.545 221.759 136.189 221.845 135.877 222.018C135.565 222.19 135.318 222.439 135.136 222.763C134.957 223.085 134.868 223.468 134.868 223.912ZM144.839 228.844C144.213 228.844 143.665 228.678 143.194 228.347C142.723 228.015 142.355 227.553 142.09 226.959C141.828 226.366 141.697 225.675 141.697 224.886C141.697 224.101 141.828 223.413 142.09 222.823C142.355 222.23 142.725 221.769 143.199 221.441C143.673 221.11 144.225 220.944 144.854 220.944C145.318 220.944 145.705 221.027 146.013 221.192C146.321 221.355 146.568 221.557 146.754 221.799C146.939 222.041 147.083 222.276 147.186 222.505H147.266V218.503H148.156V228.685H147.29V227.268H147.186C147.083 227.5 146.938 227.738 146.749 227.984C146.56 228.226 146.309 228.429 145.998 228.595C145.69 228.761 145.304 228.844 144.839 228.844ZM144.944 228.033C145.438 228.033 145.859 227.899 146.207 227.631C146.555 227.359 146.82 226.986 147.002 226.512C147.188 226.035 147.281 225.488 147.281 224.871C147.281 224.262 147.189 223.723 147.007 223.256C146.825 222.785 146.56 222.417 146.212 222.152C145.864 221.883 145.441 221.749 144.944 221.749C144.433 221.749 144.003 221.888 143.651 222.167C143.303 222.442 143.038 222.815 142.856 223.285C142.677 223.756 142.587 224.285 142.587 224.871C142.587 225.465 142.679 226 142.861 226.477C143.043 226.954 143.308 227.334 143.656 227.616C144.008 227.894 144.437 228.033 144.944 228.033ZM32.4467 236.338V235.503H39.8295V236.338H36.603V245.685H35.6733V236.338H32.4467ZM40.9457 245.685V238.048H41.8058V239.222H41.8704C42.0228 238.837 42.288 238.527 42.6658 238.292C43.047 238.053 43.4779 237.934 43.9585 237.934C44.0314 237.934 44.1126 237.936 44.2021 237.939C44.2915 237.942 44.3661 237.945 44.4258 237.949V238.849C44.386 238.842 44.3164 238.832 44.217 238.819C44.1175 238.806 44.0098 238.799 43.8938 238.799C43.4961 238.799 43.1415 238.883 42.8299 239.052C42.5217 239.218 42.2781 239.449 42.0991 239.744C41.9201 240.039 41.8306 240.375 41.8306 240.753V245.685H40.9457ZM48.0687 245.859C47.608 245.859 47.1871 245.769 46.8059 245.59C46.4248 245.408 46.1215 245.146 45.8961 244.805C45.6708 244.46 45.5581 244.042 45.5581 243.552C45.5581 243.174 45.6293 242.856 45.7718 242.597C45.9144 242.339 46.1165 242.127 46.3784 241.961C46.6402 241.795 46.9501 241.664 47.3081 241.568C47.666 241.472 48.0604 241.397 48.4913 241.344C48.9189 241.291 49.2801 241.245 49.5751 241.205C49.8734 241.165 50.1004 241.102 50.2562 241.016C50.412 240.93 50.4899 240.791 50.4899 240.599V240.42C50.4899 239.899 50.3341 239.49 50.0225 239.192C49.7143 238.89 49.2702 238.739 48.6902 238.739C48.14 238.739 47.6909 238.86 47.3429 239.102C46.9982 239.344 46.7562 239.629 46.617 239.957L45.7768 239.654C45.9492 239.236 46.1878 238.903 46.4927 238.655C46.7976 238.403 47.139 238.222 47.5169 238.113C47.8947 238 48.2775 237.944 48.6653 237.944C48.957 237.944 49.2602 237.982 49.5751 238.058C49.8933 238.134 50.1883 238.267 50.46 238.456C50.7318 238.641 50.9522 238.902 51.1213 239.236C51.2903 239.568 51.3748 239.989 51.3748 240.499V245.685H50.4899V244.476H50.4352C50.3291 244.702 50.1717 244.921 49.9629 245.133C49.7541 245.345 49.4922 245.519 49.1774 245.655C48.8625 245.791 48.493 245.859 48.0687 245.859ZM48.188 245.048C48.6587 245.048 49.0663 244.944 49.411 244.735C49.7557 244.526 50.0209 244.249 50.2065 243.905C50.3954 243.557 50.4899 243.174 50.4899 242.756V241.653C50.4236 241.716 50.3126 241.772 50.1568 241.822C50.0043 241.871 49.827 241.916 49.6248 241.956C49.426 241.992 49.2271 242.024 49.0282 242.05C48.8294 242.077 48.6504 242.1 48.4913 242.12C48.0604 242.173 47.6925 242.256 47.3876 242.369C47.0827 242.481 46.849 242.637 46.6866 242.836C46.5242 243.031 46.443 243.283 46.443 243.592C46.443 244.056 46.6087 244.415 46.9402 244.67C47.2716 244.922 47.6876 245.048 48.188 245.048ZM54.6138 240.912V245.685H53.7289V238.048H54.589V239.246H54.6685C54.8475 238.855 55.1259 238.542 55.5037 238.307C55.8849 238.068 56.3555 237.949 56.9157 237.949C57.4294 237.949 57.8801 238.056 58.2679 238.272C58.659 238.484 58.9623 238.797 59.1777 239.212C59.3965 239.626 59.5059 240.135 59.5059 240.738V245.685H58.6209V240.793C58.6209 240.166 58.4453 239.671 58.0939 239.306C57.7459 238.941 57.2786 238.759 56.6919 238.759C56.2909 238.759 55.9346 238.845 55.623 239.018C55.3115 239.19 55.0646 239.439 54.8823 239.763C54.7033 240.085 54.6138 240.468 54.6138 240.912ZM66.967 239.724L66.1566 239.952C66.0771 239.724 65.9644 239.516 65.8185 239.331C65.6727 239.145 65.4821 238.998 65.2468 238.888C65.0148 238.779 64.7264 238.724 64.3817 238.724C63.8647 238.724 63.4405 238.847 63.109 239.092C62.7776 239.338 62.6119 239.654 62.6119 240.042C62.6119 240.37 62.7246 240.637 62.9499 240.842C63.1786 241.044 63.5299 241.205 64.0039 241.324L65.1573 241.608C65.797 241.764 66.2759 242.011 66.5941 242.349C66.9156 242.687 67.0763 243.111 67.0763 243.621C67.0763 244.052 66.957 244.435 66.7184 244.77C66.4798 245.105 66.1467 245.368 65.7191 245.56C65.2949 245.749 64.8027 245.844 64.2425 245.844C63.4968 245.844 62.882 245.676 62.3981 245.342C61.9142 245.003 61.6043 244.516 61.4684 243.88L62.3185 243.671C62.4279 244.125 62.6417 244.468 62.9599 244.7C63.2814 244.932 63.704 245.048 64.2276 245.048C64.8143 245.048 65.2833 244.917 65.6346 244.655C65.9859 244.39 66.1616 244.059 66.1616 243.661C66.1616 243.353 66.0588 243.094 65.8533 242.886C65.6478 242.673 65.3363 242.518 64.9187 242.418L63.6708 242.12C63.0079 241.961 62.5174 241.709 62.1992 241.364C61.881 241.02 61.7219 240.592 61.7219 240.082C61.7219 239.661 61.8363 239.291 62.065 238.973C62.2937 238.651 62.6085 238.4 63.0096 238.217C63.4106 238.035 63.868 237.944 64.3817 237.944C65.0811 237.944 65.6396 238.103 66.0572 238.421C66.4781 238.736 66.7814 239.17 66.967 239.724ZM72.1561 238.048V238.819H68.4025V238.048H72.1561ZM69.5758 245.685V236.93C69.5758 236.519 69.6703 236.172 69.8592 235.891C70.0514 235.609 70.3017 235.395 70.6099 235.249C70.9181 235.103 71.2446 235.03 71.5893 235.03C71.8213 235.03 72.0136 235.05 72.166 235.09C72.3218 235.127 72.4444 235.163 72.5339 235.199L72.2754 235.975C72.2091 235.955 72.1279 235.932 72.0318 235.905C71.9357 235.879 71.8147 235.866 71.6689 235.866C71.2844 235.866 70.9877 235.973 70.7789 236.189C70.5701 236.404 70.4657 236.713 70.4657 237.114L70.4608 245.685H69.5758ZM76.6951 245.844C75.9825 245.844 75.3661 245.678 74.8457 245.347C74.3253 245.012 73.9226 244.549 73.6376 243.959C73.3559 243.366 73.215 242.683 73.215 241.911C73.215 241.142 73.3559 240.459 73.6376 239.863C73.9226 239.263 74.3154 238.794 74.8159 238.456C75.3197 238.114 75.9013 237.944 76.5609 237.944C76.9752 237.944 77.3746 238.02 77.7591 238.172C78.1435 238.322 78.4882 238.552 78.7931 238.864C79.1014 239.172 79.345 239.561 79.524 240.032C79.7029 240.499 79.7924 241.053 79.7924 241.692V242.13H73.8265V241.349H78.8876C78.8876 240.859 78.7882 240.418 78.5893 240.027C78.3938 239.632 78.1203 239.321 77.769 239.092C77.421 238.864 77.0183 238.749 76.5609 238.749C76.077 238.749 75.6511 238.878 75.2832 239.137C74.9153 239.396 74.627 239.737 74.4181 240.161C74.2127 240.585 74.1083 241.049 74.1049 241.553V242.021C74.1049 242.627 74.2093 243.157 74.4181 243.611C74.6303 244.062 74.9302 244.412 75.318 244.66C75.7058 244.909 76.1648 245.033 76.6951 245.033C77.0564 245.033 77.3729 244.977 77.6447 244.864C77.9198 244.752 78.1502 244.601 78.3358 244.412C78.5247 244.22 78.6672 244.009 78.7633 243.78L79.6035 244.054C79.4875 244.375 79.2969 244.672 79.0318 244.944C78.7699 245.216 78.4418 245.434 78.0474 245.6C77.6563 245.762 77.2056 245.844 76.6951 245.844ZM81.7425 245.685V238.048H82.6026V239.222H82.6673C82.8197 238.837 83.0849 238.527 83.4627 238.292C83.8439 238.053 84.2747 237.934 84.7553 237.934C84.8282 237.934 84.9094 237.936 84.9989 237.939C85.0884 237.942 85.163 237.945 85.2227 237.949V238.849C85.1829 238.842 85.1133 238.832 85.0138 238.819C84.9144 238.806 84.8067 238.799 84.6907 238.799C84.293 238.799 83.9383 238.883 83.6268 239.052C83.3185 239.218 83.0749 239.449 82.896 239.744C82.717 240.039 82.6275 240.375 82.6275 240.753V245.685H81.7425Z" fill="#333333"/>
<rect x="211" y="199" width="180" height="65" rx="8" fill="#EEF4FF"/>
<path d="M370 236L380 226" stroke="#999999" stroke-width="1.2" stroke-linecap="round"/>
<path d="M380 236L370 226" stroke="#999999" stroke-width="1.2" stroke-linecap="round"/>
<path d="M222.775 228.001H221.801L225.505 217.819H226.499L230.203 228.001H229.229L226.037 219.027H225.967L222.775 228.001ZM223.476 224.098H228.528V224.934H223.476V224.098ZM231.764 230.865V220.365H232.624V221.821H232.729C232.835 221.593 232.98 221.359 233.166 221.12C233.352 220.878 233.597 220.675 233.902 220.509C234.21 220.343 234.598 220.26 235.065 220.26C235.695 220.26 236.245 220.426 236.716 220.757C237.19 221.085 237.558 221.546 237.819 222.139C238.085 222.729 238.217 223.417 238.217 224.203C238.217 224.992 238.085 225.683 237.819 226.276C237.558 226.869 237.19 227.331 236.716 227.663C236.245 227.994 235.698 228.16 235.075 228.16C234.614 228.16 234.228 228.077 233.917 227.911C233.608 227.746 233.358 227.542 233.166 227.3C232.977 227.055 232.831 226.816 232.729 226.584H232.649V230.865H231.764ZM232.639 224.188C232.639 224.804 232.73 225.351 232.912 225.828C233.098 226.302 233.363 226.675 233.708 226.947C234.056 227.215 234.477 227.35 234.971 227.35C235.478 227.35 235.905 227.21 236.253 226.932C236.605 226.65 236.872 226.271 237.054 225.794C237.239 225.316 237.332 224.781 237.332 224.188C237.332 223.601 237.241 223.072 237.059 222.602C236.88 222.131 236.615 221.758 236.263 221.483C235.912 221.205 235.481 221.066 234.971 221.066C234.474 221.066 234.051 221.2 233.703 221.468C233.355 221.733 233.09 222.101 232.907 222.572C232.729 223.039 232.639 223.578 232.639 224.188ZM240.159 230.865V220.365H241.019V221.821H241.123C241.229 221.593 241.375 221.359 241.561 221.12C241.746 220.878 241.991 220.675 242.296 220.509C242.605 220.343 242.992 220.26 243.46 220.26C244.089 220.26 244.64 220.426 245.11 220.757C245.584 221.085 245.952 221.546 246.214 222.139C246.479 222.729 246.612 223.417 246.612 224.203C246.612 224.992 246.479 225.683 246.214 226.276C245.952 226.869 245.584 227.331 245.11 227.663C244.64 227.994 244.093 228.16 243.47 228.16C243.009 228.16 242.623 228.077 242.311 227.911C242.003 227.746 241.753 227.542 241.561 227.3C241.372 227.055 241.226 226.816 241.123 226.584H241.044V230.865H240.159ZM241.034 224.188C241.034 224.804 241.125 225.351 241.307 225.828C241.493 226.302 241.758 226.675 242.102 226.947C242.45 227.215 242.871 227.35 243.365 227.35C243.872 227.35 244.3 227.21 244.648 226.932C244.999 226.65 245.266 226.271 245.448 225.794C245.634 225.316 245.727 224.781 245.727 224.188C245.727 223.601 245.636 223.072 245.453 222.602C245.274 222.131 245.009 221.758 244.658 221.483C244.307 221.205 243.876 221.066 243.365 221.066C242.868 221.066 242.445 221.2 242.097 221.468C241.749 221.733 241.484 222.101 241.302 222.572C241.123 223.039 241.034 223.578 241.034 224.188ZM248.553 228.001V220.365H249.413V221.538H249.478C249.63 221.153 249.895 220.844 250.273 220.608C250.654 220.37 251.085 220.25 251.566 220.25C251.639 220.25 251.72 220.252 251.809 220.255C251.899 220.259 251.974 220.262 252.033 220.265V221.165C251.993 221.158 251.924 221.148 251.824 221.135C251.725 221.122 251.617 221.115 251.501 221.115C251.104 221.115 250.749 221.2 250.437 221.369C250.129 221.535 249.885 221.765 249.706 222.06C249.528 222.355 249.438 222.691 249.438 223.069V228.001H248.553ZM256.279 228.16C255.619 228.16 255.036 227.993 254.529 227.658C254.025 227.323 253.631 226.861 253.346 226.271C253.061 225.678 252.918 224.993 252.918 224.218C252.918 223.435 253.061 222.748 253.346 222.154C253.631 221.558 254.025 221.094 254.529 220.762C255.036 220.428 255.619 220.26 256.279 220.26C256.939 220.26 257.52 220.428 258.024 220.762C258.528 221.097 258.922 221.561 259.207 222.154C259.496 222.748 259.64 223.435 259.64 224.218C259.64 224.993 259.497 225.678 259.212 226.271C258.927 226.861 258.531 227.323 258.024 227.658C257.52 227.993 256.939 228.16 256.279 228.16ZM256.279 227.35C256.809 227.35 257.258 227.207 257.626 226.922C257.994 226.637 258.273 226.258 258.461 225.784C258.654 225.31 258.75 224.788 258.75 224.218C258.75 223.648 258.654 223.124 258.461 222.647C258.273 222.169 257.994 221.786 257.626 221.498C257.258 221.21 256.809 221.066 256.279 221.066C255.752 221.066 255.303 221.21 254.932 221.498C254.564 221.786 254.284 222.169 254.091 222.647C253.903 223.124 253.808 223.648 253.808 224.218C253.808 224.788 253.903 225.31 254.091 225.784C254.284 226.258 254.564 226.637 254.932 226.922C255.3 227.207 255.749 227.35 256.279 227.35ZM267.22 220.365L264.431 228.001H263.487L260.697 220.365H261.657L263.924 226.833H263.994L266.261 220.365H267.22ZM270.852 228.175C270.391 228.175 269.97 228.085 269.589 227.907C269.208 227.724 268.905 227.462 268.679 227.121C268.454 226.776 268.341 226.359 268.341 225.868C268.341 225.49 268.413 225.172 268.555 224.914C268.698 224.655 268.9 224.443 269.162 224.277C269.423 224.112 269.733 223.981 270.091 223.884C270.449 223.788 270.844 223.714 271.275 223.661C271.702 223.608 272.063 223.561 272.358 223.522C272.657 223.482 272.884 223.419 273.039 223.333C273.195 223.246 273.273 223.107 273.273 222.915V222.736C273.273 222.216 273.117 221.806 272.806 221.508C272.498 221.206 272.053 221.056 271.473 221.056C270.923 221.056 270.474 221.177 270.126 221.419C269.781 221.661 269.539 221.946 269.4 222.274L268.56 221.97C268.732 221.553 268.971 221.22 269.276 220.971C269.581 220.719 269.922 220.539 270.3 220.429C270.678 220.317 271.061 220.26 271.449 220.26C271.74 220.26 272.043 220.298 272.358 220.375C272.676 220.451 272.971 220.583 273.243 220.772C273.515 220.958 273.735 221.218 273.904 221.553C274.074 221.884 274.158 222.305 274.158 222.816V228.001H273.273V226.793H273.218C273.112 227.018 272.955 227.237 272.746 227.449C272.537 227.661 272.275 227.835 271.961 227.971C271.646 228.107 271.276 228.175 270.852 228.175ZM270.971 227.365C271.442 227.365 271.85 227.26 272.194 227.051C272.539 226.843 272.804 226.566 272.99 226.221C273.179 225.873 273.273 225.49 273.273 225.073V223.969C273.207 224.032 273.096 224.088 272.94 224.138C272.788 224.188 272.61 224.233 272.408 224.272C272.209 224.309 272.01 224.34 271.811 224.367C271.613 224.393 271.434 224.416 271.275 224.436C270.844 224.489 270.476 224.572 270.171 224.685C269.866 224.798 269.632 224.953 269.47 225.152C269.307 225.348 269.226 225.6 269.226 225.908C269.226 226.372 269.392 226.732 269.723 226.987C270.055 227.239 270.471 227.365 270.971 227.365ZM277.397 217.819V228.001H276.512V217.819H277.397ZM289.388 220.365C289.332 219.798 289.082 219.347 288.638 219.012C288.194 218.678 287.635 218.51 286.962 218.51C286.488 218.51 286.071 218.591 285.71 218.754C285.352 218.916 285.07 219.142 284.864 219.43C284.662 219.715 284.561 220.04 284.561 220.404C284.561 220.673 284.619 220.908 284.735 221.11C284.851 221.313 285.007 221.487 285.202 221.632C285.401 221.775 285.62 221.898 285.859 222C286.101 222.103 286.344 222.189 286.589 222.259L287.663 222.567C287.988 222.657 288.313 222.771 288.638 222.91C288.963 223.049 289.259 223.225 289.528 223.437C289.799 223.646 290.017 223.903 290.179 224.208C290.345 224.509 290.428 224.872 290.428 225.296C290.428 225.84 290.287 226.329 290.005 226.763C289.723 227.197 289.319 227.542 288.792 227.797C288.265 228.049 287.634 228.175 286.898 228.175C286.205 228.175 285.603 228.061 285.093 227.832C284.583 227.6 284.182 227.28 283.89 226.872C283.598 226.465 283.434 225.992 283.398 225.456H284.352C284.385 225.857 284.518 226.196 284.75 226.475C284.982 226.753 285.284 226.965 285.655 227.111C286.026 227.254 286.44 227.325 286.898 227.325C287.405 227.325 287.856 227.24 288.25 227.071C288.648 226.899 288.959 226.66 289.185 226.355C289.413 226.047 289.528 225.689 289.528 225.282C289.528 224.937 289.438 224.648 289.259 224.416C289.08 224.181 288.83 223.984 288.509 223.825C288.19 223.666 287.821 223.525 287.4 223.402L286.182 223.044C285.383 222.806 284.763 222.476 284.322 222.055C283.882 221.634 283.661 221.097 283.661 220.444C283.661 219.897 283.807 219.417 284.099 219.002C284.394 218.585 284.791 218.26 285.292 218.028C285.796 217.793 286.361 217.675 286.987 217.675C287.62 217.675 288.18 217.791 288.668 218.023C289.155 218.255 289.541 218.575 289.826 218.983C290.114 219.387 290.268 219.848 290.288 220.365H289.388ZM295.489 220.365V221.135H291.844V220.365H295.489ZM292.983 218.535H293.873V226.007C293.873 226.326 293.928 226.576 294.037 226.758C294.146 226.937 294.289 227.065 294.464 227.141C294.64 227.214 294.827 227.25 295.026 227.25C295.142 227.25 295.242 227.244 295.325 227.23C295.407 227.214 295.48 227.197 295.543 227.181L295.732 227.981C295.646 228.014 295.54 228.044 295.414 228.071C295.288 228.1 295.132 228.115 294.947 228.115C294.622 228.115 294.309 228.044 294.007 227.902C293.709 227.759 293.464 227.547 293.271 227.265C293.079 226.983 292.983 226.634 292.983 226.216V218.535ZM300.504 228.16C299.791 228.16 299.175 227.994 298.654 227.663C298.134 227.328 297.731 226.866 297.446 226.276C297.164 225.683 297.024 225 297.024 224.228C297.024 223.459 297.164 222.776 297.446 222.179C297.731 221.579 298.124 221.11 298.624 220.772C299.128 220.431 299.71 220.26 300.369 220.26C300.784 220.26 301.183 220.336 301.568 220.489C301.952 220.638 302.297 220.868 302.602 221.18C302.91 221.488 303.154 221.878 303.333 222.348C303.512 222.816 303.601 223.369 303.601 224.009V224.446H297.635V223.666H302.696C302.696 223.175 302.597 222.734 302.398 222.343C302.202 221.949 301.929 221.637 301.578 221.409C301.23 221.18 300.827 221.066 300.369 221.066C299.886 221.066 299.46 221.195 299.092 221.453C298.724 221.712 298.436 222.053 298.227 222.478C298.021 222.902 297.917 223.366 297.914 223.87V224.337C297.914 224.943 298.018 225.474 298.227 225.928C298.439 226.379 298.739 226.728 299.127 226.977C299.514 227.225 299.973 227.35 300.504 227.35C300.865 227.35 301.182 227.293 301.453 227.181C301.728 227.068 301.959 226.917 302.144 226.728C302.333 226.536 302.476 226.326 302.572 226.097L303.412 226.37C303.296 226.692 303.106 226.988 302.84 227.26C302.579 227.532 302.25 227.751 301.856 227.916C301.465 228.079 301.014 228.16 300.504 228.16ZM305.551 230.865V220.365H306.411V221.821H306.516C306.622 221.593 306.768 221.359 306.953 221.12C307.139 220.878 307.384 220.675 307.689 220.509C307.997 220.343 308.385 220.26 308.852 220.26C309.482 220.26 310.032 220.426 310.503 220.757C310.977 221.085 311.345 221.546 311.607 222.139C311.872 222.729 312.004 223.417 312.004 224.203C312.004 224.992 311.872 225.683 311.607 226.276C311.345 226.869 310.977 227.331 310.503 227.663C310.032 227.994 309.485 228.16 308.862 228.16C308.402 228.16 308.015 228.077 307.704 227.911C307.396 227.746 307.145 227.542 306.953 227.3C306.764 227.055 306.618 226.816 306.516 226.584H306.436V230.865H305.551ZM306.426 224.188C306.426 224.804 306.517 225.351 306.7 225.828C306.885 226.302 307.15 226.675 307.495 226.947C307.843 227.215 308.264 227.35 308.758 227.35C309.265 227.35 309.692 227.21 310.04 226.932C310.392 226.65 310.659 226.271 310.841 225.794C311.027 225.316 311.119 224.781 311.119 224.188C311.119 223.601 311.028 223.072 310.846 222.602C310.667 222.131 310.402 221.758 310.05 221.483C309.699 221.205 309.268 221.066 308.758 221.066C308.261 221.066 307.838 221.2 307.49 221.468C307.142 221.733 306.877 222.101 306.695 222.572C306.516 223.039 306.426 223.578 306.426 224.188ZM222.76 234.819H223.834L227.528 243.688H227.618L231.312 234.819H232.385V245.001H231.51V236.783H231.431L227.996 245.001H227.15L223.715 236.783H223.635V245.001H222.76V234.819ZM237.041 245.175C236.581 245.175 236.16 245.085 235.779 244.907C235.397 244.724 235.094 244.462 234.869 244.121C234.643 243.776 234.531 243.359 234.531 242.868C234.531 242.49 234.602 242.172 234.744 241.914C234.887 241.655 235.089 241.443 235.351 241.277C235.613 241.112 235.923 240.981 236.281 240.884C236.639 240.788 237.033 240.714 237.464 240.661C237.892 240.608 238.253 240.561 238.548 240.522C238.846 240.482 239.073 240.419 239.229 240.333C239.385 240.246 239.463 240.107 239.463 239.915V239.736C239.463 239.216 239.307 238.806 238.995 238.508C238.687 238.206 238.243 238.056 237.663 238.056C237.113 238.056 236.664 238.177 236.316 238.419C235.971 238.661 235.729 238.946 235.59 239.274L234.749 238.97C234.922 238.553 235.16 238.22 235.465 237.971C235.77 237.719 236.112 237.539 236.49 237.429C236.867 237.317 237.25 237.26 237.638 237.26C237.93 237.26 238.233 237.298 238.548 237.375C238.866 237.451 239.161 237.583 239.433 237.772C239.704 237.958 239.925 238.218 240.094 238.553C240.263 238.884 240.347 239.305 240.347 239.816V245.001H239.463V243.793H239.408C239.302 244.018 239.144 244.237 238.936 244.449C238.727 244.661 238.465 244.835 238.15 244.971C237.835 245.107 237.466 245.175 237.041 245.175ZM237.161 244.365C237.631 244.365 238.039 244.26 238.384 244.051C238.728 243.843 238.994 243.566 239.179 243.221C239.368 242.873 239.463 242.49 239.463 242.073V240.969C239.396 241.032 239.285 241.088 239.129 241.138C238.977 241.188 238.8 241.233 238.597 241.272C238.399 241.309 238.2 241.34 238.001 241.367C237.802 241.393 237.623 241.416 237.464 241.436C237.033 241.489 236.665 241.572 236.36 241.685C236.055 241.798 235.822 241.953 235.659 242.152C235.497 242.348 235.416 242.6 235.416 242.908C235.416 243.372 235.581 243.732 235.913 243.987C236.244 244.239 236.66 244.365 237.161 244.365ZM243.586 240.228V245.001H242.702V237.365H243.562V238.563H243.641C243.82 238.172 244.099 237.858 244.476 237.623C244.858 237.384 245.328 237.265 245.888 237.265C246.402 237.265 246.853 237.373 247.241 237.588C247.632 237.8 247.935 238.114 248.15 238.528C248.369 238.942 248.479 239.451 248.479 240.054V245.001H247.594V240.109C247.594 239.483 247.418 238.987 247.067 238.622C246.719 238.258 246.251 238.076 245.665 238.076C245.264 238.076 244.907 238.162 244.596 238.334C244.284 238.506 244.037 238.755 243.855 239.08C243.676 239.401 243.586 239.784 243.586 240.228ZM252.942 245.175C252.481 245.175 252.06 245.085 251.679 244.907C251.298 244.724 250.995 244.462 250.769 244.121C250.544 243.776 250.431 243.359 250.431 242.868C250.431 242.49 250.502 242.172 250.645 241.914C250.787 241.655 250.99 241.443 251.251 241.277C251.513 241.112 251.823 240.981 252.181 240.884C252.539 240.788 252.933 240.714 253.364 240.661C253.792 240.608 254.153 240.561 254.448 240.522C254.746 240.482 254.973 240.419 255.129 240.333C255.285 240.246 255.363 240.107 255.363 239.915V239.736C255.363 239.216 255.207 238.806 254.896 238.508C254.587 238.206 254.143 238.056 253.563 238.056C253.013 238.056 252.564 238.177 252.216 238.419C251.871 238.661 251.629 238.946 251.49 239.274L250.65 238.97C250.822 238.553 251.061 238.22 251.366 237.971C251.671 237.719 252.012 237.539 252.39 237.429C252.768 237.317 253.151 237.26 253.538 237.26C253.83 237.26 254.133 237.298 254.448 237.375C254.766 237.451 255.061 237.583 255.333 237.772C255.605 237.958 255.825 238.218 255.994 238.553C256.163 238.884 256.248 239.305 256.248 239.816V245.001H255.363V243.793H255.308C255.202 244.018 255.045 244.237 254.836 244.449C254.627 244.661 254.365 244.835 254.05 244.971C253.736 245.107 253.366 245.175 252.942 245.175ZM253.061 244.365C253.532 244.365 253.939 244.26 254.284 244.051C254.629 243.843 254.894 243.566 255.08 243.221C255.268 242.873 255.363 242.49 255.363 242.073V240.969C255.297 241.032 255.186 241.088 255.03 241.138C254.877 241.188 254.7 241.233 254.498 241.272C254.299 241.309 254.1 241.34 253.901 241.367C253.702 241.393 253.523 241.416 253.364 241.436C252.933 241.489 252.566 241.572 252.261 241.685C251.956 241.798 251.722 241.953 251.56 242.152C251.397 242.348 251.316 242.6 251.316 242.908C251.316 243.372 251.482 243.732 251.813 243.987C252.145 244.239 252.561 244.365 253.061 244.365ZM261.515 248.024C260.995 248.024 260.539 247.956 260.148 247.82C259.757 247.687 259.427 247.505 259.159 247.273C258.89 247.041 258.681 246.781 258.532 246.492L259.258 246.015C259.368 246.207 259.513 246.396 259.696 246.582C259.881 246.768 260.122 246.922 260.417 247.044C260.715 247.167 261.081 247.228 261.515 247.228C262.191 247.228 262.737 247.059 263.151 246.721C263.569 246.383 263.777 245.858 263.777 245.145V243.425H263.698C263.595 243.657 263.448 243.889 263.255 244.121C263.063 244.35 262.811 244.54 262.5 244.693C262.191 244.845 261.809 244.921 261.351 244.921C260.741 244.921 260.199 244.771 259.725 244.469C259.255 244.167 258.884 243.737 258.612 243.176C258.343 242.613 258.209 241.942 258.209 241.163C258.209 240.391 258.34 239.711 258.602 239.125C258.867 238.538 259.237 238.081 259.711 237.752C260.185 237.424 260.736 237.26 261.366 237.26C261.833 237.26 262.221 237.343 262.529 237.509C262.838 237.671 263.085 237.873 263.27 238.115C263.459 238.357 263.607 238.593 263.713 238.821H263.802V237.365H264.667V245.2C264.667 245.846 264.53 246.378 264.255 246.796C263.98 247.213 263.605 247.522 263.131 247.72C262.657 247.923 262.118 248.024 261.515 248.024ZM261.456 244.111C261.946 244.111 262.365 243.993 262.713 243.758C263.061 243.519 263.328 243.178 263.514 242.734C263.699 242.29 263.792 241.761 263.792 241.148C263.792 240.551 263.701 240.023 263.519 239.562C263.337 239.098 263.071 238.733 262.723 238.468C262.379 238.2 261.956 238.066 261.456 238.066C260.945 238.066 260.514 238.203 260.163 238.478C259.812 238.753 259.547 239.125 259.368 239.592C259.189 240.056 259.099 240.575 259.099 241.148C259.099 241.731 259.19 242.247 259.373 242.694C259.555 243.138 259.822 243.486 260.173 243.738C260.524 243.987 260.952 244.111 261.456 244.111ZM270.097 245.16C269.385 245.16 268.768 244.994 268.248 244.663C267.728 244.328 267.325 243.866 267.04 243.276C266.758 242.683 266.617 242 266.617 241.228C266.617 240.459 266.758 239.776 267.04 239.179C267.325 238.579 267.718 238.11 268.218 237.772C268.722 237.431 269.304 237.26 269.963 237.26C270.378 237.26 270.777 237.336 271.161 237.489C271.546 237.638 271.891 237.868 272.195 238.18C272.504 238.488 272.747 238.878 272.926 239.348C273.105 239.816 273.195 240.369 273.195 241.009V241.446H267.229V240.666H272.29C272.29 240.175 272.191 239.734 271.992 239.343C271.796 238.949 271.523 238.637 271.171 238.409C270.823 238.18 270.421 238.066 269.963 238.066C269.479 238.066 269.053 238.195 268.686 238.453C268.318 238.712 268.029 239.053 267.82 239.478C267.615 239.902 267.511 240.366 267.507 240.87V241.337C267.507 241.943 267.612 242.474 267.82 242.928C268.033 243.379 268.333 243.728 268.72 243.977C269.108 244.225 269.567 244.35 270.097 244.35C270.459 244.35 270.775 244.293 271.047 244.181C271.322 244.068 271.552 243.917 271.738 243.728C271.927 243.536 272.07 243.326 272.166 243.097L273.006 243.37C272.89 243.692 272.699 243.988 272.434 244.26C272.172 244.532 271.844 244.751 271.45 244.916C271.059 245.079 270.608 245.16 270.097 245.16ZM275.145 245.001V237.365H276.005V238.538H276.085C276.237 238.143 276.491 237.834 276.845 237.608C277.203 237.38 277.632 237.265 278.133 237.265C278.66 237.265 279.092 237.389 279.43 237.638C279.772 237.883 280.027 238.221 280.196 238.652H280.261C280.433 238.228 280.713 237.892 281.101 237.643C281.492 237.391 281.966 237.265 282.523 237.265C283.232 237.265 283.792 237.489 284.203 237.936C284.614 238.38 284.82 239.03 284.82 239.885V245.001H283.935V239.885C283.935 239.282 283.781 238.83 283.472 238.528C283.164 238.226 282.758 238.076 282.254 238.076C281.671 238.076 281.222 238.255 280.907 238.612C280.592 238.97 280.435 239.425 280.435 239.975V245.001H279.53V239.806C279.53 239.289 279.386 238.871 279.097 238.553C278.809 238.235 278.403 238.076 277.879 238.076C277.528 238.076 277.211 238.162 276.93 238.334C276.651 238.506 276.431 238.747 276.268 239.055C276.109 239.36 276.03 239.711 276.03 240.109V245.001H275.145ZM290.25 245.16C289.537 245.16 288.921 244.994 288.4 244.663C287.88 244.328 287.477 243.866 287.192 243.276C286.911 242.683 286.77 242 286.77 241.228C286.77 240.459 286.911 239.776 287.192 239.179C287.477 238.579 287.87 238.11 288.371 237.772C288.874 237.431 289.456 237.26 290.116 237.26C290.53 237.26 290.929 237.336 291.314 237.489C291.698 237.638 292.043 237.868 292.348 238.18C292.656 238.488 292.9 238.878 293.079 239.348C293.258 239.816 293.347 240.369 293.347 241.009V241.446H287.381V240.666H292.442C292.442 240.175 292.343 239.734 292.144 239.343C291.948 238.949 291.675 238.637 291.324 238.409C290.976 238.18 290.573 238.066 290.116 238.066C289.632 238.066 289.206 238.195 288.838 238.453C288.47 238.712 288.182 239.053 287.973 239.478C287.767 239.902 287.663 240.366 287.66 240.87V241.337C287.66 241.943 287.764 242.474 287.973 242.928C288.185 243.379 288.485 243.728 288.873 243.977C289.26 244.225 289.72 244.35 290.25 244.35C290.611 244.35 290.928 244.293 291.199 244.181C291.474 244.068 291.705 243.917 291.89 243.728C292.079 243.536 292.222 243.326 292.318 243.097L293.158 243.37C293.042 243.692 292.852 243.988 292.586 244.26C292.325 244.532 291.997 244.751 291.602 244.916C291.211 245.079 290.76 245.16 290.25 245.16ZM296.182 240.228V245.001H295.297V237.365H296.157V238.563H296.237C296.416 238.172 296.694 237.858 297.072 237.623C297.453 237.384 297.924 237.265 298.484 237.265C298.998 237.265 299.449 237.373 299.836 237.588C300.227 237.8 300.531 238.114 300.746 238.528C300.965 238.942 301.074 239.451 301.074 240.054V245.001H300.189V240.109C300.189 239.483 300.014 238.987 299.662 238.622C299.314 238.258 298.847 238.076 298.26 238.076C297.859 238.076 297.503 238.162 297.191 238.334C296.88 238.506 296.633 238.755 296.451 239.08C296.272 239.401 296.182 239.784 296.182 240.228ZM306.412 237.365V238.135H302.768V237.365H306.412ZM303.907 235.535H304.797V243.007C304.797 243.326 304.851 243.576 304.961 243.758C305.07 243.937 305.213 244.065 305.388 244.141C305.564 244.214 305.751 244.25 305.95 244.25C306.066 244.25 306.166 244.244 306.248 244.23C306.331 244.214 306.404 244.197 306.467 244.181L306.656 244.981C306.57 245.014 306.464 245.044 306.338 245.071C306.212 245.1 306.056 245.115 305.871 245.115C305.546 245.115 305.233 245.044 304.931 244.902C304.633 244.759 304.387 244.547 304.195 244.265C304.003 243.983 303.907 243.634 303.907 243.216V235.535Z" fill="#333333"/>
</svg>
