<svg width="412" height="285" viewBox="0 0 412 285" fill="none" xmlns="http://www.w3.org/2000/svg">
<path d="M399 0.75H13C6.23451 0.75 0.75 6.23451 0.75 13V272C0.75 278.766 6.2345 284.25 13 284.25H399C405.765 284.25 411.25 278.766 411.25 272V13C411.25 6.23451 405.766 0.75 399 0.75Z" fill="white" stroke="#EBEBEB" stroke-width="0.5" stroke-linecap="square"/>
<path d="M29 174.5H383C387.142 174.5 390.5 177.858 390.5 182V256C390.5 260.142 387.142 263.5 383 263.5H29C24.8579 263.5 21.5 260.142 21.5 256V182C21.5 177.858 24.8579 174.5 29 174.5Z" stroke="#F5F5F5"/>
<rect x="41" y="194" width="127.709" height="28" rx="14" fill="#FEF1EC"/>
<path d="M51.6321 212V204.727H53.1697V210.732H56.2876V212H51.6321ZM58.8329 212.103C58.4849 212.103 58.1748 212.043 57.9025 211.922C57.6303 211.799 57.4148 211.618 57.2562 211.379C57.1 211.137 57.0218 210.836 57.0218 210.477C57.0218 210.174 57.0775 209.919 57.1887 209.713C57.3 209.507 57.4515 209.341 57.6433 209.216C57.835 209.09 58.0529 208.996 58.2967 208.932C58.5429 208.868 58.801 208.823 59.0708 208.797C59.3881 208.764 59.6438 208.733 59.8379 208.705C60.032 208.674 60.1729 208.629 60.2605 208.57C60.3481 208.51 60.3919 208.423 60.3919 208.307V208.286C60.3919 208.061 60.3208 207.887 60.1788 207.763C60.0391 207.64 59.8403 207.579 59.5822 207.579C59.31 207.579 59.0933 207.639 58.9324 207.76C58.7714 207.878 58.6648 208.027 58.6127 208.207L57.2136 208.094C57.2846 207.762 57.4243 207.476 57.6326 207.234C57.841 206.991 58.1097 206.804 58.4387 206.673C58.7702 206.541 59.1537 206.474 59.5893 206.474C59.8923 206.474 60.1824 206.51 60.4593 206.581C60.7387 206.652 60.9861 206.762 61.2015 206.911C61.4193 207.06 61.591 207.252 61.7164 207.487C61.8419 207.719 61.9047 207.997 61.9047 208.321V212H60.47V211.244H60.4274C60.3398 211.414 60.2226 211.564 60.0758 211.695C59.929 211.822 59.7527 211.923 59.5467 211.996C59.3407 212.067 59.1028 212.103 58.8329 212.103ZM59.2662 211.059C59.4887 211.059 59.6852 211.015 59.8556 210.928C60.0261 210.838 60.1599 210.717 60.2569 210.565C60.354 210.414 60.4025 210.242 60.4025 210.05V209.472C60.3552 209.502 60.2901 209.531 60.2072 209.557C60.1267 209.58 60.0356 209.603 59.9338 209.624C59.832 209.643 59.7302 209.661 59.6284 209.678C59.5266 209.692 59.4342 209.705 59.3514 209.717C59.1738 209.743 59.0188 209.784 58.8862 209.841C58.7536 209.898 58.6506 209.975 58.5772 210.072C58.5038 210.166 58.4672 210.285 58.4672 210.427C58.4672 210.633 58.5417 210.79 58.6909 210.899C58.8424 211.006 59.0342 211.059 59.2662 211.059ZM67.6167 208.101L66.2317 208.186C66.208 208.068 66.1571 207.961 66.079 207.866C66.0009 207.769 65.8979 207.692 65.7701 207.636C65.6446 207.576 65.4943 207.547 65.3191 207.547C65.0847 207.547 64.887 207.597 64.726 207.696C64.565 207.793 64.4846 207.923 64.4846 208.087C64.4846 208.217 64.5366 208.327 64.6408 208.417C64.745 208.507 64.9237 208.579 65.177 208.634L66.1642 208.832C66.6945 208.941 67.0899 209.116 67.3503 209.358C67.6107 209.599 67.7409 209.917 67.7409 210.31C67.7409 210.667 67.6356 210.981 67.4249 211.251C67.2166 211.521 66.9301 211.731 66.5655 211.883C66.2033 212.032 65.7855 212.107 65.312 212.107C64.5899 212.107 64.0146 211.956 63.5861 211.656C63.16 211.353 62.9102 210.941 62.8368 210.42L64.3248 210.342C64.3697 210.562 64.4786 210.73 64.6515 210.846C64.8243 210.96 65.0456 211.016 65.3155 211.016C65.5807 211.016 65.7937 210.965 65.9547 210.864C66.1181 210.759 66.2009 210.626 66.2033 210.462C66.2009 210.325 66.1429 210.213 66.0293 210.125C65.9157 210.035 65.7405 209.966 65.5037 209.919L64.5591 209.731C64.0265 209.624 63.6299 209.44 63.3695 209.177C63.1114 208.914 62.9824 208.579 62.9824 208.172C62.9824 207.821 63.0771 207.52 63.2665 207.266C63.4583 207.013 63.727 206.818 64.0726 206.68C64.4206 206.543 64.8278 206.474 65.2942 206.474C65.9831 206.474 66.5253 206.62 66.9206 206.911C67.3184 207.202 67.5504 207.599 67.6167 208.101ZM71.5948 206.545V207.682H68.31V206.545H71.5948ZM69.0558 205.239H70.5685V210.324C70.5685 210.464 70.5898 210.572 70.6325 210.651C70.6751 210.726 70.7343 210.78 70.81 210.81C70.8881 210.841 70.9781 210.857 71.0799 210.857C71.1509 210.857 71.2219 210.851 71.293 210.839C71.364 210.825 71.4184 210.814 71.4563 210.807L71.6942 211.933C71.6185 211.956 71.512 211.983 71.3746 212.014C71.2373 212.047 71.0704 212.067 70.8739 212.075C70.5094 212.089 70.1897 212.04 69.9151 211.929C69.6429 211.818 69.431 211.645 69.2795 211.411C69.128 211.176 69.0534 210.88 69.0558 210.523V205.239ZM74.9231 204.727H76.8194L78.8223 209.614H78.9075L80.9103 204.727H82.8066V212H81.3152V207.266H81.2548L79.3727 211.964H78.3571L76.475 207.249H76.4146V212H74.9231V204.727ZM86.5096 212.107C85.958 212.107 85.4809 211.989 85.0785 211.755C84.6784 211.518 84.3694 211.189 84.1516 210.768C83.9338 210.344 83.8249 209.853 83.8249 209.294C83.8249 208.731 83.9338 208.238 84.1516 207.817C84.3694 207.393 84.6784 207.064 85.0785 206.83C85.4809 206.593 85.958 206.474 86.5096 206.474C87.0612 206.474 87.5371 206.593 87.9371 206.83C88.3396 207.064 88.6497 207.393 88.8675 207.817C89.0853 208.238 89.1942 208.731 89.1942 209.294C89.1942 209.853 89.0853 210.344 88.8675 210.768C88.6497 211.189 88.3396 211.518 87.9371 211.755C87.5371 211.989 87.0612 212.107 86.5096 212.107ZM86.5167 210.935C86.7676 210.935 86.9772 210.864 87.1452 210.722C87.3133 210.577 87.44 210.381 87.5252 210.132C87.6128 209.884 87.6566 209.601 87.6566 209.283C87.6566 208.966 87.6128 208.683 87.5252 208.435C87.44 208.186 87.3133 207.99 87.1452 207.845C86.9772 207.701 86.7676 207.629 86.5167 207.629C86.2634 207.629 86.0503 207.701 85.8775 207.845C85.707 207.99 85.578 208.186 85.4904 208.435C85.4052 208.683 85.3626 208.966 85.3626 209.283C85.3626 209.601 85.4052 209.884 85.4904 210.132C85.578 210.381 85.707 210.577 85.8775 210.722C86.0503 210.864 86.2634 210.935 86.5167 210.935ZM91.6907 208.847V212H90.1779V206.545H91.6197V207.508H91.6836C91.8043 207.191 92.0067 206.94 92.2908 206.755C92.5749 206.568 92.9194 206.474 93.3242 206.474C93.703 206.474 94.0333 206.557 94.315 206.723C94.5967 206.889 94.8157 207.125 94.9719 207.433C95.1282 207.739 95.2063 208.103 95.2063 208.527V212H93.6935V208.797C93.6959 208.463 93.6107 208.203 93.4379 208.016C93.265 207.826 93.0271 207.732 92.7241 207.732C92.5205 207.732 92.3406 207.775 92.1843 207.863C92.0304 207.951 91.9097 208.078 91.8221 208.246C91.7369 208.412 91.6931 208.612 91.6907 208.847ZM99.2999 206.545V207.682H96.0151V206.545H99.2999ZM96.7608 205.239H98.2736V210.324C98.2736 210.464 98.2949 210.572 98.3375 210.651C98.3801 210.726 98.4393 210.78 98.5151 210.81C98.5932 210.841 98.6832 210.857 98.785 210.857C98.856 210.857 98.927 210.851 98.998 210.839C99.0691 210.825 99.1235 210.814 99.1614 210.807L99.3993 211.933C99.3236 211.956 99.217 211.983 99.0797 212.014C98.9424 212.047 98.7755 212.067 98.579 212.075C98.2144 212.089 97.8948 212.04 97.6202 211.929C97.348 211.818 97.1361 211.645 96.9846 211.411C96.833 211.176 96.7585 210.88 96.7608 210.523V205.239ZM101.915 208.847V212H100.403V204.727H101.873V207.508H101.937C102.06 207.186 102.259 206.934 102.533 206.751C102.808 206.567 103.152 206.474 103.567 206.474C103.945 206.474 104.276 206.557 104.557 206.723C104.841 206.886 105.062 207.122 105.218 207.43C105.376 207.735 105.455 208.101 105.452 208.527V212H103.939V208.797C103.942 208.461 103.857 208.199 103.684 208.012C103.513 207.825 103.274 207.732 102.966 207.732C102.76 207.732 102.578 207.775 102.42 207.863C102.263 207.951 102.14 208.078 102.05 208.246C101.963 208.412 101.918 208.612 101.915 208.847ZM108.986 212V204.727H113.886V205.995H110.523V207.728H113.634V208.996H110.523V210.732H113.9V212H108.986ZM116.344 206.545L117.346 208.452L118.372 206.545H119.924L118.344 209.273L119.967 212H118.422L117.346 210.114L116.288 212H114.725L116.344 209.273L114.782 206.545H116.344ZM120.822 214.045V206.545H122.314V207.462H122.381C122.448 207.315 122.544 207.166 122.669 207.014C122.797 206.86 122.963 206.732 123.166 206.631C123.372 206.527 123.628 206.474 123.933 206.474C124.331 206.474 124.698 206.579 125.034 206.787C125.37 206.993 125.639 207.304 125.84 207.721C126.041 208.135 126.142 208.655 126.142 209.28C126.142 209.888 126.044 210.402 125.847 210.821C125.653 211.238 125.388 211.554 125.052 211.769C124.718 211.982 124.344 212.089 123.93 212.089C123.636 212.089 123.386 212.04 123.18 211.943C122.977 211.846 122.81 211.724 122.68 211.577C122.549 211.428 122.45 211.278 122.381 211.126H122.335V214.045H120.822ZM122.303 209.273C122.303 209.597 122.348 209.88 122.438 210.121C122.528 210.363 122.658 210.551 122.829 210.686C122.999 210.819 123.206 210.885 123.45 210.885C123.696 210.885 123.905 210.817 124.075 210.683C124.246 210.545 124.375 210.356 124.462 210.114C124.552 209.871 124.597 209.59 124.597 209.273C124.597 208.958 124.554 208.681 124.466 208.442C124.378 208.203 124.249 208.016 124.079 207.881C123.908 207.746 123.699 207.678 123.45 207.678C123.204 207.678 122.996 207.743 122.825 207.874C122.657 208.004 122.528 208.188 122.438 208.428C122.348 208.667 122.303 208.948 122.303 209.273ZM129.636 212.107C129.075 212.107 128.592 211.993 128.188 211.766C127.785 211.536 127.475 211.212 127.257 210.793C127.039 210.371 126.93 209.873 126.93 209.298C126.93 208.737 127.039 208.244 127.257 207.82C127.475 207.397 127.781 207.066 128.177 206.83C128.575 206.593 129.041 206.474 129.576 206.474C129.936 206.474 130.271 206.532 130.581 206.648C130.893 206.762 131.166 206.934 131.398 207.163C131.632 207.393 131.814 207.682 131.945 208.03C132.075 208.375 132.14 208.78 132.14 209.244V209.66H127.534V208.722H130.716C130.716 208.504 130.669 208.312 130.574 208.143C130.479 207.975 130.348 207.844 130.18 207.749C130.014 207.652 129.821 207.604 129.601 207.604C129.371 207.604 129.168 207.657 128.99 207.763C128.815 207.868 128.678 208.009 128.578 208.186C128.479 208.361 128.428 208.557 128.425 208.772V209.663C128.425 209.933 128.475 210.166 128.575 210.363C128.676 210.559 128.82 210.711 129.004 210.817C129.189 210.924 129.408 210.977 129.661 210.977C129.829 210.977 129.983 210.954 130.123 210.906C130.263 210.859 130.382 210.788 130.482 210.693C130.581 210.598 130.657 210.482 130.709 210.345L132.108 210.438C132.037 210.774 131.891 211.067 131.671 211.318C131.453 211.567 131.172 211.761 130.826 211.901C130.483 212.038 130.086 212.107 129.636 212.107ZM134.64 208.847V212H133.127V206.545H134.569V207.508H134.633C134.754 207.191 134.956 206.94 135.24 206.755C135.524 206.568 135.869 206.474 136.273 206.474C136.652 206.474 136.982 206.557 137.264 206.723C137.546 206.889 137.765 207.125 137.921 207.433C138.077 207.739 138.156 208.103 138.156 208.527V212H136.643V208.797C136.645 208.463 136.56 208.203 136.387 208.016C136.214 207.826 135.976 207.732 135.673 207.732C135.47 207.732 135.29 207.775 135.134 207.863C134.98 207.951 134.859 208.078 134.771 208.246C134.686 208.412 134.642 208.612 134.64 208.847ZM143.886 208.101L142.501 208.186C142.478 208.068 142.427 207.961 142.349 207.866C142.27 207.769 142.167 207.692 142.04 207.636C141.914 207.576 141.764 207.547 141.589 207.547C141.354 207.547 141.157 207.597 140.996 207.696C140.835 207.793 140.754 207.923 140.754 208.087C140.754 208.217 140.806 208.327 140.91 208.417C141.015 208.507 141.193 208.579 141.447 208.634L142.434 208.832C142.964 208.941 143.359 209.116 143.62 209.358C143.88 209.599 144.01 209.917 144.01 210.31C144.01 210.667 143.905 210.981 143.694 211.251C143.486 211.521 143.2 211.731 142.835 211.883C142.473 212.032 142.055 212.107 141.581 212.107C140.859 212.107 140.284 211.956 139.856 211.656C139.43 211.353 139.18 210.941 139.106 210.42L140.594 210.342C140.639 210.562 140.748 210.73 140.921 210.846C141.094 210.96 141.315 211.016 141.585 211.016C141.85 211.016 142.063 210.965 142.224 210.864C142.388 210.759 142.47 210.626 142.473 210.462C142.47 210.325 142.412 210.213 142.299 210.125C142.185 210.035 142.01 209.966 141.773 209.919L140.829 209.731C140.296 209.624 139.899 209.44 139.639 209.177C139.381 208.914 139.252 208.579 139.252 208.172C139.252 207.821 139.347 207.52 139.536 207.266C139.728 207.013 139.997 206.818 140.342 206.68C140.69 206.543 141.097 206.474 141.564 206.474C142.253 206.474 142.795 206.62 143.19 206.911C143.588 207.202 143.82 207.599 143.886 208.101ZM147.449 212.107C146.888 212.107 146.405 211.993 146 211.766C145.598 211.536 145.287 211.212 145.07 210.793C144.852 210.371 144.743 209.873 144.743 209.298C144.743 208.737 144.852 208.244 145.07 207.82C145.287 207.397 145.594 207.066 145.989 206.83C146.387 206.593 146.853 206.474 147.388 206.474C147.748 206.474 148.083 206.532 148.393 206.648C148.706 206.762 148.978 206.934 149.21 207.163C149.445 207.393 149.627 207.682 149.757 208.03C149.887 208.375 149.952 208.78 149.952 209.244V209.66H145.347V208.722H148.528C148.528 208.504 148.481 208.312 148.386 208.143C148.292 207.975 148.16 207.844 147.992 207.749C147.826 207.652 147.634 207.604 147.413 207.604C147.184 207.604 146.98 207.657 146.803 207.763C146.627 207.868 146.49 208.009 146.391 208.186C146.291 208.361 146.24 208.557 146.238 208.772V209.663C146.238 209.933 146.288 210.166 146.387 210.363C146.489 210.559 146.632 210.711 146.817 210.817C147.001 210.924 147.22 210.977 147.474 210.977C147.642 210.977 147.796 210.954 147.935 210.906C148.075 210.859 148.195 210.788 148.294 210.693C148.393 210.598 148.469 210.482 148.521 210.345L149.92 210.438C149.849 210.774 149.704 211.067 149.484 211.318C149.266 211.567 148.984 211.761 148.638 211.901C148.295 212.038 147.899 212.107 147.449 212.107ZM155.478 208.101L154.093 208.186C154.069 208.068 154.018 207.961 153.94 207.866C153.862 207.769 153.759 207.692 153.631 207.636C153.506 207.576 153.356 207.547 153.18 207.547C152.946 207.547 152.748 207.597 152.587 207.696C152.426 207.793 152.346 207.923 152.346 208.087C152.346 208.217 152.398 208.327 152.502 208.417C152.606 208.507 152.785 208.579 153.038 208.634L154.026 208.832C154.556 208.941 154.951 209.116 155.212 209.358C155.472 209.599 155.602 209.917 155.602 210.31C155.602 210.667 155.497 210.981 155.286 211.251C155.078 211.521 154.791 211.731 154.427 211.883C154.065 212.032 153.647 212.107 153.173 212.107C152.451 212.107 151.876 211.956 151.447 211.656C151.021 211.353 150.772 210.941 150.698 210.42L152.186 210.342C152.231 210.562 152.34 210.73 152.513 210.846C152.686 210.96 152.907 211.016 153.177 211.016C153.442 211.016 153.655 210.965 153.816 210.864C153.979 210.759 154.062 210.626 154.065 210.462C154.062 210.325 154.004 210.213 153.891 210.125C153.777 210.035 153.602 209.966 153.365 209.919L152.42 209.731C151.888 209.624 151.491 209.44 151.231 209.177C150.973 208.914 150.844 208.579 150.844 208.172C150.844 207.821 150.938 207.52 151.128 207.266C151.32 207.013 151.588 206.818 151.934 206.68C152.282 206.543 152.689 206.474 153.156 206.474C153.844 206.474 154.387 206.62 154.782 206.911C155.18 207.202 155.412 207.599 155.478 208.101Z" fill="#FF3D00"/>
<path d="M361.356 245.447C359.646 245.441 358.175 245.02 356.942 244.185C355.715 243.349 354.771 242.14 354.108 240.555C353.452 238.971 353.127 237.065 353.133 234.838C353.133 232.617 353.462 230.725 354.118 229.161C354.781 227.596 355.725 226.406 356.952 225.591C358.185 224.769 359.653 224.358 361.356 224.358C363.06 224.358 364.525 224.769 365.751 225.591C366.984 226.413 367.932 227.606 368.595 229.17C369.258 230.728 369.586 232.617 369.579 234.838C369.579 237.072 369.248 238.981 368.585 240.565C367.929 242.15 366.988 243.359 365.761 244.195C364.535 245.03 363.067 245.447 361.356 245.447ZM361.356 241.878C362.523 241.878 363.454 241.291 364.15 240.118C364.847 238.945 365.191 237.185 365.185 234.838C365.185 233.294 365.025 232.008 364.707 230.98C364.396 229.953 363.952 229.18 363.375 228.663C362.805 228.146 362.132 227.888 361.356 227.888C360.196 227.888 359.268 228.468 358.572 229.628C357.876 230.788 357.525 232.525 357.518 234.838C357.518 236.402 357.674 237.708 357.986 238.756C358.304 239.796 358.751 240.579 359.328 241.102C359.905 241.619 360.581 241.878 361.356 241.878Z" fill="#FF3D00"/>
<path d="M345.403 197.364H347.863V204.92C347.863 205.769 347.66 206.511 347.255 207.148C346.853 207.784 346.291 208.28 345.567 208.636C344.844 208.989 344.001 209.165 343.039 209.165C342.073 209.165 341.228 208.989 340.505 208.636C339.781 208.28 339.219 207.784 338.817 207.148C338.416 206.511 338.215 205.769 338.215 204.92V197.364H340.675V204.71C340.675 205.153 340.772 205.547 340.965 205.892C341.162 206.237 341.438 206.508 341.795 206.705C342.151 206.902 342.565 207 343.039 207C343.516 207 343.931 206.902 344.283 206.705C344.639 206.508 344.914 206.237 345.107 205.892C345.304 205.547 345.403 205.153 345.403 204.71V197.364ZM356.199 200.71C356.154 200.252 355.959 199.896 355.614 199.642C355.269 199.388 354.802 199.261 354.211 199.261C353.809 199.261 353.47 199.318 353.194 199.432C352.917 199.542 352.705 199.695 352.557 199.892C352.413 200.089 352.341 200.312 352.341 200.562C352.334 200.771 352.377 200.953 352.472 201.108C352.571 201.263 352.705 201.398 352.876 201.511C353.046 201.621 353.243 201.718 353.466 201.801C353.69 201.881 353.929 201.949 354.182 202.006L355.228 202.256C355.735 202.369 356.201 202.521 356.626 202.71C357.05 202.9 357.417 203.133 357.728 203.409C358.038 203.686 358.279 204.011 358.449 204.386C358.624 204.761 358.713 205.191 358.716 205.676C358.713 206.388 358.531 207.006 358.171 207.528C357.815 208.047 357.3 208.451 356.626 208.739C355.955 209.023 355.146 209.165 354.199 209.165C353.26 209.165 352.442 209.021 351.745 208.733C351.052 208.445 350.51 208.019 350.12 207.455C349.733 206.886 349.531 206.184 349.512 205.347H351.893C351.919 205.737 352.031 206.062 352.228 206.324C352.429 206.581 352.696 206.777 353.029 206.909C353.366 207.038 353.747 207.102 354.171 207.102C354.588 207.102 354.949 207.042 355.256 206.92C355.567 206.799 355.807 206.631 355.978 206.415C356.148 206.199 356.233 205.951 356.233 205.67C356.233 205.409 356.156 205.189 356.001 205.011C355.849 204.833 355.626 204.682 355.33 204.557C355.038 204.432 354.68 204.318 354.256 204.216L352.989 203.898C352.008 203.659 351.233 203.286 350.665 202.778C350.097 202.271 349.815 201.587 349.819 200.727C349.815 200.023 350.002 199.407 350.381 198.881C350.764 198.354 351.288 197.943 351.955 197.648C352.622 197.352 353.379 197.205 354.228 197.205C355.091 197.205 355.845 197.352 356.489 197.648C357.137 197.943 357.641 198.354 358.001 198.881C358.36 199.407 358.546 200.017 358.557 200.71H356.199ZM364.496 209H360.371V197.364H364.53C365.701 197.364 366.708 197.597 367.553 198.062C368.398 198.525 369.047 199.189 369.502 200.057C369.96 200.924 370.189 201.962 370.189 203.17C370.189 204.383 369.96 205.424 369.502 206.295C369.047 207.167 368.394 207.835 367.542 208.301C366.693 208.767 365.678 209 364.496 209ZM362.831 206.892H364.394C365.121 206.892 365.733 206.763 366.229 206.506C366.729 206.244 367.104 205.841 367.354 205.295C367.608 204.746 367.735 204.038 367.735 203.17C367.735 202.311 367.608 201.608 367.354 201.062C367.104 200.517 366.731 200.116 366.235 199.858C365.739 199.6 365.127 199.472 364.4 199.472H362.831V206.892Z" fill="#888888"/>
<path d="M29 74.5H383C387.142 74.5 390.5 77.8579 390.5 82V156C390.5 160.142 387.142 163.5 383 163.5H29C24.8579 163.5 21.5 160.142 21.5 156V82C21.5 77.8579 24.8579 74.5 29 74.5Z" stroke="#F5F5F5"/>
<rect x="41" y="94" width="116.832" height="28" rx="14" fill="#E3EFFB"/>
<path d="M51.6321 112V104.727H53.1697V110.732H56.2876V112H51.6321ZM58.8329 112.103C58.4849 112.103 58.1748 112.043 57.9025 111.922C57.6303 111.799 57.4148 111.618 57.2562 111.379C57.1 111.137 57.0218 110.836 57.0218 110.477C57.0218 110.174 57.0775 109.919 57.1887 109.713C57.3 109.507 57.4515 109.341 57.6433 109.216C57.835 109.09 58.0529 108.996 58.2967 108.932C58.5429 108.868 58.801 108.823 59.0708 108.797C59.3881 108.764 59.6438 108.733 59.8379 108.705C60.032 108.674 60.1729 108.629 60.2605 108.57C60.3481 108.51 60.3919 108.423 60.3919 108.307V108.286C60.3919 108.061 60.3208 107.887 60.1788 107.763C60.0391 107.64 59.8403 107.579 59.5822 107.579C59.31 107.579 59.0933 107.639 58.9324 107.76C58.7714 107.878 58.6648 108.027 58.6127 108.207L57.2136 108.094C57.2846 107.762 57.4243 107.476 57.6326 107.234C57.841 106.991 58.1097 106.804 58.4387 106.673C58.7702 106.541 59.1537 106.474 59.5893 106.474C59.8923 106.474 60.1824 106.51 60.4593 106.581C60.7387 106.652 60.9861 106.762 61.2015 106.911C61.4193 107.06 61.591 107.252 61.7164 107.487C61.8419 107.719 61.9047 107.997 61.9047 108.321V112H60.47V111.244H60.4274C60.3398 111.414 60.2226 111.564 60.0758 111.695C59.929 111.822 59.7527 111.923 59.5467 111.996C59.3407 112.067 59.1028 112.103 58.8329 112.103ZM59.2662 111.059C59.4887 111.059 59.6852 111.015 59.8556 110.928C60.0261 110.838 60.1599 110.717 60.2569 110.565C60.354 110.414 60.4025 110.242 60.4025 110.05V109.472C60.3552 109.502 60.2901 109.531 60.2072 109.557C60.1267 109.58 60.0356 109.603 59.9338 109.624C59.832 109.643 59.7302 109.661 59.6284 109.678C59.5266 109.692 59.4342 109.705 59.3514 109.717C59.1738 109.743 59.0188 109.784 58.8862 109.841C58.7536 109.898 58.6506 109.975 58.5772 110.072C58.5038 110.166 58.4672 110.285 58.4672 110.427C58.4672 110.633 58.5417 110.79 58.6909 110.899C58.8424 111.006 59.0342 111.059 59.2662 111.059ZM67.6167 108.101L66.2317 108.186C66.208 108.068 66.1571 107.961 66.079 107.866C66.0009 107.769 65.8979 107.692 65.7701 107.636C65.6446 107.576 65.4943 107.547 65.3191 107.547C65.0847 107.547 64.887 107.597 64.726 107.696C64.565 107.793 64.4846 107.923 64.4846 108.087C64.4846 108.217 64.5366 108.327 64.6408 108.417C64.745 108.507 64.9237 108.579 65.177 108.634L66.1642 108.832C66.6945 108.941 67.0899 109.116 67.3503 109.358C67.6107 109.599 67.7409 109.917 67.7409 110.31C67.7409 110.667 67.6356 110.981 67.4249 111.251C67.2166 111.521 66.9301 111.731 66.5655 111.883C66.2033 112.032 65.7855 112.107 65.312 112.107C64.5899 112.107 64.0146 111.956 63.5861 111.656C63.16 111.353 62.9102 110.941 62.8368 110.42L64.3248 110.342C64.3697 110.562 64.4786 110.73 64.6515 110.846C64.8243 110.96 65.0456 111.016 65.3155 111.016C65.5807 111.016 65.7937 110.965 65.9547 110.864C66.1181 110.759 66.2009 110.626 66.2033 110.462C66.2009 110.325 66.1429 110.213 66.0293 110.125C65.9157 110.035 65.7405 109.966 65.5037 109.919L64.5591 109.731C64.0265 109.624 63.6299 109.44 63.3695 109.177C63.1114 108.914 62.9824 108.579 62.9824 108.172C62.9824 107.821 63.0771 107.52 63.2665 107.266C63.4583 107.013 63.727 106.818 64.0726 106.68C64.4206 106.543 64.8278 106.474 65.2942 106.474C65.9831 106.474 66.5253 106.62 66.9206 106.911C67.3184 107.202 67.5504 107.599 67.6167 108.101ZM71.5948 106.545V107.682H68.31V106.545H71.5948ZM69.0558 105.239H70.5685V110.324C70.5685 110.464 70.5898 110.572 70.6325 110.651C70.6751 110.726 70.7343 110.78 70.81 110.81C70.8881 110.841 70.9781 110.857 71.0799 110.857C71.1509 110.857 71.2219 110.851 71.293 110.839C71.364 110.825 71.4184 110.814 71.4563 110.807L71.6942 111.933C71.6185 111.956 71.512 111.983 71.3746 112.014C71.2373 112.047 71.0704 112.067 70.8739 112.075C70.5094 112.089 70.1897 112.04 69.9151 111.929C69.6429 111.818 69.431 111.645 69.2795 111.411C69.128 111.176 69.0534 110.88 69.0558 110.523V105.239ZM74.9231 104.727H76.8194L78.8223 109.614H78.9075L80.9103 104.727H82.8066V112H81.3152V107.266H81.2548L79.3727 111.964H78.3571L76.475 107.249H76.4146V112H74.9231V104.727ZM86.5096 112.107C85.958 112.107 85.4809 111.989 85.0785 111.755C84.6784 111.518 84.3694 111.189 84.1516 110.768C83.9338 110.344 83.8249 109.853 83.8249 109.294C83.8249 108.731 83.9338 108.238 84.1516 107.817C84.3694 107.393 84.6784 107.064 85.0785 106.83C85.4809 106.593 85.958 106.474 86.5096 106.474C87.0612 106.474 87.5371 106.593 87.9371 106.83C88.3396 107.064 88.6497 107.393 88.8675 107.817C89.0853 108.238 89.1942 108.731 89.1942 109.294C89.1942 109.853 89.0853 110.344 88.8675 110.768C88.6497 111.189 88.3396 111.518 87.9371 111.755C87.5371 111.989 87.0612 112.107 86.5096 112.107ZM86.5167 110.935C86.7676 110.935 86.9772 110.864 87.1452 110.722C87.3133 110.577 87.44 110.381 87.5252 110.132C87.6128 109.884 87.6566 109.601 87.6566 109.283C87.6566 108.966 87.6128 108.683 87.5252 108.435C87.44 108.186 87.3133 107.99 87.1452 107.845C86.9772 107.701 86.7676 107.629 86.5167 107.629C86.2634 107.629 86.0503 107.701 85.8775 107.845C85.707 107.99 85.578 108.186 85.4904 108.435C85.4052 108.683 85.3626 108.966 85.3626 109.283C85.3626 109.601 85.4052 109.884 85.4904 110.132C85.578 110.381 85.707 110.577 85.8775 110.722C86.0503 110.864 86.2634 110.935 86.5167 110.935ZM91.6907 108.847V112H90.1779V106.545H91.6197V107.508H91.6836C91.8043 107.191 92.0067 106.94 92.2908 106.755C92.5749 106.568 92.9194 106.474 93.3242 106.474C93.703 106.474 94.0333 106.557 94.315 106.723C94.5967 106.889 94.8157 107.125 94.9719 107.433C95.1282 107.739 95.2063 108.103 95.2063 108.527V112H93.6935V108.797C93.6959 108.463 93.6107 108.203 93.4379 108.016C93.265 107.826 93.0271 107.732 92.7241 107.732C92.5205 107.732 92.3406 107.775 92.1843 107.863C92.0304 107.951 91.9097 108.078 91.8221 108.246C91.7369 108.412 91.6931 108.612 91.6907 108.847ZM99.2999 106.545V107.682H96.0151V106.545H99.2999ZM96.7608 105.239H98.2736V110.324C98.2736 110.464 98.2949 110.572 98.3375 110.651C98.3801 110.726 98.4393 110.78 98.5151 110.81C98.5932 110.841 98.6832 110.857 98.785 110.857C98.856 110.857 98.927 110.851 98.998 110.839C99.0691 110.825 99.1235 110.814 99.1614 110.807L99.3993 111.933C99.3236 111.956 99.217 111.983 99.0797 112.014C98.9424 112.047 98.7755 112.067 98.579 112.075C98.2144 112.089 97.8948 112.04 97.6202 111.929C97.348 111.818 97.1361 111.645 96.9846 111.411C96.833 111.176 96.7585 110.88 96.7608 110.523V105.239ZM101.915 108.847V112H100.403V104.727H101.873V107.508H101.937C102.06 107.186 102.259 106.934 102.533 106.751C102.808 106.567 103.152 106.474 103.567 106.474C103.945 106.474 104.276 106.557 104.557 106.723C104.841 106.886 105.062 107.122 105.218 107.43C105.376 107.735 105.455 108.101 105.452 108.527V112H103.939V108.797C103.942 108.461 103.857 108.199 103.684 108.012C103.513 107.825 103.274 107.732 102.966 107.732C102.76 107.732 102.578 107.775 102.42 107.863C102.263 107.951 102.14 108.078 102.05 108.246C101.963 108.412 101.918 108.612 101.915 108.847ZM110.523 104.727V112H108.986V104.727H110.523ZM113.273 108.847V112H111.76V106.545H113.202V107.508H113.266C113.386 107.191 113.589 106.94 113.873 106.755C114.157 106.568 114.501 106.474 114.906 106.474C115.285 106.474 115.615 106.557 115.897 106.723C116.179 106.889 116.398 107.125 116.554 107.433C116.71 107.739 116.788 108.103 116.788 108.527V112H115.276V108.797C115.278 108.463 115.193 108.203 115.02 108.016C114.847 107.826 114.609 107.732 114.306 107.732C114.103 107.732 113.923 107.775 113.766 107.863C113.612 107.951 113.492 108.078 113.404 108.246C113.319 108.412 113.275 108.612 113.273 108.847ZM120.445 112.107C119.886 112.107 119.406 111.988 119.003 111.751C118.603 111.512 118.296 111.181 118.08 110.757C117.867 110.333 117.76 109.846 117.76 109.294C117.76 108.735 117.868 108.245 118.084 107.824C118.301 107.4 118.61 107.07 119.01 106.833C119.411 106.594 119.886 106.474 120.438 106.474C120.914 106.474 121.331 106.561 121.688 106.734C122.046 106.906 122.328 107.149 122.537 107.462C122.745 107.774 122.86 108.141 122.881 108.562H121.454C121.413 108.29 121.307 108.071 121.134 107.906C120.964 107.737 120.74 107.653 120.463 107.653C120.229 107.653 120.024 107.717 119.849 107.845C119.676 107.971 119.541 108.154 119.444 108.396C119.347 108.637 119.298 108.929 119.298 109.273C119.298 109.621 119.345 109.917 119.44 110.161C119.537 110.404 119.673 110.59 119.849 110.718C120.024 110.846 120.229 110.91 120.463 110.91C120.636 110.91 120.791 110.874 120.928 110.803C121.068 110.732 121.183 110.629 121.273 110.494C121.365 110.357 121.425 110.192 121.454 110.001H122.881C122.858 110.417 122.744 110.784 122.54 111.102C122.339 111.416 122.061 111.663 121.706 111.84C121.351 112.018 120.93 112.107 120.445 112.107ZM126.314 112.107C125.763 112.107 125.286 111.989 124.883 111.755C124.483 111.518 124.174 111.189 123.956 110.768C123.739 110.344 123.63 109.853 123.63 109.294C123.63 108.731 123.739 108.238 123.956 107.817C124.174 107.393 124.483 107.064 124.883 106.83C125.286 106.593 125.763 106.474 126.314 106.474C126.866 106.474 127.342 106.593 127.742 106.83C128.144 107.064 128.454 107.393 128.672 107.817C128.89 108.238 128.999 108.731 128.999 109.294C128.999 109.853 128.89 110.344 128.672 110.768C128.454 111.189 128.144 111.518 127.742 111.755C127.342 111.989 126.866 112.107 126.314 112.107ZM126.321 110.935C126.572 110.935 126.782 110.864 126.95 110.722C127.118 110.577 127.245 110.381 127.33 110.132C127.417 109.884 127.461 109.601 127.461 109.283C127.461 108.966 127.417 108.683 127.33 108.435C127.245 108.186 127.118 107.99 126.95 107.845C126.782 107.701 126.572 107.629 126.321 107.629C126.068 107.629 125.855 107.701 125.682 107.845C125.512 107.99 125.383 108.186 125.295 108.435C125.21 108.683 125.167 108.966 125.167 109.283C125.167 109.601 125.21 109.884 125.295 110.132C125.383 110.381 125.512 110.577 125.682 110.722C125.855 110.864 126.068 110.935 126.321 110.935ZM129.983 112V106.545H131.424V107.508H131.488C131.602 107.188 131.791 106.936 132.056 106.751C132.322 106.567 132.639 106.474 133.008 106.474C133.382 106.474 133.701 106.568 133.963 106.755C134.226 106.94 134.401 107.191 134.489 107.508H134.546C134.657 107.195 134.858 106.946 135.15 106.759C135.443 106.569 135.79 106.474 136.19 106.474C136.699 106.474 137.112 106.637 137.429 106.961C137.749 107.283 137.909 107.74 137.909 108.332V112H136.4V108.63C136.4 108.327 136.319 108.1 136.158 107.948C135.997 107.797 135.796 107.721 135.554 107.721C135.28 107.721 135.065 107.808 134.912 107.984C134.758 108.156 134.681 108.385 134.681 108.669V112H133.214V108.598C133.214 108.33 133.137 108.117 132.983 107.959C132.832 107.8 132.632 107.721 132.383 107.721C132.215 107.721 132.064 107.763 131.929 107.849C131.796 107.932 131.691 108.049 131.613 108.2C131.534 108.349 131.495 108.525 131.495 108.726V112H129.983ZM141.589 112.107C141.028 112.107 140.545 111.993 140.141 111.766C139.738 111.536 139.428 111.212 139.21 110.793C138.992 110.371 138.884 109.873 138.884 109.298C138.884 108.737 138.992 108.244 139.21 107.82C139.428 107.397 139.735 107.066 140.13 106.83C140.528 106.593 140.994 106.474 141.529 106.474C141.889 106.474 142.224 106.532 142.534 106.648C142.847 106.762 143.119 106.934 143.351 107.163C143.585 107.393 143.768 107.682 143.898 108.03C144.028 108.375 144.093 108.78 144.093 109.244V109.66H139.487V108.722H142.669C142.669 108.504 142.622 108.312 142.527 108.143C142.432 107.975 142.301 107.844 142.133 107.749C141.967 107.652 141.774 107.604 141.554 107.604C141.324 107.604 141.121 107.657 140.943 107.763C140.768 107.868 140.631 108.009 140.531 108.186C140.432 108.361 140.381 108.557 140.379 108.772V109.663C140.379 109.933 140.428 110.166 140.528 110.363C140.629 110.559 140.773 110.711 140.957 110.817C141.142 110.924 141.361 110.977 141.614 110.977C141.782 110.977 141.936 110.954 142.076 110.906C142.216 110.859 142.335 110.788 142.435 110.693C142.534 110.598 142.61 110.482 142.662 110.345L144.061 110.438C143.99 110.774 143.844 111.067 143.624 111.318C143.406 111.567 143.125 111.761 142.779 111.901C142.436 112.038 142.039 112.107 141.589 112.107Z" fill="#1D8CFC"/>
<path d="M361.356 145.447C359.646 145.441 358.175 145.02 356.942 144.185C355.715 143.349 354.771 142.14 354.108 140.555C353.452 138.971 353.127 137.065 353.133 134.838C353.133 132.617 353.462 130.725 354.118 129.161C354.781 127.596 355.725 126.406 356.952 125.591C358.185 124.769 359.653 124.358 361.356 124.358C363.06 124.358 364.525 124.769 365.751 125.591C366.984 126.413 367.932 127.606 368.595 129.17C369.258 130.728 369.586 132.617 369.579 134.838C369.579 137.072 369.248 138.981 368.585 140.565C367.929 142.15 366.988 143.359 365.761 144.195C364.535 145.03 363.067 145.447 361.356 145.447ZM361.356 141.878C362.523 141.878 363.454 141.291 364.15 140.118C364.847 138.945 365.191 137.185 365.185 134.838C365.185 133.294 365.025 132.008 364.707 130.98C364.396 129.953 363.952 129.18 363.375 128.663C362.805 128.146 362.132 127.888 361.356 127.888C360.196 127.888 359.268 128.468 358.572 129.628C357.876 130.788 357.525 132.525 357.518 134.838C357.518 136.402 357.674 137.708 357.986 138.756C358.304 139.796 358.751 140.579 359.328 141.102C359.905 141.619 360.581 141.878 361.356 141.878Z" fill="#1D8CFC"/>
<path d="M345.403 97.3636H347.863V104.92C347.863 105.769 347.661 106.511 347.255 107.148C346.854 107.784 346.291 108.28 345.568 108.636C344.844 108.989 344.001 109.165 343.039 109.165C342.073 109.165 341.229 108.989 340.505 108.636C339.782 108.28 339.219 107.784 338.818 107.148C338.416 106.511 338.215 105.769 338.215 104.92V97.3636H340.676V104.71C340.676 105.153 340.772 105.547 340.965 105.892C341.162 106.237 341.439 106.508 341.795 106.705C342.151 106.902 342.566 107 343.039 107C343.517 107 343.931 106.902 344.284 106.705C344.64 106.508 344.914 106.237 345.108 105.892C345.304 105.547 345.403 105.153 345.403 104.71V97.3636ZM356.2 100.71C356.154 100.252 355.959 99.8958 355.615 99.642C355.27 99.3883 354.802 99.2614 354.211 99.2614C353.81 99.2614 353.471 99.3182 353.194 99.4318C352.918 99.5417 352.706 99.6951 352.558 99.892C352.414 100.089 352.342 100.312 352.342 100.562C352.334 100.771 352.378 100.953 352.473 101.108C352.571 101.263 352.706 101.398 352.876 101.511C353.046 101.621 353.243 101.718 353.467 101.801C353.69 101.881 353.929 101.949 354.183 102.006L355.228 102.256C355.736 102.369 356.202 102.521 356.626 102.71C357.05 102.9 357.418 103.133 357.728 103.409C358.039 103.686 358.279 104.011 358.45 104.386C358.624 104.761 358.713 105.191 358.717 105.676C358.713 106.388 358.531 107.006 358.171 107.528C357.815 108.047 357.3 108.451 356.626 108.739C355.956 109.023 355.147 109.165 354.2 109.165C353.26 109.165 352.442 109.021 351.745 108.733C351.052 108.445 350.51 108.019 350.12 107.455C349.734 106.886 349.531 106.184 349.512 105.347H351.893C351.92 105.737 352.031 106.062 352.228 106.324C352.429 106.581 352.696 106.777 353.029 106.909C353.367 107.038 353.747 107.102 354.171 107.102C354.588 107.102 354.95 107.042 355.257 106.92C355.567 106.799 355.808 106.631 355.978 106.415C356.149 106.199 356.234 105.951 356.234 105.67C356.234 105.409 356.156 105.189 356.001 105.011C355.849 104.833 355.626 104.682 355.331 104.557C355.039 104.432 354.681 104.318 354.257 104.216L352.99 103.898C352.009 103.659 351.234 103.286 350.666 102.778C350.098 102.271 349.815 101.587 349.819 100.727C349.815 100.023 350.003 99.4072 350.382 98.8807C350.764 98.3542 351.289 97.9432 351.956 97.6477C352.622 97.3523 353.38 97.2045 354.228 97.2045C355.092 97.2045 355.846 97.3523 356.49 97.6477C357.137 97.9432 357.641 98.3542 358.001 98.8807C358.361 99.4072 358.546 100.017 358.558 100.71H356.2ZM364.497 109H360.372V97.3636H364.531C365.701 97.3636 366.709 97.5966 367.554 98.0625C368.398 98.5246 369.048 99.1894 369.502 100.057C369.961 100.924 370.19 101.962 370.19 103.17C370.19 104.383 369.961 105.424 369.502 106.295C369.048 107.167 368.394 107.835 367.542 108.301C366.694 108.767 365.679 109 364.497 109ZM362.832 106.892H364.394C365.122 106.892 365.733 106.763 366.23 106.506C366.73 106.244 367.105 105.841 367.355 105.295C367.608 104.746 367.735 104.038 367.735 103.17C367.735 102.311 367.608 101.608 367.355 101.062C367.105 100.517 366.732 100.116 366.235 99.858C365.739 99.6004 365.127 99.4716 364.4 99.4716H362.832V106.892Z" fill="#888888"/>
</svg>
