<svg width="80" height="80" viewBox="0 0 80 80" fill="none" xmlns="http://www.w3.org/2000/svg">
<g id="Icon / 80 / Fail Account" clip-path="url(#clip0_1381_82355)">
<g id="Group 515592">
<path id="Vector 93" d="M11.5 41.5V10.5L13.5 9H63L65 11.5V41.5L71 69L69.5 70.5H6.5L5 69L11.5 41.5Z" fill="white"/>
<path id="Vector" d="M24.1699 16.8604V19.2804" stroke="#999999" stroke-width="2" stroke-linecap="round" stroke-linejoin="round"/>
<path id="Vector_2" d="M24.1699 31.4199V33.8399" stroke="#999999" stroke-width="2" stroke-linecap="round" stroke-linejoin="round"/>
<path id="Vector_3" d="M24.7798 25.3603H23.5598C21.8798 25.3603 20.5098 24.0003 20.5098 22.3203C20.5098 20.6403 21.8798 19.2803 23.5598 19.2803H24.7798C26.4598 19.2803 27.8298 20.6403 27.8298 22.3203" stroke="#999999" stroke-width="2" stroke-linecap="round" stroke-linejoin="round"/>
<path id="Vector_4" d="M23.57 25.3604H24.79C26.47 25.3604 27.84 26.7304 27.84 28.4004C27.84 30.0704 26.47 31.4404 24.79 31.4404H23.57C21.89 31.4404 20.52 30.0804 20.52 28.4004" stroke="#999999" stroke-width="2" stroke-linecap="round" stroke-linejoin="round"/>
<path id="Vector_5" d="M16.52 49.25H23.63" stroke="#999999" stroke-width="2" stroke-linecap="round" stroke-linejoin="round"/>
<path id="Vector_6" d="M29.2002 49.25H41.1802" stroke="#999999" stroke-width="2" stroke-linecap="round" stroke-linejoin="round"/>
<path id="Vector_7" d="M14.23 55.7197H22.67" stroke="#999999" stroke-width="2" stroke-linecap="round" stroke-linejoin="round"/>
<path id="Vector_8" d="M29.27 55.7197H43.47" stroke="#999999" stroke-width="2" stroke-linecap="round" stroke-linejoin="round"/>
<path id="Vector_9" d="M69.65 63.1998L70.85 68.5998C71.08 69.6398 70.2 70.6098 69.04 70.6098H6.89995C5.72995 70.6098 4.84995 69.6398 5.08995 68.5998L11.13 41.3398H41.1899" stroke="#999999" stroke-width="2" stroke-linecap="round" stroke-linejoin="round"/>
<path id="Vector_10" d="M64.8101 25.3596V11.1396C64.8101 10.1796 63.9801 9.38965 62.9501 9.38965H13.0501C12.0301 9.38965 11.2001 10.1696 11.2001 11.1396L11.1201 41.3396H41.1801" stroke="#999999" stroke-width="2" stroke-linecap="round" stroke-linejoin="round"/>
</g>
<g id="Group">
<path id="Vector_11" d="M60.9502 58.3701C68.6902 58.3701 74.9502 52.1101 74.9502 44.3701C74.9502 36.6301 68.6902 30.3701 60.9502 30.3701C53.2102 30.3701 46.9502 36.6301 46.9502 44.3701C46.9502 52.1101 53.2102 58.3701 60.9502 58.3701Z" fill="white" stroke="#0067AC" stroke-width="2" stroke-linecap="round" stroke-linejoin="round"/>
<g id="Group_2">
<path id="Vector_12" d="M55.9502 49.3701L65.9502 39.3701" stroke="#0067AC" stroke-width="2" stroke-linecap="round" stroke-linejoin="round"/>
<path id="Vector_13" d="M55.9502 39.3701L65.9502 49.3701" stroke="#0067AC" stroke-width="2" stroke-linecap="round" stroke-linejoin="round"/>
</g>
</g>
</g>
<defs>
<clipPath id="clip0_1381_82355">
<rect width="80" height="80" fill="white"/>
</clipPath>
</defs>
</svg>
