<svg width="842" height="285" viewBox="0 0 842 285" fill="none" xmlns="http://www.w3.org/2000/svg">
<path d="M829 0.75H13C6.23451 0.75 0.75 6.23451 0.75 13V272C0.75 278.765 6.23449 284.25 13 284.25H829C835.766 284.25 841.25 278.766 841.25 272V13C841.25 6.23451 835.766 0.75 829 0.75Z" fill="white" stroke="#EBEBEB" stroke-width="0.5" stroke-linecap="square"/>
<rect x="21" y="75" width="253" height="189" rx="8" fill="#0067AC"/>
<path opacity="0.4" d="M21 217.667H274" stroke="white"/>
<path d="M195.665 246.332H192.369V236.15H195.769C196.767 236.15 197.624 236.354 198.339 236.761C199.055 237.166 199.604 237.747 199.985 238.506C200.37 239.262 200.562 240.168 200.562 241.226C200.562 242.286 200.368 243.198 199.98 243.96C199.596 244.722 199.039 245.309 198.31 245.72C197.58 246.128 196.699 246.332 195.665 246.332ZM193.905 244.989H195.58C196.356 244.989 197 244.843 197.514 244.552C198.028 244.257 198.412 243.831 198.668 243.274C198.923 242.714 199.05 242.031 199.05 241.226C199.05 240.427 198.923 239.749 198.668 239.192C198.416 238.636 198.04 238.213 197.539 237.925C197.039 237.636 196.417 237.492 195.675 237.492H193.905V244.989ZM205.644 246.486C204.892 246.486 204.244 246.325 203.7 246.003C203.16 245.679 202.742 245.223 202.447 244.636C202.156 244.046 202.01 243.355 202.01 242.563C202.01 241.781 202.156 241.091 202.447 240.495C202.742 239.898 203.153 239.433 203.68 239.098C204.211 238.763 204.83 238.596 205.54 238.596C205.97 238.596 206.388 238.667 206.792 238.81C207.197 238.952 207.56 239.176 207.881 239.481C208.203 239.786 208.456 240.182 208.642 240.669C208.827 241.153 208.92 241.741 208.92 242.434V242.961H202.85V241.847H207.464C207.464 241.456 207.384 241.11 207.225 240.808C207.066 240.503 206.842 240.263 206.554 240.087C206.269 239.912 205.934 239.824 205.55 239.824C205.132 239.824 204.767 239.926 204.456 240.132C204.148 240.334 203.909 240.599 203.74 240.927C203.574 241.252 203.491 241.605 203.491 241.986V242.856C203.491 243.367 203.581 243.801 203.76 244.159C203.942 244.517 204.196 244.79 204.52 244.979C204.845 245.165 205.225 245.258 205.659 245.258C205.941 245.258 206.198 245.218 206.43 245.138C206.662 245.056 206.862 244.933 207.031 244.77C207.2 244.608 207.329 244.408 207.419 244.169L208.826 244.422C208.713 244.837 208.511 245.2 208.219 245.511C207.931 245.819 207.568 246.06 207.131 246.232C206.696 246.401 206.201 246.486 205.644 246.486ZM214.134 238.695V239.888H209.963V238.695H214.134ZM211.082 236.866H212.568V244.089C212.568 244.378 212.611 244.595 212.697 244.741C212.784 244.883 212.895 244.981 213.031 245.034C213.17 245.084 213.321 245.109 213.483 245.109C213.602 245.109 213.707 245.1 213.796 245.084C213.886 245.067 213.955 245.054 214.005 245.044L214.273 246.272C214.187 246.305 214.065 246.338 213.906 246.371C213.746 246.408 213.548 246.428 213.309 246.431C212.918 246.438 212.553 246.368 212.215 246.222C211.877 246.076 211.604 245.851 211.395 245.546C211.186 245.241 211.082 244.858 211.082 244.398V236.866ZM218.001 246.501C217.517 246.501 217.079 246.411 216.688 246.232C216.297 246.05 215.987 245.786 215.759 245.442C215.533 245.097 215.421 244.674 215.421 244.174C215.421 243.743 215.503 243.388 215.669 243.11C215.835 242.832 216.059 242.611 216.34 242.449C216.622 242.286 216.937 242.164 217.285 242.081C217.633 241.998 217.988 241.935 218.349 241.892C218.806 241.839 219.177 241.796 219.463 241.763C219.748 241.726 219.955 241.668 220.084 241.589C220.213 241.509 220.278 241.38 220.278 241.201V241.166C220.278 240.732 220.155 240.395 219.91 240.157C219.668 239.918 219.307 239.799 218.826 239.799C218.326 239.799 217.931 239.91 217.643 240.132C217.358 240.351 217.161 240.594 217.051 240.863L215.654 240.545C215.82 240.081 216.062 239.706 216.38 239.421C216.702 239.133 217.071 238.924 217.489 238.795C217.906 238.662 218.346 238.596 218.806 238.596C219.111 238.596 219.434 238.632 219.776 238.705C220.12 238.775 220.442 238.904 220.74 239.093C221.042 239.282 221.289 239.552 221.481 239.903C221.673 240.251 221.769 240.704 221.769 241.261V246.332H220.318V245.288H220.258C220.162 245.48 220.018 245.669 219.825 245.854C219.633 246.04 219.386 246.194 219.085 246.317C218.783 246.439 218.422 246.501 218.001 246.501ZM218.324 245.307C218.735 245.307 219.086 245.226 219.378 245.064C219.673 244.901 219.897 244.689 220.049 244.427C220.205 244.162 220.283 243.879 220.283 243.577V242.593C220.23 242.646 220.127 242.696 219.975 242.742C219.825 242.785 219.655 242.823 219.463 242.856C219.27 242.886 219.083 242.914 218.901 242.941C218.718 242.964 218.566 242.984 218.443 243.001C218.155 243.037 217.892 243.098 217.653 243.185C217.418 243.271 217.229 243.395 217.086 243.557C216.947 243.716 216.877 243.929 216.877 244.194C216.877 244.562 217.013 244.84 217.285 245.029C217.557 245.215 217.903 245.307 218.324 245.307ZM223.749 246.332V238.695H225.236V246.332H223.749ZM224.5 237.517C224.241 237.517 224.019 237.431 223.834 237.258C223.652 237.083 223.56 236.874 223.56 236.632C223.56 236.387 223.652 236.178 223.834 236.006C224.019 235.83 224.241 235.742 224.5 235.742C224.759 235.742 224.979 235.83 225.161 236.006C225.347 236.178 225.44 236.387 225.44 236.632C225.44 236.874 225.347 237.083 225.161 237.258C224.979 237.431 224.759 237.517 224.5 237.517ZM228.722 236.15V246.332H227.236V236.15H228.722Z" fill="white"/>
<path d="M36.8686 246.332V236.15H43.2521V237.472H38.4048V240.574H42.919V241.892H38.4048V245.009H43.3118V246.332H36.8686ZM48.0435 246.481C47.427 246.481 46.8768 246.323 46.3929 246.008C45.9123 245.69 45.5345 245.238 45.2594 244.651C44.9876 244.061 44.8517 243.354 44.8517 242.528C44.8517 241.703 44.9893 240.997 45.2644 240.41C45.5428 239.824 45.9239 239.375 46.4078 239.063C46.8917 238.752 47.4403 238.596 48.0534 238.596C48.5274 238.596 48.9086 238.675 49.1969 238.834C49.4886 238.99 49.714 239.172 49.873 239.381C50.0355 239.59 50.1614 239.774 50.2509 239.933H50.3404V236.15H51.8269V246.332H50.3752V245.143H50.2509C50.1614 245.306 50.0321 245.491 49.8631 245.7C49.6974 245.909 49.4687 246.091 49.177 246.247C48.8854 246.403 48.5075 246.481 48.0435 246.481ZM48.3716 245.213C48.7992 245.213 49.1605 245.1 49.4554 244.875C49.7537 244.646 49.9791 244.33 50.1316 243.925C50.2873 243.521 50.3652 243.05 50.3652 242.513C50.3652 241.983 50.289 241.519 50.1365 241.121C49.9841 240.724 49.7604 240.414 49.4654 240.192C49.1704 239.97 48.8058 239.859 48.3716 239.859C47.9242 239.859 47.5513 239.975 47.253 240.207C46.9547 240.439 46.7293 240.755 46.5769 241.156C46.4277 241.557 46.3532 242.01 46.3532 242.513C46.3532 243.024 46.4294 243.483 46.5819 243.89C46.7343 244.298 46.9597 244.621 47.258 244.86C47.5596 245.095 47.9308 245.213 48.3716 245.213ZM53.9485 246.332V238.695H55.435V246.332H53.9485ZM54.6992 237.517C54.4407 237.517 54.2186 237.431 54.033 237.258C53.8507 237.083 53.7596 236.874 53.7596 236.632C53.7596 236.387 53.8507 236.178 54.033 236.006C54.2186 235.83 54.4407 235.742 54.6992 235.742C54.9577 235.742 55.1781 235.83 55.3604 236.006C55.546 236.178 55.6388 236.387 55.6388 236.632C55.6388 236.874 55.546 237.083 55.3604 237.258C55.1781 237.431 54.9577 237.517 54.6992 237.517ZM60.9995 238.695V239.888H56.8283V238.695H60.9995ZM57.9469 236.866H59.4334V244.089C59.4334 244.378 59.4765 244.595 59.5627 244.741C59.6489 244.883 59.7599 244.981 59.8958 245.034C60.035 245.084 60.1858 245.109 60.3482 245.109C60.4675 245.109 60.5719 245.1 60.6614 245.084C60.7509 245.067 60.8205 245.054 60.8702 245.044L61.1387 246.272C61.0525 246.305 60.9299 246.338 60.7708 246.371C60.6117 246.408 60.4128 246.428 60.1742 246.431C59.7831 246.438 59.4185 246.368 59.0804 246.222C58.7424 246.076 58.4689 245.851 58.2601 245.546C58.0513 245.241 57.9469 244.858 57.9469 244.398V236.866ZM74.6863 236.15V246.332H73.2743L68.0989 238.864H68.0044V246.332H66.4682V236.15H67.8901L73.0705 243.627H73.165V236.15H74.6863ZM76.8079 246.332V238.695H78.2944V246.332H76.8079ZM77.5586 237.517C77.3001 237.517 77.078 237.431 76.8924 237.258C76.7101 237.083 76.619 236.874 76.619 236.632C76.619 236.387 76.7101 236.178 76.8924 236.006C77.078 235.83 77.3001 235.742 77.5586 235.742C77.8171 235.742 78.0375 235.83 78.2198 236.006C78.4054 236.178 78.4982 236.387 78.4982 236.632C78.4982 236.874 78.4054 237.083 78.2198 237.258C78.0375 237.431 77.8171 237.517 77.5586 237.517ZM83.5108 246.486C82.7717 246.486 82.1354 246.318 81.6017 245.984C81.0714 245.645 80.6638 245.18 80.3787 244.587C80.0937 243.993 79.9512 243.314 79.9512 242.548C79.9512 241.773 80.097 241.088 80.3887 240.495C80.6803 239.898 81.0913 239.433 81.6216 239.098C82.1519 238.763 82.7767 238.596 83.4959 238.596C84.0759 238.596 84.593 238.703 85.0471 238.919C85.5011 239.131 85.8674 239.429 86.1458 239.814C86.4275 240.198 86.5949 240.647 86.6479 241.161H85.2012C85.1216 240.803 84.9393 240.495 84.6543 240.236C84.3726 239.978 83.9947 239.849 83.5208 239.849C83.1065 239.849 82.7435 239.958 82.432 240.177C82.1238 240.392 81.8835 240.7 81.7111 241.101C81.5388 241.499 81.4526 241.97 81.4526 242.513C81.4526 243.07 81.5371 243.551 81.7061 243.955C81.8752 244.359 82.1138 244.673 82.4221 244.895C82.7336 245.117 83.0998 245.228 83.5208 245.228C83.8025 245.228 84.0577 245.176 84.2864 245.074C84.5184 244.968 84.7123 244.817 84.8681 244.621C85.0272 244.426 85.1382 244.19 85.2012 243.915H86.6479C86.5949 244.409 86.4341 244.85 86.1657 245.238C85.8972 245.626 85.5376 245.931 85.0868 246.153C84.6394 246.375 84.1141 246.486 83.5108 246.486ZM89.6048 243.741L89.5948 241.927H89.8533L92.896 238.695H94.6758L91.2056 242.374H90.9719L89.6048 243.741ZM88.2376 246.332V236.15H89.7241V246.332H88.2376ZM93.06 246.332L90.3256 242.702L91.3498 241.663L94.8846 246.332H93.06ZM97.517 241.797V246.332H96.0305V238.695H97.4574V239.938H97.5518C97.7275 239.534 98.0026 239.209 98.3771 238.964C98.755 238.718 99.2306 238.596 99.804 238.596C100.324 238.596 100.78 238.705 101.171 238.924C101.562 239.139 101.866 239.461 102.081 239.888C102.296 240.316 102.404 240.845 102.404 241.474V246.332H100.918V241.653C100.918 241.1 100.773 240.667 100.485 240.356C100.197 240.041 99.8007 239.883 99.2969 239.883C98.9522 239.883 98.6456 239.958 98.3771 240.107C98.112 240.256 97.9015 240.475 97.7457 240.763C97.5933 241.048 97.517 241.393 97.517 241.797ZM106.62 246.501C106.136 246.501 105.699 246.411 105.308 246.232C104.916 246.05 104.607 245.786 104.378 245.442C104.152 245.097 104.04 244.674 104.04 244.174C104.04 243.743 104.123 243.388 104.288 243.11C104.454 242.832 104.678 242.611 104.96 242.449C105.241 242.286 105.556 242.164 105.904 242.081C106.252 241.998 106.607 241.935 106.968 241.892C107.425 241.839 107.797 241.796 108.082 241.763C108.367 241.726 108.574 241.668 108.703 241.589C108.832 241.509 108.897 241.38 108.897 241.201V241.166C108.897 240.732 108.774 240.395 108.529 240.157C108.287 239.918 107.926 239.799 107.445 239.799C106.945 239.799 106.55 239.91 106.262 240.132C105.977 240.351 105.78 240.594 105.67 240.863L104.273 240.545C104.439 240.081 104.681 239.706 104.999 239.421C105.321 239.133 105.69 238.924 106.108 238.795C106.526 238.662 106.965 238.596 107.425 238.596C107.73 238.596 108.054 238.632 108.395 238.705C108.74 238.775 109.061 238.904 109.359 239.093C109.661 239.282 109.908 239.552 110.1 239.903C110.292 240.251 110.388 240.704 110.388 241.261V246.332H108.937V245.288H108.877C108.781 245.48 108.637 245.669 108.445 245.854C108.252 246.04 108.005 246.194 107.704 246.317C107.402 246.439 107.041 246.501 106.62 246.501ZM106.943 245.307C107.354 245.307 107.705 245.226 107.997 245.064C108.292 244.901 108.516 244.689 108.668 244.427C108.824 244.162 108.902 243.879 108.902 243.577V242.593C108.849 242.646 108.746 242.696 108.594 242.742C108.445 242.785 108.274 242.823 108.082 242.856C107.889 242.886 107.702 242.914 107.52 242.941C107.338 242.964 107.185 242.984 107.062 243.001C106.774 243.037 106.511 243.098 106.272 243.185C106.037 243.271 105.848 243.395 105.705 243.557C105.566 243.716 105.496 243.929 105.496 244.194C105.496 244.562 105.632 244.84 105.904 245.029C106.176 245.215 106.522 245.307 106.943 245.307ZM112.368 246.332V238.695H113.795V239.938H113.89C114.049 239.517 114.309 239.189 114.67 238.954C115.032 238.715 115.464 238.596 115.968 238.596C116.478 238.596 116.906 238.715 117.251 238.954C117.599 239.192 117.855 239.52 118.021 239.938H118.101C118.283 239.53 118.573 239.206 118.971 238.964C119.368 238.718 119.842 238.596 120.393 238.596C121.085 238.596 121.65 238.813 122.088 239.247C122.529 239.681 122.749 240.336 122.749 241.211V246.332H121.263V241.35C121.263 240.833 121.122 240.458 120.84 240.226C120.558 239.994 120.222 239.878 119.831 239.878C119.347 239.878 118.971 240.028 118.702 240.326C118.434 240.621 118.3 241 118.3 241.464V246.332H116.818V241.256C116.818 240.841 116.689 240.508 116.43 240.256C116.172 240.004 115.835 239.878 115.421 239.878C115.139 239.878 114.879 239.953 114.64 240.102C114.405 240.248 114.215 240.452 114.069 240.714C113.926 240.975 113.855 241.279 113.855 241.623V246.332H112.368ZM128.033 246.486C127.28 246.486 126.632 246.325 126.089 246.003C125.549 245.679 125.131 245.223 124.836 244.636C124.544 244.046 124.398 243.355 124.398 242.563C124.398 241.781 124.544 241.091 124.836 240.495C125.131 239.898 125.542 239.433 126.069 239.098C126.599 238.763 127.219 238.596 127.928 238.596C128.359 238.596 128.777 238.667 129.181 238.81C129.585 238.952 129.948 239.176 130.27 239.481C130.591 239.786 130.845 240.182 131.031 240.669C131.216 241.153 131.309 241.741 131.309 242.434V242.961H125.239V241.847H129.852C129.852 241.456 129.773 241.11 129.614 240.808C129.455 240.503 129.231 240.263 128.942 240.087C128.657 239.912 128.323 239.824 127.938 239.824C127.521 239.824 127.156 239.926 126.844 240.132C126.536 240.334 126.298 240.599 126.129 240.927C125.963 241.252 125.88 241.605 125.88 241.986V242.856C125.88 243.367 125.969 243.801 126.148 244.159C126.331 244.517 126.584 244.79 126.909 244.979C127.234 245.165 127.613 245.258 128.048 245.258C128.329 245.258 128.586 245.218 128.818 245.138C129.05 245.056 129.251 244.933 129.42 244.77C129.589 244.608 129.718 244.408 129.808 244.169L131.214 244.422C131.102 244.837 130.9 245.2 130.608 245.511C130.32 245.819 129.957 246.06 129.519 246.232C129.085 246.401 128.589 246.486 128.033 246.486Z" fill="white"/>
<path d="M146.5 218.122V263.541H148.5V218.122H146.5Z" fill="#99C2DE" mask="url(#path-5-inside-1_310_2608)"/>
<path d="M212.529 195.947C210.819 195.941 209.348 195.52 208.115 194.685C206.888 193.849 205.944 192.64 205.281 191.055C204.625 189.471 204.3 187.565 204.306 185.338C204.306 183.117 204.635 181.225 205.291 179.661C205.954 178.096 206.898 176.906 208.125 176.091C209.358 175.269 210.826 174.858 212.529 174.858C214.233 174.858 215.698 175.269 216.924 176.091C218.157 176.913 219.105 178.106 219.768 179.67C220.431 181.228 220.759 183.117 220.752 185.338C220.752 187.572 220.421 189.481 219.758 191.065C219.102 192.65 218.161 193.859 216.934 194.695C215.708 195.53 214.24 195.947 212.529 195.947ZM212.529 192.378C213.696 192.378 214.627 191.791 215.324 190.618C216.02 189.445 216.364 187.685 216.358 185.338C216.358 183.794 216.199 182.508 215.88 181.48C215.569 180.453 215.125 179.68 214.548 179.163C213.978 178.646 213.305 178.388 212.529 178.388C211.369 178.388 210.441 178.968 209.745 180.128C209.049 181.288 208.698 183.025 208.691 185.338C208.691 186.902 208.847 188.208 209.159 189.256C209.477 190.296 209.924 191.079 210.501 191.602C211.078 192.119 211.754 192.378 212.529 192.378ZM234.801 186.773H236.647V192.44C236.647 193.077 236.495 193.634 236.191 194.111C235.89 194.588 235.468 194.96 234.925 195.227C234.382 195.491 233.75 195.624 233.029 195.624C232.304 195.624 231.671 195.491 231.128 195.227C230.586 194.96 230.164 194.588 229.863 194.111C229.561 193.634 229.411 193.077 229.411 192.44V186.773H231.256V192.283C231.256 192.615 231.328 192.911 231.473 193.169C231.621 193.428 231.828 193.631 232.096 193.778C232.363 193.926 232.674 194 233.029 194C233.387 194 233.698 193.926 233.962 193.778C234.229 193.631 234.435 193.428 234.58 193.169C234.728 192.911 234.801 192.615 234.801 192.283V186.773ZM242.899 189.283C242.865 188.939 242.719 188.672 242.46 188.482C242.202 188.291 241.851 188.196 241.408 188.196C241.107 188.196 240.852 188.239 240.645 188.324C240.438 188.406 240.278 188.521 240.168 188.669C240.06 188.817 240.006 188.984 240.006 189.172C240 189.328 240.033 189.464 240.104 189.581C240.178 189.697 240.278 189.798 240.406 189.884C240.534 189.966 240.682 190.038 240.849 190.101C241.017 190.161 241.196 190.212 241.386 190.254L242.17 190.442C242.551 190.527 242.901 190.641 243.219 190.783C243.537 190.925 243.813 191.099 244.045 191.307C244.278 191.514 244.459 191.759 244.587 192.04C244.717 192.321 244.784 192.643 244.787 193.007C244.784 193.541 244.648 194.004 244.378 194.396C244.111 194.786 243.724 195.088 243.219 195.304C242.716 195.517 242.109 195.624 241.399 195.624C240.695 195.624 240.081 195.516 239.558 195.3C239.038 195.084 238.632 194.764 238.339 194.341C238.05 193.915 237.898 193.388 237.884 192.76H239.669C239.689 193.053 239.773 193.297 239.92 193.493C240.071 193.686 240.271 193.832 240.521 193.932C240.774 194.028 241.06 194.077 241.378 194.077C241.69 194.077 241.962 194.031 242.192 193.94C242.425 193.849 242.605 193.723 242.733 193.561C242.861 193.399 242.925 193.213 242.925 193.003C242.925 192.807 242.866 192.642 242.75 192.509C242.636 192.375 242.469 192.261 242.247 192.168C242.028 192.074 241.76 191.989 241.442 191.912L240.491 191.673C239.756 191.494 239.175 191.214 238.749 190.834C238.322 190.453 238.111 189.94 238.114 189.295C238.111 188.767 238.251 188.305 238.536 187.911C238.822 187.516 239.216 187.207 239.716 186.986C240.216 186.764 240.784 186.653 241.42 186.653C242.068 186.653 242.634 186.764 243.116 186.986C243.602 187.207 243.98 187.516 244.25 187.911C244.52 188.305 244.659 188.763 244.668 189.283H242.899ZM249.122 195.5H246.028V186.773H249.147C250.025 186.773 250.781 186.947 251.414 187.297C252.048 187.643 252.535 188.142 252.876 188.793C253.22 189.443 253.392 190.222 253.392 191.128C253.392 192.037 253.22 192.818 252.876 193.472C252.535 194.125 252.045 194.626 251.406 194.976C250.77 195.325 250.008 195.5 249.122 195.5ZM247.873 193.919H249.045C249.591 193.919 250.049 193.822 250.422 193.629C250.797 193.433 251.078 193.131 251.265 192.722C251.456 192.31 251.551 191.778 251.551 191.128C251.551 190.483 251.456 189.956 251.265 189.547C251.078 189.138 250.798 188.837 250.426 188.643C250.054 188.45 249.595 188.354 249.049 188.354H247.873V193.919Z" fill="white"/>
<path d="M45.5241 137.712C44.7386 137.709 44.0675 137.502 43.5107 137.091C42.9538 136.68 42.5279 136.082 42.233 135.296C41.938 134.511 41.7905 133.565 41.7905 132.458C41.7905 131.354 41.938 130.411 42.233 129.629C42.5313 128.846 42.9588 128.25 43.5156 127.839C44.0758 127.428 44.7453 127.222 45.5241 127.222C46.303 127.222 46.9709 127.43 47.5277 127.844C48.0845 128.255 48.5104 128.851 48.8054 129.634C49.1037 130.413 49.2528 131.354 49.2528 132.458C49.2528 133.568 49.1054 134.516 48.8104 135.301C48.5154 136.083 48.0895 136.682 47.5327 137.096C46.9759 137.507 46.3063 137.712 45.5241 137.712ZM45.5241 136.385C46.2135 136.385 46.7521 136.049 47.1399 135.376C47.531 134.703 47.7266 133.73 47.7266 132.458C47.7266 131.612 47.6371 130.898 47.4581 130.315C47.2824 129.728 47.0289 129.284 46.6974 128.982C46.3693 128.677 45.9782 128.525 45.5241 128.525C44.8381 128.525 44.2995 128.863 43.9084 129.539C43.5173 130.215 43.3201 131.188 43.3168 132.458C43.3168 133.306 43.4046 134.024 43.5803 134.61C43.7592 135.194 44.0128 135.636 44.3409 135.938C44.669 136.236 45.0634 136.385 45.5241 136.385Z" fill="white"/>
<path d="M252.225 127.362V137.543H250.684V128.903H250.624L248.188 130.494V129.022L250.729 127.362H252.225Z" fill="white"/>
<path d="M48.3239 100.06C48.2784 99.6015 48.0833 99.2454 47.7386 98.9917C47.3939 98.7379 46.9261 98.611 46.3352 98.611C45.9337 98.611 45.5947 98.6678 45.3182 98.7814C45.0417 98.8913 44.8295 99.0447 44.6818 99.2417C44.5379 99.4386 44.4659 99.6621 44.4659 99.9121C44.4583 100.12 44.5019 100.302 44.5966 100.458C44.6951 100.613 44.8295 100.747 45 100.861C45.1705 100.971 45.3674 101.067 45.5909 101.151C45.8144 101.23 46.053 101.298 46.3068 101.355L47.3523 101.605C47.8598 101.719 48.3258 101.87 48.75 102.06C49.1742 102.249 49.5417 102.482 49.8523 102.759C50.1629 103.035 50.4034 103.361 50.5739 103.736C50.7481 104.111 50.8371 104.541 50.8409 105.026C50.8371 105.738 50.6553 106.355 50.2955 106.878C49.9394 107.397 49.4242 107.8 48.75 108.088C48.0795 108.372 47.2708 108.514 46.3239 108.514C45.3845 108.514 44.5663 108.37 43.8693 108.083C43.1761 107.795 42.6345 107.369 42.2443 106.804C41.858 106.236 41.6553 105.533 41.6364 104.696H44.017C44.0436 105.086 44.1553 105.412 44.3523 105.673C44.553 105.931 44.8201 106.126 45.1534 106.259C45.4905 106.387 45.8712 106.452 46.2955 106.452C46.7121 106.452 47.0739 106.391 47.3807 106.27C47.6913 106.149 47.9318 105.98 48.1023 105.764C48.2727 105.548 48.358 105.3 48.358 105.02C48.358 104.759 48.2803 104.539 48.125 104.361C47.9735 104.183 47.75 104.031 47.4545 103.906C47.1629 103.781 46.8049 103.668 46.3807 103.566L45.1136 103.247C44.1326 103.009 43.358 102.636 42.7898 102.128C42.2216 101.62 41.9394 100.937 41.9432 100.077C41.9394 99.3723 42.1269 98.7568 42.5057 98.2303C42.8883 97.7038 43.4129 97.2928 44.0795 96.9973C44.7462 96.7019 45.5038 96.5542 46.3523 96.5542C47.2159 96.5542 47.9697 96.7019 48.6136 96.9973C49.2614 97.2928 49.7652 97.7038 50.125 98.2303C50.4848 98.7568 50.6705 99.3667 50.6818 100.06H48.3239ZM54.9389 108.514C54.3821 108.514 53.8859 108.418 53.4503 108.225C53.0147 108.028 52.67 107.738 52.4162 107.355C52.1662 106.969 52.0412 106.488 52.0412 105.912C52.0412 105.427 52.1302 105.02 52.3082 104.691C52.4863 104.361 52.7287 104.096 53.0355 103.895C53.3423 103.694 53.6908 103.543 54.081 103.441C54.4749 103.338 54.8878 103.266 55.3196 103.225C55.8272 103.172 56.2363 103.122 56.5469 103.077C56.8575 103.028 57.0829 102.956 57.223 102.861C57.3632 102.766 57.4332 102.626 57.4332 102.441V102.406C57.4332 102.047 57.3196 101.768 57.0923 101.571C56.8688 101.374 56.5507 101.276 56.1378 101.276C55.7022 101.276 55.3556 101.372 55.098 101.566C54.8404 101.755 54.67 101.994 54.5866 102.281L52.348 102.1C52.4616 101.569 52.6851 101.111 53.0185 100.725C53.3518 100.334 53.7817 100.035 54.3082 99.8269C54.8385 99.6148 55.4522 99.5087 56.1491 99.5087C56.634 99.5087 57.098 99.5655 57.5412 99.6792C57.9882 99.7928 58.384 99.9689 58.7287 100.208C59.0772 100.446 59.3518 100.753 59.5526 101.128C59.7533 101.499 59.8537 101.944 59.8537 102.463V108.35H57.5582V107.139H57.4901C57.3499 107.412 57.1624 107.653 56.9276 107.861C56.6927 108.066 56.4105 108.227 56.081 108.344C55.7514 108.458 55.3707 108.514 54.9389 108.514ZM55.6321 106.844C55.9882 106.844 56.3026 106.774 56.5753 106.634C56.848 106.49 57.062 106.297 57.2173 106.054C57.3726 105.812 57.4503 105.537 57.4503 105.23V104.304C57.3745 104.353 57.2704 104.399 57.1378 104.441C57.009 104.478 56.8632 104.514 56.7003 104.548C56.5374 104.579 56.3745 104.607 56.2116 104.634C56.0488 104.656 55.901 104.677 55.7685 104.696C55.4844 104.738 55.2363 104.804 55.0241 104.895C54.812 104.986 54.6473 105.109 54.5298 105.264C54.4124 105.416 54.3537 105.605 54.3537 105.833C54.3537 106.162 54.473 106.414 54.7116 106.588C54.9541 106.759 55.2609 106.844 55.6321 106.844ZM69.5554 99.6223L66.5043 108.35H63.777L60.7259 99.6223H63.2827L65.0952 105.867H65.1861L66.9929 99.6223H69.5554ZM70.794 108.35V99.6223H73.2145V108.35H70.794ZM72.0099 98.4973C71.6501 98.4973 71.3414 98.378 71.0838 98.1394C70.83 97.897 70.7031 97.6072 70.7031 97.2701C70.7031 96.9367 70.83 96.6507 71.0838 96.4121C71.3414 96.1697 71.6501 96.0485 72.0099 96.0485C72.3698 96.0485 72.6766 96.1697 72.9304 96.4121C73.188 96.6507 73.3168 96.9367 73.3168 97.2701C73.3168 97.6072 73.188 97.897 72.9304 98.1394C72.6766 98.378 72.3698 98.4973 72.0099 98.4973ZM77.5739 103.304V108.35H75.1534V99.6223H77.4602V101.162H77.5625C77.7557 100.655 78.0795 100.253 78.5341 99.9576C78.9886 99.6583 79.5398 99.5087 80.1875 99.5087C80.7936 99.5087 81.322 99.6413 81.7727 99.9064C82.2235 100.172 82.5739 100.55 82.8239 101.043C83.0739 101.531 83.1989 102.115 83.1989 102.793V108.35H80.7784V103.225C80.7822 102.691 80.6458 102.274 80.3693 101.975C80.0928 101.672 79.7121 101.52 79.2273 101.52C78.9015 101.52 78.6136 101.59 78.3636 101.73C78.1174 101.87 77.9242 102.075 77.7841 102.344C77.6477 102.609 77.5777 102.929 77.5739 103.304ZM89.0384 111.804C88.2543 111.804 87.5819 111.696 87.0213 111.48C86.4645 111.268 86.0213 110.978 85.6918 110.611C85.3622 110.244 85.1482 109.831 85.0497 109.372L87.2884 109.071C87.3565 109.245 87.4645 109.408 87.6122 109.56C87.7599 109.711 87.955 109.833 88.1974 109.923C88.4437 110.018 88.7429 110.066 89.0952 110.066C89.6217 110.066 90.0554 109.937 90.3963 109.679C90.741 109.425 90.9134 108.999 90.9134 108.401V106.804H90.8111C90.705 107.047 90.5459 107.276 90.3338 107.492C90.1217 107.708 89.849 107.884 89.5156 108.02C89.1823 108.156 88.7846 108.225 88.3224 108.225C87.6671 108.225 87.0705 108.073 86.5327 107.77C85.9986 107.463 85.5724 106.995 85.2543 106.367C84.9399 105.734 84.7827 104.935 84.7827 103.969C84.7827 102.98 84.9437 102.155 85.2656 101.492C85.5876 100.829 86.0156 100.333 86.5497 100.003C87.0876 99.6735 87.6766 99.5087 88.3168 99.5087C88.8054 99.5087 89.2145 99.592 89.544 99.7587C89.8736 99.9216 90.1387 100.126 90.3395 100.372C90.544 100.615 90.7012 100.853 90.8111 101.088H90.902V99.6223H93.3054V108.435C93.3054 109.177 93.1236 109.798 92.7599 110.298C92.3963 110.798 91.8925 111.173 91.2486 111.423C90.6084 111.677 89.8717 111.804 89.0384 111.804ZM89.0895 106.406C89.4796 106.406 89.8092 106.31 90.0781 106.117C90.3509 105.92 90.5592 105.639 90.7031 105.276C90.8509 104.908 90.9247 104.469 90.9247 103.958C90.9247 103.446 90.8527 103.003 90.7088 102.628C90.5649 102.249 90.3565 101.956 90.0838 101.747C89.8111 101.539 89.4796 101.435 89.0895 101.435C88.6918 101.435 88.3565 101.543 88.0838 101.759C87.8111 101.971 87.6046 102.266 87.4645 102.645C87.3243 103.024 87.2543 103.461 87.2543 103.958C87.2543 104.461 87.3243 104.897 87.4645 105.264C87.6084 105.628 87.8149 105.91 88.0838 106.111C88.3565 106.308 88.6918 106.406 89.0895 106.406ZM100.986 108.35H98.3494L102.366 96.7132H105.537L109.548 108.35H106.912L103.997 99.3723H103.906L100.986 108.35ZM100.821 103.776H107.048V105.696H100.821V103.776ZM114.44 108.52C113.546 108.52 112.777 108.331 112.134 107.952C111.493 107.569 111.001 107.039 110.656 106.361C110.315 105.683 110.145 104.903 110.145 104.02C110.145 103.126 110.317 102.342 110.662 101.668C111.01 100.99 111.505 100.461 112.145 100.083C112.785 99.7 113.546 99.5087 114.429 99.5087C115.19 99.5087 115.857 99.647 116.429 99.9235C117.001 100.2 117.454 100.588 117.787 101.088C118.12 101.588 118.304 102.175 118.338 102.85H116.054C115.99 102.414 115.819 102.064 115.543 101.798C115.27 101.53 114.912 101.395 114.469 101.395C114.094 101.395 113.766 101.497 113.486 101.702C113.209 101.903 112.993 102.196 112.838 102.583C112.683 102.969 112.605 103.437 112.605 103.986C112.605 104.543 112.681 105.016 112.832 105.406C112.988 105.797 113.205 106.094 113.486 106.298C113.766 106.503 114.094 106.605 114.469 106.605C114.745 106.605 114.993 106.548 115.213 106.435C115.437 106.321 115.62 106.156 115.764 105.941C115.912 105.721 116.009 105.458 116.054 105.151H118.338C118.3 105.817 118.118 106.405 117.793 106.912C117.471 107.416 117.026 107.81 116.457 108.094C115.889 108.378 115.217 108.52 114.44 108.52ZM123.831 108.52C122.937 108.52 122.168 108.331 121.524 107.952C120.884 107.569 120.392 107.039 120.047 106.361C119.706 105.683 119.536 104.903 119.536 104.02C119.536 103.126 119.708 102.342 120.053 101.668C120.401 100.99 120.895 100.461 121.536 100.083C122.176 99.7 122.937 99.5087 123.82 99.5087C124.581 99.5087 125.248 99.647 125.82 99.9235C126.392 100.2 126.844 100.588 127.178 101.088C127.511 101.588 127.695 102.175 127.729 102.85H125.445C125.38 102.414 125.21 102.064 124.933 101.798C124.661 101.53 124.303 101.395 123.859 101.395C123.484 101.395 123.157 101.497 122.876 101.702C122.6 101.903 122.384 102.196 122.229 102.583C122.073 102.969 121.996 103.437 121.996 103.986C121.996 104.543 122.071 105.016 122.223 105.406C122.378 105.797 122.596 106.094 122.876 106.298C123.157 106.503 123.484 106.605 123.859 106.605C124.136 106.605 124.384 106.548 124.604 106.435C124.827 106.321 125.011 106.156 125.155 105.941C125.303 105.721 125.399 105.458 125.445 105.151H127.729C127.691 105.817 127.509 106.405 127.183 106.912C126.861 107.416 126.416 107.81 125.848 108.094C125.28 108.378 124.607 108.52 123.831 108.52ZM133.222 108.52C132.339 108.52 131.576 108.333 130.932 107.958C130.292 107.579 129.797 107.052 129.449 106.378C129.1 105.7 128.926 104.914 128.926 104.02C128.926 103.119 129.1 102.331 129.449 101.656C129.797 100.978 130.292 100.452 130.932 100.077C131.576 99.6981 132.339 99.5087 133.222 99.5087C134.104 99.5087 134.866 99.6981 135.506 100.077C136.15 100.452 136.646 100.978 136.994 101.656C137.343 102.331 137.517 103.119 137.517 104.02C137.517 104.914 137.343 105.7 136.994 106.378C136.646 107.052 136.15 107.579 135.506 107.958C134.866 108.333 134.104 108.52 133.222 108.52ZM133.233 106.645C133.634 106.645 133.97 106.531 134.239 106.304C134.508 106.073 134.71 105.759 134.847 105.361C134.987 104.963 135.057 104.511 135.057 104.003C135.057 103.495 134.987 103.043 134.847 102.645C134.71 102.247 134.508 101.933 134.239 101.702C133.97 101.471 133.634 101.355 133.233 101.355C132.828 101.355 132.487 101.471 132.21 101.702C131.938 101.933 131.731 102.247 131.591 102.645C131.455 103.043 131.386 103.495 131.386 104.003C131.386 104.511 131.455 104.963 131.591 105.361C131.731 105.759 131.938 106.073 132.21 106.304C132.487 106.531 132.828 106.645 133.233 106.645ZM144.688 104.634V99.6223H147.108V108.35H144.784V106.764H144.693C144.496 107.276 144.169 107.687 143.71 107.997C143.256 108.308 142.701 108.463 142.045 108.463C141.462 108.463 140.949 108.331 140.506 108.066C140.063 107.8 139.716 107.423 139.466 106.935C139.22 106.446 139.095 105.861 139.091 105.179V99.6223H141.511V104.747C141.515 105.262 141.653 105.67 141.926 105.969C142.199 106.268 142.564 106.418 143.023 106.418C143.314 106.418 143.587 106.352 143.841 106.219C144.095 106.083 144.299 105.882 144.455 105.617C144.614 105.352 144.691 105.024 144.688 104.634ZM151.464 103.304V108.35H149.044V99.6223H151.351V101.162H151.453C151.646 100.655 151.97 100.253 152.425 99.9576C152.879 99.6583 153.43 99.5087 154.078 99.5087C154.684 99.5087 155.213 99.6413 155.663 99.9064C156.114 100.172 156.464 100.55 156.714 101.043C156.964 101.531 157.089 102.115 157.089 102.793V108.35H154.669V103.225C154.673 102.691 154.536 102.274 154.26 101.975C153.983 101.672 153.603 101.52 153.118 101.52C152.792 101.52 152.504 101.59 152.254 101.73C152.008 101.87 151.815 102.075 151.675 102.344C151.538 102.609 151.468 102.929 151.464 103.304ZM163.639 99.6223V101.441H158.384V99.6223H163.639ZM159.577 97.5314H161.997V105.668C161.997 105.891 162.031 106.066 162.099 106.191C162.168 106.312 162.262 106.397 162.384 106.446C162.509 106.495 162.652 106.52 162.815 106.52C162.929 106.52 163.043 106.511 163.156 106.492C163.27 106.469 163.357 106.452 163.418 106.441L163.798 108.242C163.677 108.28 163.507 108.323 163.287 108.372C163.067 108.425 162.8 108.458 162.486 108.469C161.902 108.492 161.391 108.414 160.952 108.236C160.516 108.058 160.177 107.781 159.935 107.406C159.692 107.031 159.573 106.558 159.577 105.986V97.5314Z" fill="white"/>
<rect x="294" y="75" width="253" height="189" rx="8" fill="#0067AC"/>
<path opacity="0.4" d="M294 217.667H547" stroke="white"/>
<path d="M468.665 246.332H465.369V236.15H468.769C469.767 236.15 470.624 236.354 471.339 236.761C472.055 237.166 472.604 237.747 472.985 238.506C473.37 239.262 473.562 240.168 473.562 241.226C473.562 242.286 473.368 243.198 472.98 243.96C472.596 244.722 472.039 245.309 471.31 245.72C470.58 246.128 469.699 246.332 468.665 246.332ZM466.905 244.989H468.58C469.356 244.989 470 244.843 470.514 244.552C471.028 244.257 471.412 243.831 471.668 243.274C471.923 242.714 472.05 242.031 472.05 241.226C472.05 240.427 471.923 239.749 471.668 239.192C471.416 238.636 471.04 238.213 470.539 237.925C470.039 237.636 469.417 237.492 468.675 237.492H466.905V244.989ZM478.644 246.486C477.892 246.486 477.244 246.325 476.7 246.003C476.16 245.679 475.742 245.223 475.447 244.636C475.156 244.046 475.01 243.355 475.01 242.563C475.01 241.781 475.156 241.091 475.447 240.495C475.742 239.898 476.153 239.433 476.68 239.098C477.211 238.763 477.83 238.596 478.54 238.596C478.97 238.596 479.388 238.667 479.792 238.81C480.197 238.952 480.56 239.176 480.881 239.481C481.203 239.786 481.456 240.182 481.642 240.669C481.827 241.153 481.92 241.741 481.92 242.434V242.961H475.85V241.847H480.464C480.464 241.456 480.384 241.11 480.225 240.808C480.066 240.503 479.842 240.263 479.554 240.087C479.269 239.912 478.934 239.824 478.55 239.824C478.132 239.824 477.767 239.926 477.456 240.132C477.148 240.334 476.909 240.599 476.74 240.927C476.574 241.252 476.491 241.605 476.491 241.986V242.856C476.491 243.367 476.581 243.801 476.76 244.159C476.942 244.517 477.196 244.79 477.52 244.979C477.845 245.165 478.225 245.258 478.659 245.258C478.941 245.258 479.198 245.218 479.43 245.138C479.662 245.056 479.862 244.933 480.031 244.77C480.2 244.608 480.329 244.408 480.419 244.169L481.826 244.422C481.713 244.837 481.511 245.2 481.219 245.511C480.931 245.819 480.568 246.06 480.131 246.232C479.696 246.401 479.201 246.486 478.644 246.486ZM487.134 238.695V239.888H482.963V238.695H487.134ZM484.082 236.866H485.568V244.089C485.568 244.378 485.611 244.595 485.697 244.741C485.784 244.883 485.895 244.981 486.031 245.034C486.17 245.084 486.321 245.109 486.483 245.109C486.602 245.109 486.707 245.1 486.796 245.084C486.886 245.067 486.955 245.054 487.005 245.044L487.273 246.272C487.187 246.305 487.065 246.338 486.906 246.371C486.746 246.408 486.548 246.428 486.309 246.431C485.918 246.438 485.553 246.368 485.215 246.222C484.877 246.076 484.604 245.851 484.395 245.546C484.186 245.241 484.082 244.858 484.082 244.398V236.866ZM491.001 246.501C490.517 246.501 490.079 246.411 489.688 246.232C489.297 246.05 488.987 245.786 488.759 245.442C488.533 245.097 488.421 244.674 488.421 244.174C488.421 243.743 488.503 243.388 488.669 243.11C488.835 242.832 489.059 242.611 489.34 242.449C489.622 242.286 489.937 242.164 490.285 242.081C490.633 241.998 490.988 241.935 491.349 241.892C491.806 241.839 492.177 241.796 492.463 241.763C492.748 241.726 492.955 241.668 493.084 241.589C493.213 241.509 493.278 241.38 493.278 241.201V241.166C493.278 240.732 493.155 240.395 492.91 240.157C492.668 239.918 492.307 239.799 491.826 239.799C491.326 239.799 490.931 239.91 490.643 240.132C490.358 240.351 490.161 240.594 490.051 240.863L488.654 240.545C488.82 240.081 489.062 239.706 489.38 239.421C489.702 239.133 490.071 238.924 490.489 238.795C490.906 238.662 491.346 238.596 491.806 238.596C492.111 238.596 492.434 238.632 492.776 238.705C493.12 238.775 493.442 238.904 493.74 239.093C494.042 239.282 494.289 239.552 494.481 239.903C494.673 240.251 494.769 240.704 494.769 241.261V246.332H493.318V245.288H493.258C493.162 245.48 493.018 245.669 492.825 245.854C492.633 246.04 492.386 246.194 492.085 246.317C491.783 246.439 491.422 246.501 491.001 246.501ZM491.324 245.307C491.735 245.307 492.086 245.226 492.378 245.064C492.673 244.901 492.897 244.689 493.049 244.427C493.205 244.162 493.283 243.879 493.283 243.577V242.593C493.23 242.646 493.127 242.696 492.975 242.742C492.825 242.785 492.655 242.823 492.463 242.856C492.27 242.886 492.083 242.914 491.901 242.941C491.718 242.964 491.566 242.984 491.443 243.001C491.155 243.037 490.892 243.098 490.653 243.185C490.418 243.271 490.229 243.395 490.086 243.557C489.947 243.716 489.877 243.929 489.877 244.194C489.877 244.562 490.013 244.84 490.285 245.029C490.557 245.215 490.903 245.307 491.324 245.307ZM496.749 246.332V238.695H498.236V246.332H496.749ZM497.5 237.517C497.241 237.517 497.019 237.431 496.834 237.258C496.652 237.083 496.56 236.874 496.56 236.632C496.56 236.387 496.652 236.178 496.834 236.006C497.019 235.83 497.241 235.742 497.5 235.742C497.759 235.742 497.979 235.83 498.161 236.006C498.347 236.178 498.44 236.387 498.44 236.632C498.44 236.874 498.347 237.083 498.161 237.258C497.979 237.431 497.759 237.517 497.5 237.517ZM501.722 236.15V246.332H500.236V236.15H501.722Z" fill="white"/>
<path d="M309.869 246.332V236.15H316.252V237.472H311.405V240.574H315.919V241.892H311.405V245.009H316.312V246.332H309.869ZM321.044 246.481C320.427 246.481 319.877 246.323 319.393 246.008C318.912 245.69 318.535 245.238 318.259 244.651C317.988 244.061 317.852 243.354 317.852 242.528C317.852 241.703 317.989 240.997 318.264 240.41C318.543 239.824 318.924 239.375 319.408 239.063C319.892 238.752 320.44 238.596 321.053 238.596C321.527 238.596 321.909 238.675 322.197 238.834C322.489 238.99 322.714 239.172 322.873 239.381C323.035 239.59 323.161 239.774 323.251 239.933H323.34V236.15H324.827V246.332H323.375V245.143H323.251C323.161 245.306 323.032 245.491 322.863 245.7C322.697 245.909 322.469 246.091 322.177 246.247C321.885 246.403 321.508 246.481 321.044 246.481ZM321.372 245.213C321.799 245.213 322.16 245.1 322.455 244.875C322.754 244.646 322.979 244.33 323.132 243.925C323.287 243.521 323.365 243.05 323.365 242.513C323.365 241.983 323.289 241.519 323.137 241.121C322.984 240.724 322.76 240.414 322.465 240.192C322.17 239.97 321.806 239.859 321.372 239.859C320.924 239.859 320.551 239.975 320.253 240.207C319.955 240.439 319.729 240.755 319.577 241.156C319.428 241.557 319.353 242.01 319.353 242.513C319.353 243.024 319.429 243.483 319.582 243.89C319.734 244.298 319.96 244.621 320.258 244.86C320.56 245.095 320.931 245.213 321.372 245.213ZM326.949 246.332V238.695H328.435V246.332H326.949ZM327.699 237.517C327.441 237.517 327.219 237.431 327.033 237.258C326.851 237.083 326.76 236.874 326.76 236.632C326.76 236.387 326.851 236.178 327.033 236.006C327.219 235.83 327.441 235.742 327.699 235.742C327.958 235.742 328.178 235.83 328.36 236.006C328.546 236.178 328.639 236.387 328.639 236.632C328.639 236.874 328.546 237.083 328.36 237.258C328.178 237.431 327.958 237.517 327.699 237.517ZM333.999 238.695V239.888H329.828V238.695H333.999ZM330.947 236.866H332.433V244.089C332.433 244.378 332.477 244.595 332.563 244.741C332.649 244.883 332.76 244.981 332.896 245.034C333.035 245.084 333.186 245.109 333.348 245.109C333.468 245.109 333.572 245.1 333.661 245.084C333.751 245.067 333.82 245.054 333.87 245.044L334.139 246.272C334.052 246.305 333.93 246.338 333.771 246.371C333.612 246.408 333.413 246.428 333.174 246.431C332.783 246.438 332.419 246.368 332.08 246.222C331.742 246.076 331.469 245.851 331.26 245.546C331.051 245.241 330.947 244.858 330.947 244.398V236.866ZM347.686 236.15V246.332H346.274L341.099 238.864H341.004V246.332H339.468V236.15H340.89L346.07 243.627H346.165V236.15H347.686ZM349.808 246.332V238.695H351.294V246.332H349.808ZM350.559 237.517C350.3 237.517 350.078 237.431 349.892 237.258C349.71 237.083 349.619 236.874 349.619 236.632C349.619 236.387 349.71 236.178 349.892 236.006C350.078 235.83 350.3 235.742 350.559 235.742C350.817 235.742 351.038 235.83 351.22 236.006C351.405 236.178 351.498 236.387 351.498 236.632C351.498 236.874 351.405 237.083 351.22 237.258C351.038 237.431 350.817 237.517 350.559 237.517ZM356.511 246.486C355.772 246.486 355.135 246.318 354.602 245.984C354.071 245.645 353.664 245.18 353.379 244.587C353.094 243.993 352.951 243.314 352.951 242.548C352.951 241.773 353.097 241.088 353.389 240.495C353.68 239.898 354.091 239.433 354.622 239.098C355.152 238.763 355.777 238.596 356.496 238.596C357.076 238.596 357.593 238.703 358.047 238.919C358.501 239.131 358.867 239.429 359.146 239.814C359.427 240.198 359.595 240.647 359.648 241.161H358.201C358.122 240.803 357.939 240.495 357.654 240.236C357.373 239.978 356.995 239.849 356.521 239.849C356.106 239.849 355.744 239.958 355.432 240.177C355.124 240.392 354.883 240.7 354.711 241.101C354.539 241.499 354.453 241.97 354.453 242.513C354.453 243.07 354.537 243.551 354.706 243.955C354.875 244.359 355.114 244.673 355.422 244.895C355.734 245.117 356.1 245.228 356.521 245.228C356.802 245.228 357.058 245.176 357.286 245.074C357.518 244.968 357.712 244.817 357.868 244.621C358.027 244.426 358.138 244.19 358.201 243.915H359.648C359.595 244.409 359.434 244.85 359.166 245.238C358.897 245.626 358.538 245.931 358.087 246.153C357.639 246.375 357.114 246.486 356.511 246.486ZM362.605 243.741L362.595 241.927H362.853L365.896 238.695H367.676L364.206 242.374H363.972L362.605 243.741ZM361.238 246.332V236.15H362.724V246.332H361.238ZM366.06 246.332L363.326 242.702L364.35 241.663L367.885 246.332H366.06ZM370.517 241.797V246.332H369.031V238.695H370.457V239.938H370.552C370.728 239.534 371.003 239.209 371.377 238.964C371.755 238.718 372.231 238.596 372.804 238.596C373.324 238.596 373.78 238.705 374.171 238.924C374.562 239.139 374.866 239.461 375.081 239.888C375.296 240.316 375.404 240.845 375.404 241.474V246.332H373.918V241.653C373.918 241.1 373.773 240.667 373.485 240.356C373.197 240.041 372.801 239.883 372.297 239.883C371.952 239.883 371.646 239.958 371.377 240.107C371.112 240.256 370.902 240.475 370.746 240.763C370.593 241.048 370.517 241.393 370.517 241.797ZM379.62 246.501C379.136 246.501 378.699 246.411 378.308 246.232C377.916 246.05 377.607 245.786 377.378 245.442C377.152 245.097 377.04 244.674 377.04 244.174C377.04 243.743 377.123 243.388 377.288 243.11C377.454 242.832 377.678 242.611 377.96 242.449C378.241 242.286 378.556 242.164 378.904 242.081C379.252 241.998 379.607 241.935 379.968 241.892C380.425 241.839 380.797 241.796 381.082 241.763C381.367 241.726 381.574 241.668 381.703 241.589C381.832 241.509 381.897 241.38 381.897 241.201V241.166C381.897 240.732 381.774 240.395 381.529 240.157C381.287 239.918 380.926 239.799 380.445 239.799C379.945 239.799 379.55 239.91 379.262 240.132C378.977 240.351 378.78 240.594 378.67 240.863L377.273 240.545C377.439 240.081 377.681 239.706 377.999 239.421C378.321 239.133 378.69 238.924 379.108 238.795C379.526 238.662 379.965 238.596 380.425 238.596C380.73 238.596 381.054 238.632 381.395 238.705C381.74 238.775 382.061 238.904 382.359 239.093C382.661 239.282 382.908 239.552 383.1 239.903C383.292 240.251 383.388 240.704 383.388 241.261V246.332H381.937V245.288H381.877C381.781 245.48 381.637 245.669 381.445 245.854C381.252 246.04 381.005 246.194 380.704 246.317C380.402 246.439 380.041 246.501 379.62 246.501ZM379.943 245.307C380.354 245.307 380.705 245.226 380.997 245.064C381.292 244.901 381.516 244.689 381.668 244.427C381.824 244.162 381.902 243.879 381.902 243.577V242.593C381.849 242.646 381.746 242.696 381.594 242.742C381.445 242.785 381.274 242.823 381.082 242.856C380.889 242.886 380.702 242.914 380.52 242.941C380.338 242.964 380.185 242.984 380.062 243.001C379.774 243.037 379.511 243.098 379.272 243.185C379.037 243.271 378.848 243.395 378.705 243.557C378.566 243.716 378.496 243.929 378.496 244.194C378.496 244.562 378.632 244.84 378.904 245.029C379.176 245.215 379.522 245.307 379.943 245.307ZM385.368 246.332V238.695H386.795V239.938H386.89C387.049 239.517 387.309 239.189 387.67 238.954C388.032 238.715 388.464 238.596 388.968 238.596C389.478 238.596 389.906 238.715 390.251 238.954C390.599 239.192 390.855 239.52 391.021 239.938H391.101C391.283 239.53 391.573 239.206 391.971 238.964C392.368 238.718 392.842 238.596 393.393 238.596C394.085 238.596 394.65 238.813 395.088 239.247C395.529 239.681 395.749 240.336 395.749 241.211V246.332H394.263V241.35C394.263 240.833 394.122 240.458 393.84 240.226C393.558 239.994 393.222 239.878 392.831 239.878C392.347 239.878 391.971 240.028 391.702 240.326C391.434 240.621 391.3 241 391.3 241.464V246.332H389.818V241.256C389.818 240.841 389.689 240.508 389.43 240.256C389.172 240.004 388.835 239.878 388.421 239.878C388.139 239.878 387.879 239.953 387.64 240.102C387.405 240.248 387.215 240.452 387.069 240.714C386.926 240.975 386.855 241.279 386.855 241.623V246.332H385.368ZM401.033 246.486C400.28 246.486 399.632 246.325 399.089 246.003C398.549 245.679 398.131 245.223 397.836 244.636C397.544 244.046 397.398 243.355 397.398 242.563C397.398 241.781 397.544 241.091 397.836 240.495C398.131 239.898 398.542 239.433 399.069 239.098C399.599 238.763 400.219 238.596 400.928 238.596C401.359 238.596 401.777 238.667 402.181 238.81C402.585 238.952 402.948 239.176 403.27 239.481C403.591 239.786 403.845 240.182 404.031 240.669C404.216 241.153 404.309 241.741 404.309 242.434V242.961H398.239V241.847H402.852C402.852 241.456 402.773 241.11 402.614 240.808C402.455 240.503 402.231 240.263 401.942 240.087C401.657 239.912 401.323 239.824 400.938 239.824C400.521 239.824 400.156 239.926 399.844 240.132C399.536 240.334 399.298 240.599 399.129 240.927C398.963 241.252 398.88 241.605 398.88 241.986V242.856C398.88 243.367 398.969 243.801 399.148 244.159C399.331 244.517 399.584 244.79 399.909 244.979C400.234 245.165 400.613 245.258 401.048 245.258C401.329 245.258 401.586 245.218 401.818 245.138C402.05 245.056 402.251 244.933 402.42 244.77C402.589 244.608 402.718 244.408 402.808 244.169L404.214 244.422C404.102 244.837 403.9 245.2 403.608 245.511C403.32 245.819 402.957 246.06 402.519 246.232C402.085 246.401 401.589 246.486 401.033 246.486Z" fill="white"/>
<path d="M419.5 218.122V263.541H421.5V218.122H419.5Z" fill="#99C2DE" mask="url(#path-15-inside-2_310_2608)"/>
<path d="M485.529 194.112C483.819 194.106 482.348 193.685 481.115 192.85C479.888 192.014 478.944 190.805 478.281 189.22C477.625 187.636 477.3 185.73 477.306 183.503C477.306 181.282 477.635 179.39 478.291 177.826C478.954 176.261 479.898 175.071 481.125 174.256C482.358 173.434 483.826 173.023 485.529 173.023C487.233 173.023 488.698 173.434 489.924 174.256C491.157 175.078 492.105 176.271 492.768 177.835C493.431 179.393 493.759 181.282 493.752 183.503C493.752 185.737 493.421 187.646 492.758 189.23C492.102 190.815 491.161 192.024 489.934 192.86C488.708 193.695 487.24 194.112 485.529 194.112ZM485.529 190.543C486.696 190.543 487.627 189.956 488.324 188.783C489.02 187.61 489.364 185.85 489.358 183.503C489.358 181.959 489.199 180.673 488.88 179.645C488.569 178.618 488.125 177.845 487.548 177.328C486.978 176.811 486.305 176.553 485.529 176.553C484.369 176.553 483.441 177.133 482.745 178.293C482.049 179.453 481.698 181.19 481.691 183.503C481.691 185.068 481.847 186.373 482.159 187.421C482.477 188.461 482.924 189.244 483.501 189.767C484.078 190.284 484.754 190.543 485.529 190.543ZM507.801 184.938H509.647V190.605C509.647 191.242 509.495 191.799 509.191 192.276C508.89 192.753 508.468 193.125 507.925 193.392C507.382 193.657 506.75 193.789 506.029 193.789C505.304 193.789 504.671 193.657 504.128 193.392C503.586 193.125 503.164 192.753 502.863 192.276C502.561 191.799 502.411 191.242 502.411 190.605V184.938H504.256V190.448C504.256 190.78 504.328 191.076 504.473 191.334C504.621 191.593 504.828 191.796 505.096 191.943C505.363 192.091 505.674 192.165 506.029 192.165C506.387 192.165 506.698 192.091 506.962 191.943C507.229 191.796 507.435 191.593 507.58 191.334C507.728 191.076 507.801 190.78 507.801 190.448V184.938ZM515.899 187.448C515.865 187.104 515.719 186.837 515.46 186.647C515.202 186.456 514.851 186.361 514.408 186.361C514.107 186.361 513.852 186.404 513.645 186.489C513.438 186.571 513.278 186.686 513.168 186.834C513.06 186.982 513.006 187.149 513.006 187.337C513 187.493 513.033 187.63 513.104 187.746C513.178 187.862 513.278 187.963 513.406 188.049C513.534 188.131 513.682 188.203 513.849 188.266C514.017 188.326 514.196 188.377 514.386 188.419L515.17 188.607C515.551 188.692 515.901 188.806 516.219 188.948C516.537 189.09 516.813 189.264 517.045 189.472C517.278 189.679 517.459 189.924 517.587 190.205C517.717 190.486 517.784 190.809 517.787 191.172C517.784 191.706 517.648 192.169 517.378 192.561C517.111 192.951 516.724 193.253 516.219 193.469C515.716 193.682 515.109 193.789 514.399 193.789C513.695 193.789 513.081 193.681 512.558 193.465C512.038 193.249 511.632 192.929 511.339 192.506C511.05 192.08 510.898 191.553 510.884 190.925H512.669C512.689 191.218 512.773 191.462 512.92 191.658C513.071 191.851 513.271 191.997 513.521 192.097C513.774 192.193 514.06 192.242 514.378 192.242C514.69 192.242 514.962 192.196 515.192 192.105C515.425 192.014 515.605 191.888 515.733 191.726C515.861 191.564 515.925 191.378 515.925 191.168C515.925 190.972 515.866 190.807 515.75 190.674C515.636 190.54 515.469 190.426 515.247 190.333C515.028 190.239 514.76 190.154 514.442 190.077L513.491 189.838C512.756 189.659 512.175 189.38 511.749 188.999C511.322 188.618 511.111 188.105 511.114 187.46C511.111 186.932 511.251 186.47 511.536 186.076C511.822 185.681 512.216 185.372 512.716 185.151C513.216 184.929 513.784 184.818 514.42 184.818C515.068 184.818 515.634 184.929 516.116 185.151C516.602 185.372 516.98 185.681 517.25 186.076C517.52 186.47 517.659 186.928 517.668 187.448H515.899ZM522.122 193.665H519.028V184.938H522.147C523.025 184.938 523.781 185.112 524.414 185.462C525.048 185.809 525.535 186.307 525.876 186.958C526.22 187.608 526.392 188.387 526.392 189.293C526.392 190.202 526.22 190.983 525.876 191.637C525.535 192.29 525.045 192.791 524.406 193.141C523.77 193.49 523.008 193.665 522.122 193.665ZM520.873 192.084H522.045C522.591 192.084 523.049 191.987 523.422 191.794C523.797 191.598 524.078 191.296 524.265 190.887C524.456 190.475 524.551 189.943 524.551 189.293C524.551 188.648 524.456 188.121 524.265 187.712C524.078 187.303 523.798 187.002 523.426 186.809C523.054 186.615 522.595 186.519 522.049 186.519H520.873V192.084Z" fill="white"/>
<path d="M318.524 137.712C317.739 137.709 317.067 137.502 316.511 137.091C315.954 136.68 315.528 136.082 315.233 135.296C314.938 134.511 314.79 133.565 314.79 132.458C314.79 131.354 314.938 130.411 315.233 129.629C315.531 128.846 315.959 128.25 316.516 127.839C317.076 127.428 317.745 127.222 318.524 127.222C319.303 127.222 319.971 127.43 320.528 127.844C321.085 128.255 321.51 128.851 321.805 129.634C322.104 130.413 322.253 131.354 322.253 132.458C322.253 133.568 322.105 134.516 321.81 135.301C321.515 136.083 321.089 136.682 320.533 137.096C319.976 137.507 319.306 137.712 318.524 137.712ZM318.524 136.385C319.214 136.385 319.752 136.049 320.14 135.376C320.531 134.703 320.727 133.73 320.727 132.458C320.727 131.612 320.637 130.898 320.458 130.315C320.282 129.728 320.029 129.284 319.697 128.982C319.369 128.677 318.978 128.525 318.524 128.525C317.838 128.525 317.299 128.863 316.908 129.539C316.517 130.215 316.32 131.188 316.317 132.458C316.317 133.306 316.405 134.024 316.58 134.61C316.759 135.194 317.013 135.636 317.341 135.938C317.669 136.236 318.063 136.385 318.524 136.385Z" fill="white"/>
<path d="M525.225 127.362V137.543H523.684V128.903H523.624L521.188 130.494V129.022L523.729 127.362H525.225Z" fill="white"/>
<path d="M325.278 100.787H322.79C322.744 100.465 322.652 100.179 322.511 99.9292C322.371 99.6754 322.191 99.4595 321.972 99.2814C321.752 99.1034 321.498 98.967 321.21 98.8723C320.926 98.7776 320.617 98.7303 320.284 98.7303C319.682 98.7303 319.157 98.8799 318.71 99.1792C318.263 99.4746 317.917 99.9064 317.67 100.475C317.424 101.039 317.301 101.725 317.301 102.531C317.301 103.361 317.424 104.058 317.67 104.622C317.92 105.187 318.269 105.613 318.716 105.901C319.163 106.189 319.68 106.333 320.267 106.333C320.597 106.333 320.902 106.289 321.182 106.202C321.466 106.115 321.718 105.988 321.938 105.821C322.157 105.651 322.339 105.444 322.483 105.202C322.631 104.959 322.733 104.683 322.79 104.372L325.278 104.384C325.214 104.918 325.053 105.433 324.795 105.929C324.542 106.422 324.199 106.863 323.767 107.253C323.339 107.639 322.828 107.946 322.233 108.173C321.642 108.397 320.973 108.509 320.227 108.509C319.189 108.509 318.261 108.274 317.443 107.804C316.629 107.334 315.985 106.655 315.511 105.764C315.042 104.874 314.807 103.797 314.807 102.531C314.807 101.262 315.045 100.183 315.523 99.2928C316 98.4026 316.648 97.7246 317.466 97.2587C318.284 96.789 319.205 96.5542 320.227 96.5542C320.902 96.5542 321.527 96.6489 322.102 96.8382C322.682 97.0276 323.195 97.3042 323.642 97.6678C324.089 98.0276 324.453 98.4689 324.733 98.9917C325.017 99.5144 325.199 100.113 325.278 100.787ZM332.594 104.634V99.6223H335.014V108.35H332.69V106.764H332.599C332.402 107.276 332.075 107.687 331.616 107.997C331.162 108.308 330.607 108.463 329.952 108.463C329.368 108.463 328.855 108.331 328.412 108.066C327.969 107.8 327.622 107.423 327.372 106.935C327.126 106.446 327.001 105.861 326.997 105.179V99.6223H329.418V104.747C329.421 105.262 329.56 105.67 329.832 105.969C330.105 106.268 330.471 106.418 330.929 106.418C331.221 106.418 331.493 106.352 331.747 106.219C332.001 106.083 332.205 105.882 332.361 105.617C332.52 105.352 332.598 105.024 332.594 104.634ZM336.95 108.35V99.6223H339.297V101.145H339.388C339.547 100.603 339.814 100.194 340.189 99.9178C340.564 99.6375 340.996 99.4973 341.484 99.4973C341.606 99.4973 341.736 99.5049 341.876 99.5201C342.017 99.5352 342.14 99.556 342.246 99.5826V101.73C342.132 101.696 341.975 101.666 341.774 101.639C341.573 101.613 341.39 101.6 341.223 101.6C340.867 101.6 340.549 101.677 340.268 101.833C339.992 101.984 339.772 102.196 339.609 102.469C339.45 102.742 339.371 103.056 339.371 103.412V108.35H336.95ZM343.497 108.35V99.6223H345.844V101.145H345.935C346.094 100.603 346.361 100.194 346.736 99.9178C347.111 99.6375 347.543 99.4973 348.031 99.4973C348.152 99.4973 348.283 99.5049 348.423 99.5201C348.563 99.5352 348.687 99.556 348.793 99.5826V101.73C348.679 101.696 348.522 101.666 348.321 101.639C348.12 101.613 347.937 101.6 347.77 101.6C347.414 101.6 347.096 101.677 346.815 101.833C346.539 101.984 346.319 102.196 346.156 102.469C345.997 102.742 345.918 103.056 345.918 103.412V108.35H343.497ZM353.615 108.52C352.717 108.52 351.945 108.338 351.297 107.975C350.653 107.607 350.157 107.088 349.808 106.418C349.46 105.744 349.286 104.946 349.286 104.026C349.286 103.128 349.46 102.34 349.808 101.662C350.157 100.984 350.647 100.456 351.28 100.077C351.916 99.6981 352.662 99.5087 353.518 99.5087C354.094 99.5087 354.63 99.6015 355.126 99.7871C355.626 99.9689 356.062 100.244 356.433 100.611C356.808 100.978 357.1 101.441 357.308 101.997C357.517 102.55 357.621 103.198 357.621 103.941V104.605H350.251V103.105H355.342C355.342 102.757 355.267 102.448 355.115 102.179C354.964 101.91 354.753 101.7 354.484 101.548C354.219 101.393 353.911 101.316 353.558 101.316C353.191 101.316 352.865 101.401 352.581 101.571C352.301 101.738 352.081 101.963 351.922 102.247C351.763 102.528 351.681 102.84 351.678 103.185V104.611C351.678 105.043 351.757 105.416 351.916 105.73C352.079 106.045 352.308 106.287 352.604 106.458C352.899 106.628 353.25 106.713 353.655 106.713C353.924 106.713 354.17 106.675 354.393 106.6C354.617 106.524 354.808 106.41 354.967 106.259C355.126 106.107 355.248 105.922 355.331 105.702L357.57 105.85C357.456 106.387 357.223 106.857 356.871 107.259C356.522 107.656 356.071 107.967 355.518 108.191C354.969 108.41 354.335 108.52 353.615 108.52ZM361.621 103.304V108.35H359.2V99.6223H361.507V101.162H361.609C361.803 100.655 362.126 100.253 362.581 99.9576C363.036 99.6583 363.587 99.5087 364.234 99.5087C364.84 99.5087 365.369 99.6413 365.82 99.9064C366.27 100.172 366.621 100.55 366.871 101.043C367.121 101.531 367.246 102.115 367.246 102.793V108.35H364.825V103.225C364.829 102.691 364.693 102.274 364.416 101.975C364.14 101.672 363.759 101.52 363.274 101.52C362.948 101.52 362.661 101.59 362.411 101.73C362.164 101.87 361.971 102.075 361.831 102.344C361.695 102.609 361.625 102.929 361.621 103.304ZM373.795 99.6223V101.441H368.54V99.6223H373.795ZM369.733 97.5314H372.153V105.668C372.153 105.891 372.188 106.066 372.256 106.191C372.324 106.312 372.419 106.397 372.54 106.446C372.665 106.495 372.809 106.52 372.972 106.52C373.085 106.52 373.199 106.511 373.312 106.492C373.426 106.469 373.513 106.452 373.574 106.441L373.955 108.242C373.833 108.28 373.663 108.323 373.443 108.372C373.223 108.425 372.956 108.458 372.642 108.469C372.059 108.492 371.547 108.414 371.108 108.236C370.672 108.058 370.333 107.781 370.091 107.406C369.848 107.031 369.729 106.558 369.733 105.986V97.5314ZM381.126 108.35H378.49L382.507 96.7132H385.678L389.689 108.35H387.053L384.138 99.3723H384.047L381.126 108.35ZM380.962 103.776H387.189V105.696H380.962V103.776ZM394.581 108.52C393.687 108.52 392.918 108.331 392.274 107.952C391.634 107.569 391.142 107.039 390.797 106.361C390.456 105.683 390.286 104.903 390.286 104.02C390.286 103.126 390.458 102.342 390.803 101.668C391.151 100.99 391.645 100.461 392.286 100.083C392.926 99.7 393.687 99.5087 394.57 99.5087C395.331 99.5087 395.998 99.647 396.57 99.9235C397.142 100.2 397.594 100.588 397.928 101.088C398.261 101.588 398.445 102.175 398.479 102.85H396.195C396.13 102.414 395.96 102.064 395.683 101.798C395.411 101.53 395.053 101.395 394.609 101.395C394.234 101.395 393.907 101.497 393.626 101.702C393.35 101.903 393.134 102.196 392.979 102.583C392.823 102.969 392.746 103.437 392.746 103.986C392.746 104.543 392.821 105.016 392.973 105.406C393.128 105.797 393.346 106.094 393.626 106.298C393.907 106.503 394.234 106.605 394.609 106.605C394.886 106.605 395.134 106.548 395.354 106.435C395.577 106.321 395.761 106.156 395.905 105.941C396.053 105.721 396.149 105.458 396.195 105.151H398.479C398.441 105.817 398.259 106.405 397.933 106.912C397.611 107.416 397.166 107.81 396.598 108.094C396.03 108.378 395.357 108.52 394.581 108.52ZM403.972 108.52C403.078 108.52 402.309 108.331 401.665 107.952C401.025 107.569 400.532 107.039 400.188 106.361C399.847 105.683 399.676 104.903 399.676 104.02C399.676 103.126 399.848 102.342 400.193 101.668C400.542 100.99 401.036 100.461 401.676 100.083C402.316 99.7 403.078 99.5087 403.96 99.5087C404.722 99.5087 405.388 99.647 405.96 99.9235C406.532 100.2 406.985 100.588 407.318 101.088C407.652 101.588 407.835 102.175 407.869 102.85H405.585C405.521 102.414 405.35 102.064 405.074 101.798C404.801 101.53 404.443 101.395 404 101.395C403.625 101.395 403.297 101.497 403.017 101.702C402.741 101.903 402.525 102.196 402.369 102.583C402.214 102.969 402.136 103.437 402.136 103.986C402.136 104.543 402.212 105.016 402.364 105.406C402.519 105.797 402.737 106.094 403.017 106.298C403.297 106.503 403.625 106.605 404 106.605C404.277 106.605 404.525 106.548 404.744 106.435C404.968 106.321 405.152 106.156 405.295 105.941C405.443 105.721 405.54 105.458 405.585 105.151H407.869C407.831 105.817 407.65 106.405 407.324 106.912C407.002 107.416 406.557 107.81 405.989 108.094C405.42 108.378 404.748 108.52 403.972 108.52ZM413.362 108.52C412.48 108.52 411.716 108.333 411.072 107.958C410.432 107.579 409.938 107.052 409.589 106.378C409.241 105.7 409.067 104.914 409.067 104.02C409.067 103.119 409.241 102.331 409.589 101.656C409.938 100.978 410.432 100.452 411.072 100.077C411.716 99.6981 412.48 99.5087 413.362 99.5087C414.245 99.5087 415.006 99.6981 415.646 100.077C416.29 100.452 416.786 100.978 417.135 101.656C417.483 102.331 417.658 103.119 417.658 104.02C417.658 104.914 417.483 105.7 417.135 106.378C416.786 107.052 416.29 107.579 415.646 107.958C415.006 108.333 414.245 108.52 413.362 108.52ZM413.374 106.645C413.775 106.645 414.11 106.531 414.379 106.304C414.648 106.073 414.851 105.759 414.987 105.361C415.127 104.963 415.197 104.511 415.197 104.003C415.197 103.495 415.127 103.043 414.987 102.645C414.851 102.247 414.648 101.933 414.379 101.702C414.11 101.471 413.775 101.355 413.374 101.355C412.968 101.355 412.627 101.471 412.351 101.702C412.078 101.933 411.872 102.247 411.732 102.645C411.595 103.043 411.527 103.495 411.527 104.003C411.527 104.511 411.595 104.963 411.732 105.361C411.872 105.759 412.078 106.073 412.351 106.304C412.627 106.531 412.968 106.645 413.374 106.645ZM424.828 104.634V99.6223H427.249V108.35H424.925V106.764H424.834C424.637 107.276 424.309 107.687 423.851 107.997C423.396 108.308 422.841 108.463 422.186 108.463C421.603 108.463 421.089 108.331 420.646 108.066C420.203 107.8 419.857 107.423 419.607 106.935C419.36 106.446 419.235 105.861 419.232 105.179V99.6223H421.652V104.747C421.656 105.262 421.794 105.67 422.067 105.969C422.339 106.268 422.705 106.418 423.163 106.418C423.455 106.418 423.728 106.352 423.982 106.219C424.235 106.083 424.44 105.882 424.595 105.617C424.754 105.352 424.832 105.024 424.828 104.634ZM431.605 103.304V108.35H429.185V99.6223H431.491V101.162H431.594C431.787 100.655 432.111 100.253 432.565 99.9576C433.02 99.6583 433.571 99.5087 434.219 99.5087C434.825 99.5087 435.353 99.6413 435.804 99.9064C436.255 100.172 436.605 100.55 436.855 101.043C437.105 101.531 437.23 102.115 437.23 102.793V108.35H434.81V103.225C434.813 102.691 434.677 102.274 434.401 101.975C434.124 101.672 433.743 101.52 433.259 101.52C432.933 101.52 432.645 101.59 432.395 101.73C432.149 101.87 431.955 102.075 431.815 102.344C431.679 102.609 431.609 102.929 431.605 103.304ZM443.78 99.6223V101.441H438.524V99.6223H443.78ZM439.717 97.5314H442.138V105.668C442.138 105.891 442.172 106.066 442.24 106.191C442.308 106.312 442.403 106.397 442.524 106.446C442.649 106.495 442.793 106.52 442.956 106.52C443.07 106.52 443.183 106.511 443.297 106.492C443.411 106.469 443.498 106.452 443.558 106.441L443.939 108.242C443.818 108.28 443.647 108.323 443.428 108.372C443.208 108.425 442.941 108.458 442.626 108.469C442.043 108.492 441.532 108.414 441.092 108.236C440.657 108.058 440.318 107.781 440.075 107.406C439.833 107.031 439.714 106.558 439.717 105.986V97.5314Z" fill="white"/>
<rect x="567" y="75" width="254" height="189" rx="8" fill="#0067AC"/>
<path opacity="0.4" d="M567 218.126H821" stroke="white"/>
<path d="M742.413 246.791H739.117V236.609H742.517C743.515 236.609 744.372 236.813 745.088 237.22C745.803 237.625 746.352 238.206 746.733 238.965C747.118 239.721 747.31 240.627 747.31 241.685C747.31 242.745 747.116 243.657 746.728 244.419C746.344 245.181 745.787 245.768 745.058 246.179C744.329 246.587 743.447 246.791 742.413 246.791ZM740.653 245.448H742.328C743.104 245.448 743.749 245.302 744.262 245.011C744.776 244.716 745.16 244.29 745.416 243.733C745.671 243.173 745.798 242.49 745.798 241.685C745.798 240.886 745.671 240.208 745.416 239.651C745.164 239.095 744.788 238.672 744.287 238.384C743.787 238.095 743.165 237.951 742.423 237.951H740.653V245.448ZM752.392 246.945C751.64 246.945 750.992 246.784 750.448 246.462C749.908 246.138 749.49 245.682 749.195 245.095C748.904 244.505 748.758 243.814 748.758 243.022C748.758 242.24 748.904 241.55 749.195 240.954C749.49 240.357 749.901 239.892 750.428 239.557C750.959 239.222 751.578 239.055 752.288 239.055C752.719 239.055 753.136 239.126 753.54 239.269C753.945 239.411 754.308 239.635 754.629 239.94C754.951 240.245 755.204 240.641 755.39 241.128C755.576 241.612 755.668 242.2 755.668 242.893V243.42H749.598V242.306H754.212C754.212 241.915 754.132 241.569 753.973 241.267C753.814 240.962 753.59 240.722 753.302 240.546C753.017 240.371 752.682 240.283 752.298 240.283C751.88 240.283 751.515 240.385 751.204 240.591C750.896 240.793 750.657 241.058 750.488 241.386C750.322 241.711 750.239 242.064 750.239 242.445V243.315C750.239 243.826 750.329 244.26 750.508 244.618C750.69 244.976 750.944 245.249 751.268 245.438C751.593 245.624 751.973 245.717 752.407 245.717C752.689 245.717 752.946 245.677 753.178 245.597C753.41 245.514 753.61 245.392 753.779 245.229C753.948 245.067 754.077 244.867 754.167 244.628L755.574 244.881C755.461 245.296 755.259 245.659 754.967 245.97C754.679 246.278 754.316 246.519 753.879 246.691C753.444 246.86 752.949 246.945 752.392 246.945ZM760.882 239.154V240.347H756.711V239.154H760.882ZM757.83 237.325H759.316V244.548C759.316 244.837 759.359 245.054 759.445 245.2C759.532 245.342 759.643 245.44 759.779 245.493C759.918 245.543 760.069 245.568 760.231 245.568C760.35 245.568 760.455 245.559 760.544 245.543C760.634 245.526 760.703 245.513 760.753 245.503L761.021 246.731C760.935 246.764 760.813 246.797 760.654 246.83C760.494 246.867 760.296 246.887 760.057 246.89C759.666 246.897 759.301 246.827 758.963 246.681C758.625 246.535 758.352 246.31 758.143 246.005C757.934 245.7 757.83 245.317 757.83 244.857V237.325ZM764.749 246.96C764.265 246.96 763.828 246.87 763.436 246.691C763.045 246.509 762.735 246.245 762.507 245.901C762.281 245.556 762.169 245.133 762.169 244.633C762.169 244.202 762.252 243.847 762.417 243.569C762.583 243.291 762.807 243.07 763.088 242.908C763.37 242.745 763.685 242.623 764.033 242.54C764.381 242.457 764.736 242.394 765.097 242.351C765.554 242.298 765.926 242.255 766.211 242.222C766.496 242.185 766.703 242.127 766.832 242.048C766.961 241.968 767.026 241.839 767.026 241.66V241.625C767.026 241.191 766.903 240.854 766.658 240.616C766.416 240.377 766.055 240.258 765.574 240.258C765.074 240.258 764.679 240.369 764.391 240.591C764.106 240.81 763.909 241.053 763.799 241.322L762.402 241.004C762.568 240.54 762.81 240.165 763.128 239.88C763.45 239.592 763.819 239.383 764.237 239.254C764.654 239.121 765.094 239.055 765.554 239.055C765.859 239.055 766.182 239.091 766.524 239.164C766.868 239.234 767.19 239.363 767.488 239.552C767.79 239.741 768.037 240.011 768.229 240.362C768.421 240.71 768.517 241.163 768.517 241.72V246.791H767.066V245.746H767.006C766.91 245.939 766.766 246.128 766.574 246.313C766.381 246.499 766.134 246.653 765.833 246.776C765.531 246.898 765.17 246.96 764.749 246.96ZM765.072 245.766C765.483 245.766 765.834 245.685 766.126 245.523C766.421 245.36 766.645 245.148 766.797 244.886C766.953 244.621 767.031 244.338 767.031 244.036V243.052C766.978 243.105 766.875 243.155 766.723 243.201C766.574 243.244 766.403 243.282 766.211 243.315C766.018 243.345 765.831 243.373 765.649 243.4C765.467 243.423 765.314 243.443 765.191 243.46C764.903 243.496 764.64 243.557 764.401 243.644C764.166 243.73 763.977 243.854 763.834 244.016C763.695 244.175 763.625 244.388 763.625 244.653C763.625 245.021 763.761 245.299 764.033 245.488C764.305 245.674 764.651 245.766 765.072 245.766ZM770.497 246.791V239.154H771.984V246.791H770.497ZM771.248 237.976C770.99 237.976 770.767 237.89 770.582 237.717C770.4 237.542 770.308 237.333 770.308 237.091C770.308 236.846 770.4 236.637 770.582 236.465C770.767 236.289 770.99 236.201 771.248 236.201C771.507 236.201 771.727 236.289 771.909 236.465C772.095 236.637 772.188 236.846 772.188 237.091C772.188 237.333 772.095 237.542 771.909 237.717C771.727 237.89 771.507 237.976 771.248 237.976ZM775.47 236.609V246.791H773.984V236.609H775.47Z" fill="white"/>
<path d="M583.119 246.791V236.609H589.502V237.931H584.655V241.033H589.169V242.351H584.655V245.468H589.562V246.791H583.119ZM594.294 246.94C593.677 246.94 593.127 246.782 592.643 246.467C592.162 246.149 591.785 245.697 591.509 245.11C591.238 244.52 591.102 243.813 591.102 242.987C591.102 242.162 591.239 241.456 591.514 240.869C591.793 240.283 592.174 239.834 592.658 239.522C593.142 239.211 593.69 239.055 594.303 239.055C594.777 239.055 595.159 239.134 595.447 239.293C595.739 239.449 595.964 239.631 596.123 239.84C596.285 240.049 596.411 240.233 596.501 240.392H596.59V236.609H598.077V246.791H596.625V245.602H596.501C596.411 245.765 596.282 245.95 596.113 246.159C595.947 246.368 595.719 246.55 595.427 246.706C595.135 246.862 594.758 246.94 594.294 246.94ZM594.622 245.672C595.049 245.672 595.41 245.559 595.705 245.334C596.004 245.105 596.229 244.789 596.382 244.384C596.537 243.98 596.615 243.509 596.615 242.972C596.615 242.442 596.539 241.978 596.387 241.58C596.234 241.183 596.01 240.873 595.715 240.651C595.42 240.429 595.056 240.318 594.622 240.318C594.174 240.318 593.801 240.434 593.503 240.666C593.205 240.898 592.979 241.214 592.827 241.615C592.678 242.016 592.603 242.469 592.603 242.972C592.603 243.483 592.679 243.942 592.832 244.349C592.984 244.757 593.21 245.08 593.508 245.319C593.81 245.554 594.181 245.672 594.622 245.672ZM600.199 246.791V239.154H601.685V246.791H600.199ZM600.949 237.976C600.691 237.976 600.469 237.89 600.283 237.717C600.101 237.542 600.01 237.333 600.01 237.091C600.01 236.846 600.101 236.637 600.283 236.465C600.469 236.289 600.691 236.201 600.949 236.201C601.208 236.201 601.428 236.289 601.61 236.465C601.796 236.637 601.889 236.846 601.889 237.091C601.889 237.333 601.796 237.542 601.61 237.717C601.428 237.89 601.208 237.976 600.949 237.976ZM607.249 239.154V240.347H603.078V239.154H607.249ZM604.197 237.325H605.683V244.548C605.683 244.837 605.727 245.054 605.813 245.2C605.899 245.342 606.01 245.44 606.146 245.493C606.285 245.543 606.436 245.568 606.598 245.568C606.718 245.568 606.822 245.559 606.911 245.543C607.001 245.526 607.07 245.513 607.12 245.503L607.389 246.731C607.302 246.764 607.18 246.797 607.021 246.83C606.862 246.867 606.663 246.887 606.424 246.89C606.033 246.897 605.669 246.827 605.33 246.681C604.992 246.535 604.719 246.31 604.51 246.005C604.301 245.7 604.197 245.317 604.197 244.857V237.325ZM620.936 236.609V246.791H619.524L614.349 239.323H614.254V246.791H612.718V236.609H614.14L619.32 244.086H619.415V236.609H620.936ZM623.058 246.791V239.154H624.544V246.791H623.058ZM623.809 237.976C623.55 237.976 623.328 237.89 623.142 237.717C622.96 237.542 622.869 237.333 622.869 237.091C622.869 236.846 622.96 236.637 623.142 236.465C623.328 236.289 623.55 236.201 623.809 236.201C624.067 236.201 624.288 236.289 624.47 236.465C624.655 236.637 624.748 236.846 624.748 237.091C624.748 237.333 624.655 237.542 624.47 237.717C624.288 237.89 624.067 237.976 623.809 237.976ZM629.761 246.945C629.022 246.945 628.385 246.777 627.852 246.443C627.321 246.104 626.914 245.639 626.629 245.045C626.344 244.452 626.201 243.773 626.201 243.007C626.201 242.232 626.347 241.547 626.639 240.954C626.93 240.357 627.341 239.892 627.872 239.557C628.402 239.222 629.027 239.055 629.746 239.055C630.326 239.055 630.843 239.162 631.297 239.378C631.751 239.59 632.117 239.888 632.396 240.273C632.677 240.657 632.845 241.106 632.898 241.62H631.451C631.372 241.262 631.189 240.954 630.904 240.695C630.623 240.437 630.245 240.308 629.771 240.308C629.356 240.308 628.994 240.417 628.682 240.636C628.374 240.851 628.133 241.159 627.961 241.56C627.789 241.958 627.703 242.429 627.703 242.972C627.703 243.529 627.787 244.01 627.956 244.414C628.125 244.818 628.364 245.132 628.672 245.354C628.984 245.576 629.35 245.687 629.771 245.687C630.052 245.687 630.308 245.635 630.536 245.533C630.768 245.427 630.962 245.276 631.118 245.08C631.277 244.885 631.388 244.649 631.451 244.374H632.898C632.845 244.868 632.684 245.309 632.416 245.697C632.147 246.085 631.788 246.389 631.337 246.612C630.889 246.834 630.364 246.945 629.761 246.945ZM635.855 244.2L635.845 242.386H636.103L639.146 239.154H640.926L637.456 242.833H637.222L635.855 244.2ZM634.488 246.791V236.609H635.974V246.791H634.488ZM639.31 246.791L636.576 243.161L637.6 242.122L641.135 246.791H639.31ZM643.767 242.256V246.791H642.281V239.154H643.707V240.397H643.802C643.978 239.993 644.253 239.668 644.627 239.423C645.005 239.177 645.481 239.055 646.054 239.055C646.574 239.055 647.03 239.164 647.421 239.383C647.812 239.598 648.116 239.92 648.331 240.347C648.546 240.775 648.654 241.304 648.654 241.933V246.791H647.168V242.112C647.168 241.559 647.023 241.126 646.735 240.815C646.447 240.5 646.051 240.342 645.547 240.342C645.202 240.342 644.896 240.417 644.627 240.566C644.362 240.715 644.152 240.934 643.996 241.222C643.843 241.507 643.767 241.852 643.767 242.256ZM652.87 246.96C652.386 246.96 651.949 246.87 651.558 246.691C651.166 246.509 650.857 246.245 650.628 245.901C650.402 245.556 650.29 245.133 650.29 244.633C650.29 244.202 650.373 243.847 650.538 243.569C650.704 243.291 650.928 243.07 651.21 242.908C651.491 242.745 651.806 242.623 652.154 242.54C652.502 242.457 652.857 242.394 653.218 242.351C653.675 242.298 654.047 242.255 654.332 242.222C654.617 242.185 654.824 242.127 654.953 242.048C655.082 241.968 655.147 241.839 655.147 241.66V241.625C655.147 241.191 655.024 240.854 654.779 240.616C654.537 240.377 654.176 240.258 653.695 240.258C653.195 240.258 652.8 240.369 652.512 240.591C652.227 240.81 652.03 241.053 651.92 241.322L650.523 241.004C650.689 240.54 650.931 240.165 651.249 239.88C651.571 239.592 651.94 239.383 652.358 239.254C652.776 239.121 653.215 239.055 653.675 239.055C653.98 239.055 654.304 239.091 654.645 239.164C654.99 239.234 655.311 239.363 655.609 239.552C655.911 239.741 656.158 240.011 656.35 240.362C656.542 240.71 656.638 241.163 656.638 241.72V246.791H655.187V245.746H655.127C655.031 245.939 654.887 246.128 654.695 246.313C654.502 246.499 654.255 246.653 653.954 246.776C653.652 246.898 653.291 246.96 652.87 246.96ZM653.193 245.766C653.604 245.766 653.955 245.685 654.247 245.523C654.542 245.36 654.766 245.148 654.918 244.886C655.074 244.621 655.152 244.338 655.152 244.036V243.052C655.099 243.105 654.996 243.155 654.844 243.201C654.695 243.244 654.524 243.282 654.332 243.315C654.139 243.345 653.952 243.373 653.77 243.4C653.588 243.423 653.435 243.443 653.312 243.46C653.024 243.496 652.761 243.557 652.522 243.644C652.287 243.73 652.098 243.854 651.955 244.016C651.816 244.175 651.746 244.388 651.746 244.653C651.746 245.021 651.882 245.299 652.154 245.488C652.426 245.674 652.772 245.766 653.193 245.766ZM658.618 246.791V239.154H660.045V240.397H660.14C660.299 239.976 660.559 239.648 660.92 239.413C661.282 239.174 661.714 239.055 662.218 239.055C662.728 239.055 663.156 239.174 663.501 239.413C663.849 239.651 664.105 239.979 664.271 240.397H664.351C664.533 239.989 664.823 239.665 665.221 239.423C665.618 239.177 666.092 239.055 666.643 239.055C667.335 239.055 667.9 239.272 668.338 239.706C668.779 240.14 668.999 240.795 668.999 241.67V246.791H667.513V241.809C667.513 241.292 667.372 240.917 667.09 240.685C666.808 240.453 666.472 240.337 666.081 240.337C665.597 240.337 665.221 240.487 664.952 240.785C664.684 241.08 664.55 241.459 664.55 241.923V246.791H663.068V241.715C663.068 241.3 662.939 240.967 662.68 240.715C662.422 240.463 662.085 240.337 661.671 240.337C661.389 240.337 661.129 240.412 660.89 240.561C660.655 240.707 660.465 240.911 660.319 241.173C660.176 241.434 660.105 241.738 660.105 242.082V246.791H658.618ZM674.283 246.945C673.53 246.945 672.882 246.784 672.339 246.462C671.799 246.138 671.381 245.682 671.086 245.095C670.794 244.505 670.648 243.814 670.648 243.022C670.648 242.24 670.794 241.55 671.086 240.954C671.381 240.357 671.792 239.892 672.319 239.557C672.849 239.222 673.469 239.055 674.178 239.055C674.609 239.055 675.027 239.126 675.431 239.269C675.835 239.411 676.198 239.635 676.52 239.94C676.841 240.245 677.095 240.641 677.281 241.128C677.466 241.612 677.559 242.2 677.559 242.893V243.42H671.489V242.306H676.102C676.102 241.915 676.023 241.569 675.864 241.267C675.705 240.962 675.481 240.722 675.192 240.546C674.907 240.371 674.573 240.283 674.188 240.283C673.771 240.283 673.406 240.385 673.094 240.591C672.786 240.793 672.548 241.058 672.379 241.386C672.213 241.711 672.13 242.064 672.13 242.445V243.315C672.13 243.826 672.219 244.26 672.398 244.618C672.581 244.976 672.834 245.249 673.159 245.438C673.484 245.624 673.863 245.717 674.298 245.717C674.579 245.717 674.836 245.677 675.068 245.597C675.3 245.514 675.501 245.392 675.67 245.229C675.839 245.067 675.968 244.867 676.058 244.628L677.464 244.881C677.352 245.296 677.15 245.659 676.858 245.97C676.57 246.278 676.207 246.519 675.769 246.691C675.335 246.86 674.839 246.945 674.283 246.945Z" fill="white"/>
<path d="M693 218.581V264H695V218.581H693Z" fill="#99C2DE" mask="url(#path-25-inside-3_310_2608)"/>
<path d="M759.252 193.112C757.542 193.106 756.07 192.685 754.837 191.85C753.611 191.014 752.666 189.805 752.004 188.22C751.347 186.636 751.022 184.73 751.029 182.503C751.029 180.282 751.357 178.39 752.013 176.826C752.676 175.261 753.621 174.071 754.847 173.256C756.08 172.434 757.549 172.023 759.252 172.023C760.956 172.023 762.421 172.434 763.647 173.256C764.88 174.078 765.828 175.271 766.491 176.835C767.154 178.393 767.482 180.282 767.475 182.503C767.475 184.737 767.144 186.646 766.481 188.23C765.825 189.815 764.883 191.024 763.657 191.86C762.431 192.695 760.962 193.112 759.252 193.112ZM759.252 189.543C760.419 189.543 761.35 188.956 762.046 187.783C762.742 186.61 763.087 184.85 763.08 182.503C763.08 180.959 762.921 179.673 762.603 178.645C762.291 177.618 761.847 176.845 761.271 176.328C760.701 175.811 760.028 175.553 759.252 175.553C758.092 175.553 757.164 176.133 756.468 177.293C755.772 178.453 755.421 180.19 755.414 182.503C755.414 184.068 755.57 185.373 755.881 186.421C756.2 187.461 756.647 188.244 757.224 188.767C757.8 189.284 758.477 189.543 759.252 189.543ZM781.524 183.938H783.369V189.605C783.369 190.242 783.217 190.799 782.913 191.276C782.612 191.753 782.19 192.125 781.648 192.392C781.105 192.657 780.473 192.789 779.751 192.789C779.027 192.789 778.393 192.657 777.851 192.392C777.308 192.125 776.886 191.753 776.585 191.276C776.284 190.799 776.134 190.242 776.134 189.605V183.938H777.979V189.448C777.979 189.78 778.051 190.076 778.196 190.334C778.344 190.593 778.551 190.796 778.818 190.943C779.085 191.091 779.396 191.165 779.751 191.165C780.109 191.165 780.42 191.091 780.685 190.943C780.952 190.796 781.158 190.593 781.303 190.334C781.45 190.076 781.524 189.78 781.524 189.448V183.938ZM789.622 186.448C789.588 186.104 789.441 185.837 789.183 185.647C788.924 185.456 788.574 185.361 788.13 185.361C787.829 185.361 787.575 185.404 787.368 185.489C787.16 185.571 787.001 185.686 786.89 185.834C786.782 185.982 786.728 186.149 786.728 186.337C786.723 186.493 786.755 186.63 786.826 186.746C786.9 186.862 787.001 186.963 787.129 187.049C787.257 187.131 787.404 187.203 787.572 187.266C787.74 187.326 787.919 187.377 788.109 187.419L788.893 187.607C789.274 187.692 789.623 187.806 789.941 187.948C790.26 188.09 790.535 188.264 790.768 188.472C791.001 188.679 791.181 188.924 791.309 189.205C791.44 189.486 791.507 189.809 791.51 190.172C791.507 190.706 791.37 191.169 791.1 191.561C790.833 191.951 790.447 192.253 789.941 192.469C789.439 192.682 788.832 192.789 788.122 192.789C787.417 192.789 786.804 192.681 786.281 192.465C785.761 192.249 785.355 191.929 785.062 191.506C784.772 191.08 784.62 190.553 784.606 189.925H786.392C786.412 190.218 786.495 190.462 786.643 190.658C786.794 190.851 786.994 190.997 787.244 191.097C787.497 191.193 787.782 191.242 788.1 191.242C788.413 191.242 788.684 191.196 788.914 191.105C789.147 191.014 789.328 190.888 789.456 190.726C789.583 190.564 789.647 190.378 789.647 190.168C789.647 189.972 789.589 189.807 789.473 189.674C789.359 189.54 789.191 189.426 788.97 189.333C788.751 189.239 788.483 189.154 788.164 189.077L787.214 188.838C786.478 188.659 785.897 188.38 785.471 187.999C785.045 187.618 784.833 187.105 784.836 186.46C784.833 185.932 784.974 185.47 785.258 185.076C785.545 184.681 785.939 184.372 786.439 184.151C786.939 183.929 787.507 183.818 788.143 183.818C788.791 183.818 789.356 183.929 789.839 184.151C790.325 184.372 790.703 184.681 790.973 185.076C791.243 185.47 791.382 185.928 791.39 186.448H789.622ZM795.844 192.665H792.751V183.938H795.87C796.748 183.938 797.504 184.112 798.137 184.462C798.771 184.809 799.258 185.307 799.599 185.958C799.942 186.608 800.114 187.387 800.114 188.293C800.114 189.202 799.942 189.983 799.599 190.637C799.258 191.29 798.768 191.791 798.129 192.141C797.492 192.49 796.731 192.665 795.844 192.665ZM794.596 191.084H795.768C796.313 191.084 796.772 190.987 797.144 190.794C797.519 190.598 797.8 190.296 797.988 189.887C798.178 189.475 798.273 188.943 798.273 188.293C798.273 187.648 798.178 187.121 797.988 186.712C797.8 186.303 797.521 186.002 797.148 185.809C796.776 185.615 796.317 185.519 795.772 185.519H794.596V191.084Z" fill="white"/>
<path d="M591.604 137.712C590.819 137.709 590.148 137.502 589.591 137.091C589.034 136.68 588.608 136.082 588.313 135.296C588.018 134.511 587.871 133.565 587.871 132.458C587.871 131.354 588.018 130.411 588.313 129.629C588.611 128.846 589.039 128.25 589.596 127.839C590.156 127.428 590.825 127.222 591.604 127.222C592.383 127.222 593.051 127.43 593.608 127.844C594.165 128.255 594.59 128.851 594.885 129.634C595.184 130.413 595.333 131.354 595.333 132.458C595.333 133.568 595.185 134.516 594.89 135.301C594.595 136.083 594.17 136.682 593.613 137.096C593.056 137.507 592.386 137.712 591.604 137.712ZM591.604 136.385C592.294 136.385 592.832 136.049 593.22 135.376C593.611 134.703 593.807 133.73 593.807 132.458C593.807 131.612 593.717 130.898 593.538 130.315C593.363 129.728 593.109 129.284 592.778 128.982C592.449 128.677 592.058 128.525 591.604 128.525C590.918 128.525 590.38 128.863 589.988 129.539C589.597 130.215 589.4 131.188 589.397 132.458C589.397 133.306 589.485 134.024 589.66 134.61C589.839 135.194 590.093 135.636 590.421 135.938C590.749 136.236 591.144 136.385 591.604 136.385Z" fill="white"/>
<path d="M799.147 127.362V137.543H797.606V128.903H797.546L795.11 130.494V129.022L797.651 127.362H799.147Z" fill="white"/>
<path d="M588.089 108.35V96.7132H595.794V98.7417H590.55V101.514H595.283V103.543H590.55V108.35H588.089ZM597.403 108.35V99.6223H599.824V108.35H597.403ZM598.619 98.4973C598.259 98.4973 597.951 98.378 597.693 98.1394C597.439 97.897 597.312 97.6072 597.312 97.2701C597.312 96.9367 597.439 96.6507 597.693 96.4121C597.951 96.1697 598.259 96.0485 598.619 96.0485C598.979 96.0485 599.286 96.1697 599.54 96.4121C599.797 96.6507 599.926 96.9367 599.926 97.2701C599.926 97.6072 599.797 97.897 599.54 98.1394C599.286 98.378 598.979 98.4973 598.619 98.4973ZM603.786 99.6223L605.388 102.673L607.03 99.6223H609.513L606.984 103.986L609.581 108.35H607.109L605.388 105.333L603.695 108.35H601.195L603.786 103.986L601.286 99.6223H603.786ZM614.615 108.52C613.717 108.52 612.945 108.338 612.297 107.975C611.653 107.607 611.157 107.088 610.808 106.418C610.46 105.744 610.286 104.946 610.286 104.026C610.286 103.128 610.46 102.34 610.808 101.662C611.157 100.984 611.647 100.456 612.28 100.077C612.916 99.6981 613.662 99.5087 614.518 99.5087C615.094 99.5087 615.63 99.6015 616.126 99.7871C616.626 99.9689 617.062 100.244 617.433 100.611C617.808 100.978 618.1 101.441 618.308 101.997C618.517 102.55 618.621 103.198 618.621 103.941V104.605H611.251V103.105H616.342C616.342 102.757 616.267 102.448 616.115 102.179C615.964 101.91 615.753 101.7 615.484 101.548C615.219 101.393 614.911 101.316 614.558 101.316C614.191 101.316 613.865 101.401 613.581 101.571C613.301 101.738 613.081 101.963 612.922 102.247C612.763 102.528 612.681 102.84 612.678 103.185V104.611C612.678 105.043 612.757 105.416 612.916 105.73C613.079 106.045 613.308 106.287 613.604 106.458C613.899 106.628 614.25 106.713 614.655 106.713C614.924 106.713 615.17 106.675 615.393 106.6C615.617 106.524 615.808 106.41 615.967 106.259C616.126 106.107 616.248 105.922 616.331 105.702L618.57 105.85C618.456 106.387 618.223 106.857 617.871 107.259C617.522 107.656 617.071 107.967 616.518 108.191C615.969 108.41 615.335 108.52 614.615 108.52ZM623.416 108.492C622.753 108.492 622.153 108.321 621.615 107.98C621.081 107.636 620.657 107.13 620.342 106.463C620.032 105.793 619.876 104.971 619.876 103.997C619.876 102.997 620.037 102.166 620.359 101.503C620.681 100.836 621.109 100.338 621.643 100.009C622.181 99.6754 622.77 99.5087 623.411 99.5087C623.899 99.5087 624.306 99.592 624.632 99.7587C624.962 99.9216 625.227 100.126 625.428 100.372C625.632 100.615 625.787 100.853 625.893 101.088H625.967V96.7132H628.382V108.35H625.996V106.952H625.893C625.78 107.194 625.619 107.435 625.411 107.673C625.206 107.908 624.939 108.103 624.609 108.259C624.284 108.414 623.886 108.492 623.416 108.492ZM624.183 106.566C624.573 106.566 624.903 106.459 625.172 106.247C625.445 106.031 625.653 105.73 625.797 105.344C625.945 104.958 626.018 104.505 626.018 103.986C626.018 103.467 625.946 103.016 625.803 102.634C625.659 102.251 625.45 101.956 625.178 101.747C624.905 101.539 624.573 101.435 624.183 101.435C623.786 101.435 623.45 101.543 623.178 101.759C622.905 101.975 622.698 102.274 622.558 102.656C622.418 103.039 622.348 103.482 622.348 103.986C622.348 104.494 622.418 104.942 622.558 105.333C622.702 105.719 622.909 106.022 623.178 106.242C623.45 106.458 623.786 106.566 624.183 106.566ZM638.246 108.35H634.121V96.7132H638.28C639.45 96.7132 640.458 96.9462 641.303 97.4121C642.147 97.8742 642.797 98.539 643.251 99.4064C643.71 100.274 643.939 101.312 643.939 102.52C643.939 103.732 643.71 104.774 643.251 105.645C642.797 106.516 642.143 107.185 641.291 107.651C640.443 108.117 639.428 108.35 638.246 108.35ZM636.581 106.242H638.143C638.871 106.242 639.482 106.113 639.979 105.855C640.479 105.594 640.854 105.191 641.104 104.645C641.357 104.096 641.484 103.387 641.484 102.52C641.484 101.66 641.357 100.958 641.104 100.412C640.854 99.8667 640.481 99.4651 639.984 99.2076C639.488 98.95 638.876 98.8212 638.149 98.8212H636.581V106.242ZM649.693 108.52C648.795 108.52 648.023 108.338 647.375 107.975C646.731 107.607 646.235 107.088 645.886 106.418C645.538 105.744 645.364 104.946 645.364 104.026C645.364 103.128 645.538 102.34 645.886 101.662C646.235 100.984 646.725 100.456 647.358 100.077C647.994 99.6981 648.741 99.5087 649.597 99.5087C650.172 99.5087 650.708 99.6015 651.205 99.7871C651.705 99.9689 652.14 100.244 652.511 100.611C652.886 100.978 653.178 101.441 653.386 101.997C653.595 102.55 653.699 103.198 653.699 103.941V104.605H646.33V103.105H651.42C651.42 102.757 651.345 102.448 651.193 102.179C651.042 101.91 650.831 101.7 650.562 101.548C650.297 101.393 649.989 101.316 649.636 101.316C649.269 101.316 648.943 101.401 648.659 101.571C648.379 101.738 648.159 101.963 648 102.247C647.841 102.528 647.759 102.84 647.756 103.185V104.611C647.756 105.043 647.835 105.416 647.994 105.73C648.157 106.045 648.386 106.287 648.682 106.458C648.977 106.628 649.328 106.713 649.733 106.713C650.002 106.713 650.248 106.675 650.472 106.6C650.695 106.524 650.886 106.41 651.045 106.259C651.205 106.107 651.326 105.922 651.409 105.702L653.648 105.85C653.534 106.387 653.301 106.857 652.949 107.259C652.6 107.656 652.15 107.967 651.597 108.191C651.047 108.41 650.413 108.52 649.693 108.52ZM655.278 111.622V99.6223H657.665V101.088H657.773C657.879 100.853 658.032 100.615 658.233 100.372C658.438 100.126 658.703 99.9216 659.028 99.7587C659.358 99.592 659.767 99.5087 660.256 99.5087C660.892 99.5087 661.479 99.6754 662.017 100.009C662.555 100.338 662.985 100.836 663.307 101.503C663.629 102.166 663.79 102.997 663.79 103.997C663.79 104.971 663.633 105.793 663.318 106.463C663.008 107.13 662.583 107.636 662.045 107.98C661.511 108.321 660.913 108.492 660.25 108.492C659.78 108.492 659.381 108.414 659.051 108.259C658.725 108.103 658.458 107.908 658.25 107.673C658.042 107.435 657.883 107.194 657.773 106.952H657.699V111.622H655.278ZM657.648 103.986C657.648 104.505 657.72 104.958 657.864 105.344C658.008 105.73 658.216 106.031 658.489 106.247C658.761 106.459 659.093 106.566 659.483 106.566C659.877 106.566 660.21 106.458 660.483 106.242C660.756 106.022 660.962 105.719 661.102 105.333C661.246 104.942 661.318 104.494 661.318 103.986C661.318 103.482 661.248 103.039 661.108 102.656C660.968 102.274 660.761 101.975 660.489 101.759C660.216 101.543 659.881 101.435 659.483 101.435C659.089 101.435 658.756 101.539 658.483 101.747C658.214 101.956 658.008 102.251 657.864 102.634C657.72 103.016 657.648 103.467 657.648 103.986ZM669.347 108.52C668.464 108.52 667.701 108.333 667.057 107.958C666.417 107.579 665.922 107.052 665.574 106.378C665.225 105.7 665.051 104.914 665.051 104.02C665.051 103.119 665.225 102.331 665.574 101.656C665.922 100.978 666.417 100.452 667.057 100.077C667.701 99.6981 668.464 99.5087 669.347 99.5087C670.229 99.5087 670.991 99.6981 671.631 100.077C672.275 100.452 672.771 100.978 673.119 101.656C673.468 102.331 673.642 103.119 673.642 104.02C673.642 104.914 673.468 105.7 673.119 106.378C672.771 107.052 672.275 107.579 671.631 107.958C670.991 108.333 670.229 108.52 669.347 108.52ZM669.358 106.645C669.759 106.645 670.095 106.531 670.364 106.304C670.633 106.073 670.835 105.759 670.972 105.361C671.112 104.963 671.182 104.511 671.182 104.003C671.182 103.495 671.112 103.043 670.972 102.645C670.835 102.247 670.633 101.933 670.364 101.702C670.095 101.471 669.759 101.355 669.358 101.355C668.953 101.355 668.612 101.471 668.335 101.702C668.063 101.933 667.856 102.247 667.716 102.645C667.58 103.043 667.511 103.495 667.511 104.003C667.511 104.511 667.58 104.963 667.716 105.361C667.856 105.759 668.063 106.073 668.335 106.304C668.612 106.531 668.953 106.645 669.358 106.645ZM682.477 102.111L680.261 102.247C680.223 102.058 680.142 101.887 680.017 101.736C679.892 101.581 679.727 101.458 679.523 101.367C679.322 101.272 679.081 101.225 678.801 101.225C678.426 101.225 678.11 101.304 677.852 101.463C677.595 101.619 677.466 101.827 677.466 102.088C677.466 102.297 677.549 102.473 677.716 102.617C677.883 102.761 678.169 102.876 678.574 102.963L680.153 103.281C681.002 103.456 681.634 103.736 682.051 104.122C682.468 104.509 682.676 105.016 682.676 105.645C682.676 106.217 682.508 106.719 682.17 107.151C681.837 107.583 681.379 107.92 680.795 108.162C680.216 108.401 679.547 108.52 678.79 108.52C677.634 108.52 676.714 108.28 676.028 107.798C675.347 107.314 674.947 106.655 674.83 105.821L677.21 105.696C677.282 106.048 677.456 106.317 677.733 106.503C678.009 106.685 678.364 106.776 678.795 106.776C679.22 106.776 679.561 106.694 679.818 106.531C680.08 106.365 680.212 106.151 680.216 105.889C680.212 105.67 680.119 105.49 679.938 105.35C679.756 105.206 679.475 105.096 679.097 105.02L677.585 104.719C676.733 104.548 676.098 104.253 675.682 103.833C675.269 103.412 675.062 102.876 675.062 102.225C675.062 101.664 675.214 101.181 675.517 100.776C675.824 100.37 676.254 100.058 676.807 99.8382C677.364 99.6185 678.015 99.5087 678.761 99.5087C679.864 99.5087 680.731 99.7417 681.364 100.208C682 100.673 682.371 101.308 682.477 102.111ZM684.2 108.35V99.6223H686.621V108.35H684.2ZM685.416 98.4973C685.056 98.4973 684.748 98.378 684.49 98.1394C684.236 97.897 684.109 97.6072 684.109 97.2701C684.109 96.9367 684.236 96.6507 684.49 96.4121C684.748 96.1697 685.056 96.0485 685.416 96.0485C685.776 96.0485 686.083 96.1697 686.337 96.4121C686.594 96.6507 686.723 96.9367 686.723 97.2701C686.723 97.6072 686.594 97.897 686.337 98.1394C686.083 98.378 685.776 98.4973 685.416 98.4973ZM693.202 99.6223V101.441H687.946V99.6223H693.202ZM689.139 97.5314H691.56V105.668C691.56 105.891 691.594 106.066 691.662 106.191C691.73 106.312 691.825 106.397 691.946 106.446C692.071 106.495 692.215 106.52 692.378 106.52C692.491 106.52 692.605 106.511 692.719 106.492C692.832 106.469 692.92 106.452 692.98 106.441L693.361 108.242C693.24 108.28 693.069 108.323 692.849 108.372C692.63 108.425 692.363 108.458 692.048 108.469C691.465 108.492 690.954 108.414 690.514 108.236C690.079 108.058 689.74 107.781 689.497 107.406C689.255 107.031 689.135 106.558 689.139 105.986V97.5314Z" fill="white"/>
</svg>
