<svg width="412" height="285" viewBox="0 0 412 285" fill="none" xmlns="http://www.w3.org/2000/svg">
<path d="M399 0.75H13C6.23451 0.75 0.75 6.23451 0.75 13V272C0.75 278.765 6.2345 284.25 13 284.25H399C405.766 284.25 411.25 278.766 411.25 272V13C411.25 6.23451 405.766 0.75 399 0.75Z" fill="white" stroke="#EBEBEB" stroke-width="0.5" stroke-linecap="square"/>
<g clip-path="url(#clip0_310_2492)">
<path d="M45.1293 179.192C44.3963 179.189 43.7656 179.009 43.2372 178.651C42.7116 178.293 42.3068 177.774 42.0227 177.095C41.7415 176.416 41.6023 175.599 41.6051 174.645C41.6051 173.693 41.7457 172.882 42.027 172.212C42.3111 171.541 42.7159 171.031 43.2415 170.682C43.7699 170.33 44.3991 170.153 45.1293 170.153C45.8594 170.153 46.4872 170.33 47.0128 170.682C47.5412 171.034 47.9474 171.545 48.2315 172.216C48.5156 172.884 48.6563 173.693 48.6534 174.645C48.6534 175.602 48.5114 176.42 48.2273 177.099C47.946 177.778 47.5426 178.297 47.017 178.655C46.4915 179.013 45.8622 179.192 45.1293 179.192ZM45.1293 177.662C45.6293 177.662 46.0284 177.411 46.3267 176.908C46.625 176.405 46.7727 175.651 46.7699 174.645C46.7699 173.983 46.7017 173.432 46.5653 172.991C46.4318 172.551 46.2415 172.22 45.9943 171.999C45.75 171.777 45.4616 171.666 45.1293 171.666C44.6321 171.666 44.2344 171.915 43.9361 172.412C43.6378 172.909 43.4872 173.653 43.4844 174.645C43.4844 175.315 43.5511 175.875 43.6847 176.324C43.821 176.77 44.0128 177.105 44.2599 177.33C44.5071 177.551 44.7969 177.662 45.1293 177.662Z" fill="#333333"/>
<path d="M336.44 213.256C335.462 213.252 334.621 213.011 333.917 212.534C333.216 212.057 332.676 211.366 332.298 210.46C331.923 209.555 331.737 208.466 331.741 207.193C331.741 205.924 331.928 204.843 332.303 203.949C332.682 203.055 333.222 202.375 333.923 201.909C334.627 201.439 335.466 201.205 336.44 201.205C337.413 201.205 338.25 201.439 338.951 201.909C339.655 202.379 340.197 203.061 340.576 203.955C340.955 204.845 341.142 205.924 341.138 207.193C341.138 208.47 340.949 209.561 340.57 210.466C340.195 211.371 339.657 212.062 338.957 212.54C338.256 213.017 337.417 213.256 336.44 213.256ZM336.44 211.216C337.106 211.216 337.638 210.881 338.036 210.21C338.434 209.54 338.631 208.534 338.627 207.193C338.627 206.311 338.536 205.576 338.354 204.989C338.176 204.402 337.923 203.96 337.593 203.665C337.267 203.369 336.883 203.222 336.44 203.222C335.777 203.222 335.246 203.553 334.849 204.216C334.451 204.879 334.25 205.871 334.246 207.193C334.246 208.087 334.335 208.833 334.513 209.432C334.695 210.027 334.951 210.473 335.28 210.773C335.61 211.068 335.996 211.216 336.44 211.216Z" fill="#1D8CFC"/>
<path d="M351.802 204.273H353.647V209.94C353.647 210.577 353.495 211.134 353.191 211.611C352.89 212.088 352.468 212.46 351.925 212.727C351.383 212.991 350.751 213.124 350.029 213.124C349.305 213.124 348.671 212.991 348.128 212.727C347.586 212.46 347.164 212.088 346.863 211.611C346.562 211.134 346.411 210.577 346.411 209.94V204.273H348.256V209.783C348.256 210.115 348.329 210.411 348.474 210.669C348.621 210.928 348.829 211.131 349.096 211.278C349.363 211.426 349.674 211.5 350.029 211.5C350.387 211.5 350.698 211.426 350.962 211.278C351.229 211.131 351.435 210.928 351.58 210.669C351.728 210.411 351.802 210.115 351.802 209.783V204.273ZM359.899 206.783C359.865 206.439 359.719 206.172 359.461 205.982C359.202 205.791 358.851 205.696 358.408 205.696C358.107 205.696 357.853 205.739 357.645 205.824C357.438 205.906 357.279 206.021 357.168 206.169C357.06 206.317 357.006 206.484 357.006 206.672C357 206.828 357.033 206.964 357.104 207.081C357.178 207.197 357.279 207.298 357.407 207.384C357.534 207.466 357.682 207.538 357.85 207.601C358.017 207.661 358.196 207.712 358.387 207.754L359.171 207.942C359.551 208.027 359.901 208.141 360.219 208.283C360.537 208.425 360.813 208.599 361.046 208.807C361.279 209.014 361.459 209.259 361.587 209.54C361.718 209.821 361.784 210.143 361.787 210.507C361.784 211.041 361.648 211.504 361.378 211.896C361.111 212.286 360.725 212.588 360.219 212.804C359.716 213.017 359.11 213.124 358.399 213.124C357.695 213.124 357.081 213.016 356.559 212.8C356.039 212.584 355.632 212.264 355.34 211.841C355.05 211.415 354.898 210.888 354.884 210.26H356.669C356.689 210.553 356.773 210.797 356.921 210.993C357.071 211.186 357.272 211.332 357.522 211.432C357.774 211.528 358.06 211.577 358.378 211.577C358.691 211.577 358.962 211.531 359.192 211.44C359.425 211.349 359.605 211.223 359.733 211.061C359.861 210.899 359.925 210.713 359.925 210.503C359.925 210.307 359.867 210.142 359.75 210.009C359.637 209.875 359.469 209.761 359.247 209.668C359.029 209.574 358.76 209.489 358.442 209.412L357.492 209.173C356.756 208.994 356.175 208.714 355.749 208.334C355.323 207.953 355.111 207.44 355.114 206.795C355.111 206.267 355.252 205.805 355.536 205.411C355.823 205.016 356.216 204.707 356.716 204.486C357.216 204.264 357.784 204.153 358.421 204.153C359.068 204.153 359.634 204.264 360.117 204.486C360.603 204.707 360.98 205.016 361.25 205.411C361.52 205.805 361.659 206.263 361.668 206.783H359.899ZM366.122 213H363.028V204.273H366.148C367.025 204.273 367.781 204.447 368.415 204.797C369.048 205.143 369.535 205.642 369.876 206.293C370.22 206.943 370.392 207.722 370.392 208.628C370.392 209.537 370.22 210.318 369.876 210.972C369.535 211.625 369.045 212.126 368.406 212.476C367.77 212.825 367.008 213 366.122 213ZM364.874 211.419H366.045C366.591 211.419 367.05 211.322 367.422 211.129C367.797 210.933 368.078 210.631 368.266 210.222C368.456 209.81 368.551 209.278 368.551 208.628C368.551 207.983 368.456 207.456 368.266 207.047C368.078 206.638 367.798 206.337 367.426 206.143C367.054 205.95 366.595 205.854 366.05 205.854H364.874V211.419Z" fill="#888888"/>
<path d="M43.282 202.818V213H42.3523V202.818H43.282ZM46.69 208.227V213H45.805V205.364H46.6651V206.562H46.7447C46.9237 206.171 47.2021 205.857 47.5799 205.622C47.9611 205.384 48.4317 205.264 48.9918 205.264C49.5056 205.264 49.9563 205.372 50.3441 205.587C50.7352 205.799 51.0385 206.113 51.2539 206.527C51.4727 206.941 51.582 207.45 51.582 208.053V213H50.6971V208.108C50.6971 207.482 50.5214 206.986 50.1701 206.621C49.8221 206.257 49.3548 206.075 48.7681 206.075C48.3671 206.075 48.0108 206.161 47.6992 206.333C47.3877 206.505 47.1407 206.754 46.9585 207.079C46.7795 207.4 46.69 207.783 46.69 208.227ZM56.8954 213.159C56.2127 213.159 55.6177 212.988 55.1106 212.647C54.6068 212.306 54.2157 211.838 53.9373 211.245C53.6589 210.652 53.5197 209.976 53.5197 209.217C53.5197 208.451 53.6606 207.77 53.9423 207.173C54.2273 206.577 54.6217 206.109 55.1255 205.771C55.6293 205.43 56.2143 205.259 56.8805 205.259C57.3909 205.259 57.8533 205.359 58.2676 205.558C58.6819 205.753 59.0233 206.03 59.2917 206.388C59.5635 206.742 59.7342 207.157 59.8038 207.631H58.9089C58.8161 207.2 58.5924 206.832 58.2377 206.527C57.8864 206.219 57.439 206.065 56.8954 206.065C56.4082 206.065 55.9773 206.197 55.6028 206.462C55.2283 206.724 54.935 207.09 54.7228 207.561C54.514 208.028 54.4096 208.57 54.4096 209.187C54.4096 209.807 54.5124 210.355 54.7179 210.832C54.9234 211.306 55.2117 211.678 55.5829 211.946C55.9574 212.214 56.3949 212.349 56.8954 212.349C57.2335 212.349 57.5417 212.286 57.8201 212.16C58.1019 212.031 58.3372 211.848 58.5261 211.613C58.7183 211.378 58.8476 211.098 58.9139 210.773H59.8088C59.7425 211.233 59.5784 211.644 59.3166 212.006C59.0581 212.364 58.7217 212.645 58.3074 212.851C57.8964 213.056 57.4257 213.159 56.8954 213.159ZM64.6735 213.159C64.0139 213.159 63.4306 212.992 62.9235 212.657C62.4197 212.322 62.0253 211.86 61.7402 211.27C61.4552 210.677 61.3127 209.992 61.3127 209.217C61.3127 208.434 61.4552 207.747 61.7402 207.153C62.0253 206.557 62.4197 206.093 62.9235 205.761C63.4306 205.427 64.0139 205.259 64.6735 205.259C65.333 205.259 65.9147 205.427 66.4185 205.761C66.9223 206.096 67.3167 206.56 67.6017 207.153C67.8901 207.747 68.0343 208.434 68.0343 209.217C68.0343 209.992 67.8917 210.677 67.6067 211.27C67.3217 211.86 66.9256 212.322 66.4185 212.657C65.9147 212.992 65.333 213.159 64.6735 213.159ZM64.6735 212.349C65.2038 212.349 65.6529 212.206 66.0208 211.921C66.3887 211.636 66.6671 211.257 66.856 210.783C67.0482 210.309 67.1444 209.787 67.1444 209.217C67.1444 208.647 67.0482 208.123 66.856 207.646C66.6671 207.168 66.3887 206.786 66.0208 206.497C65.6529 206.209 65.2038 206.065 64.6735 206.065C64.1465 206.065 63.6974 206.209 63.3262 206.497C62.9583 206.786 62.6782 207.168 62.486 207.646C62.2971 208.123 62.2026 208.647 62.2026 209.217C62.2026 209.787 62.2971 210.309 62.486 210.783C62.6782 211.257 62.9583 211.636 63.3262 211.921C63.6941 212.206 64.1432 212.349 64.6735 212.349ZM69.9769 213V205.364H70.837V206.537H70.9165C71.069 206.143 71.3226 205.833 71.6772 205.607C72.0352 205.379 72.4644 205.264 72.9648 205.264C73.4918 205.264 73.9244 205.388 74.2624 205.637C74.6038 205.882 74.859 206.22 75.0281 206.651H75.0927C75.265 206.227 75.5451 205.891 75.9329 205.642C76.324 205.39 76.7979 205.264 77.3548 205.264C78.064 205.264 78.6242 205.488 79.0352 205.935C79.4461 206.379 79.6516 207.029 79.6516 207.884V213H78.7667V207.884C78.7667 207.281 78.6126 206.829 78.3043 206.527C77.9961 206.225 77.5901 206.075 77.0863 206.075C76.503 206.075 76.0539 206.254 75.739 206.612C75.4241 206.969 75.2667 207.424 75.2667 207.974V213H74.3619V207.805C74.3619 207.288 74.2177 206.87 73.9293 206.552C73.641 206.234 73.235 206.075 72.7113 206.075C72.36 206.075 72.0434 206.161 71.7617 206.333C71.4833 206.505 71.2629 206.746 71.1005 207.054C70.9414 207.359 70.8619 207.71 70.8619 208.108V213H69.9769ZM85.0819 213.159C84.3693 213.159 83.7528 212.993 83.2324 212.662C82.7121 212.327 82.3094 211.865 82.0243 211.275C81.7426 210.682 81.6017 209.999 81.6017 209.227C81.6017 208.458 81.7426 207.775 82.0243 207.178C82.3094 206.578 82.7021 206.109 83.2026 205.771C83.7064 205.43 84.2881 205.259 84.9476 205.259C85.3619 205.259 85.7613 205.335 86.1458 205.488C86.5302 205.637 86.8749 205.867 87.1799 206.179C87.4881 206.487 87.7317 206.877 87.9107 207.347C88.0897 207.815 88.1792 208.368 88.1792 209.008V209.445H82.2132V208.665H87.2743C87.2743 208.174 87.1749 207.733 86.976 207.342C86.7805 206.948 86.507 206.636 86.1557 206.408C85.8077 206.179 85.405 206.065 84.9476 206.065C84.4637 206.065 84.0378 206.194 83.6699 206.452C83.302 206.711 83.0137 207.052 82.8049 207.477C82.5994 207.901 82.495 208.365 82.4917 208.869V209.336C82.4917 209.942 82.5961 210.473 82.8049 210.927C83.017 211.378 83.3169 211.727 83.7047 211.976C84.0925 212.224 84.5516 212.349 85.0819 212.349C85.4431 212.349 85.7596 212.292 86.0314 212.18C86.3065 212.067 86.5369 211.916 86.7225 211.727C86.9114 211.535 87.0539 211.325 87.15 211.096L87.9902 211.369C87.8742 211.691 87.6837 211.987 87.4185 212.259C87.1567 212.531 86.8285 212.75 86.4341 212.915C86.043 213.078 85.5923 213.159 85.0819 213.159Z" fill="#333333"/>
<path d="M336.44 243.256C335.463 243.252 334.622 243.011 333.918 242.534C333.217 242.057 332.677 241.366 332.298 240.46C331.923 239.555 331.738 238.466 331.741 237.193C331.741 235.924 331.929 234.843 332.304 233.949C332.683 233.055 333.223 232.375 333.923 231.909C334.628 231.439 335.467 231.205 336.44 231.205C337.414 231.205 338.251 231.439 338.952 231.909C339.656 232.379 340.198 233.061 340.577 233.955C340.955 234.845 341.143 235.924 341.139 237.193C341.139 238.47 340.95 239.561 340.571 240.466C340.196 241.371 339.658 242.062 338.957 242.54C338.257 243.017 337.418 243.256 336.44 243.256ZM336.44 241.216C337.107 241.216 337.639 240.881 338.037 240.21C338.435 239.54 338.632 238.534 338.628 237.193C338.628 236.311 338.537 235.576 338.355 234.989C338.177 234.402 337.923 233.96 337.594 233.665C337.268 233.369 336.883 233.222 336.44 233.222C335.777 233.222 335.247 233.553 334.849 234.216C334.452 234.879 334.251 235.871 334.247 237.193C334.247 238.087 334.336 238.833 334.514 239.432C334.696 240.027 334.952 240.473 335.281 240.773C335.611 241.068 335.997 241.216 336.44 241.216Z" fill="#FF3D00"/>
<path d="M351.803 234.273H353.648V239.94C353.648 240.577 353.496 241.134 353.192 241.611C352.891 242.088 352.469 242.46 351.926 242.727C351.383 242.991 350.751 243.124 350.03 243.124C349.305 243.124 348.672 242.991 348.129 242.727C347.587 242.46 347.165 242.088 346.864 241.611C346.562 241.134 346.412 240.577 346.412 239.94V234.273H348.257V239.783C348.257 240.115 348.33 240.411 348.474 240.669C348.622 240.928 348.83 241.131 349.097 241.278C349.364 241.426 349.675 241.5 350.03 241.5C350.388 241.5 350.699 241.426 350.963 241.278C351.23 241.131 351.436 240.928 351.581 240.669C351.729 240.411 351.803 240.115 351.803 239.783V234.273ZM359.9 236.783C359.866 236.439 359.72 236.172 359.461 235.982C359.203 235.791 358.852 235.696 358.409 235.696C358.108 235.696 357.853 235.739 357.646 235.824C357.439 235.906 357.279 236.021 357.169 236.169C357.061 236.317 357.007 236.484 357.007 236.672C357.001 236.828 357.034 236.964 357.105 237.081C357.179 237.197 357.279 237.298 357.407 237.384C357.535 237.466 357.683 237.538 357.85 237.601C358.018 237.661 358.197 237.712 358.387 237.754L359.171 237.942C359.552 238.027 359.902 238.141 360.22 238.283C360.538 238.425 360.814 238.599 361.046 238.807C361.279 239.014 361.46 239.259 361.588 239.54C361.718 239.821 361.785 240.143 361.788 240.507C361.785 241.041 361.649 241.504 361.379 241.896C361.112 242.286 360.725 242.588 360.22 242.804C359.717 243.017 359.11 243.124 358.4 243.124C357.696 243.124 357.082 243.016 356.559 242.8C356.039 242.584 355.633 242.264 355.341 241.841C355.051 241.415 354.899 240.888 354.885 240.26H356.67C356.69 240.553 356.774 240.797 356.921 240.993C357.072 241.186 357.272 241.332 357.522 241.432C357.775 241.528 358.061 241.577 358.379 241.577C358.691 241.577 358.963 241.531 359.193 241.44C359.426 241.349 359.606 241.223 359.734 241.061C359.862 240.899 359.926 240.713 359.926 240.503C359.926 240.307 359.868 240.142 359.751 240.009C359.637 239.875 359.47 239.761 359.248 239.668C359.029 239.574 358.761 239.489 358.443 239.412L357.493 239.173C356.757 238.994 356.176 238.714 355.75 238.334C355.323 237.953 355.112 237.44 355.115 236.795C355.112 236.267 355.252 235.805 355.537 235.411C355.823 235.016 356.217 234.707 356.717 234.486C357.217 234.264 357.785 234.153 358.421 234.153C359.069 234.153 359.635 234.264 360.118 234.486C360.603 234.707 360.981 235.016 361.251 235.411C361.521 235.805 361.66 236.263 361.669 236.783H359.9ZM366.123 243H363.029V234.273H366.148C367.026 234.273 367.782 234.447 368.415 234.797C369.049 235.143 369.536 235.642 369.877 236.293C370.221 236.943 370.393 237.722 370.393 238.628C370.393 239.537 370.221 240.318 369.877 240.972C369.536 241.625 369.046 242.126 368.407 242.476C367.771 242.825 367.009 243 366.123 243ZM364.874 241.419H366.046C366.592 241.419 367.05 241.322 367.423 241.129C367.798 240.933 368.079 240.631 368.266 240.222C368.457 239.81 368.552 239.278 368.552 238.628C368.552 237.983 368.457 237.456 368.266 237.047C368.079 236.638 367.799 236.337 367.427 236.143C367.055 235.95 366.596 235.854 366.05 235.854H364.874V241.419Z" fill="#888888"/>
<path d="M42.3523 243V232.818H48.2585V233.653H43.282V237.487H47.9453V238.322H43.282V242.165H48.358V243H42.3523ZM51.0277 235.364L52.9964 238.62L54.9652 235.364H55.9943L53.5384 239.182L55.9943 243H54.9652L52.9964 239.848L51.0277 243H50.0036L52.4297 239.182L50.0036 235.364H51.0277ZM57.85 245.864V235.364H58.71V236.82H58.8145C58.9205 236.592 59.0663 236.358 59.252 236.119C59.4376 235.877 59.6828 235.674 59.9877 235.508C60.296 235.342 60.6838 235.259 61.1511 235.259C61.7808 235.259 62.331 235.425 62.8017 235.756C63.2756 236.085 63.6435 236.545 63.9054 237.138C64.1705 237.728 64.3031 238.416 64.3031 239.202C64.3031 239.991 64.1705 240.682 63.9054 241.275C63.6435 241.868 63.2756 242.33 62.8017 242.662C62.331 242.993 61.7842 243.159 61.161 243.159C60.7003 243.159 60.3142 243.076 60.0027 242.911C59.6944 242.745 59.4442 242.541 59.252 242.299C59.063 242.054 58.9172 241.815 58.8145 241.583H58.7349V245.864H57.85ZM58.725 239.187C58.725 239.803 58.8161 240.35 58.9984 240.827C59.184 241.301 59.4492 241.674 59.7939 241.946C60.1419 242.214 60.5628 242.349 61.0566 242.349C61.5637 242.349 61.9913 242.21 62.3393 241.931C62.6906 241.649 62.9574 241.27 63.1397 240.793C63.3253 240.315 63.4181 239.78 63.4181 239.187C63.4181 238.6 63.327 238.071 63.1447 237.601C62.9657 237.13 62.7006 236.757 62.3493 236.482C61.9979 236.204 61.5671 236.065 61.0566 236.065C60.5595 236.065 60.1369 236.199 59.7889 236.467C59.4409 236.732 59.1757 237.1 58.9934 237.571C58.8145 238.038 58.725 238.577 58.725 239.187ZM69.3319 243.159C68.6193 243.159 68.0028 242.993 67.4824 242.662C66.9621 242.327 66.5594 241.865 66.2743 241.275C65.9926 240.682 65.8517 239.999 65.8517 239.227C65.8517 238.458 65.9926 237.775 66.2743 237.178C66.5594 236.578 66.9521 236.109 67.4526 235.771C67.9564 235.43 68.5381 235.259 69.1976 235.259C69.6119 235.259 70.0113 235.335 70.3958 235.488C70.7802 235.637 71.1249 235.867 71.4299 236.179C71.7381 236.487 71.9817 236.877 72.1607 237.347C72.3397 237.815 72.4292 238.368 72.4292 239.008V239.445H66.4632V238.665H71.5243C71.5243 238.174 71.4249 237.733 71.226 237.342C71.0305 236.948 70.757 236.636 70.4057 236.408C70.0577 236.179 69.655 236.065 69.1976 236.065C68.7137 236.065 68.2878 236.194 67.9199 236.452C67.552 236.711 67.2637 237.052 67.0549 237.477C66.8494 237.901 66.745 238.365 66.7417 238.869V239.336C66.7417 239.942 66.8461 240.473 67.0549 240.927C67.267 241.378 67.5669 241.727 67.9547 241.976C68.3425 242.224 68.8016 242.349 69.3319 242.349C69.6931 242.349 70.0096 242.292 70.2814 242.18C70.5565 242.067 70.7869 241.916 70.9725 241.727C71.1614 241.535 71.3039 241.325 71.4 241.096L72.2402 241.369C72.1242 241.691 71.9337 241.987 71.6685 242.259C71.4067 242.531 71.0785 242.75 70.6841 242.915C70.293 243.078 69.8423 243.159 69.3319 243.159ZM75.2642 238.227V243H74.3793V235.364H75.2393V236.562H75.3189C75.4979 236.171 75.7763 235.857 76.1541 235.622C76.5353 235.384 77.0059 235.264 77.5661 235.264C78.0798 235.264 78.5305 235.372 78.9183 235.587C79.3094 235.799 79.6127 236.113 79.8281 236.527C80.0469 236.941 80.1562 237.45 80.1562 238.053V243H79.2713V238.108C79.2713 237.482 79.0956 236.986 78.7443 236.621C78.3963 236.257 77.929 236.075 77.3423 236.075C76.9413 236.075 76.585 236.161 76.2734 236.333C75.9619 236.505 75.715 236.754 75.5327 237.079C75.3537 237.4 75.2642 237.783 75.2642 238.227ZM87.6174 237.039L86.807 237.268C86.7275 237.039 86.6148 236.832 86.4689 236.646C86.3231 236.461 86.1325 236.313 85.8972 236.204C85.6652 236.094 85.3768 236.04 85.0321 236.04C84.5151 236.04 84.0909 236.162 83.7594 236.408C83.428 236.653 83.2623 236.969 83.2623 237.357C83.2623 237.685 83.3749 237.952 83.6003 238.158C83.829 238.36 84.1803 238.521 84.6543 238.64L85.8077 238.923C86.4474 239.079 86.9263 239.326 87.2445 239.664C87.566 240.002 87.7267 240.426 87.7267 240.937C87.7267 241.368 87.6074 241.75 87.3688 242.085C87.1301 242.42 86.7971 242.683 86.3695 242.876C85.9453 243.065 85.4531 243.159 84.8929 243.159C84.1472 243.159 83.5324 242.992 83.0485 242.657C82.5646 242.319 82.2547 241.832 82.1188 241.195L82.9689 240.987C83.0783 241.441 83.2921 241.784 83.6103 242.016C83.9318 242.248 84.3543 242.364 84.878 242.364C85.4647 242.364 85.9337 242.233 86.285 241.971C86.6363 241.706 86.812 241.374 86.812 240.977C86.812 240.668 86.7092 240.41 86.5037 240.201C86.2982 239.989 85.9867 239.833 85.5691 239.734L84.3212 239.435C83.6583 239.276 83.1678 239.024 82.8496 238.68C82.5314 238.335 82.3723 237.907 82.3723 237.397C82.3723 236.976 82.4867 236.607 82.7154 236.288C82.9441 235.967 83.2589 235.715 83.66 235.533C84.061 235.35 84.5184 235.259 85.0321 235.259C85.7315 235.259 86.29 235.418 86.7076 235.737C87.1285 236.051 87.4318 236.486 87.6174 237.039ZM92.7518 243.159C92.0392 243.159 91.4227 242.993 90.9023 242.662C90.382 242.327 89.9793 241.865 89.6942 241.275C89.4125 240.682 89.2717 239.999 89.2717 239.227C89.2717 238.458 89.4125 237.775 89.6942 237.178C89.9793 236.578 90.372 236.109 90.8725 235.771C91.3763 235.43 91.958 235.259 92.6175 235.259C93.0318 235.259 93.4312 235.335 93.8157 235.488C94.2002 235.637 94.5449 235.867 94.8498 236.179C95.158 236.487 95.4016 236.877 95.5806 237.347C95.7596 237.815 95.8491 238.368 95.8491 239.008V239.445H89.8832V238.665H94.9442C94.9442 238.174 94.8448 237.733 94.646 237.342C94.4504 236.948 94.177 236.636 93.8256 236.408C93.4776 236.179 93.0749 236.065 92.6175 236.065C92.1336 236.065 91.7077 236.194 91.3398 236.452C90.9719 236.711 90.6836 237.052 90.4748 237.477C90.2693 237.901 90.1649 238.365 90.1616 238.869V239.336C90.1616 239.942 90.266 240.473 90.4748 240.927C90.6869 241.378 90.9869 241.727 91.3746 241.976C91.7624 242.224 92.2215 242.349 92.7518 242.349C93.113 242.349 93.4296 242.292 93.7013 242.18C93.9764 242.067 94.2068 241.916 94.3924 241.727C94.5813 241.535 94.7238 241.325 94.82 241.096L95.6602 241.369C95.5442 241.691 95.3536 241.987 95.0884 242.259C94.8266 242.531 94.4985 242.75 94.104 242.915C93.7129 243.078 93.2622 243.159 92.7518 243.159ZM102.93 237.039L102.119 237.268C102.04 237.039 101.927 236.832 101.781 236.646C101.636 236.461 101.445 236.313 101.21 236.204C100.978 236.094 100.689 236.04 100.345 236.04C99.8276 236.04 99.4034 236.162 99.0719 236.408C98.7405 236.653 98.5748 236.969 98.5748 237.357C98.5748 237.685 98.6874 237.952 98.9128 238.158C99.1415 238.36 99.4928 238.521 99.9668 238.64L101.12 238.923C101.76 239.079 102.239 239.326 102.557 239.664C102.878 240.002 103.039 240.426 103.039 240.937C103.039 241.368 102.92 241.75 102.681 242.085C102.443 242.42 102.11 242.683 101.682 242.876C101.258 243.065 100.766 243.159 100.205 243.159C99.4597 243.159 98.8449 242.992 98.361 242.657C97.8771 242.319 97.5672 241.832 97.4313 241.195L98.2814 240.987C98.3908 241.441 98.6046 241.784 98.9228 242.016C99.2443 242.248 99.6668 242.364 100.191 242.364C100.777 242.364 101.246 242.233 101.597 241.971C101.949 241.706 102.124 241.374 102.124 240.977C102.124 240.668 102.022 240.41 101.816 240.201C101.611 239.989 101.299 239.833 100.882 239.734L99.6337 239.435C98.9708 239.276 98.4803 239.024 98.1621 238.68C97.8439 238.335 97.6848 237.907 97.6848 237.397C97.6848 236.976 97.7992 236.607 98.0279 236.288C98.2566 235.967 98.5714 235.715 98.9725 235.533C99.3735 235.35 99.8309 235.259 100.345 235.259C101.044 235.259 101.602 235.418 102.02 235.737C102.441 236.051 102.744 236.486 102.93 237.039Z" fill="#333333"/>
<rect x="21.5" y="147.5" width="369" height="116" rx="7.5" stroke="#F5F5F5"/>
</g>
<rect x="21" y="73" width="370" height="64" rx="8" fill="#F5F5F5"/>
<path d="M334.136 112.32C332.914 112.315 331.863 112.014 330.983 111.418C330.107 110.821 329.432 109.957 328.958 108.825C328.49 107.694 328.258 106.332 328.262 104.741C328.262 103.155 328.497 101.804 328.966 100.686C329.439 99.5687 330.114 98.7187 330.99 98.1364C331.87 97.5492 332.919 97.2557 334.136 97.2557C335.353 97.2557 336.399 97.5492 337.275 98.1364C338.156 98.7235 338.833 99.5758 339.306 100.693C339.78 101.806 340.014 103.155 340.01 104.741C340.01 106.337 339.773 107.701 339.299 108.832C338.831 109.964 338.158 110.828 337.282 111.425C336.406 112.021 335.358 112.32 334.136 112.32ZM334.136 109.77C334.969 109.77 335.635 109.351 336.132 108.513C336.629 107.675 336.875 106.418 336.87 104.741C336.87 103.638 336.757 102.72 336.529 101.986C336.307 101.252 335.99 100.7 335.578 100.331C335.171 99.9616 334.69 99.777 334.136 99.777C333.307 99.777 332.645 100.191 332.147 101.02C331.65 101.848 331.399 103.089 331.395 104.741C331.395 105.859 331.506 106.792 331.728 107.54C331.956 108.283 332.275 108.842 332.687 109.216C333.099 109.585 333.582 109.77 334.136 109.77Z" fill="#333333"/>
<path d="M351.801 103.273H353.647V108.94C353.647 109.577 353.495 110.134 353.191 110.611C352.89 111.088 352.468 111.46 351.925 111.727C351.382 111.991 350.75 112.124 350.029 112.124C349.304 112.124 348.671 111.991 348.128 111.727C347.586 111.46 347.164 111.088 346.863 110.611C346.561 110.134 346.411 109.577 346.411 108.94V103.273H348.256V108.783C348.256 109.115 348.328 109.411 348.473 109.669C348.621 109.928 348.828 110.131 349.096 110.278C349.363 110.426 349.674 110.5 350.029 110.5C350.387 110.5 350.698 110.426 350.962 110.278C351.229 110.131 351.435 109.928 351.58 109.669C351.728 109.411 351.801 109.115 351.801 108.783V103.273ZM359.899 105.783C359.865 105.439 359.719 105.172 359.46 104.982C359.202 104.791 358.851 104.696 358.408 104.696C358.107 104.696 357.852 104.739 357.645 104.824C357.438 104.906 357.278 105.021 357.168 105.169C357.06 105.317 357.006 105.484 357.006 105.672C357 105.828 357.033 105.964 357.104 106.081C357.178 106.197 357.278 106.298 357.406 106.384C357.534 106.466 357.682 106.538 357.849 106.601C358.017 106.661 358.196 106.712 358.386 106.754L359.17 106.942C359.551 107.027 359.901 107.141 360.219 107.283C360.537 107.425 360.813 107.599 361.045 107.807C361.278 108.014 361.459 108.259 361.587 108.54C361.717 108.821 361.784 109.143 361.787 109.507C361.784 110.041 361.648 110.504 361.378 110.896C361.111 111.286 360.724 111.588 360.219 111.804C359.716 112.017 359.109 112.124 358.399 112.124C357.695 112.124 357.081 112.016 356.558 111.8C356.038 111.584 355.632 111.264 355.339 110.841C355.05 110.415 354.898 109.888 354.884 109.26H356.669C356.689 109.553 356.773 109.797 356.92 109.993C357.071 110.186 357.271 110.332 357.521 110.432C357.774 110.528 358.06 110.577 358.378 110.577C358.69 110.577 358.962 110.531 359.192 110.44C359.425 110.349 359.605 110.223 359.733 110.061C359.861 109.899 359.925 109.713 359.925 109.503C359.925 109.307 359.866 109.142 359.75 109.009C359.636 108.875 359.469 108.761 359.247 108.668C359.028 108.574 358.76 108.489 358.442 108.412L357.491 108.173C356.756 107.994 356.175 107.714 355.749 107.334C355.322 106.953 355.111 106.44 355.114 105.795C355.111 105.267 355.251 104.805 355.536 104.411C355.822 104.016 356.216 103.707 356.716 103.486C357.216 103.264 357.784 103.153 358.42 103.153C359.068 103.153 359.634 103.264 360.116 103.486C360.602 103.707 360.98 104.016 361.25 104.411C361.52 104.805 361.659 105.263 361.668 105.783H359.899ZM366.122 112H363.028V103.273H366.147C367.025 103.273 367.781 103.447 368.414 103.797C369.048 104.143 369.535 104.642 369.876 105.293C370.22 105.943 370.392 106.722 370.392 107.628C370.392 108.537 370.22 109.318 369.876 109.972C369.535 110.625 369.045 111.126 368.406 111.476C367.77 111.825 367.008 112 366.122 112ZM364.873 110.419H366.045C366.591 110.419 367.049 110.322 367.422 110.129C367.797 109.933 368.078 109.631 368.265 109.222C368.456 108.81 368.551 108.278 368.551 107.628C368.551 106.983 368.456 106.456 368.265 106.047C368.078 105.638 367.798 105.337 367.426 105.143C367.054 104.95 366.595 104.854 366.049 104.854H364.873V110.419Z" fill="#888888"/>
<path d="M50.5753 104.129H49.0241C48.9645 103.798 48.8535 103.506 48.6911 103.254C48.5286 103.002 48.3298 102.789 48.0945 102.613C47.8591 102.437 47.5956 102.305 47.304 102.215C47.0156 102.126 46.709 102.081 46.3842 102.081C45.7976 102.081 45.2723 102.228 44.8082 102.523C44.3475 102.818 43.983 103.251 43.7145 103.821C43.4493 104.391 43.3168 105.087 43.3168 105.909C43.3168 106.738 43.4493 107.437 43.7145 108.007C43.983 108.577 44.3492 109.008 44.8132 109.3C45.2772 109.591 45.7992 109.737 46.3793 109.737C46.7008 109.737 47.0057 109.694 47.294 109.608C47.5857 109.518 47.8492 109.388 48.0845 109.215C48.3198 109.043 48.5187 108.832 48.6811 108.584C48.8468 108.332 48.9612 108.044 49.0241 107.719L50.5753 107.724C50.4924 108.224 50.3317 108.685 50.093 109.106C49.8577 109.523 49.5545 109.885 49.1832 110.19C48.8153 110.491 48.3944 110.725 47.9205 110.891C47.4465 111.056 46.9295 111.139 46.3693 111.139C45.4877 111.139 44.7022 110.93 44.0128 110.513C43.3234 110.092 42.7798 109.49 42.3821 108.708C41.9877 107.926 41.7905 106.993 41.7905 105.909C41.7905 104.822 41.9893 103.889 42.3871 103.11C42.7848 102.328 43.3284 101.728 44.0178 101.31C44.7071 100.889 45.491 100.679 46.3693 100.679C46.9096 100.679 47.4134 100.757 47.8807 100.913C48.3513 101.065 48.7739 101.29 49.1484 101.589C49.523 101.884 49.8329 102.245 50.0781 102.673C50.3234 103.097 50.4891 103.582 50.5753 104.129ZM57.1316 107.833V103.364H58.623V111H57.1614V109.678H57.0819C56.9062 110.085 56.6245 110.425 56.2367 110.697C55.8522 110.965 55.3733 111.099 54.7999 111.099C54.3094 111.099 53.8752 110.992 53.4973 110.776C53.1228 110.558 52.8278 110.234 52.6124 109.807C52.4003 109.379 52.2942 108.851 52.2942 108.221V103.364H53.7807V108.042C53.7807 108.562 53.9249 108.977 54.2132 109.285C54.5016 109.593 54.8761 109.747 55.3368 109.747C55.6152 109.747 55.892 109.678 56.1671 109.538C56.4455 109.399 56.6758 109.189 56.8581 108.907C57.0437 108.625 57.1349 108.267 57.1316 107.833ZM60.6204 111V103.364H62.0572V104.577H62.1367C62.2759 104.166 62.5212 103.843 62.8725 103.607C63.2272 103.369 63.6282 103.249 64.0756 103.249C64.1684 103.249 64.2778 103.253 64.4038 103.259C64.533 103.266 64.6341 103.274 64.707 103.284V104.706C64.6474 104.689 64.5413 104.671 64.3888 104.651C64.2364 104.628 64.0839 104.616 63.9315 104.616C63.5801 104.616 63.2669 104.691 62.9918 104.84C62.7201 104.986 62.5046 105.19 62.3455 105.452C62.1864 105.71 62.1069 106.005 62.1069 106.337V111H60.6204ZM65.9934 111V103.364H67.4302V104.577H67.5098C67.649 104.166 67.8942 103.843 68.2456 103.607C68.6002 103.369 69.0012 103.249 69.4487 103.249C69.5415 103.249 69.6509 103.253 69.7768 103.259C69.9061 103.266 70.0072 103.274 70.0801 103.284V104.706C70.0204 104.689 69.9144 104.671 69.7619 104.651C69.6094 104.628 69.457 104.616 69.3045 104.616C68.9532 104.616 68.64 104.691 68.3649 104.84C68.0931 104.986 67.8777 105.19 67.7186 105.452C67.5595 105.71 67.4799 106.005 67.4799 106.337V111H65.9934ZM74.3842 111.154C73.6319 111.154 72.9839 110.993 72.4403 110.672C71.9001 110.347 71.4825 109.891 71.1875 109.305C70.8958 108.715 70.75 108.024 70.75 107.232C70.75 106.449 70.8958 105.76 71.1875 105.163C71.4825 104.567 71.8935 104.101 72.4205 103.766C72.9508 103.432 73.5705 103.264 74.2798 103.264C74.7107 103.264 75.1283 103.335 75.5327 103.478C75.937 103.621 76.3 103.844 76.6214 104.149C76.9429 104.454 77.1965 104.85 77.3821 105.337C77.5677 105.821 77.6605 106.41 77.6605 107.102V107.629H71.5902V106.516H76.2038C76.2038 106.125 76.1243 105.778 75.9652 105.477C75.8061 105.172 75.5824 104.931 75.294 104.756C75.009 104.58 74.6742 104.492 74.2898 104.492C73.8722 104.492 73.5076 104.595 73.196 104.8C72.8878 105.003 72.6491 105.268 72.4801 105.596C72.3144 105.921 72.2315 106.274 72.2315 106.655V107.525C72.2315 108.035 72.321 108.469 72.5 108.827C72.6823 109.185 72.9358 109.459 73.2607 109.648C73.5855 109.833 73.965 109.926 74.3991 109.926C74.6809 109.926 74.9377 109.886 75.1697 109.807C75.4018 109.724 75.6023 109.601 75.7713 109.439C75.9403 109.277 76.0696 109.076 76.1591 108.837L77.5661 109.091C77.4534 109.505 77.2512 109.868 76.9595 110.18C76.6712 110.488 76.3082 110.728 75.8707 110.901C75.4366 111.07 74.9411 111.154 74.3842 111.154ZM80.7963 106.466V111H79.3098V103.364H80.7367V104.607H80.8311C81.0068 104.202 81.2819 103.877 81.6564 103.632C82.0343 103.387 82.5099 103.264 83.0833 103.264C83.6036 103.264 84.0594 103.374 84.4505 103.592C84.8416 103.808 85.1448 104.129 85.3603 104.557C85.5757 104.984 85.6834 105.513 85.6834 106.143V111H84.1969V106.322C84.1969 105.768 84.0527 105.336 83.7644 105.024C83.476 104.709 83.08 104.552 82.5762 104.552C82.2315 104.552 81.9249 104.626 81.6564 104.776C81.3913 104.925 81.1808 105.143 81.025 105.432C80.8726 105.717 80.7963 106.062 80.7963 106.466ZM91.2417 103.364V104.557H87.0705V103.364H91.2417ZM88.1891 101.534H89.6756V108.758C89.6756 109.046 89.7187 109.263 89.8049 109.409C89.891 109.552 90.0021 109.649 90.138 109.702C90.2772 109.752 90.428 109.777 90.5904 109.777C90.7097 109.777 90.8141 109.769 90.9036 109.752C90.9931 109.736 91.0627 109.722 91.1124 109.712L91.3809 110.94C91.2947 110.973 91.1721 111.007 91.013 111.04C90.8539 111.076 90.655 111.096 90.4164 111.099C90.0253 111.106 89.6607 111.036 89.3226 110.891C88.9846 110.745 88.7111 110.519 88.5023 110.214C88.2935 109.91 88.1891 109.527 88.1891 109.066V101.534ZM96.7104 111V100.818H100.439C101.162 100.818 101.76 100.937 102.234 101.176C102.708 101.411 103.062 101.731 103.298 102.136C103.533 102.537 103.651 102.989 103.651 103.493C103.651 103.917 103.573 104.275 103.417 104.567C103.261 104.855 103.052 105.087 102.791 105.263C102.532 105.435 102.247 105.561 101.936 105.641V105.74C102.274 105.757 102.603 105.866 102.925 106.068C103.25 106.267 103.518 106.55 103.73 106.918C103.942 107.286 104.048 107.734 104.048 108.261C104.048 108.781 103.926 109.248 103.681 109.663C103.439 110.074 103.064 110.4 102.557 110.642C102.05 110.881 101.402 111 100.613 111H96.7104ZM98.2466 109.683H100.464C101.2 109.683 101.727 109.54 102.045 109.255C102.363 108.97 102.522 108.614 102.522 108.186C102.522 107.865 102.441 107.57 102.279 107.301C102.116 107.033 101.884 106.819 101.583 106.66C101.284 106.501 100.93 106.421 100.519 106.421H98.2466V109.683ZM98.2466 105.223H100.305C100.65 105.223 100.959 105.157 101.235 105.024C101.513 104.892 101.733 104.706 101.896 104.467C102.061 104.225 102.144 103.94 102.144 103.612C102.144 103.191 101.997 102.838 101.702 102.553C101.407 102.268 100.954 102.126 100.345 102.126H98.2466V105.223ZM107.974 111.169C107.49 111.169 107.052 111.08 106.661 110.901C106.27 110.718 105.96 110.455 105.731 110.11C105.506 109.765 105.393 109.343 105.393 108.842C105.393 108.411 105.476 108.057 105.642 107.778C105.808 107.5 106.031 107.28 106.313 107.117C106.595 106.955 106.91 106.832 107.258 106.749C107.606 106.666 107.96 106.603 108.322 106.56C108.779 106.507 109.15 106.464 109.435 106.431C109.72 106.395 109.927 106.337 110.057 106.257C110.186 106.178 110.251 106.048 110.251 105.869V105.835C110.251 105.4 110.128 105.064 109.883 104.825C109.641 104.587 109.279 104.467 108.799 104.467C108.298 104.467 107.904 104.578 107.616 104.8C107.331 105.019 107.133 105.263 107.024 105.531L105.627 105.213C105.793 104.749 106.035 104.375 106.353 104.089C106.674 103.801 107.044 103.592 107.461 103.463C107.879 103.33 108.318 103.264 108.779 103.264C109.084 103.264 109.407 103.301 109.748 103.374C110.093 103.443 110.415 103.572 110.713 103.761C111.015 103.95 111.261 104.22 111.454 104.572C111.646 104.92 111.742 105.372 111.742 105.929V111H110.29V109.956H110.231C110.135 110.148 109.99 110.337 109.798 110.523C109.606 110.708 109.359 110.862 109.057 110.985C108.756 111.108 108.394 111.169 107.974 111.169ZM108.297 109.976C108.708 109.976 109.059 109.895 109.351 109.732C109.646 109.57 109.869 109.358 110.022 109.096C110.178 108.831 110.256 108.547 110.256 108.246V107.261C110.202 107.314 110.1 107.364 109.947 107.411C109.798 107.454 109.627 107.492 109.435 107.525C109.243 107.555 109.056 107.583 108.873 107.609C108.691 107.633 108.539 107.652 108.416 107.669C108.128 107.705 107.864 107.767 107.626 107.853C107.39 107.939 107.201 108.063 107.059 108.226C106.92 108.385 106.85 108.597 106.85 108.862C106.85 109.23 106.986 109.509 107.258 109.697C107.529 109.883 107.876 109.976 108.297 109.976ZM115.208 100.818V111H113.722V100.818H115.208ZM119.431 111.169C118.947 111.169 118.509 111.08 118.118 110.901C117.727 110.718 117.417 110.455 117.188 110.11C116.963 109.765 116.85 109.343 116.85 108.842C116.85 108.411 116.933 108.057 117.099 107.778C117.265 107.5 117.488 107.28 117.77 107.117C118.052 106.955 118.367 106.832 118.715 106.749C119.063 106.666 119.417 106.603 119.779 106.56C120.236 106.507 120.607 106.464 120.892 106.431C121.177 106.395 121.384 106.337 121.514 106.257C121.643 106.178 121.708 106.048 121.708 105.869V105.835C121.708 105.4 121.585 105.064 121.34 104.825C121.098 104.587 120.736 104.467 120.256 104.467C119.755 104.467 119.361 104.578 119.073 104.8C118.788 105.019 118.59 105.263 118.481 105.531L117.084 105.213C117.25 104.749 117.492 104.375 117.81 104.089C118.131 103.801 118.501 103.592 118.919 103.463C119.336 103.33 119.775 103.264 120.236 103.264C120.541 103.264 120.864 103.301 121.205 103.374C121.55 103.443 121.872 103.572 122.17 103.761C122.472 103.95 122.718 104.22 122.911 104.572C123.103 104.92 123.199 105.372 123.199 105.929V111H121.747V109.956H121.688C121.592 110.148 121.447 110.337 121.255 110.523C121.063 110.708 120.816 110.862 120.514 110.985C120.213 111.108 119.852 111.169 119.431 111.169ZM119.754 109.976C120.165 109.976 120.516 109.895 120.808 109.732C121.103 109.57 121.326 109.358 121.479 109.096C121.635 108.831 121.713 108.547 121.713 108.246V107.261C121.66 107.314 121.557 107.364 121.404 107.411C121.255 107.454 121.084 107.492 120.892 107.525C120.7 107.555 120.513 107.583 120.33 107.609C120.148 107.633 119.996 107.652 119.873 107.669C119.585 107.705 119.321 107.767 119.083 107.853C118.847 107.939 118.658 108.063 118.516 108.226C118.377 108.385 118.307 108.597 118.307 108.862C118.307 109.23 118.443 109.509 118.715 109.697C118.986 109.883 119.333 109.976 119.754 109.976ZM126.665 106.466V111H125.179V103.364H126.606V104.607H126.7C126.876 104.202 127.151 103.877 127.526 103.632C127.903 103.387 128.379 103.264 128.952 103.264C129.473 103.264 129.929 103.374 130.32 103.592C130.711 103.808 131.014 104.129 131.229 104.557C131.445 104.984 131.553 105.513 131.553 106.143V111H130.066V106.322C130.066 105.768 129.922 105.336 129.634 105.024C129.345 104.709 128.949 104.552 128.445 104.552C128.101 104.552 127.794 104.626 127.526 104.776C127.26 104.925 127.05 105.143 126.894 105.432C126.742 105.717 126.665 106.062 126.665 106.466ZM136.763 111.154C136.024 111.154 135.387 110.987 134.854 110.652C134.323 110.314 133.916 109.848 133.631 109.255C133.346 108.662 133.203 107.982 133.203 107.217C133.203 106.441 133.349 105.757 133.641 105.163C133.932 104.567 134.343 104.101 134.874 103.766C135.404 103.432 136.029 103.264 136.748 103.264C137.328 103.264 137.845 103.372 138.299 103.587C138.753 103.799 139.119 104.098 139.398 104.482C139.679 104.867 139.847 105.316 139.9 105.83H138.453C138.374 105.472 138.191 105.163 137.906 104.905C137.625 104.646 137.247 104.517 136.773 104.517C136.358 104.517 135.996 104.626 135.684 104.845C135.376 105.061 135.135 105.369 134.963 105.77C134.791 106.168 134.705 106.638 134.705 107.182C134.705 107.739 134.789 108.219 134.958 108.624C135.127 109.028 135.366 109.341 135.674 109.563C135.986 109.785 136.352 109.896 136.773 109.896C137.054 109.896 137.31 109.845 137.538 109.742C137.77 109.636 137.964 109.485 138.12 109.29C138.279 109.094 138.39 108.859 138.453 108.584H139.9C139.847 109.078 139.686 109.518 139.418 109.906C139.149 110.294 138.79 110.599 138.339 110.821C137.891 111.043 137.366 111.154 136.763 111.154ZM144.781 111.154C144.028 111.154 143.38 110.993 142.837 110.672C142.297 110.347 141.879 109.891 141.584 109.305C141.292 108.715 141.146 108.024 141.146 107.232C141.146 106.449 141.292 105.76 141.584 105.163C141.879 104.567 142.29 104.101 142.817 103.766C143.347 103.432 143.967 103.264 144.676 103.264C145.107 103.264 145.525 103.335 145.929 103.478C146.334 103.621 146.696 103.844 147.018 104.149C147.339 104.454 147.593 104.85 147.779 105.337C147.964 105.821 148.057 106.41 148.057 107.102V107.629H141.987V106.516H146.6C146.6 106.125 146.521 105.778 146.362 105.477C146.203 105.172 145.979 104.931 145.691 104.756C145.405 104.58 145.071 104.492 144.686 104.492C144.269 104.492 143.904 104.595 143.593 104.8C143.284 105.003 143.046 105.268 142.877 105.596C142.711 105.921 142.628 106.274 142.628 106.655V107.525C142.628 108.035 142.718 108.469 142.896 108.827C143.079 109.185 143.332 109.459 143.657 109.648C143.982 109.833 144.361 109.926 144.796 109.926C145.077 109.926 145.334 109.886 145.566 109.807C145.798 109.724 145.999 109.601 146.168 109.439C146.337 109.277 146.466 109.076 146.556 108.837L147.963 109.091C147.85 109.505 147.648 109.868 147.356 110.18C147.068 110.488 146.705 110.728 146.267 110.901C145.833 111.07 145.338 111.154 144.781 111.154Z" fill="#333333"/>
<defs>
<clipPath id="clip0_310_2492">
<rect width="370" height="117" fill="white" transform="translate(21 147)"/>
</clipPath>
</defs>
</svg>
