<svg width="412" height="285" viewBox="0 0 412 285" fill="none" xmlns="http://www.w3.org/2000/svg">
<path d="M399 0.75H13C6.23451 0.75 0.75 6.23451 0.75 13V272C0.75 278.766 6.2345 284.25 13 284.25H399C405.765 284.25 411.25 278.766 411.25 272V13C411.25 6.23451 405.766 0.75 399 0.75Z" fill="white" stroke="#EBEBEB" stroke-width="0.5" stroke-linecap="square"/>
<rect x="21.5" y="173.5" width="369" height="90" rx="7.5" fill="#FBFBFB"/>
<path d="M42.3523 207V196.818H45.6385C46.361 196.818 46.9643 196.949 47.4482 197.211C47.9354 197.469 48.3016 197.829 48.5469 198.29C48.7955 198.747 48.9197 199.272 48.9197 199.866C48.9197 200.459 48.7955 200.983 48.5469 201.437C48.3016 201.891 47.937 202.246 47.4531 202.501C46.9692 202.756 46.3693 202.884 45.6534 202.884H42.8544V202.033H45.6286C46.1589 202.033 46.5997 201.946 46.951 201.77C47.3056 201.594 47.5691 201.344 47.7415 201.019C47.9171 200.694 48.005 200.31 48.005 199.866C48.005 199.422 47.9171 199.034 47.7415 198.702C47.5658 198.368 47.3007 198.109 46.946 197.927C46.5947 197.745 46.1506 197.653 45.6136 197.653H43.282V207H42.3523ZM46.8416 202.406L49.3473 207H48.2734L45.7926 202.406H46.8416ZM54.0057 207.159C53.2931 207.159 52.6766 206.993 52.1562 206.662C51.6359 206.327 51.2332 205.865 50.9482 205.275C50.6664 204.682 50.5256 203.999 50.5256 203.227C50.5256 202.458 50.6664 201.775 50.9482 201.178C51.2332 200.578 51.6259 200.109 52.1264 199.771C52.6302 199.43 53.2119 199.259 53.8714 199.259C54.2857 199.259 54.6851 199.335 55.0696 199.488C55.4541 199.637 55.7988 199.867 56.1037 200.179C56.4119 200.487 56.6555 200.877 56.8345 201.347C57.0135 201.815 57.103 202.368 57.103 203.008V203.445H51.1371V202.665H56.1982C56.1982 202.174 56.0987 201.733 55.8999 201.342C55.7043 200.948 55.4309 200.636 55.0795 200.408C54.7315 200.179 54.3288 200.065 53.8714 200.065C53.3875 200.065 52.9616 200.194 52.5938 200.452C52.2259 200.711 51.9375 201.052 51.7287 201.477C51.5232 201.901 51.4188 202.365 51.4155 202.869V203.336C51.4155 203.942 51.5199 204.473 51.7287 204.927C51.9408 205.378 52.2408 205.727 52.6286 205.976C53.0163 206.224 53.4754 206.349 54.0057 206.349C54.367 206.349 54.6835 206.292 54.9553 206.18C55.2304 206.067 55.4607 205.916 55.6463 205.727C55.8352 205.535 55.9777 205.325 56.0739 205.096L56.9141 205.369C56.7981 205.691 56.6075 205.987 56.3423 206.259C56.0805 206.531 55.7524 206.75 55.358 206.915C54.9669 207.078 54.5161 207.159 54.0057 207.159ZM62.036 207.159C61.3533 207.159 60.7583 206.988 60.2512 206.647C59.7475 206.306 59.3564 205.838 59.0779 205.245C58.7995 204.652 58.6603 203.976 58.6603 203.217C58.6603 202.451 58.8012 201.77 59.0829 201.173C59.368 200.577 59.7624 200.109 60.2662 199.771C60.7699 199.43 61.3549 199.259 62.0211 199.259C62.5315 199.259 62.9939 199.359 63.4082 199.558C63.8225 199.753 64.1639 200.03 64.4324 200.388C64.7041 200.742 64.8748 201.157 64.9444 201.631H64.0495C63.9567 201.2 63.733 200.832 63.3784 200.527C63.027 200.219 62.5796 200.065 62.036 200.065C61.5488 200.065 61.118 200.197 60.7434 200.462C60.3689 200.724 60.0756 201.09 59.8635 201.561C59.6547 202.028 59.5502 202.57 59.5502 203.187C59.5502 203.807 59.653 204.355 59.8585 204.832C60.064 205.306 60.3523 205.678 60.7235 205.946C61.0981 206.214 61.5356 206.349 62.036 206.349C62.3741 206.349 62.6824 206.286 62.9608 206.16C63.2425 206.031 63.4778 205.848 63.6667 205.613C63.859 205.378 63.9882 205.098 64.0545 204.773H64.9494C64.8831 205.233 64.719 205.644 64.4572 206.006C64.1987 206.364 63.8623 206.645 63.448 206.851C63.037 207.056 62.5663 207.159 62.036 207.159ZM69.9334 207.159C69.2208 207.159 68.6043 206.993 68.084 206.662C67.5636 206.327 67.1609 205.865 66.8759 205.275C66.5942 204.682 66.4533 203.999 66.4533 203.227C66.4533 202.458 66.5942 201.775 66.8759 201.178C67.1609 200.578 67.5537 200.109 68.0542 199.771C68.5579 199.43 69.1396 199.259 69.7992 199.259C70.2135 199.259 70.6129 199.335 70.9973 199.488C71.3818 199.637 71.7265 199.867 72.0314 200.179C72.3397 200.487 72.5833 200.877 72.7623 201.347C72.9412 201.815 73.0307 202.368 73.0307 203.008V203.445H67.0648V202.665H72.1259C72.1259 202.174 72.0265 201.733 71.8276 201.342C71.632 200.948 71.3586 200.636 71.0073 200.408C70.6593 200.179 70.2566 200.065 69.7992 200.065C69.3153 200.065 68.8894 200.194 68.5215 200.452C68.1536 200.711 67.8652 201.052 67.6564 201.477C67.4509 201.901 67.3465 202.365 67.3432 202.869V203.336C67.3432 203.942 67.4476 204.473 67.6564 204.927C67.8685 205.378 68.1685 205.727 68.5563 205.976C68.9441 206.224 69.4031 206.349 69.9334 206.349C70.2947 206.349 70.6112 206.292 70.883 206.18C71.1581 206.067 71.3884 205.916 71.574 205.727C71.763 205.535 71.9055 205.325 72.0016 205.096L72.8418 205.369C72.7258 205.691 72.5352 205.987 72.2701 206.259C72.0082 206.531 71.6801 206.75 71.2857 206.915C70.8946 207.078 70.4438 207.159 69.9334 207.159ZM75.8658 202.227V207H74.9808V199.364H75.8409V200.562H75.9205C76.0994 200.171 76.3778 199.857 76.7557 199.622C77.1368 199.384 77.6075 199.264 78.1676 199.264C78.6813 199.264 79.1321 199.372 79.5199 199.587C79.911 199.799 80.2143 200.113 80.4297 200.527C80.6484 200.941 80.7578 201.45 80.7578 202.053V207H79.8729V202.108C79.8729 201.482 79.6972 200.986 79.3459 200.621C78.9979 200.257 78.5305 200.075 77.9439 200.075C77.5429 200.075 77.1866 200.161 76.875 200.333C76.5634 200.505 76.3165 200.754 76.1342 201.079C75.9553 201.4 75.8658 201.783 75.8658 202.227ZM86.0961 199.364V200.134H82.4519V199.364H86.0961ZM83.5904 197.534H84.4803V205.006C84.4803 205.325 84.535 205.575 84.6444 205.757C84.7537 205.936 84.8962 206.064 85.0719 206.14C85.2476 206.213 85.4348 206.249 85.6337 206.249C85.7497 206.249 85.8491 206.243 85.932 206.229C86.0149 206.213 86.0878 206.196 86.1507 206.18L86.3397 206.98C86.2535 207.013 86.1474 207.043 86.0215 207.07C85.8955 207.099 85.7398 207.114 85.5542 207.114C85.2293 207.114 84.9161 207.043 84.6145 206.901C84.3162 206.758 84.071 206.546 83.8787 206.264C83.6865 205.982 83.5904 205.633 83.5904 205.215V197.534ZM89.1548 196.818V207H88.2699V196.818H89.1548ZM92.1129 209.864C91.9373 209.864 91.7732 209.847 91.6207 209.814C91.4683 209.781 91.3473 209.744 91.2578 209.705L91.4964 208.924C91.7981 209.017 92.0665 209.05 92.3018 209.023C92.5372 209 92.746 208.894 92.9283 208.705C93.1106 208.52 93.273 208.235 93.4155 207.85L93.6939 207.075L90.8849 199.364H91.8445L94.1115 205.832H94.1811L96.4482 199.364H97.4077L94.1761 208.208C94.0402 208.576 93.8729 208.883 93.674 209.128C93.4751 209.376 93.2448 209.56 92.983 209.68C92.7244 209.802 92.4344 209.864 92.1129 209.864ZM110.047 196.818H110.976V203.56C110.976 204.252 110.814 204.872 110.489 205.419C110.164 205.963 109.712 206.392 109.132 206.707C108.555 207.018 107.884 207.174 107.118 207.174C106.356 207.174 105.685 207.017 105.105 206.702C104.525 206.387 104.073 205.958 103.748 205.414C103.423 204.871 103.26 204.252 103.26 203.56V196.818H104.19V203.495C104.19 204.035 104.311 204.518 104.553 204.942C104.795 205.363 105.135 205.694 105.572 205.936C106.013 206.178 106.528 206.299 107.118 206.299C107.708 206.299 108.224 206.178 108.665 205.936C109.105 205.694 109.445 205.363 109.684 204.942C109.926 204.518 110.047 204.035 110.047 203.495V196.818ZM118.625 201.039L117.815 201.268C117.735 201.039 117.623 200.832 117.477 200.646C117.331 200.461 117.14 200.313 116.905 200.204C116.673 200.094 116.385 200.04 116.04 200.04C115.523 200.04 115.099 200.162 114.767 200.408C114.436 200.653 114.27 200.969 114.27 201.357C114.27 201.685 114.383 201.952 114.608 202.158C114.837 202.36 115.188 202.521 115.662 202.64L116.816 202.923C117.455 203.079 117.934 203.326 118.252 203.664C118.574 204.002 118.735 204.426 118.735 204.937C118.735 205.368 118.615 205.75 118.377 206.085C118.138 206.42 117.805 206.683 117.377 206.876C116.953 207.065 116.461 207.159 115.901 207.159C115.155 207.159 114.54 206.992 114.056 206.657C113.572 206.319 113.262 205.832 113.127 205.195L113.977 204.987C114.086 205.441 114.3 205.784 114.618 206.016C114.94 206.248 115.362 206.364 115.886 206.364C116.472 206.364 116.941 206.233 117.293 205.971C117.644 205.706 117.82 205.374 117.82 204.977C117.82 204.668 117.717 204.41 117.512 204.201C117.306 203.989 116.994 203.833 116.577 203.734L115.329 203.435C114.666 203.276 114.176 203.024 113.857 202.68C113.539 202.335 113.38 201.907 113.38 201.397C113.38 200.976 113.494 200.607 113.723 200.288C113.952 199.967 114.267 199.715 114.668 199.533C115.069 199.35 115.526 199.259 116.04 199.259C116.739 199.259 117.298 199.418 117.715 199.737C118.136 200.051 118.44 200.486 118.625 201.039ZM123.76 207.159C123.047 207.159 122.431 206.993 121.91 206.662C121.39 206.327 120.987 205.865 120.702 205.275C120.42 204.682 120.279 203.999 120.279 203.227C120.279 202.458 120.42 201.775 120.702 201.178C120.987 200.578 121.38 200.109 121.88 199.771C122.384 199.43 122.966 199.259 123.625 199.259C124.04 199.259 124.439 199.335 124.824 199.488C125.208 199.637 125.553 199.867 125.858 200.179C126.166 200.487 126.409 200.877 126.588 201.347C126.767 201.815 126.857 202.368 126.857 203.008V203.445H120.891V202.665H125.952C125.952 202.174 125.853 201.733 125.654 201.342C125.458 200.948 125.185 200.636 124.833 200.408C124.485 200.179 124.083 200.065 123.625 200.065C123.141 200.065 122.716 200.194 122.348 200.452C121.98 200.711 121.691 201.052 121.483 201.477C121.277 201.901 121.173 202.365 121.169 202.869V203.336C121.169 203.942 121.274 204.473 121.483 204.927C121.695 205.378 121.995 205.727 122.382 205.976C122.77 206.224 123.229 206.349 123.76 206.349C124.121 206.349 124.437 206.292 124.709 206.18C124.984 206.067 125.215 205.916 125.4 205.727C125.589 205.535 125.732 205.325 125.828 205.096L126.668 205.369C126.552 205.691 126.361 205.987 126.096 206.259C125.834 206.531 125.506 206.75 125.112 206.915C124.721 207.078 124.27 207.159 123.76 207.159ZM131.556 207.159C130.93 207.159 130.381 206.993 129.911 206.662C129.44 206.33 129.072 205.868 128.807 205.275C128.545 204.682 128.414 203.991 128.414 203.202C128.414 202.416 128.545 201.728 128.807 201.138C129.072 200.545 129.442 200.085 129.916 199.756C130.39 199.425 130.941 199.259 131.571 199.259C132.035 199.259 132.421 199.342 132.73 199.508C133.038 199.67 133.285 199.872 133.47 200.114C133.656 200.356 133.8 200.592 133.903 200.82H133.982V196.818H134.872V207H134.007V205.583H133.903C133.8 205.815 133.654 206.054 133.465 206.299C133.276 206.541 133.026 206.745 132.715 206.911C132.406 207.076 132.02 207.159 131.556 207.159ZM131.661 206.349C132.155 206.349 132.575 206.214 132.923 205.946C133.271 205.674 133.537 205.301 133.719 204.827C133.905 204.35 133.997 203.803 133.997 203.187C133.997 202.577 133.906 202.038 133.724 201.571C133.542 201.1 133.276 200.732 132.928 200.467C132.58 200.199 132.158 200.065 131.661 200.065C131.15 200.065 130.719 200.204 130.368 200.482C130.02 200.757 129.755 201.13 129.573 201.601C129.394 202.071 129.304 202.6 129.304 203.187C129.304 203.78 129.395 204.315 129.578 204.793C129.76 205.27 130.025 205.649 130.373 205.931C130.724 206.21 131.154 206.349 131.661 206.349Z" fill="#888888"/>
<path d="M329.53 244.447C327.819 244.441 326.348 244.02 325.115 243.185C323.889 242.349 322.944 241.14 322.281 239.555C321.625 237.971 321.3 236.065 321.307 233.838C321.307 231.617 321.635 229.725 322.291 228.161C322.954 226.596 323.899 225.406 325.125 224.591C326.358 223.769 327.826 223.358 329.53 223.358C331.233 223.358 332.698 223.769 333.925 224.591C335.158 225.413 336.105 226.606 336.768 228.17C337.431 229.728 337.759 231.617 337.753 233.838C337.753 236.072 337.421 237.981 336.758 239.565C336.102 241.15 335.161 242.359 333.935 243.195C332.708 244.03 331.24 244.447 329.53 244.447ZM329.53 240.878C330.696 240.878 331.628 240.291 332.324 239.118C333.02 237.945 333.364 236.185 333.358 233.838C333.358 232.294 333.199 231.008 332.881 229.98C332.569 228.953 332.125 228.18 331.548 227.663C330.978 227.146 330.305 226.888 329.53 226.888C328.37 226.888 327.442 227.468 326.746 228.628C326.05 229.788 325.698 231.525 325.692 233.838C325.692 235.402 325.847 236.708 326.159 237.756C326.477 238.796 326.925 239.579 327.501 240.102C328.078 240.619 328.754 240.878 329.53 240.878Z" fill="#333333"/>
<path d="M351.802 235.273H353.647V240.94C353.647 241.577 353.495 242.134 353.191 242.611C352.89 243.088 352.468 243.46 351.925 243.727C351.383 243.991 350.751 244.124 350.029 244.124C349.305 244.124 348.671 243.991 348.128 243.727C347.586 243.46 347.164 243.088 346.863 242.611C346.562 242.134 346.411 241.577 346.411 240.94V235.273H348.256V240.783C348.256 241.115 348.329 241.411 348.474 241.669C348.621 241.928 348.829 242.131 349.096 242.278C349.363 242.426 349.674 242.5 350.029 242.5C350.387 242.5 350.698 242.426 350.962 242.278C351.229 242.131 351.435 241.928 351.58 241.669C351.728 241.411 351.802 241.115 351.802 240.783V235.273ZM359.899 237.783C359.865 237.439 359.719 237.172 359.46 236.982C359.202 236.791 358.851 236.696 358.408 236.696C358.107 236.696 357.853 236.739 357.645 236.824C357.438 236.906 357.279 237.021 357.168 237.169C357.06 237.317 357.006 237.484 357.006 237.672C357 237.828 357.033 237.964 357.104 238.081C357.178 238.197 357.279 238.298 357.406 238.384C357.534 238.466 357.682 238.538 357.85 238.601C358.017 238.661 358.196 238.712 358.387 238.754L359.171 238.942C359.551 239.027 359.901 239.141 360.219 239.283C360.537 239.425 360.813 239.599 361.046 239.807C361.279 240.014 361.459 240.259 361.587 240.54C361.718 240.821 361.784 241.143 361.787 241.507C361.784 242.041 361.648 242.504 361.378 242.896C361.111 243.286 360.725 243.588 360.219 243.804C359.716 244.017 359.11 244.124 358.399 244.124C357.695 244.124 357.081 244.016 356.558 243.8C356.039 243.584 355.632 243.264 355.34 242.841C355.05 242.415 354.898 241.888 354.884 241.26H356.669C356.689 241.553 356.773 241.797 356.921 241.993C357.071 242.186 357.272 242.332 357.522 242.432C357.774 242.528 358.06 242.577 358.378 242.577C358.691 242.577 358.962 242.531 359.192 242.44C359.425 242.349 359.605 242.223 359.733 242.061C359.861 241.899 359.925 241.713 359.925 241.503C359.925 241.307 359.867 241.142 359.75 241.009C359.637 240.875 359.469 240.761 359.247 240.668C359.029 240.574 358.76 240.489 358.442 240.412L357.492 240.173C356.756 239.994 356.175 239.714 355.749 239.334C355.323 238.953 355.111 238.44 355.114 237.795C355.111 237.267 355.252 236.805 355.536 236.411C355.823 236.016 356.216 235.707 356.716 235.486C357.216 235.264 357.784 235.153 358.421 235.153C359.068 235.153 359.634 235.264 360.117 235.486C360.603 235.707 360.98 236.016 361.25 236.411C361.52 236.805 361.659 237.263 361.668 237.783H359.899ZM366.122 244H363.028V235.273H366.148C367.025 235.273 367.781 235.447 368.415 235.797C369.048 236.143 369.535 236.642 369.876 237.293C370.22 237.943 370.392 238.722 370.392 239.628C370.392 240.537 370.22 241.318 369.876 241.972C369.535 242.625 369.045 243.126 368.406 243.476C367.77 243.825 367.008 244 366.122 244ZM364.873 242.419H366.045C366.591 242.419 367.05 242.322 367.422 242.129C367.797 241.933 368.078 241.631 368.265 241.222C368.456 240.81 368.551 240.278 368.551 239.628C368.551 238.983 368.456 238.456 368.265 238.047C368.078 237.638 367.798 237.337 367.426 237.143C367.054 236.95 366.595 236.854 366.05 236.854H364.873V242.419Z" fill="#888888"/>
<path d="M45.8175 240.224C44.9624 240.22 44.2266 240.01 43.6101 239.592C42.9969 239.175 42.5246 238.57 42.1932 237.778C41.8651 236.986 41.7027 236.033 41.706 234.919C41.706 233.809 41.87 232.862 42.1982 232.08C42.5296 231.298 43.0019 230.703 43.6151 230.295C44.2315 229.884 44.9657 229.679 45.8175 229.679C46.6693 229.679 47.4018 229.884 48.0149 230.295C48.6314 230.706 49.1054 231.303 49.4368 232.085C49.7682 232.864 49.9323 233.809 49.929 234.919C49.929 236.036 49.7633 236.991 49.4318 237.783C49.1037 238.575 48.633 239.18 48.0199 239.597C47.4067 240.015 46.6726 240.224 45.8175 240.224ZM45.8175 238.439C46.4008 238.439 46.8665 238.146 47.2145 237.559C47.5625 236.972 47.7348 236.092 47.7315 234.919C47.7315 234.147 47.652 233.504 47.4929 232.99C47.3371 232.476 47.1151 232.09 46.8267 231.832C46.5417 231.573 46.2053 231.444 45.8175 231.444C45.2375 231.444 44.7734 231.734 44.4254 232.314C44.0774 232.894 43.9018 233.762 43.8984 234.919C43.8984 235.701 43.9763 236.354 44.1321 236.878C44.2912 237.398 44.5149 237.789 44.8033 238.051C45.0916 238.31 45.4297 238.439 45.8175 238.439Z" fill="#333333"/>
<rect x="21.5" y="173.5" width="369" height="90" rx="7.5" stroke="#F5F5F5"/>
<rect x="21.5" y="73.5" width="369" height="89" rx="7.5" fill="#FBFBFB"/>
<path d="M50.282 96.8182V107H49.3771L43.3615 98.4737H43.282V107H42.3523V96.8182H43.2521L49.2876 105.354H49.3672V96.8182H50.282ZM55.7731 107.159C55.1135 107.159 54.5302 106.992 54.0231 106.657C53.5193 106.322 53.1249 105.86 52.8398 105.27C52.5548 104.677 52.4123 103.992 52.4123 103.217C52.4123 102.434 52.5548 101.747 52.8398 101.153C53.1249 100.557 53.5193 100.093 54.0231 99.7614C54.5302 99.4266 55.1135 99.2592 55.7731 99.2592C56.4326 99.2592 57.0143 99.4266 57.5181 99.7614C58.0219 100.096 58.4163 100.56 58.7013 101.153C58.9897 101.747 59.1339 102.434 59.1339 103.217C59.1339 103.992 58.9914 104.677 58.7063 105.27C58.4213 105.86 58.0252 106.322 57.5181 106.657C57.0143 106.992 56.4326 107.159 55.7731 107.159ZM55.7731 106.349C56.3034 106.349 56.7525 106.206 57.1204 105.921C57.4883 105.636 57.7667 105.257 57.9556 104.783C58.1478 104.309 58.244 103.787 58.244 103.217C58.244 102.647 58.1478 102.123 57.9556 101.646C57.7667 101.168 57.4883 100.786 57.1204 100.497C56.7525 100.209 56.3034 100.065 55.7731 100.065C55.2461 100.065 54.797 100.209 54.4258 100.497C54.0579 100.786 53.7778 101.168 53.5856 101.646C53.3967 102.123 53.3022 102.647 53.3022 103.217C53.3022 103.787 53.3967 104.309 53.5856 104.783C53.7778 105.257 54.0579 105.636 54.4258 105.921C54.7937 106.206 55.2428 106.349 55.7731 106.349ZM61.7825 107.075C61.5869 107.075 61.4179 107.005 61.2754 106.866C61.1362 106.723 61.0666 106.554 61.0666 106.359C61.0666 106.16 61.1362 105.991 61.2754 105.852C61.4179 105.712 61.5869 105.643 61.7825 105.643C61.9814 105.643 62.1504 105.712 62.2896 105.852C62.4288 105.991 62.4984 106.16 62.4984 106.359C62.4984 106.488 62.4653 106.607 62.399 106.717C62.336 106.826 62.2498 106.914 62.1404 106.98C62.0344 107.043 61.9151 107.075 61.7825 107.075ZM71.7418 107.159C71.0823 107.159 70.4989 106.992 69.9918 106.657C69.488 106.322 69.0936 105.86 68.8086 105.27C68.5236 104.677 68.381 103.992 68.381 103.217C68.381 102.434 68.5236 101.747 68.8086 101.153C69.0936 100.557 69.488 100.093 69.9918 99.7614C70.4989 99.4266 71.0823 99.2592 71.7418 99.2592C72.4014 99.2592 72.9831 99.4266 73.4869 99.7614C73.9906 100.096 74.3851 100.56 74.6701 101.153C74.9585 101.747 75.1026 102.434 75.1026 103.217C75.1026 103.992 74.9601 104.677 74.6751 105.27C74.39 105.86 73.994 106.322 73.4869 106.657C72.9831 106.992 72.4014 107.159 71.7418 107.159ZM71.7418 106.349C72.2721 106.349 72.7212 106.206 73.0891 105.921C73.457 105.636 73.7354 105.257 73.9244 104.783C74.1166 104.309 74.2127 103.787 74.2127 103.217C74.2127 102.647 74.1166 102.123 73.9244 101.646C73.7354 101.168 73.457 100.786 73.0891 100.497C72.7212 100.209 72.2721 100.065 71.7418 100.065C71.2148 100.065 70.7657 100.209 70.3945 100.497C70.0266 100.786 69.7466 101.168 69.5543 101.646C69.3654 102.123 69.271 102.647 69.271 103.217C69.271 103.787 69.3654 104.309 69.5543 104.783C69.7466 105.257 70.0266 105.636 70.3945 105.921C70.7624 106.206 71.2115 106.349 71.7418 106.349ZM80.1873 99.3636V100.134H76.4338V99.3636H80.1873ZM77.6071 107V98.245C77.6071 97.834 77.7015 97.4877 77.8904 97.206C78.0827 96.9242 78.3329 96.7105 78.6412 96.5646C78.9494 96.4188 79.2759 96.3459 79.6206 96.3459C79.8526 96.3459 80.0448 96.3658 80.1973 96.4055C80.353 96.442 80.4757 96.4785 80.5652 96.5149L80.3066 97.2905C80.2404 97.2706 80.1592 97.2474 80.063 97.2209C79.9669 97.1944 79.8459 97.1811 79.7001 97.1811C79.3156 97.1811 79.019 97.2888 78.8102 97.5043C78.6014 97.7197 78.497 98.0279 78.497 98.429L78.492 107H77.6071ZM86.0898 107H85.1154L88.8192 96.8182H89.8136L93.5174 107H92.543L89.3512 98.0263H89.2816L86.0898 107ZM86.7908 103.097H91.842V103.933H86.7908V103.097ZM98.0614 107.159C97.3787 107.159 96.7837 106.988 96.2766 106.647C95.7728 106.306 95.3817 105.838 95.1033 105.245C94.8249 104.652 94.6857 103.976 94.6857 103.217C94.6857 102.451 94.8266 101.77 95.1083 101.173C95.3933 100.577 95.7878 100.109 96.2915 99.7713C96.7953 99.4299 97.3803 99.2592 98.0465 99.2592C98.5569 99.2592 99.0193 99.3587 99.4336 99.5575C99.8479 99.7531 100.189 100.03 100.458 100.388C100.73 100.742 100.9 101.157 100.97 101.631H100.075C99.9821 101.2 99.7584 100.832 99.4038 100.527C99.0524 100.219 98.605 100.065 98.0614 100.065C97.5742 100.065 97.1433 100.197 96.7688 100.462C96.3943 100.724 96.101 101.09 95.8888 101.561C95.68 102.028 95.5756 102.57 95.5756 103.187C95.5756 103.807 95.6784 104.355 95.8839 104.832C96.0894 105.306 96.3777 105.678 96.7489 105.946C97.1235 106.214 97.561 106.349 98.0614 106.349C98.3995 106.349 98.7077 106.286 98.9862 106.16C99.2679 106.031 99.5032 105.848 99.6921 105.613C99.8844 105.378 100.014 105.098 100.08 104.773H100.975C100.908 105.233 100.744 105.644 100.483 106.006C100.224 106.364 99.8877 106.645 99.4734 106.851C99.0624 107.056 98.5917 107.159 98.0614 107.159ZM105.854 107.159C105.172 107.159 104.577 106.988 104.07 106.647C103.566 106.306 103.175 105.838 102.896 105.245C102.618 104.652 102.479 103.976 102.479 103.217C102.479 102.451 102.62 101.77 102.901 101.173C103.186 100.577 103.581 100.109 104.085 99.7713C104.588 99.4299 105.173 99.2592 105.839 99.2592C106.35 99.2592 106.812 99.3587 107.227 99.5575C107.641 99.7531 107.982 100.03 108.251 100.388C108.522 100.742 108.693 101.157 108.763 101.631H107.868C107.775 101.2 107.551 100.832 107.197 100.527C106.845 100.219 106.398 100.065 105.854 100.065C105.367 100.065 104.936 100.197 104.562 100.462C104.187 100.724 103.894 101.09 103.682 101.561C103.473 102.028 103.369 102.57 103.369 103.187C103.369 103.807 103.471 104.355 103.677 104.832C103.882 105.306 104.171 105.678 104.542 105.946C104.916 106.214 105.354 106.349 105.854 106.349C106.192 106.349 106.501 106.286 106.779 106.16C107.061 106.031 107.296 105.848 107.485 105.613C107.677 105.378 107.807 105.098 107.873 104.773H108.768C108.701 105.233 108.537 105.644 108.276 106.006C108.017 106.364 107.681 106.645 107.266 106.851C106.855 107.056 106.385 107.159 105.854 107.159ZM113.632 107.159C112.973 107.159 112.39 106.992 111.882 106.657C111.379 106.322 110.984 105.86 110.699 105.27C110.414 104.677 110.272 103.992 110.272 103.217C110.272 102.434 110.414 101.747 110.699 101.153C110.984 100.557 111.379 100.093 111.882 99.7614C112.39 99.4266 112.973 99.2592 113.632 99.2592C114.292 99.2592 114.874 99.4266 115.377 99.7614C115.881 100.096 116.276 100.56 116.561 101.153C116.849 101.747 116.993 102.434 116.993 103.217C116.993 103.992 116.851 104.677 116.566 105.27C116.281 105.86 115.885 106.322 115.377 106.657C114.874 106.992 114.292 107.159 113.632 107.159ZM113.632 106.349C114.163 106.349 114.612 106.206 114.98 105.921C115.348 105.636 115.626 105.257 115.815 104.783C116.007 104.309 116.103 103.787 116.103 103.217C116.103 102.647 116.007 102.123 115.815 101.646C115.626 101.168 115.348 100.786 114.98 100.497C114.612 100.209 114.163 100.065 113.632 100.065C113.105 100.065 112.656 100.209 112.285 100.497C111.917 100.786 111.637 101.168 111.445 101.646C111.256 102.123 111.162 102.647 111.162 103.217C111.162 103.787 111.256 104.309 111.445 104.783C111.637 105.257 111.917 105.636 112.285 105.921C112.653 106.206 113.102 106.349 113.632 106.349ZM123.788 104.082V99.3636H124.673V107H123.788V105.732H123.719C123.54 106.123 123.256 106.45 122.868 106.712C122.481 106.97 122.007 107.099 121.447 107.099C120.959 107.099 120.527 106.993 120.149 106.781C119.771 106.566 119.474 106.251 119.259 105.837C119.044 105.422 118.936 104.914 118.936 104.31V99.3636H119.821V104.256C119.821 104.852 119.997 105.333 120.348 105.697C120.699 106.059 121.15 106.239 121.7 106.239C122.045 106.239 122.376 106.156 122.694 105.991C123.013 105.825 123.274 105.583 123.48 105.265C123.685 104.943 123.788 104.549 123.788 104.082ZM127.901 102.227V107H127.016V99.3636H127.876V100.562H127.956C128.135 100.171 128.413 99.8575 128.791 99.6222C129.172 99.3835 129.643 99.2642 130.203 99.2642C130.717 99.2642 131.167 99.3719 131.555 99.5874C131.946 99.7995 132.249 100.113 132.465 100.527C132.684 100.941 132.793 101.45 132.793 102.053V107H131.908V102.108C131.908 101.482 131.732 100.986 131.381 100.621C131.033 100.257 130.566 100.075 129.979 100.075C129.578 100.075 129.222 100.161 128.91 100.333C128.599 100.505 128.352 100.754 128.169 101.079C127.99 101.4 127.901 101.783 127.901 102.227ZM138.131 99.3636V100.134H134.487V99.3636H138.131ZM135.626 97.5341H136.515V105.006C136.515 105.325 136.57 105.575 136.68 105.757C136.789 105.936 136.931 106.064 137.107 106.14C137.283 106.213 137.47 106.249 137.669 106.249C137.785 106.249 137.884 106.243 137.967 106.229C138.05 106.213 138.123 106.196 138.186 106.18L138.375 106.98C138.289 107.013 138.183 107.043 138.057 107.07C137.931 107.099 137.775 107.114 137.589 107.114C137.265 107.114 136.951 107.043 136.65 106.901C136.351 106.758 136.106 106.546 135.914 106.264C135.722 105.982 135.626 105.633 135.626 105.215V97.5341Z" fill="#888888"/>
<path d="M369.405 96.8182V107H367.253V98.8615H367.193L364.861 100.323V98.4141L367.382 96.8182H369.405Z" fill="#333333"/>
<path d="M329.529 144.447C327.819 144.441 326.348 144.02 325.115 143.185C323.888 142.349 322.944 141.14 322.281 139.555C321.625 137.971 321.3 136.065 321.306 133.838C321.306 131.617 321.635 129.725 322.291 128.161C322.954 126.596 323.898 125.406 325.125 124.591C326.358 123.769 327.826 123.358 329.529 123.358C331.233 123.358 332.698 123.769 333.924 124.591C335.157 125.413 336.105 126.606 336.768 128.17C337.431 129.728 337.759 131.617 337.752 133.838C337.752 136.072 337.421 137.981 336.758 139.565C336.102 141.15 335.161 142.359 333.934 143.195C332.708 144.03 331.24 144.447 329.529 144.447ZM329.529 140.878C330.696 140.878 331.627 140.291 332.324 139.118C333.02 137.945 333.364 136.185 333.358 133.838C333.358 132.294 333.199 131.008 332.88 129.98C332.569 128.953 332.125 128.18 331.548 127.663C330.978 127.146 330.305 126.888 329.529 126.888C328.369 126.888 327.441 127.468 326.745 128.628C326.049 129.788 325.698 131.525 325.691 133.838C325.691 135.402 325.847 136.708 326.159 137.756C326.477 138.796 326.924 139.579 327.501 140.102C328.078 140.619 328.754 140.878 329.529 140.878Z" fill="#333333"/>
<path d="M351.801 135.273H353.647V140.94C353.647 141.577 353.495 142.134 353.191 142.611C352.89 143.088 352.468 143.46 351.925 143.727C351.382 143.991 350.75 144.124 350.029 144.124C349.304 144.124 348.671 143.991 348.128 143.727C347.586 143.46 347.164 143.088 346.863 142.611C346.561 142.134 346.411 141.577 346.411 140.94V135.273H348.256V140.783C348.256 141.115 348.328 141.411 348.473 141.669C348.621 141.928 348.828 142.131 349.096 142.278C349.363 142.426 349.674 142.5 350.029 142.5C350.387 142.5 350.698 142.426 350.962 142.278C351.229 142.131 351.435 141.928 351.58 141.669C351.728 141.411 351.801 141.115 351.801 140.783V135.273ZM359.899 137.783C359.865 137.439 359.719 137.172 359.46 136.982C359.202 136.791 358.851 136.696 358.408 136.696C358.107 136.696 357.852 136.739 357.645 136.824C357.438 136.906 357.278 137.021 357.168 137.169C357.06 137.317 357.006 137.484 357.006 137.672C357 137.828 357.033 137.964 357.104 138.081C357.178 138.197 357.278 138.298 357.406 138.384C357.534 138.466 357.682 138.538 357.849 138.601C358.017 138.661 358.196 138.712 358.386 138.754L359.17 138.942C359.551 139.027 359.901 139.141 360.219 139.283C360.537 139.425 360.813 139.599 361.045 139.807C361.278 140.014 361.459 140.259 361.587 140.54C361.717 140.821 361.784 141.143 361.787 141.507C361.784 142.041 361.648 142.504 361.378 142.896C361.111 143.286 360.724 143.588 360.219 143.804C359.716 144.017 359.109 144.124 358.399 144.124C357.695 144.124 357.081 144.016 356.558 143.8C356.038 143.584 355.632 143.264 355.339 142.841C355.05 142.415 354.898 141.888 354.884 141.26H356.669C356.689 141.553 356.773 141.797 356.92 141.993C357.071 142.186 357.271 142.332 357.521 142.432C357.774 142.528 358.06 142.577 358.378 142.577C358.69 142.577 358.962 142.531 359.192 142.44C359.425 142.349 359.605 142.223 359.733 142.061C359.861 141.899 359.925 141.713 359.925 141.503C359.925 141.307 359.866 141.142 359.75 141.009C359.636 140.875 359.469 140.761 359.247 140.668C359.028 140.574 358.76 140.489 358.442 140.412L357.491 140.173C356.756 139.994 356.175 139.714 355.749 139.334C355.322 138.953 355.111 138.44 355.114 137.795C355.111 137.267 355.251 136.805 355.536 136.411C355.822 136.016 356.216 135.707 356.716 135.486C357.216 135.264 357.784 135.153 358.42 135.153C359.068 135.153 359.634 135.264 360.116 135.486C360.602 135.707 360.98 136.016 361.25 136.411C361.52 136.805 361.659 137.263 361.668 137.783H359.899ZM366.122 144H363.028V135.273H366.147C367.025 135.273 367.781 135.447 368.414 135.797C369.048 136.143 369.535 136.642 369.876 137.293C370.22 137.943 370.392 138.722 370.392 139.628C370.392 140.537 370.22 141.318 369.876 141.972C369.535 142.625 369.045 143.126 368.406 143.476C367.77 143.825 367.008 144 366.122 144ZM364.873 142.419H366.045C366.591 142.419 367.049 142.322 367.422 142.129C367.797 141.933 368.078 141.631 368.265 141.222C368.456 140.81 368.551 140.278 368.551 139.628C368.551 138.983 368.456 138.456 368.265 138.047C368.078 137.638 367.798 137.337 367.426 137.143C367.054 136.95 366.595 136.854 366.049 136.854H364.873V142.419Z" fill="#888888"/>
<rect x="21.5" y="73.5" width="369" height="89" rx="7.5" stroke="#F5F5F5"/>
</svg>
