<svg width="24" height="25" viewBox="0 0 24 25" fill="none" xmlns="http://www.w3.org/2000/svg">
<g id="LOGO">
<path id="Vector" d="M23.8175 11.9978C23.8175 18.6276 18.4977 24.0044 11.9566 24.0044C5.41545 24.0044 0.0956421 18.6232 0.0956421 11.9978C0.0956421 5.37241 5.40242 0 11.9609 0C18.5194 0 23.8218 5.36802 23.8218 11.9978H23.8175Z" fill="white"/>
<path id="Vector_2" d="M11.9565 23.3975C18.2021 23.3975 23.2655 18.2757 23.2655 11.958C23.2655 5.64037 18.1977 0.518555 11.9522 0.518555C5.70661 0.518555 0.651917 5.64477 0.651917 11.958C0.651917 18.2713 5.71095 23.3975 11.9565 23.3975Z" fill="#007BC7"/>
<g id="Clip path group">
<mask id="mask0_22_2959" style="mask-type:luminance" maskUnits="userSpaceOnUse" x="0" y="0" width="24" height="24">
<g id="clippath-1">
<path id="Vector_3" d="M11.9565 23.3975C18.2021 23.3975 23.2655 18.2757 23.2655 11.958C23.2655 5.64037 18.1977 0.518555 11.9522 0.518555C5.70661 0.518555 0.651917 5.64477 0.651917 11.958C0.651917 18.2713 5.71095 23.3975 11.9565 23.3975Z" fill="white"/>
</g>
</mask>
<g mask="url(#mask0_22_2959)">
<g id="Group">
<g id="Group_2">
<path id="Vector_4" d="M12.0043 17.1457C16.9678 17.1457 21.2314 18.5438 23.0569 20.5354C23.661 19.1197 24 17.5458 24 15.9104C24 9.34651 18.6237 4.02686 12.0043 4.02686C5.38501 4.02686 0 9.34211 0 15.9104C0 17.5546 0.343354 19.1197 0.951829 20.5354C2.77291 18.5482 7.03658 17.1457 12.0043 17.1457Z" fill="#007BC7"/>
<path id="Vector_5" d="M12.0043 17.1589C16.9547 17.1589 21.2097 18.5482 23.0308 20.5177C23.6349 19.1109 23.9695 17.5546 23.9695 15.9279C23.9695 9.41681 18.6106 4.12354 12.0043 4.12354C5.39802 4.12354 0.0303955 9.42121 0.0303955 15.9323C0.0303955 17.5634 0.369403 19.1153 0.977878 20.5221C2.79461 18.5482 7.04525 17.1633 12.0043 17.1633V17.1589Z" fill="#007DC8"/>
<path id="Vector_6" d="M12 17.172C16.9417 17.172 21.1836 18.5481 22.996 20.5045C23.6001 19.1109 23.9348 17.5633 23.9348 15.9542C23.9348 9.4959 18.5889 4.229 12 4.229C5.41109 4.229 0.0608521 9.4959 0.0608521 15.9542C0.0608521 17.5721 0.39986 19.1109 1.00833 20.5045C2.82072 18.5481 7.06266 17.172 12.0044 17.172H12Z" fill="#007ECA"/>
<path id="Vector_7" d="M12 17.1852C16.9286 17.1852 21.1575 18.5525 22.9699 20.4913C23.5697 19.1108 23.9044 17.5765 23.9044 15.9762C23.9044 9.5706 18.5715 4.33008 12 4.33008C5.42846 4.33008 0.0869141 9.5706 0.0869141 15.9762C0.0869141 17.5809 0.425922 19.1064 1.03005 20.4913C2.83809 18.5525 7.06699 17.1852 12 17.1852Z" fill="#0080CB"/>
<path id="Vector_8" d="M11.9957 17.1983C16.9113 17.1983 21.1315 18.5524 22.9352 20.478C23.535 19.1064 23.8696 17.5852 23.8696 16.0025C23.8696 9.64969 18.5498 4.43555 11.9957 4.43555C5.44153 4.43555 0.117371 9.64529 0.117371 15.9981C0.117371 17.5896 0.456378 19.102 1.05616 20.4736C2.85551 18.548 7.08006 17.1939 11.9957 17.1939V17.1983Z" fill="#0082CC"/>
<path id="Vector_9" d="M11.9956 17.2115C16.8982 17.2115 21.1054 18.5524 22.9091 20.4604C23.5089 19.1019 23.8392 17.594 23.8392 16.02C23.8392 9.71999 18.5324 4.53223 11.9956 4.53223C5.45889 4.53223 0.147766 9.71999 0.147766 16.02C0.147766 17.5984 0.482428 19.1019 1.08656 20.4604C2.88156 18.5524 7.09308 17.2115 12 17.2115H11.9956Z" fill="#0084CD"/>
<path id="Vector_10" d="M11.9957 17.2251C16.8852 17.2251 21.0837 18.5572 22.8787 20.4477C23.4741 19.098 23.8088 17.6032 23.8088 16.0469C23.8088 9.79957 18.5194 4.63818 11.9957 4.63818C5.47196 4.63818 0.178223 9.79517 0.178223 16.0425C0.178223 17.6076 0.512884 19.098 1.11267 20.4433C2.90332 18.5528 7.1018 17.2207 11.9957 17.2207V17.2251Z" fill="#0086CF"/>
<path id="Vector_11" d="M11.9913 17.2382C16.8678 17.2382 21.0576 18.5572 22.8483 20.4344C23.4437 19.0979 23.774 17.6163 23.774 16.0688C23.774 9.87426 18.4977 4.73926 11.9913 4.73926C5.48498 4.73926 0.204285 9.86987 0.204285 16.0688C0.204285 17.6207 0.538946 19.0979 1.13873 20.4344C2.92504 18.5572 7.11482 17.2382 11.9913 17.2382Z" fill="#0088D0"/>
<path id="Vector_12" d="M11.9913 17.247C16.8547 17.247 21.0315 18.5571 22.8178 20.4168C23.4132 19.0891 23.7436 17.6207 23.7436 16.0863C23.7436 9.94457 18.4802 4.83594 11.9913 4.83594C5.50234 4.83594 0.23468 9.94456 0.23468 16.0907C0.23468 17.6295 0.569342 19.0935 1.16478 20.4212C2.94674 18.5615 7.12349 17.2514 11.9913 17.2514V17.247Z" fill="#008AD1"/>
<path id="Vector_13" d="M11.987 17.2601C16.8374 17.2601 21.0054 18.5571 22.7874 20.4036C23.3828 19.0891 23.7088 17.6338 23.7088 16.1127C23.7088 10.0237 18.4585 4.94141 11.987 4.94141C5.51541 4.94141 0.265137 10.0237 0.265137 16.1127C0.265137 17.6382 0.595452 19.0891 1.19089 20.4036C2.96851 18.5571 7.13656 17.2601 11.987 17.2601Z" fill="#008CD3"/>
<path id="Vector_14" d="M11.9869 17.2733C16.8243 17.2733 20.9793 18.557 22.757 20.386C23.348 19.0846 23.6784 17.6382 23.6784 16.1302C23.6784 10.094 18.4455 5.03809 11.9869 5.03809C5.52842 5.03809 0.295532 10.0984 0.295532 16.1346C0.295532 17.647 0.625847 19.0846 1.22128 20.3903C2.99455 18.5614 7.14957 17.2777 11.9913 17.2777L11.9869 17.2733Z" fill="#008ED4"/>
<path id="Vector_15" d="M11.9869 17.2864C16.8113 17.2864 20.9576 18.5614 22.7309 20.3727C23.322 19.0802 23.6479 17.6513 23.6479 16.1566C23.6479 10.173 18.4281 5.14355 11.9869 5.14355C5.54579 5.14355 0.321594 10.173 0.321594 16.1566C0.321594 17.6557 0.651909 19.0846 1.243 20.3727C3.01192 18.5614 7.15825 17.2864 11.9826 17.2864H11.9869Z" fill="#0090D5"/>
<path id="Vector_16" d="M11.9826 17.2996C16.7939 17.2996 20.9316 18.5614 22.6961 20.3595C23.2872 19.0801 23.6132 17.6601 23.6132 16.1785C23.6132 10.2477 18.4064 5.24463 11.9826 5.24463C5.55886 5.24463 0.352051 10.2477 0.352051 16.1785C0.352051 17.6645 0.682366 19.0801 1.27346 20.3595C3.03803 18.5614 7.17132 17.2996 11.987 17.2996H11.9826Z" fill="#0092D7"/>
<path id="Vector_17" d="M11.9826 17.3127C16.7852 17.3127 20.9054 18.5657 22.67 20.3463C23.2568 19.0757 23.5827 17.6732 23.5827 16.2048C23.5827 10.3268 18.389 5.3501 11.9826 5.3501C5.57622 5.3501 0.382446 10.3224 0.382446 16.2004C0.382446 17.6732 0.708415 19.0757 1.29951 20.3419C3.05974 18.5613 7.17998 17.3083 11.9826 17.3083V17.3127Z" fill="#0094D8"/>
<path id="Vector_18" d="M11.9783 17.3259C16.7678 17.3259 20.8794 18.5657 22.6353 20.333C23.222 19.0756 23.548 17.682 23.548 16.2268C23.548 10.4015 18.3673 5.45117 11.9783 5.45117C5.58929 5.45117 0.412903 10.3971 0.412903 16.2224C0.412903 17.682 0.738872 19.0712 1.32562 20.3286C3.0815 18.5613 7.19305 17.3215 11.9826 17.3215L11.9783 17.3259Z" fill="#0097D9"/>
<path id="Vector_19" d="M11.9783 17.339C16.7548 17.339 20.8533 18.5656 22.6048 20.3154C23.1916 19.0712 23.5132 17.6907 23.5132 16.2443C23.5132 10.4718 18.3499 5.54785 11.9739 5.54785C5.59796 5.54785 0.438965 10.4718 0.438965 16.2487C0.438965 17.6951 0.764934 19.0712 1.35168 20.3198C3.10322 18.57 7.20173 17.3434 11.9783 17.3434V17.339Z" fill="#0099DB"/>
<path id="Vector_20" d="M11.9783 17.3522C16.7418 17.3522 20.8316 18.57 22.5788 20.3022C23.1612 19.0668 23.4872 17.6995 23.4872 16.2706C23.4872 10.5509 18.3369 5.65332 11.9783 5.65332C5.61973 5.65332 0.469421 10.5465 0.469421 16.2706C0.469421 17.7039 0.79539 19.0668 1.37779 20.3022C3.12498 18.57 7.2148 17.3522 11.9739 17.3522H11.9783Z" fill="#009BDC"/>
<path id="Vector_21" d="M11.9739 17.3658C16.7244 17.3658 20.8055 18.5704 22.544 20.2894C23.1264 19.0672 23.448 17.7131 23.448 16.2931C23.448 10.6261 18.3108 5.75488 11.9696 5.75488C5.62839 5.75488 0.499817 10.6261 0.499817 16.2931C0.499817 17.7131 0.82144 19.0628 1.40818 20.2894C3.14668 18.5704 7.22781 17.3658 11.9783 17.3658H11.9739Z" fill="#009DDD"/>
<path id="Vector_22" d="M11.9739 17.3746C16.7113 17.3746 20.7794 18.5704 22.5179 20.2718C23.1003 19.0584 23.4219 17.7175 23.4219 16.315C23.4219 10.7008 18.2977 5.85596 11.9739 5.85596C5.6501 5.85596 0.530212 10.7008 0.530212 16.315C0.530212 17.7219 0.851835 19.0628 1.43423 20.2718C3.16839 18.5704 7.23648 17.3746 11.9739 17.3746Z" fill="#009FDF"/>
<path id="Vector_23" d="M11.9696 17.3877C16.694 17.3877 20.7534 18.5703 22.4832 20.2542C23.0612 19.0539 23.3828 17.7262 23.3828 16.3326C23.3828 10.7711 18.2717 5.95264 11.9652 5.95264C5.65883 5.95264 0.556335 10.7755 0.556335 16.337C0.556335 17.7306 0.877958 19.0583 1.45601 20.2586C3.18582 18.5703 7.24522 17.3921 11.9696 17.3921V17.3877Z" fill="#00A2E0"/>
<path id="Vector_24" d="M11.9696 17.4008C16.6809 17.4008 20.7273 18.5703 22.4571 20.2409C23.0351 19.0539 23.3567 17.735 23.3567 16.3589C23.3567 10.8502 18.2629 6.05811 11.9696 6.05811C5.67619 6.05811 0.586731 10.8502 0.586731 16.3589C0.586731 17.7394 0.908354 19.0539 1.48641 20.2409C3.21187 18.5703 7.25823 17.4008 11.9696 17.4008Z" fill="#00A4E1"/>
<path id="Vector_25" d="M11.9696 17.414C16.6679 17.414 20.7056 18.5746 22.4267 20.2277C23.0047 19.0495 23.322 17.7437 23.322 16.3808C23.322 10.9249 18.2412 6.15918 11.9696 6.15918C5.69796 6.15918 0.617188 10.9249 0.617188 16.3808C0.617188 17.7481 0.93881 19.0495 1.51252 20.2277C3.23363 18.5746 7.2713 17.414 11.9696 17.414Z" fill="#00A6E3"/>
<path id="Vector_26" d="M11.9652 17.4271C16.6505 17.4271 20.6795 18.5746 22.3962 20.2145C22.9743 19.0494 23.2916 17.7569 23.2916 16.4072C23.2916 11.004 18.2238 6.26465 11.9696 6.26465C5.71531 6.26465 0.647583 10.9996 0.647583 16.4072C0.647583 17.7613 0.964859 19.0494 1.53856 20.2145C3.25533 18.5746 7.27996 17.4271 11.9652 17.4271Z" fill="#00A9E4"/>
<path id="Vector_27" d="M11.9652 17.4403C16.6418 17.4403 20.6534 18.5789 22.3658 20.2012C22.9395 19.045 23.2568 17.7656 23.2568 16.4291C23.2568 11.0787 18.2021 6.36572 11.9652 6.36572C5.72834 6.36572 0.673645 11.0743 0.673645 16.4291C0.673645 17.77 0.990921 19.045 1.56463 20.2012C3.27705 18.5789 7.29299 17.4403 11.9652 17.4403Z" fill="#00ABE5"/>
<path id="Vector_28" d="M11.9609 17.4534C16.6244 17.4534 20.6273 18.5789 22.3354 20.1836C22.9091 19.0405 23.2264 17.7744 23.2264 16.4466C23.2264 11.149 18.1847 6.4624 11.9652 6.4624C5.74575 6.4624 0.704102 11.1534 0.704102 16.451C0.704102 17.7788 1.02138 19.0449 1.59074 20.188C3.29881 18.5789 7.30171 17.4578 11.9609 17.4578V17.4534Z" fill="#00ADE7"/>
<path id="Vector_29" d="M11.9609 17.4666C16.6114 17.4666 20.6012 18.5789 22.3049 20.1704C22.8786 19.0405 23.1916 17.7831 23.1916 16.473C23.1916 11.2281 18.1673 6.56787 11.9609 6.56787C5.75442 6.56787 0.734497 11.2281 0.734497 16.473C0.734497 17.7875 1.05177 19.0405 1.62113 20.1704C3.32486 18.5789 7.31472 17.4666 11.9609 17.4666Z" fill="#00B0E8"/>
<path id="Vector_30" d="M11.9609 17.4797C16.5983 17.4797 20.5795 18.5832 22.2789 20.1571C22.8483 19.036 23.1655 17.7963 23.1655 16.4949C23.1655 11.3028 18.1543 6.66895 11.9652 6.66895C5.77618 6.66895 0.764954 11.3028 0.764954 16.4949C0.764954 17.7963 1.07788 19.036 1.64724 20.1571C3.34663 18.5832 7.32779 17.4797 11.9609 17.4797Z" fill="#00B2EA"/>
<path id="Vector_31" d="M11.9565 17.4929C16.5809 17.4929 20.5534 18.5832 22.2441 20.1439C22.8135 19.036 23.1264 17.805 23.1264 16.5213C23.1264 11.3819 18.1282 6.77441 11.9565 6.77441C5.78486 6.77441 0.791016 11.3775 0.791016 16.5169C0.791016 17.805 1.10395 19.0316 1.66896 20.1395C3.364 18.5788 7.33212 17.4885 11.9522 17.4885L11.9565 17.4929Z" fill="#0FB5EB"/>
<path id="Vector_32" d="M11.9565 17.506C16.5679 17.506 20.5273 18.5831 22.218 20.1307C22.7874 19.0316 23.1003 17.8182 23.1003 16.5432C23.1003 11.4565 18.1151 6.87549 11.9609 6.87549C5.80656 6.87549 0.821411 11.4522 0.821411 16.5388C0.821411 17.8138 1.13434 19.0272 1.69935 20.1263C3.39005 18.5831 7.34948 17.5016 11.9565 17.5016V17.506Z" fill="#1DB7EC"/>
<path id="Vector_33" d="M11.9522 17.5152C16.5505 17.5152 20.5013 18.5836 22.1833 20.1091C22.7483 19.0232 23.0612 17.8186 23.0612 16.5612C23.0612 11.5273 18.0891 6.97266 11.9522 6.97266C5.81529 6.97266 0.851868 11.5273 0.851868 16.5612C0.851868 17.823 1.1648 19.0232 1.72546 20.1091C3.40746 18.5836 7.35821 17.5152 11.9522 17.5152Z" fill="#27BAEE"/>
<path id="Vector_34" d="M11.9522 17.5284C16.5375 17.5284 20.4752 18.5835 22.1572 20.0959C22.7222 19.0232 23.0351 17.8317 23.0351 16.5832C23.0351 11.602 18.0804 7.07373 11.9565 7.07373C5.83264 7.07373 0.882263 11.602 0.882263 16.5876C0.882263 17.8361 1.19085 19.0232 1.75586 20.1003C3.43351 18.5879 7.37122 17.5328 11.9565 17.5328L11.9522 17.5284Z" fill="#2FBCEF"/>
<path id="Vector_35" d="M11.9522 17.5415C16.5245 17.5415 20.4535 18.5879 22.1268 20.0827C22.6918 19.0187 23.0004 17.8405 23.0004 16.6095C23.0004 11.6811 18.0587 7.1748 11.9522 7.1748C5.84573 7.1748 0.908386 11.6767 0.908386 16.6095C0.908386 17.8449 1.21697 19.0231 1.77764 20.0827C3.45094 18.5879 7.37995 17.5415 11.9479 17.5415H11.9522Z" fill="#37BEF0"/>
<path id="Vector_36" d="M11.9522 17.5723C16.5201 17.5723 20.4405 18.6098 22.1138 20.0958C22.6788 19.0407 22.9874 17.8712 22.9874 16.6446C22.9874 11.747 18.05 7.27148 11.9522 7.27148C5.85443 7.27148 0.925781 11.747 0.925781 16.6446C0.925781 17.8712 1.23437 19.0407 1.79503 20.0958C3.46834 18.6098 7.38866 17.5723 11.9522 17.5723Z" fill="#45C0F0"/>
<path id="Vector_37" d="M11.9522 17.5986C16.5114 17.5986 20.4317 18.6318 22.1007 20.109C22.6613 19.0582 22.9699 17.8976 22.9699 16.6798C22.9699 11.8129 18.0413 7.36377 11.9522 7.36377C5.86308 7.36377 0.938782 11.8129 0.938782 16.6798C0.938782 17.8976 1.24737 19.0626 1.80369 20.109C3.47265 18.6318 7.38862 17.603 11.9478 17.5986H11.9522Z" fill="#50C2F1"/>
<path id="Vector_38" d="M11.9522 17.6293C16.5071 17.6293 20.4187 18.6537 22.0877 20.1221C22.6483 19.0802 22.9569 17.9239 22.9569 16.7149C22.9569 11.8832 18.0369 7.45605 11.9522 7.45605C5.86744 7.45605 0.956177 11.8788 0.956177 16.7149C0.956177 17.9239 1.26476 19.0802 1.82108 20.1221C3.49004 18.6537 7.40167 17.6293 11.9522 17.6293Z" fill="#5BC4F1"/>
<path id="Vector_39" d="M11.9522 17.6601C16.4984 17.6601 20.4057 18.68 22.0703 20.1353C22.631 19.0977 22.9395 17.9502 22.9395 16.75C22.9395 11.9491 18.0239 7.54834 11.9522 7.54834C5.8805 7.54834 0.969238 11.9491 0.969238 16.75C0.969238 17.9546 1.27782 19.0977 1.83414 20.1353C3.49876 18.68 7.40604 17.6601 11.9522 17.6601Z" fill="#64C7F2"/>
<path id="Vector_40" d="M11.9522 17.6864C16.494 17.6864 20.3926 18.6976 22.0572 20.1484C22.6179 19.1197 22.9264 17.981 22.9264 16.7852C22.9264 12.0151 18.0195 7.64062 11.9522 7.64062C5.8848 7.64062 0.986572 12.0151 0.986572 16.7852C0.986572 17.981 1.29516 19.1197 1.85148 20.1484C3.51609 18.702 7.41468 17.6908 11.9565 17.6864H11.9522Z" fill="#6DC9F3"/>
<path id="Vector_41" d="M11.9522 17.7172C16.4897 17.7172 20.3839 18.7239 22.0442 20.1616C22.6005 19.1416 22.9091 18.0073 22.9091 16.8203C22.9091 12.081 18.0065 7.7373 11.9522 7.7373C5.89786 7.7373 0.999634 12.081 0.999634 16.8203C0.999634 18.0073 1.30387 19.1372 1.86019 20.1616C3.52046 18.7239 7.41905 17.7172 11.9522 17.7172Z" fill="#75CBF3"/>
<path id="Vector_42" d="M11.9522 17.7435C16.481 17.7435 20.3709 18.7415 22.0312 20.1703C22.5875 19.1547 22.8961 18.0293 22.8961 16.851C22.8961 12.1469 18.0022 7.8252 11.9522 7.8252C5.90223 7.8252 1.0127 12.1513 1.0127 16.8554C1.0127 18.0337 1.31693 19.1591 1.87325 20.1747C3.53352 18.7459 7.42342 17.7479 11.9479 17.7479L11.9522 17.7435Z" fill="#7DCDF4"/>
<path id="Vector_43" d="M11.9522 17.7742C16.4767 17.7742 20.3579 18.7678 22.0138 20.1835C22.5701 19.1767 22.8787 18.0556 22.8787 16.8862C22.8787 12.2128 17.9892 7.91748 11.9522 7.91748C5.91528 7.91748 1.03009 12.2172 1.03009 16.8906C1.03009 18.06 1.33433 19.1767 1.89065 20.1879C3.54657 18.7678 7.43212 17.7786 11.9522 17.7786V17.7742Z" fill="#84D0F4"/>
<path id="Vector_44" d="M11.9522 17.805C16.4679 17.805 20.3491 18.7898 22.0007 20.201C22.557 19.1986 22.8613 18.0907 22.8613 16.9257C22.8613 12.2831 17.9804 8.01416 11.9478 8.01416C5.91524 8.01416 1.04309 12.2831 1.04309 16.9257C1.04309 18.0907 1.34733 19.1986 1.90365 20.201C3.55957 18.7898 7.43643 17.8094 11.9522 17.805Z" fill="#8BD2F5"/>
<path id="Vector_45" d="M11.9522 17.8318C16.4636 17.8318 20.3361 18.8122 21.9877 20.2102C22.5397 19.2167 22.8482 18.1132 22.8482 16.9613C22.8482 12.3539 17.9717 8.10693 11.9522 8.10693C5.93263 8.10693 1.06049 12.3495 1.06049 16.9613C1.06049 18.1176 1.36472 19.2167 1.9167 20.2102C3.56827 18.8122 7.44513 17.8318 11.9522 17.8318Z" fill="#92D4F5"/>
<path id="Vector_46" d="M11.9522 17.8625C16.4549 17.8625 20.3231 18.8341 21.9747 20.2234C22.5266 19.2342 22.8352 18.1395 22.8352 16.9964C22.8352 12.4198 17.9674 8.19922 11.9522 8.19922C5.937 8.19922 1.07355 12.4198 1.07355 16.9964C1.07355 18.1439 1.37778 19.2386 1.92976 20.2234C3.58133 18.8341 7.4495 17.8625 11.9522 17.8625Z" fill="#99D6F6"/>
<path id="Vector_47" d="M11.9522 17.8889C16.4505 17.8889 20.31 18.8561 21.9616 20.2365C22.5136 19.2561 22.8178 18.1702 22.8178 17.0316C22.8178 12.4857 17.9587 8.2959 11.9522 8.2959C5.94564 8.2959 1.09088 12.4857 1.09088 17.0316C1.09088 18.1702 1.39512 19.2561 1.94709 20.2365C3.59432 18.8561 7.45814 17.8933 11.9565 17.8889H11.9522Z" fill="#9FD9F7"/>
<path id="Vector_48" d="M11.9522 17.9196C16.4419 17.9196 20.3013 18.878 21.9442 20.2497C22.4962 19.2737 22.8004 18.1966 22.8004 17.0667C22.8004 12.556 17.9457 8.38818 11.9478 8.38818C5.95001 8.38818 1.10394 12.5516 1.10394 17.0667C1.10394 18.1966 1.40383 19.2781 1.95581 20.2497C3.60304 18.878 7.46251 17.9196 11.9522 17.9196Z" fill="#A5DBF7"/>
<path id="Vector_49" d="M11.9565 17.9459C16.4419 17.9459 20.2927 18.9 21.9355 20.2585C22.4875 19.2912 22.7917 18.2185 22.7917 17.0974C22.7917 12.6175 17.9457 8.47607 11.9565 8.47607C5.96741 8.47607 1.12134 12.6219 1.12134 17.1018C1.12134 18.2273 1.42123 19.2956 1.9732 20.2628C3.61609 18.9 7.47121 17.9503 11.9565 17.9503V17.9459Z" fill="#ABDDF8"/>
<path id="Vector_50" d="M11.9566 17.9767C16.4332 17.9767 20.2796 18.9219 21.9225 20.276C22.4701 19.3176 22.7787 18.2493 22.7787 17.137C22.7787 12.6878 17.937 8.57275 11.9566 8.57275C5.97612 8.57275 1.1344 12.6878 1.1344 17.137C1.1344 18.2536 1.43429 19.3176 1.98626 20.276C3.62915 18.9263 7.47558 17.9811 11.9566 17.9767Z" fill="#B1DFF8"/>
<path id="Vector_51" d="M11.9565 18.0074C16.4288 18.0074 20.2709 18.9482 21.9094 20.2891C22.4571 19.3351 22.7613 18.28 22.7613 17.1721C22.7613 12.7537 17.9283 8.66504 11.9565 8.66504C5.98477 8.66504 1.15173 12.7537 1.15173 17.1721C1.15173 18.28 1.45162 19.3351 2.0036 20.2891C3.64214 18.9482 7.48422 18.0118 11.9565 18.0074Z" fill="#B7E1F9"/>
<path id="Vector_52" d="M11.9565 18.0337C16.4245 18.0337 20.2579 18.9658 21.8964 20.2979C22.444 19.3527 22.7483 18.3019 22.7483 17.2028C22.7483 12.8196 17.9196 8.75732 11.9565 8.75732C5.99348 8.75732 1.16479 12.824 1.16479 17.2072C1.16479 18.3063 1.46469 19.3527 2.01231 20.3023C3.65085 18.9702 7.48859 18.0381 11.9522 18.0381L11.9565 18.0337Z" fill="#BCE4F9"/>
<path id="Vector_53" d="M11.9566 18.0645C16.4158 18.0645 20.2449 18.9921 21.8791 20.3154C22.4267 19.3746 22.7309 18.3327 22.7309 17.2424C22.7309 12.8899 17.9109 8.854 11.9566 8.854C6.0022 8.854 1.17786 12.8899 1.17786 17.2424C1.17786 18.3327 1.47775 19.3746 2.02538 20.3154C3.65957 18.9921 7.49296 18.0689 11.9522 18.0645H11.9566Z" fill="#C1E6FA"/>
<path id="Vector_54" d="M11.9565 18.0908C16.4114 18.0908 20.2361 19.0097 21.866 20.3242C22.4092 19.3922 22.7135 18.3546 22.7135 17.2731C22.7135 12.9514 17.8978 8.94189 11.9522 8.94189C6.00649 8.94189 1.19519 12.9558 1.19519 17.2775C1.19519 18.3634 1.49508 19.3922 2.04271 20.3286C3.6769 19.0141 7.5016 18.0996 11.9565 18.0952V18.0908Z" fill="#C7E8FA"/>
<path id="Vector_55" d="M11.9565 18.1216C16.4027 18.1216 20.2231 19.036 21.8529 20.3373C22.3962 19.4097 22.7005 18.3853 22.7005 17.3126C22.7005 13.0261 17.8935 9.03857 11.9565 9.03857C6.01955 9.03857 1.20825 13.0217 1.20825 17.3126C1.20825 18.3897 1.5038 19.4141 2.05577 20.3373C3.68562 19.036 7.50597 18.1216 11.9565 18.1216Z" fill="#CCEAFB"/>
<path id="Vector_56" d="M11.9565 18.1523C16.3984 18.1523 20.2101 19.0579 21.8399 20.3549C22.3832 19.436 22.6874 18.4161 22.6874 17.3521C22.6874 13.0964 17.8892 9.13525 11.9609 9.13525C6.0326 9.13525 1.22565 13.092 1.22565 17.3477C1.22565 18.4161 1.52119 19.4316 2.06882 20.3505C3.69866 19.058 7.51467 18.1523 11.9565 18.1479V18.1523Z" fill="#D1ECFB"/>
<path id="Vector_57" d="M11.9566 18.1791C16.3897 18.1791 20.1971 19.0804 21.8269 20.3641C22.3702 19.4497 22.6701 18.4385 22.6701 17.3834C22.6701 13.1584 17.8762 9.22363 11.9566 9.22363C6.03697 9.22363 1.23871 13.1584 1.23871 17.3834C1.23871 18.4429 1.53425 19.4541 2.08188 20.3641C3.70738 19.0804 7.51904 18.1835 11.9566 18.1791Z" fill="#D6EEFB"/>
<path id="Vector_58" d="M11.9565 18.2099C16.3853 18.2099 20.1883 19.1023 21.8095 20.3773C22.3484 19.4716 22.6526 18.4692 22.6526 17.4185C22.6526 13.2287 17.8674 9.32031 11.9565 9.32031C6.04561 9.32031 1.25604 13.2243 1.25604 17.4185C1.25604 18.4736 1.55159 19.4716 2.09922 20.3773C3.72471 19.1023 7.52768 18.2142 11.9609 18.2099H11.9565Z" fill="#DBF0FC"/>
<path id="Vector_59" d="M11.9565 18.2362C16.3767 18.2362 20.1753 19.1243 21.7965 20.386C22.3354 19.4892 22.6396 18.4912 22.6396 17.4492C22.6396 13.2902 17.8587 9.4082 11.9565 9.4082C6.05433 9.4082 1.2691 13.2946 1.2691 17.4536C1.2691 18.5 1.56465 19.4936 2.10793 20.3904C3.72908 19.1243 7.53205 18.2406 11.9565 18.2406V18.2362Z" fill="#E0F2FC"/>
<path id="Vector_60" d="M11.9565 18.2669C16.3723 18.2669 20.1623 19.1462 21.7834 20.4036C22.3224 19.5111 22.6222 18.5219 22.6222 17.4888C22.6222 13.3605 17.8501 9.50488 11.9565 9.50488C6.06303 9.50488 1.2865 13.3605 1.2865 17.4888C1.2865 18.5263 1.58204 19.5111 2.12533 20.4036C3.74648 19.1506 7.54075 18.2713 11.9565 18.2669Z" fill="#E5F4FD"/>
<path id="Vector_61" d="M11.9565 18.2977C16.3636 18.2977 20.1535 19.1725 21.7703 20.4167C22.3093 19.5331 22.6092 18.5483 22.6092 17.5239C22.6092 13.4264 17.8413 9.59717 11.9565 9.59717C6.07168 9.59717 1.2995 13.4264 1.2995 17.5239C1.2995 18.5527 1.59504 19.5331 2.13833 20.4167C3.75513 19.1725 7.54506 18.3021 11.9565 18.2977Z" fill="#E9F6FD"/>
<path id="Vector_62" d="M11.9565 18.324C16.3593 18.324 20.1405 19.1901 21.7573 20.4255C22.2919 19.5462 22.5962 18.5746 22.5962 17.5546C22.5962 13.4923 17.837 9.68506 11.9609 9.68506C6.08474 9.68506 1.31256 13.4923 1.31256 17.559C1.31256 18.579 1.60811 19.5506 2.15139 20.4299C3.76819 19.1945 7.54943 18.3284 11.9565 18.3284V18.324Z" fill="#EEF8FE"/>
<path id="Vector_63" d="M11.9565 18.3547C16.3549 18.3547 20.1275 19.2164 21.74 20.443C22.2745 19.5725 22.5788 18.6053 22.5788 17.5942C22.5788 13.5626 17.824 9.78613 11.9565 9.78613C6.0891 9.78613 1.32996 13.5626 1.32996 17.5942C1.32996 18.6097 1.62115 19.5681 2.16444 20.443C3.7769 19.2164 7.55813 18.3591 11.9565 18.3547Z" fill="#F2FAFE"/>
<path id="Vector_64" d="M11.9609 18.3811C16.3506 18.3811 20.1232 19.234 21.7313 20.4518C22.2659 19.5857 22.5658 18.6273 22.5658 17.6249C22.5658 13.6242 17.8197 9.87402 11.9609 9.87402C6.10216 9.87402 1.34302 13.6286 1.34302 17.6293C1.34302 18.6361 1.63422 19.5901 2.1775 20.4562C3.78996 19.2384 7.5625 18.3899 11.9566 18.3855L11.9609 18.3811Z" fill="#F7FCFE"/>
<path id="Vector_65" d="M11.9609 18.4118C16.3462 18.4118 20.1101 19.2603 21.7182 20.4649C22.2528 19.6076 22.5527 18.658 22.5527 17.66C22.5527 13.6945 17.8109 9.96631 11.9609 9.96631C6.1108 9.96631 1.36035 13.6945 1.36035 17.6644C1.36035 18.6624 1.65155 19.6076 2.19483 20.4693C3.80294 19.2647 7.57114 18.4206 11.9609 18.4162V18.4118Z" fill="#FBFDFF"/>
<path id="Vector_66" d="M11.9609 18.4425C16.3376 18.4425 20.0971 19.2823 21.7052 20.4825C22.2398 19.6296 22.5397 18.6887 22.5397 17.7039C22.5397 13.7692 17.8066 10.0674 11.9652 10.0674C6.12387 10.0674 1.37341 13.7648 1.37341 17.6995C1.37341 18.6887 1.66461 19.6296 2.20789 20.4781C3.81601 19.2823 7.57986 18.4425 11.9609 18.4381V18.4425Z" fill="white"/>
</g>
</g>
</g>
</g>
<path id="Vector_67" d="M11.9522 14.8467C8.12312 14.8467 4.56789 15.5061 1.62982 16.6184C3.39005 20.6148 7.34949 23.3977 11.9565 23.3977C16.5635 23.3977 20.5273 20.606 22.2876 16.6184C19.3538 15.5017 15.7899 14.8467 11.9522 14.8467Z" fill="#007BC7"/>
</g>
</svg>
