<svg width="143" height="24" viewBox="0 0 143 24" fill="none" xmlns="http://www.w3.org/2000/svg">
<path d="M42.1498 5.04091L39.3608 12.4306L38.2699 5.05252L35.5853 5.06414L31.6822 12.4577L31.7054 5.07575L28.3632 5.09123L28.3555 18.9532L31.6164 18.9454L35.771 11.1183L36.9779 18.9222L40.2389 18.9106L45.492 5.0293L42.1498 5.04091Z" fill="white"/>
<path d="M51.5986 4.89364C49.0417 4.90138 45.7614 6.13235 44.6473 11.9349C43.5371 17.7336 46.3532 18.9414 48.9063 18.9336C51.4594 18.922 54.7436 17.6949 55.8538 11.8923C56.964 6.08977 54.1517 4.88202 51.5948 4.89364M49.4517 16.0691C48.9721 16.073 47.5021 16.0769 48.2951 11.9194C49.092 7.7659 50.5658 7.75815 51.0455 7.75428C51.5329 7.75428 52.999 7.75041 52.206 11.904C51.4091 16.0575 49.9391 16.0653 49.4517 16.0653" fill="white"/>
<path d="M64.0737 4.89364C61.5167 4.90138 58.2403 6.13235 57.1224 11.9349C56.016 17.7336 58.8321 18.9414 61.3814 18.9336C63.9383 18.9259 67.2186 17.6949 68.3288 11.8923C69.4429 6.09364 66.6268 4.88202 64.0698 4.89364M61.9268 16.0691C61.4471 16.073 59.9733 16.0769 60.7702 11.9194C61.567 7.7659 63.037 7.75815 63.5205 7.75428C64.0041 7.75428 65.474 7.75041 64.681 11.904C63.8841 16.0575 62.4103 16.0653 61.9268 16.0653" fill="white"/>
<path d="M77.2625 13.4754C78.9452 12.5231 80.0593 10.6728 80.0593 8.28439C80.0593 4.74632 75.8544 5.09858 75.8544 5.09858H71.491L68.582 18.8947H71.8353L72.7946 14.1799H74.0634C74.4541 14.2457 74.9918 14.4818 75.0692 15.256C75.193 16.4986 75.3786 18.9528 75.3786 18.9528H78.6512C78.6512 18.9528 78.3611 15.585 78.2799 15.0741C78.1986 14.567 78.04 13.8586 77.2702 13.4754M74.2104 7.65342C75.1001 7.65342 77.2277 6.94116 76.8602 9.46116C76.4927 11.9812 73.4484 11.656 73.4484 11.656L74.2104 7.64955V7.65342Z" fill="white"/>
<path d="M80.0156 18.9605L83.6866 18.9488L86.3442 5.08691L82.6693 5.09853L80.0156 18.9605Z" fill="white"/>
<path d="M142.217 5.04102H137.973L132.724 10.143L133.718 5.04102H130.016L127.273 19.0036H130.983L132.117 13.2126L135.393 19.0036H139.903L135.451 11.5249L142.217 5.04102Z" fill="white"/>
<path d="M102.073 8.70254C102.51 6.43416 101.199 5.08319 98.5646 5.0948L92.2708 5.11029L89.6172 18.9567L95.9148 18.9413C99.1061 18.9335 100.99 17.5283 101.516 14.7761C101.81 13.2432 101.427 12.0742 100.437 11.4316C101.303 10.7696 101.853 9.85609 102.073 8.70641M98.1855 14.6135C98.0191 15.5 97.5936 16.0496 96.0386 16.1348V16.1425H95.9573C95.8374 16.1464 95.7175 16.1542 95.586 16.1542H95.4351V16.1425H93.5977L94.2011 12.9954H96.1894C98.5027 12.9838 98.2977 14.0445 98.1816 14.6135M98.6535 9.07803C98.4872 9.94512 98.1932 10.2316 97.2184 10.2974H94.6963L95.1605 7.89738H97.1952C98.7425 7.88964 98.8237 8.19932 98.6535 9.0819" fill="white"/>
<path d="M124.897 5.08691L123.466 13.0147L120.584 5.08691H117.095L114.418 18.9605L117.66 18.8753L119.246 10.4792L122.135 18.9605H125.408L128.085 5.08691H124.897Z" fill="white"/>
<path d="M108.395 5.08691L100.5 18.9605H104.225L105.691 16.3166L109.973 16.3476L110.279 18.9605H113.733L111.625 5.08691H108.391H108.395ZM107.169 13.6766L109.258 9.58885L109.753 13.6805H107.169V13.6766Z" fill="white"/>
<path d="M24 12C24 18.6258 18.6238 24 12.004 24C5.38421 24 0 18.6238 0 12C0 5.37621 5.37421 0 12.004 0C18.6338 0 24 5.37621 24 12Z" fill="white"/>
<path d="M12.0047 23.3948C18.3206 23.3948 23.4429 18.2745 23.4429 11.9606C23.4429 5.64675 18.3206 0.522461 12.0047 0.522461C5.68879 0.522461 0.5625 5.64275 0.5625 11.9606C0.5625 18.2785 5.68479 23.3948 12.0047 23.3948Z" fill="#0078BA"/>
<mask id="mask0_334_43071" style="mask-type:alpha" maskUnits="userSpaceOnUse" x="0" y="0" width="24" height="24">
<path d="M12.0047 23.3948C18.3206 23.3948 23.4429 18.2745 23.4429 11.9606C23.4429 5.64675 18.3206 0.522461 12.0047 0.522461C5.68879 0.522461 0.5625 5.64275 0.5625 11.9606C0.5625 18.2785 5.68479 23.3948 12.0047 23.3948Z" fill="#0078BA"/>
</mask>
<g mask="url(#mask0_334_43071)">
<path d="M12.0482 17.4809C17.0725 17.4809 21.3811 18.8784 23.2285 20.8698C23.8463 19.4463 24.1842 17.8788 24.1842 16.2393C24.1842 9.67551 18.748 4.36328 12.0462 4.36328C5.34444 4.36328 -0.09375 9.67951 -0.09375 16.2413C-0.09375 17.8848 0.248136 19.4463 0.867929 20.8698C2.70532 18.8764 7.01988 17.4809 12.0462 17.4809H12.0482Z" fill="#0078BA"/>
<path d="M12.0475 17.4925C17.0598 17.4925 21.3564 18.878 23.1997 20.8554C23.8155 19.4438 24.1534 17.8884 24.1534 16.2629C24.1534 9.75308 18.7312 4.46484 12.0475 4.46484C5.36369 4.46484 -0.0625 9.75508 -0.0625 16.2649C-0.0625 17.8964 0.277387 19.4438 0.897181 20.8554C2.73057 18.878 7.03314 17.4925 12.0475 17.4925V17.4925Z" fill="#007ABB"/>
<path d="M12.0486 17.5051C17.047 17.5051 21.3335 18.8787 23.1729 20.84C23.7867 19.4405 24.1246 17.897 24.1246 16.2835C24.1246 9.82568 18.7164 4.56543 12.0506 4.56543C5.38485 4.56543 -0.0273438 9.82968 -0.0273438 16.2875C-0.0273438 17.905 0.312543 19.4405 0.930337 20.84C2.75973 18.8787 7.05029 17.5051 12.0526 17.5051H12.0486Z" fill="#007CBD"/>
<path d="M12.0441 17.5187C17.0304 17.5187 21.305 18.8823 23.1384 20.8256C23.7522 19.4381 24.0881 17.9066 24.0881 16.3071C24.0881 9.90325 18.6939 4.66699 12.0441 4.66699C5.39429 4.66699 -0.00390625 9.90525 -0.00390625 16.3091C-0.00390625 17.9126 0.33598 19.4361 0.951775 20.8256C2.77717 18.8803 7.05774 17.5187 12.0441 17.5187Z" fill="#007EBE"/>
<path d="M12.0413 17.5313C17.0137 17.5313 21.2803 18.8828 23.1077 20.8122C23.7194 19.4346 24.0553 17.9171 24.0553 16.3297C24.0553 9.97779 18.6751 4.76953 12.0433 4.76953C5.41155 4.76953 0.0273438 9.98179 0.0273438 16.3337C0.0273438 17.9251 0.36523 19.4366 0.979025 20.8122C2.79842 18.8828 7.06899 17.5313 12.0433 17.5313H12.0413Z" fill="#0080C0"/>
<path d="M12.0427 17.5429C17.003 17.5429 21.2576 18.8825 23.079 20.7958C23.6888 19.4303 24.0227 17.9268 24.0227 16.3513C24.0227 10.0514 18.6565 4.86914 12.0407 4.86914C5.4249 4.86914 0.0546875 10.0534 0.0546875 16.3533C0.0546875 17.9308 0.392575 19.4303 1.00437 20.7958C2.81977 18.8825 7.07835 17.5429 12.0407 17.5429H12.0427Z" fill="#0082C2"/>
<path d="M12.04 17.5565C16.9863 17.5565 21.2309 18.8861 23.0483 20.7814C23.6561 19.4279 23.99 17.9364 23.99 16.3749C23.99 10.129 18.6378 4.9707 12.04 4.9707C5.44215 4.9707 0.0859375 10.129 0.0859375 16.3769C0.0859375 17.9424 0.421827 19.4279 1.03362 20.7814C2.84502 18.8841 7.0916 17.5565 12.04 17.5565V17.5565Z" fill="#0084C3"/>
<path d="M12.0373 17.5691C16.9717 17.5691 21.2042 18.8866 23.0176 20.768C23.6254 19.4265 23.9573 17.947 23.9573 16.3975C23.9573 10.2035 18.6191 5.07324 12.0373 5.07324C5.4555 5.07324 0.113281 10.2055 0.113281 16.3995C0.113281 17.951 0.44917 19.4245 1.05897 20.766C2.86436 18.8846 7.10095 17.5671 12.0373 17.5671V17.5691Z" fill="#0086C5"/>
<path d="M12.0405 17.5807C16.9608 17.5807 21.1834 18.8863 22.9908 20.7517C23.5966 19.4201 23.9285 17.9546 23.9285 16.4191C23.9285 10.2772 18.6043 5.17285 12.0405 5.17285C5.47666 5.17285 0.148438 10.2791 0.148438 16.4211C0.148438 17.9586 0.482326 19.4201 1.09012 20.7517C2.89152 18.8863 7.11611 17.5807 12.0405 17.5807Z" fill="#0088C6"/>
<path d="M12.0378 17.5952C16.9462 17.5952 21.1568 18.8908 22.9602 20.7382C23.564 19.4186 23.8959 17.9651 23.8959 16.4436C23.8959 10.3557 18.5856 5.27734 12.0378 5.27734C5.49001 5.27734 0.175781 10.3577 0.175781 16.4456C0.175781 17.9711 0.509669 19.4206 1.11547 20.7382C2.91287 18.8888 7.12746 17.5952 12.0358 17.5952H12.0378Z" fill="#008AC8"/>
<path d="M12.0332 17.6069C16.9275 17.6069 21.1281 18.8905 22.9255 20.7238C23.5273 19.4163 23.8592 17.9748 23.8592 16.4653C23.8592 10.4293 18.563 5.37695 12.0332 5.37695C5.50336 5.37695 0.203125 10.4313 0.203125 16.4673C0.203125 17.9788 0.535015 19.4163 1.14081 20.7238C2.93222 18.8905 7.13681 17.6069 12.0332 17.6069V17.6069Z" fill="#008CCA"/>
<path d="M12.0305 17.6185C16.9129 17.6185 21.1015 18.8901 22.8949 20.7075C23.4967 19.4119 23.8266 17.9824 23.8266 16.4869C23.8266 10.5029 18.5444 5.47656 12.0305 5.47656C5.51671 5.47656 0.230469 10.5049 0.230469 16.4889C0.230469 17.9864 0.562358 19.4119 1.16616 20.7075C2.95356 18.8901 7.14616 17.6185 12.0305 17.6185V17.6185Z" fill="#008FCB"/>
<path d="M12.0337 17.633C16.9021 17.633 21.0807 18.8946 22.8701 20.694C23.4699 19.4104 23.7978 17.9929 23.7978 16.5114C23.7978 10.5814 18.5295 5.58105 12.0337 5.58105C5.53787 5.58105 0.265625 10.5834 0.265625 16.5134C0.265625 17.9989 0.597515 19.4104 1.19931 20.696C2.98272 18.8946 7.16333 17.635 12.0357 17.635L12.0337 17.633Z" fill="#0091CD"/>
<path d="M12.0292 17.6447C16.8855 17.6447 21.0521 18.8943 22.8356 20.6797C23.4334 19.4061 23.7612 18.0026 23.7612 16.533C23.7612 10.655 18.507 5.68066 12.0271 5.68066C5.54731 5.68066 0.289062 10.657 0.289062 16.535C0.289062 18.0066 0.618953 19.4061 1.21875 20.6797C2.99616 18.8943 7.16677 17.6447 12.0252 17.6447H12.0292Z" fill="#0093CF"/>
<path d="M12.0303 17.6572C16.8727 17.6572 21.0293 18.8948 22.8087 20.6642C23.4045 19.4027 23.7324 18.0111 23.7324 16.5556C23.7324 10.7316 18.4922 5.7832 12.0303 5.7832C5.56847 5.7832 0.324219 10.7336 0.324219 16.5576C0.324219 18.0151 0.654109 19.4027 1.25191 20.6642C3.02532 18.8948 7.18393 17.6572 12.0303 17.6572Z" fill="#0095D0"/>
<path d="M12.0257 17.6708C16.8561 17.6708 21.0007 18.8984 22.7761 20.6498C23.3719 19.4003 23.6978 18.0207 23.6978 16.5792C23.6978 10.8071 18.4715 5.88477 12.0277 5.88477C5.58382 5.88477 0.351562 10.8091 0.351562 16.5812C0.351562 18.0267 0.679454 19.4023 1.27725 20.6518C3.04666 18.8984 7.19528 17.6728 12.0277 17.6728L12.0257 17.6708Z" fill="#0097D2"/>
<path d="M12.0269 17.6825C16.8433 17.6825 20.9779 18.8981 22.7474 20.6355C23.3412 19.3979 23.667 18.0304 23.667 16.6008C23.667 10.8807 18.4548 5.98438 12.0269 5.98438C5.59907 5.98438 0.382812 10.8827 0.382812 16.6008C0.382812 18.0324 0.710704 19.3959 1.3065 20.6335C3.07192 18.8961 7.20854 17.6805 12.0269 17.6805V17.6825Z" fill="#009AD4"/>
<path d="M12.0242 17.695C16.8286 17.695 20.9512 18.8986 22.7166 20.6201C23.3084 19.3925 23.6343 18.0389 23.6343 16.6234C23.6343 10.9573 18.4361 6.08691 12.0262 6.08691C5.61633 6.08691 0.414062 10.9593 0.414062 16.6254C0.414062 18.0449 0.739955 19.3945 1.33376 20.6221C3.09317 18.9006 7.21979 17.697 12.0262 17.697L12.0242 17.695Z" fill="#009CD6"/>
<path d="M12.0196 17.7087C16.812 17.7087 20.9227 18.9023 22.6821 20.6057C23.2719 19.3901 23.5978 18.0486 23.5978 16.645C23.5978 11.0309 18.4135 6.18652 12.0196 6.18652C5.62577 6.18652 0.4375 11.0309 0.4375 16.645C0.4375 18.0506 0.763391 19.3881 1.35519 20.6037C3.11061 18.8983 7.22524 17.7067 12.0196 17.7067V17.7087Z" fill="#009ED7"/>
<path d="M12.0228 17.7212C16.8012 17.7212 20.9018 18.9028 22.6573 20.5922C23.2471 19.3886 23.569 18.0591 23.569 16.6696C23.569 11.1074 18.3987 6.29102 12.0228 6.29102C5.64693 6.29102 0.472656 11.1094 0.472656 16.6716C0.472656 18.0631 0.796549 19.3886 1.38835 20.5922C3.13977 18.9028 7.2424 17.7212 12.0248 17.7212H12.0228Z" fill="#00A1D9"/>
<path d="M12.0202 17.7328C16.7866 17.7328 20.8752 18.9025 22.6266 20.5759C23.2144 19.3843 23.5363 18.0687 23.5363 16.6912C23.5363 11.183 18.38 6.39062 12.0202 6.39062C5.66028 6.39062 0.5 11.183 0.5 16.6932C0.5 18.0727 0.823892 19.3863 1.4137 20.5779C3.15911 18.9045 7.25175 17.7348 12.0202 17.7348V17.7328Z" fill="#00A3DB"/>
<path d="M12.0194 17.7465C16.7718 17.7465 20.8505 18.9061 22.5959 20.5615C23.1817 19.3799 23.5036 18.0784 23.5036 16.7128C23.5036 11.2566 18.3613 6.49023 12.0194 6.49023C5.67754 6.49023 0.53125 11.2566 0.53125 16.7128C0.53125 18.0784 0.853143 19.3799 1.44095 20.5595C3.18237 18.9021 7.26301 17.7445 12.0194 17.7445V17.7465Z" fill="#00A6DD"/>
<path d="M12.0168 17.7591C16.7572 17.7591 20.8258 18.9067 22.5653 20.5461C23.1491 19.3765 23.471 18.0869 23.471 16.7354C23.471 11.3312 18.3427 6.59277 12.0168 6.59277C5.69088 6.59277 0.558594 11.3332 0.558594 16.7374C0.558594 18.0889 0.880487 19.3785 1.46629 20.5481C3.20371 18.9067 7.27435 17.761 12.0168 17.761V17.7591Z" fill="#00A8DF"/>
<path d="M12.016 17.7706C16.7425 17.7706 20.8011 18.9063 22.5345 20.5317C23.1183 19.3741 23.4382 18.0965 23.4382 16.759C23.4382 11.4088 18.3239 6.69434 12.016 6.69434C5.70814 6.69434 0.589844 11.4088 0.589844 16.759C0.589844 18.0985 0.911736 19.3741 1.49554 20.5317C3.22696 18.9063 7.28761 17.7706 12.016 17.7706V17.7706Z" fill="#00ABE1"/>
<path d="M12.0134 17.7852C16.7278 17.7852 20.7745 18.9108 22.5039 20.5183C23.0857 19.3727 23.4056 18.1071 23.4056 16.7815C23.4056 11.4833 18.3053 6.79688 12.0134 6.79688C5.72149 6.79688 0.617188 11.4853 0.617188 16.7835C0.617188 18.1091 0.93708 19.3727 1.52089 20.5183C3.24831 18.9088 7.29696 17.7852 12.0134 17.7852Z" fill="#00ADE3"/>
<path d="M12.0126 17.7969C16.7131 17.7969 20.7497 18.9105 22.4752 20.502C23.055 19.3683 23.3729 18.1147 23.3729 16.8032C23.3729 11.5569 18.2866 6.89648 12.0126 6.89648C5.73874 6.89648 0.648438 11.5589 0.648438 16.8032C0.648438 18.1147 0.968331 19.3663 1.54814 20.502C3.27156 18.9085 7.30822 17.7969 12.0126 17.7969V17.7969Z" fill="#00B0E5"/>
<path d="M12.012 17.8084C16.7004 17.8084 20.7251 18.9101 22.4445 20.4876C23.0243 19.3639 23.3402 18.1243 23.3402 16.8268C23.3402 11.6345 18.2679 6.99805 12.01 6.99805C5.75209 6.99805 0.675781 11.6345 0.675781 16.8268C0.675781 18.1263 0.993675 19.3659 1.57348 20.4876C3.29091 18.9101 7.31757 17.8084 12.008 17.8084H12.012Z" fill="#00B3E7"/>
<path d="M12.0093 17.823C16.6837 17.823 20.6984 18.9147 22.4138 20.4741C22.9916 19.3625 23.3075 18.1349 23.3075 16.8493C23.3075 11.7091 18.2492 7.10059 12.0093 7.10059C5.76934 7.10059 0.707031 11.711 0.707031 16.8493C0.707031 18.1349 1.02493 19.3625 1.60273 20.4741C3.31616 18.9127 7.33082 17.823 12.0093 17.823Z" fill="#00B5E9"/>
<path d="M12.0066 17.8346C16.6691 17.8346 20.6717 18.9143 22.3812 20.4578C22.957 19.3581 23.2729 18.1425 23.2729 16.871C23.2729 11.7847 18.2285 7.2002 12.0066 7.2002C5.78469 7.2002 0.734375 11.7847 0.734375 16.871C0.734375 18.1425 1.05027 19.3581 1.62808 20.4578C3.33751 18.9123 7.34217 17.8346 12.0066 17.8346V17.8346Z" fill="#08B9EB"/>
<path d="M12.0059 17.8473C16.6543 17.8473 20.647 18.9149 22.3524 20.4444C22.9262 19.3568 23.2421 18.1532 23.2421 16.8936C23.2421 11.8593 18.2118 7.30078 12.0059 7.30078C5.79995 7.30078 0.765625 11.8593 0.765625 16.8936C0.765625 18.1532 1.08152 19.3548 1.65733 20.4424C3.36076 18.9129 7.35543 17.8453 12.0079 17.8453L12.0059 17.8473Z" fill="#15BCED"/>
<path d="M12.0051 17.8608C16.6416 17.8608 20.6223 18.9185 22.3237 20.43C22.8975 19.3523 23.2114 18.1627 23.2114 16.9171C23.2114 11.9348 18.1951 7.4043 12.0071 7.4043C5.8192 7.4043 0.796875 11.9348 0.796875 16.9171C0.796875 18.1627 1.11077 19.3523 1.68458 20.43C3.38401 18.9165 7.36669 17.8608 12.0051 17.8608V17.8608Z" fill="#1DBFF0"/>
<path d="M12.0064 17.8724C16.6289 17.8724 20.5995 18.9181 22.295 20.4136C22.8668 19.348 23.1807 18.1703 23.1807 16.9388C23.1807 12.0104 18.1783 7.50391 12.0064 7.50391C5.83445 7.50391 0.828125 12.0084 0.828125 16.9388C0.828125 18.1723 1.14202 19.348 1.71383 20.4136C3.40926 18.9161 7.37994 17.8724 12.0064 17.8724Z" fill="#22C4F4"/>
<path d="M12.0041 17.9032C16.6206 17.9032 20.5853 18.9429 22.2787 20.4284C22.8485 19.3707 23.1624 18.2011 23.1624 16.9755C23.1624 12.0791 18.1661 7.59863 12.0041 7.59863C5.84218 7.59863 0.839844 12.0771 0.839844 16.9755C0.839844 18.2011 1.15374 19.3707 1.72355 20.4284C3.41698 18.9409 7.38166 17.9032 12.0021 17.9032H12.0041Z" fill="#33C6F4"/>
<path d="M12.0058 17.931C16.6162 17.931 20.5749 18.9627 22.2663 20.4402C22.8361 19.3885 23.148 18.2269 23.148 17.0093C23.148 12.1449 18.1597 7.69043 12.0038 7.69043C5.8478 7.69043 0.855469 12.1429 0.855469 17.0093C0.855469 18.2269 1.16936 19.3885 1.73917 20.4402C3.43061 18.9627 7.39129 17.931 12.0038 17.931H12.0058Z" fill="#40C7F4"/>
<path d="M12.0034 17.9607C16.6078 17.9607 20.5625 18.9864 22.25 20.4539C22.8178 19.4083 23.1317 18.2546 23.1317 17.047C23.1317 12.2147 18.1493 7.78613 12.0034 7.78613C5.85743 7.78613 0.871094 12.2127 0.871094 17.047C0.871094 18.2566 1.18299 19.4103 1.7528 20.4539C3.44224 18.9864 7.39692 17.9607 12.0034 17.9607Z" fill="#4BC9F5"/>
<path d="M12.005 17.9886C16.6035 17.9886 20.5522 19.0062 22.2376 20.4657C22.8054 19.4281 23.1173 18.2805 23.1173 17.0809C23.1173 12.2805 18.141 7.87793 12.005 7.87793C5.86906 7.87793 0.886719 12.2785 0.886719 17.0809C0.886719 18.2825 1.19862 19.4281 1.76643 20.4657C3.45386 19.0082 7.40255 17.9906 12.005 17.9886V17.9886Z" fill="#55CAF5"/>
<path d="M12.0046 18.0184C16.5971 18.0184 20.5398 19.03 22.2252 20.4776C22.791 19.4459 23.1029 18.3083 23.1029 17.1147C23.1029 12.3463 18.1346 7.96973 12.0046 7.96973C5.87469 7.96973 0.902344 12.3463 0.902344 17.1147C0.902344 18.3083 1.21424 19.4459 1.78205 20.4776C3.46549 19.03 7.41018 18.0184 12.0066 18.0184H12.0046Z" fill="#5DCCF5"/>
<path d="M12.0043 18.0472C16.5907 18.0472 20.5274 19.0528 22.2109 20.4904C22.7767 19.4667 23.0886 18.3351 23.0886 17.1495C23.0886 12.4131 18.1262 8.0625 12.0063 8.0625C5.88631 8.0625 0.917969 12.4131 0.917969 17.1495C0.917969 18.3351 1.22986 19.4647 1.79568 20.4904C3.47712 19.0528 7.4178 18.0472 12.0063 18.0472H12.0043Z" fill="#65CEF6"/>
<path d="M12.002 18.0769C16.5825 18.0769 20.5132 19.0746 22.1946 20.5041C22.7584 19.4864 23.0703 18.3628 23.0703 17.1872C23.0703 12.4828 18.114 8.1582 12.002 8.1582C5.89003 8.1582 0.929688 12.4828 0.929688 17.1872C0.929688 18.3648 1.24158 19.4864 1.80539 20.5041C3.48483 19.0746 7.41952 18.0769 12.002 18.0769Z" fill="#6DCFF6"/>
<path d="M12.0036 18.1047C16.5761 18.1047 20.5028 19.0964 22.1822 20.5159C22.744 19.5062 23.0559 18.3886 23.0559 17.221C23.0559 12.5486 18.1076 8.25 12.0036 8.25C5.89966 8.25 0.945312 12.5486 0.945312 17.221C0.945312 18.3906 1.25721 19.5062 1.81902 20.5159C3.49646 19.0964 7.42515 18.1047 12.0016 18.1047H12.0036Z" fill="#74D1F6"/>
<path d="M12.0052 18.1345C16.5716 18.1345 20.4943 19.1202 22.1698 20.5297C22.7316 19.526 23.0435 18.4184 23.0435 17.2568C23.0435 12.6163 18.1011 8.34375 12.0072 8.34375C5.9132 8.34375 0.964844 12.6163 0.964844 17.2568C0.964844 18.4184 1.27474 19.526 1.83855 20.5297C3.51399 19.1202 7.43669 18.1365 12.0072 18.1345H12.0052Z" fill="#7BD3F7"/>
<path d="M12.0049 18.1643C16.5654 18.1643 20.4821 19.1419 22.1555 20.5415C22.7153 19.5458 23.0272 18.4442 23.0272 17.2925C23.0272 12.6841 18.0929 8.4375 12.0049 8.4375C5.91691 8.4375 0.976562 12.6841 0.976562 17.2925C0.976562 18.4462 1.28646 19.5458 1.84827 20.5415C3.52171 19.1419 7.44041 18.1643 12.0049 18.1643V18.1643Z" fill="#81D4F7"/>
<path d="M12.0045 18.1931C16.559 18.1931 20.4697 19.1647 22.1411 20.5543C22.7009 19.5646 23.0108 18.471 23.0108 17.3273C23.0108 12.7509 18.0825 8.53027 12.0045 8.53027C5.92654 8.53027 0.992188 12.7509 0.992188 17.3273C0.992188 18.473 1.30208 19.5646 1.8619 20.5543C3.53334 19.1647 7.44603 18.1931 12.0045 18.1931Z" fill="#88D6F8"/>
<path d="M12.0041 18.2228C16.5526 18.2228 20.4573 19.1885 22.1268 20.568C22.6846 19.5844 22.9965 18.4987 22.9965 17.3631C22.9965 12.8186 18.0741 8.62402 12.0041 8.62402C5.93417 8.62402 1.00781 12.8186 1.00781 17.3631C1.00781 18.5027 1.31771 19.5844 1.87752 20.568C3.54697 19.1885 7.45367 18.2228 12.0061 18.2228H12.0041Z" fill="#8ED8F8"/>
<path d="M12.0058 18.2506C16.5483 18.2506 20.447 19.2083 22.1144 20.5798C22.6722 19.6041 22.9821 18.5265 22.9821 17.3969C22.9821 12.8844 18.0678 8.71777 12.0058 8.71777C5.9438 8.71777 1.02344 12.8864 1.02344 17.3969C1.02344 18.5285 1.33334 19.6021 1.89115 20.5798C3.55859 19.2103 7.45929 18.2526 12.0058 18.2506Z" fill="#95DAF8"/>
<path d="M12.0054 18.2803C16.5419 18.2803 20.4346 19.232 22.1 20.5935C22.6559 19.6239 22.9658 18.5542 22.9658 17.4346C22.9658 12.9541 18.0574 8.81348 12.0054 8.81348C5.95342 8.81348 1.03906 12.9561 1.03906 17.4346C1.03906 18.5582 1.34696 19.6259 1.90477 20.5935C3.57022 19.232 7.46692 18.2823 12.0054 18.2803V18.2803Z" fill="#9BDCF9"/>
<path d="M12.0031 18.3092C16.5336 18.3092 20.4223 19.2548 22.0838 20.6044C22.6396 19.6427 22.9495 18.5791 22.9495 17.4674C22.9495 13.0189 18.0471 8.9043 12.0031 8.9043C5.95915 8.9043 1.05078 13.0209 1.05078 17.4674C1.05078 18.5831 1.35868 19.6427 1.91649 20.6044C3.57994 19.2528 7.47064 18.3092 12.0031 18.3092V18.3092Z" fill="#A1DEF9"/>
<path d="M12.0028 18.3389C16.5253 18.3389 20.41 19.2766 22.0694 20.6182C22.6232 19.6625 22.9331 18.6088 22.9331 17.5032C22.9331 13.0867 18.0388 8.99805 12.0028 8.99805C5.96677 8.99805 1.06641 13.0887 1.06641 17.5032C1.06641 18.6108 1.3743 19.6625 1.93012 20.6182C3.58957 19.2766 7.47627 18.3389 12.0028 18.3389Z" fill="#A7DFF9"/>
<path d="M12.0044 18.3667C16.5209 18.3667 20.3996 19.2984 22.057 20.63C22.6109 19.6823 22.9188 18.6346 22.9188 17.539C22.9188 13.1564 18.0304 9.0918 12.0044 9.0918C5.9784 9.0918 1.08203 13.1564 1.08203 17.539C1.08203 18.6386 1.38993 19.6823 1.94374 20.63C3.60119 19.2984 7.4819 18.3687 12.0044 18.3667Z" fill="#ADE1FA"/>
<path d="M12.004 18.3965C16.5145 18.3965 20.3872 19.3222 22.0427 20.6437C22.5945 19.702 22.9044 18.6624 22.9044 17.5748C22.9044 13.2242 18.022 9.18555 12.004 9.18555C5.98603 9.18555 1.09766 13.2242 1.09766 17.5748C1.09766 18.6664 1.40555 19.702 1.95737 20.6437C3.61282 19.3222 7.48952 18.3985 12.004 18.3965Z" fill="#B3E3FA"/>
<path d="M12.0056 18.4243C16.5101 18.4243 20.3769 19.342 22.0303 20.6536C22.5821 19.7179 22.89 18.6863 22.89 17.6066C22.89 13.2881 18.0156 9.27539 12.0056 9.27539C5.99565 9.27539 1.11328 13.2881 1.11328 17.6066C1.11328 18.6903 1.42118 19.7179 1.97299 20.6536C3.62644 19.342 7.49715 18.4243 12.0056 18.4243Z" fill="#B9E5FB"/>
<path d="M12.0034 18.4551C16.5019 18.4551 20.3646 19.3668 22.014 20.6684C22.5639 19.7407 22.8717 18.717 22.8717 17.6434C22.8717 13.3568 18.0034 9.37012 12.0014 9.37012C5.99937 9.37012 1.125 13.3568 1.125 17.6434C1.125 18.719 1.4309 19.7387 1.98271 20.6684C3.63416 19.3668 7.49887 18.4551 12.0014 18.4551H12.0034Z" fill="#BFE7FB"/>
<path d="M12.003 18.4829C16.4955 18.4829 20.3522 19.3886 21.9997 20.6801C22.5475 19.7584 22.8574 18.7428 22.8574 17.6791C22.8574 13.4245 17.995 9.46387 12.003 9.46387C6.011 9.46387 1.14062 13.4245 1.14062 17.6791C1.14062 18.7468 1.44652 19.7604 1.99634 20.6801C3.64579 19.3866 7.5045 18.4849 12.001 18.4829H12.003Z" fill="#C4E9FB"/>
<path d="M12.0026 18.5126C16.4891 18.5126 20.3399 19.4103 21.9853 20.6939C22.5331 19.7802 22.841 18.7705 22.841 17.7149C22.841 13.4923 17.9866 9.55762 12.0026 9.55762C6.01863 9.55762 1.15625 13.4923 1.15625 17.7149C1.15625 18.7745 1.46215 19.7802 2.01196 20.6939C3.65942 19.4103 7.51413 18.5146 12.0026 18.5126Z" fill="#CAEBFC"/>
<path d="M12.0023 18.5424C16.4828 18.5424 20.3275 19.4341 21.9729 20.7077C22.5188 19.8 22.8267 18.7983 22.8267 17.7507C22.8267 13.5601 17.9783 9.65137 12.0023 9.65137C6.02626 9.65137 1.17188 13.5601 1.17188 17.7507C1.17188 18.8043 1.47777 19.8 2.02559 20.7077C3.67104 19.4341 7.51976 18.5444 12.0043 18.5424H12.0023Z" fill="#CFEDFC"/>
<path d="M12.0058 18.5712C16.4783 18.5712 20.319 19.4549 21.9625 20.7185C22.5083 19.8188 22.8162 18.8251 22.8162 17.7855C22.8162 13.6268 17.9738 9.74414 12.0078 9.74414C6.04179 9.74414 1.19141 13.6268 1.19141 17.7855C1.19141 18.8311 1.4973 19.8188 2.04312 20.7185C3.68657 19.4549 7.52929 18.5712 12.0078 18.5712H12.0058Z" fill="#D5EFFC"/>
<path d="M12.0035 18.601C16.47 18.601 20.3048 19.4787 21.9462 20.7323C22.49 19.8386 22.7979 18.8529 22.7979 17.8212C22.7979 13.6946 17.9635 9.83789 12.0035 9.83789C6.04351 9.83789 1.20312 13.6946 1.20312 17.8212C1.20312 18.8589 1.50702 19.8386 2.05284 20.7323C3.69429 19.4787 7.53101 18.603 12.0035 18.601V18.601Z" fill="#DBF1FD"/>
<path d="M12.0052 18.6288C16.4657 18.6288 20.2964 19.5005 21.9338 20.7441C22.4777 19.8564 22.7836 18.8787 22.7836 17.855C22.7836 13.7604 17.9552 9.92969 12.0052 9.92969C6.05514 9.92969 1.21875 13.7604 1.21875 17.855C1.21875 18.8847 1.52265 19.8564 2.06847 20.7441C3.70792 19.5005 7.54064 18.6308 12.0052 18.6288Z" fill="#E0F3FD"/>
<path d="M12.0067 18.6586C16.4612 18.6586 20.2859 19.5223 21.9214 20.7579C22.4632 19.8782 22.7711 18.9065 22.7711 17.8908C22.7711 13.8282 17.9487 10.0234 12.0087 10.0234C6.06867 10.0234 1.23828 13.8282 1.23828 17.8908C1.23828 18.9125 1.54218 19.8762 2.086 20.7579C3.72145 19.5243 7.55018 18.6606 12.0087 18.6586H12.0067Z" fill="#E6F5FD"/>
<path d="M12.0064 18.6863C16.4549 18.6863 20.2737 19.544 21.9071 20.7696C22.4489 19.8959 22.7548 18.9342 22.7548 17.9266C22.7548 13.8959 17.9404 10.1172 12.0064 10.1172C6.07239 10.1172 1.25 13.8959 1.25 17.9266C1.25 18.9402 1.5539 19.8979 2.09572 20.7696C3.72917 19.546 7.5519 18.6883 12.0044 18.6863H12.0064Z" fill="#EBF7FE"/>
<path d="M12.006 18.7161C16.4486 18.7161 20.2613 19.5679 21.8927 20.7815C22.4326 19.9157 22.7385 18.9601 22.7385 17.9604C22.7385 13.9617 17.9301 10.209 12.006 10.209C6.08202 10.209 1.26562 13.9617 1.26562 17.9604C1.26562 18.9661 1.56952 19.9157 2.11134 20.7815C3.7428 19.5659 7.55953 18.7181 12.006 18.7161V18.7161Z" fill="#F1FAFE"/>
<path d="M12.0038 18.7449C16.4403 18.7449 20.247 19.5887 21.8765 20.7943C22.4163 19.9345 22.7222 18.9869 22.7222 17.9952C22.7222 14.0285 17.9218 10.3018 12.0038 10.3018C6.08574 10.3018 1.27734 14.0285 1.27734 17.9952C1.27734 18.9929 1.58124 19.9345 2.12106 20.7943C3.75052 19.5887 7.56325 18.7469 12.0038 18.7449Z" fill="#F7FCFE"/>
<path d="M12.0034 18.7747C16.4339 18.7747 20.2347 19.6124 21.8621 20.808C22.3999 19.9563 22.7058 19.0166 22.7058 18.0329C22.7058 14.0982 17.9114 10.3975 12.0034 10.3975C6.09537 10.3975 1.29297 14.0982 1.29297 18.0329C1.29297 19.0226 1.59487 19.9563 2.13469 20.808C3.76215 19.6124 7.56888 18.7767 12.0034 18.7747Z" fill="white"/>
</g>
<path d="M12.0032 14.8438C8.1225 14.8438 4.5237 15.5015 1.55469 16.6132C3.33409 20.6118 7.34076 23.3969 12.0052 23.3969C16.6696 23.3969 20.6683 20.6118 22.4537 16.6132C19.4807 15.5015 15.8819 14.8438 12.0052 14.8438H12.0032Z" fill="#0078BA"/>
</svg>
