<svg width="24" height="25" viewBox="0 0 24 25" fill="none" xmlns="http://www.w3.org/2000/svg">
<path d="M23.8175 11.9978C23.8175 18.6276 18.4977 24.0044 11.9566 24.0044C5.41551 24.0044 0.0957031 18.6232 0.0957031 11.9978C0.0957031 5.37241 5.40248 0 11.961 0C18.5195 0 23.8219 5.36802 23.8219 11.9978H23.8175Z" fill="white"/>
<path d="M11.9565 23.3975C18.202 23.3975 23.2654 18.2757 23.2654 11.958C23.2654 5.64037 18.1977 0.518555 11.9521 0.518555C5.70655 0.518555 0.651855 5.64477 0.651855 11.958C0.651855 18.2713 5.71089 23.3975 11.9565 23.3975Z" fill="#007BC7"/>
<mask id="mask0_1323_60505" style="mask-type:luminance" maskUnits="userSpaceOnUse" x="0" y="0" width="24" height="24">
<path d="M11.9565 23.3975C18.202 23.3975 23.2654 18.2757 23.2654 11.958C23.2654 5.64037 18.1977 0.518555 11.9521 0.518555C5.70655 0.518555 0.651855 5.64477 0.651855 11.958C0.651855 18.2713 5.71089 23.3975 11.9565 23.3975Z" fill="white"/>
</mask>
<g mask="url(#mask0_1323_60505)">
<path d="M12.0043 17.1457C16.9678 17.1457 21.2314 18.5438 23.0569 20.5354C23.661 19.1197 24 17.5458 24 15.9104C24 9.34651 18.6237 4.02686 12.0043 4.02686C5.38501 4.02686 0 9.34211 0 15.9104C0 17.5546 0.343354 19.1197 0.951829 20.5354C2.77291 18.5482 7.03658 17.1457 12.0043 17.1457Z" fill="#007BC7"/>
<path d="M12.0044 17.1589C16.9548 17.1589 21.2098 18.5482 23.0309 20.5177C23.635 19.1109 23.9697 17.5546 23.9697 15.9279C23.9697 9.41681 18.6107 4.12354 12.0044 4.12354C5.39814 4.12354 0.0305176 9.42121 0.0305176 15.9323C0.0305176 17.5634 0.369525 19.1153 0.978 20.5221C2.79473 18.5482 7.04537 17.1633 12.0044 17.1633V17.1589Z" fill="#007DC8"/>
<path d="M11.9999 17.172C16.9416 17.172 21.1836 18.5481 22.996 20.5045C23.6001 19.1109 23.9347 17.5633 23.9347 15.9542C23.9347 9.4959 18.5889 4.229 11.9999 4.229C5.41103 4.229 0.060791 9.4959 0.060791 15.9542C0.060791 17.5721 0.399799 19.1109 1.00827 20.5045C2.82066 18.5481 7.0626 17.172 12.0043 17.172H11.9999Z" fill="#007ECA"/>
<path d="M12 17.1854C16.9286 17.1854 21.1575 18.5527 22.9699 20.4915C23.5697 19.1111 23.9044 17.5767 23.9044 15.9764C23.9044 9.57084 18.5715 4.33032 12 4.33032C5.42846 4.33032 0.0869141 9.57084 0.0869141 15.9764C0.0869141 17.5811 0.425922 19.1067 1.03005 20.4915C2.83809 18.5527 7.06699 17.1854 12 17.1854Z" fill="#0080CB"/>
<path d="M11.9957 17.1986C16.9113 17.1986 21.1316 18.5527 22.9353 20.4783C23.535 19.1066 23.8697 17.5855 23.8697 16.0027C23.8697 9.64993 18.5499 4.43579 11.9957 4.43579C5.44159 4.43579 0.117432 9.64554 0.117432 15.9983C0.117432 17.5898 0.456439 19.1022 1.05622 20.4739C2.85557 18.5483 7.08013 17.1942 11.9957 17.1942V17.1986Z" fill="#0082CC"/>
<path d="M11.9956 17.2117C16.8982 17.2117 21.1053 18.5526 22.909 20.4607C23.5088 19.1022 23.8391 17.5942 23.8391 16.0203C23.8391 9.72023 18.5323 4.53247 11.9956 4.53247C5.45882 4.53247 0.147705 9.72023 0.147705 16.0203C0.147705 17.5986 0.482366 19.1022 1.0865 20.4607C2.8815 18.5526 7.09302 17.2117 11.9999 17.2117H11.9956Z" fill="#0084CD"/>
<path d="M11.9957 17.2249C16.8852 17.2249 21.0837 18.557 22.8787 20.4474C23.4741 19.0977 23.8088 17.603 23.8088 16.0466C23.8088 9.79932 18.5194 4.63794 11.9957 4.63794C5.47196 4.63794 0.178223 9.79493 0.178223 16.0422C0.178223 17.6073 0.512884 19.0977 1.11267 20.443C2.90332 18.5526 7.1018 17.2205 11.9957 17.2205V17.2249Z" fill="#0086CF"/>
<path d="M11.9914 17.238C16.8679 17.238 21.0577 18.5569 22.8483 20.4342C23.4438 19.0977 23.7741 17.6161 23.7741 16.0686C23.7741 9.87402 18.4977 4.73901 11.9914 4.73901C5.48504 4.73901 0.204346 9.86962 0.204346 16.0686C0.204346 17.6205 0.539007 19.0977 1.13879 20.4342C2.9251 18.5569 7.11489 17.238 11.9914 17.238Z" fill="#0088D0"/>
<path d="M11.9912 17.2468C16.8547 17.2468 21.0314 18.5569 22.8177 20.4166C23.4132 19.0889 23.7435 17.6205 23.7435 16.0861C23.7435 9.94432 18.4802 4.83569 11.9912 4.83569C5.50227 4.83569 0.234619 9.94432 0.234619 16.0905C0.234619 17.6292 0.569281 19.0932 1.16472 20.421C2.94668 18.5613 7.12343 17.2512 11.9912 17.2512V17.2468Z" fill="#008AD1"/>
<path d="M11.987 17.2601C16.8374 17.2601 21.0054 18.5571 22.7874 20.4036C23.3828 19.0891 23.7088 17.6338 23.7088 16.1127C23.7088 10.0237 18.4585 4.94141 11.987 4.94141C5.51541 4.94141 0.265137 10.0237 0.265137 16.1127C0.265137 17.6382 0.595452 19.0891 1.19089 20.4036C2.96851 18.5571 7.13656 17.2601 11.987 17.2601Z" fill="#008CD3"/>
<path d="M11.9871 17.2733C16.8244 17.2733 20.9795 18.557 22.7571 20.386C23.3482 19.0846 23.6785 17.6382 23.6785 16.1302C23.6785 10.094 18.4456 5.03809 11.9871 5.03809C5.52854 5.03809 0.295654 10.0984 0.295654 16.1346C0.295654 17.647 0.625969 19.0846 1.22141 20.3903C2.99468 18.5614 7.14969 17.2777 11.9914 17.2777L11.9871 17.2733Z" fill="#008ED4"/>
<path d="M11.9869 17.2864C16.8112 17.2864 20.9575 18.5614 22.7308 20.3727C23.3219 19.0802 23.6479 17.6513 23.6479 16.1566C23.6479 10.173 18.428 5.14355 11.9869 5.14355C5.54573 5.14355 0.321533 10.173 0.321533 16.1566C0.321533 17.6557 0.651848 19.0846 1.24294 20.3727C3.01186 18.5614 7.15819 17.2864 11.9825 17.2864H11.9869Z" fill="#0090D5"/>
<path d="M11.9826 17.2996C16.7939 17.2996 20.9316 18.5614 22.6961 20.3595C23.2872 19.0801 23.6132 17.6601 23.6132 16.1785C23.6132 10.2477 18.4064 5.24463 11.9826 5.24463C5.55886 5.24463 0.352051 10.2477 0.352051 16.1785C0.352051 17.6645 0.682366 19.0801 1.27346 20.3595C3.03803 18.5614 7.17132 17.2996 11.987 17.2996H11.9826Z" fill="#0092D7"/>
<path d="M11.9827 17.3127C16.7853 17.3127 20.9056 18.5657 22.6701 20.3463C23.2569 19.0757 23.5829 17.6732 23.5829 16.2048C23.5829 10.3268 18.3891 5.3501 11.9827 5.3501C5.57634 5.3501 0.382568 10.3224 0.382568 16.2004C0.382568 17.6732 0.708537 19.0757 1.29963 20.3419C3.05986 18.5613 7.18011 17.3083 11.9827 17.3083V17.3127Z" fill="#0094D8"/>
<path d="M11.9782 17.3259C16.7678 17.3259 20.8793 18.5657 22.6352 20.333C23.222 19.0756 23.5479 17.682 23.5479 16.2268C23.5479 10.4015 18.3672 5.45117 11.9782 5.45117C5.58923 5.45117 0.412842 10.3971 0.412842 16.2224C0.412842 17.682 0.738811 19.0712 1.32555 20.3286C3.08144 18.5613 7.19299 17.3215 11.9826 17.3215L11.9782 17.3259Z" fill="#0097D9"/>
<path d="M11.9783 17.3393C16.7548 17.3393 20.8533 18.5659 22.6048 20.3156C23.1916 19.0715 23.5132 17.691 23.5132 16.2446C23.5132 10.4721 18.3499 5.5481 11.9739 5.5481C5.59796 5.5481 0.438965 10.4721 0.438965 16.249C0.438965 17.6954 0.764934 19.0715 1.35168 20.32C3.10322 18.5703 7.20173 17.3437 11.9783 17.3437V17.3393Z" fill="#0099DB"/>
<path d="M11.9784 17.3524C16.7418 17.3524 20.8317 18.5702 22.5789 20.3024C23.1613 19.067 23.4872 17.6997 23.4872 16.2709C23.4872 10.5512 18.3369 5.65356 11.9784 5.65356C5.61979 5.65356 0.469482 10.5468 0.469482 16.2709C0.469482 17.7041 0.795451 19.067 1.37785 20.3024C3.12504 18.5702 7.21486 17.3524 11.974 17.3524H11.9784Z" fill="#009BDC"/>
<path d="M11.9739 17.3656C16.7243 17.3656 20.8054 18.5702 22.5439 20.2892C23.1263 19.067 23.448 17.7129 23.448 16.2928C23.448 10.6259 18.3107 5.75464 11.9695 5.75464C5.62833 5.75464 0.499756 10.6259 0.499756 16.2928C0.499756 17.7129 0.821378 19.0626 1.40812 20.2892C3.14662 18.5702 7.22775 17.3656 11.9782 17.3656H11.9739Z" fill="#009DDD"/>
<path d="M11.974 17.3743C16.7114 17.3743 20.7795 18.5701 22.518 20.2715C23.1004 19.0581 23.422 17.7172 23.422 16.3148C23.422 10.7006 18.2977 5.85571 11.974 5.85571C5.65016 5.85571 0.530273 10.7006 0.530273 16.3148C0.530273 17.7216 0.851896 19.0625 1.43429 20.2715C3.16845 18.5701 7.23654 17.3743 11.974 17.3743Z" fill="#009FDF"/>
<path d="M11.9697 17.3875C16.694 17.3875 20.7534 18.5701 22.4832 20.2539C23.0613 19.0537 23.3829 17.726 23.3829 16.3323C23.3829 10.7709 18.2717 5.95239 11.9653 5.95239C5.6589 5.95239 0.556396 10.7753 0.556396 16.3367C0.556396 17.7304 0.878019 19.0581 1.45607 20.2583C3.18588 18.5701 7.24528 17.3919 11.9697 17.3919V17.3875Z" fill="#00A2E0"/>
<path d="M11.9695 17.4008C16.6808 17.4008 20.7272 18.5703 22.457 20.2409C23.0351 19.0539 23.3567 17.735 23.3567 16.3589C23.3567 10.8502 18.2629 6.05811 11.9695 6.05811C5.67613 6.05811 0.58667 10.8502 0.58667 16.3589C0.58667 17.7394 0.908293 19.0539 1.48634 20.2409C3.21181 18.5703 7.25817 17.4008 11.9695 17.4008Z" fill="#00A4E1"/>
<path d="M11.9696 17.414C16.6679 17.414 20.7056 18.5746 22.4267 20.2277C23.0047 19.0495 23.322 17.7437 23.322 16.3808C23.322 10.9249 18.2412 6.15918 11.9696 6.15918C5.69796 6.15918 0.617188 10.9249 0.617188 16.3808C0.617188 17.7481 0.93881 19.0495 1.51252 20.2277C3.23363 18.5746 7.2713 17.414 11.9696 17.414Z" fill="#00A6E3"/>
<path d="M11.9653 17.4271C16.6506 17.4271 20.6796 18.5746 22.3963 20.2145C22.9744 19.0494 23.2917 17.7569 23.2917 16.4072C23.2917 11.004 18.2239 6.26465 11.9697 6.26465C5.71543 6.26465 0.647705 10.9996 0.647705 16.4072C0.647705 17.7613 0.964981 19.0494 1.53869 20.2145C3.25546 18.5746 7.28009 17.4271 11.9653 17.4271Z" fill="#00A9E4"/>
<path d="M11.9651 17.4403C16.6417 17.4403 20.6533 18.5789 22.3657 20.2012C22.9394 19.045 23.2567 17.7656 23.2567 16.4291C23.2567 11.0787 18.202 6.36572 11.9651 6.36572C5.72827 6.36572 0.673584 11.0743 0.673584 16.4291C0.673584 17.77 0.99086 19.045 1.56457 20.2012C3.27699 18.5789 7.29293 17.4403 11.9651 17.4403Z" fill="#00ABE5"/>
<path d="M11.9609 17.4534C16.6244 17.4534 20.6273 18.5789 22.3354 20.1836C22.9091 19.0405 23.2264 17.7744 23.2264 16.4466C23.2264 11.149 18.1847 6.4624 11.9652 6.4624C5.74575 6.4624 0.704102 11.1534 0.704102 16.451C0.704102 17.7788 1.02138 19.0449 1.59074 20.188C3.29881 18.5789 7.30171 17.4578 11.9609 17.4578V17.4534Z" fill="#00ADE7"/>
<path d="M11.961 17.4666C16.6115 17.4666 20.6013 18.5789 22.3051 20.1704C22.8788 19.0405 23.1917 17.7831 23.1917 16.473C23.1917 11.2281 18.1674 6.56787 11.961 6.56787C5.75454 6.56787 0.734619 11.2281 0.734619 16.473C0.734619 17.7875 1.0519 19.0405 1.62125 20.1704C3.32499 18.5789 7.31484 17.4666 11.961 17.4666Z" fill="#00B0E8"/>
<path d="M11.9608 17.48C16.5983 17.48 20.5795 18.5835 22.2788 20.1574C22.8482 19.0363 23.1655 17.7965 23.1655 16.4952C23.1655 11.303 18.1542 6.66919 11.9652 6.66919C5.77612 6.66919 0.764893 11.303 0.764893 16.4952C0.764893 17.7965 1.07782 19.0363 1.64718 20.1574C3.34657 18.5835 7.32773 17.48 11.9608 17.48Z" fill="#00B2EA"/>
<path d="M11.9565 17.4931C16.5809 17.4931 20.5534 18.5834 22.2441 20.1441C22.8135 19.0362 23.1264 17.8053 23.1264 16.5215C23.1264 11.3821 18.1282 6.77466 11.9565 6.77466C5.78486 6.77466 0.791016 11.3777 0.791016 16.5171C0.791016 17.8053 1.10395 19.0318 1.66896 20.1397C3.364 18.579 7.33212 17.4887 11.9522 17.4887L11.9565 17.4931Z" fill="#0FB5EB"/>
<path d="M11.9566 17.5063C16.568 17.5063 20.5274 18.5834 22.2181 20.1309C22.7875 19.0318 23.1004 17.8184 23.1004 16.5434C23.1004 11.4568 18.1153 6.87573 11.961 6.87573C5.80668 6.87573 0.821533 11.4524 0.821533 16.539C0.821533 17.814 1.13446 19.0274 1.69948 20.1265C3.39017 18.5834 7.3496 17.5019 11.9566 17.5019V17.5063Z" fill="#1DB7EC"/>
<path d="M11.9521 17.515C16.5505 17.515 20.5012 18.5833 22.1832 20.1089C22.7482 19.023 23.0612 17.8184 23.0612 16.561C23.0612 11.5271 18.089 6.97241 11.9521 6.97241C5.81523 6.97241 0.851807 11.5271 0.851807 16.561C0.851807 17.8228 1.16474 19.023 1.7254 20.1089C3.4074 18.5833 7.35815 17.515 11.9521 17.515Z" fill="#27BAEE"/>
<path d="M11.9522 17.5281C16.5375 17.5281 20.4752 18.5833 22.1572 20.0957C22.7222 19.0229 23.0352 17.8315 23.0352 16.5829C23.0352 11.6018 18.0804 7.07349 11.9566 7.07349C5.8327 7.07349 0.882324 11.6018 0.882324 16.5873C0.882324 17.8359 1.19091 19.0229 1.75592 20.1C3.43357 18.5877 7.37128 17.5325 11.9566 17.5325L11.9522 17.5281Z" fill="#2FBCEF"/>
<path d="M11.9523 17.5415C16.5245 17.5415 20.4535 18.5879 22.1268 20.0827C22.6919 19.0187 23.0004 17.8405 23.0004 16.6095C23.0004 11.6811 18.0588 7.1748 11.9523 7.1748C5.84579 7.1748 0.908447 11.6767 0.908447 16.6095C0.908447 17.8449 1.21703 19.0231 1.7777 20.0827C3.451 18.5879 7.38002 17.5415 11.9479 17.5415H11.9523Z" fill="#37BEF0"/>
<path d="M11.9522 17.5723C16.5201 17.5723 20.4405 18.6098 22.1138 20.0958C22.6788 19.0407 22.9874 17.8712 22.9874 16.6446C22.9874 11.747 18.05 7.27148 11.9522 7.27148C5.85443 7.27148 0.925781 11.747 0.925781 16.6446C0.925781 17.8712 1.23437 19.0407 1.79503 20.0958C3.46834 18.6098 7.38866 17.5723 11.9522 17.5723Z" fill="#45C0F0"/>
<path d="M11.9521 17.5986C16.5113 17.5986 20.4317 18.6318 22.1006 20.109C22.6613 19.0582 22.9699 17.8976 22.9699 16.6798C22.9699 11.8129 18.0412 7.36377 11.9521 7.36377C5.86302 7.36377 0.938721 11.8129 0.938721 16.6798C0.938721 17.8976 1.2473 19.0626 1.80362 20.109C3.47259 18.6318 7.38856 17.603 11.9478 17.5986H11.9521Z" fill="#50C2F1"/>
<path d="M11.9521 17.6293C16.5069 17.6293 20.4186 18.6537 22.0875 20.1221C22.6482 19.0802 22.9568 17.9239 22.9568 16.7149C22.9568 11.8832 18.0368 7.45605 11.9521 7.45605C5.86732 7.45605 0.956055 11.8788 0.956055 16.7149C0.956055 17.9239 1.26464 19.0802 1.82096 20.1221C3.48992 18.6537 7.40155 17.6293 11.9521 17.6293Z" fill="#5BC4F1"/>
<path d="M11.9522 17.6601C16.4984 17.6601 20.4057 18.68 22.0703 20.1353C22.631 19.0977 22.9395 17.9502 22.9395 16.75C22.9395 11.9491 18.0239 7.54834 11.9522 7.54834C5.8805 7.54834 0.969238 11.9491 0.969238 16.75C0.969238 17.9546 1.27782 19.0977 1.83414 20.1353C3.49876 18.68 7.40604 17.6601 11.9522 17.6601Z" fill="#64C7F2"/>
<path d="M11.9522 17.6864C16.494 17.6864 20.3926 18.6976 22.0572 20.1484C22.6179 19.1197 22.9264 17.981 22.9264 16.7852C22.9264 12.0151 18.0195 7.64062 11.9522 7.64062C5.8848 7.64062 0.986572 12.0151 0.986572 16.7852C0.986572 17.981 1.29516 19.1197 1.85148 20.1484C3.51609 18.702 7.41468 17.6908 11.9565 17.6864H11.9522Z" fill="#6DC9F3"/>
<path d="M11.9523 17.7172C16.4898 17.7172 20.384 18.7239 22.0443 20.1616C22.6006 19.1416 22.9092 18.0073 22.9092 16.8203C22.9092 12.081 18.0066 7.7373 11.9523 7.7373C5.89798 7.7373 0.999756 12.081 0.999756 16.8203C0.999756 18.0073 1.30399 19.1372 1.86031 20.1616C3.52058 18.7239 7.41917 17.7172 11.9523 17.7172Z" fill="#75CBF3"/>
<path d="M11.9522 17.7437C16.481 17.7437 20.3709 18.7417 22.0312 20.1706C22.5875 19.155 22.8961 18.0295 22.8961 16.8513C22.8961 12.1471 18.0022 7.82544 11.9522 7.82544C5.90223 7.82544 1.0127 12.1515 1.0127 16.8557C1.0127 18.0339 1.31693 19.1594 1.87325 20.175C3.53352 18.7461 7.42342 17.7481 11.9479 17.7481L11.9522 17.7437Z" fill="#7DCDF4"/>
<path d="M11.9522 17.7745C16.4766 17.7745 20.3578 18.7681 22.0137 20.1837C22.5701 19.1769 22.8786 18.0558 22.8786 16.8864C22.8786 12.213 17.9891 7.91772 11.9522 7.91772C5.91522 7.91772 1.03003 12.2174 1.03003 16.8908C1.03003 18.0602 1.33427 19.1769 1.89059 20.1881C3.54651 18.7681 7.43206 17.7789 11.9522 17.7789V17.7745Z" fill="#84D0F4"/>
<path d="M11.9523 17.8052C16.4681 17.8052 20.3493 18.79 22.0008 20.2013C22.5572 19.1989 22.8614 18.091 22.8614 16.9259C22.8614 12.2833 17.9806 8.0144 11.948 8.0144C5.91536 8.0144 1.04321 12.2833 1.04321 16.9259C1.04321 18.091 1.34745 19.1989 1.90377 20.2013C3.55969 18.79 7.43655 17.8096 11.9523 17.8052Z" fill="#8BD2F5"/>
<path d="M11.9523 17.8315C16.4637 17.8315 20.3362 18.8119 21.9877 20.21C22.5397 19.2164 22.8483 18.1129 22.8483 16.9611C22.8483 12.3536 17.9718 8.10669 11.9523 8.10669C5.93269 8.10669 1.06055 12.3492 1.06055 16.9611C1.06055 18.1173 1.36478 19.2164 1.91676 20.21C3.56833 18.8119 7.44519 17.8315 11.9523 17.8315Z" fill="#92D4F5"/>
<path d="M11.9522 17.8623C16.4549 17.8623 20.323 18.8339 21.9746 20.2232C22.5266 19.234 22.8352 18.1393 22.8352 16.9962C22.8352 12.4195 17.9674 8.19897 11.9522 8.19897C5.93694 8.19897 1.07349 12.4195 1.07349 16.9962C1.07349 18.1437 1.37772 19.2384 1.9297 20.2232C3.58127 18.8339 7.44944 17.8623 11.9522 17.8623Z" fill="#99D6F6"/>
<path d="M11.9521 17.8886C16.4505 17.8886 20.3099 18.8558 21.9615 20.2363C22.5135 19.2559 22.8177 18.17 22.8177 17.0313C22.8177 12.4854 17.9586 8.29565 11.9521 8.29565C5.94558 8.29565 1.09082 12.4854 1.09082 17.0313C1.09082 18.17 1.39506 19.2559 1.94703 20.2363C3.59426 18.8558 7.45808 17.893 11.9564 17.8886H11.9521Z" fill="#9FD9F7"/>
<path d="M11.9522 17.9196C16.4419 17.9196 20.3014 18.878 21.9443 20.2497C22.4963 19.2737 22.8005 18.1966 22.8005 17.0667C22.8005 12.556 17.9457 8.38818 11.9479 8.38818C5.95007 8.38818 1.104 12.5516 1.104 17.0667C1.104 18.1966 1.4039 19.2781 1.95587 20.2497C3.6031 18.878 7.46257 17.9196 11.9522 17.9196Z" fill="#A5DBF7"/>
<path d="M11.9565 17.9459C16.4419 17.9459 20.2927 18.9 21.9355 20.2585C22.4875 19.2912 22.7917 18.2185 22.7917 17.0974C22.7917 12.6175 17.9457 8.47607 11.9565 8.47607C5.96741 8.47607 1.12134 12.6219 1.12134 17.1018C1.12134 18.2273 1.42123 19.2956 1.9732 20.2628C3.61609 18.9 7.47121 17.9503 11.9565 17.9503V17.9459Z" fill="#ABDDF8"/>
<path d="M11.9564 17.9767C16.4331 17.9767 20.2795 18.9219 21.9224 20.276C22.47 19.3176 22.7786 18.2493 22.7786 17.137C22.7786 12.6878 17.9369 8.57275 11.9564 8.57275C5.976 8.57275 1.13428 12.6878 1.13428 17.137C1.13428 18.2536 1.43417 19.3176 1.98614 20.276C3.62903 18.9263 7.47546 17.9811 11.9564 17.9767Z" fill="#B1DFF8"/>
<path d="M11.9566 18.0074C16.4289 18.0074 20.271 18.9482 21.9095 20.2891C22.4572 19.3351 22.7614 18.28 22.7614 17.1721C22.7614 12.7537 17.9284 8.66504 11.9566 8.66504C5.98489 8.66504 1.15186 12.7537 1.15186 17.1721C1.15186 18.28 1.45175 19.3351 2.00372 20.2891C3.64226 18.9482 7.48434 18.0118 11.9566 18.0074Z" fill="#B7E1F9"/>
<path d="M11.9565 18.0337C16.4245 18.0337 20.2579 18.9658 21.8964 20.2979C22.444 19.3527 22.7483 18.3019 22.7483 17.2028C22.7483 12.8196 17.9196 8.75732 11.9565 8.75732C5.99348 8.75732 1.16479 12.824 1.16479 17.2072C1.16479 18.3063 1.46469 19.3527 2.01231 20.3023C3.65085 18.9702 7.48859 18.0381 11.9522 18.0381L11.9565 18.0337Z" fill="#BCE4F9"/>
<path d="M11.9564 18.0645C16.4157 18.0645 20.2447 18.9921 21.8789 20.3154C22.4266 19.3746 22.7308 18.3327 22.7308 17.2424C22.7308 12.8899 17.9108 8.854 11.9564 8.854C6.00207 8.854 1.17773 12.8899 1.17773 17.2424C1.17773 18.3327 1.47763 19.3746 2.02525 20.3154C3.65944 18.9921 7.49284 18.0689 11.9521 18.0645H11.9564Z" fill="#C1E6FA"/>
<path d="M11.9566 18.0911C16.4115 18.0911 20.2362 19.0099 21.8661 20.3244C22.4094 19.3924 22.7136 18.3549 22.7136 17.2733C22.7136 12.9517 17.898 8.94214 11.9523 8.94214C6.00661 8.94214 1.19531 12.9561 1.19531 17.2777C1.19531 18.3636 1.4952 19.3924 2.04283 20.3288C3.67702 19.0143 7.50172 18.0999 11.9566 18.0955V18.0911Z" fill="#C7E8FA"/>
<path d="M11.9565 18.1218C16.4027 18.1218 20.2231 19.0363 21.8529 20.3376C22.3962 19.4099 22.7005 18.3856 22.7005 17.3129C22.7005 13.0264 17.8935 9.03882 11.9565 9.03882C6.01955 9.03882 1.20825 13.022 1.20825 17.3129C1.20825 18.39 1.5038 19.4143 2.05577 20.3376C3.68562 19.0363 7.50597 18.1218 11.9565 18.1218Z" fill="#CCEAFB"/>
<path d="M11.9565 18.1525C16.3983 18.1525 20.21 19.0582 21.8399 20.3551C22.3831 19.4363 22.6874 18.4163 22.6874 17.3524C22.6874 13.0967 17.8891 9.1355 11.9608 9.1355C6.03254 9.1355 1.22559 13.0923 1.22559 17.348C1.22559 18.4163 1.52113 19.4319 2.06876 20.3507C3.6986 19.0582 7.51461 18.1525 11.9565 18.1481V18.1525Z" fill="#D1ECFB"/>
<path d="M11.9566 18.1789C16.3898 18.1789 20.1971 19.0801 21.827 20.3639C22.3702 19.4494 22.6701 18.4383 22.6701 17.3831C22.6701 13.1582 17.8762 9.22339 11.9566 9.22339C6.03703 9.22339 1.23877 13.1582 1.23877 17.3831C1.23877 18.4427 1.53431 19.4538 2.08194 20.3639C3.70744 19.0801 7.5191 18.1833 11.9566 18.1789Z" fill="#D6EEFB"/>
<path d="M11.9566 18.2096C16.3854 18.2096 20.1884 19.1021 21.8095 20.377C22.3485 19.4714 22.6527 18.469 22.6527 17.4183C22.6527 13.2285 17.8675 9.32007 11.9566 9.32007C6.04567 9.32007 1.2561 13.2241 1.2561 17.4183C1.2561 18.4734 1.55165 19.4714 2.09928 20.377C3.72477 19.1021 7.52774 18.214 11.9609 18.2096H11.9566Z" fill="#DBF0FC"/>
<path d="M11.9565 18.2359C16.3766 18.2359 20.1752 19.124 21.7964 20.3858C22.3353 19.4889 22.6396 18.4909 22.6396 17.449C22.6396 13.29 17.8587 9.40796 11.9565 9.40796C6.05427 9.40796 1.26904 13.2944 1.26904 17.4534C1.26904 18.4997 1.56459 19.4933 2.10787 20.3902C3.72902 19.124 7.53199 18.2403 11.9565 18.2403V18.2359Z" fill="#E0F2FC"/>
<path d="M11.9564 18.2669C16.3722 18.2669 20.1621 19.1462 21.7833 20.4036C22.3222 19.5111 22.6221 18.5219 22.6221 17.4888C22.6221 13.3605 17.8499 9.50488 11.9564 9.50488C6.06291 9.50488 1.28638 13.3605 1.28638 17.4888C1.28638 18.5263 1.58192 19.5111 2.1252 20.4036C3.74636 19.1506 7.54063 18.2713 11.9564 18.2669Z" fill="#E5F4FD"/>
<path d="M11.9566 18.2977C16.3637 18.2977 20.1536 19.1725 21.7704 20.4167C22.3093 19.5331 22.6092 18.5483 22.6092 17.5239C22.6092 13.4264 17.8414 9.59717 11.9566 9.59717C6.07174 9.59717 1.29956 13.4264 1.29956 17.5239C1.29956 18.5527 1.59511 19.5331 2.13839 20.4167C3.75519 19.1725 7.54512 18.3021 11.9566 18.2977Z" fill="#E9F6FD"/>
<path d="M11.9565 18.324C16.3592 18.324 20.1405 19.1901 21.7573 20.4255C22.2919 19.5462 22.5961 18.5746 22.5961 17.5546C22.5961 13.4923 17.8369 9.68506 11.9608 9.68506C6.08468 9.68506 1.3125 13.4923 1.3125 17.559C1.3125 18.579 1.60805 19.5506 2.15133 20.4299C3.76813 19.1945 7.54937 18.3284 11.9565 18.3284V18.324Z" fill="#EEF8FE"/>
<path d="M11.9564 18.3547C16.3548 18.3547 20.1274 19.2164 21.7398 20.443C22.2744 19.5725 22.5787 18.6053 22.5787 17.5942C22.5787 13.5626 17.8239 9.78613 11.9564 9.78613C6.08898 9.78613 1.32983 13.5626 1.32983 17.5942C1.32983 18.6097 1.62103 19.5681 2.16431 20.443C3.77677 19.2164 7.55801 18.3591 11.9564 18.3547Z" fill="#F2FAFE"/>
<path d="M11.9609 18.3811C16.3506 18.3811 20.1232 19.234 21.7313 20.4518C22.2659 19.5857 22.5658 18.6273 22.5658 17.6249C22.5658 13.6242 17.8197 9.87402 11.9609 9.87402C6.10216 9.87402 1.34302 13.6286 1.34302 17.6293C1.34302 18.6361 1.63422 19.5901 2.1775 20.4562C3.78996 19.2384 7.5625 18.3899 11.9566 18.3855L11.9609 18.3811Z" fill="#F7FCFE"/>
<path d="M11.9609 18.4118C16.3462 18.4118 20.1101 19.2603 21.7182 20.4649C22.2528 19.6076 22.5527 18.658 22.5527 17.66C22.5527 13.6945 17.8109 9.96631 11.9609 9.96631C6.1108 9.96631 1.36035 13.6945 1.36035 17.6644C1.36035 18.6624 1.65155 19.6076 2.19483 20.4693C3.80294 19.2647 7.57114 18.4206 11.9609 18.4162V18.4118Z" fill="#FBFDFF"/>
<path d="M11.961 18.4428C16.3377 18.4428 20.0972 19.2825 21.7053 20.4827C22.2399 19.6298 22.5398 18.689 22.5398 17.7042C22.5398 13.7694 17.8067 10.0676 11.9654 10.0676C6.12399 10.0676 1.37354 13.765 1.37354 17.6998C1.37354 18.689 1.66473 19.6298 2.20802 20.4783C3.81613 19.2825 7.57998 18.4428 11.961 18.4384V18.4428Z" fill="white"/>
</g>
<path d="M11.9522 14.8467C8.12318 14.8467 4.56795 15.5061 1.62988 16.6184C3.39011 20.6148 7.34955 23.3977 11.9566 23.3977C16.5636 23.3977 20.5274 20.606 22.2876 16.6184C19.3539 15.5017 15.79 14.8467 11.9522 14.8467Z" fill="#007BC7"/>
</svg>
