<svg width="93" height="16" viewBox="0 0 93 16" fill="none" xmlns="http://www.w3.org/2000/svg">
<path d="M27.5637 3.3593L25.7398 8.28576L25.0265 3.36705L23.2709 3.37479L20.7185 8.30382L20.7336 3.38253L18.548 3.39285L18.543 12.6341L20.6755 12.629L23.3923 7.41092L24.1816 12.6135L26.3141 12.6058L29.7493 3.35156L27.5637 3.3593Z" fill="#0067AC"/>
<path d="M33.7437 3.26177C32.0716 3.26694 29.9264 4.08758 29.1979 7.95597C28.4719 11.8218 30.3135 12.6269 31.983 12.6218C33.6526 12.614 35.8003 11.796 36.5263 7.92758C37.2523 4.05919 35.4132 3.25403 33.7412 3.26177M32.3397 10.7121C32.026 10.7147 31.0648 10.7173 31.5834 7.94565C32.1045 5.17661 33.0683 5.17145 33.3819 5.16887C33.7007 5.16887 34.6594 5.16629 34.1408 7.93532C33.6197 10.7044 32.6585 10.7095 32.3397 10.7095" fill="#0067AC"/>
<path d="M41.8989 3.26177C40.2268 3.26693 38.0842 4.08758 37.3532 7.95597C36.6297 11.8218 38.4713 12.6269 40.1383 12.6218C41.8104 12.6166 43.9555 11.796 44.6816 7.92758C45.4101 4.06177 43.5685 3.25403 41.8964 3.26177M40.495 10.7121C40.1813 10.7147 39.2175 10.7173 39.7386 7.94565C40.2597 5.17661 41.221 5.17145 41.5372 5.16887C41.8534 5.16887 42.8147 5.16629 42.2961 7.93532C41.775 10.7044 40.8112 10.7095 40.495 10.7095" fill="#0067AC"/>
<path d="M50.5261 8.98162C51.6265 8.34678 52.3551 7.11323 52.3551 5.52097C52.3551 3.16226 49.6054 3.3971 49.6054 3.3971H46.7519L44.8496 12.5945H46.977L47.6044 9.45129H48.4341C48.6896 9.49516 49.0412 9.65259 49.0918 10.1687C49.1728 10.9971 49.2942 12.6332 49.2942 12.6332H51.4343C51.4343 12.6332 51.2446 10.3881 51.1914 10.0474C51.1383 9.70936 51.0346 9.2371 50.5312 8.98162M48.5303 5.10033C49.1121 5.10033 50.5034 4.62549 50.2631 6.30549C50.0227 7.98549 48.0319 7.76871 48.0319 7.76871L48.5303 5.09775V5.10033Z" fill="#0067AC"/>
<path d="M52.3262 12.6397L54.7268 12.6319L56.4647 3.39062L54.0615 3.39837L52.3262 12.6397Z" fill="#0067AC"/>
<path d="M93.0005 3.35938H90.2255L86.7928 6.76067L87.4429 3.35938H85.022L83.2285 12.6678H85.6545L86.3956 8.80712L88.5383 12.6678H91.4878L88.5762 7.68196L93.0005 3.35938Z" fill="#0067AC"/>
<path d="M66.7509 5.79974C67.0368 4.28748 66.1792 3.38684 64.4566 3.39458L60.3408 3.4049L58.6055 12.6359L62.7237 12.6255C64.8107 12.6204 66.0426 11.6836 66.3867 9.84877C66.5789 8.82684 66.3285 8.04748 65.6809 7.6191C66.2475 7.17781 66.6068 6.56877 66.7509 5.80232M64.2087 9.74039C64.0999 10.3314 63.8216 10.6978 62.8047 10.7546V10.7597H62.7516C62.6732 10.7623 62.5947 10.7675 62.5087 10.7675H62.4101V10.7597H61.2085L61.6031 8.66168H62.9034C64.4161 8.65394 64.282 9.36103 64.2061 9.74039M64.5147 6.05006C64.406 6.62813 64.2137 6.8191 63.5762 6.86297H61.9269L62.2305 5.26297H63.5611C64.5729 5.25781 64.626 5.46426 64.5147 6.05264" fill="#0067AC"/>
<path d="M81.6751 3.39062L80.7391 8.67579L78.8545 3.39062H76.5728L74.8223 12.6397L76.9421 12.5829L77.9793 6.98546L79.8689 12.6397H82.009L83.7595 3.39062H81.6751Z" fill="#0067AC"/>
<path d="M70.8837 3.39062L65.7207 12.6397H68.1568L69.1155 10.8771L71.9158 10.8977L72.1157 12.6397H74.3746L72.996 3.39062H70.8812H70.8837ZM70.0818 9.11708L71.4478 6.39192L71.7716 9.11966H70.0818V9.11708Z" fill="#0067AC"/>
<path d="M15.6947 8C15.6947 12.4172 12.1789 16 7.84994 16C3.52097 16 0 12.4159 0 8C0 3.58414 3.51443 0 7.84994 0C12.1855 0 15.6947 3.58414 15.6947 8Z" fill="white"/>
<path d="M7.84973 15.5959C11.98 15.5959 15.3297 12.1824 15.3297 7.97311C15.3297 3.76385 11.98 0.347656 7.84973 0.347656C3.71949 0.347656 0.367188 3.76118 0.367188 7.97311C0.367188 12.185 3.71688 15.5959 7.84973 15.5959Z" fill="#0078BA"/>
<mask id="mask0_1866_113909" style="mask-type:alpha" maskUnits="userSpaceOnUse" x="0" y="0" width="16" height="16">
<path d="M7.84973 15.5959C11.98 15.5959 15.3297 12.1824 15.3297 7.97311C15.3297 3.76385 11.98 0.347656 7.84973 0.347656C3.71949 0.347656 0.367188 3.76118 0.367188 7.97311C0.367188 12.185 3.71688 15.5959 7.84973 15.5959Z" fill="#0078BA"/>
</mask>
<g mask="url(#mask0_1866_113909)">
<path d="M7.87765 11.6513C11.1633 11.6513 13.9808 12.583 15.1889 13.9106C15.5929 12.9616 15.8139 11.9166 15.8139 10.8236C15.8139 6.44774 12.2589 2.90625 7.87635 2.90625C3.49377 2.90625 -0.0625 6.4504 -0.0625 10.8249C-0.0625 11.9206 0.161074 12.9616 0.566384 13.9106C1.76793 12.5817 4.58941 11.6513 7.87635 11.6513H7.87765Z" fill="#0078BA"/>
<path d="M7.87822 11.6578C11.156 11.6578 13.9657 12.5815 15.1712 13.8997C15.5739 12.9587 15.7948 11.9217 15.7948 10.838C15.7948 6.49815 12.249 2.97266 7.87822 2.97266C3.50741 2.97266 -0.0410156 6.49948 -0.0410156 10.8394C-0.0410156 11.927 0.181252 12.9587 0.586562 13.8997C1.7855 12.5815 4.59913 11.6578 7.87822 11.6578Z" fill="#007ABB"/>
<path d="M7.87552 11.6655C11.1442 11.6655 13.9473 12.5812 15.1502 13.8888C15.5516 12.9558 15.7725 11.9268 15.7725 10.8511C15.7725 6.54589 12.2359 3.03906 7.87683 3.03906C3.51779 3.03906 -0.0214844 6.54856 -0.0214844 10.8538C-0.0214844 11.9321 0.200783 12.9558 0.604785 13.8888C1.8011 12.5812 4.60689 11.6655 7.87814 11.6655H7.87552Z" fill="#007CBD"/>
<path d="M7.8748 11.6772C11.1356 11.6772 13.9309 12.5862 15.1298 13.8818C15.5312 12.9568 15.7509 11.9358 15.7509 10.8695C15.7509 6.60021 12.2234 3.10938 7.8748 3.10938C3.52621 3.10938 -0.00390625 6.60154 -0.00390625 10.8708C-0.00390625 11.9398 0.21836 12.9554 0.621056 13.8818C1.81476 12.5849 4.61401 11.6772 7.8748 11.6772Z" fill="#007EBE"/>
<path d="M7.87406 11.6836C11.1257 11.6836 13.9158 12.5846 15.1108 13.8709C15.5109 12.9525 15.7305 11.9409 15.7305 10.8825C15.7305 6.64796 12.2122 3.17578 7.87536 3.17578C3.53855 3.17578 0.0175781 6.65062 0.0175781 10.8852C0.0175781 11.9462 0.238537 12.9539 0.639925 13.8709C1.82971 12.5846 4.62242 11.6836 7.87536 11.6836H7.87406Z" fill="#0080C0"/>
<path d="M7.87464 11.6914C11.1184 11.6914 13.9007 12.5844 15.0918 13.86C15.4905 12.9496 15.7089 11.9473 15.7089 10.897C15.7089 6.69703 12.1997 3.24219 7.87333 3.24219C3.54697 3.24219 0.0351562 6.69837 0.0351562 10.8983C0.0351562 11.95 0.256116 12.9496 0.656196 13.86C1.84336 12.5844 4.62823 11.6914 7.87333 11.6914H7.87464Z" fill="#0082C2"/>
<path d="M7.87194 11.703C11.1066 11.703 13.8823 12.5894 15.0708 13.853C15.4682 12.9506 15.6866 11.9563 15.6866 10.9153C15.6866 6.75136 12.1865 3.3125 7.87194 3.3125C3.55735 3.3125 0.0546875 6.75135 0.0546875 10.9166C0.0546875 11.9603 0.27434 12.9506 0.67442 13.853C1.85897 12.5881 4.636 11.703 7.87194 11.703Z" fill="#0084C3"/>
<path d="M7.87186 11.7095C11.0987 11.7095 13.8665 12.5878 15.0524 13.8421C15.4499 12.9477 15.6669 11.9614 15.6669 10.9284C15.6669 6.7991 12.176 3.37891 7.87186 3.37891C3.56773 3.37891 0.0742188 6.80043 0.0742188 10.9297C0.0742188 11.964 0.293871 12.9464 0.692644 13.8408C1.87327 12.5865 4.64376 11.7081 7.87186 11.7081V11.7095Z" fill="#0086C5"/>
<path d="M7.87047 11.7172C11.0881 11.7172 13.8495 12.5876 15.0314 13.8312C15.4275 12.9435 15.6446 11.9665 15.6446 10.9428C15.6446 6.84818 12.1628 3.44531 7.87047 3.44531C3.57811 3.44531 0.09375 6.84951 0.09375 10.9441C0.09375 11.9691 0.312094 12.9435 0.70956 13.8312C1.88757 12.5876 4.65022 11.7172 7.87047 11.7172Z" fill="#0088C6"/>
<path d="M7.87039 11.7276C11.0802 11.7276 13.8337 12.5913 15.013 13.8229C15.4079 12.9431 15.6249 11.9741 15.6249 10.9598C15.6249 6.90116 12.1523 3.51562 7.87039 3.51562C3.58849 3.51562 0.113281 6.9025 0.113281 10.9611C0.113281 11.9781 0.331625 12.9445 0.727783 13.8229C1.90318 12.5899 4.65929 11.7276 7.86909 11.7276H7.87039Z" fill="#008AC8"/>
<path d="M7.86901 11.7353C11.0696 11.7353 13.8166 12.591 14.992 13.8133C15.3855 12.9416 15.6026 11.9806 15.6026 10.9742C15.6026 6.95024 12.1391 3.58203 7.86901 3.58203C3.59887 3.58203 0.132812 6.95157 0.132812 10.9756C0.132812 11.9832 0.34985 12.9416 0.746008 13.8133C1.91748 12.591 4.66706 11.7353 7.86901 11.7353Z" fill="#008CCA"/>
<path d="M7.86697 11.7431C11.0598 11.7431 13.7989 12.5908 14.9717 13.8024C15.3652 12.9387 15.5809 11.9857 15.5809 10.9887C15.5809 6.99932 12.1266 3.64844 7.86697 3.64844C3.60729 3.64844 0.150391 7.00065 0.150391 10.99C0.150391 11.9883 0.367428 12.9387 0.762278 13.8024C1.93114 12.5908 4.67287 11.7431 7.86697 11.7431Z" fill="#008FCB"/>
<path d="M7.86754 11.7534C11.0512 11.7534 13.7838 12.5945 14.9539 13.7941C15.3462 12.9383 15.5606 11.9933 15.5606 11.0057C15.5606 7.05231 12.1154 3.71875 7.86754 3.71875C3.61963 3.71875 0.171875 7.05364 0.171875 11.007C0.171875 11.9973 0.388913 12.9383 0.782456 13.7954C1.9487 12.5945 4.68258 11.7547 7.86884 11.7547L7.86754 11.7534Z" fill="#0091CD"/>
<path d="M7.86681 11.7612C11.0426 11.7612 13.7673 12.5942 14.9336 13.7845C15.3245 12.9354 15.5389 11.9998 15.5389 11.0201C15.5389 7.10138 12.103 3.78516 7.8655 3.78516C3.62805 3.78516 0.189453 7.10272 0.189453 11.0214C0.189453 12.0024 0.405183 12.9354 0.797419 13.7845C1.95974 12.5942 4.68709 11.7612 7.8642 11.7612H7.86681Z" fill="#0093CF"/>
<path d="M7.86411 11.7676C11.0308 11.7676 13.749 12.5926 14.9126 13.7723C15.3022 12.9312 15.5166 12.0035 15.5166 11.0332C15.5166 7.15046 12.0898 3.85156 7.86411 3.85156C3.63843 3.85156 0.208984 7.15179 0.208984 11.0345C0.208984 12.0062 0.424714 12.9312 0.815642 13.7723C1.97535 12.5926 4.69485 11.7676 7.86411 11.7676Z" fill="#0095D0"/>
<path d="M7.86273 11.7793C11.0215 11.7793 13.7319 12.5976 14.8929 13.7653C15.2825 12.9322 15.4956 12.0125 15.4956 11.0515C15.4956 7.20345 12.0779 3.92188 7.86403 3.92188C3.65012 3.92188 0.228516 7.20478 0.228516 11.0528C0.228516 12.0165 0.442938 12.9335 0.833866 13.7666C1.99096 12.5976 4.70392 11.7806 7.86403 11.7806L7.86273 11.7793Z" fill="#0097D2"/>
<path d="M7.86265 11.787C11.0123 11.787 13.7161 12.5974 14.8732 13.7557C15.2615 12.9306 15.4746 12.0189 15.4746 11.0659C15.4746 7.25253 12.0661 3.98828 7.86265 3.98828C3.65919 3.98828 0.248047 7.25386 0.248047 11.0659C0.248047 12.0203 0.462469 12.9293 0.85209 13.7544C2.00657 12.5961 4.71169 11.7857 7.86265 11.7857V11.787Z" fill="#009AD4"/>
<path d="M7.86191 11.7934C11.0037 11.7934 13.6997 12.5958 14.8542 13.7435C15.2412 12.9251 15.4543 12.0227 15.4543 11.079C15.4543 7.3016 12.0549 4.05469 7.86321 4.05469C3.67152 4.05469 0.269531 7.30294 0.269531 11.0803C0.269531 12.0267 0.482647 12.9264 0.87096 13.7448C2.02152 12.5972 4.7201 11.7948 7.86321 11.7948L7.86191 11.7934Z" fill="#009CD6"/>
<path d="M7.86118 11.8025C10.9951 11.8025 13.6833 12.5983 14.8338 13.7339C15.2195 12.9235 15.4326 12.0291 15.4326 11.0934C15.4326 7.35068 12.0424 4.12109 7.86118 4.12109C3.67995 4.12109 0.287109 7.35068 0.287109 11.0934C0.287109 12.0305 0.500224 12.9222 0.887229 13.7326C2.03517 12.5956 4.72591 11.8012 7.86118 11.8012V11.8025Z" fill="#009ED7"/>
<path d="M7.85979 11.8115C10.9846 11.8115 13.6662 12.5993 14.8141 13.7256C15.1998 12.9232 15.4103 12.0368 15.4103 11.1104C15.4103 7.40234 12.0293 4.19141 7.85979 4.19141C3.69033 4.19141 0.306641 7.40367 0.306641 11.1118C0.306641 12.0395 0.518448 12.9232 0.905454 13.7256C2.05078 12.5993 4.73367 11.8115 7.8611 11.8115H7.85979Z" fill="#00A1D9"/>
<path d="M7.85971 11.8193C10.9767 11.8193 13.6504 12.599 14.7957 13.7147C15.1801 12.9203 15.3906 12.0432 15.3906 11.1249C15.3906 7.45275 12.0187 4.25781 7.85971 4.25781C3.70071 4.25781 0.326172 7.45275 0.326172 11.1262C0.326172 12.0459 0.537979 12.9216 0.923677 13.716C2.06508 12.6004 4.74144 11.8206 7.85971 11.8206V11.8193Z" fill="#00A3DB"/>
<path d="M7.85832 11.8284C10.9661 11.8284 13.6333 12.6015 14.7747 13.7051C15.1578 12.9174 15.3683 12.0496 15.3683 11.1393C15.3683 7.50182 12.0056 4.32422 7.85832 4.32422C3.71109 4.32422 0.345703 7.50182 0.345703 11.1393C0.345703 12.0496 0.556203 12.9174 0.940594 13.7038C2.07939 12.5988 4.7479 11.8271 7.85832 11.8271V11.8284Z" fill="#00A6DD"/>
<path d="M7.85629 11.8348C10.9563 11.8348 13.6169 12.5999 14.7544 13.6929C15.1362 12.9131 15.3467 12.0534 15.3467 11.1524C15.3467 7.54957 11.9931 4.39062 7.85629 4.39062C3.71951 4.39062 0.363281 7.5509 0.363281 11.1537C0.363281 12.0547 0.573781 12.9144 0.956865 13.6942C2.09304 12.5999 4.75501 11.8361 7.85629 11.8361V11.8348Z" fill="#00A8DF"/>
<path d="M7.85685 11.8451C10.9477 11.8451 13.6018 12.6022 14.7354 13.6859C15.1171 12.9141 15.3263 12.0624 15.3263 11.1707C15.3263 7.60389 11.9819 4.46094 7.85685 4.46094C3.73184 4.46094 0.384766 7.60389 0.384766 11.1707C0.384766 12.0637 0.595265 12.9141 0.977041 13.6859C2.10929 12.6022 4.76473 11.8451 7.85685 11.8451Z" fill="#00ABE1"/>
<path d="M7.85482 11.8529C10.9378 11.8529 13.5841 12.6033 14.715 13.675C15.0955 12.9112 15.3047 12.0675 15.3047 11.1838C15.3047 7.65164 11.9694 4.52734 7.85482 4.52734C3.74027 4.52734 0.402344 7.65297 0.402344 11.1851C0.402344 12.0688 0.611536 12.9112 0.993311 13.675C2.12295 12.602 4.77054 11.8529 7.85482 11.8529Z" fill="#00ADE3"/>
<path d="M7.85343 11.8607C10.9273 11.8607 13.567 12.6031 14.6953 13.6641C15.0745 12.9083 15.2824 12.0726 15.2824 11.1982C15.2824 7.70072 11.9562 4.59375 7.85343 4.59375C3.75065 4.59375 0.421875 7.70205 0.421875 11.1982C0.421875 12.0726 0.631067 12.907 1.01023 13.6641C2.13725 12.6017 4.777 11.8607 7.85343 11.8607Z" fill="#00B0E5"/>
<path d="M7.85466 11.871C10.9206 11.871 13.5525 12.6054 14.6769 13.6571C15.0561 12.908 15.2627 12.0816 15.2627 11.2165C15.2627 7.75503 11.9457 4.66406 7.85335 4.66406C3.76103 4.66406 0.441406 7.75503 0.441406 11.2165C0.441406 12.0829 0.649291 12.9093 1.02845 13.6571C2.15155 12.6054 4.78476 11.871 7.85204 11.871H7.85466Z" fill="#00B3E7"/>
<path d="M7.85196 11.8788C10.9088 11.8788 13.5341 12.6065 14.6559 13.6462C15.0338 12.9051 15.2404 12.0867 15.2404 11.2296C15.2404 7.80278 11.9325 4.73047 7.85196 4.73047C3.77141 4.73047 0.460938 7.80411 0.460938 11.2296C0.460938 12.0867 0.668823 12.9051 1.04668 13.6462C2.16716 12.6052 4.79252 11.8788 7.85196 11.8788Z" fill="#00B5E9"/>
<path d="M7.85188 11.8865C10.9009 11.8865 13.5184 12.6063 14.6363 13.6353C15.0128 12.9022 15.2194 12.0918 15.2194 11.2441C15.2194 7.85319 11.9207 4.79688 7.85188 4.79688C3.78309 4.79688 0.480469 7.85319 0.480469 11.2441C0.480469 12.0918 0.687046 12.9022 1.0649 13.6353C2.18277 12.6049 4.8016 11.8865 7.85188 11.8865Z" fill="#08B9EB"/>
<path d="M7.85049 11.8943C10.8903 11.8943 13.5013 12.606 14.6166 13.6257C14.9918 12.9006 15.1984 12.0982 15.1984 11.2585C15.1984 7.90227 11.9088 4.86328 7.85049 4.86328C3.79216 4.86328 0.5 7.90227 0.5 11.2585C0.5 12.0982 0.706577 12.8993 1.08312 13.6244C2.19707 12.6047 4.80936 11.8929 7.8518 11.8929L7.85049 11.8943Z" fill="#15BCED"/>
<path d="M7.85106 11.9046C10.883 11.9046 13.4862 12.6097 14.5988 13.6174C14.9741 12.8989 15.1793 12.1059 15.1793 11.2755C15.1793 7.95392 11.8989 4.93359 7.85237 4.93359C3.8058 4.93359 0.521484 7.95392 0.521484 11.2755C0.521484 12.1059 0.726754 12.8989 1.10199 13.6174C2.21333 12.6084 4.81777 11.9046 7.85106 11.9046Z" fill="#1DBFF0"/>
<path d="M7.84903 11.9124C10.8719 11.9124 13.4685 12.6095 14.5772 13.6065C14.9511 12.896 15.1564 12.111 15.1564 11.2899C15.1564 8.00433 11.8851 5 7.84903 5C3.81292 5 0.539062 8.003 0.539062 11.2899C0.539062 12.1123 0.744332 12.896 1.11826 13.6065C2.22698 12.6081 4.82358 11.9124 7.84903 11.9124Z" fill="#22C4F4"/>
<path d="M7.84964 11.9322C10.8685 11.9322 13.4612 12.6253 14.5686 13.6156C14.9413 12.9105 15.1465 12.1308 15.1465 11.3138C15.1465 8.04951 11.8792 5.0625 7.84964 5.0625C3.82007 5.0625 0.548828 8.04817 0.548828 11.3138C0.548828 12.1308 0.754098 12.9105 1.12672 13.6156C2.23413 12.624 4.82681 11.9322 7.84833 11.9322H7.84964Z" fill="#33C6F4"/>
<path d="M7.8483 11.9521C10.8633 11.9521 13.452 12.6398 14.5581 13.6248C14.9308 12.9237 15.1347 12.1493 15.1347 11.3376C15.1347 8.09468 11.8726 5.125 7.84699 5.125C3.82135 5.125 0.556641 8.09334 0.556641 11.3376C0.556641 12.1493 0.76191 12.9237 1.13453 13.6248C2.24064 12.6398 4.8307 11.9521 7.84699 11.9521H7.8483Z" fill="#40C7F4"/>
<path d="M7.84825 11.9706C10.8593 11.9706 13.4455 12.6543 14.5489 13.6327C14.9203 12.9356 15.1255 12.1665 15.1255 11.3614C15.1255 8.13985 11.8674 5.1875 7.84825 5.1875C3.82914 5.1875 0.568359 8.13852 0.568359 11.3614C0.568359 12.1678 0.772322 12.9369 1.14495 13.6327C2.24974 12.6543 4.83588 11.9706 7.84825 11.9706Z" fill="#4BC9F5"/>
<path d="M7.84886 11.9904C10.856 11.9904 13.4382 12.6689 14.5404 13.6419C14.9117 12.9501 15.1157 12.185 15.1157 11.3853C15.1157 8.18502 11.8614 5.25 7.84886 5.25C3.83629 5.25 0.578125 8.18369 0.578125 11.3853C0.578125 12.1864 0.782088 12.9501 1.1534 13.6419C2.25689 12.6702 4.83911 11.9918 7.84886 11.9904Z" fill="#55CAF5"/>
<path d="M7.84817 12.0116C10.8514 12.0116 13.4297 12.686 14.5319 13.6511C14.9019 12.9633 15.1058 12.2049 15.1058 11.4091C15.1058 8.23019 11.8568 5.3125 7.84817 5.3125C3.83952 5.3125 0.587891 8.23019 0.587891 11.4091C0.587891 12.2049 0.791853 12.9633 1.16317 13.6511C2.26404 12.686 4.84365 12.0116 7.84948 12.0116H7.84817Z" fill="#5DCCF5"/>
<path d="M7.84943 12.0275C10.8487 12.0275 13.4231 12.698 14.524 13.6563C14.894 12.9739 15.0979 12.2195 15.0979 11.4291C15.0979 8.27146 11.8528 5.37109 7.85074 5.37109C3.84863 5.37109 0.599609 8.27146 0.599609 11.4291C0.599609 12.2195 0.803572 12.9726 1.17358 13.6563C2.27315 12.698 4.85014 12.0275 7.85074 12.0275H7.84943Z" fill="#65CEF6"/>
<path d="M7.84809 12.05C10.8435 12.05 13.4139 12.7151 14.5135 13.6681C14.8822 12.9896 15.0861 12.2406 15.0861 11.4568C15.0861 8.32054 11.845 5.4375 7.84809 5.4375C3.85121 5.4375 0.607422 8.32054 0.607422 11.4568C0.607422 12.2419 0.811384 12.9896 1.18009 13.6681C2.27834 12.7151 4.85141 12.05 7.84809 12.05Z" fill="#6DCFF6"/>
<path d="M7.8487 12.0659C10.8388 12.0659 13.4067 12.727 14.5049 13.6734C14.8723 13.0003 15.0763 12.2552 15.0763 11.4768C15.0763 8.36181 11.8404 5.49609 7.8487 5.49609C3.85705 5.49609 0.617188 8.36181 0.617188 11.4768C0.617188 12.2565 0.82115 13.0003 1.18854 13.6734C2.2855 12.727 4.85464 12.0659 7.8474 12.0659H7.8487Z" fill="#74D1F6"/>
<path d="M7.84866 12.0857C10.8349 12.0857 13.4001 12.7429 14.4957 13.6826C14.8631 13.0134 15.0671 12.275 15.0671 11.5006C15.0671 8.40698 11.8351 5.55859 7.84996 5.55859C3.86485 5.55859 0.628906 8.40698 0.628906 11.5006C0.628906 12.275 0.831562 13.0134 1.20026 13.6826C2.29591 12.7429 4.86113 12.0871 7.84996 12.0857H7.84866Z" fill="#7BD3F7"/>
<path d="M7.84862 12.1056C10.8309 12.1056 13.3922 12.7574 14.4866 13.6904C14.8526 13.0266 15.0566 12.2922 15.0566 11.5245C15.0566 8.45215 11.8298 5.62109 7.84862 5.62109C3.86743 5.62109 0.636719 8.45215 0.636719 11.5245C0.636719 12.2935 0.839374 13.0266 1.20677 13.6904C2.30111 12.7574 4.86371 12.1056 7.84862 12.1056Z" fill="#81D4F7"/>
<path d="M7.84793 12.1254C10.8263 12.1254 13.3837 12.7732 14.4767 13.6996C14.8428 13.0398 15.0455 12.3107 15.0455 11.5483C15.0455 8.49732 11.8226 5.68359 7.84793 5.68359C3.87327 5.68359 0.646484 8.49732 0.646484 11.5483C0.646484 12.3121 0.849139 13.0398 1.21523 13.6996C2.30826 12.7732 4.86694 12.1254 7.84793 12.1254Z" fill="#88D6F8"/>
<path d="M7.84919 12.1453C10.8236 12.1453 13.3771 12.7891 14.4688 13.7088C14.8336 13.053 15.0376 12.3292 15.0376 11.5722C15.0376 8.54249 11.8186 5.74609 7.84919 5.74609C3.87976 5.74609 0.658203 8.54249 0.658203 11.5722C0.658203 12.3319 0.860859 13.053 1.22695 13.7088C2.31867 12.7891 4.87343 12.1453 7.8505 12.1453H7.84919Z" fill="#8ED8F8"/>
<path d="M7.8498 12.1638C10.8203 12.1638 13.3699 12.8023 14.4603 13.7166C14.8251 13.0662 15.0277 12.3477 15.0277 11.5947C15.0277 8.58633 11.814 5.80859 7.8498 5.80859C3.88561 5.80859 0.667969 8.58767 0.667969 11.5947C0.667969 12.3491 0.870624 13.0648 1.2354 13.7166C2.32582 12.8036 4.87666 12.1651 7.8498 12.1638Z" fill="#95DAF8"/>
<path d="M7.84911 12.1862C10.8157 12.1862 13.3613 12.8207 14.4504 13.7284C14.8139 13.0819 15.0166 12.3688 15.0166 11.6224C15.0166 8.63541 11.8068 5.875 7.84911 5.875C3.89145 5.875 0.677734 8.63675 0.677734 11.6224C0.677734 12.3715 0.879082 13.0833 1.24386 13.7284C2.33297 12.8207 4.88119 12.1876 7.84911 12.1862Z" fill="#9BDCF9"/>
<path d="M7.84972 12.2035C10.8124 12.2035 13.3554 12.834 14.4419 13.7337C14.8054 13.0925 15.008 12.3834 15.008 11.6424C15.008 8.67668 11.8021 5.93359 7.84972 5.93359C3.89729 5.93359 0.6875 8.67801 0.6875 11.6424C0.6875 12.3861 0.888848 13.0925 1.25363 13.7337C2.34143 12.8326 4.88573 12.2035 7.84972 12.2035Z" fill="#A1DEF9"/>
<path d="M7.84903 12.2234C10.8065 12.2234 13.3469 12.8485 14.432 13.7428C14.7942 13.1057 14.9969 12.4033 14.9969 11.6662C14.9969 8.72185 11.7962 5.99609 7.84903 5.99609C3.90183 5.99609 0.697266 8.72319 0.697266 11.6662C0.697266 12.4046 0.898613 13.1057 1.26208 13.7428C2.34727 12.8485 4.88896 12.2234 7.84903 12.2234Z" fill="#A7DFF9"/>
<path d="M7.84964 12.2419C10.8032 12.2419 13.3396 12.863 14.4235 13.7507C14.7857 13.1189 14.987 12.4205 14.987 11.6901C14.987 8.76836 11.7903 6.05859 7.84964 6.05859C3.90898 6.05859 0.707031 8.76836 0.707031 11.6901C0.707031 12.4231 0.908379 13.1189 1.27054 13.7507C2.35442 12.863 4.89218 12.2432 7.84964 12.2419Z" fill="#ADE1FA"/>
<path d="M7.84895 12.2617C10.7986 12.2617 13.3311 12.8788 14.4137 13.7599C14.7745 13.1321 14.9772 12.439 14.9772 11.7139C14.9772 8.81353 11.7844 6.12109 7.84895 6.12109C3.91352 6.12109 0.716797 8.81353 0.716797 11.7139C0.716797 12.4417 0.918144 13.1321 1.279 13.7599C2.36157 12.8788 4.89672 12.263 7.84895 12.2617Z" fill="#B3E3FA"/>
<path d="M7.84956 12.279C10.7952 12.279 13.3239 12.8908 14.4051 13.7652C14.766 13.1414 14.9673 12.4536 14.9673 11.7338C14.9673 8.8548 11.7798 6.17969 7.84956 6.17969C3.91936 6.17969 0.726562 8.8548 0.726562 11.7338C0.726562 12.4563 0.927909 13.1414 1.28877 13.7652C2.37003 12.8908 4.90126 12.279 7.84956 12.279Z" fill="#B9E5FB"/>
<path d="M7.84822 12.2988C10.79 12.2988 13.316 12.9066 14.3946 13.7743C14.7542 13.1559 14.9555 12.4734 14.9555 11.7577C14.9555 8.89997 11.7719 6.24219 7.84691 6.24219C3.92194 6.24219 0.734375 8.89997 0.734375 11.7577C0.734375 12.4748 0.934415 13.1546 1.29527 13.7743C2.37523 12.9066 4.90253 12.2988 7.84691 12.2988H7.84822Z" fill="#BFE7FB"/>
<path d="M7.84948 12.3173C10.7873 12.3173 13.3094 12.9211 14.3867 13.7822C14.745 13.1677 14.9476 12.4906 14.9476 11.7815C14.9476 8.94514 11.7679 6.30469 7.84948 6.30469C3.93105 6.30469 0.746094 8.94514 0.746094 11.7815C0.746094 12.4933 0.946134 13.1691 1.30568 13.7822C2.38433 12.9198 4.90771 12.3187 7.84817 12.3173H7.84948Z" fill="#C4E9FB"/>
<path d="M7.84878 12.3372C10.7827 12.3372 13.3009 12.9357 14.3769 13.7914C14.7351 13.1822 14.9365 12.5091 14.9365 11.8054C14.9365 8.99031 11.762 6.36719 7.84878 6.36719C3.93558 6.36719 0.755859 8.99031 0.755859 11.8054C0.755859 12.5118 0.955899 13.1822 1.31545 13.7914C2.39279 12.9357 4.91356 12.3385 7.84878 12.3372Z" fill="#CAEBFC"/>
<path d="M7.84809 12.361C10.7781 12.361 13.2923 12.9554 14.3684 13.8045C14.7253 13.1993 14.9266 12.5316 14.9266 11.8331C14.9266 9.03939 11.7561 6.43359 7.84809 6.43359C3.94012 6.43359 0.765625 9.03939 0.765625 11.8331C0.765625 12.5356 0.965666 13.1993 1.32391 13.8045C2.39994 12.9554 4.91679 12.3623 7.8494 12.361H7.84809Z" fill="#CFEDFC"/>
<path d="M7.84935 12.3769C10.7741 12.3769 13.2857 12.966 14.3605 13.8084C14.7174 13.2086 14.9187 12.5462 14.9187 11.8531C14.9187 9.08066 11.7521 6.49219 7.85066 6.49219C3.94922 6.49219 0.777344 9.08066 0.777344 11.8531C0.777344 12.5502 0.977384 13.2086 1.33432 13.8084C2.40904 12.966 4.92197 12.3769 7.85066 12.3769H7.84935Z" fill="#D5EFFC"/>
<path d="M7.84801 12.3967C10.7689 12.3967 13.2765 12.9819 14.35 13.8176C14.7056 13.2218 14.9069 12.5647 14.9069 11.8769C14.9069 9.12583 11.7455 6.55469 7.84801 6.55469C3.9505 6.55469 0.785156 9.12583 0.785156 11.8769C0.785156 12.5687 0.983889 13.2218 1.34082 13.8176C2.41424 12.9819 4.92324 12.3981 7.84801 12.3967Z" fill="#DBF1FD"/>
<path d="M7.84862 12.4166C10.7655 12.4166 13.2706 12.9977 14.3414 13.8268C14.6971 13.235 14.8971 12.5832 14.8971 11.9008C14.8971 9.171 11.7396 6.61719 7.84862 6.61719C3.95765 6.61719 0.794922 9.171 0.794922 11.9008C0.794922 12.5872 0.993655 13.235 1.35059 13.8268C2.4227 12.9977 4.92908 12.4179 7.84862 12.4166Z" fill="#E0F3FD"/>
<path d="M7.84858 12.4364C10.7616 12.4364 13.2627 13.0122 14.3322 13.836C14.6865 13.2495 14.8879 12.6017 14.8879 11.9246C14.8879 9.21617 11.7343 6.67969 7.84989 6.67969C3.96545 6.67969 0.806641 9.21617 0.806641 11.9246C0.806641 12.6057 1.00537 13.2482 1.361 13.836C2.4305 13.0136 4.93427 12.4378 7.84989 12.4364H7.84858Z" fill="#E6F5FD"/>
<path d="M7.84854 12.4549C10.7576 12.4549 13.2549 13.0268 14.323 13.8438C14.6774 13.2613 14.8774 12.6202 14.8774 11.9485C14.8774 9.26135 11.7291 6.74219 7.84854 6.74219C3.96803 6.74219 0.814453 9.26135 0.814453 11.9485C0.814453 12.6242 1.01319 13.2627 1.3675 13.8438C2.43569 13.0281 4.93554 12.4563 7.84724 12.4549H7.84854Z" fill="#EBF7FE"/>
<path d="M7.8498 12.4761C10.755 12.4761 13.2483 13.0439 14.3152 13.853C14.6682 13.2759 14.8682 12.6387 14.8682 11.9723C14.8682 9.30652 11.7238 6.80469 7.8498 6.80469C3.97582 6.80469 0.826172 9.30652 0.826172 11.9723C0.826172 12.6427 1.0249 13.2759 1.37922 13.853C2.44611 13.0426 4.94203 12.4775 7.8498 12.4761Z" fill="#F1FAFE"/>
<path d="M7.84846 12.4921C10.7497 12.4921 13.2391 13.0546 14.3047 13.8583C14.6577 13.2851 14.8577 12.6534 14.8577 11.9922C14.8577 9.34779 11.7185 6.86328 7.84846 6.86328C3.9784 6.86328 0.833984 9.34779 0.833984 11.9922C0.833984 12.6573 1.03272 13.2851 1.38573 13.8583C2.4513 13.0546 4.94461 12.4934 7.84846 12.4921Z" fill="#F7FCFE"/>
<path d="M7.84972 12.5145C10.747 12.5145 13.2325 13.073 14.2968 13.87C14.6485 13.3022 14.8485 12.6758 14.8485 12.02C14.8485 9.39687 11.7132 6.92969 7.84972 6.92969C3.9862 6.92969 0.845703 9.39687 0.845703 12.02C0.845703 12.6798 1.04313 13.3022 1.39614 13.87C2.46041 13.073 4.94979 12.5158 7.84972 12.5145Z" fill="white"/>
</g>
<path d="M7.85032 9.89453C5.31256 9.89453 2.95914 10.3331 1.01758 11.0741C2.18121 13.7399 4.80134 15.5966 7.85163 15.5966C10.9019 15.5966 13.5168 13.7399 14.6844 11.0741C12.7402 10.3331 10.3868 9.89453 7.85163 9.89453H7.85032Z" fill="#0078BA"/>
</svg>
