<svg width="143" height="24" viewBox="0 0 143 24" fill="none" xmlns="http://www.w3.org/2000/svg">
<path d="M42.1498 5.03993L39.3608 12.4296L38.2699 5.05155L35.5853 5.06316L31.6822 12.4567L31.7054 5.07477L28.3632 5.09026L28.3555 18.9522L31.6164 18.9445L35.771 11.1174L36.9779 18.9212L40.2389 18.9096L45.492 5.02832L42.1498 5.03993Z" fill="white"/>
<path d="M51.6006 4.8929C49.0436 4.90065 45.7633 6.13162 44.6493 11.9342C43.5391 17.7329 46.3552 18.9406 48.9082 18.9329C51.4613 18.9213 54.7455 17.6942 55.8557 11.8916C56.9659 6.08903 54.1537 4.88129 51.5967 4.8929M49.4537 16.0684C48.974 16.0723 47.5041 16.0761 48.2971 11.9187C49.0939 7.76516 50.5677 7.75742 51.0474 7.75355C51.5348 7.75355 53.0009 7.74968 52.2079 11.9032C51.411 16.0568 49.9411 16.0645 49.4537 16.0645" fill="white"/>
<path d="M64.0717 4.8929C61.5148 4.90065 58.2383 6.13162 57.1204 11.9342C56.0141 17.7329 58.8302 18.9406 61.3794 18.9329C63.9363 18.9252 67.2167 17.6942 68.3269 11.8916C69.4409 6.09291 66.6248 4.88129 64.0679 4.8929M61.9248 16.0684C61.4452 16.0723 59.9713 16.0761 60.7682 11.9187C61.5651 7.76516 63.035 7.75742 63.5186 7.75355C64.0021 7.75355 65.4721 7.74968 64.6791 11.9032C63.8822 16.0568 62.4084 16.0645 61.9248 16.0645" fill="white"/>
<path d="M77.2625 13.4749C78.9452 12.5226 80.0593 10.6723 80.0593 8.2839C80.0593 4.74583 75.8544 5.09809 75.8544 5.09809H71.491L68.582 18.8942H71.8353L72.7946 14.1794H74.0634C74.4541 14.2452 74.9918 14.4813 75.0692 15.2555C75.193 16.4981 75.3786 18.9523 75.3786 18.9523H78.6512C78.6512 18.9523 78.3611 15.5845 78.2799 15.0736C78.1986 14.5665 78.04 13.8581 77.2702 13.4749M74.2104 7.65293C75.1001 7.65293 77.2277 6.94067 76.8602 9.46067C76.4927 11.9807 73.4484 11.6555 73.4484 11.6555L74.2104 7.64906V7.65293Z" fill="white"/>
<path d="M80.0156 18.96L83.6866 18.9484L86.3442 5.08643L82.6693 5.09804L80.0156 18.96Z" fill="white"/>
<path d="M142.215 5.04004H137.971L132.722 10.142L133.716 5.04004H130.014L127.271 19.0026H130.981L132.115 13.2117L135.391 19.0026H139.901L135.449 11.5239L142.215 5.04004Z" fill="white"/>
<path d="M102.073 8.70205C102.51 6.43367 101.199 5.0827 98.5646 5.09431L92.2708 5.1098L89.6172 18.9562L95.9148 18.9408C99.1061 18.933 100.99 17.5279 101.516 14.7756C101.81 13.2427 101.427 12.0737 100.437 11.4311C101.303 10.7692 101.853 9.8556 102.073 8.70593M98.1855 14.613C98.0191 15.4995 97.5936 16.0492 96.0386 16.1343V16.1421H95.9573C95.8374 16.1459 95.7175 16.1537 95.586 16.1537H95.4351V16.1421H93.5977L94.2011 12.995H96.1894C98.5027 12.9833 98.2977 14.044 98.1816 14.613M98.6535 9.07754C98.4872 9.94464 98.1932 10.2311 97.2184 10.2969H94.6963L95.1605 7.89689H97.1952C98.7425 7.88915 98.8237 8.19883 98.6535 9.08141" fill="white"/>
<path d="M124.897 5.08643L123.466 13.0142L120.584 5.08643H117.095L114.418 18.96L117.66 18.8748L119.246 10.4787L122.135 18.96H125.408L128.085 5.08643H124.897Z" fill="white"/>
<path d="M108.395 5.08643L100.5 18.96H104.225L105.691 16.3161L109.973 16.3471L110.279 18.96H113.733L111.625 5.08643H108.391H108.395ZM107.169 13.6761L109.258 9.58836L109.753 13.68H107.169V13.6761Z" fill="white"/>
<path d="M24 12C24 18.6258 18.6238 24 12.004 24C5.38421 24 0 18.6238 0 12C0 5.37621 5.37421 0 12.004 0C18.6338 0 24 5.37621 24 12Z" fill="white"/>
<path d="M12.0047 23.3941C18.3206 23.3941 23.4429 18.2738 23.4429 11.9599C23.4429 5.64602 18.3206 0.521729 12.0047 0.521729C5.68879 0.521729 0.5625 5.64202 0.5625 11.9599C0.5625 18.2778 5.68479 23.3941 12.0047 23.3941Z" fill="#0078BA"/>
<mask id="mask0_310_3200" style="mask-type:alpha" maskUnits="userSpaceOnUse" x="0" y="0" width="24" height="24">
<path d="M12.0047 23.3941C18.3206 23.3941 23.4429 18.2738 23.4429 11.9599C23.4429 5.64602 18.3206 0.521729 12.0047 0.521729C5.68879 0.521729 0.5625 5.64202 0.5625 11.9599C0.5625 18.2778 5.68479 23.3941 12.0047 23.3941Z" fill="#0078BA"/>
</mask>
<g mask="url(#mask0_310_3200)">
<path d="M12.0482 17.4802C17.0725 17.4802 21.3811 18.8777 23.2285 20.869C23.8463 19.4455 24.1842 17.878 24.1842 16.2386C24.1842 9.67478 18.748 4.36255 12.0462 4.36255C5.34444 4.36255 -0.09375 9.67878 -0.09375 16.2406C-0.09375 17.884 0.248136 19.4455 0.867929 20.869C2.70532 18.8757 7.01988 17.4802 12.0462 17.4802H12.0482Z" fill="#0078BA"/>
<path d="M12.0475 17.4923C17.0598 17.4923 21.3564 18.8778 23.1997 20.8551C23.8155 19.4436 24.1534 17.8881 24.1534 16.2627C24.1534 9.75283 18.7312 4.4646 12.0475 4.4646C5.36369 4.4646 -0.0625 9.75484 -0.0625 16.2647C-0.0625 17.8961 0.277387 19.4436 0.897181 20.8551C2.73057 18.8778 7.03313 17.4923 12.0475 17.4923V17.4923Z" fill="#007ABB"/>
<path d="M12.0467 17.5041C17.045 17.5041 21.3316 18.8777 23.171 20.839C23.7848 19.4395 24.1226 17.896 24.1226 16.2825C24.1226 9.8247 18.7144 4.56445 12.0487 4.56445C5.3829 4.56445 -0.0292969 9.8287 -0.0292969 16.2865C-0.0292969 17.904 0.31059 19.4395 0.928384 20.839C2.75777 18.8777 7.04834 17.5041 12.0507 17.5041H12.0467Z" fill="#007CBD"/>
<path d="M12.0441 17.5182C17.0304 17.5182 21.305 18.8818 23.1384 20.8251C23.7522 19.4376 24.0881 17.9061 24.0881 16.3066C24.0881 9.90276 18.6939 4.6665 12.0441 4.6665C5.39429 4.6665 -0.00390625 9.90476 -0.00390625 16.3086C-0.00390625 17.9121 0.33598 19.4356 0.951775 20.8251C2.77717 18.8798 7.05774 17.5182 12.0441 17.5182Z" fill="#007EBE"/>
<path d="M12.0413 17.5301C17.0137 17.5301 21.2803 18.8816 23.1076 20.811C23.7194 19.4334 24.0553 17.9159 24.0553 16.3285C24.0553 9.97657 18.6751 4.76831 12.0433 4.76831C5.41155 4.76831 0.0273438 9.98057 0.0273438 16.3325C0.0273438 17.9239 0.36523 19.4354 0.979025 20.811C2.79842 18.8816 7.06899 17.5301 12.0433 17.5301H12.0413Z" fill="#0080C0"/>
<path d="M12.0427 17.5422C17.003 17.5422 21.2576 18.8817 23.079 20.7951C23.6888 19.4296 24.0227 17.9261 24.0227 16.3506C24.0227 10.0507 18.6565 4.86841 12.0407 4.86841C5.4249 4.86841 0.0546875 10.0527 0.0546875 16.3526C0.0546875 17.9301 0.392575 19.4296 1.00437 20.7951C2.81977 18.8817 7.07835 17.5422 12.0407 17.5422H12.0427Z" fill="#0082C2"/>
<path d="M12.04 17.5563C16.9863 17.5563 21.2309 18.8858 23.0483 20.7812C23.6561 19.4276 23.99 17.9361 23.99 16.3747C23.99 10.1287 18.6378 4.97046 12.04 4.97046C5.44215 4.97046 0.0859375 10.1287 0.0859375 16.3767C0.0859375 17.9421 0.421827 19.4276 1.03362 20.7812C2.84502 18.8838 7.0916 17.5563 12.04 17.5563V17.5563Z" fill="#0084C3"/>
<path d="M12.0373 17.5681C16.9717 17.5681 21.2042 18.8857 23.0176 20.767C23.6254 19.4255 23.9573 17.946 23.9573 16.3965C23.9573 10.2026 18.6191 5.07227 12.0373 5.07227C5.4555 5.07227 0.113281 10.2046 0.113281 16.3985C0.113281 17.95 0.44917 19.4235 1.05897 20.765C2.86436 18.8837 7.10095 17.5661 12.0373 17.5661V17.5681Z" fill="#0086C5"/>
<path d="M12.0385 17.5802C16.9589 17.5802 21.1815 18.8858 22.9889 20.7512C23.5947 19.4196 23.9266 17.9541 23.9266 16.4186C23.9266 10.2767 18.6023 5.17236 12.0385 5.17236C5.47471 5.17236 0.146484 10.2787 0.146484 16.4206C0.146484 17.9581 0.480373 19.4196 1.08817 20.7512C2.88957 18.8858 7.11416 17.5802 12.0385 17.5802Z" fill="#0088C6"/>
<path d="M12.0359 17.5943C16.9442 17.5943 21.1548 18.8898 22.9582 20.7372C23.562 19.4177 23.8939 17.9641 23.8939 16.4426C23.8939 10.3547 18.5837 5.27637 12.0359 5.27637C5.48806 5.27637 0.173828 10.3567 0.173828 16.4446C0.173828 17.9701 0.507716 19.4197 1.11351 20.7372C2.91091 18.8878 7.12551 17.5943 12.0339 17.5943H12.0359Z" fill="#008AC8"/>
<path d="M12.0351 17.6061C16.9295 17.6061 21.1301 18.8897 22.9275 20.7231C23.5293 19.4155 23.8612 17.974 23.8612 16.4645C23.8612 10.4285 18.565 5.37622 12.0351 5.37622C5.50531 5.37622 0.205078 10.4305 0.205078 16.4665C0.205078 17.978 0.536968 19.4155 1.14277 20.7231C2.93417 18.8897 7.13877 17.6061 12.0351 17.6061V17.6061Z" fill="#008CCA"/>
<path d="M12.0325 17.618C16.9149 17.618 21.1035 18.8896 22.8969 20.707C23.4987 19.4114 23.8286 17.9819 23.8286 16.4864C23.8286 10.5024 18.5463 5.47607 12.0325 5.47607C5.51866 5.47607 0.232422 10.5044 0.232422 16.4884C0.232422 17.9859 0.564311 19.4114 1.16811 20.707C2.95551 18.8896 7.14811 17.618 12.0325 17.618V17.618Z" fill="#008FCB"/>
<path d="M12.0317 17.6321C16.9001 17.6321 21.0787 18.8936 22.8681 20.693C23.4679 19.4095 23.7958 17.9919 23.7958 16.5104C23.7958 10.5804 18.5276 5.58008 12.0317 5.58008C5.53591 5.58008 0.263672 10.5824 0.263672 16.5124C0.263672 17.9979 0.595562 19.4095 1.19736 20.695C2.98077 18.8936 7.16137 17.6341 12.0337 17.6341L12.0317 17.6321Z" fill="#0091CD"/>
<path d="M12.0311 17.6442C16.8875 17.6442 21.0541 18.8938 22.8375 20.6792C23.4353 19.4056 23.7632 18.0021 23.7632 16.5326C23.7632 10.6545 18.5089 5.68018 12.0291 5.68018C5.54926 5.68018 0.291016 10.6565 0.291016 16.5346C0.291016 18.0061 0.620906 19.4056 1.22071 20.6792C2.99811 18.8938 7.16872 17.6442 12.0271 17.6442H12.0311Z" fill="#0093CF"/>
<path d="M12.0284 17.656C16.8707 17.656 21.0274 18.8936 22.8068 20.663C23.4026 19.4014 23.7305 18.0099 23.7305 16.5544C23.7305 10.7303 18.4902 5.78198 12.0284 5.78198C5.56652 5.78198 0.322266 10.7323 0.322266 16.5564C0.322266 18.0139 0.652156 19.4014 1.24996 20.663C3.02336 18.8936 7.18198 17.656 12.0284 17.656Z" fill="#0095D0"/>
<path d="M12.0257 17.6701C16.8561 17.6701 21.0007 18.8977 22.7761 20.6491C23.3719 19.3995 23.6978 18.02 23.6978 16.5785C23.6978 10.8064 18.4715 5.88403 12.0277 5.88403C5.58382 5.88403 0.351562 10.8084 0.351562 16.5805C0.351562 18.026 0.679454 19.4015 1.27725 20.6511C3.04666 18.8977 7.19528 17.6721 12.0277 17.6721L12.0257 17.6701Z" fill="#0097D2"/>
<path d="M12.0269 17.6822C16.8433 17.6822 20.9779 18.8978 22.7474 20.6352C23.3412 19.3977 23.667 18.0301 23.667 16.6006C23.667 10.8805 18.4548 5.98413 12.0269 5.98413C5.59907 5.98413 0.382812 10.8825 0.382812 16.6006C0.382812 18.0321 0.710704 19.3957 1.3065 20.6332C3.07192 18.8958 7.20854 17.6802 12.0269 17.6802V17.6822Z" fill="#009AD4"/>
<path d="M12.0242 17.6941C16.8286 17.6941 20.9512 18.8977 22.7166 20.6191C23.3084 19.3915 23.6343 18.038 23.6343 16.6224C23.6343 10.9563 18.4361 6.08594 12.0262 6.08594C5.61633 6.08594 0.414062 10.9583 0.414062 16.6244C0.414062 18.044 0.739955 19.3935 1.33376 20.6211C3.09317 18.8997 7.21979 17.6961 12.0262 17.6961L12.0242 17.6941Z" fill="#009CD6"/>
<path d="M12.0216 17.7082C16.814 17.7082 20.9246 18.9018 22.684 20.6052C23.2738 19.3896 23.5997 18.0481 23.5997 16.6445C23.5997 11.0304 18.4155 6.18604 12.0216 6.18604C5.62772 6.18604 0.439453 11.0304 0.439453 16.6445C0.439453 18.0501 0.765344 19.3876 1.35715 20.6032C3.11256 18.8978 7.22719 17.7062 12.0216 17.7062V17.7082Z" fill="#009ED7"/>
<path d="M12.0228 17.7202C16.8012 17.7202 20.9018 18.9018 22.6573 20.5913C23.2471 19.3877 23.569 18.0581 23.569 16.6686C23.569 11.1064 18.3987 6.29004 12.0228 6.29004C5.64693 6.29004 0.472656 11.1084 0.472656 16.6706C0.472656 18.0621 0.796549 19.3877 1.38835 20.5913C3.13977 18.9018 7.2424 17.7202 12.0248 17.7202H12.0228Z" fill="#00A1D9"/>
<path d="M12.0202 17.7321C16.7866 17.7321 20.8752 18.9017 22.6266 20.5752C23.2144 19.3836 23.5363 18.068 23.5363 16.6905C23.5363 11.1823 18.38 6.38989 12.0202 6.38989C5.66028 6.38989 0.5 11.1823 0.5 16.6925C0.5 18.072 0.823892 19.3856 1.4137 20.5772C3.15911 18.9037 7.25175 17.7341 12.0202 17.7341V17.7321Z" fill="#00A3DB"/>
<path d="M12.0175 17.746C16.7699 17.746 20.8485 18.9056 22.5939 20.5611C23.1797 19.3794 23.5016 18.0779 23.5016 16.7123C23.5016 11.2562 18.3594 6.48975 12.0175 6.48975C5.67558 6.48975 0.529297 11.2562 0.529297 16.7123C0.529297 18.0779 0.85119 19.3794 1.43899 20.5591C3.18041 18.9016 7.26105 17.744 12.0175 17.744V17.746Z" fill="#00A6DD"/>
<path d="M12.0168 17.7581C16.7572 17.7581 20.8258 18.9057 22.5653 20.5451C23.1491 19.3755 23.471 18.086 23.471 16.7344C23.471 11.3302 18.3427 6.5918 12.0168 6.5918C5.69088 6.5918 0.558594 11.3322 0.558594 16.7364C0.558594 18.088 0.880487 19.3775 1.46629 20.5471C3.20371 18.9057 7.27435 17.7601 12.0168 17.7601V17.7581Z" fill="#00A8DF"/>
<path d="M12.016 17.7702C16.7425 17.7702 20.8011 18.9058 22.5345 20.5312C23.1183 19.3736 23.4382 18.096 23.4382 16.7585C23.4382 11.4083 18.3239 6.69385 12.016 6.69385C5.70814 6.69385 0.589844 11.4083 0.589844 16.7585C0.589844 18.098 0.911736 19.3736 1.49554 20.5312C3.22696 18.9058 7.28761 17.7702 12.016 17.7702V17.7702Z" fill="#00ABE1"/>
<path d="M12.0134 17.784C16.7278 17.784 20.7745 18.9096 22.5039 20.5171C23.0857 19.3715 23.4056 18.1059 23.4056 16.7803C23.4056 11.4821 18.3053 6.79565 12.0134 6.79565C5.72149 6.79565 0.617188 11.4841 0.617188 16.7823C0.617188 18.1079 0.93708 19.3715 1.52089 20.5171C3.24831 18.9076 7.29696 17.784 12.0134 17.784Z" fill="#00ADE3"/>
<path d="M12.0126 17.7961C16.7131 17.7961 20.7497 18.9097 22.4752 20.5012C23.055 19.3676 23.3729 18.114 23.3729 16.8025C23.3729 11.5562 18.2866 6.89575 12.0126 6.89575C5.73874 6.89575 0.648438 11.5582 0.648438 16.8025C0.648438 18.114 0.968331 19.3656 1.54814 20.5012C3.27156 18.9078 7.30822 17.7961 12.0126 17.7961V17.7961Z" fill="#00B0E5"/>
<path d="M12.012 17.808C16.7004 17.808 20.7251 18.9096 22.4445 20.4871C23.0243 19.3634 23.3402 18.1239 23.3402 16.8263C23.3402 11.634 18.2679 6.99756 12.01 6.99756C5.75209 6.99756 0.675781 11.634 0.675781 16.8263C0.675781 18.1258 0.993675 19.3654 1.57348 20.4871C3.29091 18.9096 7.31757 17.808 12.008 17.808H12.012Z" fill="#00B3E7"/>
<path d="M12.0093 17.822C16.6837 17.822 20.6984 18.9137 22.4138 20.4732C22.9916 19.3615 23.3075 18.1339 23.3075 16.8484C23.3075 11.7081 18.2492 7.09961 12.0093 7.09961C5.76934 7.09961 0.707031 11.7101 0.707031 16.8484C0.707031 18.1339 1.02493 19.3615 1.60273 20.4732C3.31616 18.9117 7.33082 17.822 12.0093 17.822Z" fill="#00B5E9"/>
<path d="M12.0086 17.8342C16.671 17.8342 20.6737 18.9138 22.3831 20.4573C22.9589 19.3577 23.2748 18.1421 23.2748 16.8705C23.2748 11.7842 18.2305 7.19971 12.0086 7.19971C5.78664 7.19971 0.736328 11.7842 0.736328 16.8705C0.736328 18.1421 1.05222 19.3577 1.63003 20.4573C3.33946 18.9118 7.34413 17.8342 12.0086 17.8342V17.8342Z" fill="#08B9EB"/>
<path d="M12.0059 17.846C16.6543 17.846 20.647 18.9137 22.3524 20.4432C22.9262 19.3555 23.2421 18.1519 23.2421 16.8924C23.2421 11.858 18.2118 7.29956 12.0059 7.29956C5.79995 7.29956 0.765625 11.858 0.765625 16.8924C0.765625 18.1519 1.08152 19.3535 1.65733 20.4412C3.36076 18.9117 7.35543 17.844 12.0079 17.844L12.0059 17.846Z" fill="#15BCED"/>
<path d="M12.0071 17.8601C16.6435 17.8601 20.6242 18.9177 22.3257 20.4292C22.8995 19.3516 23.2134 18.162 23.2134 16.9164C23.2134 11.9341 18.197 7.40356 12.0091 7.40356C5.82115 7.40356 0.798828 11.9341 0.798828 16.9164C0.798828 18.162 1.11272 19.3516 1.68653 20.4292C3.38596 18.9157 7.36864 17.8601 12.0071 17.8601V17.8601Z" fill="#1DBFF0"/>
<path d="M12.0044 17.872C16.6269 17.872 20.5976 18.9176 22.293 20.4131C22.8648 19.3475 23.1787 18.1699 23.1787 16.9383C23.1787 12.0099 18.1764 7.50342 12.0044 7.50342C5.8325 7.50342 0.826172 12.0079 0.826172 16.9383C0.826172 18.1719 1.14007 19.3475 1.71188 20.4131C3.40731 18.9156 7.37799 17.872 12.0044 17.872Z" fill="#22C4F4"/>
<path d="M12.0041 17.902C16.6206 17.902 20.5853 18.9416 22.2787 20.4271C22.8485 19.3695 23.1624 18.1999 23.1624 16.9743C23.1624 12.0779 18.1661 7.59741 12.0041 7.59741C5.84218 7.59741 0.839844 12.0759 0.839844 16.9743C0.839844 18.1999 1.15374 19.3695 1.72355 20.4271C3.41698 18.9396 7.38166 17.902 12.0021 17.902H12.0041Z" fill="#33C6F4"/>
<path d="M12.0038 17.93C16.6143 17.93 20.5729 18.9617 22.2644 20.4392C22.8342 19.3875 23.1461 18.2259 23.1461 17.0083C23.1461 12.144 18.1577 7.68945 12.0018 7.68945C5.84585 7.68945 0.853516 12.142 0.853516 17.0083C0.853516 18.2259 1.16741 19.3875 1.73722 20.4392C3.42866 18.9617 7.38934 17.93 12.0018 17.93H12.0038Z" fill="#40C7F4"/>
<path d="M12.0034 17.96C16.6078 17.96 20.5625 18.9857 22.25 20.4532C22.8178 19.4075 23.1317 18.2539 23.1317 17.0463C23.1317 12.2139 18.1493 7.7854 12.0034 7.7854C5.85743 7.7854 0.871094 12.2119 0.871094 17.0463C0.871094 18.2559 1.18299 19.4095 1.7528 20.4532C3.44224 18.9857 7.39692 17.96 12.0034 17.96Z" fill="#4BC9F5"/>
<path d="M12.005 17.9881C16.6035 17.9881 20.5522 19.0057 22.2376 20.4652C22.8054 19.4276 23.1173 18.28 23.1173 17.0804C23.1173 12.28 18.141 7.87744 12.005 7.87744C5.86906 7.87744 0.886719 12.278 0.886719 17.0804C0.886719 18.282 1.19862 19.4276 1.76643 20.4652C3.45386 19.0077 7.40255 17.9901 12.005 17.9881V17.9881Z" fill="#55CAF5"/>
<path d="M12.0046 18.0181C16.5971 18.0181 20.5398 19.0298 22.2252 20.4773C22.791 19.4457 23.1029 18.308 23.1029 17.1144C23.1029 12.346 18.1346 7.96948 12.0046 7.96948C5.87469 7.96948 0.902344 12.346 0.902344 17.1144C0.902344 18.308 1.21424 19.4457 1.78205 20.4773C3.46549 19.0298 7.41018 18.0181 12.0066 18.0181H12.0046Z" fill="#5DCCF5"/>
<path d="M12.0043 18.046C16.5907 18.046 20.5274 19.0516 22.2109 20.4891C22.7767 19.4655 23.0886 18.3339 23.0886 17.1483C23.0886 12.4118 18.1262 8.06128 12.0063 8.06128C5.88631 8.06128 0.917969 12.4118 0.917969 17.1483C0.917969 18.3339 1.22986 19.4635 1.79568 20.4891C3.47712 19.0516 7.4178 18.046 12.0063 18.046H12.0043Z" fill="#65CEF6"/>
<path d="M12.0039 18.0759C16.5844 18.0759 20.5151 19.0736 22.1965 20.5031C22.7604 19.4854 23.0723 18.3618 23.0723 17.1862C23.0723 12.4818 18.1159 8.15723 12.0039 8.15723C5.89199 8.15723 0.931641 12.4818 0.931641 17.1862C0.931641 18.3638 1.24354 19.4854 1.80735 20.5031C3.48679 19.0736 7.42148 18.0759 12.0039 18.0759Z" fill="#6DCFF6"/>
<path d="M12.0036 18.104C16.5761 18.104 20.5028 19.0957 22.1822 20.5152C22.744 19.5055 23.0559 18.3879 23.0559 17.2203C23.0559 12.5478 18.1076 8.24927 12.0036 8.24927C5.89966 8.24927 0.945312 12.5478 0.945312 17.2203C0.945312 18.3899 1.25721 19.5055 1.81902 20.5152C3.49646 19.0957 7.42515 18.104 12.0016 18.104H12.0036Z" fill="#74D1F6"/>
<path d="M12.0052 18.134C16.5716 18.134 20.4943 19.1197 22.1698 20.5292C22.7316 19.5255 23.0435 18.4179 23.0435 17.2563C23.0435 12.6158 18.1011 8.34326 12.0072 8.34326C5.9132 8.34326 0.964844 12.6158 0.964844 17.2563C0.964844 18.4179 1.27474 19.5255 1.83855 20.5292C3.51399 19.1197 7.43669 18.136 12.0072 18.134H12.0052Z" fill="#7BD3F7"/>
<path d="M12.0049 18.164C16.5654 18.164 20.4821 19.1417 22.1555 20.5412C22.7153 19.5456 23.0272 18.4439 23.0272 17.2923C23.0272 12.6838 18.0929 8.43726 12.0049 8.43726C5.91691 8.43726 0.976562 12.6838 0.976562 17.2923C0.976562 18.4459 1.28646 19.5456 1.84827 20.5412C3.52171 19.1417 7.44041 18.164 12.0049 18.164V18.164Z" fill="#81D4F7"/>
<path d="M12.0045 18.1918C16.559 18.1918 20.4697 19.1635 22.1411 20.553C22.7009 19.5634 23.0108 18.4697 23.0108 17.3261C23.0108 12.7496 18.0825 8.52905 12.0045 8.52905C5.92654 8.52905 0.992188 12.7496 0.992188 17.3261C0.992188 18.4717 1.30208 19.5634 1.8619 20.553C3.53334 19.1635 7.44603 18.1918 12.0045 18.1918Z" fill="#88D6F8"/>
<path d="M12.0041 18.2218C16.5526 18.2218 20.4573 19.1875 22.1268 20.5671C22.6846 19.5834 22.9965 18.4978 22.9965 17.3621C22.9965 12.8176 18.0741 8.62305 12.0041 8.62305C5.93417 8.62305 1.00781 12.8176 1.00781 17.3621C1.00781 18.5018 1.31771 19.5834 1.87752 20.5671C3.54697 19.1875 7.45367 18.2218 12.0061 18.2218H12.0041Z" fill="#8ED8F8"/>
<path d="M12.0038 18.2499C16.5463 18.2499 20.445 19.2075 22.1125 20.5791C22.6703 19.6034 22.9802 18.5258 22.9802 17.3961C22.9802 12.8837 18.0658 8.71704 12.0038 8.71704C5.94185 8.71704 1.02148 12.8857 1.02148 17.3961C1.02148 18.5278 1.33138 19.6014 1.8892 20.5791C3.55664 19.2095 7.45734 18.2519 12.0038 18.2499Z" fill="#95DAF8"/>
<path d="M12.0035 18.2798C16.5399 18.2798 20.4326 19.2315 22.0981 20.5931C22.6539 19.6234 22.9638 18.5537 22.9638 17.4341C22.9638 12.9536 18.0554 8.81299 12.0035 8.81299C5.95147 8.81299 1.03711 12.9556 1.03711 17.4341C1.03711 18.5577 1.34501 19.6254 1.90282 20.5931C3.56827 19.2315 7.46497 18.2818 12.0035 18.2798V18.2798Z" fill="#9BDCF9"/>
<path d="M12.0051 18.3079C16.5356 18.3079 20.4243 19.2536 22.0857 20.6032C22.6415 19.6415 22.9514 18.5778 22.9514 17.4662C22.9514 13.0177 18.0491 8.90308 12.0051 8.90308C5.9611 8.90308 1.05273 13.0197 1.05273 17.4662C1.05273 18.5818 1.36063 19.6415 1.91845 20.6032C3.58189 19.2516 7.47259 18.3079 12.0051 18.3079V18.3079Z" fill="#A1DEF9"/>
<path d="M12.0047 18.338C16.5272 18.338 20.4119 19.2756 22.0714 20.6172C22.6252 19.6615 22.9351 18.6079 22.9351 17.5022C22.9351 13.0857 18.0407 8.99707 12.0047 8.99707C5.96873 8.99707 1.06836 13.0877 1.06836 17.5022C1.06836 18.6099 1.37626 19.6615 1.93207 20.6172C3.59152 19.2756 7.47822 18.338 12.0047 18.338Z" fill="#A7DFF9"/>
<path d="M12.0044 18.366C16.5209 18.366 20.3996 19.2977 22.057 20.6292C22.6109 19.6815 22.9188 18.6339 22.9188 17.5382C22.9188 13.1557 18.0304 9.09106 12.0044 9.09106C5.9784 9.09106 1.08203 13.1557 1.08203 17.5382C1.08203 18.6379 1.38993 19.6815 1.94374 20.6292C3.60119 19.2977 7.4819 18.368 12.0044 18.366Z" fill="#ADE1FA"/>
<path d="M12.004 18.3957C16.5145 18.3957 20.3872 19.3214 22.0427 20.643C22.5945 19.7013 22.9044 18.6617 22.9044 17.574C22.9044 13.2235 18.022 9.18481 12.004 9.18481C5.98603 9.18481 1.09766 13.2235 1.09766 17.574C1.09766 18.6657 1.40555 19.7013 1.95737 20.643C3.61282 19.3214 7.48952 18.3977 12.004 18.3957Z" fill="#B3E3FA"/>
<path d="M12.0037 18.4239C16.5082 18.4239 20.3749 19.3415 22.0284 20.6531C22.5802 19.7174 22.8881 18.6858 22.8881 17.6061C22.8881 13.2876 18.0137 9.2749 12.0037 9.2749C5.9937 9.2749 1.11133 13.2876 1.11133 17.6061C1.11133 18.6898 1.41922 19.7174 1.97104 20.6531C3.62449 19.3415 7.4952 18.4239 12.0037 18.4239Z" fill="#B9E5FB"/>
<path d="M12.0034 18.4539C16.5019 18.4539 20.3646 19.3656 22.014 20.6671C22.5639 19.7394 22.8717 18.7158 22.8717 17.6421C22.8717 13.3556 18.0034 9.3689 12.0014 9.3689C5.99937 9.3689 1.125 13.3556 1.125 17.6421C1.125 18.7178 1.4309 19.7374 1.98271 20.6671C3.63416 19.3656 7.49887 18.4539 12.0014 18.4539H12.0034Z" fill="#BFE7FB"/>
<path d="M12.005 18.4819C16.4975 18.4819 20.3542 19.3876 22.0016 20.6792C22.5494 19.7575 22.8593 18.7418 22.8593 17.6782C22.8593 13.4236 17.997 9.46289 12.005 9.46289C6.01295 9.46289 1.14258 13.4236 1.14258 17.6782C1.14258 18.7458 1.44848 19.7595 1.99829 20.6792C3.64774 19.3856 7.50646 18.4839 12.003 18.4819H12.005Z" fill="#C4E9FB"/>
<path d="M12.0046 18.5119C16.4911 18.5119 20.3418 19.4096 21.9873 20.6932C22.5351 19.7795 22.843 18.7698 22.843 17.7142C22.843 13.4916 17.9886 9.55688 12.0046 9.55688C6.02058 9.55688 1.1582 13.4916 1.1582 17.7142C1.1582 18.7738 1.4641 19.7795 2.01392 20.6932C3.66137 19.4096 7.51608 18.5139 12.0046 18.5119Z" fill="#CAEBFC"/>
<path d="M12.0042 18.5419C16.4847 18.5419 20.3294 19.4336 21.9749 20.7072C22.5207 19.7995 22.8286 18.7978 22.8286 17.7502C22.8286 13.5596 17.9802 9.65088 12.0042 9.65088C6.02821 9.65088 1.17383 13.5596 1.17383 17.7502C1.17383 18.8038 1.47973 19.7995 2.02754 20.7072C3.673 19.4336 7.52171 18.5439 12.0062 18.5419H12.0042Z" fill="#CFEDFC"/>
<path d="M12.0038 18.5697C16.4764 18.5697 20.3171 19.4534 21.9605 20.717C22.5063 19.8173 22.8142 18.8236 22.8142 17.784C22.8142 13.6254 17.9719 9.74268 12.0058 9.74268C6.03984 9.74268 1.18945 13.6254 1.18945 17.784C1.18945 18.8296 1.49535 19.8173 2.04117 20.717C3.68462 19.4534 7.52734 18.5697 12.0058 18.5697H12.0038Z" fill="#D5EFFC"/>
<path d="M12.0035 18.5997C16.47 18.5997 20.3048 19.4775 21.9462 20.731C22.49 19.8373 22.7979 18.8517 22.7979 17.82C22.7979 13.6934 17.9635 9.83667 12.0035 9.83667C6.04351 9.83667 1.20312 13.6934 1.20312 17.82C1.20312 18.8577 1.50702 19.8373 2.05284 20.731C3.69429 19.4775 7.53101 18.6017 12.0035 18.5997V18.5997Z" fill="#DBF1FD"/>
<path d="M12.0052 18.6278C16.4657 18.6278 20.2964 19.4995 21.9338 20.7431C22.4777 19.8554 22.7836 18.8777 22.7836 17.8541C22.7836 13.7594 17.9552 9.92871 12.0052 9.92871C6.05514 9.92871 1.21875 13.7594 1.21875 17.8541C1.21875 18.8837 1.52265 19.8554 2.06847 20.7431C3.70792 19.4995 7.54064 18.6298 12.0052 18.6278Z" fill="#E0F3FD"/>
<path d="M12.0047 18.6578C16.4593 18.6578 20.284 19.5215 21.9194 20.7571C22.4613 19.8774 22.7691 18.9057 22.7691 17.8901C22.7691 13.8274 17.9468 10.0227 12.0067 10.0227C6.06672 10.0227 1.23633 13.8274 1.23633 17.8901C1.23633 18.9117 1.54023 19.8754 2.08405 20.7571C3.7195 19.5235 7.54823 18.6598 12.0067 18.6578H12.0047Z" fill="#E6F5FD"/>
<path d="M12.0045 18.6858C16.453 18.6858 20.2717 19.5436 21.9052 20.7691C22.447 19.8954 22.7529 18.9338 22.7529 17.9261C22.7529 13.8954 17.9385 10.1167 12.0045 10.1167C6.07044 10.1167 1.24805 13.8954 1.24805 17.9261C1.24805 18.9398 1.55194 19.8974 2.09376 20.7691C3.72722 19.5456 7.54995 18.6878 12.0025 18.6858H12.0045Z" fill="#EBF7FE"/>
<path d="M12.0041 18.7157C16.4466 18.7157 20.2593 19.5674 21.8908 20.781C22.4306 19.9153 22.7365 18.9596 22.7365 17.9599C22.7365 13.9612 17.9281 10.2085 12.0041 10.2085C6.08007 10.2085 1.26367 13.9612 1.26367 17.9599C1.26367 18.9656 1.56757 19.9153 2.10939 20.781C3.74085 19.5654 7.55757 18.7177 12.0041 18.7157V18.7157Z" fill="#F1FAFE"/>
<path d="M12.0038 18.7437C16.4403 18.7437 20.247 19.5874 21.8765 20.793C22.4163 19.9333 22.7222 18.9856 22.7222 17.994C22.7222 14.0273 17.9218 10.3005 12.0038 10.3005C6.08574 10.3005 1.27734 14.0273 1.27734 17.994C1.27734 18.9916 1.58124 19.9333 2.12106 20.793C3.75052 19.5874 7.56325 18.7457 12.0038 18.7437Z" fill="#F7FCFE"/>
<path d="M12.0034 18.7737C16.4339 18.7737 20.2347 19.6114 21.8621 20.807C22.3999 19.9553 22.7058 19.0156 22.7058 18.0319C22.7058 14.0973 17.9114 10.3965 12.0034 10.3965C6.09537 10.3965 1.29297 14.0973 1.29297 18.0319C1.29297 19.0216 1.59487 19.9553 2.13469 20.807C3.76215 19.6114 7.56888 18.7757 12.0034 18.7737Z" fill="white"/>
</g>
<path d="M12.0052 14.843C8.12445 14.843 4.52565 15.5008 1.55664 16.6124C3.33605 20.6111 7.34271 23.3962 12.0072 23.3962C16.6716 23.3962 20.6703 20.6111 22.4557 16.6124C19.4827 15.5008 15.8839 14.843 12.0072 14.843H12.0052Z" fill="#0078BA"/>
</svg>
