<svg width="36" height="36" viewBox="0 0 36 36" fill="none" xmlns="http://www.w3.org/2000/svg">
<g clip-path="url(#clip0_2876_33399)">
<path d="M7.95581 10.2964H16.7098" stroke="white" stroke-width="1.5" stroke-linecap="round" stroke-linejoin="round"/>
<path d="M7.95581 14.4961H13.9618" stroke="white" stroke-width="1.5" stroke-linecap="round" stroke-linejoin="round"/>
<path d="M25.7399 12.7442V7.8962C25.7399 5.8562 24.1259 4.2002 22.1399 4.2002H7.73989C5.75389 4.2002 4.13989 5.8562 4.13989 7.8962V28.1102C4.13989 30.1502 5.75389 31.8062 7.73989 31.8062H20.9279" stroke="white" stroke-width="1.5" stroke-linecap="round" stroke-linejoin="round"/>
<path d="M24.1438 29.1902C28.6618 29.9282 32.5078 26.0822 31.7698 21.5642C31.3198 18.8282 29.1178 16.6202 26.3818 16.1762C21.8638 15.4382 18.0178 19.2842 18.7558 23.8022C19.2058 26.5382 21.4078 28.7462 24.1438 29.1902Z" stroke="white" stroke-width="1.5" stroke-linecap="round" stroke-linejoin="round"/>
<path d="M28.5838 20.5801L24.3838 24.7801L21.9358 22.3261" stroke="white" stroke-width="1.5" stroke-linecap="round" stroke-linejoin="round"/>
</g>
<defs>
<clipPath id="clip0_2876_33399">
<rect width="36" height="36" fill="white"/>
</clipPath>
</defs>
</svg>
