<svg width="36" height="36" viewBox="0 0 36 36" fill="none" xmlns="http://www.w3.org/2000/svg">
<g clip-path="url(#clip0_2876_33404)">
<path d="M7.95581 10.2964H16.7098" stroke="white" stroke-width="1.5" stroke-linecap="round" stroke-linejoin="round"/>
<path d="M7.95581 14.4961H13.9618" stroke="white" stroke-width="1.5" stroke-linecap="round" stroke-linejoin="round"/>
<path d="M25.7399 12.7442V7.8962C25.7399 5.8562 24.1259 4.2002 22.1399 4.2002H7.73989C5.75389 4.2002 4.13989 5.8562 4.13989 7.8962V28.1102C4.13989 30.1502 5.75389 31.8062 7.73989 31.8062H20.9279" stroke="white" stroke-width="1.5" stroke-linecap="round" stroke-linejoin="round"/>
<path d="M25.2599 29.2801C28.9079 29.2801 31.8599 26.3281 31.8599 22.6801C31.8599 19.0321 28.9079 16.0801 25.2599 16.0801C21.6119 16.0801 18.6599 19.0321 18.6599 22.6801C18.6599 26.3281 21.6119 29.2801 25.2599 29.2801Z" stroke="white" stroke-width="1.5" stroke-linecap="round" stroke-linejoin="round"/>
<path d="M22.9021 25.0378L27.6181 20.3218" stroke="white" stroke-width="1.5" stroke-linecap="round" stroke-linejoin="round"/>
<path d="M22.9021 20.3218L27.6181 25.0378" stroke="white" stroke-width="1.5" stroke-linecap="round" stroke-linejoin="round"/>
</g>
<defs>
<clipPath id="clip0_2876_33404">
<rect width="36" height="36" fill="white"/>
</clipPath>
</defs>
</svg>
