<svg width="40" height="40" viewBox="0 0 40 40" fill="none" xmlns="http://www.w3.org/2000/svg">
<path d="M27.4799 35.8197C32.4999 36.6397 36.7732 32.3664 35.9532 27.3464C35.4532 24.3064 33.0066 21.853 29.9666 21.3597C24.9466 20.5397 20.6733 24.813 21.4933 29.833C21.9933 32.873 24.4399 35.3264 27.4799 35.8197Z" stroke="white" stroke-width="1.5" stroke-linecap="round" stroke-linejoin="round"/>
<path d="M32.4133 26.2524L27.7466 30.9191L25.0266 28.1924" stroke="white" stroke-width="1.5" stroke-linecap="round" stroke-linejoin="round"/>
<path d="M17.4 15.3332C20.3455 15.3332 22.7333 12.9454 22.7333 9.99984C22.7333 7.05432 20.3455 4.6665 17.4 4.6665C14.4545 4.6665 12.0667 7.05432 12.0667 9.99984C12.0667 12.9454 14.4545 15.3332 17.4 15.3332Z" stroke="white" stroke-width="1.5" stroke-linecap="round" stroke-linejoin="round"/>
<path d="M4 33.24V25.4733C4 21.2667 7.44 17.8267 11.6467 17.8267H23.92C24.7867 17.8267 25.62 17.9733 26.3933 18.24" stroke="white" stroke-width="1.5" stroke-linecap="round" stroke-linejoin="round"/>
</svg>
