<svg width="20" height="20" viewBox="0 0 20 20" fill="none" xmlns="http://www.w3.org/2000/svg">
<g clip-path="url(#clip0_2876_33444)">
<path d="M16.77 11.9998H17.98C18.54 11.9998 18.99 11.5498 18.99 10.9898V9.01979C18.99 8.45979 18.54 8.00979 17.98 8.00979H16.77L16.2 6.63978L17.06 5.77979C17.46 5.37979 17.46 4.73979 17.06 4.34979L15.67 2.95979C15.27 2.55979 14.63 2.55979 14.24 2.95979L13.38 3.81979L12.01 3.24979V2.03979C12.01 1.47979 11.56 1.02979 11 1.02979H9.03004C8.47004 1.02979 8.02004 1.47979 8.02004 2.03979V3.24979L6.65004 3.81979L5.79004 2.95979C5.39004 2.55979 4.75004 2.55979 4.36004 2.95979L2.97004 4.34979C2.57004 4.74979 2.57004 5.38979 2.97004 5.77979L3.83004 6.63978L3.26004 8.00979H2.05004C1.49004 8.00979 1.04004 8.45979 1.04004 9.01979V10.9898C1.04004 11.5498 1.49004 11.9998 2.05004 11.9998H3.26004L3.83004 13.3698L2.97004 14.2298C2.57004 14.6298 2.57004 15.2698 2.97004 15.6598L4.36004 17.0498C4.76004 17.4498 5.40004 17.4498 5.79004 17.0498L6.65004 16.1898L8.02004 16.7598V17.9698C8.02004 18.5298 8.47004 18.9798 9.03004 18.9798H11C11.56 18.9798 12.01 18.5298 12.01 17.9698V16.7598L13.38 16.1898L14.24 17.0498C14.64 17.4498 15.28 17.4498 15.67 17.0498L17.06 15.6598C17.46 15.2598 17.46 14.6198 17.06 14.2298L16.2 13.3698L16.77 11.9998Z" stroke="white" stroke-width="1.5" stroke-linecap="round" stroke-linejoin="round"/>
<path d="M10 13C11.6569 13 13 11.6569 13 10C13 8.34315 11.6569 7 10 7C8.34315 7 7 8.34315 7 10C7 11.6569 8.34315 13 10 13Z" stroke="white" stroke-width="1.5" stroke-linecap="round" stroke-linejoin="round"/>
</g>
<defs>
<clipPath id="clip0_2876_33444">
<rect width="20" height="20" fill="white"/>
</clipPath>
</defs>
</svg>
