<svg width="36" height="36" viewBox="0 0 36 36" fill="none" xmlns="http://www.w3.org/2000/svg">
<g clip-path="url(#clip0_2876_33394)">
<path d="M15.5459 16.794C15.5459 16.794 14.7599 16.278 13.6259 16.416C12.7319 16.524 11.9639 16.998 11.9879 18.024C12.0059 18.87 12.7379 19.464 13.8479 19.872C14.9519 20.28 15.6719 20.52 15.7139 21.72C15.7559 22.92 14.7239 23.574 13.8719 23.604C13.0259 23.634 12.6659 23.556 11.6279 23.106" stroke="white" stroke-width="1.5" stroke-linecap="round" stroke-linejoin="round"/>
<path d="M13.8359 14.7661V16.4101" stroke="white" stroke-width="1.5" stroke-linecap="round" stroke-linejoin="round"/>
<path d="M13.752 25.2184V23.6104" stroke="white" stroke-width="1.5" stroke-linecap="round" stroke-linejoin="round"/>
<path d="M20.5799 14.7661L16.1939 9.01807H11.2019C11.2019 9.01807 6.4499 14.5561 5.5139 16.0441C4.3859 17.8321 3.3479 20.0941 3.3479 21.8821C3.3479 26.7001 7.9319 30.6001 13.5899 30.6001C14.7059 30.6001 15.7799 30.4501 16.7819 30.1681L19.0199 29.4361" stroke="white" stroke-width="1.5" stroke-linecap="round" stroke-linejoin="round"/>
<path d="M11.61 8.90424L8.55601 4.56024C8.55601 4.56024 8.15401 2.79024 9.94201 3.02424C11.226 3.19224 12.864 3.87624 14.52 3.87624C15.426 3.87624 19.026 3.55824 19.026 3.55824L15.966 8.85624" stroke="white" stroke-width="1.5" stroke-linecap="round" stroke-linejoin="round"/>
<path d="M23.3159 24.1142C23.8259 25.0442 24.8219 25.6802 25.9619 25.6802C27.6299 25.6802 28.9739 24.3362 28.9739 22.6802C28.9739 21.0242 27.6239 19.6802 25.9619 19.6802C24.9419 19.6802 24.0359 20.1842 23.4899 20.9582" stroke="white" stroke-linecap="round" stroke-linejoin="round"/>
<path d="M24.564 21.3121L23.136 21.1441L23.292 19.7881" stroke="white" stroke-linecap="round" stroke-linejoin="round"/>
<path d="M26.058 29.2801C29.706 29.2801 32.658 26.3281 32.658 22.6801C32.658 19.0321 29.706 16.0801 26.058 16.0801C22.41 16.0801 19.458 19.0321 19.458 22.6801C19.458 26.3281 22.41 29.2801 26.058 29.2801Z" stroke="white" stroke-width="1.5" stroke-linecap="round" stroke-linejoin="round"/>
</g>
<defs>
<clipPath id="clip0_2876_33394">
<rect width="36" height="36" fill="white"/>
</clipPath>
</defs>
</svg>
