<svg width="36" height="36" viewBox="0 0 36 36" fill="none" xmlns="http://www.w3.org/2000/svg">
<g clip-path="url(#clip0_2876_33389)">
<path d="M9.47395 16.542C8.56795 14.982 8.06395 13.158 8.11795 11.214C8.26195 5.63404 12.9 1.23004 18.474 1.37404C24.048 1.51804 28.458 6.15604 28.314 11.73C28.26 13.854 27.552 15.804 26.394 17.406C26.226 17.634 26.052 17.856 25.872 18.066" stroke="white" stroke-width="1.5" stroke-linecap="round" stroke-linejoin="round"/>
<path d="M15.588 25.8721L21.804 26.0341C22.974 26.0641 23.964 25.1461 23.994 23.9941C24.024 22.8421 23.094 21.8701 21.918 21.8401L8.73601 21.3481L1.26001 25.4161" stroke="white" stroke-width="1.5" stroke-linecap="round" stroke-linejoin="round"/>
<path d="M22.164 27.1438L31.854 24.9058C32.952 24.5038 34.188 25.0558 34.596 26.1358C35.01 27.2158 34.446 28.4338 33.348 28.8358L20.868 33.5158L9.95995 32.0218L4.39795 34.7938" stroke="white" stroke-width="1.5" stroke-linecap="round" stroke-linejoin="round"/>
<path d="M18.1318 6.76807V16.1701" stroke="white" stroke-width="1.5" stroke-linecap="round" stroke-linejoin="round"/>
<path d="M21.0959 13.4399L18.1499 16.3859L15.3359 13.5719" stroke="white" stroke-width="1.5" stroke-linecap="round" stroke-linejoin="round"/>
</g>
<defs>
<clipPath id="clip0_2876_33389">
<rect width="36" height="36" fill="white"/>
</clipPath>
</defs>
</svg>
