<svg width="143" height="24" viewBox="0 0 143 24" fill="none" xmlns="http://www.w3.org/2000/svg">
<path d="M42.1488 5.03993L39.3598 12.4296L38.2689 5.05155L35.5843 5.06316L31.6812 12.4567L31.7044 5.07477L28.3622 5.09026L28.3545 18.9522L31.6155 18.9445L35.77 11.1174L36.9769 18.9212L40.2379 18.9096L45.4911 5.02832L42.1488 5.03993Z" fill="white"/>
<path d="M51.5991 4.89266C49.0422 4.9004 45.7619 6.13137 44.6478 11.934C43.5376 17.7327 46.3537 18.9404 48.9068 18.9327C51.4599 18.921 54.7441 17.694 55.8543 11.8914C56.9645 6.08879 54.1522 4.88105 51.5953 4.89266M49.4522 16.0681C48.9725 16.072 47.5026 16.0759 48.2956 11.9185C49.0925 7.76492 50.5663 7.75718 51.046 7.75331C51.5334 7.75331 52.9994 7.74944 52.2064 11.903C51.4096 16.0565 49.9396 16.0643 49.4522 16.0643" fill="white"/>
<path d="M64.0705 4.89266C61.5136 4.9004 58.2371 6.13137 57.1192 11.934C56.0128 17.7327 58.829 18.9404 61.3782 18.9327C63.9351 18.9249 67.2154 17.694 68.3256 11.8914C69.4397 6.09266 66.6236 4.88105 64.0666 4.89266M61.9236 16.0681C61.4439 16.072 59.9701 16.0759 60.767 11.9185C61.5639 7.76492 63.0338 7.75718 63.5173 7.75331C64.0009 7.75331 65.4708 7.74944 64.6778 11.903C63.881 16.0565 62.4071 16.0643 61.9236 16.0643" fill="white"/>
<path d="M77.2613 13.4744C78.944 12.5221 80.0581 10.6718 80.0581 8.28341C80.0581 4.74535 75.8532 5.0976 75.8532 5.0976H71.4898L68.5808 18.8937H71.8341L72.7934 14.1789H74.0622C74.4529 14.2447 74.9906 14.4808 75.0679 15.255C75.1917 16.4976 75.3774 18.9518 75.3774 18.9518H78.65C78.65 18.9518 78.3599 15.5841 78.2786 15.0731C78.1974 14.566 78.0388 13.8576 77.269 13.4744M74.2092 7.65244C75.0989 7.65244 77.2265 6.94018 76.859 9.46018C76.4915 11.9802 73.4471 11.655 73.4471 11.655L74.2092 7.64857V7.65244Z" fill="white"/>
<path d="M80.0156 18.96L83.6866 18.9484L86.3442 5.08643L82.6693 5.09804L80.0156 18.96Z" fill="white"/>
<path d="M142.214 5.03955H137.97L132.721 10.1415L133.715 5.03955H130.013L127.271 19.0021H130.98L132.114 13.2112L135.39 19.0021H139.901L135.448 11.5234L142.214 5.03955Z" fill="white"/>
<path d="M102.073 8.70157C102.51 6.43318 101.198 5.08221 98.5641 5.09382L92.2704 5.10931L89.6167 18.9558L95.9143 18.9403C99.1056 18.9325 100.989 17.5274 101.516 14.7751C101.81 13.2422 101.427 12.0732 100.436 11.4306C101.303 10.7687 101.852 9.85511 102.073 8.70544M98.185 14.6125C98.0187 15.499 97.5931 16.0487 96.0381 16.1338V16.1416H95.9568C95.8369 16.1454 95.717 16.1532 95.5855 16.1532H95.4346V16.1416H93.5972L94.2006 12.9945H96.1889C98.5022 12.9829 98.2972 14.0435 98.1811 14.6125M98.653 9.07705C98.4867 9.94415 98.1927 10.2306 97.2179 10.2964H94.6958L95.16 7.89641H97.1947C98.742 7.88866 98.8233 8.19834 98.653 9.08092" fill="white"/>
<path d="M124.896 5.08643L123.464 13.0142L120.583 5.08643H117.093L114.417 18.96L117.658 18.8748L119.244 10.4787L122.134 18.96H125.406L128.083 5.08643H124.896Z" fill="white"/>
<path d="M108.393 5.08643L100.498 18.96H104.223L105.69 16.3161L109.972 16.3471L110.277 18.96H113.732L111.624 5.08643H108.39H108.393ZM107.167 13.6761L109.256 9.58836L109.751 13.68H107.167V13.6761Z" fill="white"/>
<path d="M24 12C24 18.6258 18.6238 24 12.004 24C5.38421 24 0 18.6238 0 12C0 5.37621 5.37421 0 12.004 0C18.6338 0 24 5.37621 24 12Z" fill="white"/>
<path d="M12.0042 23.3944C18.3201 23.3944 23.4424 18.2741 23.4424 11.9602C23.4424 5.64626 18.3201 0.521973 12.0042 0.521973C5.6883 0.521973 0.562012 5.64227 0.562012 11.9602C0.562012 18.2781 5.6843 23.3944 12.0042 23.3944Z" fill="#0078BA"/>
<mask id="mask0_2876_33448" style="mask-type:alpha" maskUnits="userSpaceOnUse" x="0" y="0" width="24" height="24">
<path d="M12.004 23.3944C18.3198 23.3944 23.4421 18.2741 23.4421 11.9602C23.4421 5.64626 18.3198 0.521973 12.004 0.521973C5.68806 0.521973 0.561768 5.64227 0.561768 11.9602C0.561768 18.2781 5.68406 23.3944 12.004 23.3944Z" fill="#0078BA"/>
</mask>
<g mask="url(#mask0_2876_33448)">
<path d="M12.048 17.4804C17.0723 17.4804 21.3808 18.878 23.2282 20.8693C23.846 19.4458 24.1839 17.8783 24.1839 16.2388C24.1839 9.67502 18.7477 4.36279 12.046 4.36279C5.34419 4.36279 -0.0939941 9.67902 -0.0939941 16.2408C-0.0939941 17.8843 0.247891 19.4458 0.867685 20.8693C2.70507 18.876 7.01963 17.4804 12.046 17.4804H12.048Z" fill="#0078BA"/>
<path d="M12.048 17.4925C17.0603 17.4925 21.3568 18.878 23.2002 20.8554C23.816 19.4438 24.1539 17.8884 24.1539 16.2629C24.1539 9.75308 18.7317 4.46484 12.048 4.46484C5.36418 4.46484 -0.0620117 9.75508 -0.0620117 16.2649C-0.0620117 17.8964 0.277876 19.4438 0.897669 20.8554C2.73106 18.878 7.03362 17.4925 12.048 17.4925Z" fill="#007ABB"/>
<path d="M12.0459 17.5046C17.0443 17.5046 21.3308 18.8782 23.1702 20.8395C23.784 19.44 24.1219 17.8965 24.1219 16.283C24.1219 9.82519 18.7137 4.56494 12.0479 4.56494C5.38216 4.56494 -0.0300293 9.82919 -0.0300293 16.287C-0.0300293 17.9045 0.309858 19.44 0.927651 20.8395C2.75704 18.8782 7.04761 17.5046 12.0499 17.5046H12.0459Z" fill="#007CBD"/>
<path d="M12.0438 17.5182C17.0302 17.5182 21.3047 18.8818 23.1381 20.8251C23.7519 19.4376 24.0878 17.9061 24.0878 16.3066C24.0878 9.90276 18.6936 4.6665 12.0438 4.6665C5.39405 4.6665 -0.00415039 9.90476 -0.00415039 16.3086C-0.00415039 17.9121 0.335736 19.4356 0.951531 20.8251C2.77692 18.8798 7.05749 17.5182 12.0438 17.5182Z" fill="#007EBE"/>
<path d="M12.0418 17.5303C17.0142 17.5303 21.2807 18.8818 23.1081 20.8112C23.7199 19.4337 24.0558 17.9162 24.0558 16.3287C24.0558 9.97682 18.6756 4.76855 12.0438 4.76855C5.41204 4.76855 0.027832 9.98082 0.027832 16.3327C0.027832 17.9242 0.365718 19.4357 0.979514 20.8112C2.79891 18.8818 7.06948 17.5303 12.0438 17.5303H12.0418Z" fill="#0080C0"/>
<path d="M12.042 17.5424C17.0023 17.5424 21.2569 18.882 23.0783 20.7953C23.6881 19.4298 24.022 17.9263 24.022 16.3508C24.022 10.0509 18.6558 4.86865 12.04 4.86865C5.42417 4.86865 0.0539551 10.0529 0.0539551 16.3528C0.0539551 17.9303 0.391842 19.4298 1.00364 20.7953C2.81903 18.882 7.07761 17.5424 12.04 17.5424H12.042Z" fill="#0082C2"/>
<path d="M12.04 17.5565C16.9863 17.5565 21.2309 18.8861 23.0483 20.7814C23.6561 19.4279 23.99 17.9364 23.99 16.3749C23.99 10.129 18.6378 4.9707 12.04 4.9707C5.44215 4.9707 0.0859375 10.129 0.0859375 16.3769C0.0859375 17.9424 0.421827 19.4279 1.03362 20.7814C2.84502 18.8841 7.0916 17.5565 12.04 17.5565Z" fill="#0084C3"/>
<path d="M12.038 17.5686C16.9724 17.5686 21.205 18.8862 23.0184 20.7675C23.6262 19.426 23.9581 17.9465 23.9581 16.397C23.9581 10.203 18.6198 5.07275 12.038 5.07275C5.45623 5.07275 0.114014 10.205 0.114014 16.399C0.114014 17.9505 0.449902 19.424 1.0597 20.7655C2.8651 18.8842 7.10168 17.5666 12.038 17.5666V17.5686Z" fill="#0086C5"/>
<path d="M12.038 17.5802C16.9584 17.5802 21.181 18.8858 22.9884 20.7512C23.5942 19.4196 23.9261 17.9541 23.9261 16.4186C23.9261 10.2767 18.6018 5.17236 12.038 5.17236C5.47422 5.17236 0.145996 10.2787 0.145996 16.4206C0.145996 17.9581 0.479885 19.4196 1.08768 20.7512C2.88908 18.8858 7.11367 17.5802 12.038 17.5802Z" fill="#0088C6"/>
<path d="M12.0359 17.5943C16.9442 17.5943 21.1548 18.8898 22.9582 20.7372C23.562 19.4177 23.8939 17.9641 23.8939 16.4426C23.8939 10.3547 18.5837 5.27637 12.0359 5.27637C5.48806 5.27637 0.173828 10.3567 0.173828 16.4446C0.173828 17.9701 0.507716 19.4197 1.11351 20.7372C2.91091 18.8878 7.12551 17.5943 12.0339 17.5943H12.0359Z" fill="#008AC8"/>
<path d="M12.0339 17.6064C16.9283 17.6064 21.1289 18.89 22.9263 20.7234C23.5281 19.4158 23.86 17.9743 23.86 16.4648C23.86 10.4288 18.5637 5.37646 12.0339 5.37646C5.50409 5.37646 0.203857 10.4308 0.203857 16.4668C0.203857 17.9783 0.535747 19.4158 1.14155 20.7234C2.93295 18.89 7.13755 17.6064 12.0339 17.6064Z" fill="#008CCA"/>
<path d="M12.032 17.6185C16.9144 17.6185 21.103 18.8901 22.8964 20.7075C23.4982 19.4119 23.8281 17.9824 23.8281 16.4869C23.8281 10.5029 18.5458 5.47656 12.032 5.47656C5.51817 5.47656 0.231934 10.5049 0.231934 16.4889C0.231934 17.9864 0.563823 19.4119 1.16762 20.7075C2.95503 18.8901 7.14763 17.6185 12.032 17.6185Z" fill="#008FCB"/>
<path d="M12.032 17.6325C16.9004 17.6325 21.079 18.8941 22.8684 20.6935C23.4682 19.41 23.7961 17.9924 23.7961 16.5109C23.7961 10.5809 18.5278 5.58057 12.032 5.58057C5.53616 5.58057 0.263916 10.5829 0.263916 16.5129C0.263916 17.9984 0.595806 19.41 1.19761 20.6955C2.98101 18.8941 7.16162 17.6345 12.034 17.6345L12.032 17.6325Z" fill="#0091CD"/>
<path d="M12.0299 17.6442C16.8863 17.6442 21.0529 18.8938 22.8363 20.6792C23.4341 19.4056 23.762 18.0021 23.762 16.5326C23.762 10.6545 18.5077 5.68018 12.0279 5.68018C5.54804 5.68018 0.289795 10.6565 0.289795 16.5346C0.289795 18.0061 0.619685 19.4056 1.21949 20.6792C2.99689 18.8938 7.1675 17.6442 12.0259 17.6442H12.0299Z" fill="#0093CF"/>
<path d="M12.0279 17.6563C16.8703 17.6563 21.0269 18.8939 22.8063 20.6633C23.4021 19.4017 23.73 18.0102 23.73 16.5546C23.73 10.7306 18.4897 5.78223 12.0279 5.78223C5.56603 5.78223 0.321777 10.7326 0.321777 16.5566C0.321777 18.0141 0.651667 19.4017 1.24947 20.6633C3.02288 18.8939 7.18149 17.6563 12.0279 17.6563Z" fill="#0095D0"/>
<path d="M12.0259 17.6703C16.8563 17.6703 21.0009 18.8979 22.7763 20.6494C23.3721 19.3998 23.698 18.0202 23.698 16.5787C23.698 10.8066 18.4718 5.88428 12.0279 5.88428C5.58406 5.88428 0.351807 10.8086 0.351807 16.5807C0.351807 18.0262 0.679698 19.4018 1.2775 20.6514C3.04691 18.8979 7.19552 17.6723 12.0279 17.6723L12.0259 17.6703Z" fill="#0097D2"/>
<path d="M12.026 17.6825C16.8423 17.6825 20.977 18.8981 22.7464 20.6355C23.3402 19.3979 23.6661 18.0304 23.6661 16.6008C23.6661 10.8807 18.4538 5.98438 12.026 5.98438C5.59809 5.98438 0.381836 10.8827 0.381836 16.6008C0.381836 18.0324 0.709727 19.3959 1.30553 20.6335C3.07094 18.8961 7.20756 17.6805 12.026 17.6805V17.6825Z" fill="#009AD4"/>
<path d="M12.0239 17.6946C16.8283 17.6946 20.951 18.8982 22.7164 20.6196C23.3082 19.392 23.6341 18.0384 23.6341 16.6229C23.6341 10.9568 18.4358 6.08643 12.0259 6.08643C5.61608 6.08643 0.413818 10.9588 0.413818 16.6249C0.413818 18.0444 0.739711 19.394 1.33351 20.6216C3.09293 18.9002 7.21955 17.6966 12.0259 17.6966L12.0239 17.6946Z" fill="#009CD6"/>
<path d="M12.0221 17.7082C16.8145 17.7082 20.9251 18.9018 22.6845 20.6052C23.2743 19.3896 23.6002 18.0481 23.6002 16.6445C23.6002 11.0304 18.4159 6.18604 12.0221 6.18604C5.62821 6.18604 0.439941 11.0304 0.439941 16.6445C0.439941 18.0501 0.765832 19.3876 1.35763 20.6032C3.11305 18.8978 7.22768 17.7062 12.0221 17.7062V17.7082Z" fill="#009ED7"/>
<path d="M12.0221 17.7202C16.8005 17.7202 20.9011 18.9018 22.6565 20.5913C23.2463 19.3877 23.5682 18.0581 23.5682 16.6686C23.5682 11.1064 18.3979 6.29004 12.0221 6.29004C5.6462 6.29004 0.471924 11.1084 0.471924 16.6706C0.471924 18.0621 0.795816 19.3877 1.38762 20.5913C3.13904 18.9018 7.24167 17.7202 12.0241 17.7202H12.0221Z" fill="#00A1D9"/>
<path d="M12.0199 17.7324C16.7863 17.7324 20.875 18.902 22.6264 20.5754C23.2142 19.3838 23.5361 18.0682 23.5361 16.6907C23.5361 11.1825 18.3798 6.39014 12.0199 6.39014C5.66004 6.39014 0.499756 11.1825 0.499756 16.6927C0.499756 18.0722 0.823648 19.3858 1.41345 20.5774C3.15887 18.904 7.2515 17.7344 12.0199 17.7344V17.7324Z" fill="#00A3DB"/>
<path d="M12.018 17.7465C16.7704 17.7465 20.849 18.9061 22.5944 20.5615C23.1802 19.3799 23.5021 18.0784 23.5021 16.7128C23.5021 11.2566 18.3598 6.49023 12.018 6.49023C5.67607 6.49023 0.529785 11.2566 0.529785 16.7128C0.529785 18.0784 0.851678 19.3799 1.43948 20.5595C3.1809 18.9021 7.26154 17.7445 12.018 17.7445V17.7465Z" fill="#00A6DD"/>
<path d="M12.016 17.7586C16.7565 17.7586 20.8251 18.9062 22.5645 20.5456C23.1483 19.376 23.4702 18.0865 23.4702 16.7349C23.4702 11.3307 18.3419 6.59229 12.016 6.59229C5.69015 6.59229 0.557861 11.3327 0.557861 16.7369C0.557861 18.0885 0.879754 19.378 1.46556 20.5476C3.20298 18.9062 7.27362 17.7606 12.016 17.7606V17.7586Z" fill="#00A8DF"/>
<path d="M12.016 17.7702C16.7425 17.7702 20.8011 18.9058 22.5345 20.5312C23.1183 19.3736 23.4382 18.096 23.4382 16.7585C23.4382 11.4083 18.3239 6.69385 12.016 6.69385C5.70814 6.69385 0.589844 11.4083 0.589844 16.7585C0.589844 18.098 0.911736 19.3736 1.49554 20.5312C3.22696 18.9058 7.28761 17.7702 12.016 17.7702Z" fill="#00ABE1"/>
<path d="M12.0139 17.7842C16.7283 17.7842 20.775 18.9099 22.5044 20.5173C23.0862 19.3717 23.4061 18.1061 23.4061 16.7806C23.4061 11.4823 18.3058 6.7959 12.0139 6.7959C5.72197 6.7959 0.617676 11.4843 0.617676 16.7826C0.617676 18.1081 0.937568 19.3717 1.52137 20.5173C3.2488 18.9079 7.29745 17.7842 12.0139 17.7842Z" fill="#00ADE3"/>
<path d="M12.0119 17.7964C16.7123 17.7964 20.749 18.91 22.4744 20.5015C23.0542 19.3678 23.3721 18.1143 23.3721 16.8027C23.3721 11.5564 18.2858 6.896 12.0119 6.896C5.73801 6.896 0.647705 11.5584 0.647705 16.8027C0.647705 18.1143 0.967598 19.3658 1.54741 20.5015C3.27083 18.908 7.30749 17.7964 12.0119 17.7964Z" fill="#00B0E5"/>
<path d="M12.012 17.8084C16.7004 17.8084 20.7251 18.9101 22.4445 20.4875C23.0243 19.3639 23.3402 18.1243 23.3402 16.8268C23.3402 11.6345 18.2679 6.99805 12.01 6.99805C5.75209 6.99805 0.675781 11.6345 0.675781 16.8268C0.675781 18.1263 0.993675 19.3659 1.57348 20.4875C3.29091 18.9101 7.31757 17.8084 12.008 17.8084H12.012Z" fill="#00B3E7"/>
<path d="M12.01 17.8225C16.6844 17.8225 20.6991 18.9142 22.4145 20.4736C22.9923 19.362 23.3082 18.1344 23.3082 16.8488C23.3082 11.7086 18.2499 7.1001 12.01 7.1001C5.77008 7.1001 0.707764 11.7106 0.707764 16.8488C0.707764 18.1344 1.02566 19.362 1.60347 20.4736C3.31689 18.9122 7.33155 17.8225 12.01 17.8225Z" fill="#00B5E9"/>
<path d="M12.0081 17.8342C16.6705 17.8342 20.6732 18.9138 22.3826 20.4573C22.9584 19.3577 23.2743 18.1421 23.2743 16.8705C23.2743 11.7842 18.23 7.19971 12.0081 7.19971C5.78616 7.19971 0.73584 11.7842 0.73584 16.8705C0.73584 18.1421 1.05173 19.3577 1.62954 20.4573C3.33897 18.9118 7.34364 17.8342 12.0081 17.8342Z" fill="#08B9EB"/>
<path d="M12.0059 17.8463C16.6543 17.8463 20.647 18.9139 22.3524 20.4434C22.9262 19.3558 23.2421 18.1522 23.2421 16.8926C23.2421 11.8583 18.2118 7.2998 12.0059 7.2998C5.79995 7.2998 0.765625 11.8583 0.765625 16.8926C0.765625 18.1522 1.08152 19.3538 1.65733 20.4414C3.36076 18.9119 7.35543 17.8443 12.0079 17.8443L12.0059 17.8463Z" fill="#15BCED"/>
<path d="M12.0059 17.8603C16.6423 17.8603 20.623 18.918 22.3244 20.4295C22.8982 19.3518 23.2121 18.1622 23.2121 16.9166C23.2121 11.9343 18.1958 7.40381 12.0079 7.40381C5.81993 7.40381 0.797607 11.9343 0.797607 16.9166C0.797607 18.1622 1.1115 19.3518 1.68531 20.4295C3.38474 18.916 7.36742 17.8603 12.0059 17.8603Z" fill="#1DBFF0"/>
<path d="M12.004 17.8724C16.6264 17.8724 20.5971 18.9181 22.2925 20.4136C22.8643 19.348 23.1782 18.1703 23.1782 16.9388C23.1782 12.0104 18.1759 7.50391 12.004 7.50391C5.83201 7.50391 0.825684 12.0084 0.825684 16.9388C0.825684 18.1723 1.13958 19.348 1.71139 20.4136C3.40682 18.9161 7.3775 17.8724 12.004 17.8724Z" fill="#22C4F4"/>
<path d="M12.0039 17.9022C16.6203 17.9022 20.585 18.9419 22.2785 20.4274C22.8483 19.3697 23.1622 18.2001 23.1622 16.9745C23.1622 12.0782 18.1658 7.59766 12.0039 7.59766C5.84193 7.59766 0.8396 12.0762 0.8396 16.9745C0.8396 18.2001 1.15349 19.3697 1.7233 20.4274C3.41674 18.9399 7.38142 17.9022 12.0019 17.9022H12.0039Z" fill="#33C6F4"/>
<path d="M12.004 17.93C16.6145 17.93 20.5732 18.9617 22.2646 20.4392C22.8344 19.3875 23.1463 18.2259 23.1463 17.0083C23.1463 12.144 18.158 7.68945 12.002 7.68945C5.8461 7.68945 0.85376 12.142 0.85376 17.0083C0.85376 18.2259 1.16765 19.3875 1.73746 20.4392C3.4289 18.9617 7.38958 17.93 12.002 17.93H12.004Z" fill="#40C7F4"/>
<path d="M12.0039 17.9603C16.6083 17.9603 20.563 18.9859 22.2505 20.4534C22.8183 19.4078 23.1322 18.2542 23.1322 17.0466C23.1322 12.2142 18.1498 7.78564 12.0039 7.78564C5.85792 7.78564 0.871582 12.2122 0.871582 17.0466C0.871582 18.2562 1.18348 19.4098 1.75329 20.4534C3.44273 18.9859 7.39741 17.9603 12.0039 17.9603Z" fill="#4BC9F5"/>
<path d="M12.004 17.9881C16.6025 17.9881 20.5512 19.0057 22.2366 20.4652C22.8044 19.4276 23.1163 18.28 23.1163 17.0804C23.1163 12.28 18.14 7.87744 12.004 7.87744C5.86808 7.87744 0.885742 12.278 0.885742 17.0804C0.885742 18.282 1.19764 19.4276 1.76545 20.4652C3.45289 19.0077 7.40157 17.9901 12.004 17.9881Z" fill="#55CAF5"/>
<path d="M12.0039 18.0184C16.5964 18.0184 20.5391 19.03 22.2245 20.4776C22.7903 19.4459 23.1022 18.3083 23.1022 17.1147C23.1022 12.3463 18.1339 7.96973 12.0039 7.96973C5.87395 7.96973 0.901611 12.3463 0.901611 17.1147C0.901611 18.3083 1.21351 19.4459 1.78132 20.4776C3.46476 19.03 7.40944 18.0184 12.0059 18.0184H12.0039Z" fill="#5DCCF5"/>
<path d="M12.004 18.0462C16.5905 18.0462 20.5272 19.0519 22.2106 20.4894C22.7764 19.4657 23.0883 18.3341 23.0883 17.1485C23.0883 12.4121 18.126 8.06152 12.006 8.06152C5.88607 8.06152 0.917725 12.4121 0.917725 17.1485C0.917725 18.3341 1.22962 19.4637 1.79543 20.4894C3.47687 19.0519 7.41756 18.0462 12.006 18.0462H12.004Z" fill="#65CEF6"/>
<path d="M12.0039 18.0764C16.5844 18.0764 20.5151 19.0741 22.1965 20.5036C22.7604 19.4859 23.0723 18.3623 23.0723 17.1867C23.0723 12.4823 18.1159 8.15771 12.0039 8.15771C5.89199 8.15771 0.931641 12.4823 0.931641 17.1867C0.931641 18.3643 1.24354 19.4859 1.80735 20.5036C3.48679 19.0741 7.42147 18.0764 12.0039 18.0764Z" fill="#6DCFF6"/>
<path d="M12.0039 18.1042C16.5763 18.1042 20.503 19.0959 22.1825 20.5154C22.7443 19.5058 23.0562 18.3881 23.0562 17.2205C23.0562 12.5481 18.1078 8.24951 12.0039 8.24951C5.8999 8.24951 0.945557 12.5481 0.945557 17.2205C0.945557 18.3901 1.25745 19.5058 1.81927 20.5154C3.49671 19.0959 7.4254 18.1042 12.0019 18.1042H12.0039Z" fill="#74D1F6"/>
<path d="M12.0039 18.134C16.5704 18.134 20.4931 19.1197 22.1686 20.5292C22.7304 19.5255 23.0423 18.4179 23.0423 17.2563C23.0423 12.6158 18.0999 8.34326 12.0059 8.34326C5.91198 8.34326 0.963623 12.6158 0.963623 17.2563C0.963623 18.4179 1.27352 19.5255 1.83733 20.5292C3.51277 19.1197 7.43547 18.136 12.0059 18.134H12.0039Z" fill="#7BD3F7"/>
<path d="M12.0039 18.1643C16.5644 18.1643 20.4811 19.1419 22.1545 20.5415C22.7143 19.5458 23.0262 18.4442 23.0262 17.2925C23.0262 12.6841 18.0919 8.4375 12.0039 8.4375C5.91594 8.4375 0.975586 12.6841 0.975586 17.2925C0.975586 18.4462 1.28548 19.5458 1.8473 20.5415C3.52074 19.1419 7.43943 18.1643 12.0039 18.1643Z" fill="#81D4F7"/>
<path d="M12.004 18.1921C16.5585 18.1921 20.4692 19.1638 22.1406 20.5533C22.7005 19.5636 23.0104 18.47 23.0104 17.3264C23.0104 12.7499 18.082 8.5293 12.004 8.5293C5.92605 8.5293 0.991699 12.7499 0.991699 17.3264C0.991699 18.472 1.3016 19.5636 1.86141 20.5533C3.53285 19.1638 7.44555 18.1921 12.004 18.1921Z" fill="#88D6F8"/>
<path d="M12.0039 18.2223C16.5524 18.2223 20.4571 19.188 22.1265 20.5676C22.6843 19.5839 22.9962 18.4982 22.9962 17.3626C22.9962 12.8181 18.0739 8.62354 12.0039 8.62354C5.93393 8.62354 1.00757 12.8181 1.00757 17.3626C1.00757 18.5022 1.31747 19.5839 1.87728 20.5676C3.54672 19.188 7.45342 18.2223 12.0059 18.2223H12.0039Z" fill="#8ED8F8"/>
<path d="M12.0041 18.2501C16.5466 18.2501 20.4453 19.2078 22.1127 20.5793C22.6705 19.6037 22.9804 18.526 22.9804 17.3964C22.9804 12.8839 18.066 8.71729 12.0041 8.71729C5.94209 8.71729 1.02173 12.8859 1.02173 17.3964C1.02173 18.528 1.33163 19.6017 1.88944 20.5793C3.55688 19.2098 7.45758 18.2521 12.0041 18.2501Z" fill="#95DAF8"/>
<path d="M12.0039 18.2803C16.5404 18.2803 20.4331 19.232 22.0986 20.5935C22.6544 19.6239 22.9643 18.5542 22.9643 17.4346C22.9643 12.9541 18.0559 8.81348 12.0039 8.81348C5.95196 8.81348 1.0376 12.9561 1.0376 17.4346C1.0376 18.5582 1.3455 19.6259 1.90331 20.5935C3.56875 19.232 7.46545 18.2823 12.0039 18.2803Z" fill="#9BDCF9"/>
<path d="M12.0039 18.3082C16.5344 18.3082 20.4231 19.2539 22.0845 20.6034C22.6403 19.6417 22.9502 18.5781 22.9502 17.4665C22.9502 13.0179 18.0478 8.90332 12.0039 8.90332C5.95988 8.90332 1.05151 13.0199 1.05151 17.4665C1.05151 18.5821 1.35941 19.6417 1.91723 20.6034C3.58067 19.2519 7.47137 18.3082 12.0039 18.3082Z" fill="#A1DEF9"/>
<path d="M12.004 18.338C16.5265 18.338 20.4112 19.2756 22.0706 20.6172C22.6244 19.6615 22.9343 18.6079 22.9343 17.5022C22.9343 13.0857 18.04 8.99707 12.004 8.99707C5.96799 8.99707 1.06763 13.0877 1.06763 17.5022C1.06763 18.6099 1.37552 19.6615 1.93134 20.6172C3.59079 19.2756 7.47749 18.338 12.004 18.338Z" fill="#A7DFF9"/>
<path d="M12.0039 18.3662C16.5204 18.3662 20.3991 19.2979 22.0565 20.6295C22.6104 19.6818 22.9183 18.6341 22.9183 17.5385C22.9183 13.156 18.0299 9.09131 12.0039 9.09131C5.97791 9.09131 1.08154 13.156 1.08154 17.5385C1.08154 18.6381 1.38944 19.6818 1.94326 20.6295C3.6007 19.2979 7.48141 18.3682 12.0039 18.3662Z" fill="#ADE1FA"/>
<path d="M12.004 18.396C16.5145 18.396 20.3872 19.3217 22.0427 20.6432C22.5945 19.7016 22.9044 18.6619 22.9044 17.5743C22.9044 13.2237 18.022 9.18506 12.004 9.18506C5.98603 9.18506 1.09766 13.2237 1.09766 17.5743C1.09766 18.6659 1.40555 19.7016 1.95737 20.6432C3.61282 19.3217 7.48952 18.398 12.004 18.396Z" fill="#B3E3FA"/>
<path d="M12.0039 18.4243C16.5084 18.4243 20.3751 19.342 22.0286 20.6536C22.5804 19.7179 22.8883 18.6863 22.8883 17.6066C22.8883 13.2881 18.0139 9.27539 12.0039 9.27539C5.99394 9.27539 1.11157 13.2881 1.11157 17.6066C1.11157 18.6903 1.41947 19.7179 1.97128 20.6536C3.62473 19.342 7.49544 18.4243 12.0039 18.4243Z" fill="#B9E5FB"/>
<path d="M12.0039 18.4541C16.5024 18.4541 20.3651 19.3658 22.0145 20.6674C22.5643 19.7397 22.8722 18.716 22.8722 17.6424C22.8722 13.3558 18.0039 9.36914 12.0019 9.36914C5.99986 9.36914 1.12549 13.3558 1.12549 17.6424C1.12549 18.718 1.43139 19.7377 1.9832 20.6674C3.63465 19.3658 7.49936 18.4541 12.0019 18.4541H12.0039Z" fill="#BFE7FB"/>
<path d="M12.004 18.4819C16.4965 18.4819 20.3532 19.3876 22.0006 20.6792C22.5485 19.7575 22.8584 18.7418 22.8584 17.6782C22.8584 13.4236 17.996 9.46289 12.004 9.46289C6.01198 9.46289 1.1416 13.4236 1.1416 17.6782C1.1416 18.7458 1.4475 19.7595 1.99732 20.6792C3.64677 19.3856 7.50548 18.4839 12.002 18.4819H12.004Z" fill="#C4E9FB"/>
<path d="M12.0039 18.5121C16.4904 18.5121 20.3411 19.4098 21.9865 20.6934C22.5343 19.7797 22.8422 18.7701 22.8422 17.7144C22.8422 13.4918 17.9879 9.55713 12.0039 9.55713C6.01985 9.55713 1.15747 13.4918 1.15747 17.7144C1.15747 18.7741 1.46337 19.7797 2.01319 20.6934C3.66064 19.4098 7.51535 18.5141 12.0039 18.5121Z" fill="#CAEBFC"/>
<path d="M12.004 18.5419C16.4845 18.5419 20.3292 19.4336 21.9746 20.7072C22.5205 19.7995 22.8284 18.7978 22.8284 17.7502C22.8284 13.5596 17.98 9.65088 12.004 9.65088C6.02797 9.65088 1.17358 13.5596 1.17358 17.7502C1.17358 18.8038 1.47948 19.7995 2.0273 20.7072C3.67275 19.4336 7.52147 18.5439 12.006 18.5419H12.004Z" fill="#CFEDFC"/>
<path d="M12.0038 18.5702C16.4764 18.5702 20.3171 19.4539 21.9605 20.7175C22.5063 19.8178 22.8142 18.8241 22.8142 17.7845C22.8142 13.6259 17.9719 9.74316 12.0058 9.74316C6.03984 9.74316 1.18945 13.6259 1.18945 17.7845C1.18945 18.8301 1.49535 19.8178 2.04117 20.7175C3.68462 19.4539 7.52734 18.5702 12.0058 18.5702H12.0038Z" fill="#D5EFFC"/>
<path d="M12.004 18.6C16.4705 18.6 20.3052 19.4777 21.9467 20.7313C22.4905 19.8376 22.7984 18.8519 22.7984 17.8203C22.7984 13.6936 17.964 9.83691 12.004 9.83691C6.044 9.83691 1.20361 13.6936 1.20361 17.8203C1.20361 18.8579 1.50751 19.8376 2.05333 20.7313C3.69478 19.4777 7.5315 18.602 12.004 18.6Z" fill="#DBF1FD"/>
<path d="M12.0039 18.6278C16.4644 18.6278 20.2952 19.4995 21.9326 20.7431C22.4764 19.8554 22.7823 18.8777 22.7823 17.8541C22.7823 13.7594 17.9539 9.92871 12.0039 9.92871C6.05392 9.92871 1.21753 13.7594 1.21753 17.8541C1.21753 18.8837 1.52143 19.8554 2.06725 20.7431C3.7067 19.4995 7.53942 18.6298 12.0039 18.6278Z" fill="#E0F3FD"/>
<path d="M12.004 18.6581C16.4585 18.6581 20.2832 19.5218 21.9187 20.7574C22.4605 19.8777 22.7684 18.906 22.7684 17.8903C22.7684 13.8277 17.946 10.0229 12.006 10.0229C6.06599 10.0229 1.2356 13.8277 1.2356 17.8903C1.2356 18.912 1.5395 19.8757 2.08331 20.7574C3.71877 19.5238 7.54749 18.6601 12.006 18.6581H12.004Z" fill="#E6F5FD"/>
<path d="M12.004 18.6858C16.4525 18.6858 20.2712 19.5436 21.9047 20.7691C22.4465 19.8954 22.7524 18.9338 22.7524 17.9261C22.7524 13.8954 17.938 10.1167 12.004 10.1167C6.06995 10.1167 1.24756 13.8954 1.24756 17.9261C1.24756 18.9398 1.55146 19.8974 2.09328 20.7691C3.72673 19.5456 7.54946 18.6878 12.002 18.6858H12.004Z" fill="#EBF7FE"/>
<path d="M12.0038 18.7161C16.4464 18.7161 20.2591 19.5679 21.8906 20.7815C22.4304 19.9157 22.7363 18.9601 22.7363 17.9604C22.7363 13.9617 17.9279 10.209 12.0038 10.209C6.07982 10.209 1.26343 13.9617 1.26343 17.9604C1.26343 18.9661 1.56733 19.9157 2.10915 20.7815C3.7406 19.5659 7.55733 18.7181 12.0038 18.7161Z" fill="#F1FAFE"/>
<path d="M12.004 18.744C16.4405 18.744 20.2473 19.5877 21.8767 20.7933C22.4165 19.9336 22.7224 18.9859 22.7224 17.9942C22.7224 14.0275 17.922 10.3008 12.004 10.3008C6.08598 10.3008 1.27759 14.0275 1.27759 17.9942C1.27759 18.9919 1.58149 19.9336 2.12131 20.7933C3.75076 19.5877 7.56349 18.746 12.004 18.744Z" fill="#F7FCFE"/>
<path d="M12.0039 18.7742C16.4344 18.7742 20.2351 19.6119 21.8626 20.8075C22.4004 19.9558 22.7063 19.0161 22.7063 18.0324C22.7063 14.0977 17.9119 10.397 12.0039 10.397C6.09586 10.397 1.29346 14.0977 1.29346 18.0324C1.29346 19.0221 1.59536 19.9558 2.13518 20.8075C3.76263 19.6119 7.56936 18.7762 12.0039 18.7742Z" fill="white"/>
</g>
<path d="M12.0039 14.8433C8.12323 14.8433 4.52443 15.501 1.55542 16.6127C3.33483 20.6113 7.34149 23.3964 12.0059 23.3964C16.6704 23.3964 20.669 20.6113 22.4544 16.6127C19.4814 15.501 15.8826 14.8433 12.0059 14.8433H12.0039Z" fill="#0078BA"/>
</svg>
